  0
SECTION
  2
HEADER
  9
$ACADVER
  1
AC1009
  9
$DWGCODEPAGE
  3
ANSI_1252
  9
$INSBASE
 10
0.0
 20
0.0
 30
0.0
  9
$EXTMIN
 10
1e+20
 20
1e+20
 30
1e+20
  9
$EXTMAX
 10
-1e+20
 20
-1e+20
 30
-1e+20
  9
$LIMMIN
 10
0.0
 20
0.0
  9
$LIMMAX
 10
420.0
 20
297.0
  9
$ORTHOMODE
 70
0
  9
$REGENMODE
 70
1
  9
$FILLMODE
 70
1
  9
$DRAGMODE
 70
2
  9
$QTEXTMODE
 70
0
  9
$MIRRTEXT
 70
1
  9
$OSMODE
 70
20583
  9
$LTSCALE
 40
1.0
  9
$ATTMODE
 70
1
  9
$TEXTSIZE
 40
2.5
  9
$TRACEWID
 40
1.0
  9
$TEXTSTYLE
  7
Standard
  9
$CLAYER
  8
0
  9
$CELTYPE
  6
ByLayer
  9
$CECOLOR
 62
256
  9
$DIMSCALE
 40
1.0
  9
$DIMASZ
 40
2.5
  9
$DIMEXO
 40
0.625
  9
$DIMDLI
 40
3.75
  9
$DIMRND
 40
0.0
  9
$DIMDLE
 40
0.0
  9
$DIMEXE
 40
1.25
  9
$DIMTP
 40
0.0
  9
$DIMTM
 40
0.0
  9
$DIMTXT
 40
2.5
  9
$DIMCEN
 40
2.5
  9
$DIMTSZ
 40
0.0
  9
$DIMTOL
 70
0
  9
$DIMLIM
 70
0
  9
$DIMTIH
 70
0
  9
$DIMTOH
 70
0
  9
$DIMSE1
 70
0
  9
$DIMSE2
 70
0
  9
$DIMTAD
 70
1
  9
$DIMZIN
 70
8
  9
$DIMBLK
  1

  9
$DIMASO
 70
1
  9
$DIMSHO
 70
1
  9
$DIMPOST
  1

  9
$DIMAPOST
  1

  9
$DIMALT
 70
0
  9
$DIMALTD
 70
3
  9
$DIMALTF
 40
0.03937007874
  9
$DIMLFAC
 40
1.0
  9
$DIMTOFL
 70
1
  9
$DIMTVP
 40
0.0
  9
$DIMTIX
 70
0
  9
$DIMSOXD
 70
0
  9
$DIMSAH
 70
0
  9
$DIMBLK1
  1

  9
$DIMBLK2
  1

  9
$DIMSTYLE
  2
ISO-25
  9
$DIMCLRD
 70
0
  9
$DIMCLRE
 70
0
  9
$DIMCLRT
 70
0
  9
$DIMTFAC
 40
1.0
  9
$DIMGAP
 40
0.625
  9
$COORDS
 70
1
  9
$ATTDIA
 70
0
  9
$ATTREQ
 70
1
  9
$HANDLING
 70
1
  9
$LUNITS
 70
2
  9
$LUPREC
 70
4
  9
$SKETCHINC
 40
1.0
  9
$FILLETRAD
 40
10.0
  9
$AUNITS
 70
0
  9
$AUPREC
 70
2
  9
$MENU
  1
.
  9
$ELEVATION
 40
0.0
  9
$PELEVATION
 40
0.0
  9
$THICKNESS
 40
0.0
  9
$LIMCHECK
 70
0
  9
$CHAMFERA
 40
0.0
  9
$CHAMFERB
 40
0.0
  9
$SKPOLY
 70
0
  9
$TDCREATE
 40
2459340.736284722
  9
$TDUPDATE
 40
2459340.736284722
  9
$TDINDWG
 40
0.0
  9
$TDUSRTIMER
 40
0.0
  9
$USRTIMER
 70
1
  9
$ANGBASE
 50
0.0
  9
$ANGDIR
 70
0
  9
$PDMODE
 70
0
  9
$PDSIZE
 40
0.0
  9
$PLINEWID
 40
0.0
  9
$SPLFRAME
 70
0
  9
$SPLINETYPE
 70
6
  9
$SPLINESEGS
 70
8
  9
$HANDSEED
  5
367
  9
$SURFTAB1
 70
6
  9
$SURFTAB2
 70
6
  9
$SURFTYPE
 70
6
  9
$SURFU
 70
6
  9
$SURFV
 70
6
  9
$UCSNAME
  2

  9
$UCSORG
 10
0.0
 20
0.0
 30
0.0
  9
$UCSXDIR
 10
1.0
 20
0.0
 30
0.0
  9
$UCSYDIR
 10
0.0
 20
1.0
 30
0.0
  9
$PUCSNAME
  2

  9
$PUCSORG
 10
0.0
 20
0.0
 30
0.0
  9
$PUCSXDIR
 10
1.0
 20
0.0
 30
0.0
  9
$PUCSYDIR
 10
0.0
 20
1.0
 30
0.0
  9
$USERI1
 70
0
  9
$USERI2
 70
0
  9
$USERI3
 70
0
  9
$USERI4
 70
0
  9
$USERI5
 70
0
  9
$USERR1
 40
0.0
  9
$USERR2
 40
0.0
  9
$USERR3
 40
0.0
  9
$USERR4
 40
0.0
  9
$USERR5
 40
0.0
  9
$WORLDVIEW
 70
1
  9
$SHADEDGE
 70
3
  9
$SHADEDIF
 70
70
  9
$TILEMODE
 70
1
  9
$MAXACTVP
 70
64
  9
$PLIMCHECK
 70
0
  9
$PEXTMIN
 10
1e+20
 20
1e+20
 30
1e+20
  9
$PEXTMAX
 10
-1e+20
 20
-1e+20
 30
-1e+20
  9
$PLIMMIN
 10
0.0
 20
0.0
  9
$PLIMMAX
 10
420.0
 20
297.0
  9
$UNITMODE
 70
0
  9
$VISRETAIN
 70
1
  9
$PLINEGEN
 70
0
  9
$PSLTSCALE
 70
1
  0
ENDSEC
  0
SECTION
  2
TABLES
  0
TABLE
  2
VPORT
 70
1
  0
VPORT
  5
23
  2
*Active
 70
0
 10
0.0
 20
0.0
 11
1.0
 21
1.0
 12
344.2
 22
148.5
 13
0.0
 23
0.0
 14
0.5
 24
0.5
 15
0.5
 25
0.5
 16
0.0
 26
0.0
 36
1.0
 17
0.0
 27
0.0
 37
0.0
 40
297.0
 41
1.34
 42
50.0
 43
0.0
 44
0.0
 50
0.0
 51
0.0
 71
0
 72
1000
 73
1
 74
3
 75
0
 76
0
 77
0
 78
0
  0
ENDTAB
  0
TABLE
  2
LTYPE
 70
3
  0
LTYPE
  5
24
  2
ByBlock
 70
0
  3

 72
65
 73
0
 40
0.0
  0
LTYPE
  5
25
  2
ByLayer
 70
0
  3

 72
65
 73
0
 40
0.0
  0
LTYPE
  5
26
  2
Continuous
 70
0
  3

 72
65
 73
0
 40
0.0
  0
ENDTAB
  0
TABLE
  2
LAYER
 70
3
  0
LAYER
  5
27
  2
0
 70
0
 62
7
  6
Continuous
  0
LAYER
  5
28
  2
Defpoints
 70
0
 62
7
  6
Continuous
  0
LAYER
  5
2D
  2
MyLines
 70
0
 62
7
  6
DASHED
  0
ENDTAB
  0
TABLE
  2
STYLE
 70
1
  0
STYLE
  5
29
  2
Standard
 70
0
 40
0.0
 41
1.0
 50
0.0
 71
0
 42
2.5
  3
txt
  4

  0
ENDTAB
  0
TABLE
  2
VIEW
 70
0
  0
ENDTAB
  0
TABLE
  2
UCS
 70
0
  0
ENDTAB
  0
TABLE
  2
APPID
 70
2
  0
APPID
  5
2A
  2
ACAD
 70
0
  0
APPID
  5
366
  2
HATCHBACKGROUNDCOLOR
 70
0
  0
ENDTAB
  0
TABLE
  2
DIMSTYLE
 70
1
  0
DIMSTYLE
105
2B
  2
Standard
 70
0
  3

  4

  5

  6

  7

 40
1.0
 41
2.5
 42
0.625
 43
3.75
 44
1.25
 45
0.0
 46
0.0
 47
0.0
 48
0.0
140
2.5
141
2.5
142
0.0
143
0.03937007874
144
1.0
145
0.0
146
1.0
147
0.625
 71
0
 72
0
 73
0
 74
0
 75
0
 76
0
 77
1
 78
8
170
0
171
3
172
1
173
0
174
0
175
0
176
0
177
0
178
0
  0
ENDTAB
  0
ENDSEC
  0
SECTION
  2
BLOCKS
  0
BLOCK
  5
18
  8
0
  2
$Model_Space
 70
0
 10
0.0
 20
0.0
 30
0.0
  3
$Model_Space
  1

  0
ENDBLK
  5
19
  8
0
  0
BLOCK
  5
1C
  8
0
  2
$Paper_Space
 70
0
 10
0.0
 20
0.0
 30
0.0
  3
$Paper_Space
  1

  0
ENDBLK
  5
1D
  8
0
  0
ENDSEC
  0
SECTION
  2
ENTITIES
  0
LINE
  5
2E
  8
MyLines
 10
51.862362695531004
 20
-169.5
 30
0.0
 11
51.862362695531004
 21
-161.5625
 31
0.0
  0
LINE
  5
2F
  8
MyLines
 10
51.862362695531004
 20
-161.5625
 30
0.0
 11
51.862362695531004
 21
169.5
 31
0.0
  0
LINE
  5
30
  8
MyLines
 10
51.862362695531004
 20
169.5
 30
0.0
 11
51.862362695531004
 21
169.5
 31
0.0
  0
LINE
  5
31
  8
MyLines
 10
51.862362695531004
 20
169.5
 30
0.0
 11
53.816779187610386
 21
169.5
 31
0.0
  0
LINE
  5
32
  8
MyLines
 10
53.816779187610386
 20
169.5
 30
0.0
 11
55.771195679689775
 21
169.5
 31
0.0
  0
LINE
  5
33
  8
MyLines
 10
55.771195679689775
 20
169.5
 30
0.0
 11
57.72561217176916
 21
169.5
 31
0.0
  0
LINE
  5
34
  8
MyLines
 10
57.72561217176916
 20
169.5
 30
0.0
 11
59.680028663848546
 21
169.5
 31
0.0
  0
LINE
  5
35
  8
MyLines
 10
59.680028663848546
 20
169.5
 30
0.0
 11
61.63444515592793
 21
169.5
 31
0.0
  0
LINE
  5
36
  8
MyLines
 10
61.63444515592793
 20
169.5
 30
0.0
 11
63.58886164800731
 21
169.5
 31
0.0
  0
LINE
  5
37
  8
MyLines
 10
63.58886164800731
 20
169.5
 30
0.0
 11
65.5432781400867
 21
169.5
 31
0.0
  0
LINE
  5
38
  8
MyLines
 10
65.5432781400867
 20
169.5
 30
0.0
 11
67.49769463216607
 21
169.5
 31
0.0
  0
LINE
  5
39
  8
MyLines
 10
67.49769463216607
 20
169.5
 30
0.0
 11
69.45211112424548
 21
169.5
 31
0.0
  0
LINE
  5
3A
  8
MyLines
 10
69.45211112424548
 20
169.5
 30
0.0
 11
71.40652761632485
 21
169.5
 31
0.0
  0
LINE
  5
3B
  8
MyLines
 10
71.40652761632485
 20
169.5
 30
0.0
 11
73.36094410840424
 21
169.5
 31
0.0
  0
LINE
  5
3C
  8
MyLines
 10
73.36094410840424
 20
169.5
 30
0.0
 11
75.31536060048361
 21
169.5
 31
0.0
  0
LINE
  5
3D
  8
MyLines
 10
75.31536060048361
 20
169.5
 30
0.0
 11
77.269777092563
 21
169.5
 31
0.0
  0
LINE
  5
3E
  8
MyLines
 10
77.269777092563
 20
169.5
 30
0.0
 11
79.22419358464239
 21
169.5
 31
0.0
  0
LINE
  5
3F
  8
MyLines
 10
79.22419358464239
 20
169.5
 30
0.0
 11
81.17861007672178
 21
169.5
 31
0.0
  0
LINE
  5
40
  8
MyLines
 10
81.17861007672178
 20
169.5
 30
0.0
 11
83.13302656880116
 21
169.5
 31
0.0
  0
LINE
  5
41
  8
MyLines
 10
83.13302656880116
 20
169.5
 30
0.0
 11
85.08744306088055
 21
169.5
 31
0.0
  0
LINE
  5
42
  8
MyLines
 10
85.08744306088055
 20
169.5
 30
0.0
 11
87.04185955295992
 21
169.5
 31
0.0
  0
LINE
  5
43
  8
MyLines
 10
87.04185955295992
 20
169.5
 30
0.0
 11
88.99627604503932
 21
169.5
 31
0.0
  0
LINE
  5
44
  8
MyLines
 10
88.99627604503932
 20
169.5
 30
0.0
 11
90.9506925371187
 21
169.5
 31
0.0
  0
LINE
  5
45
  8
MyLines
 10
90.9506925371187
 20
169.5
 30
0.0
 11
92.90510902919809
 21
169.5
 31
0.0
  0
LINE
  5
46
  8
MyLines
 10
92.90510902919809
 20
169.5
 30
0.0
 11
94.85952552127748
 21
169.5
 31
0.0
  0
LINE
  5
47
  8
MyLines
 10
94.85952552127748
 20
169.5
 30
0.0
 11
96.81394201335685
 21
169.5
 31
0.0
  0
LINE
  5
48
  8
MyLines
 10
96.81394201335685
 20
169.5
 30
0.0
 11
98.76835850543625
 21
169.5
 31
0.0
  0
LINE
  5
49
  8
MyLines
 10
98.76835850543625
 20
169.5
 30
0.0
 11
100.72277499751561
 21
169.5
 31
0.0
  0
LINE
  5
4A
  8
MyLines
 10
100.72277499751561
 20
169.5
 30
0.0
 11
102.67719148959502
 21
169.5
 31
0.0
  0
LINE
  5
4B
  8
MyLines
 10
102.67719148959502
 20
169.5
 30
0.0
 11
104.63160798167439
 21
169.5
 31
0.0
  0
LINE
  5
4C
  8
MyLines
 10
104.63160798167439
 20
169.5
 30
0.0
 11
106.58602447375378
 21
169.5
 31
0.0
  0
LINE
  5
4D
  8
MyLines
 10
106.58602447375378
 20
169.5
 30
0.0
 11
108.54044096583317
 21
169.5
 31
0.0
  0
LINE
  5
4E
  8
MyLines
 10
108.54044096583317
 20
169.5
 30
0.0
 11
110.49485745791254
 21
169.5
 31
0.0
  0
LINE
  5
4F
  8
MyLines
 10
110.49485745791254
 20
169.5
 30
0.0
 11
112.44927394999193
 21
169.5
 31
0.0
  0
LINE
  5
50
  8
MyLines
 10
112.44927394999193
 20
169.5
 30
0.0
 11
114.40369044207132
 21
169.5
 31
0.0
  0
LINE
  5
51
  8
MyLines
 10
114.40369044207132
 20
169.5
 30
0.0
 11
116.3581069341507
 21
169.5
 31
0.0
  0
LINE
  5
52
  8
MyLines
 10
116.3581069341507
 20
169.5
 30
0.0
 11
118.31252342623009
 21
169.5
 31
0.0
  0
LINE
  5
53
  8
MyLines
 10
118.31252342623009
 20
169.5
 30
0.0
 11
120.26693991830948
 21
169.5
 31
0.0
  0
LINE
  5
54
  8
MyLines
 10
120.26693991830948
 20
169.5
 30
0.0
 11
122.22135641038886
 21
169.5
 31
0.0
  0
LINE
  5
55
  8
MyLines
 10
122.22135641038886
 20
169.5
 30
0.0
 11
124.17577290246824
 21
169.5
 31
0.0
  0
LINE
  5
56
  8
MyLines
 10
124.17577290246824
 20
169.5
 30
0.0
 11
126.13018939454763
 21
169.5
 31
0.0
  0
LINE
  5
57
  8
MyLines
 10
126.13018939454763
 20
169.5
 30
0.0
 11
128.08460588662703
 21
169.5
 31
0.0
  0
LINE
  5
58
  8
MyLines
 10
128.08460588662703
 20
169.5
 30
0.0
 11
130.0390223787064
 21
169.5
 31
0.0
  0
LINE
  5
59
  8
MyLines
 10
130.0390223787064
 20
169.5
 30
0.0
 11
131.99343887078578
 21
169.5
 31
0.0
  0
LINE
  5
5A
  8
MyLines
 10
131.99343887078578
 20
169.5
 30
0.0
 11
133.94785536286517
 21
169.5
 31
0.0
  0
LINE
  5
5B
  8
MyLines
 10
133.94785536286517
 20
169.5
 30
0.0
 11
135.90227185494456
 21
169.5
 31
0.0
  0
LINE
  5
5C
  8
MyLines
 10
135.90227185494456
 20
169.5
 30
0.0
 11
137.85668834702392
 21
169.5
 31
0.0
  0
LINE
  5
5D
  8
MyLines
 10
137.85668834702392
 20
169.5
 30
0.0
 11
139.8111048391033
 21
169.5
 31
0.0
  0
LINE
  5
5E
  8
MyLines
 10
139.8111048391033
 20
169.5
 30
0.0
 11
141.76552133118273
 21
169.5
 31
0.0
  0
LINE
  5
5F
  8
MyLines
 10
141.76552133118273
 20
169.5
 30
0.0
 11
143.7199378232621
 21
169.5
 31
0.0
  0
LINE
  5
60
  8
MyLines
 10
143.7199378232621
 20
169.5
 30
0.0
 11
145.67435431534147
 21
169.5
 31
0.0
  0
LINE
  5
61
  8
MyLines
 10
145.67435431534147
 20
169.5
 30
0.0
 11
147.62877080742086
 21
169.5
 31
0.0
  0
LINE
  5
62
  8
MyLines
 10
147.62877080742086
 20
169.5
 30
0.0
 11
147.62877080742086
 21
-157.59375
 31
0.0
  0
LINE
  5
63
  8
MyLines
 10
147.62877080742086
 20
-157.59375
 30
0.0
 11
147.62877080742086
 21
-157.59375
 31
0.0
  0
LINE
  5
64
  8
MyLines
 10
147.62877080742086
 20
-157.59375
 30
0.0
 11
145.7562175612676
 21
-157.59375
 31
0.0
  0
LINE
  5
65
  8
MyLines
 10
145.7562175612676
 20
-157.59375
 30
0.0
 11
143.88366431511434
 21
-157.59375
 31
0.0
  0
LINE
  5
66
  8
MyLines
 10
143.88366431511434
 20
-157.59375
 30
0.0
 11
142.0111110689611
 21
-157.59375
 31
0.0
  0
LINE
  5
67
  8
MyLines
 10
142.0111110689611
 20
-157.59375
 30
0.0
 11
140.13855782280785
 21
-157.59375
 31
0.0
  0
LINE
  5
68
  8
MyLines
 10
140.13855782280785
 20
-157.59375
 30
0.0
 11
138.2660045766546
 21
-157.59375
 31
0.0
  0
LINE
  5
69
  8
MyLines
 10
138.2660045766546
 20
-157.59375
 30
0.0
 11
136.39345133050136
 21
-157.59375
 31
0.0
  0
LINE
  5
6A
  8
MyLines
 10
136.39345133050136
 20
-157.59375
 30
0.0
 11
134.5208980843481
 21
-157.59375
 31
0.0
  0
LINE
  5
6B
  8
MyLines
 10
134.5208980843481
 20
-157.59375
 30
0.0
 11
132.64834483819484
 21
-157.59375
 31
0.0
  0
LINE
  5
6C
  8
MyLines
 10
132.64834483819484
 20
-157.59375
 30
0.0
 11
130.77579159204157
 21
-157.59375
 31
0.0
  0
LINE
  5
6D
  8
MyLines
 10
130.77579159204157
 20
-157.59375
 30
0.0
 11
128.90323834588833
 21
-157.59375
 31
0.0
  0
LINE
  5
6E
  8
MyLines
 10
128.90323834588833
 20
-157.59375
 30
0.0
 11
127.0306850997351
 21
-157.59375
 31
0.0
  0
LINE
  5
6F
  8
MyLines
 10
127.0306850997351
 20
-157.59375
 30
0.0
 11
125.15813185358184
 21
-157.59375
 31
0.0
  0
LINE
  5
70
  8
MyLines
 10
125.15813185358184
 20
-157.59375
 30
0.0
 11
123.28557860742858
 21
-157.59375
 31
0.0
  0
LINE
  5
71
  8
MyLines
 10
123.28557860742858
 20
-157.59375
 30
0.0
 11
121.41302536127533
 21
-157.59375
 31
0.0
  0
LINE
  5
72
  8
MyLines
 10
121.41302536127533
 20
-157.59375
 30
0.0
 11
119.54047211512207
 21
-157.59375
 31
0.0
  0
LINE
  5
73
  8
MyLines
 10
119.54047211512207
 20
-157.59375
 30
0.0
 11
117.66791886896883
 21
-157.59375
 31
0.0
  0
LINE
  5
74
  8
MyLines
 10
117.66791886896883
 20
-157.59375
 30
0.0
 11
115.79536562281558
 21
-157.59375
 31
0.0
  0
LINE
  5
75
  8
MyLines
 10
115.79536562281558
 20
-157.59375
 30
0.0
 11
113.92281237666232
 21
-157.59375
 31
0.0
  0
LINE
  5
76
  8
MyLines
 10
113.92281237666232
 20
-157.59375
 30
0.0
 11
112.05025913050906
 21
-157.59375
 31
0.0
  0
LINE
  5
77
  8
MyLines
 10
112.05025913050906
 20
-157.59375
 30
0.0
 11
110.17770588435582
 21
-157.59375
 31
0.0
  0
LINE
  5
78
  8
MyLines
 10
110.17770588435582
 20
-157.59375
 30
0.0
 11
108.30515263820257
 21
-157.59375
 31
0.0
  0
LINE
  5
79
  8
MyLines
 10
108.30515263820257
 20
-157.59375
 30
0.0
 11
106.43259939204931
 21
-157.59375
 31
0.0
  0
LINE
  5
7A
  8
MyLines
 10
106.43259939204931
 20
-157.59375
 30
0.0
 11
104.56004614589607
 21
-157.59375
 31
0.0
  0
LINE
  5
7B
  8
MyLines
 10
104.56004614589607
 20
-157.59375
 30
0.0
 11
102.68749289974281
 21
-157.59375
 31
0.0
  0
LINE
  5
7C
  8
MyLines
 10
102.68749289974281
 20
-157.59375
 30
0.0
 11
100.81493965358955
 21
-157.59375
 31
0.0
  0
LINE
  5
7D
  8
MyLines
 10
100.81493965358955
 20
-157.59375
 30
0.0
 11
98.94238640743632
 21
-157.59375
 31
0.0
  0
LINE
  5
7E
  8
MyLines
 10
98.94238640743632
 20
-157.59375
 30
0.0
 11
97.06983316128306
 21
-157.59375
 31
0.0
  0
LINE
  5
7F
  8
MyLines
 10
97.06983316128306
 20
-157.59375
 30
0.0
 11
95.1972799151298
 21
-157.59375
 31
0.0
  0
LINE
  5
80
  8
MyLines
 10
95.1972799151298
 20
-157.59375
 30
0.0
 11
93.32472666897655
 21
-157.59375
 31
0.0
  0
LINE
  5
81
  8
MyLines
 10
93.32472666897655
 20
-157.59375
 30
0.0
 11
91.4521734228233
 21
-157.59375
 31
0.0
  0
LINE
  5
82
  8
MyLines
 10
91.4521734228233
 20
-157.59375
 30
0.0
 11
89.57962017667005
 21
-157.59375
 31
0.0
  0
LINE
  5
83
  8
MyLines
 10
89.57962017667005
 20
-157.59375
 30
0.0
 11
87.7070669305168
 21
-157.59375
 31
0.0
  0
LINE
  5
84
  8
MyLines
 10
87.7070669305168
 20
-157.59375
 30
0.0
 11
85.83451368436354
 21
-157.59375
 31
0.0
  0
LINE
  5
85
  8
MyLines
 10
85.83451368436354
 20
-157.59375
 30
0.0
 11
83.96196043821028
 21
-157.59375
 31
0.0
  0
LINE
  5
86
  8
MyLines
 10
83.96196043821028
 20
-157.59375
 30
0.0
 11
82.08940719205702
 21
-157.59375
 31
0.0
  0
LINE
  5
87
  8
MyLines
 10
82.08940719205702
 20
-157.59375
 30
0.0
 11
80.2168539459038
 21
-157.59375
 31
0.0
  0
LINE
  5
88
  8
MyLines
 10
80.2168539459038
 20
-157.59375
 30
0.0
 11
78.34430069975053
 21
-157.59375
 31
0.0
  0
LINE
  5
89
  8
MyLines
 10
78.34430069975053
 20
-157.59375
 30
0.0
 11
76.47174745359727
 21
-157.59375
 31
0.0
  0
LINE
  5
8A
  8
MyLines
 10
76.47174745359727
 20
-157.59375
 30
0.0
 11
74.59919420744403
 21
-157.59375
 31
0.0
  0
LINE
  5
8B
  8
MyLines
 10
74.59919420744403
 20
-157.59375
 30
0.0
 11
72.72664096129077
 21
-157.59375
 31
0.0
  0
LINE
  5
8C
  8
MyLines
 10
72.72664096129077
 20
-157.59375
 30
0.0
 11
70.85408771513752
 21
-157.59375
 31
0.0
  0
LINE
  5
8D
  8
MyLines
 10
70.85408771513752
 20
-157.59375
 30
0.0
 11
68.98153446898428
 21
-157.59375
 31
0.0
  0
LINE
  5
8E
  8
MyLines
 10
68.98153446898428
 20
-157.59375
 30
0.0
 11
67.10898122283102
 21
-157.59375
 31
0.0
  0
LINE
  5
8F
  8
MyLines
 10
67.10898122283102
 20
-157.59375
 30
0.0
 11
65.23642797667776
 21
-157.59375
 31
0.0
  0
LINE
  5
90
  8
MyLines
 10
65.23642797667776
 20
-157.59375
 30
0.0
 11
63.36387473052452
 21
-157.59375
 31
0.0
  0
LINE
  5
91
  8
MyLines
 10
63.36387473052452
 20
-157.59375
 30
0.0
 11
61.49132148437126
 21
-157.59375
 31
0.0
  0
LINE
  5
92
  8
MyLines
 10
61.49132148437126
 20
-157.59375
 30
0.0
 11
59.618768238218
 21
-157.59375
 31
0.0
  0
LINE
  5
93
  8
MyLines
 10
59.618768238218
 20
-157.59375
 30
0.0
 11
57.746214992064765
 21
-157.59375
 31
0.0
  0
LINE
  5
94
  8
MyLines
 10
57.746214992064765
 20
-157.59375
 30
0.0
 11
55.873661745911505
 21
-157.59375
 31
0.0
  0
LINE
  5
95
  8
MyLines
 10
55.873661745911505
 20
-157.59375
 30
0.0
 11
55.873661745911505
 21
-157.59375
 31
0.0
  0
LINE
  5
96
  8
MyLines
 10
55.873661745911505
 20
-157.59375
 30
0.0
 11
55.873661745911505
 21
165.53125
 31
0.0
  0
LINE
  5
97
  8
MyLines
 10
55.873661745911505
 20
165.53125
 30
0.0
 11
55.873661745911505
 21
165.53125
 31
0.0
  0
LINE
  5
98
  8
MyLines
 10
55.873661745911505
 20
165.53125
 30
0.0
 11
57.66435174613862
 21
165.53125
 31
0.0
  0
LINE
  5
99
  8
MyLines
 10
57.66435174613862
 20
165.53125
 30
0.0
 11
59.45504174636574
 21
165.53125
 31
0.0
  0
LINE
  5
9A
  8
MyLines
 10
59.45504174636574
 20
165.53125
 30
0.0
 11
61.24573174659286
 21
165.53125
 31
0.0
  0
LINE
  5
9B
  8
MyLines
 10
61.24573174659286
 20
165.53125
 30
0.0
 11
63.03642174681998
 21
165.53125
 31
0.0
  0
LINE
  5
9C
  8
MyLines
 10
63.03642174681998
 20
165.53125
 30
0.0
 11
64.8271117470471
 21
165.53125
 31
0.0
  0
LINE
  5
9D
  8
MyLines
 10
64.8271117470471
 20
165.53125
 30
0.0
 11
66.61780174727423
 21
165.53125
 31
0.0
  0
LINE
  5
9E
  8
MyLines
 10
66.61780174727423
 20
165.53125
 30
0.0
 11
68.40849174750134
 21
165.53125
 31
0.0
  0
LINE
  5
9F
  8
MyLines
 10
68.40849174750134
 20
165.53125
 30
0.0
 11
70.19918174772846
 21
165.53125
 31
0.0
  0
LINE
  5
A0
  8
MyLines
 10
70.19918174772846
 20
165.53125
 30
0.0
 11
71.98987174795558
 21
165.53125
 31
0.0
  0
LINE
  5
A1
  8
MyLines
 10
71.98987174795558
 20
165.53125
 30
0.0
 11
73.78056174818269
 21
165.53125
 31
0.0
  0
LINE
  5
A2
  8
MyLines
 10
73.78056174818269
 20
165.53125
 30
0.0
 11
75.57125174840982
 21
165.53125
 31
0.0
  0
LINE
  5
A3
  8
MyLines
 10
75.57125174840982
 20
165.53125
 30
0.0
 11
77.36194174863694
 21
165.53125
 31
0.0
  0
LINE
  5
A4
  8
MyLines
 10
77.36194174863694
 20
165.53125
 30
0.0
 11
79.15263174886405
 21
165.53125
 31
0.0
  0
LINE
  5
A5
  8
MyLines
 10
79.15263174886405
 20
165.53125
 30
0.0
 11
80.94332174909117
 21
165.53125
 31
0.0
  0
LINE
  5
A6
  8
MyLines
 10
80.94332174909117
 20
165.53125
 30
0.0
 11
82.73401174931828
 21
165.53125
 31
0.0
  0
LINE
  5
A7
  8
MyLines
 10
82.73401174931828
 20
165.53125
 30
0.0
 11
84.52470174954541
 21
165.53125
 31
0.0
  0
LINE
  5
A8
  8
MyLines
 10
84.52470174954541
 20
165.53125
 30
0.0
 11
86.31539174977253
 21
165.53125
 31
0.0
  0
LINE
  5
A9
  8
MyLines
 10
86.31539174977253
 20
165.53125
 30
0.0
 11
88.10608174999966
 21
165.53125
 31
0.0
  0
LINE
  5
AA
  8
MyLines
 10
88.10608174999966
 20
165.53125
 30
0.0
 11
89.89677175022678
 21
165.53125
 31
0.0
  0
LINE
  5
AB
  8
MyLines
 10
89.89677175022678
 20
165.53125
 30
0.0
 11
91.68746175045389
 21
165.53125
 31
0.0
  0
LINE
  5
AC
  8
MyLines
 10
91.68746175045389
 20
165.53125
 30
0.0
 11
93.47815175068101
 21
165.53125
 31
0.0
  0
LINE
  5
AD
  8
MyLines
 10
93.47815175068101
 20
165.53125
 30
0.0
 11
95.26884175090812
 21
165.53125
 31
0.0
  0
LINE
  5
AE
  8
MyLines
 10
95.26884175090812
 20
165.53125
 30
0.0
 11
97.05953175113524
 21
165.53125
 31
0.0
  0
LINE
  5
AF
  8
MyLines
 10
97.05953175113524
 20
165.53125
 30
0.0
 11
98.85022175136237
 21
165.53125
 31
0.0
  0
LINE
  5
B0
  8
MyLines
 10
98.85022175136237
 20
165.53125
 30
0.0
 11
100.64091175158948
 21
165.53125
 31
0.0
  0
LINE
  5
B1
  8
MyLines
 10
100.64091175158948
 20
165.53125
 30
0.0
 11
102.4316017518166
 21
165.53125
 31
0.0
  0
LINE
  5
B2
  8
MyLines
 10
102.4316017518166
 20
165.53125
 30
0.0
 11
104.22229175204373
 21
165.53125
 31
0.0
  0
LINE
  5
B3
  8
MyLines
 10
104.22229175204373
 20
165.53125
 30
0.0
 11
106.01298175227085
 21
165.53125
 31
0.0
  0
LINE
  5
B4
  8
MyLines
 10
106.01298175227085
 20
165.53125
 30
0.0
 11
107.80367175249796
 21
165.53125
 31
0.0
  0
LINE
  5
B5
  8
MyLines
 10
107.80367175249796
 20
165.53125
 30
0.0
 11
109.59436175272508
 21
165.53125
 31
0.0
  0
LINE
  5
B6
  8
MyLines
 10
109.59436175272508
 20
165.53125
 30
0.0
 11
111.38505175295221
 21
165.53125
 31
0.0
  0
LINE
  5
B7
  8
MyLines
 10
111.38505175295221
 20
165.53125
 30
0.0
 11
113.17574175317932
 21
165.53125
 31
0.0
  0
LINE
  5
B8
  8
MyLines
 10
113.17574175317932
 20
165.53125
 30
0.0
 11
114.96643175340644
 21
165.53125
 31
0.0
  0
LINE
  5
B9
  8
MyLines
 10
114.96643175340644
 20
165.53125
 30
0.0
 11
116.75712175363356
 21
165.53125
 31
0.0
  0
LINE
  5
BA
  8
MyLines
 10
116.75712175363356
 20
165.53125
 30
0.0
 11
118.54781175386067
 21
165.53125
 31
0.0
  0
LINE
  5
BB
  8
MyLines
 10
118.54781175386067
 20
165.53125
 30
0.0
 11
120.3385017540878
 21
165.53125
 31
0.0
  0
LINE
  5
BC
  8
MyLines
 10
120.3385017540878
 20
165.53125
 30
0.0
 11
122.12919175431492
 21
165.53125
 31
0.0
  0
LINE
  5
BD
  8
MyLines
 10
122.12919175431492
 20
165.53125
 30
0.0
 11
123.91988175454205
 21
165.53125
 31
0.0
  0
LINE
  5
BE
  8
MyLines
 10
123.91988175454205
 20
165.53125
 30
0.0
 11
125.71057175476916
 21
165.53125
 31
0.0
  0
LINE
  5
BF
  8
MyLines
 10
125.71057175476916
 20
165.53125
 30
0.0
 11
127.50126175499628
 21
165.53125
 31
0.0
  0
LINE
  5
C0
  8
MyLines
 10
127.50126175499628
 20
165.53125
 30
0.0
 11
129.29195175522338
 21
165.53125
 31
0.0
  0
LINE
  5
C1
  8
MyLines
 10
129.29195175522338
 20
165.53125
 30
0.0
 11
131.0826417554505
 21
165.53125
 31
0.0
  0
LINE
  5
C2
  8
MyLines
 10
131.0826417554505
 20
165.53125
 30
0.0
 11
132.87333175567764
 21
165.53125
 31
0.0
  0
LINE
  5
C3
  8
MyLines
 10
132.87333175567764
 20
165.53125
 30
0.0
 11
134.66402175590474
 21
165.53125
 31
0.0
  0
LINE
  5
C4
  8
MyLines
 10
134.66402175590474
 20
165.53125
 30
0.0
 11
136.45471175613187
 21
165.53125
 31
0.0
  0
LINE
  5
C5
  8
MyLines
 10
136.45471175613187
 20
165.53125
 30
0.0
 11
138.24540175635897
 21
165.53125
 31
0.0
  0
LINE
  5
C6
  8
MyLines
 10
138.24540175635897
 20
165.53125
 30
0.0
 11
140.0360917565861
 21
165.53125
 31
0.0
  0
LINE
  5
C7
  8
MyLines
 10
140.0360917565861
 20
165.53125
 30
0.0
 11
141.82678175681323
 21
165.53125
 31
0.0
  0
LINE
  5
C8
  8
MyLines
 10
141.82678175681323
 20
165.53125
 30
0.0
 11
143.61747175704036
 21
165.53125
 31
0.0
  0
LINE
  5
C9
  8
MyLines
 10
143.61747175704036
 20
165.53125
 30
0.0
 11
143.61747175704036
 21
-153.625
 31
0.0
  0
LINE
  5
CA
  8
MyLines
 10
143.61747175704036
 20
-153.625
 30
0.0
 11
143.61747175704036
 21
-153.625
 31
0.0
  0
LINE
  5
CB
  8
MyLines
 10
143.61747175704036
 20
-153.625
 30
0.0
 11
141.91071480733007
 21
-153.625
 31
0.0
  0
LINE
  5
CC
  8
MyLines
 10
141.91071480733007
 20
-153.625
 30
0.0
 11
140.2039578576198
 21
-153.625
 31
0.0
  0
LINE
  5
CD
  8
MyLines
 10
140.2039578576198
 20
-153.625
 30
0.0
 11
138.49720090790953
 21
-153.625
 31
0.0
  0
LINE
  5
CE
  8
MyLines
 10
138.49720090790953
 20
-153.625
 30
0.0
 11
136.79044395819923
 21
-153.625
 31
0.0
  0
LINE
  5
CF
  8
MyLines
 10
136.79044395819923
 20
-153.625
 30
0.0
 11
135.08368700848897
 21
-153.625
 31
0.0
  0
LINE
  5
D0
  8
MyLines
 10
135.08368700848897
 20
-153.625
 30
0.0
 11
133.3769300587787
 21
-153.625
 31
0.0
  0
LINE
  5
D1
  8
MyLines
 10
133.3769300587787
 20
-153.625
 30
0.0
 11
131.6701731090684
 21
-153.625
 31
0.0
  0
LINE
  5
D2
  8
MyLines
 10
131.6701731090684
 20
-153.625
 30
0.0
 11
129.96341615935813
 21
-153.625
 31
0.0
  0
LINE
  5
D3
  8
MyLines
 10
129.96341615935813
 20
-153.625
 30
0.0
 11
128.25665920964784
 21
-153.625
 31
0.0
  0
LINE
  5
D4
  8
MyLines
 10
128.25665920964784
 20
-153.625
 30
0.0
 11
126.54990225993757
 21
-153.625
 31
0.0
  0
LINE
  5
D5
  8
MyLines
 10
126.54990225993757
 20
-153.625
 30
0.0
 11
124.8431453102273
 21
-153.625
 31
0.0
  0
LINE
  5
D6
  8
MyLines
 10
124.8431453102273
 20
-153.625
 30
0.0
 11
123.13638836051702
 21
-153.625
 31
0.0
  0
LINE
  5
D7
  8
MyLines
 10
123.13638836051702
 20
-153.625
 30
0.0
 11
121.42963141080673
 21
-153.625
 31
0.0
  0
LINE
  5
D8
  8
MyLines
 10
121.42963141080673
 20
-153.625
 30
0.0
 11
119.72287446109647
 21
-153.625
 31
0.0
  0
LINE
  5
D9
  8
MyLines
 10
119.72287446109647
 20
-153.625
 30
0.0
 11
118.0161175113862
 21
-153.625
 31
0.0
  0
LINE
  5
DA
  8
MyLines
 10
118.0161175113862
 20
-153.625
 30
0.0
 11
116.30936056167592
 21
-153.625
 31
0.0
  0
LINE
  5
DB
  8
MyLines
 10
116.30936056167592
 20
-153.625
 30
0.0
 11
114.60260361196563
 21
-153.625
 31
0.0
  0
LINE
  5
DC
  8
MyLines
 10
114.60260361196563
 20
-153.625
 30
0.0
 11
112.89584666225535
 21
-153.625
 31
0.0
  0
LINE
  5
DD
  8
MyLines
 10
112.89584666225535
 20
-153.625
 30
0.0
 11
111.18908971254508
 21
-153.625
 31
0.0
  0
LINE
  5
DE
  8
MyLines
 10
111.18908971254508
 20
-153.625
 30
0.0
 11
109.4823327628348
 21
-153.625
 31
0.0
  0
LINE
  5
DF
  8
MyLines
 10
109.4823327628348
 20
-153.625
 30
0.0
 11
107.77557581312452
 21
-153.625
 31
0.0
  0
LINE
  5
E0
  8
MyLines
 10
107.77557581312452
 20
-153.625
 30
0.0
 11
106.06881886341424
 21
-153.625
 31
0.0
  0
LINE
  5
E1
  8
MyLines
 10
106.06881886341424
 20
-153.625
 30
0.0
 11
104.36206191370397
 21
-153.625
 31
0.0
  0
LINE
  5
E2
  8
MyLines
 10
104.36206191370397
 20
-153.625
 30
0.0
 11
102.65530496399369
 21
-153.625
 31
0.0
  0
LINE
  5
E3
  8
MyLines
 10
102.65530496399369
 20
-153.625
 30
0.0
 11
100.9485480142834
 21
-153.625
 31
0.0
  0
LINE
  5
E4
  8
MyLines
 10
100.9485480142834
 20
-153.625
 30
0.0
 11
99.24179106457312
 21
-153.625
 31
0.0
  0
LINE
  5
E5
  8
MyLines
 10
99.24179106457312
 20
-153.625
 30
0.0
 11
97.53503411486287
 21
-153.625
 31
0.0
  0
LINE
  5
E6
  8
MyLines
 10
97.53503411486287
 20
-153.625
 30
0.0
 11
95.82827716515258
 21
-153.625
 31
0.0
  0
LINE
  5
E7
  8
MyLines
 10
95.82827716515258
 20
-153.625
 30
0.0
 11
94.1215202154423
 21
-153.625
 31
0.0
  0
LINE
  5
E8
  8
MyLines
 10
94.1215202154423
 20
-153.625
 30
0.0
 11
92.41476326573203
 21
-153.625
 31
0.0
  0
LINE
  5
E9
  8
MyLines
 10
92.41476326573203
 20
-153.625
 30
0.0
 11
90.70800631602175
 21
-153.625
 31
0.0
  0
LINE
  5
EA
  8
MyLines
 10
90.70800631602175
 20
-153.625
 30
0.0
 11
89.00124936631147
 21
-153.625
 31
0.0
  0
LINE
  5
EB
  8
MyLines
 10
89.00124936631147
 20
-153.625
 30
0.0
 11
87.29449241660119
 21
-153.625
 31
0.0
  0
LINE
  5
EC
  8
MyLines
 10
87.29449241660119
 20
-153.625
 30
0.0
 11
85.58773546689092
 21
-153.625
 31
0.0
  0
LINE
  5
ED
  8
MyLines
 10
85.58773546689092
 20
-153.625
 30
0.0
 11
83.88097851718064
 21
-153.625
 31
0.0
  0
LINE
  5
EE
  8
MyLines
 10
83.88097851718064
 20
-153.625
 30
0.0
 11
82.17422156747035
 21
-153.625
 31
0.0
  0
LINE
  5
EF
  8
MyLines
 10
82.17422156747035
 20
-153.625
 30
0.0
 11
80.46746461776007
 21
-153.625
 31
0.0
  0
LINE
  5
F0
  8
MyLines
 10
80.46746461776007
 20
-153.625
 30
0.0
 11
78.7607076680498
 21
-153.625
 31
0.0
  0
LINE
  5
F1
  8
MyLines
 10
78.7607076680498
 20
-153.625
 30
0.0
 11
77.05395071833952
 21
-153.625
 31
0.0
  0
LINE
  5
F2
  8
MyLines
 10
77.05395071833952
 20
-153.625
 30
0.0
 11
75.34719376862924
 21
-153.625
 31
0.0
  0
LINE
  5
F3
  8
MyLines
 10
75.34719376862924
 20
-153.625
 30
0.0
 11
73.64043681891896
 21
-153.625
 31
0.0
  0
LINE
  5
F4
  8
MyLines
 10
73.64043681891896
 20
-153.625
 30
0.0
 11
71.93367986920869
 21
-153.625
 31
0.0
  0
LINE
  5
F5
  8
MyLines
 10
71.93367986920869
 20
-153.625
 30
0.0
 11
70.2269229194984
 21
-153.625
 31
0.0
  0
LINE
  5
F6
  8
MyLines
 10
70.2269229194984
 20
-153.625
 30
0.0
 11
68.52016596978812
 21
-153.625
 31
0.0
  0
LINE
  5
F7
  8
MyLines
 10
68.52016596978812
 20
-153.625
 30
0.0
 11
66.81340902007786
 21
-153.625
 31
0.0
  0
LINE
  5
F8
  8
MyLines
 10
66.81340902007786
 20
-153.625
 30
0.0
 11
65.10665207036757
 21
-153.625
 31
0.0
  0
LINE
  5
F9
  8
MyLines
 10
65.10665207036757
 20
-153.625
 30
0.0
 11
63.39989512065729
 21
-153.625
 31
0.0
  0
LINE
  5
FA
  8
MyLines
 10
63.39989512065729
 20
-153.625
 30
0.0
 11
61.693138170947016
 21
-153.625
 31
0.0
  0
LINE
  5
FB
  8
MyLines
 10
61.693138170947016
 20
-153.625
 30
0.0
 11
59.98638122123673
 21
-153.625
 31
0.0
  0
LINE
  5
FC
  8
MyLines
 10
59.98638122123673
 20
-153.625
 30
0.0
 11
59.98638122123673
 21
-153.625
 31
0.0
  0
LINE
  5
FD
  8
MyLines
 10
59.98638122123673
 20
-153.625
 30
0.0
 11
59.98638122123673
 21
161.5625
 31
0.0
  0
LINE
  5
FE
  8
MyLines
 10
59.98638122123673
 20
161.5625
 30
0.0
 11
59.98638122123673
 21
161.5625
 31
0.0
  0
LINE
  5
FF
  8
MyLines
 10
59.98638122123673
 20
161.5625
 30
0.0
 11
61.609205120430175
 21
161.5625
 31
0.0
  0
LINE
  5
100
  8
MyLines
 10
61.609205120430175
 20
161.5625
 30
0.0
 11
63.23202901962361
 21
161.5625
 31
0.0
  0
LINE
  5
101
  8
MyLines
 10
63.23202901962361
 20
161.5625
 30
0.0
 11
64.85485291881704
 21
161.5625
 31
0.0
  0
LINE
  5
102
  8
MyLines
 10
64.85485291881704
 20
161.5625
 30
0.0
 11
66.47767681801048
 21
161.5625
 31
0.0
  0
LINE
  5
103
  8
MyLines
 10
66.47767681801048
 20
161.5625
 30
0.0
 11
68.10050071720391
 21
161.5625
 31
0.0
  0
LINE
  5
104
  8
MyLines
 10
68.10050071720391
 20
161.5625
 30
0.0
 11
69.72332461639735
 21
161.5625
 31
0.0
  0
LINE
  5
105
  8
MyLines
 10
69.72332461639735
 20
161.5625
 30
0.0
 11
71.34614851559078
 21
161.5625
 31
0.0
  0
LINE
  5
106
  8
MyLines
 10
71.34614851559078
 20
161.5625
 30
0.0
 11
72.96897241478423
 21
161.5625
 31
0.0
  0
LINE
  5
107
  8
MyLines
 10
72.96897241478423
 20
161.5625
 30
0.0
 11
74.59179631397767
 21
161.5625
 31
0.0
  0
LINE
  5
108
  8
MyLines
 10
74.59179631397767
 20
161.5625
 30
0.0
 11
76.2146202131711
 21
161.5625
 31
0.0
  0
LINE
  5
109
  8
MyLines
 10
76.2146202131711
 20
161.5625
 30
0.0
 11
77.83744411236454
 21
161.5625
 31
0.0
  0
LINE
  5
10A
  8
MyLines
 10
77.83744411236454
 20
161.5625
 30
0.0
 11
79.46026801155797
 21
161.5625
 31
0.0
  0
LINE
  5
10B
  8
MyLines
 10
79.46026801155797
 20
161.5625
 30
0.0
 11
81.0830919107514
 21
161.5625
 31
0.0
  0
LINE
  5
10C
  8
MyLines
 10
81.0830919107514
 20
161.5625
 30
0.0
 11
82.70591580994484
 21
161.5625
 31
0.0
  0
LINE
  5
10D
  8
MyLines
 10
82.70591580994484
 20
161.5625
 30
0.0
 11
84.32873970913828
 21
161.5625
 31
0.0
  0
LINE
  5
10E
  8
MyLines
 10
84.32873970913828
 20
161.5625
 30
0.0
 11
85.95156360833172
 21
161.5625
 31
0.0
  0
LINE
  5
10F
  8
MyLines
 10
85.95156360833172
 20
161.5625
 30
0.0
 11
87.57438750752516
 21
161.5625
 31
0.0
  0
LINE
  5
110
  8
MyLines
 10
87.57438750752516
 20
161.5625
 30
0.0
 11
89.1972114067186
 21
161.5625
 31
0.0
  0
LINE
  5
111
  8
MyLines
 10
89.1972114067186
 20
161.5625
 30
0.0
 11
90.82003530591203
 21
161.5625
 31
0.0
  0
LINE
  5
112
  8
MyLines
 10
90.82003530591203
 20
161.5625
 30
0.0
 11
92.44285920510546
 21
161.5625
 31
0.0
  0
LINE
  5
113
  8
MyLines
 10
92.44285920510546
 20
161.5625
 30
0.0
 11
94.0656831042989
 21
161.5625
 31
0.0
  0
LINE
  5
114
  8
MyLines
 10
94.0656831042989
 20
161.5625
 30
0.0
 11
95.68850700349233
 21
161.5625
 31
0.0
  0
LINE
  5
115
  8
MyLines
 10
95.68850700349233
 20
161.5625
 30
0.0
 11
97.31133090268577
 21
161.5625
 31
0.0
  0
LINE
  5
116
  8
MyLines
 10
97.31133090268577
 20
161.5625
 30
0.0
 11
98.93415480187922
 21
161.5625
 31
0.0
  0
LINE
  5
117
  8
MyLines
 10
98.93415480187922
 20
161.5625
 30
0.0
 11
100.55697870107265
 21
161.5625
 31
0.0
  0
LINE
  5
118
  8
MyLines
 10
100.55697870107265
 20
161.5625
 30
0.0
 11
102.17980260026609
 21
161.5625
 31
0.0
  0
LINE
  5
119
  8
MyLines
 10
102.17980260026609
 20
161.5625
 30
0.0
 11
103.80262649945952
 21
161.5625
 31
0.0
  0
LINE
  5
11A
  8
MyLines
 10
103.80262649945952
 20
161.5625
 30
0.0
 11
105.42545039865296
 21
161.5625
 31
0.0
  0
LINE
  5
11B
  8
MyLines
 10
105.42545039865296
 20
161.5625
 30
0.0
 11
107.0482742978464
 21
161.5625
 31
0.0
  0
LINE
  5
11C
  8
MyLines
 10
107.0482742978464
 20
161.5625
 30
0.0
 11
108.67109819703983
 21
161.5625
 31
0.0
  0
LINE
  5
11D
  8
MyLines
 10
108.67109819703983
 20
161.5625
 30
0.0
 11
110.29392209623326
 21
161.5625
 31
0.0
  0
LINE
  5
11E
  8
MyLines
 10
110.29392209623326
 20
161.5625
 30
0.0
 11
111.91674599542671
 21
161.5625
 31
0.0
  0
LINE
  5
11F
  8
MyLines
 10
111.91674599542671
 20
161.5625
 30
0.0
 11
113.53956989462014
 21
161.5625
 31
0.0
  0
LINE
  5
120
  8
MyLines
 10
113.53956989462014
 20
161.5625
 30
0.0
 11
115.16239379381358
 21
161.5625
 31
0.0
  0
LINE
  5
121
  8
MyLines
 10
115.16239379381358
 20
161.5625
 30
0.0
 11
116.78521769300701
 21
161.5625
 31
0.0
  0
LINE
  5
122
  8
MyLines
 10
116.78521769300701
 20
161.5625
 30
0.0
 11
118.40804159220045
 21
161.5625
 31
0.0
  0
LINE
  5
123
  8
MyLines
 10
118.40804159220045
 20
161.5625
 30
0.0
 11
120.0308654913939
 21
161.5625
 31
0.0
  0
LINE
  5
124
  8
MyLines
 10
120.0308654913939
 20
161.5625
 30
0.0
 11
121.65368939058732
 21
161.5625
 31
0.0
  0
LINE
  5
125
  8
MyLines
 10
121.65368939058732
 20
161.5625
 30
0.0
 11
123.27651328978075
 21
161.5625
 31
0.0
  0
LINE
  5
126
  8
MyLines
 10
123.27651328978075
 20
161.5625
 30
0.0
 11
124.8993371889742
 21
161.5625
 31
0.0
  0
LINE
  5
127
  8
MyLines
 10
124.8993371889742
 20
161.5625
 30
0.0
 11
126.52216108816764
 21
161.5625
 31
0.0
  0
LINE
  5
128
  8
MyLines
 10
126.52216108816764
 20
161.5625
 30
0.0
 11
128.14498498736108
 21
161.5625
 31
0.0
  0
LINE
  5
129
  8
MyLines
 10
128.14498498736108
 20
161.5625
 30
0.0
 11
129.76780888655452
 21
161.5625
 31
0.0
  0
LINE
  5
12A
  8
MyLines
 10
129.76780888655452
 20
161.5625
 30
0.0
 11
131.39063278574795
 21
161.5625
 31
0.0
  0
LINE
  5
12B
  8
MyLines
 10
131.39063278574795
 20
161.5625
 30
0.0
 11
133.0134566849414
 21
161.5625
 31
0.0
  0
LINE
  5
12C
  8
MyLines
 10
133.0134566849414
 20
161.5625
 30
0.0
 11
134.6362805841348
 21
161.5625
 31
0.0
  0
LINE
  5
12D
  8
MyLines
 10
134.6362805841348
 20
161.5625
 30
0.0
 11
136.25910448332826
 21
161.5625
 31
0.0
  0
LINE
  5
12E
  8
MyLines
 10
136.25910448332826
 20
161.5625
 30
0.0
 11
137.8819283825217
 21
161.5625
 31
0.0
  0
LINE
  5
12F
  8
MyLines
 10
137.8819283825217
 20
161.5625
 30
0.0
 11
139.50475228171513
 21
161.5625
 31
0.0
  0
LINE
  5
130
  8
MyLines
 10
139.50475228171513
 20
161.5625
 30
0.0
 11
139.50475228171513
 21
-149.65625
 31
0.0
  0
LINE
  5
131
  8
MyLines
 10
139.50475228171513
 20
-149.65625
 30
0.0
 11
139.50475228171513
 21
-149.65625
 31
0.0
  0
LINE
  5
132
  8
MyLines
 10
139.50475228171513
 20
-149.65625
 30
0.0
 11
137.9697004542001
 21
-149.65625
 31
0.0
  0
LINE
  5
133
  8
MyLines
 10
137.9697004542001
 20
-149.65625
 30
0.0
 11
136.4346486266851
 21
-149.65625
 31
0.0
  0
LINE
  5
134
  8
MyLines
 10
136.4346486266851
 20
-149.65625
 30
0.0
 11
134.89959679917007
 21
-149.65625
 31
0.0
  0
LINE
  5
135
  8
MyLines
 10
134.89959679917007
 20
-149.65625
 30
0.0
 11
133.36454497165505
 21
-149.65625
 31
0.0
  0
LINE
  5
136
  8
MyLines
 10
133.36454497165505
 20
-149.65625
 30
0.0
 11
131.82949314414003
 21
-149.65625
 31
0.0
  0
LINE
  5
137
  8
MyLines
 10
131.82949314414003
 20
-149.65625
 30
0.0
 11
130.29444131662504
 21
-149.65625
 31
0.0
  0
LINE
  5
138
  8
MyLines
 10
130.29444131662504
 20
-149.65625
 30
0.0
 11
128.75938948911
 21
-149.65625
 31
0.0
  0
LINE
  5
139
  8
MyLines
 10
128.75938948911
 20
-149.65625
 30
0.0
 11
127.224337661595
 21
-149.65625
 31
0.0
  0
LINE
  5
13A
  8
MyLines
 10
127.224337661595
 20
-149.65625
 30
0.0
 11
125.68928583407997
 21
-149.65625
 31
0.0
  0
LINE
  5
13B
  8
MyLines
 10
125.68928583407997
 20
-149.65625
 30
0.0
 11
124.15423400656495
 21
-149.65625
 31
0.0
  0
LINE
  5
13C
  8
MyLines
 10
124.15423400656495
 20
-149.65625
 30
0.0
 11
122.61918217904994
 21
-149.65625
 31
0.0
  0
LINE
  5
13D
  8
MyLines
 10
122.61918217904994
 20
-149.65625
 30
0.0
 11
121.08413035153491
 21
-149.65625
 31
0.0
  0
LINE
  5
13E
  8
MyLines
 10
121.08413035153491
 20
-149.65625
 30
0.0
 11
119.54907852401989
 21
-149.65625
 31
0.0
  0
LINE
  5
13F
  8
MyLines
 10
119.54907852401989
 20
-149.65625
 30
0.0
 11
118.01402669650487
 21
-149.65625
 31
0.0
  0
LINE
  5
140
  8
MyLines
 10
118.01402669650487
 20
-149.65625
 30
0.0
 11
116.47897486898985
 21
-149.65625
 31
0.0
  0
LINE
  5
141
  8
MyLines
 10
116.47897486898985
 20
-149.65625
 30
0.0
 11
114.94392304147483
 21
-149.65625
 31
0.0
  0
LINE
  5
142
  8
MyLines
 10
114.94392304147483
 20
-149.65625
 30
0.0
 11
113.40887121395981
 21
-149.65625
 31
0.0
  0
LINE
  5
143
  8
MyLines
 10
113.40887121395981
 20
-149.65625
 30
0.0
 11
111.8738193864448
 21
-149.65625
 31
0.0
  0
LINE
  5
144
  8
MyLines
 10
111.8738193864448
 20
-149.65625
 30
0.0
 11
110.33876755892977
 21
-149.65625
 31
0.0
  0
LINE
  5
145
  8
MyLines
 10
110.33876755892977
 20
-149.65625
 30
0.0
 11
108.80371573141475
 21
-149.65625
 31
0.0
  0
LINE
  5
146
  8
MyLines
 10
108.80371573141475
 20
-149.65625
 30
0.0
 11
107.26866390389974
 21
-149.65625
 31
0.0
  0
LINE
  5
147
  8
MyLines
 10
107.26866390389974
 20
-149.65625
 30
0.0
 11
105.73361207638473
 21
-149.65625
 31
0.0
  0
LINE
  5
148
  8
MyLines
 10
105.73361207638473
 20
-149.65625
 30
0.0
 11
104.19856024886971
 21
-149.65625
 31
0.0
  0
LINE
  5
149
  8
MyLines
 10
104.19856024886971
 20
-149.65625
 30
0.0
 11
102.66350842135469
 21
-149.65625
 31
0.0
  0
LINE
  5
14A
  8
MyLines
 10
102.66350842135469
 20
-149.65625
 30
0.0
 11
101.12845659383967
 21
-149.65625
 31
0.0
  0
LINE
  5
14B
  8
MyLines
 10
101.12845659383967
 20
-149.65625
 30
0.0
 11
99.59340476632465
 21
-149.65625
 31
0.0
  0
LINE
  5
14C
  8
MyLines
 10
99.59340476632465
 20
-149.65625
 30
0.0
 11
98.05835293880965
 21
-149.65625
 31
0.0
  0
LINE
  5
14D
  8
MyLines
 10
98.05835293880965
 20
-149.65625
 30
0.0
 11
96.52330111129463
 21
-149.65625
 31
0.0
  0
LINE
  5
14E
  8
MyLines
 10
96.52330111129463
 20
-149.65625
 30
0.0
 11
94.98824928377961
 21
-149.65625
 31
0.0
  0
LINE
  5
14F
  8
MyLines
 10
94.98824928377961
 20
-149.65625
 30
0.0
 11
93.45319745626459
 21
-149.65625
 31
0.0
  0
LINE
  5
150
  8
MyLines
 10
93.45319745626459
 20
-149.65625
 30
0.0
 11
91.91814562874957
 21
-149.65625
 31
0.0
  0
LINE
  5
151
  8
MyLines
 10
91.91814562874957
 20
-149.65625
 30
0.0
 11
90.38309380123455
 21
-149.65625
 31
0.0
  0
LINE
  5
152
  8
MyLines
 10
90.38309380123455
 20
-149.65625
 30
0.0
 11
88.84804197371952
 21
-149.65625
 31
0.0
  0
LINE
  5
153
  8
MyLines
 10
88.84804197371952
 20
-149.65625
 30
0.0
 11
87.3129901462045
 21
-149.65625
 31
0.0
  0
LINE
  5
154
  8
MyLines
 10
87.3129901462045
 20
-149.65625
 30
0.0
 11
85.77793831868948
 21
-149.65625
 31
0.0
  0
LINE
  5
155
  8
MyLines
 10
85.77793831868948
 20
-149.65625
 30
0.0
 11
84.24288649117446
 21
-149.65625
 31
0.0
  0
LINE
  5
156
  8
MyLines
 10
84.24288649117446
 20
-149.65625
 30
0.0
 11
82.70783466365944
 21
-149.65625
 31
0.0
  0
LINE
  5
157
  8
MyLines
 10
82.70783466365944
 20
-149.65625
 30
0.0
 11
81.17278283614444
 21
-149.65625
 31
0.0
  0
LINE
  5
158
  8
MyLines
 10
81.17278283614444
 20
-149.65625
 30
0.0
 11
79.63773100862942
 21
-149.65625
 31
0.0
  0
LINE
  5
159
  8
MyLines
 10
79.63773100862942
 20
-149.65625
 30
0.0
 11
78.1026791811144
 21
-149.65625
 31
0.0
  0
LINE
  5
15A
  8
MyLines
 10
78.1026791811144
 20
-149.65625
 30
0.0
 11
76.56762735359938
 21
-149.65625
 31
0.0
  0
LINE
  5
15B
  8
MyLines
 10
76.56762735359938
 20
-149.65625
 30
0.0
 11
75.03257552608436
 21
-149.65625
 31
0.0
  0
LINE
  5
15C
  8
MyLines
 10
75.03257552608436
 20
-149.65625
 30
0.0
 11
73.49752369856934
 21
-149.65625
 31
0.0
  0
LINE
  5
15D
  8
MyLines
 10
73.49752369856934
 20
-149.65625
 30
0.0
 11
71.96247187105433
 21
-149.65625
 31
0.0
  0
LINE
  5
15E
  8
MyLines
 10
71.96247187105433
 20
-149.65625
 30
0.0
 11
70.42742004353931
 21
-149.65625
 31
0.0
  0
LINE
  5
15F
  8
MyLines
 10
70.42742004353931
 20
-149.65625
 30
0.0
 11
68.8923682160243
 21
-149.65625
 31
0.0
  0
LINE
  5
160
  8
MyLines
 10
68.8923682160243
 20
-149.65625
 30
0.0
 11
67.35731638850928
 21
-149.65625
 31
0.0
  0
LINE
  5
161
  8
MyLines
 10
67.35731638850928
 20
-149.65625
 30
0.0
 11
65.82226456099426
 21
-149.65625
 31
0.0
  0
LINE
  5
162
  8
MyLines
 10
65.82226456099426
 20
-149.65625
 30
0.0
 11
64.28721273347924
 21
-149.65625
 31
0.0
  0
LINE
  5
163
  8
MyLines
 10
64.28721273347924
 20
-149.65625
 30
0.0
 11
64.28721273347924
 21
-149.65625
 31
0.0
  0
LINE
  5
164
  8
MyLines
 10
64.28721273347924
 20
-149.65625
 30
0.0
 11
64.28721273347924
 21
157.59375
 31
0.0
  0
LINE
  5
165
  8
MyLines
 10
64.28721273347924
 20
157.59375
 30
0.0
 11
64.28721273347924
 21
157.59375
 31
0.0
  0
LINE
  5
166
  8
MyLines
 10
64.28721273347924
 20
157.59375
 30
0.0
 11
65.73449248931583
 21
157.59375
 31
0.0
  0
LINE
  5
167
  8
MyLines
 10
65.73449248931583
 20
157.59375
 30
0.0
 11
67.18177224515243
 21
157.59375
 31
0.0
  0
LINE
  5
168
  8
MyLines
 10
67.18177224515243
 20
157.59375
 30
0.0
 11
68.62905200098903
 21
157.59375
 31
0.0
  0
LINE
  5
169
  8
MyLines
 10
68.62905200098903
 20
157.59375
 30
0.0
 11
70.07633175682564
 21
157.59375
 31
0.0
  0
LINE
  5
16A
  8
MyLines
 10
70.07633175682564
 20
157.59375
 30
0.0
 11
71.52361151266223
 21
157.59375
 31
0.0
  0
LINE
  5
16B
  8
MyLines
 10
71.52361151266223
 20
157.59375
 30
0.0
 11
72.97089126849883
 21
157.59375
 31
0.0
  0
LINE
  5
16C
  8
MyLines
 10
72.97089126849883
 20
157.59375
 30
0.0
 11
74.41817102433544
 21
157.59375
 31
0.0
  0
LINE
  5
16D
  8
MyLines
 10
74.41817102433544
 20
157.59375
 30
0.0
 11
75.86545078017203
 21
157.59375
 31
0.0
  0
LINE
  5
16E
  8
MyLines
 10
75.86545078017203
 20
157.59375
 30
0.0
 11
77.31273053600863
 21
157.59375
 31
0.0
  0
LINE
  5
16F
  8
MyLines
 10
77.31273053600863
 20
157.59375
 30
0.0
 11
78.76001029184523
 21
157.59375
 31
0.0
  0
LINE
  5
170
  8
MyLines
 10
78.76001029184523
 20
157.59375
 30
0.0
 11
80.20729004768184
 21
157.59375
 31
0.0
  0
LINE
  5
171
  8
MyLines
 10
80.20729004768184
 20
157.59375
 30
0.0
 11
81.65456980351843
 21
157.59375
 31
0.0
  0
LINE
  5
172
  8
MyLines
 10
81.65456980351843
 20
157.59375
 30
0.0
 11
83.10184955935503
 21
157.59375
 31
0.0
  0
LINE
  5
173
  8
MyLines
 10
83.10184955935503
 20
157.59375
 30
0.0
 11
84.54912931519164
 21
157.59375
 31
0.0
  0
LINE
  5
174
  8
MyLines
 10
84.54912931519164
 20
157.59375
 30
0.0
 11
85.99640907102822
 21
157.59375
 31
0.0
  0
LINE
  5
175
  8
MyLines
 10
85.99640907102822
 20
157.59375
 30
0.0
 11
87.44368882686483
 21
157.59375
 31
0.0
  0
LINE
  5
176
  8
MyLines
 10
87.44368882686483
 20
157.59375
 30
0.0
 11
88.89096858270143
 21
157.59375
 31
0.0
  0
LINE
  5
177
  8
MyLines
 10
88.89096858270143
 20
157.59375
 30
0.0
 11
90.33824833853804
 21
157.59375
 31
0.0
  0
LINE
  5
178
  8
MyLines
 10
90.33824833853804
 20
157.59375
 30
0.0
 11
91.78552809437463
 21
157.59375
 31
0.0
  0
LINE
  5
179
  8
MyLines
 10
91.78552809437463
 20
157.59375
 30
0.0
 11
93.23280785021123
 21
157.59375
 31
0.0
  0
LINE
  5
17A
  8
MyLines
 10
93.23280785021123
 20
157.59375
 30
0.0
 11
94.68008760604783
 21
157.59375
 31
0.0
  0
LINE
  5
17B
  8
MyLines
 10
94.68008760604783
 20
157.59375
 30
0.0
 11
96.12736736188444
 21
157.59375
 31
0.0
  0
LINE
  5
17C
  8
MyLines
 10
96.12736736188444
 20
157.59375
 30
0.0
 11
97.57464711772103
 21
157.59375
 31
0.0
  0
LINE
  5
17D
  8
MyLines
 10
97.57464711772103
 20
157.59375
 30
0.0
 11
99.02192687355763
 21
157.59375
 31
0.0
  0
LINE
  5
17E
  8
MyLines
 10
99.02192687355763
 20
157.59375
 30
0.0
 11
100.46920662939424
 21
157.59375
 31
0.0
  0
LINE
  5
17F
  8
MyLines
 10
100.46920662939424
 20
157.59375
 30
0.0
 11
101.91648638523083
 21
157.59375
 31
0.0
  0
LINE
  5
180
  8
MyLines
 10
101.91648638523083
 20
157.59375
 30
0.0
 11
103.36376614106743
 21
157.59375
 31
0.0
  0
LINE
  5
181
  8
MyLines
 10
103.36376614106743
 20
157.59375
 30
0.0
 11
104.81104589690403
 21
157.59375
 31
0.0
  0
LINE
  5
182
  8
MyLines
 10
104.81104589690403
 20
157.59375
 30
0.0
 11
106.25832565274064
 21
157.59375
 31
0.0
  0
LINE
  5
183
  8
MyLines
 10
106.25832565274064
 20
157.59375
 30
0.0
 11
107.70560540857723
 21
157.59375
 31
0.0
  0
LINE
  5
184
  8
MyLines
 10
107.70560540857723
 20
157.59375
 30
0.0
 11
109.15288516441383
 21
157.59375
 31
0.0
  0
LINE
  5
185
  8
MyLines
 10
109.15288516441383
 20
157.59375
 30
0.0
 11
110.60016492025044
 21
157.59375
 31
0.0
  0
LINE
  5
186
  8
MyLines
 10
110.60016492025044
 20
157.59375
 30
0.0
 11
112.04744467608703
 21
157.59375
 31
0.0
  0
LINE
  5
187
  8
MyLines
 10
112.04744467608703
 20
157.59375
 30
0.0
 11
113.49472443192363
 21
157.59375
 31
0.0
  0
LINE
  5
188
  8
MyLines
 10
113.49472443192363
 20
157.59375
 30
0.0
 11
114.94200418776023
 21
157.59375
 31
0.0
  0
LINE
  5
189
  8
MyLines
 10
114.94200418776023
 20
157.59375
 30
0.0
 11
116.38928394359684
 21
157.59375
 31
0.0
  0
LINE
  5
18A
  8
MyLines
 10
116.38928394359684
 20
157.59375
 30
0.0
 11
117.83656369943343
 21
157.59375
 31
0.0
  0
LINE
  5
18B
  8
MyLines
 10
117.83656369943343
 20
157.59375
 30
0.0
 11
119.28384345527003
 21
157.59375
 31
0.0
  0
LINE
  5
18C
  8
MyLines
 10
119.28384345527003
 20
157.59375
 30
0.0
 11
120.73112321110663
 21
157.59375
 31
0.0
  0
LINE
  5
18D
  8
MyLines
 10
120.73112321110663
 20
157.59375
 30
0.0
 11
122.17840296694322
 21
157.59375
 31
0.0
  0
LINE
  5
18E
  8
MyLines
 10
122.17840296694322
 20
157.59375
 30
0.0
 11
123.62568272277983
 21
157.59375
 31
0.0
  0
LINE
  5
18F
  8
MyLines
 10
123.62568272277983
 20
157.59375
 30
0.0
 11
125.07296247861643
 21
157.59375
 31
0.0
  0
LINE
  5
190
  8
MyLines
 10
125.07296247861643
 20
157.59375
 30
0.0
 11
126.52024223445304
 21
157.59375
 31
0.0
  0
LINE
  5
191
  8
MyLines
 10
126.52024223445304
 20
157.59375
 30
0.0
 11
127.96752199028963
 21
157.59375
 31
0.0
  0
LINE
  5
192
  8
MyLines
 10
127.96752199028963
 20
157.59375
 30
0.0
 11
129.41480174612624
 21
157.59375
 31
0.0
  0
LINE
  5
193
  8
MyLines
 10
129.41480174612624
 20
157.59375
 30
0.0
 11
130.86208150196282
 21
157.59375
 31
0.0
  0
LINE
  5
194
  8
MyLines
 10
130.86208150196282
 20
157.59375
 30
0.0
 11
132.30936125779942
 21
157.59375
 31
0.0
  0
LINE
  5
195
  8
MyLines
 10
132.30936125779942
 20
157.59375
 30
0.0
 11
133.75664101363603
 21
157.59375
 31
0.0
  0
LINE
  5
196
  8
MyLines
 10
133.75664101363603
 20
157.59375
 30
0.0
 11
135.20392076947263
 21
157.59375
 31
0.0
  0
LINE
  5
197
  8
MyLines
 10
135.20392076947263
 20
157.59375
 30
0.0
 11
135.20392076947263
 21
-145.6875
 31
0.0
  0
LINE
  5
198
  8
MyLines
 10
135.20392076947263
 20
-145.6875
 30
0.0
 11
135.20392076947263
 21
-145.6875
 31
0.0
  0
LINE
  5
199
  8
MyLines
 10
135.20392076947263
 20
-145.6875
 30
0.0
 11
133.85083314200864
 21
-145.6875
 31
0.0
  0
LINE
  5
19A
  8
MyLines
 10
133.85083314200864
 20
-145.6875
 30
0.0
 11
132.49774551454462
 21
-145.6875
 31
0.0
  0
LINE
  5
19B
  8
MyLines
 10
132.49774551454462
 20
-145.6875
 30
0.0
 11
131.14465788708063
 21
-145.6875
 31
0.0
  0
LINE
  5
19C
  8
MyLines
 10
131.14465788708063
 20
-145.6875
 30
0.0
 11
129.7915702596166
 21
-145.6875
 31
0.0
  0
LINE
  5
19D
  8
MyLines
 10
129.7915702596166
 20
-145.6875
 30
0.0
 11
128.43848263215258
 21
-145.6875
 31
0.0
  0
LINE
  5
19E
  8
MyLines
 10
128.43848263215258
 20
-145.6875
 30
0.0
 11
127.08539500468859
 21
-145.6875
 31
0.0
  0
LINE
  5
19F
  8
MyLines
 10
127.08539500468859
 20
-145.6875
 30
0.0
 11
125.7323073772246
 21
-145.6875
 31
0.0
  0
LINE
  5
1A0
  8
MyLines
 10
125.7323073772246
 20
-145.6875
 30
0.0
 11
124.37921974976058
 21
-145.6875
 31
0.0
  0
LINE
  5
1A1
  8
MyLines
 10
124.37921974976058
 20
-145.6875
 30
0.0
 11
123.02613212229657
 21
-145.6875
 31
0.0
  0
LINE
  5
1A2
  8
MyLines
 10
123.02613212229657
 20
-145.6875
 30
0.0
 11
121.67304449483257
 21
-145.6875
 31
0.0
  0
LINE
  5
1A3
  8
MyLines
 10
121.67304449483257
 20
-145.6875
 30
0.0
 11
120.31995686736856
 21
-145.6875
 31
0.0
  0
LINE
  5
1A4
  8
MyLines
 10
120.31995686736856
 20
-145.6875
 30
0.0
 11
118.96686923990455
 21
-145.6875
 31
0.0
  0
LINE
  5
1A5
  8
MyLines
 10
118.96686923990455
 20
-145.6875
 30
0.0
 11
117.61378161244055
 21
-145.6875
 31
0.0
  0
LINE
  5
1A6
  8
MyLines
 10
117.61378161244055
 20
-145.6875
 30
0.0
 11
116.26069398497654
 21
-145.6875
 31
0.0
  0
LINE
  5
1A7
  8
MyLines
 10
116.26069398497654
 20
-145.6875
 30
0.0
 11
114.90760635751253
 21
-145.6875
 31
0.0
  0
LINE
  5
1A8
  8
MyLines
 10
114.90760635751253
 20
-145.6875
 30
0.0
 11
113.55451873004853
 21
-145.6875
 31
0.0
  0
LINE
  5
1A9
  8
MyLines
 10
113.55451873004853
 20
-145.6875
 30
0.0
 11
112.20143110258452
 21
-145.6875
 31
0.0
  0
LINE
  5
1AA
  8
MyLines
 10
112.20143110258452
 20
-145.6875
 30
0.0
 11
110.84834347512053
 21
-145.6875
 31
0.0
  0
LINE
  5
1AB
  8
MyLines
 10
110.84834347512053
 20
-145.6875
 30
0.0
 11
109.49525584765651
 21
-145.6875
 31
0.0
  0
LINE
  5
1AC
  8
MyLines
 10
109.49525584765651
 20
-145.6875
 30
0.0
 11
108.1421682201925
 21
-145.6875
 31
0.0
  0
LINE
  5
1AD
  8
MyLines
 10
108.1421682201925
 20
-145.6875
 30
0.0
 11
106.78908059272851
 21
-145.6875
 31
0.0
  0
LINE
  5
1AE
  8
MyLines
 10
106.78908059272851
 20
-145.6875
 30
0.0
 11
105.43599296526449
 21
-145.6875
 31
0.0
  0
LINE
  5
1AF
  8
MyLines
 10
105.43599296526449
 20
-145.6875
 30
0.0
 11
104.08290533780048
 21
-145.6875
 31
0.0
  0
LINE
  5
1B0
  8
MyLines
 10
104.08290533780048
 20
-145.6875
 30
0.0
 11
102.72981771033649
 21
-145.6875
 31
0.0
  0
LINE
  5
1B1
  8
MyLines
 10
102.72981771033649
 20
-145.6875
 30
0.0
 11
101.37673008287247
 21
-145.6875
 31
0.0
  0
LINE
  5
1B2
  8
MyLines
 10
101.37673008287247
 20
-145.6875
 30
0.0
 11
100.02364245540848
 21
-145.6875
 31
0.0
  0
LINE
  5
1B3
  8
MyLines
 10
100.02364245540848
 20
-145.6875
 30
0.0
 11
98.67055482794447
 21
-145.6875
 31
0.0
  0
LINE
  5
1B4
  8
MyLines
 10
98.67055482794447
 20
-145.6875
 30
0.0
 11
97.31746720048045
 21
-145.6875
 31
0.0
  0
LINE
  5
1B5
  8
MyLines
 10
97.31746720048045
 20
-145.6875
 30
0.0
 11
95.96437957301646
 21
-145.6875
 31
0.0
  0
LINE
  5
1B6
  8
MyLines
 10
95.96437957301646
 20
-145.6875
 30
0.0
 11
94.61129194555245
 21
-145.6875
 31
0.0
  0
LINE
  5
1B7
  8
MyLines
 10
94.61129194555245
 20
-145.6875
 30
0.0
 11
93.25820431808843
 21
-145.6875
 31
0.0
  0
LINE
  5
1B8
  8
MyLines
 10
93.25820431808843
 20
-145.6875
 30
0.0
 11
91.90511669062444
 21
-145.6875
 31
0.0
  0
LINE
  5
1B9
  8
MyLines
 10
91.90511669062444
 20
-145.6875
 30
0.0
 11
90.55202906316043
 21
-145.6875
 31
0.0
  0
LINE
  5
1BA
  8
MyLines
 10
90.55202906316043
 20
-145.6875
 30
0.0
 11
89.19894143569641
 21
-145.6875
 31
0.0
  0
LINE
  5
1BB
  8
MyLines
 10
89.19894143569641
 20
-145.6875
 30
0.0
 11
87.84585380823242
 21
-145.6875
 31
0.0
  0
LINE
  5
1BC
  8
MyLines
 10
87.84585380823242
 20
-145.6875
 30
0.0
 11
86.49276618076841
 21
-145.6875
 31
0.0
  0
LINE
  5
1BD
  8
MyLines
 10
86.49276618076841
 20
-145.6875
 30
0.0
 11
85.1396785533044
 21
-145.6875
 31
0.0
  0
LINE
  5
1BE
  8
MyLines
 10
85.1396785533044
 20
-145.6875
 30
0.0
 11
83.7865909258404
 21
-145.6875
 31
0.0
  0
LINE
  5
1BF
  8
MyLines
 10
83.7865909258404
 20
-145.6875
 30
0.0
 11
82.4335032983764
 21
-145.6875
 31
0.0
  0
LINE
  5
1C0
  8
MyLines
 10
82.4335032983764
 20
-145.6875
 30
0.0
 11
81.08041567091239
 21
-145.6875
 31
0.0
  0
LINE
  5
1C1
  8
MyLines
 10
81.08041567091239
 20
-145.6875
 30
0.0
 11
79.72732804344838
 21
-145.6875
 31
0.0
  0
LINE
  5
1C2
  8
MyLines
 10
79.72732804344838
 20
-145.6875
 30
0.0
 11
78.37424041598437
 21
-145.6875
 31
0.0
  0
LINE
  5
1C3
  8
MyLines
 10
78.37424041598437
 20
-145.6875
 30
0.0
 11
77.02115278852037
 21
-145.6875
 31
0.0
  0
LINE
  5
1C4
  8
MyLines
 10
77.02115278852037
 20
-145.6875
 30
0.0
 11
75.66806516105636
 21
-145.6875
 31
0.0
  0
LINE
  5
1C5
  8
MyLines
 10
75.66806516105636
 20
-145.6875
 30
0.0
 11
74.31497753359237
 21
-145.6875
 31
0.0
  0
LINE
  5
1C6
  8
MyLines
 10
74.31497753359237
 20
-145.6875
 30
0.0
 11
72.96188990612835
 21
-145.6875
 31
0.0
  0
LINE
  5
1C7
  8
MyLines
 10
72.96188990612835
 20
-145.6875
 30
0.0
 11
71.60880227866434
 21
-145.6875
 31
0.0
  0
LINE
  5
1C8
  8
MyLines
 10
71.60880227866434
 20
-145.6875
 30
0.0
 11
70.25571465120035
 21
-145.6875
 31
0.0
  0
LINE
  5
1C9
  8
MyLines
 10
70.25571465120035
 20
-145.6875
 30
0.0
 11
68.90262702373633
 21
-145.6875
 31
0.0
  0
LINE
  5
1CA
  8
MyLines
 10
68.90262702373633
 20
-145.6875
 30
0.0
 11
68.90262702373633
 21
-145.6875
 31
0.0
  0
LINE
  5
1CB
  8
MyLines
 10
68.90262702373633
 20
-145.6875
 30
0.0
 11
68.90262702373633
 21
153.625
 31
0.0
  0
LINE
  5
1CC
  8
MyLines
 10
68.90262702373633
 20
153.625
 30
0.0
 11
68.90262702373633
 21
153.625
 31
0.0
  0
LINE
  5
1CD
  8
MyLines
 10
68.90262702373633
 20
153.625
 30
0.0
 11
70.16152252282775
 21
153.625
 31
0.0
  0
LINE
  5
1CE
  8
MyLines
 10
70.16152252282775
 20
153.625
 30
0.0
 11
71.42041802191916
 21
153.625
 31
0.0
  0
LINE
  5
1CF
  8
MyLines
 10
71.42041802191916
 20
153.625
 30
0.0
 11
72.67931352101057
 21
153.625
 31
0.0
  0
LINE
  5
1D0
  8
MyLines
 10
72.67931352101057
 20
153.625
 30
0.0
 11
73.93820902010198
 21
153.625
 31
0.0
  0
LINE
  5
1D1
  8
MyLines
 10
73.93820902010198
 20
153.625
 30
0.0
 11
75.1971045191934
 21
153.625
 31
0.0
  0
LINE
  5
1D2
  8
MyLines
 10
75.1971045191934
 20
153.625
 30
0.0
 11
76.4560000182848
 21
153.625
 31
0.0
  0
LINE
  5
1D3
  8
MyLines
 10
76.4560000182848
 20
153.625
 30
0.0
 11
77.71489551737622
 21
153.625
 31
0.0
  0
LINE
  5
1D4
  8
MyLines
 10
77.71489551737622
 20
153.625
 30
0.0
 11
78.97379101646763
 21
153.625
 31
0.0
  0
LINE
  5
1D5
  8
MyLines
 10
78.97379101646763
 20
153.625
 30
0.0
 11
80.23268651555905
 21
153.625
 31
0.0
  0
LINE
  5
1D6
  8
MyLines
 10
80.23268651555905
 20
153.625
 30
0.0
 11
81.49158201465046
 21
153.625
 31
0.0
  0
LINE
  5
1D7
  8
MyLines
 10
81.49158201465046
 20
153.625
 30
0.0
 11
82.75047751374187
 21
153.625
 31
0.0
  0
LINE
  5
1D8
  8
MyLines
 10
82.75047751374187
 20
153.625
 30
0.0
 11
84.0093730128333
 21
153.625
 31
0.0
  0
LINE
  5
1D9
  8
MyLines
 10
84.0093730128333
 20
153.625
 30
0.0
 11
85.2682685119247
 21
153.625
 31
0.0
  0
LINE
  5
1DA
  8
MyLines
 10
85.2682685119247
 20
153.625
 30
0.0
 11
86.52716401101611
 21
153.625
 31
0.0
  0
LINE
  5
1DB
  8
MyLines
 10
86.52716401101611
 20
153.625
 30
0.0
 11
87.78605951010752
 21
153.625
 31
0.0
  0
LINE
  5
1DC
  8
MyLines
 10
87.78605951010752
 20
153.625
 30
0.0
 11
89.04495500919894
 21
153.625
 31
0.0
  0
LINE
  5
1DD
  8
MyLines
 10
89.04495500919894
 20
153.625
 30
0.0
 11
90.30385050829034
 21
153.625
 31
0.0
  0
LINE
  5
1DE
  8
MyLines
 10
90.30385050829034
 20
153.625
 30
0.0
 11
91.56274600738176
 21
153.625
 31
0.0
  0
LINE
  5
1DF
  8
MyLines
 10
91.56274600738176
 20
153.625
 30
0.0
 11
92.82164150647317
 21
153.625
 31
0.0
  0
LINE
  5
1E0
  8
MyLines
 10
92.82164150647317
 20
153.625
 30
0.0
 11
94.08053700556458
 21
153.625
 31
0.0
  0
LINE
  5
1E1
  8
MyLines
 10
94.08053700556458
 20
153.625
 30
0.0
 11
95.33943250465599
 21
153.625
 31
0.0
  0
LINE
  5
1E2
  8
MyLines
 10
95.33943250465599
 20
153.625
 30
0.0
 11
96.59832800374741
 21
153.625
 31
0.0
  0
LINE
  5
1E3
  8
MyLines
 10
96.59832800374741
 20
153.625
 30
0.0
 11
97.85722350283882
 21
153.625
 31
0.0
  0
LINE
  5
1E4
  8
MyLines
 10
97.85722350283882
 20
153.625
 30
0.0
 11
99.11611900193023
 21
153.625
 31
0.0
  0
LINE
  5
1E5
  8
MyLines
 10
99.11611900193023
 20
153.625
 30
0.0
 11
100.37501450102165
 21
153.625
 31
0.0
  0
LINE
  5
1E6
  8
MyLines
 10
100.37501450102165
 20
153.625
 30
0.0
 11
101.63391000011305
 21
153.625
 31
0.0
  0
LINE
  5
1E7
  8
MyLines
 10
101.63391000011305
 20
153.625
 30
0.0
 11
102.89280549920447
 21
153.625
 31
0.0
  0
LINE
  5
1E8
  8
MyLines
 10
102.89280549920447
 20
153.625
 30
0.0
 11
104.15170099829588
 21
153.625
 31
0.0
  0
LINE
  5
1E9
  8
MyLines
 10
104.15170099829588
 20
153.625
 30
0.0
 11
105.41059649738729
 21
153.625
 31
0.0
  0
LINE
  5
1EA
  8
MyLines
 10
105.41059649738729
 20
153.625
 30
0.0
 11
106.6694919964787
 21
153.625
 31
0.0
  0
LINE
  5
1EB
  8
MyLines
 10
106.6694919964787
 20
153.625
 30
0.0
 11
107.92838749557012
 21
153.625
 31
0.0
  0
LINE
  5
1EC
  8
MyLines
 10
107.92838749557012
 20
153.625
 30
0.0
 11
109.18728299466152
 21
153.625
 31
0.0
  0
LINE
  5
1ED
  8
MyLines
 10
109.18728299466152
 20
153.625
 30
0.0
 11
110.44617849375294
 21
153.625
 31
0.0
  0
LINE
  5
1EE
  8
MyLines
 10
110.44617849375294
 20
153.625
 30
0.0
 11
111.70507399284435
 21
153.625
 31
0.0
  0
LINE
  5
1EF
  8
MyLines
 10
111.70507399284435
 20
153.625
 30
0.0
 11
112.96396949193576
 21
153.625
 31
0.0
  0
LINE
  5
1F0
  8
MyLines
 10
112.96396949193576
 20
153.625
 30
0.0
 11
114.2228649910272
 21
153.625
 31
0.0
  0
LINE
  5
1F1
  8
MyLines
 10
114.2228649910272
 20
153.625
 30
0.0
 11
115.48176049011859
 21
153.625
 31
0.0
  0
LINE
  5
1F2
  8
MyLines
 10
115.48176049011859
 20
153.625
 30
0.0
 11
116.74065598921
 21
153.625
 31
0.0
  0
LINE
  5
1F3
  8
MyLines
 10
116.74065598921
 20
153.625
 30
0.0
 11
117.99955148830142
 21
153.625
 31
0.0
  0
LINE
  5
1F4
  8
MyLines
 10
117.99955148830142
 20
153.625
 30
0.0
 11
119.25844698739283
 21
153.625
 31
0.0
  0
LINE
  5
1F5
  8
MyLines
 10
119.25844698739283
 20
153.625
 30
0.0
 11
120.51734248648422
 21
153.625
 31
0.0
  0
LINE
  5
1F6
  8
MyLines
 10
120.51734248648422
 20
153.625
 30
0.0
 11
121.77623798557566
 21
153.625
 31
0.0
  0
LINE
  5
1F7
  8
MyLines
 10
121.77623798557566
 20
153.625
 30
0.0
 11
123.03513348466706
 21
153.625
 31
0.0
  0
LINE
  5
1F8
  8
MyLines
 10
123.03513348466706
 20
153.625
 30
0.0
 11
124.29402898375847
 21
153.625
 31
0.0
  0
LINE
  5
1F9
  8
MyLines
 10
124.29402898375847
 20
153.625
 30
0.0
 11
125.55292448284989
 21
153.625
 31
0.0
  0
LINE
  5
1FA
  8
MyLines
 10
125.55292448284989
 20
153.625
 30
0.0
 11
126.8118199819413
 21
153.625
 31
0.0
  0
LINE
  5
1FB
  8
MyLines
 10
126.8118199819413
 20
153.625
 30
0.0
 11
128.0707154810327
 21
153.625
 31
0.0
  0
LINE
  5
1FC
  8
MyLines
 10
128.0707154810327
 20
153.625
 30
0.0
 11
129.32961098012413
 21
153.625
 31
0.0
  0
LINE
  5
1FD
  8
MyLines
 10
129.32961098012413
 20
153.625
 30
0.0
 11
130.58850647921554
 21
153.625
 31
0.0
  0
LINE
  5
1FE
  8
MyLines
 10
130.58850647921554
 20
153.625
 30
0.0
 11
130.58850647921554
 21
-141.71875
 31
0.0
  0
LINE
  5
1FF
  8
MyLines
 10
130.58850647921554
 20
-141.71875
 30
0.0
 11
130.58850647921554
 21
-141.71875
 31
0.0
  0
LINE
  5
200
  8
MyLines
 10
130.58850647921554
 20
-141.71875
 30
0.0
 11
129.4347304687202
 21
-141.71875
 31
0.0
  0
LINE
  5
201
  8
MyLines
 10
129.4347304687202
 20
-141.71875
 30
0.0
 11
128.2809544582249
 21
-141.71875
 31
0.0
  0
LINE
  5
202
  8
MyLines
 10
128.2809544582249
 20
-141.71875
 30
0.0
 11
127.12717844772953
 21
-141.71875
 31
0.0
  0
LINE
  5
203
  8
MyLines
 10
127.12717844772953
 20
-141.71875
 30
0.0
 11
125.97340243723421
 21
-141.71875
 31
0.0
  0
LINE
  5
204
  8
MyLines
 10
125.97340243723421
 20
-141.71875
 30
0.0
 11
124.81962642673888
 21
-141.71875
 31
0.0
  0
LINE
  5
205
  8
MyLines
 10
124.81962642673888
 20
-141.71875
 30
0.0
 11
123.66585041624354
 21
-141.71875
 31
0.0
  0
LINE
  5
206
  8
MyLines
 10
123.66585041624354
 20
-141.71875
 30
0.0
 11
122.51207440574821
 21
-141.71875
 31
0.0
  0
LINE
  5
207
  8
MyLines
 10
122.51207440574821
 20
-141.71875
 30
0.0
 11
121.35829839525289
 21
-141.71875
 31
0.0
  0
LINE
  5
208
  8
MyLines
 10
121.35829839525289
 20
-141.71875
 30
0.0
 11
120.20452238475755
 21
-141.71875
 31
0.0
  0
LINE
  5
209
  8
MyLines
 10
120.20452238475755
 20
-141.71875
 30
0.0
 11
119.05074637426223
 21
-141.71875
 31
0.0
  0
LINE
  5
20A
  8
MyLines
 10
119.05074637426223
 20
-141.71875
 30
0.0
 11
117.8969703637669
 21
-141.71875
 31
0.0
  0
LINE
  5
20B
  8
MyLines
 10
117.8969703637669
 20
-141.71875
 30
0.0
 11
116.74319435327156
 21
-141.71875
 31
0.0
  0
LINE
  5
20C
  8
MyLines
 10
116.74319435327156
 20
-141.71875
 30
0.0
 11
115.58941834277624
 21
-141.71875
 31
0.0
  0
LINE
  5
20D
  8
MyLines
 10
115.58941834277624
 20
-141.71875
 30
0.0
 11
114.4356423322809
 21
-141.71875
 31
0.0
  0
LINE
  5
20E
  8
MyLines
 10
114.4356423322809
 20
-141.71875
 30
0.0
 11
113.28186632178559
 21
-141.71875
 31
0.0
  0
LINE
  5
20F
  8
MyLines
 10
113.28186632178559
 20
-141.71875
 30
0.0
 11
112.12809031129025
 21
-141.71875
 31
0.0
  0
LINE
  5
210
  8
MyLines
 10
112.12809031129025
 20
-141.71875
 30
0.0
 11
110.97431430079492
 21
-141.71875
 31
0.0
  0
LINE
  5
211
  8
MyLines
 10
110.97431430079492
 20
-141.71875
 30
0.0
 11
109.82053829029958
 21
-141.71875
 31
0.0
  0
LINE
  5
212
  8
MyLines
 10
109.82053829029958
 20
-141.71875
 30
0.0
 11
108.66676227980426
 21
-141.71875
 31
0.0
  0
LINE
  5
213
  8
MyLines
 10
108.66676227980426
 20
-141.71875
 30
0.0
 11
107.51298626930893
 21
-141.71875
 31
0.0
  0
LINE
  5
214
  8
MyLines
 10
107.51298626930893
 20
-141.71875
 30
0.0
 11
106.3592102588136
 21
-141.71875
 31
0.0
  0
LINE
  5
215
  8
MyLines
 10
106.3592102588136
 20
-141.71875
 30
0.0
 11
105.20543424831827
 21
-141.71875
 31
0.0
  0
LINE
  5
216
  8
MyLines
 10
105.20543424831827
 20
-141.71875
 30
0.0
 11
104.05165823782293
 21
-141.71875
 31
0.0
  0
LINE
  5
217
  8
MyLines
 10
104.05165823782293
 20
-141.71875
 30
0.0
 11
102.8978822273276
 21
-141.71875
 31
0.0
  0
LINE
  5
218
  8
MyLines
 10
102.8978822273276
 20
-141.71875
 30
0.0
 11
101.74410621683228
 21
-141.71875
 31
0.0
  0
LINE
  5
219
  8
MyLines
 10
101.74410621683228
 20
-141.71875
 30
0.0
 11
100.59033020633694
 21
-141.71875
 31
0.0
  0
LINE
  5
21A
  8
MyLines
 10
100.59033020633694
 20
-141.71875
 30
0.0
 11
99.43655419584162
 21
-141.71875
 31
0.0
  0
LINE
  5
21B
  8
MyLines
 10
99.43655419584162
 20
-141.71875
 30
0.0
 11
98.28277818534629
 21
-141.71875
 31
0.0
  0
LINE
  5
21C
  8
MyLines
 10
98.28277818534629
 20
-141.71875
 30
0.0
 11
97.12900217485095
 21
-141.71875
 31
0.0
  0
LINE
  5
21D
  8
MyLines
 10
97.12900217485095
 20
-141.71875
 30
0.0
 11
95.97522616435563
 21
-141.71875
 31
0.0
  0
LINE
  5
21E
  8
MyLines
 10
95.97522616435563
 20
-141.71875
 30
0.0
 11
94.8214501538603
 21
-141.71875
 31
0.0
  0
LINE
  5
21F
  8
MyLines
 10
94.8214501538603
 20
-141.71875
 30
0.0
 11
93.66767414336498
 21
-141.71875
 31
0.0
  0
LINE
  5
220
  8
MyLines
 10
93.66767414336498
 20
-141.71875
 30
0.0
 11
92.51389813286964
 21
-141.71875
 31
0.0
  0
LINE
  5
221
  8
MyLines
 10
92.51389813286964
 20
-141.71875
 30
0.0
 11
91.3601221223743
 21
-141.71875
 31
0.0
  0
LINE
  5
222
  8
MyLines
 10
91.3601221223743
 20
-141.71875
 30
0.0
 11
90.20634611187897
 21
-141.71875
 31
0.0
  0
LINE
  5
223
  8
MyLines
 10
90.20634611187897
 20
-141.71875
 30
0.0
 11
89.05257010138365
 21
-141.71875
 31
0.0
  0
LINE
  5
224
  8
MyLines
 10
89.05257010138365
 20
-141.71875
 30
0.0
 11
87.89879409088833
 21
-141.71875
 31
0.0
  0
LINE
  5
225
  8
MyLines
 10
87.89879409088833
 20
-141.71875
 30
0.0
 11
86.745018080393
 21
-141.71875
 31
0.0
  0
LINE
  5
226
  8
MyLines
 10
86.745018080393
 20
-141.71875
 30
0.0
 11
85.59124206989766
 21
-141.71875
 31
0.0
  0
LINE
  5
227
  8
MyLines
 10
85.59124206989766
 20
-141.71875
 30
0.0
 11
84.43746605940233
 21
-141.71875
 31
0.0
  0
LINE
  5
228
  8
MyLines
 10
84.43746605940233
 20
-141.71875
 30
0.0
 11
83.28369004890699
 21
-141.71875
 31
0.0
  0
LINE
  5
229
  8
MyLines
 10
83.28369004890699
 20
-141.71875
 30
0.0
 11
82.12991403841167
 21
-141.71875
 31
0.0
  0
LINE
  5
22A
  8
MyLines
 10
82.12991403841167
 20
-141.71875
 30
0.0
 11
80.97613802791635
 21
-141.71875
 31
0.0
  0
LINE
  5
22B
  8
MyLines
 10
80.97613802791635
 20
-141.71875
 30
0.0
 11
79.82236201742101
 21
-141.71875
 31
0.0
  0
LINE
  5
22C
  8
MyLines
 10
79.82236201742101
 20
-141.71875
 30
0.0
 11
78.66858600692568
 21
-141.71875
 31
0.0
  0
LINE
  5
22D
  8
MyLines
 10
78.66858600692568
 20
-141.71875
 30
0.0
 11
77.51480999643034
 21
-141.71875
 31
0.0
  0
LINE
  5
22E
  8
MyLines
 10
77.51480999643034
 20
-141.71875
 30
0.0
 11
76.36103398593502
 21
-141.71875
 31
0.0
  0
LINE
  5
22F
  8
MyLines
 10
76.36103398593502
 20
-141.71875
 30
0.0
 11
75.20725797543969
 21
-141.71875
 31
0.0
  0
LINE
  5
230
  8
MyLines
 10
75.20725797543969
 20
-141.71875
 30
0.0
 11
74.05348196494437
 21
-141.71875
 31
0.0
  0
LINE
  5
231
  8
MyLines
 10
74.05348196494437
 20
-141.71875
 30
0.0
 11
74.05348196494437
 21
-141.71875
 31
0.0
  0
LINE
  5
232
  8
MyLines
 10
74.05348196494437
 20
-141.71875
 30
0.0
 11
74.05348196494437
 21
149.65625
 31
0.0
  0
LINE
  5
233
  8
MyLines
 10
74.05348196494437
 20
149.65625
 30
0.0
 11
74.05348196494437
 21
149.65625
 31
0.0
  0
LINE
  5
234
  8
MyLines
 10
74.05348196494437
 20
149.65625
 30
0.0
 11
75.1021384868436
 21
149.65625
 31
0.0
  0
LINE
  5
235
  8
MyLines
 10
75.1021384868436
 20
149.65625
 30
0.0
 11
76.15079500874286
 21
149.65625
 31
0.0
  0
LINE
  5
236
  8
MyLines
 10
76.15079500874286
 20
149.65625
 30
0.0
 11
77.1994515306421
 21
149.65625
 31
0.0
  0
LINE
  5
237
  8
MyLines
 10
77.1994515306421
 20
149.65625
 30
0.0
 11
78.24810805254135
 21
149.65625
 31
0.0
  0
LINE
  5
238
  8
MyLines
 10
78.24810805254135
 20
149.65625
 30
0.0
 11
79.29676457444059
 21
149.65625
 31
0.0
  0
LINE
  5
239
  8
MyLines
 10
79.29676457444059
 20
149.65625
 30
0.0
 11
80.34542109633985
 21
149.65625
 31
0.0
  0
LINE
  5
23A
  8
MyLines
 10
80.34542109633985
 20
149.65625
 30
0.0
 11
81.3940776182391
 21
149.65625
 31
0.0
  0
LINE
  5
23B
  8
MyLines
 10
81.3940776182391
 20
149.65625
 30
0.0
 11
82.44273414013834
 21
149.65625
 31
0.0
  0
LINE
  5
23C
  8
MyLines
 10
82.44273414013834
 20
149.65625
 30
0.0
 11
83.49139066203759
 21
149.65625
 31
0.0
  0
LINE
  5
23D
  8
MyLines
 10
83.49139066203759
 20
149.65625
 30
0.0
 11
84.54004718393684
 21
149.65625
 31
0.0
  0
LINE
  5
23E
  8
MyLines
 10
84.54004718393684
 20
149.65625
 30
0.0
 11
85.58870370583608
 21
149.65625
 31
0.0
  0
LINE
  5
23F
  8
MyLines
 10
85.58870370583608
 20
149.65625
 30
0.0
 11
86.63736022773533
 21
149.65625
 31
0.0
  0
LINE
  5
240
  8
MyLines
 10
86.63736022773533
 20
149.65625
 30
0.0
 11
87.68601674963458
 21
149.65625
 31
0.0
  0
LINE
  5
241
  8
MyLines
 10
87.68601674963458
 20
149.65625
 30
0.0
 11
88.73467327153384
 21
149.65625
 31
0.0
  0
LINE
  5
242
  8
MyLines
 10
88.73467327153384
 20
149.65625
 30
0.0
 11
89.78332979343307
 21
149.65625
 31
0.0
  0
LINE
  5
243
  8
MyLines
 10
89.78332979343307
 20
149.65625
 30
0.0
 11
90.83198631533233
 21
149.65625
 31
0.0
  0
LINE
  5
244
  8
MyLines
 10
90.83198631533233
 20
149.65625
 30
0.0
 11
91.88064283723156
 21
149.65625
 31
0.0
  0
LINE
  5
245
  8
MyLines
 10
91.88064283723156
 20
149.65625
 30
0.0
 11
92.92929935913082
 21
149.65625
 31
0.0
  0
LINE
  5
246
  8
MyLines
 10
92.92929935913082
 20
149.65625
 30
0.0
 11
93.97795588103006
 21
149.65625
 31
0.0
  0
LINE
  5
247
  8
MyLines
 10
93.97795588103006
 20
149.65625
 30
0.0
 11
95.02661240292932
 21
149.65625
 31
0.0
  0
LINE
  5
248
  8
MyLines
 10
95.02661240292932
 20
149.65625
 30
0.0
 11
96.07526892482856
 21
149.65625
 31
0.0
  0
LINE
  5
249
  8
MyLines
 10
96.07526892482856
 20
149.65625
 30
0.0
 11
97.12392544672781
 21
149.65625
 31
0.0
  0
LINE
  5
24A
  8
MyLines
 10
97.12392544672781
 20
149.65625
 30
0.0
 11
98.17258196862706
 21
149.65625
 31
0.0
  0
LINE
  5
24B
  8
MyLines
 10
98.17258196862706
 20
149.65625
 30
0.0
 11
99.22123849052632
 21
149.65625
 31
0.0
  0
LINE
  5
24C
  8
MyLines
 10
99.22123849052632
 20
149.65625
 30
0.0
 11
100.26989501242555
 21
149.65625
 31
0.0
  0
LINE
  5
24D
  8
MyLines
 10
100.26989501242555
 20
149.65625
 30
0.0
 11
101.3185515343248
 21
149.65625
 31
0.0
  0
LINE
  5
24E
  8
MyLines
 10
101.3185515343248
 20
149.65625
 30
0.0
 11
102.36720805622404
 21
149.65625
 31
0.0
  0
LINE
  5
24F
  8
MyLines
 10
102.36720805622404
 20
149.65625
 30
0.0
 11
103.4158645781233
 21
149.65625
 31
0.0
  0
LINE
  5
250
  8
MyLines
 10
103.4158645781233
 20
149.65625
 30
0.0
 11
104.46452110002254
 21
149.65625
 31
0.0
  0
LINE
  5
251
  8
MyLines
 10
104.46452110002254
 20
149.65625
 30
0.0
 11
105.5131776219218
 21
149.65625
 31
0.0
  0
LINE
  5
252
  8
MyLines
 10
105.5131776219218
 20
149.65625
 30
0.0
 11
106.56183414382105
 21
149.65625
 31
0.0
  0
LINE
  5
253
  8
MyLines
 10
106.56183414382105
 20
149.65625
 30
0.0
 11
107.61049066572029
 21
149.65625
 31
0.0
  0
LINE
  5
254
  8
MyLines
 10
107.61049066572029
 20
149.65625
 30
0.0
 11
108.65914718761952
 21
149.65625
 31
0.0
  0
LINE
  5
255
  8
MyLines
 10
108.65914718761952
 20
149.65625
 30
0.0
 11
109.70780370951879
 21
149.65625
 31
0.0
  0
LINE
  5
256
  8
MyLines
 10
109.70780370951879
 20
149.65625
 30
0.0
 11
110.75646023141803
 21
149.65625
 31
0.0
  0
LINE
  5
257
  8
MyLines
 10
110.75646023141803
 20
149.65625
 30
0.0
 11
111.80511675331728
 21
149.65625
 31
0.0
  0
LINE
  5
258
  8
MyLines
 10
111.80511675331728
 20
149.65625
 30
0.0
 11
112.85377327521653
 21
149.65625
 31
0.0
  0
LINE
  5
259
  8
MyLines
 10
112.85377327521653
 20
149.65625
 30
0.0
 11
113.90242979711579
 21
149.65625
 31
0.0
  0
LINE
  5
25A
  8
MyLines
 10
113.90242979711579
 20
149.65625
 30
0.0
 11
114.95108631901502
 21
149.65625
 31
0.0
  0
LINE
  5
25B
  8
MyLines
 10
114.95108631901502
 20
149.65625
 30
0.0
 11
115.99974284091425
 21
149.65625
 31
0.0
  0
LINE
  5
25C
  8
MyLines
 10
115.99974284091425
 20
149.65625
 30
0.0
 11
117.04839936281351
 21
149.65625
 31
0.0
  0
LINE
  5
25D
  8
MyLines
 10
117.04839936281351
 20
149.65625
 30
0.0
 11
118.09705588471276
 21
149.65625
 31
0.0
  0
LINE
  5
25E
  8
MyLines
 10
118.09705588471276
 20
149.65625
 30
0.0
 11
119.145712406612
 21
149.65625
 31
0.0
  0
LINE
  5
25F
  8
MyLines
 10
119.145712406612
 20
149.65625
 30
0.0
 11
120.19436892851125
 21
149.65625
 31
0.0
  0
LINE
  5
260
  8
MyLines
 10
120.19436892851125
 20
149.65625
 30
0.0
 11
121.24302545041051
 21
149.65625
 31
0.0
  0
LINE
  5
261
  8
MyLines
 10
121.24302545041051
 20
149.65625
 30
0.0
 11
122.29168197230975
 21
149.65625
 31
0.0
  0
LINE
  5
262
  8
MyLines
 10
122.29168197230975
 20
149.65625
 30
0.0
 11
123.34033849420899
 21
149.65625
 31
0.0
  0
LINE
  5
263
  8
MyLines
 10
123.34033849420899
 20
149.65625
 30
0.0
 11
124.38899501610825
 21
149.65625
 31
0.0
  0
LINE
  5
264
  8
MyLines
 10
124.38899501610825
 20
149.65625
 30
0.0
 11
125.4376515380075
 21
149.65625
 31
0.0
  0
LINE
  5
265
  8
MyLines
 10
125.4376515380075
 20
149.65625
 30
0.0
 11
125.4376515380075
 21
-137.75
 31
0.0
  0
LINE
  5
266
  8
MyLines
 10
125.4376515380075
 20
-137.75
 30
0.0
 11
125.4376515380075
 21
-137.75
 31
0.0
  0
LINE
  5
267
  8
MyLines
 10
125.4376515380075
 20
-137.75
 30
0.0
 11
124.5154456385926
 21
-137.75
 31
0.0
  0
LINE
  5
268
  8
MyLines
 10
124.5154456385926
 20
-137.75
 30
0.0
 11
123.59323973917768
 21
-137.75
 31
0.0
  0
LINE
  5
269
  8
MyLines
 10
123.59323973917768
 20
-137.75
 30
0.0
 11
122.67103383976277
 21
-137.75
 31
0.0
  0
LINE
  5
26A
  8
MyLines
 10
122.67103383976277
 20
-137.75
 30
0.0
 11
121.74882794034787
 21
-137.75
 31
0.0
  0
LINE
  5
26B
  8
MyLines
 10
121.74882794034787
 20
-137.75
 30
0.0
 11
120.82662204093296
 21
-137.75
 31
0.0
  0
LINE
  5
26C
  8
MyLines
 10
120.82662204093296
 20
-137.75
 30
0.0
 11
119.90441614151806
 21
-137.75
 31
0.0
  0
LINE
  5
26D
  8
MyLines
 10
119.90441614151806
 20
-137.75
 30
0.0
 11
118.98221024210314
 21
-137.75
 31
0.0
  0
LINE
  5
26E
  8
MyLines
 10
118.98221024210314
 20
-137.75
 30
0.0
 11
118.06000434268823
 21
-137.75
 31
0.0
  0
LINE
  5
26F
  8
MyLines
 10
118.06000434268823
 20
-137.75
 30
0.0
 11
117.13779844327333
 21
-137.75
 31
0.0
  0
LINE
  5
270
  8
MyLines
 10
117.13779844327333
 20
-137.75
 30
0.0
 11
116.21559254385842
 21
-137.75
 31
0.0
  0
LINE
  5
271
  8
MyLines
 10
116.21559254385842
 20
-137.75
 30
0.0
 11
115.2933866444435
 21
-137.75
 31
0.0
  0
LINE
  5
272
  8
MyLines
 10
115.2933866444435
 20
-137.75
 30
0.0
 11
114.3711807450286
 21
-137.75
 31
0.0
  0
LINE
  5
273
  8
MyLines
 10
114.3711807450286
 20
-137.75
 30
0.0
 11
113.44897484561369
 21
-137.75
 31
0.0
  0
LINE
  5
274
  8
MyLines
 10
113.44897484561369
 20
-137.75
 30
0.0
 11
112.52676894619879
 21
-137.75
 31
0.0
  0
LINE
  5
275
  8
MyLines
 10
112.52676894619879
 20
-137.75
 30
0.0
 11
111.60456304678385
 21
-137.75
 31
0.0
  0
LINE
  5
276
  8
MyLines
 10
111.60456304678385
 20
-137.75
 30
0.0
 11
110.68235714736896
 21
-137.75
 31
0.0
  0
LINE
  5
277
  8
MyLines
 10
110.68235714736896
 20
-137.75
 30
0.0
 11
109.76015124795404
 21
-137.75
 31
0.0
  0
LINE
  5
278
  8
MyLines
 10
109.76015124795404
 20
-137.75
 30
0.0
 11
108.83794534853915
 21
-137.75
 31
0.0
  0
LINE
  5
279
  8
MyLines
 10
108.83794534853915
 20
-137.75
 30
0.0
 11
107.91573944912422
 21
-137.75
 31
0.0
  0
LINE
  5
27A
  8
MyLines
 10
107.91573944912422
 20
-137.75
 30
0.0
 11
106.99353354970933
 21
-137.75
 31
0.0
  0
LINE
  5
27B
  8
MyLines
 10
106.99353354970933
 20
-137.75
 30
0.0
 11
106.0713276502944
 21
-137.75
 31
0.0
  0
LINE
  5
27C
  8
MyLines
 10
106.0713276502944
 20
-137.75
 30
0.0
 11
105.14912175087952
 21
-137.75
 31
0.0
  0
LINE
  5
27D
  8
MyLines
 10
105.14912175087952
 20
-137.75
 30
0.0
 11
104.22691585146458
 21
-137.75
 31
0.0
  0
LINE
  5
27E
  8
MyLines
 10
104.22691585146458
 20
-137.75
 30
0.0
 11
103.30470995204969
 21
-137.75
 31
0.0
  0
LINE
  5
27F
  8
MyLines
 10
103.30470995204969
 20
-137.75
 30
0.0
 11
102.38250405263477
 21
-137.75
 31
0.0
  0
LINE
  5
280
  8
MyLines
 10
102.38250405263477
 20
-137.75
 30
0.0
 11
101.46029815321988
 21
-137.75
 31
0.0
  0
LINE
  5
281
  8
MyLines
 10
101.46029815321988
 20
-137.75
 30
0.0
 11
100.53809225380495
 21
-137.75
 31
0.0
  0
LINE
  5
282
  8
MyLines
 10
100.53809225380495
 20
-137.75
 30
0.0
 11
99.61588635439004
 21
-137.75
 31
0.0
  0
LINE
  5
283
  8
MyLines
 10
99.61588635439004
 20
-137.75
 30
0.0
 11
98.69368045497514
 21
-137.75
 31
0.0
  0
LINE
  5
284
  8
MyLines
 10
98.69368045497514
 20
-137.75
 30
0.0
 11
97.77147455556023
 21
-137.75
 31
0.0
  0
LINE
  5
285
  8
MyLines
 10
97.77147455556023
 20
-137.75
 30
0.0
 11
96.84926865614531
 21
-137.75
 31
0.0
  0
LINE
  5
286
  8
MyLines
 10
96.84926865614531
 20
-137.75
 30
0.0
 11
95.92706275673041
 21
-137.75
 31
0.0
  0
LINE
  5
287
  8
MyLines
 10
95.92706275673041
 20
-137.75
 30
0.0
 11
95.0048568573155
 21
-137.75
 31
0.0
  0
LINE
  5
288
  8
MyLines
 10
95.0048568573155
 20
-137.75
 30
0.0
 11
94.0826509579006
 21
-137.75
 31
0.0
  0
LINE
  5
289
  8
MyLines
 10
94.0826509579006
 20
-137.75
 30
0.0
 11
93.16044505848568
 21
-137.75
 31
0.0
  0
LINE
  5
28A
  8
MyLines
 10
93.16044505848568
 20
-137.75
 30
0.0
 11
92.23823915907077
 21
-137.75
 31
0.0
  0
LINE
  5
28B
  8
MyLines
 10
92.23823915907077
 20
-137.75
 30
0.0
 11
91.31603325965587
 21
-137.75
 31
0.0
  0
LINE
  5
28C
  8
MyLines
 10
91.31603325965587
 20
-137.75
 30
0.0
 11
90.39382736024096
 21
-137.75
 31
0.0
  0
LINE
  5
28D
  8
MyLines
 10
90.39382736024096
 20
-137.75
 30
0.0
 11
89.47162146082606
 21
-137.75
 31
0.0
  0
LINE
  5
28E
  8
MyLines
 10
89.47162146082606
 20
-137.75
 30
0.0
 11
88.54941556141114
 21
-137.75
 31
0.0
  0
LINE
  5
28F
  8
MyLines
 10
88.54941556141114
 20
-137.75
 30
0.0
 11
87.62720966199623
 21
-137.75
 31
0.0
  0
LINE
  5
290
  8
MyLines
 10
87.62720966199623
 20
-137.75
 30
0.0
 11
86.70500376258133
 21
-137.75
 31
0.0
  0
LINE
  5
291
  8
MyLines
 10
86.70500376258133
 20
-137.75
 30
0.0
 11
85.78279786316642
 21
-137.75
 31
0.0
  0
LINE
  5
292
  8
MyLines
 10
85.78279786316642
 20
-137.75
 30
0.0
 11
84.8605919637515
 21
-137.75
 31
0.0
  0
LINE
  5
293
  8
MyLines
 10
84.8605919637515
 20
-137.75
 30
0.0
 11
83.9383860643366
 21
-137.75
 31
0.0
  0
LINE
  5
294
  8
MyLines
 10
83.9383860643366
 20
-137.75
 30
0.0
 11
83.01618016492169
 21
-137.75
 31
0.0
  0
LINE
  5
295
  8
MyLines
 10
83.01618016492169
 20
-137.75
 30
0.0
 11
82.09397426550679
 21
-137.75
 31
0.0
  0
LINE
  5
296
  8
MyLines
 10
82.09397426550679
 20
-137.75
 30
0.0
 11
81.17176836609187
 21
-137.75
 31
0.0
  0
LINE
  5
297
  8
MyLines
 10
81.17176836609187
 20
-137.75
 30
0.0
 11
80.24956246667696
 21
-137.75
 31
0.0
  0
LINE
  5
298
  8
MyLines
 10
80.24956246667696
 20
-137.75
 30
0.0
 11
80.24956246667696
 21
-137.75
 31
0.0
  0
LINE
  5
299
  8
MyLines
 10
80.24956246667696
 20
-137.75
 30
0.0
 11
80.24956246667696
 21
145.6875
 31
0.0
  0
LINE
  5
29A
  8
MyLines
 10
80.24956246667696
 20
145.6875
 30
0.0
 11
80.24956246667696
 21
145.6875
 31
0.0
  0
LINE
  5
29B
  8
MyLines
 10
80.24956246667696
 20
145.6875
 30
0.0
 11
81.04531774360754
 21
145.6875
 31
0.0
  0
LINE
  5
29C
  8
MyLines
 10
81.04531774360754
 20
145.6875
 30
0.0
 11
81.8410730205381
 21
145.6875
 31
0.0
  0
LINE
  5
29D
  8
MyLines
 10
81.8410730205381
 20
145.6875
 30
0.0
 11
82.63682829746867
 21
145.6875
 31
0.0
  0
LINE
  5
29E
  8
MyLines
 10
82.63682829746867
 20
145.6875
 30
0.0
 11
83.43258357439925
 21
145.6875
 31
0.0
  0
LINE
  5
29F
  8
MyLines
 10
83.43258357439925
 20
145.6875
 30
0.0
 11
84.22833885132982
 21
145.6875
 31
0.0
  0
LINE
  5
2A0
  8
MyLines
 10
84.22833885132982
 20
145.6875
 30
0.0
 11
85.02409412826039
 21
145.6875
 31
0.0
  0
LINE
  5
2A1
  8
MyLines
 10
85.02409412826039
 20
145.6875
 30
0.0
 11
85.81984940519095
 21
145.6875
 31
0.0
  0
LINE
  5
2A2
  8
MyLines
 10
85.81984940519095
 20
145.6875
 30
0.0
 11
86.61560468212153
 21
145.6875
 31
0.0
  0
LINE
  5
2A3
  8
MyLines
 10
86.61560468212153
 20
145.6875
 30
0.0
 11
87.41135995905209
 21
145.6875
 31
0.0
  0
LINE
  5
2A4
  8
MyLines
 10
87.41135995905209
 20
145.6875
 30
0.0
 11
88.20711523598267
 21
145.6875
 31
0.0
  0
LINE
  5
2A5
  8
MyLines
 10
88.20711523598267
 20
145.6875
 30
0.0
 11
89.00287051291323
 21
145.6875
 31
0.0
  0
LINE
  5
2A6
  8
MyLines
 10
89.00287051291323
 20
145.6875
 30
0.0
 11
89.79862578984381
 21
145.6875
 31
0.0
  0
LINE
  5
2A7
  8
MyLines
 10
89.79862578984381
 20
145.6875
 30
0.0
 11
90.59438106677437
 21
145.6875
 31
0.0
  0
LINE
  5
2A8
  8
MyLines
 10
90.59438106677437
 20
145.6875
 30
0.0
 11
91.39013634370494
 21
145.6875
 31
0.0
  0
LINE
  5
2A9
  8
MyLines
 10
91.39013634370494
 20
145.6875
 30
0.0
 11
92.18589162063552
 21
145.6875
 31
0.0
  0
LINE
  5
2AA
  8
MyLines
 10
92.18589162063552
 20
145.6875
 30
0.0
 11
92.9816468975661
 21
145.6875
 31
0.0
  0
LINE
  5
2AB
  8
MyLines
 10
92.9816468975661
 20
145.6875
 30
0.0
 11
93.77740217449666
 21
145.6875
 31
0.0
  0
LINE
  5
2AC
  8
MyLines
 10
93.77740217449666
 20
145.6875
 30
0.0
 11
94.57315745142722
 21
145.6875
 31
0.0
  0
LINE
  5
2AD
  8
MyLines
 10
94.57315745142722
 20
145.6875
 30
0.0
 11
95.3689127283578
 21
145.6875
 31
0.0
  0
LINE
  5
2AE
  8
MyLines
 10
95.3689127283578
 20
145.6875
 30
0.0
 11
96.16466800528838
 21
145.6875
 31
0.0
  0
LINE
  5
2AF
  8
MyLines
 10
96.16466800528838
 20
145.6875
 30
0.0
 11
96.96042328221894
 21
145.6875
 31
0.0
  0
LINE
  5
2B0
  8
MyLines
 10
96.96042328221894
 20
145.6875
 30
0.0
 11
97.7561785591495
 21
145.6875
 31
0.0
  0
LINE
  5
2B1
  8
MyLines
 10
97.7561785591495
 20
145.6875
 30
0.0
 11
98.55193383608008
 21
145.6875
 31
0.0
  0
LINE
  5
2B2
  8
MyLines
 10
98.55193383608008
 20
145.6875
 30
0.0
 11
99.34768911301065
 21
145.6875
 31
0.0
  0
LINE
  5
2B3
  8
MyLines
 10
99.34768911301065
 20
145.6875
 30
0.0
 11
100.14344438994122
 21
145.6875
 31
0.0
  0
LINE
  5
2B4
  8
MyLines
 10
100.14344438994122
 20
145.6875
 30
0.0
 11
100.93919966687179
 21
145.6875
 31
0.0
  0
LINE
  5
2B5
  8
MyLines
 10
100.93919966687179
 20
145.6875
 30
0.0
 11
101.73495494380236
 21
145.6875
 31
0.0
  0
LINE
  5
2B6
  8
MyLines
 10
101.73495494380236
 20
145.6875
 30
0.0
 11
102.53071022073293
 21
145.6875
 31
0.0
  0
LINE
  5
2B7
  8
MyLines
 10
102.53071022073293
 20
145.6875
 30
0.0
 11
103.32646549766349
 21
145.6875
 31
0.0
  0
LINE
  5
2B8
  8
MyLines
 10
103.32646549766349
 20
145.6875
 30
0.0
 11
104.12222077459407
 21
145.6875
 31
0.0
  0
LINE
  5
2B9
  8
MyLines
 10
104.12222077459407
 20
145.6875
 30
0.0
 11
104.91797605152465
 21
145.6875
 31
0.0
  0
LINE
  5
2BA
  8
MyLines
 10
104.91797605152465
 20
145.6875
 30
0.0
 11
105.71373132845521
 21
145.6875
 31
0.0
  0
LINE
  5
2BB
  8
MyLines
 10
105.71373132845521
 20
145.6875
 30
0.0
 11
106.50948660538577
 21
145.6875
 31
0.0
  0
LINE
  5
2BC
  8
MyLines
 10
106.50948660538577
 20
145.6875
 30
0.0
 11
107.30524188231635
 21
145.6875
 31
0.0
  0
LINE
  5
2BD
  8
MyLines
 10
107.30524188231635
 20
145.6875
 30
0.0
 11
108.10099715924693
 21
145.6875
 31
0.0
  0
LINE
  5
2BE
  8
MyLines
 10
108.10099715924693
 20
145.6875
 30
0.0
 11
108.8967524361775
 21
145.6875
 31
0.0
  0
LINE
  5
2BF
  8
MyLines
 10
108.8967524361775
 20
145.6875
 30
0.0
 11
109.69250771310806
 21
145.6875
 31
0.0
  0
LINE
  5
2C0
  8
MyLines
 10
109.69250771310806
 20
145.6875
 30
0.0
 11
110.48826299003863
 21
145.6875
 31
0.0
  0
LINE
  5
2C1
  8
MyLines
 10
110.48826299003863
 20
145.6875
 30
0.0
 11
111.2840182669692
 21
145.6875
 31
0.0
  0
LINE
  5
2C2
  8
MyLines
 10
111.2840182669692
 20
145.6875
 30
0.0
 11
112.07977354389978
 21
145.6875
 31
0.0
  0
LINE
  5
2C3
  8
MyLines
 10
112.07977354389978
 20
145.6875
 30
0.0
 11
112.87552882083034
 21
145.6875
 31
0.0
  0
LINE
  5
2C4
  8
MyLines
 10
112.87552882083034
 20
145.6875
 30
0.0
 11
113.67128409776092
 21
145.6875
 31
0.0
  0
LINE
  5
2C5
  8
MyLines
 10
113.67128409776092
 20
145.6875
 30
0.0
 11
114.46703937469148
 21
145.6875
 31
0.0
  0
LINE
  5
2C6
  8
MyLines
 10
114.46703937469148
 20
145.6875
 30
0.0
 11
115.26279465162204
 21
145.6875
 31
0.0
  0
LINE
  5
2C7
  8
MyLines
 10
115.26279465162204
 20
145.6875
 30
0.0
 11
116.05854992855262
 21
145.6875
 31
0.0
  0
LINE
  5
2C8
  8
MyLines
 10
116.05854992855262
 20
145.6875
 30
0.0
 11
116.8543052054832
 21
145.6875
 31
0.0
  0
LINE
  5
2C9
  8
MyLines
 10
116.8543052054832
 20
145.6875
 30
0.0
 11
117.65006048241376
 21
145.6875
 31
0.0
  0
LINE
  5
2CA
  8
MyLines
 10
117.65006048241376
 20
145.6875
 30
0.0
 11
118.44581575934433
 21
145.6875
 31
0.0
  0
LINE
  5
2CB
  8
MyLines
 10
118.44581575934433
 20
145.6875
 30
0.0
 11
119.2415710362749
 21
145.6875
 31
0.0
  0
LINE
  5
2CC
  8
MyLines
 10
119.2415710362749
 20
145.6875
 30
0.0
 11
119.2415710362749
 21
-133.78125
 31
0.0
  0
LINE
  5
2CD
  8
MyLines
 10
119.2415710362749
 20
-133.78125
 30
0.0
 11
119.2415710362749
 21
-133.78125
 31
0.0
  0
LINE
  5
2CE
  8
MyLines
 10
119.2415710362749
 20
-133.78125
 30
0.0
 11
118.67996690595734
 21
-133.78125
 31
0.0
  0
LINE
  5
2CF
  8
MyLines
 10
118.67996690595734
 20
-133.78125
 30
0.0
 11
118.11836277563981
 21
-133.78125
 31
0.0
  0
LINE
  5
2D0
  8
MyLines
 10
118.11836277563981
 20
-133.78125
 30
0.0
 11
117.55675864532225
 21
-133.78125
 31
0.0
  0
LINE
  5
2D1
  8
MyLines
 10
117.55675864532225
 20
-133.78125
 30
0.0
 11
116.9951545150047
 21
-133.78125
 31
0.0
  0
LINE
  5
2D2
  8
MyLines
 10
116.9951545150047
 20
-133.78125
 30
0.0
 11
116.43355038468714
 21
-133.78125
 31
0.0
  0
LINE
  5
2D3
  8
MyLines
 10
116.43355038468714
 20
-133.78125
 30
0.0
 11
115.8719462543696
 21
-133.78125
 31
0.0
  0
LINE
  5
2D4
  8
MyLines
 10
115.8719462543696
 20
-133.78125
 30
0.0
 11
115.31034212405206
 21
-133.78125
 31
0.0
  0
LINE
  5
2D5
  8
MyLines
 10
115.31034212405206
 20
-133.78125
 30
0.0
 11
114.7487379937345
 21
-133.78125
 31
0.0
  0
LINE
  5
2D6
  8
MyLines
 10
114.7487379937345
 20
-133.78125
 30
0.0
 11
114.18713386341695
 21
-133.78125
 31
0.0
  0
LINE
  5
2D7
  8
MyLines
 10
114.18713386341695
 20
-133.78125
 30
0.0
 11
113.6255297330994
 21
-133.78125
 31
0.0
  0
LINE
  5
2D8
  8
MyLines
 10
113.6255297330994
 20
-133.78125
 30
0.0
 11
113.06392560278185
 21
-133.78125
 31
0.0
  0
LINE
  5
2D9
  8
MyLines
 10
113.06392560278185
 20
-133.78125
 30
0.0
 11
112.50232147246429
 21
-133.78125
 31
0.0
  0
LINE
  5
2DA
  8
MyLines
 10
112.50232147246429
 20
-133.78125
 30
0.0
 11
111.94071734214675
 21
-133.78125
 31
0.0
  0
LINE
  5
2DB
  8
MyLines
 10
111.94071734214675
 20
-133.78125
 30
0.0
 11
111.3791132118292
 21
-133.78125
 31
0.0
  0
LINE
  5
2DC
  8
MyLines
 10
111.3791132118292
 20
-133.78125
 30
0.0
 11
110.81750908151164
 21
-133.78125
 31
0.0
  0
LINE
  5
2DD
  8
MyLines
 10
110.81750908151164
 20
-133.78125
 30
0.0
 11
110.2559049511941
 21
-133.78125
 31
0.0
  0
LINE
  5
2DE
  8
MyLines
 10
110.2559049511941
 20
-133.78125
 30
0.0
 11
109.69430082087653
 21
-133.78125
 31
0.0
  0
LINE
  5
2DF
  8
MyLines
 10
109.69430082087653
 20
-133.78125
 30
0.0
 11
109.13269669055899
 21
-133.78125
 31
0.0
  0
LINE
  5
2E0
  8
MyLines
 10
109.13269669055899
 20
-133.78125
 30
0.0
 11
108.57109256024144
 21
-133.78125
 31
0.0
  0
LINE
  5
2E1
  8
MyLines
 10
108.57109256024144
 20
-133.78125
 30
0.0
 11
108.00948842992389
 21
-133.78125
 31
0.0
  0
LINE
  5
2E2
  8
MyLines
 10
108.00948842992389
 20
-133.78125
 30
0.0
 11
107.44788429960636
 21
-133.78125
 31
0.0
  0
LINE
  5
2E3
  8
MyLines
 10
107.44788429960636
 20
-133.78125
 30
0.0
 11
106.8862801692888
 21
-133.78125
 31
0.0
  0
LINE
  5
2E4
  8
MyLines
 10
106.8862801692888
 20
-133.78125
 30
0.0
 11
106.32467603897125
 21
-133.78125
 31
0.0
  0
LINE
  5
2E5
  8
MyLines
 10
106.32467603897125
 20
-133.78125
 30
0.0
 11
105.76307190865369
 21
-133.78125
 31
0.0
  0
LINE
  5
2E6
  8
MyLines
 10
105.76307190865369
 20
-133.78125
 30
0.0
 11
105.20146777833614
 21
-133.78125
 31
0.0
  0
LINE
  5
2E7
  8
MyLines
 10
105.20146777833614
 20
-133.78125
 30
0.0
 11
104.6398636480186
 21
-133.78125
 31
0.0
  0
LINE
  5
2E8
  8
MyLines
 10
104.6398636480186
 20
-133.78125
 30
0.0
 11
104.07825951770104
 21
-133.78125
 31
0.0
  0
LINE
  5
2E9
  8
MyLines
 10
104.07825951770104
 20
-133.78125
 30
0.0
 11
103.5166553873835
 21
-133.78125
 31
0.0
  0
LINE
  5
2EA
  8
MyLines
 10
103.5166553873835
 20
-133.78125
 30
0.0
 11
102.95505125706595
 21
-133.78125
 31
0.0
  0
LINE
  5
2EB
  8
MyLines
 10
102.95505125706595
 20
-133.78125
 30
0.0
 11
102.3934471267484
 21
-133.78125
 31
0.0
  0
LINE
  5
2EC
  8
MyLines
 10
102.3934471267484
 20
-133.78125
 30
0.0
 11
101.83184299643084
 21
-133.78125
 31
0.0
  0
LINE
  5
2ED
  8
MyLines
 10
101.83184299643084
 20
-133.78125
 30
0.0
 11
101.27023886611329
 21
-133.78125
 31
0.0
  0
LINE
  5
2EE
  8
MyLines
 10
101.27023886611329
 20
-133.78125
 30
0.0
 11
100.70863473579574
 21
-133.78125
 31
0.0
  0
LINE
  5
2EF
  8
MyLines
 10
100.70863473579574
 20
-133.78125
 30
0.0
 11
100.1470306054782
 21
-133.78125
 31
0.0
  0
LINE
  5
2F0
  8
MyLines
 10
100.1470306054782
 20
-133.78125
 30
0.0
 11
99.58542647516065
 21
-133.78125
 31
0.0
  0
LINE
  5
2F1
  8
MyLines
 10
99.58542647516065
 20
-133.78125
 30
0.0
 11
99.02382234484308
 21
-133.78125
 31
0.0
  0
LINE
  5
2F2
  8
MyLines
 10
99.02382234484308
 20
-133.78125
 30
0.0
 11
98.46221821452555
 21
-133.78125
 31
0.0
  0
LINE
  5
2F3
  8
MyLines
 10
98.46221821452555
 20
-133.78125
 30
0.0
 11
97.90061408420799
 21
-133.78125
 31
0.0
  0
LINE
  5
2F4
  8
MyLines
 10
97.90061408420799
 20
-133.78125
 30
0.0
 11
97.33900995389044
 21
-133.78125
 31
0.0
  0
LINE
  5
2F5
  8
MyLines
 10
97.33900995389044
 20
-133.78125
 30
0.0
 11
96.77740582357289
 21
-133.78125
 31
0.0
  0
LINE
  5
2F6
  8
MyLines
 10
96.77740582357289
 20
-133.78125
 30
0.0
 11
96.21580169325533
 21
-133.78125
 31
0.0
  0
LINE
  5
2F7
  8
MyLines
 10
96.21580169325533
 20
-133.78125
 30
0.0
 11
95.6541975629378
 21
-133.78125
 31
0.0
  0
LINE
  5
2F8
  8
MyLines
 10
95.6541975629378
 20
-133.78125
 30
0.0
 11
95.09259343262023
 21
-133.78125
 31
0.0
  0
LINE
  5
2F9
  8
MyLines
 10
95.09259343262023
 20
-133.78125
 30
0.0
 11
94.53098930230269
 21
-133.78125
 31
0.0
  0
LINE
  5
2FA
  8
MyLines
 10
94.53098930230269
 20
-133.78125
 30
0.0
 11
93.96938517198514
 21
-133.78125
 31
0.0
  0
LINE
  5
2FB
  8
MyLines
 10
93.96938517198514
 20
-133.78125
 30
0.0
 11
93.40778104166759
 21
-133.78125
 31
0.0
  0
LINE
  5
2FC
  8
MyLines
 10
93.40778104166759
 20
-133.78125
 30
0.0
 11
92.84617691135004
 21
-133.78125
 31
0.0
  0
LINE
  5
2FD
  8
MyLines
 10
92.84617691135004
 20
-133.78125
 30
0.0
 11
92.28457278103248
 21
-133.78125
 31
0.0
  0
LINE
  5
2FE
  8
MyLines
 10
92.28457278103248
 20
-133.78125
 30
0.0
 11
91.72296865071493
 21
-133.78125
 31
0.0
  0
LINE
  5
2FF
  8
MyLines
 10
91.72296865071493
 20
-133.78125
 30
0.0
 11
91.72296865071493
 21
-133.78125
 31
0.0
  0
LINE
  5
300
  8
MyLines
 10
91.72296865071493
 20
-133.78125
 30
0.0
 11
91.72296865071493
 21
141.71875
 31
0.0
  0
LINE
  5
301
  8
MyLines
 10
91.72296865071493
 20
141.71875
 30
0.0
 11
91.72296865071493
 21
141.71875
 31
0.0
  0
LINE
  5
302
  8
MyLines
 10
91.72296865071493
 20
141.71875
 30
0.0
 11
92.05042163441946
 21
141.71875
 31
0.0
  0
LINE
  5
303
  8
MyLines
 10
92.05042163441946
 20
141.71875
 30
0.0
 11
92.37787461812398
 21
141.71875
 31
0.0
  0
LINE
  5
304
  8
MyLines
 10
92.37787461812398
 20
141.71875
 30
0.0
 11
92.70532760182851
 21
141.71875
 31
0.0
  0
LINE
  5
305
  8
MyLines
 10
92.70532760182851
 20
141.71875
 30
0.0
 11
93.03278058553305
 21
141.71875
 31
0.0
  0
LINE
  5
306
  8
MyLines
 10
93.03278058553305
 20
141.71875
 30
0.0
 11
93.36023356923758
 21
141.71875
 31
0.0
  0
LINE
  5
307
  8
MyLines
 10
93.36023356923758
 20
141.71875
 30
0.0
 11
93.68768655294211
 21
141.71875
 31
0.0
  0
LINE
  5
308
  8
MyLines
 10
93.68768655294211
 20
141.71875
 30
0.0
 11
94.01513953664664
 21
141.71875
 31
0.0
  0
LINE
  5
309
  8
MyLines
 10
94.01513953664664
 20
141.71875
 30
0.0
 11
94.34259252035118
 21
141.71875
 31
0.0
  0
LINE
  5
30A
  8
MyLines
 10
94.34259252035118
 20
141.71875
 30
0.0
 11
94.67004550405571
 21
141.71875
 31
0.0
  0
LINE
  5
30B
  8
MyLines
 10
94.67004550405571
 20
141.71875
 30
0.0
 11
94.99749848776023
 21
141.71875
 31
0.0
  0
LINE
  5
30C
  8
MyLines
 10
94.99749848776023
 20
141.71875
 30
0.0
 11
95.32495147146476
 21
141.71875
 31
0.0
  0
LINE
  5
30D
  8
MyLines
 10
95.32495147146476
 20
141.71875
 30
0.0
 11
95.6524044551693
 21
141.71875
 31
0.0
  0
LINE
  5
30E
  8
MyLines
 10
95.6524044551693
 20
141.71875
 30
0.0
 11
95.97985743887384
 21
141.71875
 31
0.0
  0
LINE
  5
30F
  8
MyLines
 10
95.97985743887384
 20
141.71875
 30
0.0
 11
96.30731042257837
 21
141.71875
 31
0.0
  0
LINE
  5
310
  8
MyLines
 10
96.30731042257837
 20
141.71875
 30
0.0
 11
96.6347634062829
 21
141.71875
 31
0.0
  0
LINE
  5
311
  8
MyLines
 10
96.6347634062829
 20
141.71875
 30
0.0
 11
96.96221638998743
 21
141.71875
 31
0.0
  0
LINE
  5
312
  8
MyLines
 10
96.96221638998743
 20
141.71875
 30
0.0
 11
97.28966937369195
 21
141.71875
 31
0.0
  0
LINE
  5
313
  8
MyLines
 10
97.28966937369195
 20
141.71875
 30
0.0
 11
97.61712235739648
 21
141.71875
 31
0.0
  0
LINE
  5
314
  8
MyLines
 10
97.61712235739648
 20
141.71875
 30
0.0
 11
97.94457534110101
 21
141.71875
 31
0.0
  0
LINE
  5
315
  8
MyLines
 10
97.94457534110101
 20
141.71875
 30
0.0
 11
98.27202832480555
 21
141.71875
 31
0.0
  0
LINE
  5
316
  8
MyLines
 10
98.27202832480555
 20
141.71875
 30
0.0
 11
98.59948130851008
 21
141.71875
 31
0.0
  0
LINE
  5
317
  8
MyLines
 10
98.59948130851008
 20
141.71875
 30
0.0
 11
98.92693429221461
 21
141.71875
 31
0.0
  0
LINE
  5
318
  8
MyLines
 10
98.92693429221461
 20
141.71875
 30
0.0
 11
99.25438727591914
 21
141.71875
 31
0.0
  0
LINE
  5
319
  8
MyLines
 10
99.25438727591914
 20
141.71875
 30
0.0
 11
99.58184025962366
 21
141.71875
 31
0.0
  0
LINE
  5
31A
  8
MyLines
 10
99.58184025962366
 20
141.71875
 30
0.0
 11
99.9092932433282
 21
141.71875
 31
0.0
  0
LINE
  5
31B
  8
MyLines
 10
99.9092932433282
 20
141.71875
 30
0.0
 11
100.23674622703273
 21
141.71875
 31
0.0
  0
LINE
  5
31C
  8
MyLines
 10
100.23674622703273
 20
141.71875
 30
0.0
 11
100.56419921073726
 21
141.71875
 31
0.0
  0
LINE
  5
31D
  8
MyLines
 10
100.56419921073726
 20
141.71875
 30
0.0
 11
100.89165219444179
 21
141.71875
 31
0.0
  0
LINE
  5
31E
  8
MyLines
 10
100.89165219444179
 20
141.71875
 30
0.0
 11
101.21910517814632
 21
141.71875
 31
0.0
  0
LINE
  5
31F
  8
MyLines
 10
101.21910517814632
 20
141.71875
 30
0.0
 11
101.54655816185085
 21
141.71875
 31
0.0
  0
LINE
  5
320
  8
MyLines
 10
101.54655816185085
 20
141.71875
 30
0.0
 11
101.87401114555537
 21
141.71875
 31
0.0
  0
LINE
  5
321
  8
MyLines
 10
101.87401114555537
 20
141.71875
 30
0.0
 11
102.2014641292599
 21
141.71875
 31
0.0
  0
LINE
  5
322
  8
MyLines
 10
102.2014641292599
 20
141.71875
 30
0.0
 11
102.52891711296444
 21
141.71875
 31
0.0
  0
LINE
  5
323
  8
MyLines
 10
102.52891711296444
 20
141.71875
 30
0.0
 11
102.85637009666897
 21
141.71875
 31
0.0
  0
LINE
  5
324
  8
MyLines
 10
102.85637009666897
 20
141.71875
 30
0.0
 11
103.1838230803735
 21
141.71875
 31
0.0
  0
LINE
  5
325
  8
MyLines
 10
103.1838230803735
 20
141.71875
 30
0.0
 11
103.51127606407803
 21
141.71875
 31
0.0
  0
LINE
  5
326
  8
MyLines
 10
103.51127606407803
 20
141.71875
 30
0.0
 11
103.83872904778256
 21
141.71875
 31
0.0
  0
LINE
  5
327
  8
MyLines
 10
103.83872904778256
 20
141.71875
 30
0.0
 11
104.16618203148708
 21
141.71875
 31
0.0
  0
LINE
  5
328
  8
MyLines
 10
104.16618203148708
 20
141.71875
 30
0.0
 11
104.49363501519161
 21
141.71875
 31
0.0
  0
LINE
  5
329
  8
MyLines
 10
104.49363501519161
 20
141.71875
 30
0.0
 11
104.82108799889615
 21
141.71875
 31
0.0
  0
LINE
  5
32A
  8
MyLines
 10
104.82108799889615
 20
141.71875
 30
0.0
 11
105.14854098260068
 21
141.71875
 31
0.0
  0
LINE
  5
32B
  8
MyLines
 10
105.14854098260068
 20
141.71875
 30
0.0
 11
105.47599396630523
 21
141.71875
 31
0.0
  0
LINE
  5
32C
  8
MyLines
 10
105.47599396630523
 20
141.71875
 30
0.0
 11
105.80344695000976
 21
141.71875
 31
0.0
  0
LINE
  5
32D
  8
MyLines
 10
105.80344695000976
 20
141.71875
 30
0.0
 11
106.13089993371429
 21
141.71875
 31
0.0
  0
LINE
  5
32E
  8
MyLines
 10
106.13089993371429
 20
141.71875
 30
0.0
 11
106.45835291741881
 21
141.71875
 31
0.0
  0
LINE
  5
32F
  8
MyLines
 10
106.45835291741881
 20
141.71875
 30
0.0
 11
106.78580590112334
 21
141.71875
 31
0.0
  0
LINE
  5
330
  8
MyLines
 10
106.78580590112334
 20
141.71875
 30
0.0
 11
107.11325888482787
 21
141.71875
 31
0.0
  0
LINE
  5
331
  8
MyLines
 10
107.11325888482787
 20
141.71875
 30
0.0
 11
107.4407118685324
 21
141.71875
 31
0.0
  0
LINE
  5
332
  8
MyLines
 10
107.4407118685324
 20
141.71875
 30
0.0
 11
107.76816485223694
 21
141.71875
 31
0.0
  0
LINE
  5
333
  8
MyLines
 10
107.76816485223694
 20
141.71875
 30
0.0
 11
107.76816485223694
 21
-129.8125
 31
0.0
  0
LINE
  5
334
  8
MyLines
 10
107.76816485223694
 20
-129.8125
 30
0.0
 11
107.76816485223694
 21
-129.8125
 31
0.0
  0
LINE
  5
335
  8
MyLines
 10
107.76816485223694
 20
-129.8125
 30
0.0
 11
107.76816485223694
 21
-129.8125
 31
0.0
  0
LINE
  5
336
  8
MyLines
 10
107.76816485223694
 20
-129.8125
 30
0.0
 11
107.76816485223694
 21
-129.8125
 31
0.0
  0
LINE
  5
337
  8
MyLines
 10
107.76816485223694
 20
-129.8125
 30
0.0
 11
107.76816485223694
 21
-129.8125
 31
0.0
  0
LINE
  5
338
  8
MyLines
 10
107.76816485223694
 20
-129.8125
 30
0.0
 11
107.76816485223694
 21
-129.8125
 31
0.0
  0
LINE
  5
339
  8
MyLines
 10
107.76816485223694
 20
-129.8125
 30
0.0
 11
107.76816485223694
 21
-129.8125
 31
0.0
  0
LINE
  5
33A
  8
MyLines
 10
107.76816485223694
 20
-129.8125
 30
0.0
 11
107.76816485223694
 21
-129.8125
 31
0.0
  0
LINE
  5
33B
  8
MyLines
 10
107.76816485223694
 20
-129.8125
 30
0.0
 11
107.76816485223694
 21
-129.8125
 31
0.0
  0
LINE
  5
33C
  8
MyLines
 10
107.76816485223694
 20
-129.8125
 30
0.0
 11
107.76816485223694
 21
-129.8125
 31
0.0
  0
LINE
  5
33D
  8
MyLines
 10
107.76816485223694
 20
-129.8125
 30
0.0
 11
107.76816485223694
 21
-129.8125
 31
0.0
  0
LINE
  5
33E
  8
MyLines
 10
107.76816485223694
 20
-129.8125
 30
0.0
 11
107.76816485223694
 21
-129.8125
 31
0.0
  0
LINE
  5
33F
  8
MyLines
 10
107.76816485223694
 20
-129.8125
 30
0.0
 11
107.76816485223694
 21
-129.8125
 31
0.0
  0
LINE
  5
340
  8
MyLines
 10
107.76816485223694
 20
-129.8125
 30
0.0
 11
107.76816485223694
 21
-129.8125
 31
0.0
  0
LINE
  5
341
  8
MyLines
 10
107.76816485223694
 20
-129.8125
 30
0.0
 11
107.76816485223694
 21
-129.8125
 31
0.0
  0
LINE
  5
342
  8
MyLines
 10
107.76816485223694
 20
-129.8125
 30
0.0
 11
107.76816485223694
 21
-129.8125
 31
0.0
  0
LINE
  5
343
  8
MyLines
 10
107.76816485223694
 20
-129.8125
 30
0.0
 11
107.76816485223694
 21
-129.8125
 31
0.0
  0
LINE
  5
344
  8
MyLines
 10
107.76816485223694
 20
-129.8125
 30
0.0
 11
107.76816485223694
 21
-129.8125
 31
0.0
  0
LINE
  5
345
  8
MyLines
 10
107.76816485223694
 20
-129.8125
 30
0.0
 11
107.76816485223694
 21
-129.8125
 31
0.0
  0
LINE
  5
346
  8
MyLines
 10
107.76816485223694
 20
-129.8125
 30
0.0
 11
107.76816485223694
 21
-129.8125
 31
0.0
  0
LINE
  5
347
  8
MyLines
 10
107.76816485223694
 20
-129.8125
 30
0.0
 11
107.76816485223694
 21
-129.8125
 31
0.0
  0
LINE
  5
348
  8
MyLines
 10
107.76816485223694
 20
-129.8125
 30
0.0
 11
107.76816485223694
 21
-129.8125
 31
0.0
  0
LINE
  5
349
  8
MyLines
 10
107.76816485223694
 20
-129.8125
 30
0.0
 11
107.76816485223694
 21
-129.8125
 31
0.0
  0
LINE
  5
34A
  8
MyLines
 10
107.76816485223694
 20
-129.8125
 30
0.0
 11
107.76816485223694
 21
-129.8125
 31
0.0
  0
LINE
  5
34B
  8
MyLines
 10
107.76816485223694
 20
-129.8125
 30
0.0
 11
107.76816485223694
 21
-129.8125
 31
0.0
  0
LINE
  5
34C
  8
MyLines
 10
107.76816485223694
 20
-129.8125
 30
0.0
 11
107.76816485223694
 21
-129.8125
 31
0.0
  0
LINE
  5
34D
  8
MyLines
 10
107.76816485223694
 20
-129.8125
 30
0.0
 11
107.76816485223694
 21
-129.8125
 31
0.0
  0
LINE
  5
34E
  8
MyLines
 10
107.76816485223694
 20
-129.8125
 30
0.0
 11
107.76816485223694
 21
-129.8125
 31
0.0
  0
LINE
  5
34F
  8
MyLines
 10
107.76816485223694
 20
-129.8125
 30
0.0
 11
107.76816485223694
 21
-129.8125
 31
0.0
  0
LINE
  5
350
  8
MyLines
 10
107.76816485223694
 20
-129.8125
 30
0.0
 11
107.76816485223694
 21
-129.8125
 31
0.0
  0
LINE
  5
351
  8
MyLines
 10
107.76816485223694
 20
-129.8125
 30
0.0
 11
107.76816485223694
 21
-129.8125
 31
0.0
  0
LINE
  5
352
  8
MyLines
 10
107.76816485223694
 20
-129.8125
 30
0.0
 11
107.76816485223694
 21
-129.8125
 31
0.0
  0
LINE
  5
353
  8
MyLines
 10
107.76816485223694
 20
-129.8125
 30
0.0
 11
107.76816485223694
 21
-129.8125
 31
0.0
  0
LINE
  5
354
  8
MyLines
 10
107.76816485223694
 20
-129.8125
 30
0.0
 11
107.76816485223694
 21
-129.8125
 31
0.0
  0
LINE
  5
355
  8
MyLines
 10
107.76816485223694
 20
-129.8125
 30
0.0
 11
107.76816485223694
 21
-129.8125
 31
0.0
  0
LINE
  5
356
  8
MyLines
 10
107.76816485223694
 20
-129.8125
 30
0.0
 11
107.76816485223694
 21
-129.8125
 31
0.0
  0
LINE
  5
357
  8
MyLines
 10
107.76816485223694
 20
-129.8125
 30
0.0
 11
107.76816485223694
 21
-129.8125
 31
0.0
  0
LINE
  5
358
  8
MyLines
 10
107.76816485223694
 20
-129.8125
 30
0.0
 11
107.76816485223694
 21
-129.8125
 31
0.0
  0
LINE
  5
359
  8
MyLines
 10
107.76816485223694
 20
-129.8125
 30
0.0
 11
107.76816485223694
 21
-129.8125
 31
0.0
  0
LINE
  5
35A
  8
MyLines
 10
107.76816485223694
 20
-129.8125
 30
0.0
 11
107.76816485223694
 21
-129.8125
 31
0.0
  0
LINE
  5
35B
  8
MyLines
 10
107.76816485223694
 20
-129.8125
 30
0.0
 11
107.76816485223694
 21
-129.8125
 31
0.0
  0
LINE
  5
35C
  8
MyLines
 10
107.76816485223694
 20
-129.8125
 30
0.0
 11
107.76816485223694
 21
-129.8125
 31
0.0
  0
LINE
  5
35D
  8
MyLines
 10
107.76816485223694
 20
-129.8125
 30
0.0
 11
107.76816485223694
 21
-129.8125
 31
0.0
  0
LINE
  5
35E
  8
MyLines
 10
107.76816485223694
 20
-129.8125
 30
0.0
 11
107.76816485223694
 21
-129.8125
 31
0.0
  0
LINE
  5
35F
  8
MyLines
 10
107.76816485223694
 20
-129.8125
 30
0.0
 11
107.76816485223694
 21
-129.8125
 31
0.0
  0
LINE
  5
360
  8
MyLines
 10
107.76816485223694
 20
-129.8125
 30
0.0
 11
107.76816485223694
 21
-129.8125
 31
0.0
  0
LINE
  5
361
  8
MyLines
 10
107.76816485223694
 20
-129.8125
 30
0.0
 11
107.76816485223694
 21
-129.8125
 31
0.0
  0
LINE
  5
362
  8
MyLines
 10
107.76816485223694
 20
-129.8125
 30
0.0
 11
107.76816485223694
 21
-129.8125
 31
0.0
  0
LINE
  5
363
  8
MyLines
 10
107.76816485223694
 20
-129.8125
 30
0.0
 11
107.76816485223694
 21
-129.8125
 31
0.0
  0
LINE
  5
364
  8
MyLines
 10
107.76816485223694
 20
-129.8125
 30
0.0
 11
107.76816485223694
 21
-129.8125
 31
0.0
  0
LINE
  5
365
  8
MyLines
 10
107.76816485223694
 20
-129.8125
 30
0.0
 11
107.76816485223694
 21
-129.8125
 31
0.0
  0
ENDSEC
  0
EOF
