  0
SECTION
  2
HEADER
  9
$ACADVER
  1
AC1009
  9
$DWGCODEPAGE
  3
ANSI_1252
  9
$INSBASE
 10
0.0
 20
0.0
 30
0.0
  9
$EXTMIN
 10
1e+20
 20
1e+20
 30
1e+20
  9
$EXTMAX
 10
-1e+20
 20
-1e+20
 30
-1e+20
  9
$LIMMIN
 10
0.0
 20
0.0
  9
$LIMMAX
 10
420.0
 20
297.0
  9
$ORTHOMODE
 70
0
  9
$REGENMODE
 70
1
  9
$FILLMODE
 70
1
  9
$DRAGMODE
 70
2
  9
$QTEXTMODE
 70
0
  9
$MIRRTEXT
 70
1
  9
$OSMODE
 70
20583
  9
$LTSCALE
 40
1.0
  9
$ATTMODE
 70
1
  9
$TEXTSIZE
 40
2.5
  9
$TRACEWID
 40
1.0
  9
$TEXTSTYLE
  7
Standard
  9
$CLAYER
  8
0
  9
$CELTYPE
  6
ByLayer
  9
$CECOLOR
 62
256
  9
$DIMSCALE
 40
1.0
  9
$DIMASZ
 40
2.5
  9
$DIMEXO
 40
0.625
  9
$DIMDLI
 40
3.75
  9
$DIMRND
 40
0.0
  9
$DIMDLE
 40
0.0
  9
$DIMEXE
 40
1.25
  9
$DIMTP
 40
0.0
  9
$DIMTM
 40
0.0
  9
$DIMTXT
 40
2.5
  9
$DIMCEN
 40
2.5
  9
$DIMTSZ
 40
0.0
  9
$DIMTOL
 70
0
  9
$DIMLIM
 70
0
  9
$DIMTIH
 70
0
  9
$DIMTOH
 70
0
  9
$DIMSE1
 70
0
  9
$DIMSE2
 70
0
  9
$DIMTAD
 70
1
  9
$DIMZIN
 70
8
  9
$DIMBLK
  1

  9
$DIMASO
 70
1
  9
$DIMSHO
 70
1
  9
$DIMPOST
  1

  9
$DIMAPOST
  1

  9
$DIMALT
 70
0
  9
$DIMALTD
 70
3
  9
$DIMALTF
 40
0.03937007874
  9
$DIMLFAC
 40
1.0
  9
$DIMTOFL
 70
1
  9
$DIMTVP
 40
0.0
  9
$DIMTIX
 70
0
  9
$DIMSOXD
 70
0
  9
$DIMSAH
 70
0
  9
$DIMBLK1
  1

  9
$DIMBLK2
  1

  9
$DIMSTYLE
  2
ISO-25
  9
$DIMCLRD
 70
0
  9
$DIMCLRE
 70
0
  9
$DIMCLRT
 70
0
  9
$DIMTFAC
 40
1.0
  9
$DIMGAP
 40
0.625
  9
$COORDS
 70
1
  9
$ATTDIA
 70
0
  9
$ATTREQ
 70
1
  9
$HANDLING
 70
1
  9
$LUNITS
 70
2
  9
$LUPREC
 70
4
  9
$SKETCHINC
 40
1.0
  9
$FILLETRAD
 40
10.0
  9
$AUNITS
 70
0
  9
$AUPREC
 70
2
  9
$MENU
  1
.
  9
$ELEVATION
 40
0.0
  9
$PELEVATION
 40
0.0
  9
$THICKNESS
 40
0.0
  9
$LIMCHECK
 70
0
  9
$CHAMFERA
 40
0.0
  9
$CHAMFERB
 40
0.0
  9
$SKPOLY
 70
0
  9
$TDCREATE
 40
2459340.736284722
  9
$TDUPDATE
 40
2459340.736284722
  9
$TDINDWG
 40
0.0
  9
$TDUSRTIMER
 40
0.0
  9
$USRTIMER
 70
1
  9
$ANGBASE
 50
0.0
  9
$ANGDIR
 70
0
  9
$PDMODE
 70
0
  9
$PDSIZE
 40
0.0
  9
$PLINEWID
 40
0.0
  9
$SPLFRAME
 70
0
  9
$SPLINETYPE
 70
6
  9
$SPLINESEGS
 70
8
  9
$HANDSEED
  5
398
  9
$SURFTAB1
 70
6
  9
$SURFTAB2
 70
6
  9
$SURFTYPE
 70
6
  9
$SURFU
 70
6
  9
$SURFV
 70
6
  9
$UCSNAME
  2

  9
$UCSORG
 10
0.0
 20
0.0
 30
0.0
  9
$UCSXDIR
 10
1.0
 20
0.0
 30
0.0
  9
$UCSYDIR
 10
0.0
 20
1.0
 30
0.0
  9
$PUCSNAME
  2

  9
$PUCSORG
 10
0.0
 20
0.0
 30
0.0
  9
$PUCSXDIR
 10
1.0
 20
0.0
 30
0.0
  9
$PUCSYDIR
 10
0.0
 20
1.0
 30
0.0
  9
$USERI1
 70
0
  9
$USERI2
 70
0
  9
$USERI3
 70
0
  9
$USERI4
 70
0
  9
$USERI5
 70
0
  9
$USERR1
 40
0.0
  9
$USERR2
 40
0.0
  9
$USERR3
 40
0.0
  9
$USERR4
 40
0.0
  9
$USERR5
 40
0.0
  9
$WORLDVIEW
 70
1
  9
$SHADEDGE
 70
3
  9
$SHADEDIF
 70
70
  9
$TILEMODE
 70
1
  9
$MAXACTVP
 70
64
  9
$PLIMCHECK
 70
0
  9
$PEXTMIN
 10
1e+20
 20
1e+20
 30
1e+20
  9
$PEXTMAX
 10
-1e+20
 20
-1e+20
 30
-1e+20
  9
$PLIMMIN
 10
0.0
 20
0.0
  9
$PLIMMAX
 10
420.0
 20
297.0
  9
$UNITMODE
 70
0
  9
$VISRETAIN
 70
1
  9
$PLINEGEN
 70
0
  9
$PSLTSCALE
 70
1
  0
ENDSEC
  0
SECTION
  2
TABLES
  0
TABLE
  2
VPORT
 70
1
  0
VPORT
  5
23
  2
*Active
 70
0
 10
0.0
 20
0.0
 11
1.0
 21
1.0
 12
344.2
 22
148.5
 13
0.0
 23
0.0
 14
0.5
 24
0.5
 15
0.5
 25
0.5
 16
0.0
 26
0.0
 36
1.0
 17
0.0
 27
0.0
 37
0.0
 40
297.0
 41
1.34
 42
50.0
 43
0.0
 44
0.0
 50
0.0
 51
0.0
 71
0
 72
1000
 73
1
 74
3
 75
0
 76
0
 77
0
 78
0
  0
ENDTAB
  0
TABLE
  2
LTYPE
 70
3
  0
LTYPE
  5
24
  2
ByBlock
 70
0
  3

 72
65
 73
0
 40
0.0
  0
LTYPE
  5
25
  2
ByLayer
 70
0
  3

 72
65
 73
0
 40
0.0
  0
LTYPE
  5
26
  2
Continuous
 70
0
  3

 72
65
 73
0
 40
0.0
  0
ENDTAB
  0
TABLE
  2
LAYER
 70
3
  0
LAYER
  5
27
  2
0
 70
0
 62
7
  6
Continuous
  0
LAYER
  5
28
  2
Defpoints
 70
0
 62
7
  6
Continuous
  0
LAYER
  5
2D
  2
MyLines
 70
0
 62
7
  6
DASHED
  0
ENDTAB
  0
TABLE
  2
STYLE
 70
1
  0
STYLE
  5
29
  2
Standard
 70
0
 40
0.0
 41
1.0
 50
0.0
 71
0
 42
2.5
  3
txt
  4

  0
ENDTAB
  0
TABLE
  2
VIEW
 70
0
  0
ENDTAB
  0
TABLE
  2
UCS
 70
0
  0
ENDTAB
  0
TABLE
  2
APPID
 70
2
  0
APPID
  5
2A
  2
ACAD
 70
0
  0
APPID
  5
397
  2
HATCHBACKGROUNDCOLOR
 70
0
  0
ENDTAB
  0
TABLE
  2
DIMSTYLE
 70
1
  0
DIMSTYLE
105
2B
  2
Standard
 70
0
  3

  4

  5

  6

  7

 40
1.0
 41
2.5
 42
0.625
 43
3.75
 44
1.25
 45
0.0
 46
0.0
 47
0.0
 48
0.0
140
2.5
141
2.5
142
0.0
143
0.03937007874
144
1.0
145
0.0
146
1.0
147
0.625
 71
0
 72
0
 73
0
 74
0
 75
0
 76
0
 77
1
 78
8
170
0
171
3
172
1
173
0
174
0
175
0
176
0
177
0
178
0
  0
ENDTAB
  0
ENDSEC
  0
SECTION
  2
BLOCKS
  0
BLOCK
  5
18
  8
0
  2
$Model_Space
 70
0
 10
0.0
 20
0.0
 30
0.0
  3
$Model_Space
  1

  0
ENDBLK
  5
19
  8
0
  0
BLOCK
  5
1C
  8
0
  2
$Paper_Space
 70
0
 10
0.0
 20
0.0
 30
0.0
  3
$Paper_Space
  1

  0
ENDBLK
  5
1D
  8
0
  0
ENDSEC
  0
SECTION
  2
ENTITIES
  0
LINE
  5
2E
  8
MyLines
 10
107.76816485223694
 20
-161.5625
 30
0.0
 11
110.61727041767897
 21
-161.5625
 31
0.0
  0
LINE
  5
2F
  8
MyLines
 10
110.61727041767897
 20
-161.5625
 30
0.0
 11
113.46637598312101
 21
-161.5625
 31
0.0
  0
LINE
  5
30
  8
MyLines
 10
113.46637598312101
 20
-161.5625
 30
0.0
 11
116.31548154856304
 21
-161.5625
 31
0.0
  0
LINE
  5
31
  8
MyLines
 10
116.31548154856304
 20
-161.5625
 30
0.0
 11
119.16458711400507
 21
-161.5625
 31
0.0
  0
LINE
  5
32
  8
MyLines
 10
119.16458711400507
 20
-161.5625
 30
0.0
 11
122.01369267944712
 21
-161.5625
 31
0.0
  0
LINE
  5
33
  8
MyLines
 10
122.01369267944712
 20
-161.5625
 30
0.0
 11
124.86279824488915
 21
-161.5625
 31
0.0
  0
LINE
  5
34
  8
MyLines
 10
124.86279824488915
 20
-161.5625
 30
0.0
 11
127.71190381033118
 21
-161.5625
 31
0.0
  0
LINE
  5
35
  8
MyLines
 10
127.71190381033118
 20
-161.5625
 30
0.0
 11
130.56100937577324
 21
-161.5625
 31
0.0
  0
LINE
  5
36
  8
MyLines
 10
130.56100937577324
 20
-161.5625
 30
0.0
 11
133.41011494121526
 21
-161.5625
 31
0.0
  0
LINE
  5
37
  8
MyLines
 10
133.41011494121526
 20
-161.5625
 30
0.0
 11
136.25922050665733
 21
-161.5625
 31
0.0
  0
LINE
  5
38
  8
MyLines
 10
136.25922050665733
 20
-161.5625
 30
0.0
 11
139.10832607209932
 21
-161.5625
 31
0.0
  0
LINE
  5
39
  8
MyLines
 10
139.10832607209932
 20
-161.5625
 30
0.0
 11
141.9574316375414
 21
-161.5625
 31
0.0
  0
LINE
  5
3A
  8
MyLines
 10
141.9574316375414
 20
-161.5625
 30
0.0
 11
144.80653720298344
 21
-161.5625
 31
0.0
  0
LINE
  5
3B
  8
MyLines
 10
144.80653720298344
 20
-161.5625
 30
0.0
 11
147.65564276842545
 21
-161.5625
 31
0.0
  0
LINE
  5
3C
  8
MyLines
 10
147.65564276842545
 20
-161.5625
 30
0.0
 11
150.5047483338675
 21
-161.5625
 31
0.0
  0
LINE
  5
3D
  8
MyLines
 10
150.5047483338675
 20
-161.5625
 30
0.0
 11
153.35385389930954
 21
-161.5625
 31
0.0
  0
LINE
  5
3E
  8
MyLines
 10
153.35385389930954
 20
-161.5625
 30
0.0
 11
156.20295946475156
 21
-161.5625
 31
0.0
  0
LINE
  5
3F
  8
MyLines
 10
156.20295946475156
 20
-161.5625
 30
0.0
 11
159.0520650301936
 21
-161.5625
 31
0.0
  0
LINE
  5
40
  8
MyLines
 10
159.0520650301936
 20
-161.5625
 30
0.0
 11
161.90117059563565
 21
-161.5625
 31
0.0
  0
LINE
  5
41
  8
MyLines
 10
161.90117059563565
 20
-161.5625
 30
0.0
 11
164.7502761610777
 21
-161.5625
 31
0.0
  0
LINE
  5
42
  8
MyLines
 10
164.7502761610777
 20
-161.5625
 30
0.0
 11
167.59938172651974
 21
-161.5625
 31
0.0
  0
LINE
  5
43
  8
MyLines
 10
167.59938172651974
 20
-161.5625
 30
0.0
 11
170.44848729196175
 21
-161.5625
 31
0.0
  0
LINE
  5
44
  8
MyLines
 10
170.44848729196175
 20
-161.5625
 30
0.0
 11
173.29759285740383
 21
-161.5625
 31
0.0
  0
LINE
  5
45
  8
MyLines
 10
173.29759285740383
 20
-161.5625
 30
0.0
 11
176.14669842284584
 21
-161.5625
 31
0.0
  0
LINE
  5
46
  8
MyLines
 10
176.14669842284584
 20
-161.5625
 30
0.0
 11
178.9958039882879
 21
-161.5625
 31
0.0
  0
LINE
  5
47
  8
MyLines
 10
178.9958039882879
 20
-161.5625
 30
0.0
 11
181.84490955372993
 21
-161.5625
 31
0.0
  0
LINE
  5
48
  8
MyLines
 10
181.84490955372993
 20
-161.5625
 30
0.0
 11
184.69401511917195
 21
-161.5625
 31
0.0
  0
LINE
  5
49
  8
MyLines
 10
184.69401511917195
 20
-161.5625
 30
0.0
 11
187.543120684614
 21
-161.5625
 31
0.0
  0
LINE
  5
4A
  8
MyLines
 10
187.543120684614
 20
-161.5625
 30
0.0
 11
190.39222625005604
 21
-161.5625
 31
0.0
  0
LINE
  5
4B
  8
MyLines
 10
190.39222625005604
 20
-161.5625
 30
0.0
 11
193.24133181549806
 21
-161.5625
 31
0.0
  0
LINE
  5
4C
  8
MyLines
 10
193.24133181549806
 20
-161.5625
 30
0.0
 11
196.0904373809401
 21
-161.5625
 31
0.0
  0
LINE
  5
4D
  8
MyLines
 10
196.0904373809401
 20
-161.5625
 30
0.0
 11
198.93954294638215
 21
-161.5625
 31
0.0
  0
LINE
  5
4E
  8
MyLines
 10
198.93954294638215
 20
-161.5625
 30
0.0
 11
201.78864851182416
 21
-161.5625
 31
0.0
  0
LINE
  5
4F
  8
MyLines
 10
201.78864851182416
 20
-161.5625
 30
0.0
 11
204.6377540772662
 21
-161.5625
 31
0.0
  0
LINE
  5
50
  8
MyLines
 10
204.6377540772662
 20
-161.5625
 30
0.0
 11
207.48685964270825
 21
-161.5625
 31
0.0
  0
LINE
  5
51
  8
MyLines
 10
207.48685964270825
 20
-161.5625
 30
0.0
 11
210.3359652081503
 21
-161.5625
 31
0.0
  0
LINE
  5
52
  8
MyLines
 10
210.3359652081503
 20
-161.5625
 30
0.0
 11
213.18507077359234
 21
-161.5625
 31
0.0
  0
LINE
  5
53
  8
MyLines
 10
213.18507077359234
 20
-161.5625
 30
0.0
 11
216.0341763390344
 21
-161.5625
 31
0.0
  0
LINE
  5
54
  8
MyLines
 10
216.0341763390344
 20
-161.5625
 30
0.0
 11
218.8832819044764
 21
-161.5625
 31
0.0
  0
LINE
  5
55
  8
MyLines
 10
218.8832819044764
 20
-161.5625
 30
0.0
 11
221.73238746991845
 21
-161.5625
 31
0.0
  0
LINE
  5
56
  8
MyLines
 10
221.73238746991845
 20
-161.5625
 30
0.0
 11
224.5814930353605
 21
-161.5625
 31
0.0
  0
LINE
  5
57
  8
MyLines
 10
224.5814930353605
 20
-161.5625
 30
0.0
 11
227.4305986008025
 21
-161.5625
 31
0.0
  0
LINE
  5
58
  8
MyLines
 10
227.4305986008025
 20
-161.5625
 30
0.0
 11
230.27970416624456
 21
-161.5625
 31
0.0
  0
LINE
  5
59
  8
MyLines
 10
230.27970416624456
 20
-161.5625
 30
0.0
 11
233.1288097316866
 21
-161.5625
 31
0.0
  0
LINE
  5
5A
  8
MyLines
 10
233.1288097316866
 20
-161.5625
 30
0.0
 11
235.97791529712865
 21
-161.5625
 31
0.0
  0
LINE
  5
5B
  8
MyLines
 10
235.97791529712865
 20
-161.5625
 30
0.0
 11
238.8270208625707
 21
-161.5625
 31
0.0
  0
LINE
  5
5C
  8
MyLines
 10
238.8270208625707
 20
-161.5625
 30
0.0
 11
241.67612642801274
 21
-161.5625
 31
0.0
  0
LINE
  5
5D
  8
MyLines
 10
241.67612642801274
 20
-161.5625
 30
0.0
 11
244.52523199345478
 21
-161.5625
 31
0.0
  0
LINE
  5
5E
  8
MyLines
 10
244.52523199345478
 20
-161.5625
 30
0.0
 11
247.3743375588968
 21
-161.5625
 31
0.0
  0
LINE
  5
5F
  8
MyLines
 10
247.3743375588968
 20
-161.5625
 30
0.0
 11
247.3743375588968
 21
-161.5625
 31
0.0
  0
LINE
  5
60
  8
MyLines
 10
247.3743375588968
 20
-161.5625
 30
0.0
 11
247.3743375588968
 21
169.5
 31
0.0
  0
LINE
  5
61
  8
MyLines
 10
247.3743375588968
 20
169.5
 30
0.0
 11
247.3743375588968
 21
169.5
 31
0.0
  0
LINE
  5
62
  8
MyLines
 10
247.3743375588968
 20
169.5
 30
0.0
 11
245.4199210668174
 21
169.5
 31
0.0
  0
LINE
  5
63
  8
MyLines
 10
245.4199210668174
 20
169.5
 30
0.0
 11
243.46550457473805
 21
169.5
 31
0.0
  0
LINE
  5
64
  8
MyLines
 10
243.46550457473805
 20
169.5
 30
0.0
 11
241.51108808265863
 21
169.5
 31
0.0
  0
LINE
  5
65
  8
MyLines
 10
241.51108808265863
 20
169.5
 30
0.0
 11
239.55667159057927
 21
169.5
 31
0.0
  0
LINE
  5
66
  8
MyLines
 10
239.55667159057927
 20
169.5
 30
0.0
 11
237.60225509849988
 21
169.5
 31
0.0
  0
LINE
  5
67
  8
MyLines
 10
237.60225509849988
 20
169.5
 30
0.0
 11
235.6478386064205
 21
169.5
 31
0.0
  0
LINE
  5
68
  8
MyLines
 10
235.6478386064205
 20
169.5
 30
0.0
 11
233.6934221143411
 21
169.5
 31
0.0
  0
LINE
  5
69
  8
MyLines
 10
233.6934221143411
 20
169.5
 30
0.0
 11
231.73900562226171
 21
169.5
 31
0.0
  0
LINE
  5
6A
  8
MyLines
 10
231.73900562226171
 20
169.5
 30
0.0
 11
229.78458913018235
 21
169.5
 31
0.0
  0
LINE
  5
6B
  8
MyLines
 10
229.78458913018235
 20
169.5
 30
0.0
 11
227.83017263810297
 21
169.5
 31
0.0
  0
LINE
  5
6C
  8
MyLines
 10
227.83017263810297
 20
169.5
 30
0.0
 11
225.87575614602355
 21
169.5
 31
0.0
  0
LINE
  5
6D
  8
MyLines
 10
225.87575614602355
 20
169.5
 30
0.0
 11
223.9213396539442
 21
169.5
 31
0.0
  0
LINE
  5
6E
  8
MyLines
 10
223.9213396539442
 20
169.5
 30
0.0
 11
221.9669231618648
 21
169.5
 31
0.0
  0
LINE
  5
6F
  8
MyLines
 10
221.9669231618648
 20
169.5
 30
0.0
 11
220.01250666978544
 21
169.5
 31
0.0
  0
LINE
  5
70
  8
MyLines
 10
220.01250666978544
 20
169.5
 30
0.0
 11
218.05809017770602
 21
169.5
 31
0.0
  0
LINE
  5
71
  8
MyLines
 10
218.05809017770602
 20
169.5
 30
0.0
 11
216.10367368562663
 21
169.5
 31
0.0
  0
LINE
  5
72
  8
MyLines
 10
216.10367368562663
 20
169.5
 30
0.0
 11
214.14925719354727
 21
169.5
 31
0.0
  0
LINE
  5
73
  8
MyLines
 10
214.14925719354727
 20
169.5
 30
0.0
 11
212.19484070146788
 21
169.5
 31
0.0
  0
LINE
  5
74
  8
MyLines
 10
212.19484070146788
 20
169.5
 30
0.0
 11
210.24042420938846
 21
169.5
 31
0.0
  0
LINE
  5
75
  8
MyLines
 10
210.24042420938846
 20
169.5
 30
0.0
 11
208.2860077173091
 21
169.5
 31
0.0
  0
LINE
  5
76
  8
MyLines
 10
208.2860077173091
 20
169.5
 30
0.0
 11
206.33159122522972
 21
169.5
 31
0.0
  0
LINE
  5
77
  8
MyLines
 10
206.33159122522972
 20
169.5
 30
0.0
 11
204.37717473315033
 21
169.5
 31
0.0
  0
LINE
  5
78
  8
MyLines
 10
204.37717473315033
 20
169.5
 30
0.0
 11
202.42275824107094
 21
169.5
 31
0.0
  0
LINE
  5
79
  8
MyLines
 10
202.42275824107094
 20
169.5
 30
0.0
 11
200.46834174899158
 21
169.5
 31
0.0
  0
LINE
  5
7A
  8
MyLines
 10
200.46834174899158
 20
169.5
 30
0.0
 11
198.5139252569122
 21
169.5
 31
0.0
  0
LINE
  5
7B
  8
MyLines
 10
198.5139252569122
 20
169.5
 30
0.0
 11
196.55950876483277
 21
169.5
 31
0.0
  0
LINE
  5
7C
  8
MyLines
 10
196.55950876483277
 20
169.5
 30
0.0
 11
194.6050922727534
 21
169.5
 31
0.0
  0
LINE
  5
7D
  8
MyLines
 10
194.6050922727534
 20
169.5
 30
0.0
 11
192.65067578067402
 21
169.5
 31
0.0
  0
LINE
  5
7E
  8
MyLines
 10
192.65067578067402
 20
169.5
 30
0.0
 11
190.69625928859463
 21
169.5
 31
0.0
  0
LINE
  5
7F
  8
MyLines
 10
190.69625928859463
 20
169.5
 30
0.0
 11
188.74184279651524
 21
169.5
 31
0.0
  0
LINE
  5
80
  8
MyLines
 10
188.74184279651524
 20
169.5
 30
0.0
 11
186.78742630443585
 21
169.5
 31
0.0
  0
LINE
  5
81
  8
MyLines
 10
186.78742630443585
 20
169.5
 30
0.0
 11
184.8330098123565
 21
169.5
 31
0.0
  0
LINE
  5
82
  8
MyLines
 10
184.8330098123565
 20
169.5
 30
0.0
 11
182.8785933202771
 21
169.5
 31
0.0
  0
LINE
  5
83
  8
MyLines
 10
182.8785933202771
 20
169.5
 30
0.0
 11
180.92417682819772
 21
169.5
 31
0.0
  0
LINE
  5
84
  8
MyLines
 10
180.92417682819772
 20
169.5
 30
0.0
 11
178.96976033611833
 21
169.5
 31
0.0
  0
LINE
  5
85
  8
MyLines
 10
178.96976033611833
 20
169.5
 30
0.0
 11
177.01534384403894
 21
169.5
 31
0.0
  0
LINE
  5
86
  8
MyLines
 10
177.01534384403894
 20
169.5
 30
0.0
 11
175.06092735195958
 21
169.5
 31
0.0
  0
LINE
  5
87
  8
MyLines
 10
175.06092735195958
 20
169.5
 30
0.0
 11
173.10651085988016
 21
169.5
 31
0.0
  0
LINE
  5
88
  8
MyLines
 10
173.10651085988016
 20
169.5
 30
0.0
 11
171.15209436780077
 21
169.5
 31
0.0
  0
LINE
  5
89
  8
MyLines
 10
171.15209436780077
 20
169.5
 30
0.0
 11
169.1976778757214
 21
169.5
 31
0.0
  0
LINE
  5
8A
  8
MyLines
 10
169.1976778757214
 20
169.5
 30
0.0
 11
167.24326138364205
 21
169.5
 31
0.0
  0
LINE
  5
8B
  8
MyLines
 10
167.24326138364205
 20
169.5
 30
0.0
 11
165.2888448915626
 21
169.5
 31
0.0
  0
LINE
  5
8C
  8
MyLines
 10
165.2888448915626
 20
169.5
 30
0.0
 11
163.33442839948324
 21
169.5
 31
0.0
  0
LINE
  5
8D
  8
MyLines
 10
163.33442839948324
 20
169.5
 30
0.0
 11
161.38001190740388
 21
169.5
 31
0.0
  0
LINE
  5
8E
  8
MyLines
 10
161.38001190740388
 20
169.5
 30
0.0
 11
159.42559541532447
 21
169.5
 31
0.0
  0
LINE
  5
8F
  8
MyLines
 10
159.42559541532447
 20
169.5
 30
0.0
 11
157.47117892324508
 21
169.5
 31
0.0
  0
LINE
  5
90
  8
MyLines
 10
157.47117892324508
 20
169.5
 30
0.0
 11
155.51676243116572
 21
169.5
 31
0.0
  0
LINE
  5
91
  8
MyLines
 10
155.51676243116572
 20
169.5
 30
0.0
 11
153.56234593908633
 21
169.5
 31
0.0
  0
LINE
  5
92
  8
MyLines
 10
153.56234593908633
 20
169.5
 30
0.0
 11
151.6079294470069
 21
169.5
 31
0.0
  0
LINE
  5
93
  8
MyLines
 10
151.6079294470069
 20
169.5
 30
0.0
 11
151.6079294470069
 21
-157.59375
 31
0.0
  0
LINE
  5
94
  8
MyLines
 10
151.6079294470069
 20
-157.59375
 30
0.0
 11
151.6079294470069
 21
-157.59375
 31
0.0
  0
LINE
  5
95
  8
MyLines
 10
151.6079294470069
 20
-157.59375
 30
0.0
 11
153.48048269316018
 21
-157.59375
 31
0.0
  0
LINE
  5
96
  8
MyLines
 10
153.48048269316018
 20
-157.59375
 30
0.0
 11
155.35303593931343
 21
-157.59375
 31
0.0
  0
LINE
  5
97
  8
MyLines
 10
155.35303593931343
 20
-157.59375
 30
0.0
 11
157.2255891854667
 21
-157.59375
 31
0.0
  0
LINE
  5
98
  8
MyLines
 10
157.2255891854667
 20
-157.59375
 30
0.0
 11
159.09814243161995
 21
-157.59375
 31
0.0
  0
LINE
  5
99
  8
MyLines
 10
159.09814243161995
 20
-157.59375
 30
0.0
 11
160.9706956777732
 21
-157.59375
 31
0.0
  0
LINE
  5
9A
  8
MyLines
 10
160.9706956777732
 20
-157.59375
 30
0.0
 11
162.84324892392644
 21
-157.59375
 31
0.0
  0
LINE
  5
9B
  8
MyLines
 10
162.84324892392644
 20
-157.59375
 30
0.0
 11
164.7158021700797
 21
-157.59375
 31
0.0
  0
LINE
  5
9C
  8
MyLines
 10
164.7158021700797
 20
-157.59375
 30
0.0
 11
166.58835541623296
 21
-157.59375
 31
0.0
  0
LINE
  5
9D
  8
MyLines
 10
166.58835541623296
 20
-157.59375
 30
0.0
 11
168.46090866238623
 21
-157.59375
 31
0.0
  0
LINE
  5
9E
  8
MyLines
 10
168.46090866238623
 20
-157.59375
 30
0.0
 11
170.33346190853945
 21
-157.59375
 31
0.0
  0
LINE
  5
9F
  8
MyLines
 10
170.33346190853945
 20
-157.59375
 30
0.0
 11
172.2060151546927
 21
-157.59375
 31
0.0
  0
LINE
  5
A0
  8
MyLines
 10
172.2060151546927
 20
-157.59375
 30
0.0
 11
174.07856840084594
 21
-157.59375
 31
0.0
  0
LINE
  5
A1
  8
MyLines
 10
174.07856840084594
 20
-157.59375
 30
0.0
 11
175.9511216469992
 21
-157.59375
 31
0.0
  0
LINE
  5
A2
  8
MyLines
 10
175.9511216469992
 20
-157.59375
 30
0.0
 11
177.82367489315246
 21
-157.59375
 31
0.0
  0
LINE
  5
A3
  8
MyLines
 10
177.82367489315246
 20
-157.59375
 30
0.0
 11
179.69622813930573
 21
-157.59375
 31
0.0
  0
LINE
  5
A4
  8
MyLines
 10
179.69622813930573
 20
-157.59375
 30
0.0
 11
181.56878138545898
 21
-157.59375
 31
0.0
  0
LINE
  5
A5
  8
MyLines
 10
181.56878138545898
 20
-157.59375
 30
0.0
 11
183.44133463161222
 21
-157.59375
 31
0.0
  0
LINE
  5
A6
  8
MyLines
 10
183.44133463161222
 20
-157.59375
 30
0.0
 11
185.31388787776547
 21
-157.59375
 31
0.0
  0
LINE
  5
A7
  8
MyLines
 10
185.31388787776547
 20
-157.59375
 30
0.0
 11
187.18644112391874
 21
-157.59375
 31
0.0
  0
LINE
  5
A8
  8
MyLines
 10
187.18644112391874
 20
-157.59375
 30
0.0
 11
189.05899437007196
 21
-157.59375
 31
0.0
  0
LINE
  5
A9
  8
MyLines
 10
189.05899437007196
 20
-157.59375
 30
0.0
 11
190.93154761622523
 21
-157.59375
 31
0.0
  0
LINE
  5
AA
  8
MyLines
 10
190.93154761622523
 20
-157.59375
 30
0.0
 11
192.80410086237848
 21
-157.59375
 31
0.0
  0
LINE
  5
AB
  8
MyLines
 10
192.80410086237848
 20
-157.59375
 30
0.0
 11
194.67665410853172
 21
-157.59375
 31
0.0
  0
LINE
  5
AC
  8
MyLines
 10
194.67665410853172
 20
-157.59375
 30
0.0
 11
196.54920735468497
 21
-157.59375
 31
0.0
  0
LINE
  5
AD
  8
MyLines
 10
196.54920735468497
 20
-157.59375
 30
0.0
 11
198.42176060083824
 21
-157.59375
 31
0.0
  0
LINE
  5
AE
  8
MyLines
 10
198.42176060083824
 20
-157.59375
 30
0.0
 11
200.29431384699149
 21
-157.59375
 31
0.0
  0
LINE
  5
AF
  8
MyLines
 10
200.29431384699149
 20
-157.59375
 30
0.0
 11
202.16686709314476
 21
-157.59375
 31
0.0
  0
LINE
  5
B0
  8
MyLines
 10
202.16686709314476
 20
-157.59375
 30
0.0
 11
204.039420339298
 21
-157.59375
 31
0.0
  0
LINE
  5
B1
  8
MyLines
 10
204.039420339298
 20
-157.59375
 30
0.0
 11
205.91197358545125
 21
-157.59375
 31
0.0
  0
LINE
  5
B2
  8
MyLines
 10
205.91197358545125
 20
-157.59375
 30
0.0
 11
207.7845268316045
 21
-157.59375
 31
0.0
  0
LINE
  5
B3
  8
MyLines
 10
207.7845268316045
 20
-157.59375
 30
0.0
 11
209.65708007775774
 21
-157.59375
 31
0.0
  0
LINE
  5
B4
  8
MyLines
 10
209.65708007775774
 20
-157.59375
 30
0.0
 11
211.52963332391099
 21
-157.59375
 31
0.0
  0
LINE
  5
B5
  8
MyLines
 10
211.52963332391099
 20
-157.59375
 30
0.0
 11
213.40218657006426
 21
-157.59375
 31
0.0
  0
LINE
  5
B6
  8
MyLines
 10
213.40218657006426
 20
-157.59375
 30
0.0
 11
215.2747398162175
 21
-157.59375
 31
0.0
  0
LINE
  5
B7
  8
MyLines
 10
215.2747398162175
 20
-157.59375
 30
0.0
 11
217.14729306237075
 21
-157.59375
 31
0.0
  0
LINE
  5
B8
  8
MyLines
 10
217.14729306237075
 20
-157.59375
 30
0.0
 11
219.019846308524
 21
-157.59375
 31
0.0
  0
LINE
  5
B9
  8
MyLines
 10
219.019846308524
 20
-157.59375
 30
0.0
 11
220.89239955467727
 21
-157.59375
 31
0.0
  0
LINE
  5
BA
  8
MyLines
 10
220.89239955467727
 20
-157.59375
 30
0.0
 11
222.76495280083054
 21
-157.59375
 31
0.0
  0
LINE
  5
BB
  8
MyLines
 10
222.76495280083054
 20
-157.59375
 30
0.0
 11
224.6375060469838
 21
-157.59375
 31
0.0
  0
LINE
  5
BC
  8
MyLines
 10
224.6375060469838
 20
-157.59375
 30
0.0
 11
226.51005929313703
 21
-157.59375
 31
0.0
  0
LINE
  5
BD
  8
MyLines
 10
226.51005929313703
 20
-157.59375
 30
0.0
 11
228.38261253929025
 21
-157.59375
 31
0.0
  0
LINE
  5
BE
  8
MyLines
 10
228.38261253929025
 20
-157.59375
 30
0.0
 11
230.2551657854435
 21
-157.59375
 31
0.0
  0
LINE
  5
BF
  8
MyLines
 10
230.2551657854435
 20
-157.59375
 30
0.0
 11
232.12771903159677
 21
-157.59375
 31
0.0
  0
LINE
  5
C0
  8
MyLines
 10
232.12771903159677
 20
-157.59375
 30
0.0
 11
234.00027227775004
 21
-157.59375
 31
0.0
  0
LINE
  5
C1
  8
MyLines
 10
234.00027227775004
 20
-157.59375
 30
0.0
 11
235.8728255239033
 21
-157.59375
 31
0.0
  0
LINE
  5
C2
  8
MyLines
 10
235.8728255239033
 20
-157.59375
 30
0.0
 11
237.74537877005653
 21
-157.59375
 31
0.0
  0
LINE
  5
C3
  8
MyLines
 10
237.74537877005653
 20
-157.59375
 30
0.0
 11
239.61793201620978
 21
-157.59375
 31
0.0
  0
LINE
  5
C4
  8
MyLines
 10
239.61793201620978
 20
-157.59375
 30
0.0
 11
241.49048526236302
 21
-157.59375
 31
0.0
  0
LINE
  5
C5
  8
MyLines
 10
241.49048526236302
 20
-157.59375
 30
0.0
 11
243.3630385085163
 21
-157.59375
 31
0.0
  0
LINE
  5
C6
  8
MyLines
 10
243.3630385085163
 20
-157.59375
 30
0.0
 11
243.3630385085163
 21
-157.59375
 31
0.0
  0
LINE
  5
C7
  8
MyLines
 10
243.3630385085163
 20
-157.59375
 30
0.0
 11
243.3630385085163
 21
165.53125
 31
0.0
  0
LINE
  5
C8
  8
MyLines
 10
243.3630385085163
 20
165.53125
 30
0.0
 11
243.3630385085163
 21
165.53125
 31
0.0
  0
LINE
  5
C9
  8
MyLines
 10
243.3630385085163
 20
165.53125
 30
0.0
 11
241.57234850828917
 21
165.53125
 31
0.0
  0
LINE
  5
CA
  8
MyLines
 10
241.57234850828917
 20
165.53125
 30
0.0
 11
239.78165850806207
 21
165.53125
 31
0.0
  0
LINE
  5
CB
  8
MyLines
 10
239.78165850806207
 20
165.53125
 30
0.0
 11
237.99096850783494
 21
165.53125
 31
0.0
  0
LINE
  5
CC
  8
MyLines
 10
237.99096850783494
 20
165.53125
 30
0.0
 11
236.20027850760783
 21
165.53125
 31
0.0
  0
LINE
  5
CD
  8
MyLines
 10
236.20027850760783
 20
165.53125
 30
0.0
 11
234.4095885073807
 21
165.53125
 31
0.0
  0
LINE
  5
CE
  8
MyLines
 10
234.4095885073807
 20
165.53125
 30
0.0
 11
232.61889850715355
 21
165.53125
 31
0.0
  0
LINE
  5
CF
  8
MyLines
 10
232.61889850715355
 20
165.53125
 30
0.0
 11
230.82820850692644
 21
165.53125
 31
0.0
  0
LINE
  5
D0
  8
MyLines
 10
230.82820850692644
 20
165.53125
 30
0.0
 11
229.0375185066993
 21
165.53125
 31
0.0
  0
LINE
  5
D1
  8
MyLines
 10
229.0375185066993
 20
165.53125
 30
0.0
 11
227.2468285064722
 21
165.53125
 31
0.0
  0
LINE
  5
D2
  8
MyLines
 10
227.2468285064722
 20
165.53125
 30
0.0
 11
225.45613850624508
 21
165.53125
 31
0.0
  0
LINE
  5
D3
  8
MyLines
 10
225.45613850624508
 20
165.53125
 30
0.0
 11
223.66544850601798
 21
165.53125
 31
0.0
  0
LINE
  5
D4
  8
MyLines
 10
223.66544850601798
 20
165.53125
 30
0.0
 11
221.87475850579085
 21
165.53125
 31
0.0
  0
LINE
  5
D5
  8
MyLines
 10
221.87475850579085
 20
165.53125
 30
0.0
 11
220.08406850556375
 21
165.53125
 31
0.0
  0
LINE
  5
D6
  8
MyLines
 10
220.08406850556375
 20
165.53125
 30
0.0
 11
218.29337850533662
 21
165.53125
 31
0.0
  0
LINE
  5
D7
  8
MyLines
 10
218.29337850533662
 20
165.53125
 30
0.0
 11
216.50268850510952
 21
165.53125
 31
0.0
  0
LINE
  5
D8
  8
MyLines
 10
216.50268850510952
 20
165.53125
 30
0.0
 11
214.7119985048824
 21
165.53125
 31
0.0
  0
LINE
  5
D9
  8
MyLines
 10
214.7119985048824
 20
165.53125
 30
0.0
 11
212.92130850465526
 21
165.53125
 31
0.0
  0
LINE
  5
DA
  8
MyLines
 10
212.92130850465526
 20
165.53125
 30
0.0
 11
211.13061850442816
 21
165.53125
 31
0.0
  0
LINE
  5
DB
  8
MyLines
 10
211.13061850442816
 20
165.53125
 30
0.0
 11
209.33992850420103
 21
165.53125
 31
0.0
  0
LINE
  5
DC
  8
MyLines
 10
209.33992850420103
 20
165.53125
 30
0.0
 11
207.54923850397392
 21
165.53125
 31
0.0
  0
LINE
  5
DD
  8
MyLines
 10
207.54923850397392
 20
165.53125
 30
0.0
 11
205.75854850374677
 21
165.53125
 31
0.0
  0
LINE
  5
DE
  8
MyLines
 10
205.75854850374677
 20
165.53125
 30
0.0
 11
203.96785850351966
 21
165.53125
 31
0.0
  0
LINE
  5
DF
  8
MyLines
 10
203.96785850351966
 20
165.53125
 30
0.0
 11
202.17716850329253
 21
165.53125
 31
0.0
  0
LINE
  5
E0
  8
MyLines
 10
202.17716850329253
 20
165.53125
 30
0.0
 11
200.38647850306543
 21
165.53125
 31
0.0
  0
LINE
  5
E1
  8
MyLines
 10
200.38647850306543
 20
165.53125
 30
0.0
 11
198.5957885028383
 21
165.53125
 31
0.0
  0
LINE
  5
E2
  8
MyLines
 10
198.5957885028383
 20
165.53125
 30
0.0
 11
196.80509850261117
 21
165.53125
 31
0.0
  0
LINE
  5
E3
  8
MyLines
 10
196.80509850261117
 20
165.53125
 30
0.0
 11
195.01440850238407
 21
165.53125
 31
0.0
  0
LINE
  5
E4
  8
MyLines
 10
195.01440850238407
 20
165.53125
 30
0.0
 11
193.22371850215694
 21
165.53125
 31
0.0
  0
LINE
  5
E5
  8
MyLines
 10
193.22371850215694
 20
165.53125
 30
0.0
 11
191.43302850192984
 21
165.53125
 31
0.0
  0
LINE
  5
E6
  8
MyLines
 10
191.43302850192984
 20
165.53125
 30
0.0
 11
189.6423385017027
 21
165.53125
 31
0.0
  0
LINE
  5
E7
  8
MyLines
 10
189.6423385017027
 20
165.53125
 30
0.0
 11
187.85164850147558
 21
165.53125
 31
0.0
  0
LINE
  5
E8
  8
MyLines
 10
187.85164850147558
 20
165.53125
 30
0.0
 11
186.06095850124845
 21
165.53125
 31
0.0
  0
LINE
  5
E9
  8
MyLines
 10
186.06095850124845
 20
165.53125
 30
0.0
 11
184.27026850102135
 21
165.53125
 31
0.0
  0
LINE
  5
EA
  8
MyLines
 10
184.27026850102135
 20
165.53125
 30
0.0
 11
182.47957850079422
 21
165.53125
 31
0.0
  0
LINE
  5
EB
  8
MyLines
 10
182.47957850079422
 20
165.53125
 30
0.0
 11
180.68888850056712
 21
165.53125
 31
0.0
  0
LINE
  5
EC
  8
MyLines
 10
180.68888850056712
 20
165.53125
 30
0.0
 11
178.89819850034
 21
165.53125
 31
0.0
  0
LINE
  5
ED
  8
MyLines
 10
178.89819850034
 20
165.53125
 30
0.0
 11
177.10750850011286
 21
165.53125
 31
0.0
  0
LINE
  5
EE
  8
MyLines
 10
177.10750850011286
 20
165.53125
 30
0.0
 11
175.31681849988576
 21
165.53125
 31
0.0
  0
LINE
  5
EF
  8
MyLines
 10
175.31681849988576
 20
165.53125
 30
0.0
 11
173.52612849965863
 21
165.53125
 31
0.0
  0
LINE
  5
F0
  8
MyLines
 10
173.52612849965863
 20
165.53125
 30
0.0
 11
171.73543849943152
 21
165.53125
 31
0.0
  0
LINE
  5
F1
  8
MyLines
 10
171.73543849943152
 20
165.53125
 30
0.0
 11
169.9447484992044
 21
165.53125
 31
0.0
  0
LINE
  5
F2
  8
MyLines
 10
169.9447484992044
 20
165.53125
 30
0.0
 11
168.1540584989773
 21
165.53125
 31
0.0
  0
LINE
  5
F3
  8
MyLines
 10
168.1540584989773
 20
165.53125
 30
0.0
 11
166.36336849875016
 21
165.53125
 31
0.0
  0
LINE
  5
F4
  8
MyLines
 10
166.36336849875016
 20
165.53125
 30
0.0
 11
164.57267849852306
 21
165.53125
 31
0.0
  0
LINE
  5
F5
  8
MyLines
 10
164.57267849852306
 20
165.53125
 30
0.0
 11
162.78198849829593
 21
165.53125
 31
0.0
  0
LINE
  5
F6
  8
MyLines
 10
162.78198849829593
 20
165.53125
 30
0.0
 11
160.99129849806883
 21
165.53125
 31
0.0
  0
LINE
  5
F7
  8
MyLines
 10
160.99129849806883
 20
165.53125
 30
0.0
 11
159.2006084978417
 21
165.53125
 31
0.0
  0
LINE
  5
F8
  8
MyLines
 10
159.2006084978417
 20
165.53125
 30
0.0
 11
157.40991849761454
 21
165.53125
 31
0.0
  0
LINE
  5
F9
  8
MyLines
 10
157.40991849761454
 20
165.53125
 30
0.0
 11
155.61922849738744
 21
165.53125
 31
0.0
  0
LINE
  5
FA
  8
MyLines
 10
155.61922849738744
 20
165.53125
 30
0.0
 11
155.61922849738744
 21
-153.625
 31
0.0
  0
LINE
  5
FB
  8
MyLines
 10
155.61922849738744
 20
-153.625
 30
0.0
 11
155.61922849738744
 21
-153.625
 31
0.0
  0
LINE
  5
FC
  8
MyLines
 10
155.61922849738744
 20
-153.625
 30
0.0
 11
157.3259854470977
 21
-153.625
 31
0.0
  0
LINE
  5
FD
  8
MyLines
 10
157.3259854470977
 20
-153.625
 30
0.0
 11
159.032742396808
 21
-153.625
 31
0.0
  0
LINE
  5
FE
  8
MyLines
 10
159.032742396808
 20
-153.625
 30
0.0
 11
160.73949934651827
 21
-153.625
 31
0.0
  0
LINE
  5
FF
  8
MyLines
 10
160.73949934651827
 20
-153.625
 30
0.0
 11
162.44625629622854
 21
-153.625
 31
0.0
  0
LINE
  5
100
  8
MyLines
 10
162.44625629622854
 20
-153.625
 30
0.0
 11
164.15301324593884
 21
-153.625
 31
0.0
  0
LINE
  5
101
  8
MyLines
 10
164.15301324593884
 20
-153.625
 30
0.0
 11
165.8597701956491
 21
-153.625
 31
0.0
  0
LINE
  5
102
  8
MyLines
 10
165.8597701956491
 20
-153.625
 30
0.0
 11
167.56652714535937
 21
-153.625
 31
0.0
  0
LINE
  5
103
  8
MyLines
 10
167.56652714535937
 20
-153.625
 30
0.0
 11
169.27328409506967
 21
-153.625
 31
0.0
  0
LINE
  5
104
  8
MyLines
 10
169.27328409506967
 20
-153.625
 30
0.0
 11
170.98004104477994
 21
-153.625
 31
0.0
  0
LINE
  5
105
  8
MyLines
 10
170.98004104477994
 20
-153.625
 30
0.0
 11
172.68679799449023
 21
-153.625
 31
0.0
  0
LINE
  5
106
  8
MyLines
 10
172.68679799449023
 20
-153.625
 30
0.0
 11
174.3935549442005
 21
-153.625
 31
0.0
  0
LINE
  5
107
  8
MyLines
 10
174.3935549442005
 20
-153.625
 30
0.0
 11
176.10031189391077
 21
-153.625
 31
0.0
  0
LINE
  5
108
  8
MyLines
 10
176.10031189391077
 20
-153.625
 30
0.0
 11
177.80706884362107
 21
-153.625
 31
0.0
  0
LINE
  5
109
  8
MyLines
 10
177.80706884362107
 20
-153.625
 30
0.0
 11
179.51382579333134
 21
-153.625
 31
0.0
  0
LINE
  5
10A
  8
MyLines
 10
179.51382579333134
 20
-153.625
 30
0.0
 11
181.2205827430416
 21
-153.625
 31
0.0
  0
LINE
  5
10B
  8
MyLines
 10
181.2205827430416
 20
-153.625
 30
0.0
 11
182.9273396927519
 21
-153.625
 31
0.0
  0
LINE
  5
10C
  8
MyLines
 10
182.9273396927519
 20
-153.625
 30
0.0
 11
184.63409664246217
 21
-153.625
 31
0.0
  0
LINE
  5
10D
  8
MyLines
 10
184.63409664246217
 20
-153.625
 30
0.0
 11
186.34085359217246
 21
-153.625
 31
0.0
  0
LINE
  5
10E
  8
MyLines
 10
186.34085359217246
 20
-153.625
 30
0.0
 11
188.04761054188273
 21
-153.625
 31
0.0
  0
LINE
  5
10F
  8
MyLines
 10
188.04761054188273
 20
-153.625
 30
0.0
 11
189.75436749159297
 21
-153.625
 31
0.0
  0
LINE
  5
110
  8
MyLines
 10
189.75436749159297
 20
-153.625
 30
0.0
 11
191.4611244413033
 21
-153.625
 31
0.0
  0
LINE
  5
111
  8
MyLines
 10
191.4611244413033
 20
-153.625
 30
0.0
 11
193.16788139101354
 21
-153.625
 31
0.0
  0
LINE
  5
112
  8
MyLines
 10
193.16788139101354
 20
-153.625
 30
0.0
 11
194.87463834072383
 21
-153.625
 31
0.0
  0
LINE
  5
113
  8
MyLines
 10
194.87463834072383
 20
-153.625
 30
0.0
 11
196.5813952904341
 21
-153.625
 31
0.0
  0
LINE
  5
114
  8
MyLines
 10
196.5813952904341
 20
-153.625
 30
0.0
 11
198.2881522401444
 21
-153.625
 31
0.0
  0
LINE
  5
115
  8
MyLines
 10
198.2881522401444
 20
-153.625
 30
0.0
 11
199.99490918985464
 21
-153.625
 31
0.0
  0
LINE
  5
116
  8
MyLines
 10
199.99490918985464
 20
-153.625
 30
0.0
 11
201.70166613956494
 21
-153.625
 31
0.0
  0
LINE
  5
117
  8
MyLines
 10
201.70166613956494
 20
-153.625
 30
0.0
 11
203.4084230892752
 21
-153.625
 31
0.0
  0
LINE
  5
118
  8
MyLines
 10
203.4084230892752
 20
-153.625
 30
0.0
 11
205.1151800389855
 21
-153.625
 31
0.0
  0
LINE
  5
119
  8
MyLines
 10
205.1151800389855
 20
-153.625
 30
0.0
 11
206.82193698869577
 21
-153.625
 31
0.0
  0
LINE
  5
11A
  8
MyLines
 10
206.82193698869577
 20
-153.625
 30
0.0
 11
208.52869393840604
 21
-153.625
 31
0.0
  0
LINE
  5
11B
  8
MyLines
 10
208.52869393840604
 20
-153.625
 30
0.0
 11
210.23545088811633
 21
-153.625
 31
0.0
  0
LINE
  5
11C
  8
MyLines
 10
210.23545088811633
 20
-153.625
 30
0.0
 11
211.9422078378266
 21
-153.625
 31
0.0
  0
LINE
  5
11D
  8
MyLines
 10
211.9422078378266
 20
-153.625
 30
0.0
 11
213.64896478753687
 21
-153.625
 31
0.0
  0
LINE
  5
11E
  8
MyLines
 10
213.64896478753687
 20
-153.625
 30
0.0
 11
215.35572173724717
 21
-153.625
 31
0.0
  0
LINE
  5
11F
  8
MyLines
 10
215.35572173724717
 20
-153.625
 30
0.0
 11
217.06247868695743
 21
-153.625
 31
0.0
  0
LINE
  5
120
  8
MyLines
 10
217.06247868695743
 20
-153.625
 30
0.0
 11
218.76923563666773
 21
-153.625
 31
0.0
  0
LINE
  5
121
  8
MyLines
 10
218.76923563666773
 20
-153.625
 30
0.0
 11
220.475992586378
 21
-153.625
 31
0.0
  0
LINE
  5
122
  8
MyLines
 10
220.475992586378
 20
-153.625
 30
0.0
 11
222.18274953608827
 21
-153.625
 31
0.0
  0
LINE
  5
123
  8
MyLines
 10
222.18274953608827
 20
-153.625
 30
0.0
 11
223.88950648579856
 21
-153.625
 31
0.0
  0
LINE
  5
124
  8
MyLines
 10
223.88950648579856
 20
-153.625
 30
0.0
 11
225.59626343550883
 21
-153.625
 31
0.0
  0
LINE
  5
125
  8
MyLines
 10
225.59626343550883
 20
-153.625
 30
0.0
 11
227.3030203852191
 21
-153.625
 31
0.0
  0
LINE
  5
126
  8
MyLines
 10
227.3030203852191
 20
-153.625
 30
0.0
 11
229.0097773349294
 21
-153.625
 31
0.0
  0
LINE
  5
127
  8
MyLines
 10
229.0097773349294
 20
-153.625
 30
0.0
 11
230.71653428463966
 21
-153.625
 31
0.0
  0
LINE
  5
128
  8
MyLines
 10
230.71653428463966
 20
-153.625
 30
0.0
 11
232.42329123434993
 21
-153.625
 31
0.0
  0
LINE
  5
129
  8
MyLines
 10
232.42329123434993
 20
-153.625
 30
0.0
 11
234.13004818406023
 21
-153.625
 31
0.0
  0
LINE
  5
12A
  8
MyLines
 10
234.13004818406023
 20
-153.625
 30
0.0
 11
235.8368051337705
 21
-153.625
 31
0.0
  0
LINE
  5
12B
  8
MyLines
 10
235.8368051337705
 20
-153.625
 30
0.0
 11
237.5435620834808
 21
-153.625
 31
0.0
  0
LINE
  5
12C
  8
MyLines
 10
237.5435620834808
 20
-153.625
 30
0.0
 11
239.25031903319106
 21
-153.625
 31
0.0
  0
LINE
  5
12D
  8
MyLines
 10
239.25031903319106
 20
-153.625
 30
0.0
 11
239.25031903319106
 21
-153.625
 31
0.0
  0
LINE
  5
12E
  8
MyLines
 10
239.25031903319106
 20
-153.625
 30
0.0
 11
239.25031903319106
 21
161.5625
 31
0.0
  0
LINE
  5
12F
  8
MyLines
 10
239.25031903319106
 20
161.5625
 30
0.0
 11
239.25031903319106
 21
161.5625
 31
0.0
  0
LINE
  5
130
  8
MyLines
 10
239.25031903319106
 20
161.5625
 30
0.0
 11
237.62749513399763
 21
161.5625
 31
0.0
  0
LINE
  5
131
  8
MyLines
 10
237.62749513399763
 20
161.5625
 30
0.0
 11
236.0046712348042
 21
161.5625
 31
0.0
  0
LINE
  5
132
  8
MyLines
 10
236.0046712348042
 20
161.5625
 30
0.0
 11
234.38184733561073
 21
161.5625
 31
0.0
  0
LINE
  5
133
  8
MyLines
 10
234.38184733561073
 20
161.5625
 30
0.0
 11
232.75902343641732
 21
161.5625
 31
0.0
  0
LINE
  5
134
  8
MyLines
 10
232.75902343641732
 20
161.5625
 30
0.0
 11
231.1361995372239
 21
161.5625
 31
0.0
  0
LINE
  5
135
  8
MyLines
 10
231.1361995372239
 20
161.5625
 30
0.0
 11
229.51337563803045
 21
161.5625
 31
0.0
  0
LINE
  5
136
  8
MyLines
 10
229.51337563803045
 20
161.5625
 30
0.0
 11
227.89055173883702
 21
161.5625
 31
0.0
  0
LINE
  5
137
  8
MyLines
 10
227.89055173883702
 20
161.5625
 30
0.0
 11
226.26772783964356
 21
161.5625
 31
0.0
  0
LINE
  5
138
  8
MyLines
 10
226.26772783964356
 20
161.5625
 30
0.0
 11
224.64490394045012
 21
161.5625
 31
0.0
  0
LINE
  5
139
  8
MyLines
 10
224.64490394045012
 20
161.5625
 30
0.0
 11
223.0220800412567
 21
161.5625
 31
0.0
  0
LINE
  5
13A
  8
MyLines
 10
223.0220800412567
 20
161.5625
 30
0.0
 11
221.39925614206325
 21
161.5625
 31
0.0
  0
LINE
  5
13B
  8
MyLines
 10
221.39925614206325
 20
161.5625
 30
0.0
 11
219.77643224286982
 21
161.5625
 31
0.0
  0
LINE
  5
13C
  8
MyLines
 10
219.77643224286982
 20
161.5625
 30
0.0
 11
218.15360834367638
 21
161.5625
 31
0.0
  0
LINE
  5
13D
  8
MyLines
 10
218.15360834367638
 20
161.5625
 30
0.0
 11
216.53078444448295
 21
161.5625
 31
0.0
  0
LINE
  5
13E
  8
MyLines
 10
216.53078444448295
 20
161.5625
 30
0.0
 11
214.9079605452895
 21
161.5625
 31
0.0
  0
LINE
  5
13F
  8
MyLines
 10
214.9079605452895
 20
161.5625
 30
0.0
 11
213.28513664609608
 21
161.5625
 31
0.0
  0
LINE
  5
140
  8
MyLines
 10
213.28513664609608
 20
161.5625
 30
0.0
 11
211.66231274690264
 21
161.5625
 31
0.0
  0
LINE
  5
141
  8
MyLines
 10
211.66231274690264
 20
161.5625
 30
0.0
 11
210.0394888477092
 21
161.5625
 31
0.0
  0
LINE
  5
142
  8
MyLines
 10
210.0394888477092
 20
161.5625
 30
0.0
 11
208.41666494851574
 21
161.5625
 31
0.0
  0
LINE
  5
143
  8
MyLines
 10
208.41666494851574
 20
161.5625
 30
0.0
 11
206.79384104932234
 21
161.5625
 31
0.0
  0
LINE
  5
144
  8
MyLines
 10
206.79384104932234
 20
161.5625
 30
0.0
 11
205.1710171501289
 21
161.5625
 31
0.0
  0
LINE
  5
145
  8
MyLines
 10
205.1710171501289
 20
161.5625
 30
0.0
 11
203.54819325093547
 21
161.5625
 31
0.0
  0
LINE
  5
146
  8
MyLines
 10
203.54819325093547
 20
161.5625
 30
0.0
 11
201.92536935174203
 21
161.5625
 31
0.0
  0
LINE
  5
147
  8
MyLines
 10
201.92536935174203
 20
161.5625
 30
0.0
 11
200.30254545254857
 21
161.5625
 31
0.0
  0
LINE
  5
148
  8
MyLines
 10
200.30254545254857
 20
161.5625
 30
0.0
 11
198.67972155335514
 21
161.5625
 31
0.0
  0
LINE
  5
149
  8
MyLines
 10
198.67972155335514
 20
161.5625
 30
0.0
 11
197.0568976541617
 21
161.5625
 31
0.0
  0
LINE
  5
14A
  8
MyLines
 10
197.0568976541617
 20
161.5625
 30
0.0
 11
195.43407375496827
 21
161.5625
 31
0.0
  0
LINE
  5
14B
  8
MyLines
 10
195.43407375496827
 20
161.5625
 30
0.0
 11
193.81124985577483
 21
161.5625
 31
0.0
  0
LINE
  5
14C
  8
MyLines
 10
193.81124985577483
 20
161.5625
 30
0.0
 11
192.18842595658137
 21
161.5625
 31
0.0
  0
LINE
  5
14D
  8
MyLines
 10
192.18842595658137
 20
161.5625
 30
0.0
 11
190.56560205738796
 21
161.5625
 31
0.0
  0
LINE
  5
14E
  8
MyLines
 10
190.56560205738796
 20
161.5625
 30
0.0
 11
188.94277815819453
 21
161.5625
 31
0.0
  0
LINE
  5
14F
  8
MyLines
 10
188.94277815819453
 20
161.5625
 30
0.0
 11
187.3199542590011
 21
161.5625
 31
0.0
  0
LINE
  5
150
  8
MyLines
 10
187.3199542590011
 20
161.5625
 30
0.0
 11
185.69713035980766
 21
161.5625
 31
0.0
  0
LINE
  5
151
  8
MyLines
 10
185.69713035980766
 20
161.5625
 30
0.0
 11
184.07430646061422
 21
161.5625
 31
0.0
  0
LINE
  5
152
  8
MyLines
 10
184.07430646061422
 20
161.5625
 30
0.0
 11
182.4514825614208
 21
161.5625
 31
0.0
  0
LINE
  5
153
  8
MyLines
 10
182.4514825614208
 20
161.5625
 30
0.0
 11
180.82865866222735
 21
161.5625
 31
0.0
  0
LINE
  5
154
  8
MyLines
 10
180.82865866222735
 20
161.5625
 30
0.0
 11
179.20583476303392
 21
161.5625
 31
0.0
  0
LINE
  5
155
  8
MyLines
 10
179.20583476303392
 20
161.5625
 30
0.0
 11
177.58301086384049
 21
161.5625
 31
0.0
  0
LINE
  5
156
  8
MyLines
 10
177.58301086384049
 20
161.5625
 30
0.0
 11
175.96018696464705
 21
161.5625
 31
0.0
  0
LINE
  5
157
  8
MyLines
 10
175.96018696464705
 20
161.5625
 30
0.0
 11
174.3373630654536
 21
161.5625
 31
0.0
  0
LINE
  5
158
  8
MyLines
 10
174.3373630654536
 20
161.5625
 30
0.0
 11
172.71453916626015
 21
161.5625
 31
0.0
  0
LINE
  5
159
  8
MyLines
 10
172.71453916626015
 20
161.5625
 30
0.0
 11
171.09171526706672
 21
161.5625
 31
0.0
  0
LINE
  5
15A
  8
MyLines
 10
171.09171526706672
 20
161.5625
 30
0.0
 11
169.46889136787328
 21
161.5625
 31
0.0
  0
LINE
  5
15B
  8
MyLines
 10
169.46889136787328
 20
161.5625
 30
0.0
 11
167.84606746867985
 21
161.5625
 31
0.0
  0
LINE
  5
15C
  8
MyLines
 10
167.84606746867985
 20
161.5625
 30
0.0
 11
166.22324356948639
 21
161.5625
 31
0.0
  0
LINE
  5
15D
  8
MyLines
 10
166.22324356948639
 20
161.5625
 30
0.0
 11
164.60041967029298
 21
161.5625
 31
0.0
  0
LINE
  5
15E
  8
MyLines
 10
164.60041967029298
 20
161.5625
 30
0.0
 11
162.97759577109954
 21
161.5625
 31
0.0
  0
LINE
  5
15F
  8
MyLines
 10
162.97759577109954
 20
161.5625
 30
0.0
 11
161.3547718719061
 21
161.5625
 31
0.0
  0
LINE
  5
160
  8
MyLines
 10
161.3547718719061
 20
161.5625
 30
0.0
 11
159.73194797271267
 21
161.5625
 31
0.0
  0
LINE
  5
161
  8
MyLines
 10
159.73194797271267
 20
161.5625
 30
0.0
 11
159.73194797271267
 21
-149.65625
 31
0.0
  0
LINE
  5
162
  8
MyLines
 10
159.73194797271267
 20
-149.65625
 30
0.0
 11
159.73194797271267
 21
-149.65625
 31
0.0
  0
LINE
  5
163
  8
MyLines
 10
159.73194797271267
 20
-149.65625
 30
0.0
 11
161.2669998002277
 21
-149.65625
 31
0.0
  0
LINE
  5
164
  8
MyLines
 10
161.2669998002277
 20
-149.65625
 30
0.0
 11
162.8020516277427
 21
-149.65625
 31
0.0
  0
LINE
  5
165
  8
MyLines
 10
162.8020516277427
 20
-149.65625
 30
0.0
 11
164.33710345525773
 21
-149.65625
 31
0.0
  0
LINE
  5
166
  8
MyLines
 10
164.33710345525773
 20
-149.65625
 30
0.0
 11
165.87215528277275
 21
-149.65625
 31
0.0
  0
LINE
  5
167
  8
MyLines
 10
165.87215528277275
 20
-149.65625
 30
0.0
 11
167.40720711028777
 21
-149.65625
 31
0.0
  0
LINE
  5
168
  8
MyLines
 10
167.40720711028777
 20
-149.65625
 30
0.0
 11
168.94225893780276
 21
-149.65625
 31
0.0
  0
LINE
  5
169
  8
MyLines
 10
168.94225893780276
 20
-149.65625
 30
0.0
 11
170.4773107653178
 21
-149.65625
 31
0.0
  0
LINE
  5
16A
  8
MyLines
 10
170.4773107653178
 20
-149.65625
 30
0.0
 11
172.0123625928328
 21
-149.65625
 31
0.0
  0
LINE
  5
16B
  8
MyLines
 10
172.0123625928328
 20
-149.65625
 30
0.0
 11
173.54741442034785
 21
-149.65625
 31
0.0
  0
LINE
  5
16C
  8
MyLines
 10
173.54741442034785
 20
-149.65625
 30
0.0
 11
175.08246624786284
 21
-149.65625
 31
0.0
  0
LINE
  5
16D
  8
MyLines
 10
175.08246624786284
 20
-149.65625
 30
0.0
 11
176.61751807537786
 21
-149.65625
 31
0.0
  0
LINE
  5
16E
  8
MyLines
 10
176.61751807537786
 20
-149.65625
 30
0.0
 11
178.15256990289288
 21
-149.65625
 31
0.0
  0
LINE
  5
16F
  8
MyLines
 10
178.15256990289288
 20
-149.65625
 30
0.0
 11
179.6876217304079
 21
-149.65625
 31
0.0
  0
LINE
  5
170
  8
MyLines
 10
179.6876217304079
 20
-149.65625
 30
0.0
 11
181.22267355792292
 21
-149.65625
 31
0.0
  0
LINE
  5
171
  8
MyLines
 10
181.22267355792292
 20
-149.65625
 30
0.0
 11
182.75772538543794
 21
-149.65625
 31
0.0
  0
LINE
  5
172
  8
MyLines
 10
182.75772538543794
 20
-149.65625
 30
0.0
 11
184.29277721295296
 21
-149.65625
 31
0.0
  0
LINE
  5
173
  8
MyLines
 10
184.29277721295296
 20
-149.65625
 30
0.0
 11
185.82782904046798
 21
-149.65625
 31
0.0
  0
LINE
  5
174
  8
MyLines
 10
185.82782904046798
 20
-149.65625
 30
0.0
 11
187.362880867983
 21
-149.65625
 31
0.0
  0
LINE
  5
175
  8
MyLines
 10
187.362880867983
 20
-149.65625
 30
0.0
 11
188.897932695498
 21
-149.65625
 31
0.0
  0
LINE
  5
176
  8
MyLines
 10
188.897932695498
 20
-149.65625
 30
0.0
 11
190.43298452301303
 21
-149.65625
 31
0.0
  0
LINE
  5
177
  8
MyLines
 10
190.43298452301303
 20
-149.65625
 30
0.0
 11
191.96803635052805
 21
-149.65625
 31
0.0
  0
LINE
  5
178
  8
MyLines
 10
191.96803635052805
 20
-149.65625
 30
0.0
 11
193.50308817804307
 21
-149.65625
 31
0.0
  0
LINE
  5
179
  8
MyLines
 10
193.50308817804307
 20
-149.65625
 30
0.0
 11
195.03814000555806
 21
-149.65625
 31
0.0
  0
LINE
  5
17A
  8
MyLines
 10
195.03814000555806
 20
-149.65625
 30
0.0
 11
196.5731918330731
 21
-149.65625
 31
0.0
  0
LINE
  5
17B
  8
MyLines
 10
196.5731918330731
 20
-149.65625
 30
0.0
 11
198.1082436605881
 21
-149.65625
 31
0.0
  0
LINE
  5
17C
  8
MyLines
 10
198.1082436605881
 20
-149.65625
 30
0.0
 11
199.64329548810315
 21
-149.65625
 31
0.0
  0
LINE
  5
17D
  8
MyLines
 10
199.64329548810315
 20
-149.65625
 30
0.0
 11
201.17834731561814
 21
-149.65625
 31
0.0
  0
LINE
  5
17E
  8
MyLines
 10
201.17834731561814
 20
-149.65625
 30
0.0
 11
202.71339914313316
 21
-149.65625
 31
0.0
  0
LINE
  5
17F
  8
MyLines
 10
202.71339914313316
 20
-149.65625
 30
0.0
 11
204.24845097064818
 21
-149.65625
 31
0.0
  0
LINE
  5
180
  8
MyLines
 10
204.24845097064818
 20
-149.65625
 30
0.0
 11
205.7835027981632
 21
-149.65625
 31
0.0
  0
LINE
  5
181
  8
MyLines
 10
205.7835027981632
 20
-149.65625
 30
0.0
 11
207.31855462567822
 21
-149.65625
 31
0.0
  0
LINE
  5
182
  8
MyLines
 10
207.31855462567822
 20
-149.65625
 30
0.0
 11
208.85360645319324
 21
-149.65625
 31
0.0
  0
LINE
  5
183
  8
MyLines
 10
208.85360645319324
 20
-149.65625
 30
0.0
 11
210.38865828070826
 21
-149.65625
 31
0.0
  0
LINE
  5
184
  8
MyLines
 10
210.38865828070826
 20
-149.65625
 30
0.0
 11
211.9237101082233
 21
-149.65625
 31
0.0
  0
LINE
  5
185
  8
MyLines
 10
211.9237101082233
 20
-149.65625
 30
0.0
 11
213.45876193573832
 21
-149.65625
 31
0.0
  0
LINE
  5
186
  8
MyLines
 10
213.45876193573832
 20
-149.65625
 30
0.0
 11
214.99381376325334
 21
-149.65625
 31
0.0
  0
LINE
  5
187
  8
MyLines
 10
214.99381376325334
 20
-149.65625
 30
0.0
 11
216.52886559076836
 21
-149.65625
 31
0.0
  0
LINE
  5
188
  8
MyLines
 10
216.52886559076836
 20
-149.65625
 30
0.0
 11
218.06391741828335
 21
-149.65625
 31
0.0
  0
LINE
  5
189
  8
MyLines
 10
218.06391741828335
 20
-149.65625
 30
0.0
 11
219.5989692457984
 21
-149.65625
 31
0.0
  0
LINE
  5
18A
  8
MyLines
 10
219.5989692457984
 20
-149.65625
 30
0.0
 11
221.1340210733134
 21
-149.65625
 31
0.0
  0
LINE
  5
18B
  8
MyLines
 10
221.1340210733134
 20
-149.65625
 30
0.0
 11
222.66907290082844
 21
-149.65625
 31
0.0
  0
LINE
  5
18C
  8
MyLines
 10
222.66907290082844
 20
-149.65625
 30
0.0
 11
224.20412472834343
 21
-149.65625
 31
0.0
  0
LINE
  5
18D
  8
MyLines
 10
224.20412472834343
 20
-149.65625
 30
0.0
 11
225.73917655585848
 21
-149.65625
 31
0.0
  0
LINE
  5
18E
  8
MyLines
 10
225.73917655585848
 20
-149.65625
 30
0.0
 11
227.27422838337347
 21
-149.65625
 31
0.0
  0
LINE
  5
18F
  8
MyLines
 10
227.27422838337347
 20
-149.65625
 30
0.0
 11
228.8092802108885
 21
-149.65625
 31
0.0
  0
LINE
  5
190
  8
MyLines
 10
228.8092802108885
 20
-149.65625
 30
0.0
 11
230.3443320384035
 21
-149.65625
 31
0.0
  0
LINE
  5
191
  8
MyLines
 10
230.3443320384035
 20
-149.65625
 30
0.0
 11
231.87938386591853
 21
-149.65625
 31
0.0
  0
LINE
  5
192
  8
MyLines
 10
231.87938386591853
 20
-149.65625
 30
0.0
 11
233.41443569343355
 21
-149.65625
 31
0.0
  0
LINE
  5
193
  8
MyLines
 10
233.41443569343355
 20
-149.65625
 30
0.0
 11
234.94948752094857
 21
-149.65625
 31
0.0
  0
LINE
  5
194
  8
MyLines
 10
234.94948752094857
 20
-149.65625
 30
0.0
 11
234.94948752094857
 21
-149.65625
 31
0.0
  0
LINE
  5
195
  8
MyLines
 10
234.94948752094857
 20
-149.65625
 30
0.0
 11
234.94948752094857
 21
157.59375
 31
0.0
  0
LINE
  5
196
  8
MyLines
 10
234.94948752094857
 20
157.59375
 30
0.0
 11
234.94948752094857
 21
157.59375
 31
0.0
  0
LINE
  5
197
  8
MyLines
 10
234.94948752094857
 20
157.59375
 30
0.0
 11
233.50220776511196
 21
157.59375
 31
0.0
  0
LINE
  5
198
  8
MyLines
 10
233.50220776511196
 20
157.59375
 30
0.0
 11
232.05492800927536
 21
157.59375
 31
0.0
  0
LINE
  5
199
  8
MyLines
 10
232.05492800927536
 20
157.59375
 30
0.0
 11
230.60764825343875
 21
157.59375
 31
0.0
  0
LINE
  5
19A
  8
MyLines
 10
230.60764825343875
 20
157.59375
 30
0.0
 11
229.16036849760215
 21
157.59375
 31
0.0
  0
LINE
  5
19B
  8
MyLines
 10
229.16036849760215
 20
157.59375
 30
0.0
 11
227.71308874176557
 21
157.59375
 31
0.0
  0
LINE
  5
19C
  8
MyLines
 10
227.71308874176557
 20
157.59375
 30
0.0
 11
226.26580898592897
 21
157.59375
 31
0.0
  0
LINE
  5
19D
  8
MyLines
 10
226.26580898592897
 20
157.59375
 30
0.0
 11
224.81852923009237
 21
157.59375
 31
0.0
  0
LINE
  5
19E
  8
MyLines
 10
224.81852923009237
 20
157.59375
 30
0.0
 11
223.37124947425576
 21
157.59375
 31
0.0
  0
LINE
  5
19F
  8
MyLines
 10
223.37124947425576
 20
157.59375
 30
0.0
 11
221.92396971841916
 21
157.59375
 31
0.0
  0
LINE
  5
1A0
  8
MyLines
 10
221.92396971841916
 20
157.59375
 30
0.0
 11
220.47668996258255
 21
157.59375
 31
0.0
  0
LINE
  5
1A1
  8
MyLines
 10
220.47668996258255
 20
157.59375
 30
0.0
 11
219.02941020674595
 21
157.59375
 31
0.0
  0
LINE
  5
1A2
  8
MyLines
 10
219.02941020674595
 20
157.59375
 30
0.0
 11
217.58213045090937
 21
157.59375
 31
0.0
  0
LINE
  5
1A3
  8
MyLines
 10
217.58213045090937
 20
157.59375
 30
0.0
 11
216.13485069507277
 21
157.59375
 31
0.0
  0
LINE
  5
1A4
  8
MyLines
 10
216.13485069507277
 20
157.59375
 30
0.0
 11
214.68757093923617
 21
157.59375
 31
0.0
  0
LINE
  5
1A5
  8
MyLines
 10
214.68757093923617
 20
157.59375
 30
0.0
 11
213.24029118339956
 21
157.59375
 31
0.0
  0
LINE
  5
1A6
  8
MyLines
 10
213.24029118339956
 20
157.59375
 30
0.0
 11
211.79301142756296
 21
157.59375
 31
0.0
  0
LINE
  5
1A7
  8
MyLines
 10
211.79301142756296
 20
157.59375
 30
0.0
 11
210.34573167172636
 21
157.59375
 31
0.0
  0
LINE
  5
1A8
  8
MyLines
 10
210.34573167172636
 20
157.59375
 30
0.0
 11
208.89845191588975
 21
157.59375
 31
0.0
  0
LINE
  5
1A9
  8
MyLines
 10
208.89845191588975
 20
157.59375
 30
0.0
 11
207.45117216005318
 21
157.59375
 31
0.0
  0
LINE
  5
1AA
  8
MyLines
 10
207.45117216005318
 20
157.59375
 30
0.0
 11
206.00389240421657
 21
157.59375
 31
0.0
  0
LINE
  5
1AB
  8
MyLines
 10
206.00389240421657
 20
157.59375
 30
0.0
 11
204.55661264837997
 21
157.59375
 31
0.0
  0
LINE
  5
1AC
  8
MyLines
 10
204.55661264837997
 20
157.59375
 30
0.0
 11
203.10933289254336
 21
157.59375
 31
0.0
  0
LINE
  5
1AD
  8
MyLines
 10
203.10933289254336
 20
157.59375
 30
0.0
 11
201.66205313670676
 21
157.59375
 31
0.0
  0
LINE
  5
1AE
  8
MyLines
 10
201.66205313670676
 20
157.59375
 30
0.0
 11
200.21477338087016
 21
157.59375
 31
0.0
  0
LINE
  5
1AF
  8
MyLines
 10
200.21477338087016
 20
157.59375
 30
0.0
 11
198.76749362503355
 21
157.59375
 31
0.0
  0
LINE
  5
1B0
  8
MyLines
 10
198.76749362503355
 20
157.59375
 30
0.0
 11
197.32021386919698
 21
157.59375
 31
0.0
  0
LINE
  5
1B1
  8
MyLines
 10
197.32021386919698
 20
157.59375
 30
0.0
 11
195.87293411336037
 21
157.59375
 31
0.0
  0
LINE
  5
1B2
  8
MyLines
 10
195.87293411336037
 20
157.59375
 30
0.0
 11
194.42565435752377
 21
157.59375
 31
0.0
  0
LINE
  5
1B3
  8
MyLines
 10
194.42565435752377
 20
157.59375
 30
0.0
 11
192.97837460168716
 21
157.59375
 31
0.0
  0
LINE
  5
1B4
  8
MyLines
 10
192.97837460168716
 20
157.59375
 30
0.0
 11
191.53109484585056
 21
157.59375
 31
0.0
  0
LINE
  5
1B5
  8
MyLines
 10
191.53109484585056
 20
157.59375
 30
0.0
 11
190.08381509001396
 21
157.59375
 31
0.0
  0
LINE
  5
1B6
  8
MyLines
 10
190.08381509001396
 20
157.59375
 30
0.0
 11
188.63653533417735
 21
157.59375
 31
0.0
  0
LINE
  5
1B7
  8
MyLines
 10
188.63653533417735
 20
157.59375
 30
0.0
 11
187.18925557834078
 21
157.59375
 31
0.0
  0
LINE
  5
1B8
  8
MyLines
 10
187.18925557834078
 20
157.59375
 30
0.0
 11
185.74197582250417
 21
157.59375
 31
0.0
  0
LINE
  5
1B9
  8
MyLines
 10
185.74197582250417
 20
157.59375
 30
0.0
 11
184.29469606666757
 21
157.59375
 31
0.0
  0
LINE
  5
1BA
  8
MyLines
 10
184.29469606666757
 20
157.59375
 30
0.0
 11
182.84741631083097
 21
157.59375
 31
0.0
  0
LINE
  5
1BB
  8
MyLines
 10
182.84741631083097
 20
157.59375
 30
0.0
 11
181.40013655499436
 21
157.59375
 31
0.0
  0
LINE
  5
1BC
  8
MyLines
 10
181.40013655499436
 20
157.59375
 30
0.0
 11
179.95285679915776
 21
157.59375
 31
0.0
  0
LINE
  5
1BD
  8
MyLines
 10
179.95285679915776
 20
157.59375
 30
0.0
 11
178.50557704332115
 21
157.59375
 31
0.0
  0
LINE
  5
1BE
  8
MyLines
 10
178.50557704332115
 20
157.59375
 30
0.0
 11
177.05829728748455
 21
157.59375
 31
0.0
  0
LINE
  5
1BF
  8
MyLines
 10
177.05829728748455
 20
157.59375
 30
0.0
 11
175.61101753164797
 21
157.59375
 31
0.0
  0
LINE
  5
1C0
  8
MyLines
 10
175.61101753164797
 20
157.59375
 30
0.0
 11
174.16373777581137
 21
157.59375
 31
0.0
  0
LINE
  5
1C1
  8
MyLines
 10
174.16373777581137
 20
157.59375
 30
0.0
 11
172.71645801997477
 21
157.59375
 31
0.0
  0
LINE
  5
1C2
  8
MyLines
 10
172.71645801997477
 20
157.59375
 30
0.0
 11
171.26917826413816
 21
157.59375
 31
0.0
  0
LINE
  5
1C3
  8
MyLines
 10
171.26917826413816
 20
157.59375
 30
0.0
 11
169.82189850830156
 21
157.59375
 31
0.0
  0
LINE
  5
1C4
  8
MyLines
 10
169.82189850830156
 20
157.59375
 30
0.0
 11
168.37461875246495
 21
157.59375
 31
0.0
  0
LINE
  5
1C5
  8
MyLines
 10
168.37461875246495
 20
157.59375
 30
0.0
 11
166.92733899662835
 21
157.59375
 31
0.0
  0
LINE
  5
1C6
  8
MyLines
 10
166.92733899662835
 20
157.59375
 30
0.0
 11
165.48005924079177
 21
157.59375
 31
0.0
  0
LINE
  5
1C7
  8
MyLines
 10
165.48005924079177
 20
157.59375
 30
0.0
 11
164.03277948495517
 21
157.59375
 31
0.0
  0
LINE
  5
1C8
  8
MyLines
 10
164.03277948495517
 20
157.59375
 30
0.0
 11
164.03277948495517
 21
-145.6875
 31
0.0
  0
LINE
  5
1C9
  8
MyLines
 10
164.03277948495517
 20
-145.6875
 30
0.0
 11
164.03277948495517
 21
-145.6875
 31
0.0
  0
LINE
  5
1CA
  8
MyLines
 10
164.03277948495517
 20
-145.6875
 30
0.0
 11
165.38586711241916
 21
-145.6875
 31
0.0
  0
LINE
  5
1CB
  8
MyLines
 10
165.38586711241916
 20
-145.6875
 30
0.0
 11
166.73895473988316
 21
-145.6875
 31
0.0
  0
LINE
  5
1CC
  8
MyLines
 10
166.73895473988316
 20
-145.6875
 30
0.0
 11
168.09204236734718
 21
-145.6875
 31
0.0
  0
LINE
  5
1CD
  8
MyLines
 10
168.09204236734718
 20
-145.6875
 30
0.0
 11
169.4451299948112
 21
-145.6875
 31
0.0
  0
LINE
  5
1CE
  8
MyLines
 10
169.4451299948112
 20
-145.6875
 30
0.0
 11
170.79821762227522
 21
-145.6875
 31
0.0
  0
LINE
  5
1CF
  8
MyLines
 10
170.79821762227522
 20
-145.6875
 30
0.0
 11
172.1513052497392
 21
-145.6875
 31
0.0
  0
LINE
  5
1D0
  8
MyLines
 10
172.1513052497392
 20
-145.6875
 30
0.0
 11
173.50439287720317
 21
-145.6875
 31
0.0
  0
LINE
  5
1D1
  8
MyLines
 10
173.50439287720317
 20
-145.6875
 30
0.0
 11
174.8574805046672
 21
-145.6875
 31
0.0
  0
LINE
  5
1D2
  8
MyLines
 10
174.8574805046672
 20
-145.6875
 30
0.0
 11
176.21056813213121
 21
-145.6875
 31
0.0
  0
LINE
  5
1D3
  8
MyLines
 10
176.21056813213121
 20
-145.6875
 30
0.0
 11
177.56365575959524
 21
-145.6875
 31
0.0
  0
LINE
  5
1D4
  8
MyLines
 10
177.56365575959524
 20
-145.6875
 30
0.0
 11
178.91674338705923
 21
-145.6875
 31
0.0
  0
LINE
  5
1D5
  8
MyLines
 10
178.91674338705923
 20
-145.6875
 30
0.0
 11
180.26983101452325
 21
-145.6875
 31
0.0
  0
LINE
  5
1D6
  8
MyLines
 10
180.26983101452325
 20
-145.6875
 30
0.0
 11
181.62291864198724
 21
-145.6875
 31
0.0
  0
LINE
  5
1D7
  8
MyLines
 10
181.62291864198724
 20
-145.6875
 30
0.0
 11
182.97600626945123
 21
-145.6875
 31
0.0
  0
LINE
  5
1D8
  8
MyLines
 10
182.97600626945123
 20
-145.6875
 30
0.0
 11
184.32909389691525
 21
-145.6875
 31
0.0
  0
LINE
  5
1D9
  8
MyLines
 10
184.32909389691525
 20
-145.6875
 30
0.0
 11
185.68218152437927
 21
-145.6875
 31
0.0
  0
LINE
  5
1DA
  8
MyLines
 10
185.68218152437927
 20
-145.6875
 30
0.0
 11
187.03526915184327
 21
-145.6875
 31
0.0
  0
LINE
  5
1DB
  8
MyLines
 10
187.03526915184327
 20
-145.6875
 30
0.0
 11
188.38835677930726
 21
-145.6875
 31
0.0
  0
LINE
  5
1DC
  8
MyLines
 10
188.38835677930726
 20
-145.6875
 30
0.0
 11
189.74144440677128
 21
-145.6875
 31
0.0
  0
LINE
  5
1DD
  8
MyLines
 10
189.74144440677128
 20
-145.6875
 30
0.0
 11
191.09453203423527
 21
-145.6875
 31
0.0
  0
LINE
  5
1DE
  8
MyLines
 10
191.09453203423527
 20
-145.6875
 30
0.0
 11
192.4476196616993
 21
-145.6875
 31
0.0
  0
LINE
  5
1DF
  8
MyLines
 10
192.4476196616993
 20
-145.6875
 30
0.0
 11
193.8007072891633
 21
-145.6875
 31
0.0
  0
LINE
  5
1E0
  8
MyLines
 10
193.8007072891633
 20
-145.6875
 30
0.0
 11
195.1537949166273
 21
-145.6875
 31
0.0
  0
LINE
  5
1E1
  8
MyLines
 10
195.1537949166273
 20
-145.6875
 30
0.0
 11
196.5068825440913
 21
-145.6875
 31
0.0
  0
LINE
  5
1E2
  8
MyLines
 10
196.5068825440913
 20
-145.6875
 30
0.0
 11
197.85997017155532
 21
-145.6875
 31
0.0
  0
LINE
  5
1E3
  8
MyLines
 10
197.85997017155532
 20
-145.6875
 30
0.0
 11
199.2130577990193
 21
-145.6875
 31
0.0
  0
LINE
  5
1E4
  8
MyLines
 10
199.2130577990193
 20
-145.6875
 30
0.0
 11
200.56614542648333
 21
-145.6875
 31
0.0
  0
LINE
  5
1E5
  8
MyLines
 10
200.56614542648333
 20
-145.6875
 30
0.0
 11
201.91923305394735
 21
-145.6875
 31
0.0
  0
LINE
  5
1E6
  8
MyLines
 10
201.91923305394735
 20
-145.6875
 30
0.0
 11
203.27232068141134
 21
-145.6875
 31
0.0
  0
LINE
  5
1E7
  8
MyLines
 10
203.27232068141134
 20
-145.6875
 30
0.0
 11
204.62540830887534
 21
-145.6875
 31
0.0
  0
LINE
  5
1E8
  8
MyLines
 10
204.62540830887534
 20
-145.6875
 30
0.0
 11
205.97849593633936
 21
-145.6875
 31
0.0
  0
LINE
  5
1E9
  8
MyLines
 10
205.97849593633936
 20
-145.6875
 30
0.0
 11
207.33158356380335
 21
-145.6875
 31
0.0
  0
LINE
  5
1EA
  8
MyLines
 10
207.33158356380335
 20
-145.6875
 30
0.0
 11
208.68467119126737
 21
-145.6875
 31
0.0
  0
LINE
  5
1EB
  8
MyLines
 10
208.68467119126737
 20
-145.6875
 30
0.0
 11
210.03775881873136
 21
-145.6875
 31
0.0
  0
LINE
  5
1EC
  8
MyLines
 10
210.03775881873136
 20
-145.6875
 30
0.0
 11
211.39084644619538
 21
-145.6875
 31
0.0
  0
LINE
  5
1ED
  8
MyLines
 10
211.39084644619538
 20
-145.6875
 30
0.0
 11
212.74393407365937
 21
-145.6875
 31
0.0
  0
LINE
  5
1EE
  8
MyLines
 10
212.74393407365937
 20
-145.6875
 30
0.0
 11
214.0970217011234
 21
-145.6875
 31
0.0
  0
LINE
  5
1EF
  8
MyLines
 10
214.0970217011234
 20
-145.6875
 30
0.0
 11
215.4501093285874
 21
-145.6875
 31
0.0
  0
LINE
  5
1F0
  8
MyLines
 10
215.4501093285874
 20
-145.6875
 30
0.0
 11
216.8031969560514
 21
-145.6875
 31
0.0
  0
LINE
  5
1F1
  8
MyLines
 10
216.8031969560514
 20
-145.6875
 30
0.0
 11
218.1562845835154
 21
-145.6875
 31
0.0
  0
LINE
  5
1F2
  8
MyLines
 10
218.1562845835154
 20
-145.6875
 30
0.0
 11
219.50937221097942
 21
-145.6875
 31
0.0
  0
LINE
  5
1F3
  8
MyLines
 10
219.50937221097942
 20
-145.6875
 30
0.0
 11
220.8624598384434
 21
-145.6875
 31
0.0
  0
LINE
  5
1F4
  8
MyLines
 10
220.8624598384434
 20
-145.6875
 30
0.0
 11
222.21554746590743
 21
-145.6875
 31
0.0
  0
LINE
  5
1F5
  8
MyLines
 10
222.21554746590743
 20
-145.6875
 30
0.0
 11
223.56863509337143
 21
-145.6875
 31
0.0
  0
LINE
  5
1F6
  8
MyLines
 10
223.56863509337143
 20
-145.6875
 30
0.0
 11
224.92172272083542
 21
-145.6875
 31
0.0
  0
LINE
  5
1F7
  8
MyLines
 10
224.92172272083542
 20
-145.6875
 30
0.0
 11
226.27481034829944
 21
-145.6875
 31
0.0
  0
LINE
  5
1F8
  8
MyLines
 10
226.27481034829944
 20
-145.6875
 30
0.0
 11
227.62789797576346
 21
-145.6875
 31
0.0
  0
LINE
  5
1F9
  8
MyLines
 10
227.62789797576346
 20
-145.6875
 30
0.0
 11
228.98098560322745
 21
-145.6875
 31
0.0
  0
LINE
  5
1FA
  8
MyLines
 10
228.98098560322745
 20
-145.6875
 30
0.0
 11
230.33407323069147
 21
-145.6875
 31
0.0
  0
LINE
  5
1FB
  8
MyLines
 10
230.33407323069147
 20
-145.6875
 30
0.0
 11
230.33407323069147
 21
-145.6875
 31
0.0
  0
LINE
  5
1FC
  8
MyLines
 10
230.33407323069147
 20
-145.6875
 30
0.0
 11
230.33407323069147
 21
153.625
 31
0.0
  0
LINE
  5
1FD
  8
MyLines
 10
230.33407323069147
 20
153.625
 30
0.0
 11
230.33407323069147
 21
153.625
 31
0.0
  0
LINE
  5
1FE
  8
MyLines
 10
230.33407323069147
 20
153.625
 30
0.0
 11
229.07517773160006
 21
153.625
 31
0.0
  0
LINE
  5
1FF
  8
MyLines
 10
229.07517773160006
 20
153.625
 30
0.0
 11
227.81628223250863
 21
153.625
 31
0.0
  0
LINE
  5
200
  8
MyLines
 10
227.81628223250863
 20
153.625
 30
0.0
 11
226.55738673341722
 21
153.625
 31
0.0
  0
LINE
  5
201
  8
MyLines
 10
226.55738673341722
 20
153.625
 30
0.0
 11
225.29849123432584
 21
153.625
 31
0.0
  0
LINE
  5
202
  8
MyLines
 10
225.29849123432584
 20
153.625
 30
0.0
 11
224.0395957352344
 21
153.625
 31
0.0
  0
LINE
  5
203
  8
MyLines
 10
224.0395957352344
 20
153.625
 30
0.0
 11
222.780700236143
 21
153.625
 31
0.0
  0
LINE
  5
204
  8
MyLines
 10
222.780700236143
 20
153.625
 30
0.0
 11
221.52180473705158
 21
153.625
 31
0.0
  0
LINE
  5
205
  8
MyLines
 10
221.52180473705158
 20
153.625
 30
0.0
 11
220.26290923796017
 21
153.625
 31
0.0
  0
LINE
  5
206
  8
MyLines
 10
220.26290923796017
 20
153.625
 30
0.0
 11
219.00401373886876
 21
153.625
 31
0.0
  0
LINE
  5
207
  8
MyLines
 10
219.00401373886876
 20
153.625
 30
0.0
 11
217.74511823977736
 21
153.625
 31
0.0
  0
LINE
  5
208
  8
MyLines
 10
217.74511823977736
 20
153.625
 30
0.0
 11
216.48622274068592
 21
153.625
 31
0.0
  0
LINE
  5
209
  8
MyLines
 10
216.48622274068592
 20
153.625
 30
0.0
 11
215.2273272415945
 21
153.625
 31
0.0
  0
LINE
  5
20A
  8
MyLines
 10
215.2273272415945
 20
153.625
 30
0.0
 11
213.96843174250313
 21
153.625
 31
0.0
  0
LINE
  5
20B
  8
MyLines
 10
213.96843174250313
 20
153.625
 30
0.0
 11
212.7095362434117
 21
153.625
 31
0.0
  0
LINE
  5
20C
  8
MyLines
 10
212.7095362434117
 20
153.625
 30
0.0
 11
211.45064074432028
 21
153.625
 31
0.0
  0
LINE
  5
20D
  8
MyLines
 10
211.45064074432028
 20
153.625
 30
0.0
 11
210.19174524522887
 21
153.625
 31
0.0
  0
LINE
  5
20E
  8
MyLines
 10
210.19174524522887
 20
153.625
 30
0.0
 11
208.93284974613746
 21
153.625
 31
0.0
  0
LINE
  5
20F
  8
MyLines
 10
208.93284974613746
 20
153.625
 30
0.0
 11
207.67395424704605
 21
153.625
 31
0.0
  0
LINE
  5
210
  8
MyLines
 10
207.67395424704605
 20
153.625
 30
0.0
 11
206.41505874795465
 21
153.625
 31
0.0
  0
LINE
  5
211
  8
MyLines
 10
206.41505874795465
 20
153.625
 30
0.0
 11
205.1561632488632
 21
153.625
 31
0.0
  0
LINE
  5
212
  8
MyLines
 10
205.1561632488632
 20
153.625
 30
0.0
 11
203.89726774977183
 21
153.625
 31
0.0
  0
LINE
  5
213
  8
MyLines
 10
203.89726774977183
 20
153.625
 30
0.0
 11
202.63837225068042
 21
153.625
 31
0.0
  0
LINE
  5
214
  8
MyLines
 10
202.63837225068042
 20
153.625
 30
0.0
 11
201.37947675158898
 21
153.625
 31
0.0
  0
LINE
  5
215
  8
MyLines
 10
201.37947675158898
 20
153.625
 30
0.0
 11
200.12058125249757
 21
153.625
 31
0.0
  0
LINE
  5
216
  8
MyLines
 10
200.12058125249757
 20
153.625
 30
0.0
 11
198.86168575340614
 21
153.625
 31
0.0
  0
LINE
  5
217
  8
MyLines
 10
198.86168575340614
 20
153.625
 30
0.0
 11
197.60279025431475
 21
153.625
 31
0.0
  0
LINE
  5
218
  8
MyLines
 10
197.60279025431475
 20
153.625
 30
0.0
 11
196.34389475522335
 21
153.625
 31
0.0
  0
LINE
  5
219
  8
MyLines
 10
196.34389475522335
 20
153.625
 30
0.0
 11
195.08499925613194
 21
153.625
 31
0.0
  0
LINE
  5
21A
  8
MyLines
 10
195.08499925613194
 20
153.625
 30
0.0
 11
193.8261037570405
 21
153.625
 31
0.0
  0
LINE
  5
21B
  8
MyLines
 10
193.8261037570405
 20
153.625
 30
0.0
 11
192.56720825794912
 21
153.625
 31
0.0
  0
LINE
  5
21C
  8
MyLines
 10
192.56720825794912
 20
153.625
 30
0.0
 11
191.30831275885768
 21
153.625
 31
0.0
  0
LINE
  5
21D
  8
MyLines
 10
191.30831275885768
 20
153.625
 30
0.0
 11
190.04941725976627
 21
153.625
 31
0.0
  0
LINE
  5
21E
  8
MyLines
 10
190.04941725976627
 20
153.625
 30
0.0
 11
188.79052176067486
 21
153.625
 31
0.0
  0
LINE
  5
21F
  8
MyLines
 10
188.79052176067486
 20
153.625
 30
0.0
 11
187.53162626158343
 21
153.625
 31
0.0
  0
LINE
  5
220
  8
MyLines
 10
187.53162626158343
 20
153.625
 30
0.0
 11
186.27273076249205
 21
153.625
 31
0.0
  0
LINE
  5
221
  8
MyLines
 10
186.27273076249205
 20
153.625
 30
0.0
 11
185.0138352634006
 21
153.625
 31
0.0
  0
LINE
  5
222
  8
MyLines
 10
185.0138352634006
 20
153.625
 30
0.0
 11
183.7549397643092
 21
153.625
 31
0.0
  0
LINE
  5
223
  8
MyLines
 10
183.7549397643092
 20
153.625
 30
0.0
 11
182.4960442652178
 21
153.625
 31
0.0
  0
LINE
  5
224
  8
MyLines
 10
182.4960442652178
 20
153.625
 30
0.0
 11
181.23714876612638
 21
153.625
 31
0.0
  0
LINE
  5
225
  8
MyLines
 10
181.23714876612638
 20
153.625
 30
0.0
 11
179.97825326703497
 21
153.625
 31
0.0
  0
LINE
  5
226
  8
MyLines
 10
179.97825326703497
 20
153.625
 30
0.0
 11
178.71935776794356
 21
153.625
 31
0.0
  0
LINE
  5
227
  8
MyLines
 10
178.71935776794356
 20
153.625
 30
0.0
 11
177.46046226885213
 21
153.625
 31
0.0
  0
LINE
  5
228
  8
MyLines
 10
177.46046226885213
 20
153.625
 30
0.0
 11
176.20156676976075
 21
153.625
 31
0.0
  0
LINE
  5
229
  8
MyLines
 10
176.20156676976075
 20
153.625
 30
0.0
 11
174.94267127066934
 21
153.625
 31
0.0
  0
LINE
  5
22A
  8
MyLines
 10
174.94267127066934
 20
153.625
 30
0.0
 11
173.6837757715779
 21
153.625
 31
0.0
  0
LINE
  5
22B
  8
MyLines
 10
173.6837757715779
 20
153.625
 30
0.0
 11
172.4248802724865
 21
153.625
 31
0.0
  0
LINE
  5
22C
  8
MyLines
 10
172.4248802724865
 20
153.625
 30
0.0
 11
171.16598477339508
 21
153.625
 31
0.0
  0
LINE
  5
22D
  8
MyLines
 10
171.16598477339508
 20
153.625
 30
0.0
 11
169.90708927430367
 21
153.625
 31
0.0
  0
LINE
  5
22E
  8
MyLines
 10
169.90708927430367
 20
153.625
 30
0.0
 11
168.64819377521226
 21
153.625
 31
0.0
  0
LINE
  5
22F
  8
MyLines
 10
168.64819377521226
 20
153.625
 30
0.0
 11
168.64819377521226
 21
-141.71875
 31
0.0
  0
LINE
  5
230
  8
MyLines
 10
168.64819377521226
 20
-141.71875
 30
0.0
 11
168.64819377521226
 21
-141.71875
 31
0.0
  0
LINE
  5
231
  8
MyLines
 10
168.64819377521226
 20
-141.71875
 30
0.0
 11
169.8019697857076
 21
-141.71875
 31
0.0
  0
LINE
  5
232
  8
MyLines
 10
169.8019697857076
 20
-141.71875
 30
0.0
 11
170.9557457962029
 21
-141.71875
 31
0.0
  0
LINE
  5
233
  8
MyLines
 10
170.9557457962029
 20
-141.71875
 30
0.0
 11
172.10952180669827
 21
-141.71875
 31
0.0
  0
LINE
  5
234
  8
MyLines
 10
172.10952180669827
 20
-141.71875
 30
0.0
 11
173.26329781719357
 21
-141.71875
 31
0.0
  0
LINE
  5
235
  8
MyLines
 10
173.26329781719357
 20
-141.71875
 30
0.0
 11
174.4170738276889
 21
-141.71875
 31
0.0
  0
LINE
  5
236
  8
MyLines
 10
174.4170738276889
 20
-141.71875
 30
0.0
 11
175.57084983818424
 21
-141.71875
 31
0.0
  0
LINE
  5
237
  8
MyLines
 10
175.57084983818424
 20
-141.71875
 30
0.0
 11
176.72462584867955
 21
-141.71875
 31
0.0
  0
LINE
  5
238
  8
MyLines
 10
176.72462584867955
 20
-141.71875
 30
0.0
 11
177.87840185917491
 21
-141.71875
 31
0.0
  0
LINE
  5
239
  8
MyLines
 10
177.87840185917491
 20
-141.71875
 30
0.0
 11
179.03217786967022
 21
-141.71875
 31
0.0
  0
LINE
  5
23A
  8
MyLines
 10
179.03217786967022
 20
-141.71875
 30
0.0
 11
180.18595388016556
 21
-141.71875
 31
0.0
  0
LINE
  5
23B
  8
MyLines
 10
180.18595388016556
 20
-141.71875
 30
0.0
 11
181.3397298906609
 21
-141.71875
 31
0.0
  0
LINE
  5
23C
  8
MyLines
 10
181.3397298906609
 20
-141.71875
 30
0.0
 11
182.49350590115623
 21
-141.71875
 31
0.0
  0
LINE
  5
23D
  8
MyLines
 10
182.49350590115623
 20
-141.71875
 30
0.0
 11
183.64728191165156
 21
-141.71875
 31
0.0
  0
LINE
  5
23E
  8
MyLines
 10
183.64728191165156
 20
-141.71875
 30
0.0
 11
184.80105792214687
 21
-141.71875
 31
0.0
  0
LINE
  5
23F
  8
MyLines
 10
184.80105792214687
 20
-141.71875
 30
0.0
 11
185.9548339326422
 21
-141.71875
 31
0.0
  0
LINE
  5
240
  8
MyLines
 10
185.9548339326422
 20
-141.71875
 30
0.0
 11
187.10860994313754
 21
-141.71875
 31
0.0
  0
LINE
  5
241
  8
MyLines
 10
187.10860994313754
 20
-141.71875
 30
0.0
 11
188.26238595363287
 21
-141.71875
 31
0.0
  0
LINE
  5
242
  8
MyLines
 10
188.26238595363287
 20
-141.71875
 30
0.0
 11
189.4161619641282
 21
-141.71875
 31
0.0
  0
LINE
  5
243
  8
MyLines
 10
189.4161619641282
 20
-141.71875
 30
0.0
 11
190.5699379746235
 21
-141.71875
 31
0.0
  0
LINE
  5
244
  8
MyLines
 10
190.5699379746235
 20
-141.71875
 30
0.0
 11
191.72371398511885
 21
-141.71875
 31
0.0
  0
LINE
  5
245
  8
MyLines
 10
191.72371398511885
 20
-141.71875
 30
0.0
 11
192.87748999561418
 21
-141.71875
 31
0.0
  0
LINE
  5
246
  8
MyLines
 10
192.87748999561418
 20
-141.71875
 30
0.0
 11
194.03126600610952
 21
-141.71875
 31
0.0
  0
LINE
  5
247
  8
MyLines
 10
194.03126600610952
 20
-141.71875
 30
0.0
 11
195.18504201660485
 21
-141.71875
 31
0.0
  0
LINE
  5
248
  8
MyLines
 10
195.18504201660485
 20
-141.71875
 30
0.0
 11
196.33881802710016
 21
-141.71875
 31
0.0
  0
LINE
  5
249
  8
MyLines
 10
196.33881802710016
 20
-141.71875
 30
0.0
 11
197.4925940375955
 21
-141.71875
 31
0.0
  0
LINE
  5
24A
  8
MyLines
 10
197.4925940375955
 20
-141.71875
 30
0.0
 11
198.64637004809083
 21
-141.71875
 31
0.0
  0
LINE
  5
24B
  8
MyLines
 10
198.64637004809083
 20
-141.71875
 30
0.0
 11
199.80014605858617
 21
-141.71875
 31
0.0
  0
LINE
  5
24C
  8
MyLines
 10
199.80014605858617
 20
-141.71875
 30
0.0
 11
200.9539220690815
 21
-141.71875
 31
0.0
  0
LINE
  5
24D
  8
MyLines
 10
200.9539220690815
 20
-141.71875
 30
0.0
 11
202.1076980795768
 21
-141.71875
 31
0.0
  0
LINE
  5
24E
  8
MyLines
 10
202.1076980795768
 20
-141.71875
 30
0.0
 11
203.26147409007217
 21
-141.71875
 31
0.0
  0
LINE
  5
24F
  8
MyLines
 10
203.26147409007217
 20
-141.71875
 30
0.0
 11
204.41525010056748
 21
-141.71875
 31
0.0
  0
LINE
  5
250
  8
MyLines
 10
204.41525010056748
 20
-141.71875
 30
0.0
 11
205.5690261110628
 21
-141.71875
 31
0.0
  0
LINE
  5
251
  8
MyLines
 10
205.5690261110628
 20
-141.71875
 30
0.0
 11
206.72280212155815
 21
-141.71875
 31
0.0
  0
LINE
  5
252
  8
MyLines
 10
206.72280212155815
 20
-141.71875
 30
0.0
 11
207.87657813205345
 21
-141.71875
 31
0.0
  0
LINE
  5
253
  8
MyLines
 10
207.87657813205345
 20
-141.71875
 30
0.0
 11
209.03035414254882
 21
-141.71875
 31
0.0
  0
LINE
  5
254
  8
MyLines
 10
209.03035414254882
 20
-141.71875
 30
0.0
 11
210.18413015304412
 21
-141.71875
 31
0.0
  0
LINE
  5
255
  8
MyLines
 10
210.18413015304412
 20
-141.71875
 30
0.0
 11
211.33790616353946
 21
-141.71875
 31
0.0
  0
LINE
  5
256
  8
MyLines
 10
211.33790616353946
 20
-141.71875
 30
0.0
 11
212.4916821740348
 21
-141.71875
 31
0.0
  0
LINE
  5
257
  8
MyLines
 10
212.4916821740348
 20
-141.71875
 30
0.0
 11
213.64545818453013
 21
-141.71875
 31
0.0
  0
LINE
  5
258
  8
MyLines
 10
213.64545818453013
 20
-141.71875
 30
0.0
 11
214.79923419502546
 21
-141.71875
 31
0.0
  0
LINE
  5
259
  8
MyLines
 10
214.79923419502546
 20
-141.71875
 30
0.0
 11
215.95301020552077
 21
-141.71875
 31
0.0
  0
LINE
  5
25A
  8
MyLines
 10
215.95301020552077
 20
-141.71875
 30
0.0
 11
217.1067862160161
 21
-141.71875
 31
0.0
  0
LINE
  5
25B
  8
MyLines
 10
217.1067862160161
 20
-141.71875
 30
0.0
 11
218.26056222651144
 21
-141.71875
 31
0.0
  0
LINE
  5
25C
  8
MyLines
 10
218.26056222651144
 20
-141.71875
 30
0.0
 11
219.41433823700677
 21
-141.71875
 31
0.0
  0
LINE
  5
25D
  8
MyLines
 10
219.41433823700677
 20
-141.71875
 30
0.0
 11
220.5681142475021
 21
-141.71875
 31
0.0
  0
LINE
  5
25E
  8
MyLines
 10
220.5681142475021
 20
-141.71875
 30
0.0
 11
221.72189025799742
 21
-141.71875
 31
0.0
  0
LINE
  5
25F
  8
MyLines
 10
221.72189025799742
 20
-141.71875
 30
0.0
 11
222.87566626849275
 21
-141.71875
 31
0.0
  0
LINE
  5
260
  8
MyLines
 10
222.87566626849275
 20
-141.71875
 30
0.0
 11
224.02944227898809
 21
-141.71875
 31
0.0
  0
LINE
  5
261
  8
MyLines
 10
224.02944227898809
 20
-141.71875
 30
0.0
 11
225.18321828948342
 21
-141.71875
 31
0.0
  0
LINE
  5
262
  8
MyLines
 10
225.18321828948342
 20
-141.71875
 30
0.0
 11
225.18321828948342
 21
-141.71875
 31
0.0
  0
LINE
  5
263
  8
MyLines
 10
225.18321828948342
 20
-141.71875
 30
0.0
 11
225.18321828948342
 21
149.65625
 31
0.0
  0
LINE
  5
264
  8
MyLines
 10
225.18321828948342
 20
149.65625
 30
0.0
 11
225.18321828948342
 21
149.65625
 31
0.0
  0
LINE
  5
265
  8
MyLines
 10
225.18321828948342
 20
149.65625
 30
0.0
 11
224.1345617675842
 21
149.65625
 31
0.0
  0
LINE
  5
266
  8
MyLines
 10
224.1345617675842
 20
149.65625
 30
0.0
 11
223.08590524568493
 21
149.65625
 31
0.0
  0
LINE
  5
267
  8
MyLines
 10
223.08590524568493
 20
149.65625
 30
0.0
 11
222.0372487237857
 21
149.65625
 31
0.0
  0
LINE
  5
268
  8
MyLines
 10
222.0372487237857
 20
149.65625
 30
0.0
 11
220.98859220188643
 21
149.65625
 31
0.0
  0
LINE
  5
269
  8
MyLines
 10
220.98859220188643
 20
149.65625
 30
0.0
 11
219.9399356799872
 21
149.65625
 31
0.0
  0
LINE
  5
26A
  8
MyLines
 10
219.9399356799872
 20
149.65625
 30
0.0
 11
218.89127915808794
 21
149.65625
 31
0.0
  0
LINE
  5
26B
  8
MyLines
 10
218.89127915808794
 20
149.65625
 30
0.0
 11
217.8426226361887
 21
149.65625
 31
0.0
  0
LINE
  5
26C
  8
MyLines
 10
217.8426226361887
 20
149.65625
 30
0.0
 11
216.79396611428945
 21
149.65625
 31
0.0
  0
LINE
  5
26D
  8
MyLines
 10
216.79396611428945
 20
149.65625
 30
0.0
 11
215.74530959239019
 21
149.65625
 31
0.0
  0
LINE
  5
26E
  8
MyLines
 10
215.74530959239019
 20
149.65625
 30
0.0
 11
214.69665307049095
 21
149.65625
 31
0.0
  0
LINE
  5
26F
  8
MyLines
 10
214.69665307049095
 20
149.65625
 30
0.0
 11
213.64799654859172
 21
149.65625
 31
0.0
  0
LINE
  5
270
  8
MyLines
 10
213.64799654859172
 20
149.65625
 30
0.0
 11
212.59934002669246
 21
149.65625
 31
0.0
  0
LINE
  5
271
  8
MyLines
 10
212.59934002669246
 20
149.65625
 30
0.0
 11
211.5506835047932
 21
149.65625
 31
0.0
  0
LINE
  5
272
  8
MyLines
 10
211.5506835047932
 20
149.65625
 30
0.0
 11
210.50202698289397
 21
149.65625
 31
0.0
  0
LINE
  5
273
  8
MyLines
 10
210.50202698289397
 20
149.65625
 30
0.0
 11
209.45337046099473
 21
149.65625
 31
0.0
  0
LINE
  5
274
  8
MyLines
 10
209.45337046099473
 20
149.65625
 30
0.0
 11
208.40471393909544
 21
149.65625
 31
0.0
  0
LINE
  5
275
  8
MyLines
 10
208.40471393909544
 20
149.65625
 30
0.0
 11
207.3560574171962
 21
149.65625
 31
0.0
  0
LINE
  5
276
  8
MyLines
 10
207.3560574171962
 20
149.65625
 30
0.0
 11
206.30740089529698
 21
149.65625
 31
0.0
  0
LINE
  5
277
  8
MyLines
 10
206.30740089529698
 20
149.65625
 30
0.0
 11
205.25874437339775
 21
149.65625
 31
0.0
  0
LINE
  5
278
  8
MyLines
 10
205.25874437339775
 20
149.65625
 30
0.0
 11
204.21008785149846
 21
149.65625
 31
0.0
  0
LINE
  5
279
  8
MyLines
 10
204.21008785149846
 20
149.65625
 30
0.0
 11
203.16143132959922
 21
149.65625
 31
0.0
  0
LINE
  5
27A
  8
MyLines
 10
203.16143132959922
 20
149.65625
 30
0.0
 11
202.1127748077
 21
149.65625
 31
0.0
  0
LINE
  5
27B
  8
MyLines
 10
202.1127748077
 20
149.65625
 30
0.0
 11
201.06411828580073
 21
149.65625
 31
0.0
  0
LINE
  5
27C
  8
MyLines
 10
201.06411828580073
 20
149.65625
 30
0.0
 11
200.01546176390147
 21
149.65625
 31
0.0
  0
LINE
  5
27D
  8
MyLines
 10
200.01546176390147
 20
149.65625
 30
0.0
 11
198.96680524200224
 21
149.65625
 31
0.0
  0
LINE
  5
27E
  8
MyLines
 10
198.96680524200224
 20
149.65625
 30
0.0
 11
197.918148720103
 21
149.65625
 31
0.0
  0
LINE
  5
27F
  8
MyLines
 10
197.918148720103
 20
149.65625
 30
0.0
 11
196.86949219820374
 21
149.65625
 31
0.0
  0
LINE
  5
280
  8
MyLines
 10
196.86949219820374
 20
149.65625
 30
0.0
 11
195.82083567630448
 21
149.65625
 31
0.0
  0
LINE
  5
281
  8
MyLines
 10
195.82083567630448
 20
149.65625
 30
0.0
 11
194.77217915440525
 21
149.65625
 31
0.0
  0
LINE
  5
282
  8
MyLines
 10
194.77217915440525
 20
149.65625
 30
0.0
 11
193.723522632506
 21
149.65625
 31
0.0
  0
LINE
  5
283
  8
MyLines
 10
193.723522632506
 20
149.65625
 30
0.0
 11
192.67486611060676
 21
149.65625
 31
0.0
  0
LINE
  5
284
  8
MyLines
 10
192.67486611060676
 20
149.65625
 30
0.0
 11
191.6262095887075
 21
149.65625
 31
0.0
  0
LINE
  5
285
  8
MyLines
 10
191.6262095887075
 20
149.65625
 30
0.0
 11
190.57755306680826
 21
149.65625
 31
0.0
  0
LINE
  5
286
  8
MyLines
 10
190.57755306680826
 20
149.65625
 30
0.0
 11
189.528896544909
 21
149.65625
 31
0.0
  0
LINE
  5
287
  8
MyLines
 10
189.528896544909
 20
149.65625
 30
0.0
 11
188.48024002300977
 21
149.65625
 31
0.0
  0
LINE
  5
288
  8
MyLines
 10
188.48024002300977
 20
149.65625
 30
0.0
 11
187.43158350111048
 21
149.65625
 31
0.0
  0
LINE
  5
289
  8
MyLines
 10
187.43158350111048
 20
149.65625
 30
0.0
 11
186.38292697921125
 21
149.65625
 31
0.0
  0
LINE
  5
28A
  8
MyLines
 10
186.38292697921125
 20
149.65625
 30
0.0
 11
185.33427045731202
 21
149.65625
 31
0.0
  0
LINE
  5
28B
  8
MyLines
 10
185.33427045731202
 20
149.65625
 30
0.0
 11
184.28561393541278
 21
149.65625
 31
0.0
  0
LINE
  5
28C
  8
MyLines
 10
184.28561393541278
 20
149.65625
 30
0.0
 11
183.23695741351352
 21
149.65625
 31
0.0
  0
LINE
  5
28D
  8
MyLines
 10
183.23695741351352
 20
149.65625
 30
0.0
 11
182.18830089161426
 21
149.65625
 31
0.0
  0
LINE
  5
28E
  8
MyLines
 10
182.18830089161426
 20
149.65625
 30
0.0
 11
181.13964436971503
 21
149.65625
 31
0.0
  0
LINE
  5
28F
  8
MyLines
 10
181.13964436971503
 20
149.65625
 30
0.0
 11
180.09098784781577
 21
149.65625
 31
0.0
  0
LINE
  5
290
  8
MyLines
 10
180.09098784781577
 20
149.65625
 30
0.0
 11
179.0423313259165
 21
149.65625
 31
0.0
  0
LINE
  5
291
  8
MyLines
 10
179.0423313259165
 20
149.65625
 30
0.0
 11
177.99367480401727
 21
149.65625
 31
0.0
  0
LINE
  5
292
  8
MyLines
 10
177.99367480401727
 20
149.65625
 30
0.0
 11
176.94501828211804
 21
149.65625
 31
0.0
  0
LINE
  5
293
  8
MyLines
 10
176.94501828211804
 20
149.65625
 30
0.0
 11
175.8963617602188
 21
149.65625
 31
0.0
  0
LINE
  5
294
  8
MyLines
 10
175.8963617602188
 20
149.65625
 30
0.0
 11
174.84770523831952
 21
149.65625
 31
0.0
  0
LINE
  5
295
  8
MyLines
 10
174.84770523831952
 20
149.65625
 30
0.0
 11
173.7990487164203
 21
149.65625
 31
0.0
  0
LINE
  5
296
  8
MyLines
 10
173.7990487164203
 20
149.65625
 30
0.0
 11
173.7990487164203
 21
-137.75
 31
0.0
  0
LINE
  5
297
  8
MyLines
 10
173.7990487164203
 20
-137.75
 30
0.0
 11
173.7990487164203
 21
-137.75
 31
0.0
  0
LINE
  5
298
  8
MyLines
 10
173.7990487164203
 20
-137.75
 30
0.0
 11
174.72125461583522
 21
-137.75
 31
0.0
  0
LINE
  5
299
  8
MyLines
 10
174.72125461583522
 20
-137.75
 30
0.0
 11
175.6434605152501
 21
-137.75
 31
0.0
  0
LINE
  5
29A
  8
MyLines
 10
175.6434605152501
 20
-137.75
 30
0.0
 11
176.565666414665
 21
-137.75
 31
0.0
  0
LINE
  5
29B
  8
MyLines
 10
176.565666414665
 20
-137.75
 30
0.0
 11
177.48787231407994
 21
-137.75
 31
0.0
  0
LINE
  5
29C
  8
MyLines
 10
177.48787231407994
 20
-137.75
 30
0.0
 11
178.41007821349484
 21
-137.75
 31
0.0
  0
LINE
  5
29D
  8
MyLines
 10
178.41007821349484
 20
-137.75
 30
0.0
 11
179.33228411290975
 21
-137.75
 31
0.0
  0
LINE
  5
29E
  8
MyLines
 10
179.33228411290975
 20
-137.75
 30
0.0
 11
180.25449001232468
 21
-137.75
 31
0.0
  0
LINE
  5
29F
  8
MyLines
 10
180.25449001232468
 20
-137.75
 30
0.0
 11
181.17669591173956
 21
-137.75
 31
0.0
  0
LINE
  5
2A0
  8
MyLines
 10
181.17669591173956
 20
-137.75
 30
0.0
 11
182.0989018111545
 21
-137.75
 31
0.0
  0
LINE
  5
2A1
  8
MyLines
 10
182.0989018111545
 20
-137.75
 30
0.0
 11
183.02110771056937
 21
-137.75
 31
0.0
  0
LINE
  5
2A2
  8
MyLines
 10
183.02110771056937
 20
-137.75
 30
0.0
 11
183.9433136099843
 21
-137.75
 31
0.0
  0
LINE
  5
2A3
  8
MyLines
 10
183.9433136099843
 20
-137.75
 30
0.0
 11
184.8655195093992
 21
-137.75
 31
0.0
  0
LINE
  5
2A4
  8
MyLines
 10
184.8655195093992
 20
-137.75
 30
0.0
 11
185.7877254088141
 21
-137.75
 31
0.0
  0
LINE
  5
2A5
  8
MyLines
 10
185.7877254088141
 20
-137.75
 30
0.0
 11
186.70993130822902
 21
-137.75
 31
0.0
  0
LINE
  5
2A6
  8
MyLines
 10
186.70993130822902
 20
-137.75
 30
0.0
 11
187.63213720764395
 21
-137.75
 31
0.0
  0
LINE
  5
2A7
  8
MyLines
 10
187.63213720764395
 20
-137.75
 30
0.0
 11
188.55434310705883
 21
-137.75
 31
0.0
  0
LINE
  5
2A8
  8
MyLines
 10
188.55434310705883
 20
-137.75
 30
0.0
 11
189.47654900647376
 21
-137.75
 31
0.0
  0
LINE
  5
2A9
  8
MyLines
 10
189.47654900647376
 20
-137.75
 30
0.0
 11
190.39875490588864
 21
-137.75
 31
0.0
  0
LINE
  5
2AA
  8
MyLines
 10
190.39875490588864
 20
-137.75
 30
0.0
 11
191.32096080530357
 21
-137.75
 31
0.0
  0
LINE
  5
2AB
  8
MyLines
 10
191.32096080530357
 20
-137.75
 30
0.0
 11
192.24316670471848
 21
-137.75
 31
0.0
  0
LINE
  5
2AC
  8
MyLines
 10
192.24316670471848
 20
-137.75
 30
0.0
 11
193.16537260413338
 21
-137.75
 31
0.0
  0
LINE
  5
2AD
  8
MyLines
 10
193.16537260413338
 20
-137.75
 30
0.0
 11
194.0875785035483
 21
-137.75
 31
0.0
  0
LINE
  5
2AE
  8
MyLines
 10
194.0875785035483
 20
-137.75
 30
0.0
 11
195.00978440296322
 21
-137.75
 31
0.0
  0
LINE
  5
2AF
  8
MyLines
 10
195.00978440296322
 20
-137.75
 30
0.0
 11
195.9319903023781
 21
-137.75
 31
0.0
  0
LINE
  5
2B0
  8
MyLines
 10
195.9319903023781
 20
-137.75
 30
0.0
 11
196.85419620179303
 21
-137.75
 31
0.0
  0
LINE
  5
2B1
  8
MyLines
 10
196.85419620179303
 20
-137.75
 30
0.0
 11
197.7764021012079
 21
-137.75
 31
0.0
  0
LINE
  5
2B2
  8
MyLines
 10
197.7764021012079
 20
-137.75
 30
0.0
 11
198.69860800062284
 21
-137.75
 31
0.0
  0
LINE
  5
2B3
  8
MyLines
 10
198.69860800062284
 20
-137.75
 30
0.0
 11
199.62081390003775
 21
-137.75
 31
0.0
  0
LINE
  5
2B4
  8
MyLines
 10
199.62081390003775
 20
-137.75
 30
0.0
 11
200.54301979945265
 21
-137.75
 31
0.0
  0
LINE
  5
2B5
  8
MyLines
 10
200.54301979945265
 20
-137.75
 30
0.0
 11
201.46522569886756
 21
-137.75
 31
0.0
  0
LINE
  5
2B6
  8
MyLines
 10
201.46522569886756
 20
-137.75
 30
0.0
 11
202.38743159828246
 21
-137.75
 31
0.0
  0
LINE
  5
2B7
  8
MyLines
 10
202.38743159828246
 20
-137.75
 30
0.0
 11
203.30963749769737
 21
-137.75
 31
0.0
  0
LINE
  5
2B8
  8
MyLines
 10
203.30963749769737
 20
-137.75
 30
0.0
 11
204.2318433971123
 21
-137.75
 31
0.0
  0
LINE
  5
2B9
  8
MyLines
 10
204.2318433971123
 20
-137.75
 30
0.0
 11
205.15404929652718
 21
-137.75
 31
0.0
  0
LINE
  5
2BA
  8
MyLines
 10
205.15404929652718
 20
-137.75
 30
0.0
 11
206.0762551959421
 21
-137.75
 31
0.0
  0
LINE
  5
2BB
  8
MyLines
 10
206.0762551959421
 20
-137.75
 30
0.0
 11
206.99846109535704
 21
-137.75
 31
0.0
  0
LINE
  5
2BC
  8
MyLines
 10
206.99846109535704
 20
-137.75
 30
0.0
 11
207.92066699477192
 21
-137.75
 31
0.0
  0
LINE
  5
2BD
  8
MyLines
 10
207.92066699477192
 20
-137.75
 30
0.0
 11
208.84287289418683
 21
-137.75
 31
0.0
  0
LINE
  5
2BE
  8
MyLines
 10
208.84287289418683
 20
-137.75
 30
0.0
 11
209.76507879360173
 21
-137.75
 31
0.0
  0
LINE
  5
2BF
  8
MyLines
 10
209.76507879360173
 20
-137.75
 30
0.0
 11
210.68728469301666
 21
-137.75
 31
0.0
  0
LINE
  5
2C0
  8
MyLines
 10
210.68728469301666
 20
-137.75
 30
0.0
 11
211.60949059243157
 21
-137.75
 31
0.0
  0
LINE
  5
2C1
  8
MyLines
 10
211.60949059243157
 20
-137.75
 30
0.0
 11
212.53169649184645
 21
-137.75
 31
0.0
  0
LINE
  5
2C2
  8
MyLines
 10
212.53169649184645
 20
-137.75
 30
0.0
 11
213.45390239126138
 21
-137.75
 31
0.0
  0
LINE
  5
2C3
  8
MyLines
 10
213.45390239126138
 20
-137.75
 30
0.0
 11
214.3761082906763
 21
-137.75
 31
0.0
  0
LINE
  5
2C4
  8
MyLines
 10
214.3761082906763
 20
-137.75
 30
0.0
 11
215.2983141900912
 21
-137.75
 31
0.0
  0
LINE
  5
2C5
  8
MyLines
 10
215.2983141900912
 20
-137.75
 30
0.0
 11
216.2205200895061
 21
-137.75
 31
0.0
  0
LINE
  5
2C6
  8
MyLines
 10
216.2205200895061
 20
-137.75
 30
0.0
 11
217.142725988921
 21
-137.75
 31
0.0
  0
LINE
  5
2C7
  8
MyLines
 10
217.142725988921
 20
-137.75
 30
0.0
 11
218.06493188833593
 21
-137.75
 31
0.0
  0
LINE
  5
2C8
  8
MyLines
 10
218.06493188833593
 20
-137.75
 30
0.0
 11
218.98713778775084
 21
-137.75
 31
0.0
  0
LINE
  5
2C9
  8
MyLines
 10
218.98713778775084
 20
-137.75
 30
0.0
 11
218.98713778775084
 21
-137.75
 31
0.0
  0
LINE
  5
2CA
  8
MyLines
 10
218.98713778775084
 20
-137.75
 30
0.0
 11
218.98713778775084
 21
145.6875
 31
0.0
  0
LINE
  5
2CB
  8
MyLines
 10
218.98713778775084
 20
145.6875
 30
0.0
 11
218.98713778775084
 21
145.6875
 31
0.0
  0
LINE
  5
2CC
  8
MyLines
 10
218.98713778775084
 20
145.6875
 30
0.0
 11
218.19138251082026
 21
145.6875
 31
0.0
  0
LINE
  5
2CD
  8
MyLines
 10
218.19138251082026
 20
145.6875
 30
0.0
 11
217.3956272338897
 21
145.6875
 31
0.0
  0
LINE
  5
2CE
  8
MyLines
 10
217.3956272338897
 20
145.6875
 30
0.0
 11
216.59987195695913
 21
145.6875
 31
0.0
  0
LINE
  5
2CF
  8
MyLines
 10
216.59987195695913
 20
145.6875
 30
0.0
 11
215.80411668002856
 21
145.6875
 31
0.0
  0
LINE
  5
2D0
  8
MyLines
 10
215.80411668002856
 20
145.6875
 30
0.0
 11
215.00836140309798
 21
145.6875
 31
0.0
  0
LINE
  5
2D1
  8
MyLines
 10
215.00836140309798
 20
145.6875
 30
0.0
 11
214.21260612616743
 21
145.6875
 31
0.0
  0
LINE
  5
2D2
  8
MyLines
 10
214.21260612616743
 20
145.6875
 30
0.0
 11
213.41685084923685
 21
145.6875
 31
0.0
  0
LINE
  5
2D3
  8
MyLines
 10
213.41685084923685
 20
145.6875
 30
0.0
 11
212.62109557230627
 21
145.6875
 31
0.0
  0
LINE
  5
2D4
  8
MyLines
 10
212.62109557230627
 20
145.6875
 30
0.0
 11
211.8253402953757
 21
145.6875
 31
0.0
  0
LINE
  5
2D5
  8
MyLines
 10
211.8253402953757
 20
145.6875
 30
0.0
 11
211.02958501844515
 21
145.6875
 31
0.0
  0
LINE
  5
2D6
  8
MyLines
 10
211.02958501844515
 20
145.6875
 30
0.0
 11
210.23382974151457
 21
145.6875
 31
0.0
  0
LINE
  5
2D7
  8
MyLines
 10
210.23382974151457
 20
145.6875
 30
0.0
 11
209.438074464584
 21
145.6875
 31
0.0
  0
LINE
  5
2D8
  8
MyLines
 10
209.438074464584
 20
145.6875
 30
0.0
 11
208.6423191876534
 21
145.6875
 31
0.0
  0
LINE
  5
2D9
  8
MyLines
 10
208.6423191876534
 20
145.6875
 30
0.0
 11
207.84656391072286
 21
145.6875
 31
0.0
  0
LINE
  5
2DA
  8
MyLines
 10
207.84656391072286
 20
145.6875
 30
0.0
 11
207.0508086337923
 21
145.6875
 31
0.0
  0
LINE
  5
2DB
  8
MyLines
 10
207.0508086337923
 20
145.6875
 30
0.0
 11
206.2550533568617
 21
145.6875
 31
0.0
  0
LINE
  5
2DC
  8
MyLines
 10
206.2550533568617
 20
145.6875
 30
0.0
 11
205.45929807993116
 21
145.6875
 31
0.0
  0
LINE
  5
2DD
  8
MyLines
 10
205.45929807993116
 20
145.6875
 30
0.0
 11
204.66354280300058
 21
145.6875
 31
0.0
  0
LINE
  5
2DE
  8
MyLines
 10
204.66354280300058
 20
145.6875
 30
0.0
 11
203.86778752607
 21
145.6875
 31
0.0
  0
LINE
  5
2DF
  8
MyLines
 10
203.86778752607
 20
145.6875
 30
0.0
 11
203.07203224913943
 21
145.6875
 31
0.0
  0
LINE
  5
2E0
  8
MyLines
 10
203.07203224913943
 20
145.6875
 30
0.0
 11
202.27627697220888
 21
145.6875
 31
0.0
  0
LINE
  5
2E1
  8
MyLines
 10
202.27627697220888
 20
145.6875
 30
0.0
 11
201.4805216952783
 21
145.6875
 31
0.0
  0
LINE
  5
2E2
  8
MyLines
 10
201.4805216952783
 20
145.6875
 30
0.0
 11
200.68476641834772
 21
145.6875
 31
0.0
  0
LINE
  5
2E3
  8
MyLines
 10
200.68476641834772
 20
145.6875
 30
0.0
 11
199.88901114141714
 21
145.6875
 31
0.0
  0
LINE
  5
2E4
  8
MyLines
 10
199.88901114141714
 20
145.6875
 30
0.0
 11
199.0932558644866
 21
145.6875
 31
0.0
  0
LINE
  5
2E5
  8
MyLines
 10
199.0932558644866
 20
145.6875
 30
0.0
 11
198.29750058755602
 21
145.6875
 31
0.0
  0
LINE
  5
2E6
  8
MyLines
 10
198.29750058755602
 20
145.6875
 30
0.0
 11
197.50174531062544
 21
145.6875
 31
0.0
  0
LINE
  5
2E7
  8
MyLines
 10
197.50174531062544
 20
145.6875
 30
0.0
 11
196.7059900336949
 21
145.6875
 31
0.0
  0
LINE
  5
2E8
  8
MyLines
 10
196.7059900336949
 20
145.6875
 30
0.0
 11
195.9102347567643
 21
145.6875
 31
0.0
  0
LINE
  5
2E9
  8
MyLines
 10
195.9102347567643
 20
145.6875
 30
0.0
 11
195.11447947983373
 21
145.6875
 31
0.0
  0
LINE
  5
2EA
  8
MyLines
 10
195.11447947983373
 20
145.6875
 30
0.0
 11
194.31872420290316
 21
145.6875
 31
0.0
  0
LINE
  5
2EB
  8
MyLines
 10
194.31872420290316
 20
145.6875
 30
0.0
 11
193.52296892597258
 21
145.6875
 31
0.0
  0
LINE
  5
2EC
  8
MyLines
 10
193.52296892597258
 20
145.6875
 30
0.0
 11
192.72721364904203
 21
145.6875
 31
0.0
  0
LINE
  5
2ED
  8
MyLines
 10
192.72721364904203
 20
145.6875
 30
0.0
 11
191.93145837211145
 21
145.6875
 31
0.0
  0
LINE
  5
2EE
  8
MyLines
 10
191.93145837211145
 20
145.6875
 30
0.0
 11
191.13570309518087
 21
145.6875
 31
0.0
  0
LINE
  5
2EF
  8
MyLines
 10
191.13570309518087
 20
145.6875
 30
0.0
 11
190.33994781825032
 21
145.6875
 31
0.0
  0
LINE
  5
2F0
  8
MyLines
 10
190.33994781825032
 20
145.6875
 30
0.0
 11
189.54419254131975
 21
145.6875
 31
0.0
  0
LINE
  5
2F1
  8
MyLines
 10
189.54419254131975
 20
145.6875
 30
0.0
 11
188.74843726438917
 21
145.6875
 31
0.0
  0
LINE
  5
2F2
  8
MyLines
 10
188.74843726438917
 20
145.6875
 30
0.0
 11
187.9526819874586
 21
145.6875
 31
0.0
  0
LINE
  5
2F3
  8
MyLines
 10
187.9526819874586
 20
145.6875
 30
0.0
 11
187.156926710528
 21
145.6875
 31
0.0
  0
LINE
  5
2F4
  8
MyLines
 10
187.156926710528
 20
145.6875
 30
0.0
 11
186.36117143359746
 21
145.6875
 31
0.0
  0
LINE
  5
2F5
  8
MyLines
 10
186.36117143359746
 20
145.6875
 30
0.0
 11
185.56541615666688
 21
145.6875
 31
0.0
  0
LINE
  5
2F6
  8
MyLines
 10
185.56541615666688
 20
145.6875
 30
0.0
 11
184.7696608797363
 21
145.6875
 31
0.0
  0
LINE
  5
2F7
  8
MyLines
 10
184.7696608797363
 20
145.6875
 30
0.0
 11
183.97390560280576
 21
145.6875
 31
0.0
  0
LINE
  5
2F8
  8
MyLines
 10
183.97390560280576
 20
145.6875
 30
0.0
 11
183.17815032587518
 21
145.6875
 31
0.0
  0
LINE
  5
2F9
  8
MyLines
 10
183.17815032587518
 20
145.6875
 30
0.0
 11
182.3823950489446
 21
145.6875
 31
0.0
  0
LINE
  5
2FA
  8
MyLines
 10
182.3823950489446
 20
145.6875
 30
0.0
 11
181.58663977201405
 21
145.6875
 31
0.0
  0
LINE
  5
2FB
  8
MyLines
 10
181.58663977201405
 20
145.6875
 30
0.0
 11
180.79088449508347
 21
145.6875
 31
0.0
  0
LINE
  5
2FC
  8
MyLines
 10
180.79088449508347
 20
145.6875
 30
0.0
 11
179.9951292181529
 21
145.6875
 31
0.0
  0
LINE
  5
2FD
  8
MyLines
 10
179.9951292181529
 20
145.6875
 30
0.0
 11
179.9951292181529
 21
-133.78125
 31
0.0
  0
LINE
  5
2FE
  8
MyLines
 10
179.9951292181529
 20
-133.78125
 30
0.0
 11
179.9951292181529
 21
-133.78125
 31
0.0
  0
LINE
  5
2FF
  8
MyLines
 10
179.9951292181529
 20
-133.78125
 30
0.0
 11
180.55673334847046
 21
-133.78125
 31
0.0
  0
LINE
  5
300
  8
MyLines
 10
180.55673334847046
 20
-133.78125
 30
0.0
 11
181.118337478788
 21
-133.78125
 31
0.0
  0
LINE
  5
301
  8
MyLines
 10
181.118337478788
 20
-133.78125
 30
0.0
 11
181.67994160910555
 21
-133.78125
 31
0.0
  0
LINE
  5
302
  8
MyLines
 10
181.67994160910555
 20
-133.78125
 30
0.0
 11
182.24154573942312
 21
-133.78125
 31
0.0
  0
LINE
  5
303
  8
MyLines
 10
182.24154573942312
 20
-133.78125
 30
0.0
 11
182.80314986974065
 21
-133.78125
 31
0.0
  0
LINE
  5
304
  8
MyLines
 10
182.80314986974065
 20
-133.78125
 30
0.0
 11
183.36475400005818
 21
-133.78125
 31
0.0
  0
LINE
  5
305
  8
MyLines
 10
183.36475400005818
 20
-133.78125
 30
0.0
 11
183.92635813037575
 21
-133.78125
 31
0.0
  0
LINE
  5
306
  8
MyLines
 10
183.92635813037575
 20
-133.78125
 30
0.0
 11
184.4879622606933
 21
-133.78125
 31
0.0
  0
LINE
  5
307
  8
MyLines
 10
184.4879622606933
 20
-133.78125
 30
0.0
 11
185.04956639101084
 21
-133.78125
 31
0.0
  0
LINE
  5
308
  8
MyLines
 10
185.04956639101084
 20
-133.78125
 30
0.0
 11
185.6111705213284
 21
-133.78125
 31
0.0
  0
LINE
  5
309
  8
MyLines
 10
185.6111705213284
 20
-133.78125
 30
0.0
 11
186.17277465164597
 21
-133.78125
 31
0.0
  0
LINE
  5
30A
  8
MyLines
 10
186.17277465164597
 20
-133.78125
 30
0.0
 11
186.7343787819635
 21
-133.78125
 31
0.0
  0
LINE
  5
30B
  8
MyLines
 10
186.7343787819635
 20
-133.78125
 30
0.0
 11
187.29598291228103
 21
-133.78125
 31
0.0
  0
LINE
  5
30C
  8
MyLines
 10
187.29598291228103
 20
-133.78125
 30
0.0
 11
187.8575870425986
 21
-133.78125
 31
0.0
  0
LINE
  5
30D
  8
MyLines
 10
187.8575870425986
 20
-133.78125
 30
0.0
 11
188.41919117291616
 21
-133.78125
 31
0.0
  0
LINE
  5
30E
  8
MyLines
 10
188.41919117291616
 20
-133.78125
 30
0.0
 11
188.9807953032337
 21
-133.78125
 31
0.0
  0
LINE
  5
30F
  8
MyLines
 10
188.9807953032337
 20
-133.78125
 30
0.0
 11
189.54239943355125
 21
-133.78125
 31
0.0
  0
LINE
  5
310
  8
MyLines
 10
189.54239943355125
 20
-133.78125
 30
0.0
 11
190.10400356386882
 21
-133.78125
 31
0.0
  0
LINE
  5
311
  8
MyLines
 10
190.10400356386882
 20
-133.78125
 30
0.0
 11
190.66560769418635
 21
-133.78125
 31
0.0
  0
LINE
  5
312
  8
MyLines
 10
190.66560769418635
 20
-133.78125
 30
0.0
 11
191.2272118245039
 21
-133.78125
 31
0.0
  0
LINE
  5
313
  8
MyLines
 10
191.2272118245039
 20
-133.78125
 30
0.0
 11
191.78881595482144
 21
-133.78125
 31
0.0
  0
LINE
  5
314
  8
MyLines
 10
191.78881595482144
 20
-133.78125
 30
0.0
 11
192.350420085139
 21
-133.78125
 31
0.0
  0
LINE
  5
315
  8
MyLines
 10
192.350420085139
 20
-133.78125
 30
0.0
 11
192.91202421545654
 21
-133.78125
 31
0.0
  0
LINE
  5
316
  8
MyLines
 10
192.91202421545654
 20
-133.78125
 30
0.0
 11
193.4736283457741
 21
-133.78125
 31
0.0
  0
LINE
  5
317
  8
MyLines
 10
193.4736283457741
 20
-133.78125
 30
0.0
 11
194.03523247609166
 21
-133.78125
 31
0.0
  0
LINE
  5
318
  8
MyLines
 10
194.03523247609166
 20
-133.78125
 30
0.0
 11
194.5968366064092
 21
-133.78125
 31
0.0
  0
LINE
  5
319
  8
MyLines
 10
194.5968366064092
 20
-133.78125
 30
0.0
 11
195.15844073672676
 21
-133.78125
 31
0.0
  0
LINE
  5
31A
  8
MyLines
 10
195.15844073672676
 20
-133.78125
 30
0.0
 11
195.72004486704432
 21
-133.78125
 31
0.0
  0
LINE
  5
31B
  8
MyLines
 10
195.72004486704432
 20
-133.78125
 30
0.0
 11
196.28164899736188
 21
-133.78125
 31
0.0
  0
LINE
  5
31C
  8
MyLines
 10
196.28164899736188
 20
-133.78125
 30
0.0
 11
196.8432531276794
 21
-133.78125
 31
0.0
  0
LINE
  5
31D
  8
MyLines
 10
196.8432531276794
 20
-133.78125
 30
0.0
 11
197.40485725799695
 21
-133.78125
 31
0.0
  0
LINE
  5
31E
  8
MyLines
 10
197.40485725799695
 20
-133.78125
 30
0.0
 11
197.9664613883145
 21
-133.78125
 31
0.0
  0
LINE
  5
31F
  8
MyLines
 10
197.9664613883145
 20
-133.78125
 30
0.0
 11
198.52806551863205
 21
-133.78125
 31
0.0
  0
LINE
  5
320
  8
MyLines
 10
198.52806551863205
 20
-133.78125
 30
0.0
 11
199.0896696489496
 21
-133.78125
 31
0.0
  0
LINE
  5
321
  8
MyLines
 10
199.0896696489496
 20
-133.78125
 30
0.0
 11
199.65127377926717
 21
-133.78125
 31
0.0
  0
LINE
  5
322
  8
MyLines
 10
199.65127377926717
 20
-133.78125
 30
0.0
 11
200.21287790958473
 21
-133.78125
 31
0.0
  0
LINE
  5
323
  8
MyLines
 10
200.21287790958473
 20
-133.78125
 30
0.0
 11
200.77448203990224
 21
-133.78125
 31
0.0
  0
LINE
  5
324
  8
MyLines
 10
200.77448203990224
 20
-133.78125
 30
0.0
 11
201.3360861702198
 21
-133.78125
 31
0.0
  0
LINE
  5
325
  8
MyLines
 10
201.3360861702198
 20
-133.78125
 30
0.0
 11
201.89769030053736
 21
-133.78125
 31
0.0
  0
LINE
  5
326
  8
MyLines
 10
201.89769030053736
 20
-133.78125
 30
0.0
 11
202.4592944308549
 21
-133.78125
 31
0.0
  0
LINE
  5
327
  8
MyLines
 10
202.4592944308549
 20
-133.78125
 30
0.0
 11
203.02089856117246
 21
-133.78125
 31
0.0
  0
LINE
  5
328
  8
MyLines
 10
203.02089856117246
 20
-133.78125
 30
0.0
 11
203.58250269149002
 21
-133.78125
 31
0.0
  0
LINE
  5
329
  8
MyLines
 10
203.58250269149002
 20
-133.78125
 30
0.0
 11
204.14410682180758
 21
-133.78125
 31
0.0
  0
LINE
  5
32A
  8
MyLines
 10
204.14410682180758
 20
-133.78125
 30
0.0
 11
204.70571095212512
 21
-133.78125
 31
0.0
  0
LINE
  5
32B
  8
MyLines
 10
204.70571095212512
 20
-133.78125
 30
0.0
 11
205.26731508244268
 21
-133.78125
 31
0.0
  0
LINE
  5
32C
  8
MyLines
 10
205.26731508244268
 20
-133.78125
 30
0.0
 11
205.8289192127602
 21
-133.78125
 31
0.0
  0
LINE
  5
32D
  8
MyLines
 10
205.8289192127602
 20
-133.78125
 30
0.0
 11
206.39052334307775
 21
-133.78125
 31
0.0
  0
LINE
  5
32E
  8
MyLines
 10
206.39052334307775
 20
-133.78125
 30
0.0
 11
206.9521274733953
 21
-133.78125
 31
0.0
  0
LINE
  5
32F
  8
MyLines
 10
206.9521274733953
 20
-133.78125
 30
0.0
 11
207.51373160371287
 21
-133.78125
 31
0.0
  0
LINE
  5
330
  8
MyLines
 10
207.51373160371287
 20
-133.78125
 30
0.0
 11
207.51373160371287
 21
-133.78125
 31
0.0
  0
LINE
  5
331
  8
MyLines
 10
207.51373160371287
 20
-133.78125
 30
0.0
 11
207.51373160371287
 21
141.71875
 31
0.0
  0
LINE
  5
332
  8
MyLines
 10
207.51373160371287
 20
141.71875
 30
0.0
 11
207.51373160371287
 21
141.71875
 31
0.0
  0
LINE
  5
333
  8
MyLines
 10
207.51373160371287
 20
141.71875
 30
0.0
 11
207.18627862000832
 21
141.71875
 31
0.0
  0
LINE
  5
334
  8
MyLines
 10
207.18627862000832
 20
141.71875
 30
0.0
 11
206.8588256363038
 21
141.71875
 31
0.0
  0
LINE
  5
335
  8
MyLines
 10
206.8588256363038
 20
141.71875
 30
0.0
 11
206.5313726525993
 21
141.71875
 31
0.0
  0
LINE
  5
336
  8
MyLines
 10
206.5313726525993
 20
141.71875
 30
0.0
 11
206.20391966889474
 21
141.71875
 31
0.0
  0
LINE
  5
337
  8
MyLines
 10
206.20391966889474
 20
141.71875
 30
0.0
 11
205.87646668519022
 21
141.71875
 31
0.0
  0
LINE
  5
338
  8
MyLines
 10
205.87646668519022
 20
141.71875
 30
0.0
 11
205.54901370148568
 21
141.71875
 31
0.0
  0
LINE
  5
339
  8
MyLines
 10
205.54901370148568
 20
141.71875
 30
0.0
 11
205.22156071778116
 21
141.71875
 31
0.0
  0
LINE
  5
33A
  8
MyLines
 10
205.22156071778116
 20
141.71875
 30
0.0
 11
204.8941077340766
 21
141.71875
 31
0.0
  0
LINE
  5
33B
  8
MyLines
 10
204.8941077340766
 20
141.71875
 30
0.0
 11
204.5666547503721
 21
141.71875
 31
0.0
  0
LINE
  5
33C
  8
MyLines
 10
204.5666547503721
 20
141.71875
 30
0.0
 11
204.23920176666758
 21
141.71875
 31
0.0
  0
LINE
  5
33D
  8
MyLines
 10
204.23920176666758
 20
141.71875
 30
0.0
 11
203.91174878296303
 21
141.71875
 31
0.0
  0
LINE
  5
33E
  8
MyLines
 10
203.91174878296303
 20
141.71875
 30
0.0
 11
203.5842957992585
 21
141.71875
 31
0.0
  0
LINE
  5
33F
  8
MyLines
 10
203.5842957992585
 20
141.71875
 30
0.0
 11
203.25684281555397
 21
141.71875
 31
0.0
  0
LINE
  5
340
  8
MyLines
 10
203.25684281555397
 20
141.71875
 30
0.0
 11
202.92938983184945
 21
141.71875
 31
0.0
  0
LINE
  5
341
  8
MyLines
 10
202.92938983184945
 20
141.71875
 30
0.0
 11
202.6019368481449
 21
141.71875
 31
0.0
  0
LINE
  5
342
  8
MyLines
 10
202.6019368481449
 20
141.71875
 30
0.0
 11
202.27448386444038
 21
141.71875
 31
0.0
  0
LINE
  5
343
  8
MyLines
 10
202.27448386444038
 20
141.71875
 30
0.0
 11
201.94703088073587
 21
141.71875
 31
0.0
  0
LINE
  5
344
  8
MyLines
 10
201.94703088073587
 20
141.71875
 30
0.0
 11
201.61957789703132
 21
141.71875
 31
0.0
  0
LINE
  5
345
  8
MyLines
 10
201.61957789703132
 20
141.71875
 30
0.0
 11
201.2921249133268
 21
141.71875
 31
0.0
  0
LINE
  5
346
  8
MyLines
 10
201.2921249133268
 20
141.71875
 30
0.0
 11
200.96467192962226
 21
141.71875
 31
0.0
  0
LINE
  5
347
  8
MyLines
 10
200.96467192962226
 20
141.71875
 30
0.0
 11
200.63721894591774
 21
141.71875
 31
0.0
  0
LINE
  5
348
  8
MyLines
 10
200.63721894591774
 20
141.71875
 30
0.0
 11
200.3097659622132
 21
141.71875
 31
0.0
  0
LINE
  5
349
  8
MyLines
 10
200.3097659622132
 20
141.71875
 30
0.0
 11
199.98231297850867
 21
141.71875
 31
0.0
  0
LINE
  5
34A
  8
MyLines
 10
199.98231297850867
 20
141.71875
 30
0.0
 11
199.65485999480416
 21
141.71875
 31
0.0
  0
LINE
  5
34B
  8
MyLines
 10
199.65485999480416
 20
141.71875
 30
0.0
 11
199.3274070110996
 21
141.71875
 31
0.0
  0
LINE
  5
34C
  8
MyLines
 10
199.3274070110996
 20
141.71875
 30
0.0
 11
198.99995402739506
 21
141.71875
 31
0.0
  0
LINE
  5
34D
  8
MyLines
 10
198.99995402739506
 20
141.71875
 30
0.0
 11
198.67250104369054
 21
141.71875
 31
0.0
  0
LINE
  5
34E
  8
MyLines
 10
198.67250104369054
 20
141.71875
 30
0.0
 11
198.345048059986
 21
141.71875
 31
0.0
  0
LINE
  5
34F
  8
MyLines
 10
198.345048059986
 20
141.71875
 30
0.0
 11
198.01759507628145
 21
141.71875
 31
0.0
  0
LINE
  5
350
  8
MyLines
 10
198.01759507628145
 20
141.71875
 30
0.0
 11
197.69014209257693
 21
141.71875
 31
0.0
  0
LINE
  5
351
  8
MyLines
 10
197.69014209257693
 20
141.71875
 30
0.0
 11
197.36268910887242
 21
141.71875
 31
0.0
  0
LINE
  5
352
  8
MyLines
 10
197.36268910887242
 20
141.71875
 30
0.0
 11
197.03523612516787
 21
141.71875
 31
0.0
  0
LINE
  5
353
  8
MyLines
 10
197.03523612516787
 20
141.71875
 30
0.0
 11
196.70778314146335
 21
141.71875
 31
0.0
  0
LINE
  5
354
  8
MyLines
 10
196.70778314146335
 20
141.71875
 30
0.0
 11
196.3803301577588
 21
141.71875
 31
0.0
  0
LINE
  5
355
  8
MyLines
 10
196.3803301577588
 20
141.71875
 30
0.0
 11
196.0528771740543
 21
141.71875
 31
0.0
  0
LINE
  5
356
  8
MyLines
 10
196.0528771740543
 20
141.71875
 30
0.0
 11
195.72542419034974
 21
141.71875
 31
0.0
  0
LINE
  5
357
  8
MyLines
 10
195.72542419034974
 20
141.71875
 30
0.0
 11
195.39797120664522
 21
141.71875
 31
0.0
  0
LINE
  5
358
  8
MyLines
 10
195.39797120664522
 20
141.71875
 30
0.0
 11
195.0705182229407
 21
141.71875
 31
0.0
  0
LINE
  5
359
  8
MyLines
 10
195.0705182229407
 20
141.71875
 30
0.0
 11
194.74306523923616
 21
141.71875
 31
0.0
  0
LINE
  5
35A
  8
MyLines
 10
194.74306523923616
 20
141.71875
 30
0.0
 11
194.41561225553164
 21
141.71875
 31
0.0
  0
LINE
  5
35B
  8
MyLines
 10
194.41561225553164
 20
141.71875
 30
0.0
 11
194.0881592718271
 21
141.71875
 31
0.0
  0
LINE
  5
35C
  8
MyLines
 10
194.0881592718271
 20
141.71875
 30
0.0
 11
193.76070628812258
 21
141.71875
 31
0.0
  0
LINE
  5
35D
  8
MyLines
 10
193.76070628812258
 20
141.71875
 30
0.0
 11
193.43325330441803
 21
141.71875
 31
0.0
  0
LINE
  5
35E
  8
MyLines
 10
193.43325330441803
 20
141.71875
 30
0.0
 11
193.1058003207135
 21
141.71875
 31
0.0
  0
LINE
  5
35F
  8
MyLines
 10
193.1058003207135
 20
141.71875
 30
0.0
 11
192.778347337009
 21
141.71875
 31
0.0
  0
LINE
  5
360
  8
MyLines
 10
192.778347337009
 20
141.71875
 30
0.0
 11
192.45089435330445
 21
141.71875
 31
0.0
  0
LINE
  5
361
  8
MyLines
 10
192.45089435330445
 20
141.71875
 30
0.0
 11
192.12344136959993
 21
141.71875
 31
0.0
  0
LINE
  5
362
  8
MyLines
 10
192.12344136959993
 20
141.71875
 30
0.0
 11
191.79598838589538
 21
141.71875
 31
0.0
  0
LINE
  5
363
  8
MyLines
 10
191.79598838589538
 20
141.71875
 30
0.0
 11
191.46853540219087
 21
141.71875
 31
0.0
  0
LINE
  5
364
  8
MyLines
 10
191.46853540219087
 20
141.71875
 30
0.0
 11
191.46853540219087
 21
-129.8125
 31
0.0
  0
LINE
  5
365
  8
MyLines
 10
191.46853540219087
 20
-129.8125
 30
0.0
 11
191.46853540219087
 21
-129.8125
 31
0.0
  0
LINE
  5
366
  8
MyLines
 10
191.46853540219087
 20
-129.8125
 30
0.0
 11
191.46853540219087
 21
-129.8125
 31
0.0
  0
LINE
  5
367
  8
MyLines
 10
191.46853540219087
 20
-129.8125
 30
0.0
 11
191.46853540219087
 21
-129.8125
 31
0.0
  0
LINE
  5
368
  8
MyLines
 10
191.46853540219087
 20
-129.8125
 30
0.0
 11
191.46853540219087
 21
-129.8125
 31
0.0
  0
LINE
  5
369
  8
MyLines
 10
191.46853540219087
 20
-129.8125
 30
0.0
 11
191.46853540219087
 21
-129.8125
 31
0.0
  0
LINE
  5
36A
  8
MyLines
 10
191.46853540219087
 20
-129.8125
 30
0.0
 11
191.46853540219087
 21
-129.8125
 31
0.0
  0
LINE
  5
36B
  8
MyLines
 10
191.46853540219087
 20
-129.8125
 30
0.0
 11
191.46853540219087
 21
-129.8125
 31
0.0
  0
LINE
  5
36C
  8
MyLines
 10
191.46853540219087
 20
-129.8125
 30
0.0
 11
191.46853540219087
 21
-129.8125
 31
0.0
  0
LINE
  5
36D
  8
MyLines
 10
191.46853540219087
 20
-129.8125
 30
0.0
 11
191.46853540219087
 21
-129.8125
 31
0.0
  0
LINE
  5
36E
  8
MyLines
 10
191.46853540219087
 20
-129.8125
 30
0.0
 11
191.46853540219087
 21
-129.8125
 31
0.0
  0
LINE
  5
36F
  8
MyLines
 10
191.46853540219087
 20
-129.8125
 30
0.0
 11
191.46853540219087
 21
-129.8125
 31
0.0
  0
LINE
  5
370
  8
MyLines
 10
191.46853540219087
 20
-129.8125
 30
0.0
 11
191.46853540219087
 21
-129.8125
 31
0.0
  0
LINE
  5
371
  8
MyLines
 10
191.46853540219087
 20
-129.8125
 30
0.0
 11
191.46853540219087
 21
-129.8125
 31
0.0
  0
LINE
  5
372
  8
MyLines
 10
191.46853540219087
 20
-129.8125
 30
0.0
 11
191.46853540219087
 21
-129.8125
 31
0.0
  0
LINE
  5
373
  8
MyLines
 10
191.46853540219087
 20
-129.8125
 30
0.0
 11
191.46853540219087
 21
-129.8125
 31
0.0
  0
LINE
  5
374
  8
MyLines
 10
191.46853540219087
 20
-129.8125
 30
0.0
 11
191.46853540219087
 21
-129.8125
 31
0.0
  0
LINE
  5
375
  8
MyLines
 10
191.46853540219087
 20
-129.8125
 30
0.0
 11
191.46853540219087
 21
-129.8125
 31
0.0
  0
LINE
  5
376
  8
MyLines
 10
191.46853540219087
 20
-129.8125
 30
0.0
 11
191.46853540219087
 21
-129.8125
 31
0.0
  0
LINE
  5
377
  8
MyLines
 10
191.46853540219087
 20
-129.8125
 30
0.0
 11
191.46853540219087
 21
-129.8125
 31
0.0
  0
LINE
  5
378
  8
MyLines
 10
191.46853540219087
 20
-129.8125
 30
0.0
 11
191.46853540219087
 21
-129.8125
 31
0.0
  0
LINE
  5
379
  8
MyLines
 10
191.46853540219087
 20
-129.8125
 30
0.0
 11
191.46853540219087
 21
-129.8125
 31
0.0
  0
LINE
  5
37A
  8
MyLines
 10
191.46853540219087
 20
-129.8125
 30
0.0
 11
191.46853540219087
 21
-129.8125
 31
0.0
  0
LINE
  5
37B
  8
MyLines
 10
191.46853540219087
 20
-129.8125
 30
0.0
 11
191.46853540219087
 21
-129.8125
 31
0.0
  0
LINE
  5
37C
  8
MyLines
 10
191.46853540219087
 20
-129.8125
 30
0.0
 11
191.46853540219087
 21
-129.8125
 31
0.0
  0
LINE
  5
37D
  8
MyLines
 10
191.46853540219087
 20
-129.8125
 30
0.0
 11
191.46853540219087
 21
-129.8125
 31
0.0
  0
LINE
  5
37E
  8
MyLines
 10
191.46853540219087
 20
-129.8125
 30
0.0
 11
191.46853540219087
 21
-129.8125
 31
0.0
  0
LINE
  5
37F
  8
MyLines
 10
191.46853540219087
 20
-129.8125
 30
0.0
 11
191.46853540219087
 21
-129.8125
 31
0.0
  0
LINE
  5
380
  8
MyLines
 10
191.46853540219087
 20
-129.8125
 30
0.0
 11
191.46853540219087
 21
-129.8125
 31
0.0
  0
LINE
  5
381
  8
MyLines
 10
191.46853540219087
 20
-129.8125
 30
0.0
 11
191.46853540219087
 21
-129.8125
 31
0.0
  0
LINE
  5
382
  8
MyLines
 10
191.46853540219087
 20
-129.8125
 30
0.0
 11
191.46853540219087
 21
-129.8125
 31
0.0
  0
LINE
  5
383
  8
MyLines
 10
191.46853540219087
 20
-129.8125
 30
0.0
 11
191.46853540219087
 21
-129.8125
 31
0.0
  0
LINE
  5
384
  8
MyLines
 10
191.46853540219087
 20
-129.8125
 30
0.0
 11
191.46853540219087
 21
-129.8125
 31
0.0
  0
LINE
  5
385
  8
MyLines
 10
191.46853540219087
 20
-129.8125
 30
0.0
 11
191.46853540219087
 21
-129.8125
 31
0.0
  0
LINE
  5
386
  8
MyLines
 10
191.46853540219087
 20
-129.8125
 30
0.0
 11
191.46853540219087
 21
-129.8125
 31
0.0
  0
LINE
  5
387
  8
MyLines
 10
191.46853540219087
 20
-129.8125
 30
0.0
 11
191.46853540219087
 21
-129.8125
 31
0.0
  0
LINE
  5
388
  8
MyLines
 10
191.46853540219087
 20
-129.8125
 30
0.0
 11
191.46853540219087
 21
-129.8125
 31
0.0
  0
LINE
  5
389
  8
MyLines
 10
191.46853540219087
 20
-129.8125
 30
0.0
 11
191.46853540219087
 21
-129.8125
 31
0.0
  0
LINE
  5
38A
  8
MyLines
 10
191.46853540219087
 20
-129.8125
 30
0.0
 11
191.46853540219087
 21
-129.8125
 31
0.0
  0
LINE
  5
38B
  8
MyLines
 10
191.46853540219087
 20
-129.8125
 30
0.0
 11
191.46853540219087
 21
-129.8125
 31
0.0
  0
LINE
  5
38C
  8
MyLines
 10
191.46853540219087
 20
-129.8125
 30
0.0
 11
191.46853540219087
 21
-129.8125
 31
0.0
  0
LINE
  5
38D
  8
MyLines
 10
191.46853540219087
 20
-129.8125
 30
0.0
 11
191.46853540219087
 21
-129.8125
 31
0.0
  0
LINE
  5
38E
  8
MyLines
 10
191.46853540219087
 20
-129.8125
 30
0.0
 11
191.46853540219087
 21
-129.8125
 31
0.0
  0
LINE
  5
38F
  8
MyLines
 10
191.46853540219087
 20
-129.8125
 30
0.0
 11
191.46853540219087
 21
-129.8125
 31
0.0
  0
LINE
  5
390
  8
MyLines
 10
191.46853540219087
 20
-129.8125
 30
0.0
 11
191.46853540219087
 21
-129.8125
 31
0.0
  0
LINE
  5
391
  8
MyLines
 10
191.46853540219087
 20
-129.8125
 30
0.0
 11
191.46853540219087
 21
-129.8125
 31
0.0
  0
LINE
  5
392
  8
MyLines
 10
191.46853540219087
 20
-129.8125
 30
0.0
 11
191.46853540219087
 21
-129.8125
 31
0.0
  0
LINE
  5
393
  8
MyLines
 10
191.46853540219087
 20
-129.8125
 30
0.0
 11
191.46853540219087
 21
-129.8125
 31
0.0
  0
LINE
  5
394
  8
MyLines
 10
191.46853540219087
 20
-129.8125
 30
0.0
 11
191.46853540219087
 21
-129.8125
 31
0.0
  0
LINE
  5
395
  8
MyLines
 10
191.46853540219087
 20
-129.8125
 30
0.0
 11
191.46853540219087
 21
-129.8125
 31
0.0
  0
LINE
  5
396
  8
MyLines
 10
191.46853540219087
 20
-129.8125
 30
0.0
 11
191.46853540219087
 21
-129.8125
 31
0.0
  0
ENDSEC
  0
EOF
