  0
SECTION
  2
HEADER
  9
$ACADVER
  1
AC1009
  9
$DWGCODEPAGE
  3
ANSI_1252
  9
$INSBASE
 10
0.0
 20
0.0
 30
0.0
  9
$EXTMIN
 10
1e+20
 20
1e+20
 30
1e+20
  9
$EXTMAX
 10
-1e+20
 20
-1e+20
 30
-1e+20
  9
$LIMMIN
 10
0.0
 20
0.0
  9
$LIMMAX
 10
420.0
 20
297.0
  9
$ORTHOMODE
 70
0
  9
$REGENMODE
 70
1
  9
$FILLMODE
 70
1
  9
$DRAGMODE
 70
2
  9
$QTEXTMODE
 70
0
  9
$MIRRTEXT
 70
1
  9
$OSMODE
 70
20583
  9
$LTSCALE
 40
1.0
  9
$ATTMODE
 70
1
  9
$TEXTSIZE
 40
2.5
  9
$TRACEWID
 40
1.0
  9
$TEXTSTYLE
  7
Standard
  9
$CLAYER
  8
0
  9
$CELTYPE
  6
ByLayer
  9
$CECOLOR
 62
256
  9
$DIMSCALE
 40
1.0
  9
$DIMASZ
 40
2.5
  9
$DIMEXO
 40
0.625
  9
$DIMDLI
 40
3.75
  9
$DIMRND
 40
0.0
  9
$DIMDLE
 40
0.0
  9
$DIMEXE
 40
1.25
  9
$DIMTP
 40
0.0
  9
$DIMTM
 40
0.0
  9
$DIMTXT
 40
2.5
  9
$DIMCEN
 40
2.5
  9
$DIMTSZ
 40
0.0
  9
$DIMTOL
 70
0
  9
$DIMLIM
 70
0
  9
$DIMTIH
 70
0
  9
$DIMTOH
 70
0
  9
$DIMSE1
 70
0
  9
$DIMSE2
 70
0
  9
$DIMTAD
 70
1
  9
$DIMZIN
 70
8
  9
$DIMBLK
  1

  9
$DIMASO
 70
1
  9
$DIMSHO
 70
1
  9
$DIMPOST
  1

  9
$DIMAPOST
  1

  9
$DIMALT
 70
0
  9
$DIMALTD
 70
3
  9
$DIMALTF
 40
0.03937007874
  9
$DIMLFAC
 40
1.0
  9
$DIMTOFL
 70
1
  9
$DIMTVP
 40
0.0
  9
$DIMTIX
 70
0
  9
$DIMSOXD
 70
0
  9
$DIMSAH
 70
0
  9
$DIMBLK1
  1

  9
$DIMBLK2
  1

  9
$DIMSTYLE
  2
ISO-25
  9
$DIMCLRD
 70
0
  9
$DIMCLRE
 70
0
  9
$DIMCLRT
 70
0
  9
$DIMTFAC
 40
1.0
  9
$DIMGAP
 40
0.625
  9
$COORDS
 70
1
  9
$ATTDIA
 70
0
  9
$ATTREQ
 70
1
  9
$HANDLING
 70
1
  9
$LUNITS
 70
2
  9
$LUPREC
 70
4
  9
$SKETCHINC
 40
1.0
  9
$FILLETRAD
 40
10.0
  9
$AUNITS
 70
0
  9
$AUPREC
 70
2
  9
$MENU
  1
.
  9
$ELEVATION
 40
0.0
  9
$PELEVATION
 40
0.0
  9
$THICKNESS
 40
0.0
  9
$LIMCHECK
 70
0
  9
$CHAMFERA
 40
0.0
  9
$CHAMFERB
 40
0.0
  9
$SKPOLY
 70
0
  9
$TDCREATE
 40
2459340.736284722
  9
$TDUPDATE
 40
2459340.736284722
  9
$TDINDWG
 40
0.0
  9
$TDUSRTIMER
 40
0.0
  9
$USRTIMER
 70
1
  9
$ANGBASE
 50
0.0
  9
$ANGDIR
 70
0
  9
$PDMODE
 70
0
  9
$PDSIZE
 40
0.0
  9
$PLINEWID
 40
0.0
  9
$SPLFRAME
 70
0
  9
$SPLINETYPE
 70
6
  9
$SPLINESEGS
 70
8
  9
$HANDSEED
  5
398
  9
$SURFTAB1
 70
6
  9
$SURFTAB2
 70
6
  9
$SURFTYPE
 70
6
  9
$SURFU
 70
6
  9
$SURFV
 70
6
  9
$UCSNAME
  2

  9
$UCSORG
 10
0.0
 20
0.0
 30
0.0
  9
$UCSXDIR
 10
1.0
 20
0.0
 30
0.0
  9
$UCSYDIR
 10
0.0
 20
1.0
 30
0.0
  9
$PUCSNAME
  2

  9
$PUCSORG
 10
0.0
 20
0.0
 30
0.0
  9
$PUCSXDIR
 10
1.0
 20
0.0
 30
0.0
  9
$PUCSYDIR
 10
0.0
 20
1.0
 30
0.0
  9
$USERI1
 70
0
  9
$USERI2
 70
0
  9
$USERI3
 70
0
  9
$USERI4
 70
0
  9
$USERI5
 70
0
  9
$USERR1
 40
0.0
  9
$USERR2
 40
0.0
  9
$USERR3
 40
0.0
  9
$USERR4
 40
0.0
  9
$USERR5
 40
0.0
  9
$WORLDVIEW
 70
1
  9
$SHADEDGE
 70
3
  9
$SHADEDIF
 70
70
  9
$TILEMODE
 70
1
  9
$MAXACTVP
 70
64
  9
$PLIMCHECK
 70
0
  9
$PEXTMIN
 10
1e+20
 20
1e+20
 30
1e+20
  9
$PEXTMAX
 10
-1e+20
 20
-1e+20
 30
-1e+20
  9
$PLIMMIN
 10
0.0
 20
0.0
  9
$PLIMMAX
 10
420.0
 20
297.0
  9
$UNITMODE
 70
0
  9
$VISRETAIN
 70
1
  9
$PLINEGEN
 70
0
  9
$PSLTSCALE
 70
1
  0
ENDSEC
  0
SECTION
  2
TABLES
  0
TABLE
  2
VPORT
 70
1
  0
VPORT
  5
23
  2
*Active
 70
0
 10
0.0
 20
0.0
 11
1.0
 21
1.0
 12
344.2
 22
148.5
 13
0.0
 23
0.0
 14
0.5
 24
0.5
 15
0.5
 25
0.5
 16
0.0
 26
0.0
 36
1.0
 17
0.0
 27
0.0
 37
0.0
 40
297.0
 41
1.34
 42
50.0
 43
0.0
 44
0.0
 50
0.0
 51
0.0
 71
0
 72
1000
 73
1
 74
3
 75
0
 76
0
 77
0
 78
0
  0
ENDTAB
  0
TABLE
  2
LTYPE
 70
3
  0
LTYPE
  5
24
  2
ByBlock
 70
0
  3

 72
65
 73
0
 40
0.0
  0
LTYPE
  5
25
  2
ByLayer
 70
0
  3

 72
65
 73
0
 40
0.0
  0
LTYPE
  5
26
  2
Continuous
 70
0
  3

 72
65
 73
0
 40
0.0
  0
ENDTAB
  0
TABLE
  2
LAYER
 70
3
  0
LAYER
  5
27
  2
0
 70
0
 62
7
  6
Continuous
  0
LAYER
  5
28
  2
Defpoints
 70
0
 62
7
  6
Continuous
  0
LAYER
  5
2D
  2
MyLines
 70
0
 62
7
  6
DASHED
  0
ENDTAB
  0
TABLE
  2
STYLE
 70
1
  0
STYLE
  5
29
  2
Standard
 70
0
 40
0.0
 41
1.0
 50
0.0
 71
0
 42
2.5
  3
txt
  4

  0
ENDTAB
  0
TABLE
  2
VIEW
 70
0
  0
ENDTAB
  0
TABLE
  2
UCS
 70
0
  0
ENDTAB
  0
TABLE
  2
APPID
 70
2
  0
APPID
  5
2A
  2
ACAD
 70
0
  0
APPID
  5
397
  2
HATCHBACKGROUNDCOLOR
 70
0
  0
ENDTAB
  0
TABLE
  2
DIMSTYLE
 70
1
  0
DIMSTYLE
105
2B
  2
Standard
 70
0
  3

  4

  5

  6

  7

 40
1.0
 41
2.5
 42
0.625
 43
3.75
 44
1.25
 45
0.0
 46
0.0
 47
0.0
 48
0.0
140
2.5
141
2.5
142
0.0
143
0.03937007874
144
1.0
145
0.0
146
1.0
147
0.625
 71
0
 72
0
 73
0
 74
0
 75
0
 76
0
 77
1
 78
8
170
0
171
3
172
1
173
0
174
0
175
0
176
0
177
0
178
0
  0
ENDTAB
  0
ENDSEC
  0
SECTION
  2
BLOCKS
  0
BLOCK
  5
18
  8
0
  2
$Model_Space
 70
0
 10
0.0
 20
0.0
 30
0.0
  3
$Model_Space
  1

  0
ENDBLK
  5
19
  8
0
  0
BLOCK
  5
1C
  8
0
  2
$Paper_Space
 70
0
 10
0.0
 20
0.0
 30
0.0
  3
$Paper_Space
  1

  0
ENDBLK
  5
1D
  8
0
  0
ENDSEC
  0
SECTION
  2
ENTITIES
  0
LINE
  5
2E
  8
MyLines
 10
191.46853540219087
 20
-165.53125
 30
0.0
 11
192.69067745925804
 21
-165.53125
 31
0.0
  0
LINE
  5
2F
  8
MyLines
 10
192.69067745925804
 20
-165.53125
 30
0.0
 11
193.91281951632521
 21
-165.53125
 31
0.0
  0
LINE
  5
30
  8
MyLines
 10
193.91281951632521
 20
-165.53125
 30
0.0
 11
195.1349615733924
 21
-165.53125
 31
0.0
  0
LINE
  5
31
  8
MyLines
 10
195.1349615733924
 20
-165.53125
 30
0.0
 11
196.3571036304596
 21
-165.53125
 31
0.0
  0
LINE
  5
32
  8
MyLines
 10
196.3571036304596
 20
-165.53125
 30
0.0
 11
197.57924568752676
 21
-165.53125
 31
0.0
  0
LINE
  5
33
  8
MyLines
 10
197.57924568752676
 20
-165.53125
 30
0.0
 11
198.80138774459397
 21
-165.53125
 31
0.0
  0
LINE
  5
34
  8
MyLines
 10
198.80138774459397
 20
-165.53125
 30
0.0
 11
200.02352980166114
 21
-165.53125
 31
0.0
  0
LINE
  5
35
  8
MyLines
 10
200.02352980166114
 20
-165.53125
 30
0.0
 11
201.24567185872834
 21
-165.53125
 31
0.0
  0
LINE
  5
36
  8
MyLines
 10
201.24567185872834
 20
-165.53125
 30
0.0
 11
202.4678139157955
 21
-165.53125
 31
0.0
  0
LINE
  5
37
  8
MyLines
 10
202.4678139157955
 20
-165.53125
 30
0.0
 11
203.6899559728627
 21
-165.53125
 31
0.0
  0
LINE
  5
38
  8
MyLines
 10
203.6899559728627
 20
-165.53125
 30
0.0
 11
204.91209802992987
 21
-165.53125
 31
0.0
  0
LINE
  5
39
  8
MyLines
 10
204.91209802992987
 20
-165.53125
 30
0.0
 11
206.13424008699707
 21
-165.53125
 31
0.0
  0
LINE
  5
3A
  8
MyLines
 10
206.13424008699707
 20
-165.53125
 30
0.0
 11
207.35638214406424
 21
-165.53125
 31
0.0
  0
LINE
  5
3B
  8
MyLines
 10
207.35638214406424
 20
-165.53125
 30
0.0
 11
208.57852420113144
 21
-165.53125
 31
0.0
  0
LINE
  5
3C
  8
MyLines
 10
208.57852420113144
 20
-165.53125
 30
0.0
 11
209.80066625819862
 21
-165.53125
 31
0.0
  0
LINE
  5
3D
  8
MyLines
 10
209.80066625819862
 20
-165.53125
 30
0.0
 11
211.0228083152658
 21
-165.53125
 31
0.0
  0
LINE
  5
3E
  8
MyLines
 10
211.0228083152658
 20
-165.53125
 30
0.0
 11
212.24495037233297
 21
-165.53125
 31
0.0
  0
LINE
  5
3F
  8
MyLines
 10
212.24495037233297
 20
-165.53125
 30
0.0
 11
213.46709242940017
 21
-165.53125
 31
0.0
  0
LINE
  5
40
  8
MyLines
 10
213.46709242940017
 20
-165.53125
 30
0.0
 11
214.68923448646734
 21
-165.53125
 31
0.0
  0
LINE
  5
41
  8
MyLines
 10
214.68923448646734
 20
-165.53125
 30
0.0
 11
215.91137654353454
 21
-165.53125
 31
0.0
  0
LINE
  5
42
  8
MyLines
 10
215.91137654353454
 20
-165.53125
 30
0.0
 11
217.13351860060172
 21
-165.53125
 31
0.0
  0
LINE
  5
43
  8
MyLines
 10
217.13351860060172
 20
-165.53125
 30
0.0
 11
218.3556606576689
 21
-165.53125
 31
0.0
  0
LINE
  5
44
  8
MyLines
 10
218.3556606576689
 20
-165.53125
 30
0.0
 11
219.57780271473607
 21
-165.53125
 31
0.0
  0
LINE
  5
45
  8
MyLines
 10
219.57780271473607
 20
-165.53125
 30
0.0
 11
220.79994477180327
 21
-165.53125
 31
0.0
  0
LINE
  5
46
  8
MyLines
 10
220.79994477180327
 20
-165.53125
 30
0.0
 11
222.02208682887044
 21
-165.53125
 31
0.0
  0
LINE
  5
47
  8
MyLines
 10
222.02208682887044
 20
-165.53125
 30
0.0
 11
223.24422888593764
 21
-165.53125
 31
0.0
  0
LINE
  5
48
  8
MyLines
 10
223.24422888593764
 20
-165.53125
 30
0.0
 11
224.46637094300482
 21
-165.53125
 31
0.0
  0
LINE
  5
49
  8
MyLines
 10
224.46637094300482
 20
-165.53125
 30
0.0
 11
225.68851300007202
 21
-165.53125
 31
0.0
  0
LINE
  5
4A
  8
MyLines
 10
225.68851300007202
 20
-165.53125
 30
0.0
 11
226.91065505713917
 21
-165.53125
 31
0.0
  0
LINE
  5
4B
  8
MyLines
 10
226.91065505713917
 20
-165.53125
 30
0.0
 11
228.13279711420637
 21
-165.53125
 31
0.0
  0
LINE
  5
4C
  8
MyLines
 10
228.13279711420637
 20
-165.53125
 30
0.0
 11
229.35493917127354
 21
-165.53125
 31
0.0
  0
LINE
  5
4D
  8
MyLines
 10
229.35493917127354
 20
-165.53125
 30
0.0
 11
230.57708122834075
 21
-165.53125
 31
0.0
  0
LINE
  5
4E
  8
MyLines
 10
230.57708122834075
 20
-165.53125
 30
0.0
 11
231.79922328540792
 21
-165.53125
 31
0.0
  0
LINE
  5
4F
  8
MyLines
 10
231.79922328540792
 20
-165.53125
 30
0.0
 11
233.02136534247512
 21
-165.53125
 31
0.0
  0
LINE
  5
50
  8
MyLines
 10
233.02136534247512
 20
-165.53125
 30
0.0
 11
234.24350739954227
 21
-165.53125
 31
0.0
  0
LINE
  5
51
  8
MyLines
 10
234.24350739954227
 20
-165.53125
 30
0.0
 11
235.46564945660947
 21
-165.53125
 31
0.0
  0
LINE
  5
52
  8
MyLines
 10
235.46564945660947
 20
-165.53125
 30
0.0
 11
236.68779151367664
 21
-165.53125
 31
0.0
  0
LINE
  5
53
  8
MyLines
 10
236.68779151367664
 20
-165.53125
 30
0.0
 11
237.90993357074385
 21
-165.53125
 31
0.0
  0
LINE
  5
54
  8
MyLines
 10
237.90993357074385
 20
-165.53125
 30
0.0
 11
239.13207562781102
 21
-165.53125
 31
0.0
  0
LINE
  5
55
  8
MyLines
 10
239.13207562781102
 20
-165.53125
 30
0.0
 11
240.35421768487822
 21
-165.53125
 31
0.0
  0
LINE
  5
56
  8
MyLines
 10
240.35421768487822
 20
-165.53125
 30
0.0
 11
241.5763597419454
 21
-165.53125
 31
0.0
  0
LINE
  5
57
  8
MyLines
 10
241.5763597419454
 20
-165.53125
 30
0.0
 11
242.79850179901257
 21
-165.53125
 31
0.0
  0
LINE
  5
58
  8
MyLines
 10
242.79850179901257
 20
-165.53125
 30
0.0
 11
244.02064385607974
 21
-165.53125
 31
0.0
  0
LINE
  5
59
  8
MyLines
 10
244.02064385607974
 20
-165.53125
 30
0.0
 11
245.24278591314695
 21
-165.53125
 31
0.0
  0
LINE
  5
5A
  8
MyLines
 10
245.24278591314695
 20
-165.53125
 30
0.0
 11
246.46492797021412
 21
-165.53125
 31
0.0
  0
LINE
  5
5B
  8
MyLines
 10
246.46492797021412
 20
-165.53125
 30
0.0
 11
247.68707002728132
 21
-165.53125
 31
0.0
  0
LINE
  5
5C
  8
MyLines
 10
247.68707002728132
 20
-165.53125
 30
0.0
 11
248.9092120843485
 21
-165.53125
 31
0.0
  0
LINE
  5
5D
  8
MyLines
 10
248.9092120843485
 20
-165.53125
 30
0.0
 11
250.13135414141564
 21
-165.53125
 31
0.0
  0
LINE
  5
5E
  8
MyLines
 10
250.13135414141564
 20
-165.53125
 30
0.0
 11
251.35349619848284
 21
-165.53125
 31
0.0
  0
LINE
  5
5F
  8
MyLines
 10
251.35349619848284
 20
-165.53125
 30
0.0
 11
251.35349619848284
 21
-161.5625
 31
0.0
  0
LINE
  5
60
  8
MyLines
 10
251.35349619848284
 20
-161.5625
 30
0.0
 11
251.35349619848284
 21
169.5
 31
0.0
  0
LINE
  5
61
  8
MyLines
 10
251.35349619848284
 20
169.5
 30
0.0
 11
251.35349619848284
 21
169.5
 31
0.0
  0
LINE
  5
62
  8
MyLines
 10
251.35349619848284
 20
169.5
 30
0.0
 11
253.30791269056226
 21
169.5
 31
0.0
  0
LINE
  5
63
  8
MyLines
 10
253.30791269056226
 20
169.5
 30
0.0
 11
255.26232918264165
 21
169.5
 31
0.0
  0
LINE
  5
64
  8
MyLines
 10
255.26232918264165
 20
169.5
 30
0.0
 11
257.21674567472104
 21
169.5
 31
0.0
  0
LINE
  5
65
  8
MyLines
 10
257.21674567472104
 20
169.5
 30
0.0
 11
259.1711621668004
 21
169.5
 31
0.0
  0
LINE
  5
66
  8
MyLines
 10
259.1711621668004
 20
169.5
 30
0.0
 11
261.1255786588798
 21
169.5
 31
0.0
  0
LINE
  5
67
  8
MyLines
 10
261.1255786588798
 20
169.5
 30
0.0
 11
263.0799951509592
 21
169.5
 31
0.0
  0
LINE
  5
68
  8
MyLines
 10
263.0799951509592
 20
169.5
 30
0.0
 11
265.03441164303854
 21
169.5
 31
0.0
  0
LINE
  5
69
  8
MyLines
 10
265.03441164303854
 20
169.5
 30
0.0
 11
266.98882813511796
 21
169.5
 31
0.0
  0
LINE
  5
6A
  8
MyLines
 10
266.98882813511796
 20
169.5
 30
0.0
 11
268.9432446271973
 21
169.5
 31
0.0
  0
LINE
  5
6B
  8
MyLines
 10
268.9432446271973
 20
169.5
 30
0.0
 11
270.8976611192767
 21
169.5
 31
0.0
  0
LINE
  5
6C
  8
MyLines
 10
270.8976611192767
 20
169.5
 30
0.0
 11
272.85207761135615
 21
169.5
 31
0.0
  0
LINE
  5
6D
  8
MyLines
 10
272.85207761135615
 20
169.5
 30
0.0
 11
274.80649410343545
 21
169.5
 31
0.0
  0
LINE
  5
6E
  8
MyLines
 10
274.80649410343545
 20
169.5
 30
0.0
 11
276.7609105955149
 21
169.5
 31
0.0
  0
LINE
  5
6F
  8
MyLines
 10
276.7609105955149
 20
169.5
 30
0.0
 11
278.71532708759423
 21
169.5
 31
0.0
  0
LINE
  5
70
  8
MyLines
 10
278.71532708759423
 20
169.5
 30
0.0
 11
280.6697435796736
 21
169.5
 31
0.0
  0
LINE
  5
71
  8
MyLines
 10
280.6697435796736
 20
169.5
 30
0.0
 11
282.624160071753
 21
169.5
 31
0.0
  0
LINE
  5
72
  8
MyLines
 10
282.624160071753
 20
169.5
 30
0.0
 11
284.57857656383237
 21
169.5
 31
0.0
  0
LINE
  5
73
  8
MyLines
 10
284.57857656383237
 20
169.5
 30
0.0
 11
286.5329930559118
 21
169.5
 31
0.0
  0
LINE
  5
74
  8
MyLines
 10
286.5329930559118
 20
169.5
 30
0.0
 11
288.4874095479912
 21
169.5
 31
0.0
  0
LINE
  5
75
  8
MyLines
 10
288.4874095479912
 20
169.5
 30
0.0
 11
290.44182604007057
 21
169.5
 31
0.0
  0
LINE
  5
76
  8
MyLines
 10
290.44182604007057
 20
169.5
 30
0.0
 11
292.3962425321499
 21
169.5
 31
0.0
  0
LINE
  5
77
  8
MyLines
 10
292.3962425321499
 20
169.5
 30
0.0
 11
294.35065902422934
 21
169.5
 31
0.0
  0
LINE
  5
78
  8
MyLines
 10
294.35065902422934
 20
169.5
 30
0.0
 11
296.3050755163087
 21
169.5
 31
0.0
  0
LINE
  5
79
  8
MyLines
 10
296.3050755163087
 20
169.5
 30
0.0
 11
298.25949200838807
 21
169.5
 31
0.0
  0
LINE
  5
7A
  8
MyLines
 10
298.25949200838807
 20
169.5
 30
0.0
 11
300.2139085004675
 21
169.5
 31
0.0
  0
LINE
  5
7B
  8
MyLines
 10
300.2139085004675
 20
169.5
 30
0.0
 11
302.1683249925469
 21
169.5
 31
0.0
  0
LINE
  5
7C
  8
MyLines
 10
302.1683249925469
 20
169.5
 30
0.0
 11
304.12274148462626
 21
169.5
 31
0.0
  0
LINE
  5
7D
  8
MyLines
 10
304.12274148462626
 20
169.5
 30
0.0
 11
306.0771579767056
 21
169.5
 31
0.0
  0
LINE
  5
7E
  8
MyLines
 10
306.0771579767056
 20
169.5
 30
0.0
 11
308.03157446878504
 21
169.5
 31
0.0
  0
LINE
  5
7F
  8
MyLines
 10
308.03157446878504
 20
169.5
 30
0.0
 11
309.9859909608644
 21
169.5
 31
0.0
  0
LINE
  5
80
  8
MyLines
 10
309.9859909608644
 20
169.5
 30
0.0
 11
311.94040745294376
 21
169.5
 31
0.0
  0
LINE
  5
81
  8
MyLines
 10
311.94040745294376
 20
169.5
 30
0.0
 11
313.8948239450232
 21
169.5
 31
0.0
  0
LINE
  5
82
  8
MyLines
 10
313.8948239450232
 20
169.5
 30
0.0
 11
315.84924043710254
 21
169.5
 31
0.0
  0
LINE
  5
83
  8
MyLines
 10
315.84924043710254
 20
169.5
 30
0.0
 11
317.80365692918195
 21
169.5
 31
0.0
  0
LINE
  5
84
  8
MyLines
 10
317.80365692918195
 20
169.5
 30
0.0
 11
319.7580734212614
 21
169.5
 31
0.0
  0
LINE
  5
85
  8
MyLines
 10
319.7580734212614
 20
169.5
 30
0.0
 11
321.71248991334073
 21
169.5
 31
0.0
  0
LINE
  5
86
  8
MyLines
 10
321.71248991334073
 20
169.5
 30
0.0
 11
323.6669064054201
 21
169.5
 31
0.0
  0
LINE
  5
87
  8
MyLines
 10
323.6669064054201
 20
169.5
 30
0.0
 11
325.6213228974995
 21
169.5
 31
0.0
  0
LINE
  5
88
  8
MyLines
 10
325.6213228974995
 20
169.5
 30
0.0
 11
327.57573938957887
 21
169.5
 31
0.0
  0
LINE
  5
89
  8
MyLines
 10
327.57573938957887
 20
169.5
 30
0.0
 11
329.53015588165823
 21
169.5
 31
0.0
  0
LINE
  5
8A
  8
MyLines
 10
329.53015588165823
 20
169.5
 30
0.0
 11
331.4845723737377
 21
169.5
 31
0.0
  0
LINE
  5
8B
  8
MyLines
 10
331.4845723737377
 20
169.5
 30
0.0
 11
333.43898886581707
 21
169.5
 31
0.0
  0
LINE
  5
8C
  8
MyLines
 10
333.43898886581707
 20
169.5
 30
0.0
 11
335.3934053578964
 21
169.5
 31
0.0
  0
LINE
  5
8D
  8
MyLines
 10
335.3934053578964
 20
169.5
 30
0.0
 11
337.34782184997584
 21
169.5
 31
0.0
  0
LINE
  5
8E
  8
MyLines
 10
337.34782184997584
 20
169.5
 30
0.0
 11
339.3022383420552
 21
169.5
 31
0.0
  0
LINE
  5
8F
  8
MyLines
 10
339.3022383420552
 20
169.5
 30
0.0
 11
341.25665483413457
 21
169.5
 31
0.0
  0
LINE
  5
90
  8
MyLines
 10
341.25665483413457
 20
169.5
 30
0.0
 11
343.2110713262139
 21
169.5
 31
0.0
  0
LINE
  5
91
  8
MyLines
 10
343.2110713262139
 20
169.5
 30
0.0
 11
345.1654878182933
 21
169.5
 31
0.0
  0
LINE
  5
92
  8
MyLines
 10
345.1654878182933
 20
169.5
 30
0.0
 11
347.11990431037276
 21
169.5
 31
0.0
  0
LINE
  5
93
  8
MyLines
 10
347.11990431037276
 20
169.5
 30
0.0
 11
347.11990431037276
 21
-157.59375
 31
0.0
  0
LINE
  5
94
  8
MyLines
 10
347.11990431037276
 20
-157.59375
 30
0.0
 11
347.11990431037276
 21
-157.59375
 31
0.0
  0
LINE
  5
95
  8
MyLines
 10
347.11990431037276
 20
-157.59375
 30
0.0
 11
345.2473510642195
 21
-157.59375
 31
0.0
  0
LINE
  5
96
  8
MyLines
 10
345.2473510642195
 20
-157.59375
 30
0.0
 11
343.37479781806627
 21
-157.59375
 31
0.0
  0
LINE
  5
97
  8
MyLines
 10
343.37479781806627
 20
-157.59375
 30
0.0
 11
341.50224457191297
 21
-157.59375
 31
0.0
  0
LINE
  5
98
  8
MyLines
 10
341.50224457191297
 20
-157.59375
 30
0.0
 11
339.6296913257597
 21
-157.59375
 31
0.0
  0
LINE
  5
99
  8
MyLines
 10
339.6296913257597
 20
-157.59375
 30
0.0
 11
337.7571380796065
 21
-157.59375
 31
0.0
  0
LINE
  5
9A
  8
MyLines
 10
337.7571380796065
 20
-157.59375
 30
0.0
 11
335.88458483345323
 21
-157.59375
 31
0.0
  0
LINE
  5
9B
  8
MyLines
 10
335.88458483345323
 20
-157.59375
 30
0.0
 11
334.0120315873
 21
-157.59375
 31
0.0
  0
LINE
  5
9C
  8
MyLines
 10
334.0120315873
 20
-157.59375
 30
0.0
 11
332.13947834114674
 21
-157.59375
 31
0.0
  0
LINE
  5
9D
  8
MyLines
 10
332.13947834114674
 20
-157.59375
 30
0.0
 11
330.26692509499344
 21
-157.59375
 31
0.0
  0
LINE
  5
9E
  8
MyLines
 10
330.26692509499344
 20
-157.59375
 30
0.0
 11
328.3943718488402
 21
-157.59375
 31
0.0
  0
LINE
  5
9F
  8
MyLines
 10
328.3943718488402
 20
-157.59375
 30
0.0
 11
326.52181860268695
 21
-157.59375
 31
0.0
  0
LINE
  5
A0
  8
MyLines
 10
326.52181860268695
 20
-157.59375
 30
0.0
 11
324.6492653565337
 21
-157.59375
 31
0.0
  0
LINE
  5
A1
  8
MyLines
 10
324.6492653565337
 20
-157.59375
 30
0.0
 11
322.77671211038046
 21
-157.59375
 31
0.0
  0
LINE
  5
A2
  8
MyLines
 10
322.77671211038046
 20
-157.59375
 30
0.0
 11
320.9041588642272
 21
-157.59375
 31
0.0
  0
LINE
  5
A3
  8
MyLines
 10
320.9041588642272
 20
-157.59375
 30
0.0
 11
319.0316056180739
 21
-157.59375
 31
0.0
  0
LINE
  5
A4
  8
MyLines
 10
319.0316056180739
 20
-157.59375
 30
0.0
 11
317.15905237192067
 21
-157.59375
 31
0.0
  0
LINE
  5
A5
  8
MyLines
 10
317.15905237192067
 20
-157.59375
 30
0.0
 11
315.2864991257674
 21
-157.59375
 31
0.0
  0
LINE
  5
A6
  8
MyLines
 10
315.2864991257674
 20
-157.59375
 30
0.0
 11
313.4139458796142
 21
-157.59375
 31
0.0
  0
LINE
  5
A7
  8
MyLines
 10
313.4139458796142
 20
-157.59375
 30
0.0
 11
311.54139263346093
 21
-157.59375
 31
0.0
  0
LINE
  5
A8
  8
MyLines
 10
311.54139263346093
 20
-157.59375
 30
0.0
 11
309.6688393873077
 21
-157.59375
 31
0.0
  0
LINE
  5
A9
  8
MyLines
 10
309.6688393873077
 20
-157.59375
 30
0.0
 11
307.79628614115444
 21
-157.59375
 31
0.0
  0
LINE
  5
AA
  8
MyLines
 10
307.79628614115444
 20
-157.59375
 30
0.0
 11
305.9237328950012
 21
-157.59375
 31
0.0
  0
LINE
  5
AB
  8
MyLines
 10
305.9237328950012
 20
-157.59375
 30
0.0
 11
304.05117964884795
 21
-157.59375
 31
0.0
  0
LINE
  5
AC
  8
MyLines
 10
304.05117964884795
 20
-157.59375
 30
0.0
 11
302.1786264026947
 21
-157.59375
 31
0.0
  0
LINE
  5
AD
  8
MyLines
 10
302.1786264026947
 20
-157.59375
 30
0.0
 11
300.30607315654146
 21
-157.59375
 31
0.0
  0
LINE
  5
AE
  8
MyLines
 10
300.30607315654146
 20
-157.59375
 30
0.0
 11
298.43351991038816
 21
-157.59375
 31
0.0
  0
LINE
  5
AF
  8
MyLines
 10
298.43351991038816
 20
-157.59375
 30
0.0
 11
296.5609666642349
 21
-157.59375
 31
0.0
  0
LINE
  5
B0
  8
MyLines
 10
296.5609666642349
 20
-157.59375
 30
0.0
 11
294.68841341808167
 21
-157.59375
 31
0.0
  0
LINE
  5
B1
  8
MyLines
 10
294.68841341808167
 20
-157.59375
 30
0.0
 11
292.8158601719284
 21
-157.59375
 31
0.0
  0
LINE
  5
B2
  8
MyLines
 10
292.8158601719284
 20
-157.59375
 30
0.0
 11
290.9433069257752
 21
-157.59375
 31
0.0
  0
LINE
  5
B3
  8
MyLines
 10
290.9433069257752
 20
-157.59375
 30
0.0
 11
289.07075367962193
 21
-157.59375
 31
0.0
  0
LINE
  5
B4
  8
MyLines
 10
289.07075367962193
 20
-157.59375
 30
0.0
 11
287.1982004334687
 21
-157.59375
 31
0.0
  0
LINE
  5
B5
  8
MyLines
 10
287.1982004334687
 20
-157.59375
 30
0.0
 11
285.32564718731544
 21
-157.59375
 31
0.0
  0
LINE
  5
B6
  8
MyLines
 10
285.32564718731544
 20
-157.59375
 30
0.0
 11
283.45309394116214
 21
-157.59375
 31
0.0
  0
LINE
  5
B7
  8
MyLines
 10
283.45309394116214
 20
-157.59375
 30
0.0
 11
281.5805406950089
 21
-157.59375
 31
0.0
  0
LINE
  5
B8
  8
MyLines
 10
281.5805406950089
 20
-157.59375
 30
0.0
 11
279.70798744885565
 21
-157.59375
 31
0.0
  0
LINE
  5
B9
  8
MyLines
 10
279.70798744885565
 20
-157.59375
 30
0.0
 11
277.8354342027024
 21
-157.59375
 31
0.0
  0
LINE
  5
BA
  8
MyLines
 10
277.8354342027024
 20
-157.59375
 30
0.0
 11
275.9628809565491
 21
-157.59375
 31
0.0
  0
LINE
  5
BB
  8
MyLines
 10
275.9628809565491
 20
-157.59375
 30
0.0
 11
274.09032771039585
 21
-157.59375
 31
0.0
  0
LINE
  5
BC
  8
MyLines
 10
274.09032771039585
 20
-157.59375
 30
0.0
 11
272.2177744642426
 21
-157.59375
 31
0.0
  0
LINE
  5
BD
  8
MyLines
 10
272.2177744642426
 20
-157.59375
 30
0.0
 11
270.3452212180894
 21
-157.59375
 31
0.0
  0
LINE
  5
BE
  8
MyLines
 10
270.3452212180894
 20
-157.59375
 30
0.0
 11
268.4726679719362
 21
-157.59375
 31
0.0
  0
LINE
  5
BF
  8
MyLines
 10
268.4726679719362
 20
-157.59375
 30
0.0
 11
266.60011472578293
 21
-157.59375
 31
0.0
  0
LINE
  5
C0
  8
MyLines
 10
266.60011472578293
 20
-157.59375
 30
0.0
 11
264.7275614796297
 21
-157.59375
 31
0.0
  0
LINE
  5
C1
  8
MyLines
 10
264.7275614796297
 20
-157.59375
 30
0.0
 11
262.8550082334764
 21
-157.59375
 31
0.0
  0
LINE
  5
C2
  8
MyLines
 10
262.8550082334764
 20
-157.59375
 30
0.0
 11
260.98245498732314
 21
-157.59375
 31
0.0
  0
LINE
  5
C3
  8
MyLines
 10
260.98245498732314
 20
-157.59375
 30
0.0
 11
259.1099017411699
 21
-157.59375
 31
0.0
  0
LINE
  5
C4
  8
MyLines
 10
259.1099017411699
 20
-157.59375
 30
0.0
 11
257.23734849501665
 21
-157.59375
 31
0.0
  0
LINE
  5
C5
  8
MyLines
 10
257.23734849501665
 20
-157.59375
 30
0.0
 11
255.36479524886335
 21
-157.59375
 31
0.0
  0
LINE
  5
C6
  8
MyLines
 10
255.36479524886335
 20
-157.59375
 30
0.0
 11
255.36479524886335
 21
-157.59375
 31
0.0
  0
LINE
  5
C7
  8
MyLines
 10
255.36479524886335
 20
-157.59375
 30
0.0
 11
255.36479524886335
 21
165.53125
 31
0.0
  0
LINE
  5
C8
  8
MyLines
 10
255.36479524886335
 20
165.53125
 30
0.0
 11
255.36479524886335
 21
165.53125
 31
0.0
  0
LINE
  5
C9
  8
MyLines
 10
255.36479524886335
 20
165.53125
 30
0.0
 11
257.15548524909053
 21
165.53125
 31
0.0
  0
LINE
  5
CA
  8
MyLines
 10
257.15548524909053
 20
165.53125
 30
0.0
 11
258.94617524931755
 21
165.53125
 31
0.0
  0
LINE
  5
CB
  8
MyLines
 10
258.94617524931755
 20
165.53125
 30
0.0
 11
260.73686524954473
 21
165.53125
 31
0.0
  0
LINE
  5
CC
  8
MyLines
 10
260.73686524954473
 20
165.53125
 30
0.0
 11
262.5275552497718
 21
165.53125
 31
0.0
  0
LINE
  5
CD
  8
MyLines
 10
262.5275552497718
 20
165.53125
 30
0.0
 11
264.318245249999
 21
165.53125
 31
0.0
  0
LINE
  5
CE
  8
MyLines
 10
264.318245249999
 20
165.53125
 30
0.0
 11
266.10893525022607
 21
165.53125
 31
0.0
  0
LINE
  5
CF
  8
MyLines
 10
266.10893525022607
 20
165.53125
 30
0.0
 11
267.8996252504532
 21
165.53125
 31
0.0
  0
LINE
  5
D0
  8
MyLines
 10
267.8996252504532
 20
165.53125
 30
0.0
 11
269.6903152506803
 21
165.53125
 31
0.0
  0
LINE
  5
D1
  8
MyLines
 10
269.6903152506803
 20
165.53125
 30
0.0
 11
271.48100525090746
 21
165.53125
 31
0.0
  0
LINE
  5
D2
  8
MyLines
 10
271.48100525090746
 20
165.53125
 30
0.0
 11
273.2716952511346
 21
165.53125
 31
0.0
  0
LINE
  5
D3
  8
MyLines
 10
273.2716952511346
 20
165.53125
 30
0.0
 11
275.06238525136166
 21
165.53125
 31
0.0
  0
LINE
  5
D4
  8
MyLines
 10
275.06238525136166
 20
165.53125
 30
0.0
 11
276.8530752515888
 21
165.53125
 31
0.0
  0
LINE
  5
D5
  8
MyLines
 10
276.8530752515888
 20
165.53125
 30
0.0
 11
278.6437652518159
 21
165.53125
 31
0.0
  0
LINE
  5
D6
  8
MyLines
 10
278.6437652518159
 20
165.53125
 30
0.0
 11
280.43445525204305
 21
165.53125
 31
0.0
  0
LINE
  5
D7
  8
MyLines
 10
280.43445525204305
 20
165.53125
 30
0.0
 11
282.2251452522702
 21
165.53125
 31
0.0
  0
LINE
  5
D8
  8
MyLines
 10
282.2251452522702
 20
165.53125
 30
0.0
 11
284.01583525249725
 21
165.53125
 31
0.0
  0
LINE
  5
D9
  8
MyLines
 10
284.01583525249725
 20
165.53125
 30
0.0
 11
285.8065252527244
 21
165.53125
 31
0.0
  0
LINE
  5
DA
  8
MyLines
 10
285.8065252527244
 20
165.53125
 30
0.0
 11
287.5972152529515
 21
165.53125
 31
0.0
  0
LINE
  5
DB
  8
MyLines
 10
287.5972152529515
 20
165.53125
 30
0.0
 11
289.38790525317864
 21
165.53125
 31
0.0
  0
LINE
  5
DC
  8
MyLines
 10
289.38790525317864
 20
165.53125
 30
0.0
 11
291.1785952534057
 21
165.53125
 31
0.0
  0
LINE
  5
DD
  8
MyLines
 10
291.1785952534057
 20
165.53125
 30
0.0
 11
292.96928525363285
 21
165.53125
 31
0.0
  0
LINE
  5
DE
  8
MyLines
 10
292.96928525363285
 20
165.53125
 30
0.0
 11
294.75997525386
 21
165.53125
 31
0.0
  0
LINE
  5
DF
  8
MyLines
 10
294.75997525386
 20
165.53125
 30
0.0
 11
296.5506652540871
 21
165.53125
 31
0.0
  0
LINE
  5
E0
  8
MyLines
 10
296.5506652540871
 20
165.53125
 30
0.0
 11
298.3413552543142
 21
165.53125
 31
0.0
  0
LINE
  5
E1
  8
MyLines
 10
298.3413552543142
 20
165.53125
 30
0.0
 11
300.1320452545413
 21
165.53125
 31
0.0
  0
LINE
  5
E2
  8
MyLines
 10
300.1320452545413
 20
165.53125
 30
0.0
 11
301.92273525476844
 21
165.53125
 31
0.0
  0
LINE
  5
E3
  8
MyLines
 10
301.92273525476844
 20
165.53125
 30
0.0
 11
303.71342525499557
 21
165.53125
 31
0.0
  0
LINE
  5
E4
  8
MyLines
 10
303.71342525499557
 20
165.53125
 30
0.0
 11
305.5041152552227
 21
165.53125
 31
0.0
  0
LINE
  5
E5
  8
MyLines
 10
305.5041152552227
 20
165.53125
 30
0.0
 11
307.2948052554498
 21
165.53125
 31
0.0
  0
LINE
  5
E6
  8
MyLines
 10
307.2948052554498
 20
165.53125
 30
0.0
 11
309.0854952556769
 21
165.53125
 31
0.0
  0
LINE
  5
E7
  8
MyLines
 10
309.0854952556769
 20
165.53125
 30
0.0
 11
310.8761852559041
 21
165.53125
 31
0.0
  0
LINE
  5
E8
  8
MyLines
 10
310.8761852559041
 20
165.53125
 30
0.0
 11
312.66687525613116
 21
165.53125
 31
0.0
  0
LINE
  5
E9
  8
MyLines
 10
312.66687525613116
 20
165.53125
 30
0.0
 11
314.4575652563583
 21
165.53125
 31
0.0
  0
LINE
  5
EA
  8
MyLines
 10
314.4575652563583
 20
165.53125
 30
0.0
 11
316.24825525658537
 21
165.53125
 31
0.0
  0
LINE
  5
EB
  8
MyLines
 10
316.24825525658537
 20
165.53125
 30
0.0
 11
318.03894525681255
 21
165.53125
 31
0.0
  0
LINE
  5
EC
  8
MyLines
 10
318.03894525681255
 20
165.53125
 30
0.0
 11
319.8296352570396
 21
165.53125
 31
0.0
  0
LINE
  5
ED
  8
MyLines
 10
319.8296352570396
 20
165.53125
 30
0.0
 11
321.6203252572668
 21
165.53125
 31
0.0
  0
LINE
  5
EE
  8
MyLines
 10
321.6203252572668
 20
165.53125
 30
0.0
 11
323.4110152574939
 21
165.53125
 31
0.0
  0
LINE
  5
EF
  8
MyLines
 10
323.4110152574939
 20
165.53125
 30
0.0
 11
325.201705257721
 21
165.53125
 31
0.0
  0
LINE
  5
F0
  8
MyLines
 10
325.201705257721
 20
165.53125
 30
0.0
 11
326.99239525794815
 21
165.53125
 31
0.0
  0
LINE
  5
F1
  8
MyLines
 10
326.99239525794815
 20
165.53125
 30
0.0
 11
328.7830852581753
 21
165.53125
 31
0.0
  0
LINE
  5
F2
  8
MyLines
 10
328.7830852581753
 20
165.53125
 30
0.0
 11
330.57377525840235
 21
165.53125
 31
0.0
  0
LINE
  5
F3
  8
MyLines
 10
330.57377525840235
 20
165.53125
 30
0.0
 11
332.3644652586295
 21
165.53125
 31
0.0
  0
LINE
  5
F4
  8
MyLines
 10
332.3644652586295
 20
165.53125
 30
0.0
 11
334.1551552588566
 21
165.53125
 31
0.0
  0
LINE
  5
F5
  8
MyLines
 10
334.1551552588566
 20
165.53125
 30
0.0
 11
335.94584525908374
 21
165.53125
 31
0.0
  0
LINE
  5
F6
  8
MyLines
 10
335.94584525908374
 20
165.53125
 30
0.0
 11
337.7365352593108
 21
165.53125
 31
0.0
  0
LINE
  5
F7
  8
MyLines
 10
337.7365352593108
 20
165.53125
 30
0.0
 11
339.52722525953794
 21
165.53125
 31
0.0
  0
LINE
  5
F8
  8
MyLines
 10
339.52722525953794
 20
165.53125
 30
0.0
 11
341.3179152597651
 21
165.53125
 31
0.0
  0
LINE
  5
F9
  8
MyLines
 10
341.3179152597651
 20
165.53125
 30
0.0
 11
343.1086052599922
 21
165.53125
 31
0.0
  0
LINE
  5
FA
  8
MyLines
 10
343.1086052599922
 20
165.53125
 30
0.0
 11
343.1086052599922
 21
-153.625
 31
0.0
  0
LINE
  5
FB
  8
MyLines
 10
343.1086052599922
 20
-153.625
 30
0.0
 11
343.1086052599922
 21
-153.625
 31
0.0
  0
LINE
  5
FC
  8
MyLines
 10
343.1086052599922
 20
-153.625
 30
0.0
 11
341.40184831028193
 21
-153.625
 31
0.0
  0
LINE
  5
FD
  8
MyLines
 10
341.40184831028193
 20
-153.625
 30
0.0
 11
339.6950913605716
 21
-153.625
 31
0.0
  0
LINE
  5
FE
  8
MyLines
 10
339.6950913605716
 20
-153.625
 30
0.0
 11
337.9883344108614
 21
-153.625
 31
0.0
  0
LINE
  5
FF
  8
MyLines
 10
337.9883344108614
 20
-153.625
 30
0.0
 11
336.2815774611511
 21
-153.625
 31
0.0
  0
LINE
  5
100
  8
MyLines
 10
336.2815774611511
 20
-153.625
 30
0.0
 11
334.5748205114408
 21
-153.625
 31
0.0
  0
LINE
  5
101
  8
MyLines
 10
334.5748205114408
 20
-153.625
 30
0.0
 11
332.86806356173054
 21
-153.625
 31
0.0
  0
LINE
  5
102
  8
MyLines
 10
332.86806356173054
 20
-153.625
 30
0.0
 11
331.16130661202027
 21
-153.625
 31
0.0
  0
LINE
  5
103
  8
MyLines
 10
331.16130661202027
 20
-153.625
 30
0.0
 11
329.45454966230994
 21
-153.625
 31
0.0
  0
LINE
  5
104
  8
MyLines
 10
329.45454966230994
 20
-153.625
 30
0.0
 11
327.74779271259973
 21
-153.625
 31
0.0
  0
LINE
  5
105
  8
MyLines
 10
327.74779271259973
 20
-153.625
 30
0.0
 11
326.0410357628894
 21
-153.625
 31
0.0
  0
LINE
  5
106
  8
MyLines
 10
326.0410357628894
 20
-153.625
 30
0.0
 11
324.33427881317914
 21
-153.625
 31
0.0
  0
LINE
  5
107
  8
MyLines
 10
324.33427881317914
 20
-153.625
 30
0.0
 11
322.62752186346887
 21
-153.625
 31
0.0
  0
LINE
  5
108
  8
MyLines
 10
322.62752186346887
 20
-153.625
 30
0.0
 11
320.9207649137586
 21
-153.625
 31
0.0
  0
LINE
  5
109
  8
MyLines
 10
320.9207649137586
 20
-153.625
 30
0.0
 11
319.2140079640483
 21
-153.625
 31
0.0
  0
LINE
  5
10A
  8
MyLines
 10
319.2140079640483
 20
-153.625
 30
0.0
 11
317.50725101433807
 21
-153.625
 31
0.0
  0
LINE
  5
10B
  8
MyLines
 10
317.50725101433807
 20
-153.625
 30
0.0
 11
315.80049406462774
 21
-153.625
 31
0.0
  0
LINE
  5
10C
  8
MyLines
 10
315.80049406462774
 20
-153.625
 30
0.0
 11
314.0937371149175
 21
-153.625
 31
0.0
  0
LINE
  5
10D
  8
MyLines
 10
314.0937371149175
 20
-153.625
 30
0.0
 11
312.3869801652072
 21
-153.625
 31
0.0
  0
LINE
  5
10E
  8
MyLines
 10
312.3869801652072
 20
-153.625
 30
0.0
 11
310.68022321549694
 21
-153.625
 31
0.0
  0
LINE
  5
10F
  8
MyLines
 10
310.68022321549694
 20
-153.625
 30
0.0
 11
308.9734662657866
 21
-153.625
 31
0.0
  0
LINE
  5
110
  8
MyLines
 10
308.9734662657866
 20
-153.625
 30
0.0
 11
307.26670931607634
 21
-153.625
 31
0.0
  0
LINE
  5
111
  8
MyLines
 10
307.26670931607634
 20
-153.625
 30
0.0
 11
305.5599523663661
 21
-153.625
 31
0.0
  0
LINE
  5
112
  8
MyLines
 10
305.5599523663661
 20
-153.625
 30
0.0
 11
303.8531954166558
 21
-153.625
 31
0.0
  0
LINE
  5
113
  8
MyLines
 10
303.8531954166558
 20
-153.625
 30
0.0
 11
302.14643846694554
 21
-153.625
 31
0.0
  0
LINE
  5
114
  8
MyLines
 10
302.14643846694554
 20
-153.625
 30
0.0
 11
300.4396815172353
 21
-153.625
 31
0.0
  0
LINE
  5
115
  8
MyLines
 10
300.4396815172353
 20
-153.625
 30
0.0
 11
298.73292456752495
 21
-153.625
 31
0.0
  0
LINE
  5
116
  8
MyLines
 10
298.73292456752495
 20
-153.625
 30
0.0
 11
297.0261676178147
 21
-153.625
 31
0.0
  0
LINE
  5
117
  8
MyLines
 10
297.0261676178147
 20
-153.625
 30
0.0
 11
295.31941066810447
 21
-153.625
 31
0.0
  0
LINE
  5
118
  8
MyLines
 10
295.31941066810447
 20
-153.625
 30
0.0
 11
293.61265371839414
 21
-153.625
 31
0.0
  0
LINE
  5
119
  8
MyLines
 10
293.61265371839414
 20
-153.625
 30
0.0
 11
291.9058967686838
 21
-153.625
 31
0.0
  0
LINE
  5
11A
  8
MyLines
 10
291.9058967686838
 20
-153.625
 30
0.0
 11
290.1991398189736
 21
-153.625
 31
0.0
  0
LINE
  5
11B
  8
MyLines
 10
290.1991398189736
 20
-153.625
 30
0.0
 11
288.49238286926334
 21
-153.625
 31
0.0
  0
LINE
  5
11C
  8
MyLines
 10
288.49238286926334
 20
-153.625
 30
0.0
 11
286.785625919553
 21
-153.625
 31
0.0
  0
LINE
  5
11D
  8
MyLines
 10
286.785625919553
 20
-153.625
 30
0.0
 11
285.07886896984274
 21
-153.625
 31
0.0
  0
LINE
  5
11E
  8
MyLines
 10
285.07886896984274
 20
-153.625
 30
0.0
 11
283.3721120201325
 21
-153.625
 31
0.0
  0
LINE
  5
11F
  8
MyLines
 10
283.3721120201325
 20
-153.625
 30
0.0
 11
281.6653550704222
 21
-153.625
 31
0.0
  0
LINE
  5
120
  8
MyLines
 10
281.6653550704222
 20
-153.625
 30
0.0
 11
279.95859812071194
 21
-153.625
 31
0.0
  0
LINE
  5
121
  8
MyLines
 10
279.95859812071194
 20
-153.625
 30
0.0
 11
278.2518411710017
 21
-153.625
 31
0.0
  0
LINE
  5
122
  8
MyLines
 10
278.2518411710017
 20
-153.625
 30
0.0
 11
276.54508422129135
 21
-153.625
 31
0.0
  0
LINE
  5
123
  8
MyLines
 10
276.54508422129135
 20
-153.625
 30
0.0
 11
274.8383272715811
 21
-153.625
 31
0.0
  0
LINE
  5
124
  8
MyLines
 10
274.8383272715811
 20
-153.625
 30
0.0
 11
273.1315703218708
 21
-153.625
 31
0.0
  0
LINE
  5
125
  8
MyLines
 10
273.1315703218708
 20
-153.625
 30
0.0
 11
271.42481337216054
 21
-153.625
 31
0.0
  0
LINE
  5
126
  8
MyLines
 10
271.42481337216054
 20
-153.625
 30
0.0
 11
269.7180564224502
 21
-153.625
 31
0.0
  0
LINE
  5
127
  8
MyLines
 10
269.7180564224502
 20
-153.625
 30
0.0
 11
268.01129947274
 21
-153.625
 31
0.0
  0
LINE
  5
128
  8
MyLines
 10
268.01129947274
 20
-153.625
 30
0.0
 11
266.30454252302974
 21
-153.625
 31
0.0
  0
LINE
  5
129
  8
MyLines
 10
266.30454252302974
 20
-153.625
 30
0.0
 11
264.5977855733194
 21
-153.625
 31
0.0
  0
LINE
  5
12A
  8
MyLines
 10
264.5977855733194
 20
-153.625
 30
0.0
 11
262.89102862360915
 21
-153.625
 31
0.0
  0
LINE
  5
12B
  8
MyLines
 10
262.89102862360915
 20
-153.625
 30
0.0
 11
261.1842716738989
 21
-153.625
 31
0.0
  0
LINE
  5
12C
  8
MyLines
 10
261.1842716738989
 20
-153.625
 30
0.0
 11
259.4775147241886
 21
-153.625
 31
0.0
  0
LINE
  5
12D
  8
MyLines
 10
259.4775147241886
 20
-153.625
 30
0.0
 11
259.4775147241886
 21
-153.625
 31
0.0
  0
LINE
  5
12E
  8
MyLines
 10
259.4775147241886
 20
-153.625
 30
0.0
 11
259.4775147241886
 21
161.5625
 31
0.0
  0
LINE
  5
12F
  8
MyLines
 10
259.4775147241886
 20
161.5625
 30
0.0
 11
259.4775147241886
 21
161.5625
 31
0.0
  0
LINE
  5
130
  8
MyLines
 10
259.4775147241886
 20
161.5625
 30
0.0
 11
261.1003386233821
 21
161.5625
 31
0.0
  0
LINE
  5
131
  8
MyLines
 10
261.1003386233821
 20
161.5625
 30
0.0
 11
262.7231625225755
 21
161.5625
 31
0.0
  0
LINE
  5
132
  8
MyLines
 10
262.7231625225755
 20
161.5625
 30
0.0
 11
264.34598642176894
 21
161.5625
 31
0.0
  0
LINE
  5
133
  8
MyLines
 10
264.34598642176894
 20
161.5625
 30
0.0
 11
265.9688103209624
 21
161.5625
 31
0.0
  0
LINE
  5
134
  8
MyLines
 10
265.9688103209624
 20
161.5625
 30
0.0
 11
267.59163422015575
 21
161.5625
 31
0.0
  0
LINE
  5
135
  8
MyLines
 10
267.59163422015575
 20
161.5625
 30
0.0
 11
269.2144581193492
 21
161.5625
 31
0.0
  0
LINE
  5
136
  8
MyLines
 10
269.2144581193492
 20
161.5625
 30
0.0
 11
270.8372820185426
 21
161.5625
 31
0.0
  0
LINE
  5
137
  8
MyLines
 10
270.8372820185426
 20
161.5625
 30
0.0
 11
272.4601059177361
 21
161.5625
 31
0.0
  0
LINE
  5
138
  8
MyLines
 10
272.4601059177361
 20
161.5625
 30
0.0
 11
274.08292981692955
 21
161.5625
 31
0.0
  0
LINE
  5
139
  8
MyLines
 10
274.08292981692955
 20
161.5625
 30
0.0
 11
275.70575371612296
 21
161.5625
 31
0.0
  0
LINE
  5
13A
  8
MyLines
 10
275.70575371612296
 20
161.5625
 30
0.0
 11
277.3285776153164
 21
161.5625
 31
0.0
  0
LINE
  5
13B
  8
MyLines
 10
277.3285776153164
 20
161.5625
 30
0.0
 11
278.9514015145098
 21
161.5625
 31
0.0
  0
LINE
  5
13C
  8
MyLines
 10
278.9514015145098
 20
161.5625
 30
0.0
 11
280.5742254137033
 21
161.5625
 31
0.0
  0
LINE
  5
13D
  8
MyLines
 10
280.5742254137033
 20
161.5625
 30
0.0
 11
282.19704931289675
 21
161.5625
 31
0.0
  0
LINE
  5
13E
  8
MyLines
 10
282.19704931289675
 20
161.5625
 30
0.0
 11
283.81987321209016
 21
161.5625
 31
0.0
  0
LINE
  5
13F
  8
MyLines
 10
283.81987321209016
 20
161.5625
 30
0.0
 11
285.44269711128356
 21
161.5625
 31
0.0
  0
LINE
  5
140
  8
MyLines
 10
285.44269711128356
 20
161.5625
 30
0.0
 11
287.06552101047697
 21
161.5625
 31
0.0
  0
LINE
  5
141
  8
MyLines
 10
287.06552101047697
 20
161.5625
 30
0.0
 11
288.68834490967043
 21
161.5625
 31
0.0
  0
LINE
  5
142
  8
MyLines
 10
288.68834490967043
 20
161.5625
 30
0.0
 11
290.3111688088639
 21
161.5625
 31
0.0
  0
LINE
  5
143
  8
MyLines
 10
290.3111688088639
 20
161.5625
 30
0.0
 11
291.9339927080573
 21
161.5625
 31
0.0
  0
LINE
  5
144
  8
MyLines
 10
291.9339927080573
 20
161.5625
 30
0.0
 11
293.55681660725077
 21
161.5625
 31
0.0
  0
LINE
  5
145
  8
MyLines
 10
293.55681660725077
 20
161.5625
 30
0.0
 11
295.1796405064442
 21
161.5625
 31
0.0
  0
LINE
  5
146
  8
MyLines
 10
295.1796405064442
 20
161.5625
 30
0.0
 11
296.80246440563764
 21
161.5625
 31
0.0
  0
LINE
  5
147
  8
MyLines
 10
296.80246440563764
 20
161.5625
 30
0.0
 11
298.4252883048311
 21
161.5625
 31
0.0
  0
LINE
  5
148
  8
MyLines
 10
298.4252883048311
 20
161.5625
 30
0.0
 11
300.0481122040245
 21
161.5625
 31
0.0
  0
LINE
  5
149
  8
MyLines
 10
300.0481122040245
 20
161.5625
 30
0.0
 11
301.67093610321797
 21
161.5625
 31
0.0
  0
LINE
  5
14A
  8
MyLines
 10
301.67093610321797
 20
161.5625
 30
0.0
 11
303.2937600024114
 21
161.5625
 31
0.0
  0
LINE
  5
14B
  8
MyLines
 10
303.2937600024114
 20
161.5625
 30
0.0
 11
304.91658390160484
 21
161.5625
 31
0.0
  0
LINE
  5
14C
  8
MyLines
 10
304.91658390160484
 20
161.5625
 30
0.0
 11
306.5394078007983
 21
161.5625
 31
0.0
  0
LINE
  5
14D
  8
MyLines
 10
306.5394078007983
 20
161.5625
 30
0.0
 11
308.1622316999917
 21
161.5625
 31
0.0
  0
LINE
  5
14E
  8
MyLines
 10
308.1622316999917
 20
161.5625
 30
0.0
 11
309.78505559918517
 21
161.5625
 31
0.0
  0
LINE
  5
14F
  8
MyLines
 10
309.78505559918517
 20
161.5625
 30
0.0
 11
311.4078794983786
 21
161.5625
 31
0.0
  0
LINE
  5
150
  8
MyLines
 10
311.4078794983786
 20
161.5625
 30
0.0
 11
313.03070339757204
 21
161.5625
 31
0.0
  0
LINE
  5
151
  8
MyLines
 10
313.03070339757204
 20
161.5625
 30
0.0
 11
314.65352729676545
 21
161.5625
 31
0.0
  0
LINE
  5
152
  8
MyLines
 10
314.65352729676545
 20
161.5625
 30
0.0
 11
316.2763511959589
 21
161.5625
 31
0.0
  0
LINE
  5
153
  8
MyLines
 10
316.2763511959589
 20
161.5625
 30
0.0
 11
317.8991750951524
 21
161.5625
 31
0.0
  0
LINE
  5
154
  8
MyLines
 10
317.8991750951524
 20
161.5625
 30
0.0
 11
319.5219989943458
 21
161.5625
 31
0.0
  0
LINE
  5
155
  8
MyLines
 10
319.5219989943458
 20
161.5625
 30
0.0
 11
321.14482289353924
 21
161.5625
 31
0.0
  0
LINE
  5
156
  8
MyLines
 10
321.14482289353924
 20
161.5625
 30
0.0
 11
322.7676467927326
 21
161.5625
 31
0.0
  0
LINE
  5
157
  8
MyLines
 10
322.7676467927326
 20
161.5625
 30
0.0
 11
324.39047069192605
 21
161.5625
 31
0.0
  0
LINE
  5
158
  8
MyLines
 10
324.39047069192605
 20
161.5625
 30
0.0
 11
326.0132945911195
 21
161.5625
 31
0.0
  0
LINE
  5
159
  8
MyLines
 10
326.0132945911195
 20
161.5625
 30
0.0
 11
327.6361184903129
 21
161.5625
 31
0.0
  0
LINE
  5
15A
  8
MyLines
 10
327.6361184903129
 20
161.5625
 30
0.0
 11
329.2589423895064
 21
161.5625
 31
0.0
  0
LINE
  5
15B
  8
MyLines
 10
329.2589423895064
 20
161.5625
 30
0.0
 11
330.8817662886998
 21
161.5625
 31
0.0
  0
LINE
  5
15C
  8
MyLines
 10
330.8817662886998
 20
161.5625
 30
0.0
 11
332.50459018789326
 21
161.5625
 31
0.0
  0
LINE
  5
15D
  8
MyLines
 10
332.50459018789326
 20
161.5625
 30
0.0
 11
334.1274140870867
 21
161.5625
 31
0.0
  0
LINE
  5
15E
  8
MyLines
 10
334.1274140870867
 20
161.5625
 30
0.0
 11
335.7502379862801
 21
161.5625
 31
0.0
  0
LINE
  5
15F
  8
MyLines
 10
335.7502379862801
 20
161.5625
 30
0.0
 11
337.3730618854736
 21
161.5625
 31
0.0
  0
LINE
  5
160
  8
MyLines
 10
337.3730618854736
 20
161.5625
 30
0.0
 11
338.995885784667
 21
161.5625
 31
0.0
  0
LINE
  5
161
  8
MyLines
 10
338.995885784667
 20
161.5625
 30
0.0
 11
338.995885784667
 21
-149.65625
 31
0.0
  0
LINE
  5
162
  8
MyLines
 10
338.995885784667
 20
-149.65625
 30
0.0
 11
338.995885784667
 21
-149.65625
 31
0.0
  0
LINE
  5
163
  8
MyLines
 10
338.995885784667
 20
-149.65625
 30
0.0
 11
337.46083395715203
 21
-149.65625
 31
0.0
  0
LINE
  5
164
  8
MyLines
 10
337.46083395715203
 20
-149.65625
 30
0.0
 11
335.92578212963696
 21
-149.65625
 31
0.0
  0
LINE
  5
165
  8
MyLines
 10
335.92578212963696
 20
-149.65625
 30
0.0
 11
334.390730302122
 21
-149.65625
 31
0.0
  0
LINE
  5
166
  8
MyLines
 10
334.390730302122
 20
-149.65625
 30
0.0
 11
332.8556784746069
 21
-149.65625
 31
0.0
  0
LINE
  5
167
  8
MyLines
 10
332.8556784746069
 20
-149.65625
 30
0.0
 11
331.32062664709196
 21
-149.65625
 31
0.0
  0
LINE
  5
168
  8
MyLines
 10
331.32062664709196
 20
-149.65625
 30
0.0
 11
329.7855748195769
 21
-149.65625
 31
0.0
  0
LINE
  5
169
  8
MyLines
 10
329.7855748195769
 20
-149.65625
 30
0.0
 11
328.2505229920619
 21
-149.65625
 31
0.0
  0
LINE
  5
16A
  8
MyLines
 10
328.2505229920619
 20
-149.65625
 30
0.0
 11
326.71547116454684
 21
-149.65625
 31
0.0
  0
LINE
  5
16B
  8
MyLines
 10
326.71547116454684
 20
-149.65625
 30
0.0
 11
325.1804193370319
 21
-149.65625
 31
0.0
  0
LINE
  5
16C
  8
MyLines
 10
325.1804193370319
 20
-149.65625
 30
0.0
 11
323.6453675095168
 21
-149.65625
 31
0.0
  0
LINE
  5
16D
  8
MyLines
 10
323.6453675095168
 20
-149.65625
 30
0.0
 11
322.11031568200184
 21
-149.65625
 31
0.0
  0
LINE
  5
16E
  8
MyLines
 10
322.11031568200184
 20
-149.65625
 30
0.0
 11
320.57526385448676
 21
-149.65625
 31
0.0
  0
LINE
  5
16F
  8
MyLines
 10
320.57526385448676
 20
-149.65625
 30
0.0
 11
319.0402120269718
 21
-149.65625
 31
0.0
  0
LINE
  5
170
  8
MyLines
 10
319.0402120269718
 20
-149.65625
 30
0.0
 11
317.5051601994567
 21
-149.65625
 31
0.0
  0
LINE
  5
171
  8
MyLines
 10
317.5051601994567
 20
-149.65625
 30
0.0
 11
315.97010837194176
 21
-149.65625
 31
0.0
  0
LINE
  5
172
  8
MyLines
 10
315.97010837194176
 20
-149.65625
 30
0.0
 11
314.4350565444267
 21
-149.65625
 31
0.0
  0
LINE
  5
173
  8
MyLines
 10
314.4350565444267
 20
-149.65625
 30
0.0
 11
312.9000047169117
 21
-149.65625
 31
0.0
  0
LINE
  5
174
  8
MyLines
 10
312.9000047169117
 20
-149.65625
 30
0.0
 11
311.36495288939665
 21
-149.65625
 31
0.0
  0
LINE
  5
175
  8
MyLines
 10
311.36495288939665
 20
-149.65625
 30
0.0
 11
309.8299010618817
 21
-149.65625
 31
0.0
  0
LINE
  5
176
  8
MyLines
 10
309.8299010618817
 20
-149.65625
 30
0.0
 11
308.2948492343666
 21
-149.65625
 31
0.0
  0
LINE
  5
177
  8
MyLines
 10
308.2948492343666
 20
-149.65625
 30
0.0
 11
306.75979740685165
 21
-149.65625
 31
0.0
  0
LINE
  5
178
  8
MyLines
 10
306.75979740685165
 20
-149.65625
 30
0.0
 11
305.22474557933657
 21
-149.65625
 31
0.0
  0
LINE
  5
179
  8
MyLines
 10
305.22474557933657
 20
-149.65625
 30
0.0
 11
303.6896937518216
 21
-149.65625
 31
0.0
  0
LINE
  5
17A
  8
MyLines
 10
303.6896937518216
 20
-149.65625
 30
0.0
 11
302.1546419243066
 21
-149.65625
 31
0.0
  0
LINE
  5
17B
  8
MyLines
 10
302.1546419243066
 20
-149.65625
 30
0.0
 11
300.61959009679157
 21
-149.65625
 31
0.0
  0
LINE
  5
17C
  8
MyLines
 10
300.61959009679157
 20
-149.65625
 30
0.0
 11
299.0845382692765
 21
-149.65625
 31
0.0
  0
LINE
  5
17D
  8
MyLines
 10
299.0845382692765
 20
-149.65625
 30
0.0
 11
297.54948644176153
 21
-149.65625
 31
0.0
  0
LINE
  5
17E
  8
MyLines
 10
297.54948644176153
 20
-149.65625
 30
0.0
 11
296.0144346142465
 21
-149.65625
 31
0.0
  0
LINE
  5
17F
  8
MyLines
 10
296.0144346142465
 20
-149.65625
 30
0.0
 11
294.4793827867315
 21
-149.65625
 31
0.0
  0
LINE
  5
180
  8
MyLines
 10
294.4793827867315
 20
-149.65625
 30
0.0
 11
292.9443309592164
 21
-149.65625
 31
0.0
  0
LINE
  5
181
  8
MyLines
 10
292.9443309592164
 20
-149.65625
 30
0.0
 11
291.40927913170145
 21
-149.65625
 31
0.0
  0
LINE
  5
182
  8
MyLines
 10
291.40927913170145
 20
-149.65625
 30
0.0
 11
289.87422730418643
 21
-149.65625
 31
0.0
  0
LINE
  5
183
  8
MyLines
 10
289.87422730418643
 20
-149.65625
 30
0.0
 11
288.3391754766714
 21
-149.65625
 31
0.0
  0
LINE
  5
184
  8
MyLines
 10
288.3391754766714
 20
-149.65625
 30
0.0
 11
286.80412364915634
 21
-149.65625
 31
0.0
  0
LINE
  5
185
  8
MyLines
 10
286.80412364915634
 20
-149.65625
 30
0.0
 11
285.2690718216413
 21
-149.65625
 31
0.0
  0
LINE
  5
186
  8
MyLines
 10
285.2690718216413
 20
-149.65625
 30
0.0
 11
283.73401999412636
 21
-149.65625
 31
0.0
  0
LINE
  5
187
  8
MyLines
 10
283.73401999412636
 20
-149.65625
 30
0.0
 11
282.1989681666113
 21
-149.65625
 31
0.0
  0
LINE
  5
188
  8
MyLines
 10
282.1989681666113
 20
-149.65625
 30
0.0
 11
280.6639163390963
 21
-149.65625
 31
0.0
  0
LINE
  5
189
  8
MyLines
 10
280.6639163390963
 20
-149.65625
 30
0.0
 11
279.12886451158124
 21
-149.65625
 31
0.0
  0
LINE
  5
18A
  8
MyLines
 10
279.12886451158124
 20
-149.65625
 30
0.0
 11
277.5938126840663
 21
-149.65625
 31
0.0
  0
LINE
  5
18B
  8
MyLines
 10
277.5938126840663
 20
-149.65625
 30
0.0
 11
276.0587608565512
 21
-149.65625
 31
0.0
  0
LINE
  5
18C
  8
MyLines
 10
276.0587608565512
 20
-149.65625
 30
0.0
 11
274.52370902903624
 21
-149.65625
 31
0.0
  0
LINE
  5
18D
  8
MyLines
 10
274.52370902903624
 20
-149.65625
 30
0.0
 11
272.98865720152116
 21
-149.65625
 31
0.0
  0
LINE
  5
18E
  8
MyLines
 10
272.98865720152116
 20
-149.65625
 30
0.0
 11
271.4536053740062
 21
-149.65625
 31
0.0
  0
LINE
  5
18F
  8
MyLines
 10
271.4536053740062
 20
-149.65625
 30
0.0
 11
269.9185535464912
 21
-149.65625
 31
0.0
  0
LINE
  5
190
  8
MyLines
 10
269.9185535464912
 20
-149.65625
 30
0.0
 11
268.38350171897616
 21
-149.65625
 31
0.0
  0
LINE
  5
191
  8
MyLines
 10
268.38350171897616
 20
-149.65625
 30
0.0
 11
266.8484498914611
 21
-149.65625
 31
0.0
  0
LINE
  5
192
  8
MyLines
 10
266.8484498914611
 20
-149.65625
 30
0.0
 11
265.3133980639461
 21
-149.65625
 31
0.0
  0
LINE
  5
193
  8
MyLines
 10
265.3133980639461
 20
-149.65625
 30
0.0
 11
263.7783462364311
 21
-149.65625
 31
0.0
  0
LINE
  5
194
  8
MyLines
 10
263.7783462364311
 20
-149.65625
 30
0.0
 11
263.7783462364311
 21
-149.65625
 31
0.0
  0
LINE
  5
195
  8
MyLines
 10
263.7783462364311
 20
-149.65625
 30
0.0
 11
263.7783462364311
 21
157.59375
 31
0.0
  0
LINE
  5
196
  8
MyLines
 10
263.7783462364311
 20
157.59375
 30
0.0
 11
263.7783462364311
 21
157.59375
 31
0.0
  0
LINE
  5
197
  8
MyLines
 10
263.7783462364311
 20
157.59375
 30
0.0
 11
265.2256259922677
 21
157.59375
 31
0.0
  0
LINE
  5
198
  8
MyLines
 10
265.2256259922677
 20
157.59375
 30
0.0
 11
266.6729057481043
 21
157.59375
 31
0.0
  0
LINE
  5
199
  8
MyLines
 10
266.6729057481043
 20
157.59375
 30
0.0
 11
268.1201855039409
 21
157.59375
 31
0.0
  0
LINE
  5
19A
  8
MyLines
 10
268.1201855039409
 20
157.59375
 30
0.0
 11
269.5674652597775
 21
157.59375
 31
0.0
  0
LINE
  5
19B
  8
MyLines
 10
269.5674652597775
 20
157.59375
 30
0.0
 11
271.01474501561404
 21
157.59375
 31
0.0
  0
LINE
  5
19C
  8
MyLines
 10
271.01474501561404
 20
157.59375
 30
0.0
 11
272.46202477145073
 21
157.59375
 31
0.0
  0
LINE
  5
19D
  8
MyLines
 10
272.46202477145073
 20
157.59375
 30
0.0
 11
273.90930452728725
 21
157.59375
 31
0.0
  0
LINE
  5
19E
  8
MyLines
 10
273.90930452728725
 20
157.59375
 30
0.0
 11
275.35658428312394
 21
157.59375
 31
0.0
  0
LINE
  5
19F
  8
MyLines
 10
275.35658428312394
 20
157.59375
 30
0.0
 11
276.80386403896046
 21
157.59375
 31
0.0
  0
LINE
  5
1A0
  8
MyLines
 10
276.80386403896046
 20
157.59375
 30
0.0
 11
278.25114379479714
 21
157.59375
 31
0.0
  0
LINE
  5
1A1
  8
MyLines
 10
278.25114379479714
 20
157.59375
 30
0.0
 11
279.69842355063366
 21
157.59375
 31
0.0
  0
LINE
  5
1A2
  8
MyLines
 10
279.69842355063366
 20
157.59375
 30
0.0
 11
281.1457033064703
 21
157.59375
 31
0.0
  0
LINE
  5
1A3
  8
MyLines
 10
281.1457033064703
 20
157.59375
 30
0.0
 11
282.59298306230687
 21
157.59375
 31
0.0
  0
LINE
  5
1A4
  8
MyLines
 10
282.59298306230687
 20
157.59375
 30
0.0
 11
284.0402628181435
 21
157.59375
 31
0.0
  0
LINE
  5
1A5
  8
MyLines
 10
284.0402628181435
 20
157.59375
 30
0.0
 11
285.4875425739801
 21
157.59375
 31
0.0
  0
LINE
  5
1A6
  8
MyLines
 10
285.4875425739801
 20
157.59375
 30
0.0
 11
286.9348223298167
 21
157.59375
 31
0.0
  0
LINE
  5
1A7
  8
MyLines
 10
286.9348223298167
 20
157.59375
 30
0.0
 11
288.3821020856533
 21
157.59375
 31
0.0
  0
LINE
  5
1A8
  8
MyLines
 10
288.3821020856533
 20
157.59375
 30
0.0
 11
289.8293818414899
 21
157.59375
 31
0.0
  0
LINE
  5
1A9
  8
MyLines
 10
289.8293818414899
 20
157.59375
 30
0.0
 11
291.2766615973265
 21
157.59375
 31
0.0
  0
LINE
  5
1AA
  8
MyLines
 10
291.2766615973265
 20
157.59375
 30
0.0
 11
292.7239413531631
 21
157.59375
 31
0.0
  0
LINE
  5
1AB
  8
MyLines
 10
292.7239413531631
 20
157.59375
 30
0.0
 11
294.1712211089997
 21
157.59375
 31
0.0
  0
LINE
  5
1AC
  8
MyLines
 10
294.1712211089997
 20
157.59375
 30
0.0
 11
295.61850086483634
 21
157.59375
 31
0.0
  0
LINE
  5
1AD
  8
MyLines
 10
295.61850086483634
 20
157.59375
 30
0.0
 11
297.0657806206729
 21
157.59375
 31
0.0
  0
LINE
  5
1AE
  8
MyLines
 10
297.0657806206729
 20
157.59375
 30
0.0
 11
298.51306037650954
 21
157.59375
 31
0.0
  0
LINE
  5
1AF
  8
MyLines
 10
298.51306037650954
 20
157.59375
 30
0.0
 11
299.9603401323461
 21
157.59375
 31
0.0
  0
LINE
  5
1B0
  8
MyLines
 10
299.9603401323461
 20
157.59375
 30
0.0
 11
301.4076198881827
 21
157.59375
 31
0.0
  0
LINE
  5
1B1
  8
MyLines
 10
301.4076198881827
 20
157.59375
 30
0.0
 11
302.8548996440193
 21
157.59375
 31
0.0
  0
LINE
  5
1B2
  8
MyLines
 10
302.8548996440193
 20
157.59375
 30
0.0
 11
304.3021793998559
 21
157.59375
 31
0.0
  0
LINE
  5
1B3
  8
MyLines
 10
304.3021793998559
 20
157.59375
 30
0.0
 11
305.74945915569253
 21
157.59375
 31
0.0
  0
LINE
  5
1B4
  8
MyLines
 10
305.74945915569253
 20
157.59375
 30
0.0
 11
307.1967389115291
 21
157.59375
 31
0.0
  0
LINE
  5
1B5
  8
MyLines
 10
307.1967389115291
 20
157.59375
 30
0.0
 11
308.64401866736574
 21
157.59375
 31
0.0
  0
LINE
  5
1B6
  8
MyLines
 10
308.64401866736574
 20
157.59375
 30
0.0
 11
310.0912984232023
 21
157.59375
 31
0.0
  0
LINE
  5
1B7
  8
MyLines
 10
310.0912984232023
 20
157.59375
 30
0.0
 11
311.53857817903895
 21
157.59375
 31
0.0
  0
LINE
  5
1B8
  8
MyLines
 10
311.53857817903895
 20
157.59375
 30
0.0
 11
312.9858579348755
 21
157.59375
 31
0.0
  0
LINE
  5
1B9
  8
MyLines
 10
312.9858579348755
 20
157.59375
 30
0.0
 11
314.4331376907121
 21
157.59375
 31
0.0
  0
LINE
  5
1BA
  8
MyLines
 10
314.4331376907121
 20
157.59375
 30
0.0
 11
315.88041744654873
 21
157.59375
 31
0.0
  0
LINE
  5
1BB
  8
MyLines
 10
315.88041744654873
 20
157.59375
 30
0.0
 11
317.3276972023853
 21
157.59375
 31
0.0
  0
LINE
  5
1BC
  8
MyLines
 10
317.3276972023853
 20
157.59375
 30
0.0
 11
318.77497695822194
 21
157.59375
 31
0.0
  0
LINE
  5
1BD
  8
MyLines
 10
318.77497695822194
 20
157.59375
 30
0.0
 11
320.2222567140585
 21
157.59375
 31
0.0
  0
LINE
  5
1BE
  8
MyLines
 10
320.2222567140585
 20
157.59375
 30
0.0
 11
321.66953646989515
 21
157.59375
 31
0.0
  0
LINE
  5
1BF
  8
MyLines
 10
321.66953646989515
 20
157.59375
 30
0.0
 11
323.1168162257317
 21
157.59375
 31
0.0
  0
LINE
  5
1C0
  8
MyLines
 10
323.1168162257317
 20
157.59375
 30
0.0
 11
324.5640959815683
 21
157.59375
 31
0.0
  0
LINE
  5
1C1
  8
MyLines
 10
324.5640959815683
 20
157.59375
 30
0.0
 11
326.01137573740493
 21
157.59375
 31
0.0
  0
LINE
  5
1C2
  8
MyLines
 10
326.01137573740493
 20
157.59375
 30
0.0
 11
327.4586554932415
 21
157.59375
 31
0.0
  0
LINE
  5
1C3
  8
MyLines
 10
327.4586554932415
 20
157.59375
 30
0.0
 11
328.90593524907814
 21
157.59375
 31
0.0
  0
LINE
  5
1C4
  8
MyLines
 10
328.90593524907814
 20
157.59375
 30
0.0
 11
330.3532150049147
 21
157.59375
 31
0.0
  0
LINE
  5
1C5
  8
MyLines
 10
330.3532150049147
 20
157.59375
 30
0.0
 11
331.80049476075135
 21
157.59375
 31
0.0
  0
LINE
  5
1C6
  8
MyLines
 10
331.80049476075135
 20
157.59375
 30
0.0
 11
333.2477745165879
 21
157.59375
 31
0.0
  0
LINE
  5
1C7
  8
MyLines
 10
333.2477745165879
 20
157.59375
 30
0.0
 11
334.6950542724245
 21
157.59375
 31
0.0
  0
LINE
  5
1C8
  8
MyLines
 10
334.6950542724245
 20
157.59375
 30
0.0
 11
334.6950542724245
 21
-145.6875
 31
0.0
  0
LINE
  5
1C9
  8
MyLines
 10
334.6950542724245
 20
-145.6875
 30
0.0
 11
334.6950542724245
 21
-145.6875
 31
0.0
  0
LINE
  5
1CA
  8
MyLines
 10
334.6950542724245
 20
-145.6875
 30
0.0
 11
333.3419666449605
 21
-145.6875
 31
0.0
  0
LINE
  5
1CB
  8
MyLines
 10
333.3419666449605
 20
-145.6875
 30
0.0
 11
331.9888790174965
 21
-145.6875
 31
0.0
  0
LINE
  5
1CC
  8
MyLines
 10
331.9888790174965
 20
-145.6875
 30
0.0
 11
330.63579139003247
 21
-145.6875
 31
0.0
  0
LINE
  5
1CD
  8
MyLines
 10
330.63579139003247
 20
-145.6875
 30
0.0
 11
329.28270376256853
 21
-145.6875
 31
0.0
  0
LINE
  5
1CE
  8
MyLines
 10
329.28270376256853
 20
-145.6875
 30
0.0
 11
327.9296161351045
 21
-145.6875
 31
0.0
  0
LINE
  5
1CF
  8
MyLines
 10
327.9296161351045
 20
-145.6875
 30
0.0
 11
326.5765285076405
 21
-145.6875
 31
0.0
  0
LINE
  5
1D0
  8
MyLines
 10
326.5765285076405
 20
-145.6875
 30
0.0
 11
325.2234408801765
 21
-145.6875
 31
0.0
  0
LINE
  5
1D1
  8
MyLines
 10
325.2234408801765
 20
-145.6875
 30
0.0
 11
323.87035325271245
 21
-145.6875
 31
0.0
  0
LINE
  5
1D2
  8
MyLines
 10
323.87035325271245
 20
-145.6875
 30
0.0
 11
322.51726562524846
 21
-145.6875
 31
0.0
  0
LINE
  5
1D3
  8
MyLines
 10
322.51726562524846
 20
-145.6875
 30
0.0
 11
321.16417799778446
 21
-145.6875
 31
0.0
  0
LINE
  5
1D4
  8
MyLines
 10
321.16417799778446
 20
-145.6875
 30
0.0
 11
319.81109037032047
 21
-145.6875
 31
0.0
  0
LINE
  5
1D5
  8
MyLines
 10
319.81109037032047
 20
-145.6875
 30
0.0
 11
318.4580027428564
 21
-145.6875
 31
0.0
  0
LINE
  5
1D6
  8
MyLines
 10
318.4580027428564
 20
-145.6875
 30
0.0
 11
317.10491511539243
 21
-145.6875
 31
0.0
  0
LINE
  5
1D7
  8
MyLines
 10
317.10491511539243
 20
-145.6875
 30
0.0
 11
315.75182748792844
 21
-145.6875
 31
0.0
  0
LINE
  5
1D8
  8
MyLines
 10
315.75182748792844
 20
-145.6875
 30
0.0
 11
314.3987398604644
 21
-145.6875
 31
0.0
  0
LINE
  5
1D9
  8
MyLines
 10
314.3987398604644
 20
-145.6875
 30
0.0
 11
313.0456522330004
 21
-145.6875
 31
0.0
  0
LINE
  5
1DA
  8
MyLines
 10
313.0456522330004
 20
-145.6875
 30
0.0
 11
311.6925646055364
 21
-145.6875
 31
0.0
  0
LINE
  5
1DB
  8
MyLines
 10
311.6925646055364
 20
-145.6875
 30
0.0
 11
310.3394769780724
 21
-145.6875
 31
0.0
  0
LINE
  5
1DC
  8
MyLines
 10
310.3394769780724
 20
-145.6875
 30
0.0
 11
308.9863893506084
 21
-145.6875
 31
0.0
  0
LINE
  5
1DD
  8
MyLines
 10
308.9863893506084
 20
-145.6875
 30
0.0
 11
307.63330172314437
 21
-145.6875
 31
0.0
  0
LINE
  5
1DE
  8
MyLines
 10
307.63330172314437
 20
-145.6875
 30
0.0
 11
306.2802140956804
 21
-145.6875
 31
0.0
  0
LINE
  5
1DF
  8
MyLines
 10
306.2802140956804
 20
-145.6875
 30
0.0
 11
304.92712646821633
 21
-145.6875
 31
0.0
  0
LINE
  5
1E0
  8
MyLines
 10
304.92712646821633
 20
-145.6875
 30
0.0
 11
303.57403884075234
 21
-145.6875
 31
0.0
  0
LINE
  5
1E1
  8
MyLines
 10
303.57403884075234
 20
-145.6875
 30
0.0
 11
302.22095121328834
 21
-145.6875
 31
0.0
  0
LINE
  5
1E2
  8
MyLines
 10
302.22095121328834
 20
-145.6875
 30
0.0
 11
300.86786358582435
 21
-145.6875
 31
0.0
  0
LINE
  5
1E3
  8
MyLines
 10
300.86786358582435
 20
-145.6875
 30
0.0
 11
299.51477595836036
 21
-145.6875
 31
0.0
  0
LINE
  5
1E4
  8
MyLines
 10
299.51477595836036
 20
-145.6875
 30
0.0
 11
298.1616883308963
 21
-145.6875
 31
0.0
  0
LINE
  5
1E5
  8
MyLines
 10
298.1616883308963
 20
-145.6875
 30
0.0
 11
296.8086007034323
 21
-145.6875
 31
0.0
  0
LINE
  5
1E6
  8
MyLines
 10
296.8086007034323
 20
-145.6875
 30
0.0
 11
295.4555130759684
 21
-145.6875
 31
0.0
  0
LINE
  5
1E7
  8
MyLines
 10
295.4555130759684
 20
-145.6875
 30
0.0
 11
294.10242544850433
 21
-145.6875
 31
0.0
  0
LINE
  5
1E8
  8
MyLines
 10
294.10242544850433
 20
-145.6875
 30
0.0
 11
292.74933782104034
 21
-145.6875
 31
0.0
  0
LINE
  5
1E9
  8
MyLines
 10
292.74933782104034
 20
-145.6875
 30
0.0
 11
291.3962501935763
 21
-145.6875
 31
0.0
  0
LINE
  5
1EA
  8
MyLines
 10
291.3962501935763
 20
-145.6875
 30
0.0
 11
290.0431625661123
 21
-145.6875
 31
0.0
  0
LINE
  5
1EB
  8
MyLines
 10
290.0431625661123
 20
-145.6875
 30
0.0
 11
288.6900749386483
 21
-145.6875
 31
0.0
  0
LINE
  5
1EC
  8
MyLines
 10
288.6900749386483
 20
-145.6875
 30
0.0
 11
287.33698731118426
 21
-145.6875
 31
0.0
  0
LINE
  5
1ED
  8
MyLines
 10
287.33698731118426
 20
-145.6875
 30
0.0
 11
285.98389968372027
 21
-145.6875
 31
0.0
  0
LINE
  5
1EE
  8
MyLines
 10
285.98389968372027
 20
-145.6875
 30
0.0
 11
284.6308120562562
 21
-145.6875
 31
0.0
  0
LINE
  5
1EF
  8
MyLines
 10
284.6308120562562
 20
-145.6875
 30
0.0
 11
283.2777244287923
 21
-145.6875
 31
0.0
  0
LINE
  5
1F0
  8
MyLines
 10
283.2777244287923
 20
-145.6875
 30
0.0
 11
281.92463680132823
 21
-145.6875
 31
0.0
  0
LINE
  5
1F1
  8
MyLines
 10
281.92463680132823
 20
-145.6875
 30
0.0
 11
280.57154917386424
 21
-145.6875
 31
0.0
  0
LINE
  5
1F2
  8
MyLines
 10
280.57154917386424
 20
-145.6875
 30
0.0
 11
279.21846154640025
 21
-145.6875
 31
0.0
  0
LINE
  5
1F3
  8
MyLines
 10
279.21846154640025
 20
-145.6875
 30
0.0
 11
277.86537391893626
 21
-145.6875
 31
0.0
  0
LINE
  5
1F4
  8
MyLines
 10
277.86537391893626
 20
-145.6875
 30
0.0
 11
276.51228629147226
 21
-145.6875
 31
0.0
  0
LINE
  5
1F5
  8
MyLines
 10
276.51228629147226
 20
-145.6875
 30
0.0
 11
275.1591986640082
 21
-145.6875
 31
0.0
  0
LINE
  5
1F6
  8
MyLines
 10
275.1591986640082
 20
-145.6875
 30
0.0
 11
273.8061110365442
 21
-145.6875
 31
0.0
  0
LINE
  5
1F7
  8
MyLines
 10
273.8061110365442
 20
-145.6875
 30
0.0
 11
272.45302340908023
 21
-145.6875
 31
0.0
  0
LINE
  5
1F8
  8
MyLines
 10
272.45302340908023
 20
-145.6875
 30
0.0
 11
271.0999357816162
 21
-145.6875
 31
0.0
  0
LINE
  5
1F9
  8
MyLines
 10
271.0999357816162
 20
-145.6875
 30
0.0
 11
269.7468481541522
 21
-145.6875
 31
0.0
  0
LINE
  5
1FA
  8
MyLines
 10
269.7468481541522
 20
-145.6875
 30
0.0
 11
268.39376052668814
 21
-145.6875
 31
0.0
  0
LINE
  5
1FB
  8
MyLines
 10
268.39376052668814
 20
-145.6875
 30
0.0
 11
268.39376052668814
 21
-145.6875
 31
0.0
  0
LINE
  5
1FC
  8
MyLines
 10
268.39376052668814
 20
-145.6875
 30
0.0
 11
268.39376052668814
 21
153.625
 31
0.0
  0
LINE
  5
1FD
  8
MyLines
 10
268.39376052668814
 20
153.625
 30
0.0
 11
268.39376052668814
 21
153.625
 31
0.0
  0
LINE
  5
1FE
  8
MyLines
 10
268.39376052668814
 20
153.625
 30
0.0
 11
269.6526560257796
 21
153.625
 31
0.0
  0
LINE
  5
1FF
  8
MyLines
 10
269.6526560257796
 20
153.625
 30
0.0
 11
270.911551524871
 21
153.625
 31
0.0
  0
LINE
  5
200
  8
MyLines
 10
270.911551524871
 20
153.625
 30
0.0
 11
272.1704470239624
 21
153.625
 31
0.0
  0
LINE
  5
201
  8
MyLines
 10
272.1704470239624
 20
153.625
 30
0.0
 11
273.42934252305383
 21
153.625
 31
0.0
  0
LINE
  5
202
  8
MyLines
 10
273.42934252305383
 20
153.625
 30
0.0
 11
274.68823802214524
 21
153.625
 31
0.0
  0
LINE
  5
203
  8
MyLines
 10
274.68823802214524
 20
153.625
 30
0.0
 11
275.94713352123665
 21
153.625
 31
0.0
  0
LINE
  5
204
  8
MyLines
 10
275.94713352123665
 20
153.625
 30
0.0
 11
277.20602902032806
 21
153.625
 31
0.0
  0
LINE
  5
205
  8
MyLines
 10
277.20602902032806
 20
153.625
 30
0.0
 11
278.46492451941947
 21
153.625
 31
0.0
  0
LINE
  5
206
  8
MyLines
 10
278.46492451941947
 20
153.625
 30
0.0
 11
279.7238200185109
 21
153.625
 31
0.0
  0
LINE
  5
207
  8
MyLines
 10
279.7238200185109
 20
153.625
 30
0.0
 11
280.9827155176023
 21
153.625
 31
0.0
  0
LINE
  5
208
  8
MyLines
 10
280.9827155176023
 20
153.625
 30
0.0
 11
282.24161101669375
 21
153.625
 31
0.0
  0
LINE
  5
209
  8
MyLines
 10
282.24161101669375
 20
153.625
 30
0.0
 11
283.5005065157851
 21
153.625
 31
0.0
  0
LINE
  5
20A
  8
MyLines
 10
283.5005065157851
 20
153.625
 30
0.0
 11
284.7594020148765
 21
153.625
 31
0.0
  0
LINE
  5
20B
  8
MyLines
 10
284.7594020148765
 20
153.625
 30
0.0
 11
286.018297513968
 21
153.625
 31
0.0
  0
LINE
  5
20C
  8
MyLines
 10
286.018297513968
 20
153.625
 30
0.0
 11
287.27719301305933
 21
153.625
 31
0.0
  0
LINE
  5
20D
  8
MyLines
 10
287.27719301305933
 20
153.625
 30
0.0
 11
288.5360885121508
 21
153.625
 31
0.0
  0
LINE
  5
20E
  8
MyLines
 10
288.5360885121508
 20
153.625
 30
0.0
 11
289.7949840112422
 21
153.625
 31
0.0
  0
LINE
  5
20F
  8
MyLines
 10
289.7949840112422
 20
153.625
 30
0.0
 11
291.05387951033356
 21
153.625
 31
0.0
  0
LINE
  5
210
  8
MyLines
 10
291.05387951033356
 20
153.625
 30
0.0
 11
292.312775009425
 21
153.625
 31
0.0
  0
LINE
  5
211
  8
MyLines
 10
292.312775009425
 20
153.625
 30
0.0
 11
293.57167050851643
 21
153.625
 31
0.0
  0
LINE
  5
212
  8
MyLines
 10
293.57167050851643
 20
153.625
 30
0.0
 11
294.83056600760784
 21
153.625
 31
0.0
  0
LINE
  5
213
  8
MyLines
 10
294.83056600760784
 20
153.625
 30
0.0
 11
296.08946150669925
 21
153.625
 31
0.0
  0
LINE
  5
214
  8
MyLines
 10
296.08946150669925
 20
153.625
 30
0.0
 11
297.34835700579066
 21
153.625
 31
0.0
  0
LINE
  5
215
  8
MyLines
 10
297.34835700579066
 20
153.625
 30
0.0
 11
298.60725250488207
 21
153.625
 31
0.0
  0
LINE
  5
216
  8
MyLines
 10
298.60725250488207
 20
153.625
 30
0.0
 11
299.8661480039735
 21
153.625
 31
0.0
  0
LINE
  5
217
  8
MyLines
 10
299.8661480039735
 20
153.625
 30
0.0
 11
301.1250435030649
 21
153.625
 31
0.0
  0
LINE
  5
218
  8
MyLines
 10
301.1250435030649
 20
153.625
 30
0.0
 11
302.3839390021563
 21
153.625
 31
0.0
  0
LINE
  5
219
  8
MyLines
 10
302.3839390021563
 20
153.625
 30
0.0
 11
303.6428345012477
 21
153.625
 31
0.0
  0
LINE
  5
21A
  8
MyLines
 10
303.6428345012477
 20
153.625
 30
0.0
 11
304.90173000033917
 21
153.625
 31
0.0
  0
LINE
  5
21B
  8
MyLines
 10
304.90173000033917
 20
153.625
 30
0.0
 11
306.1606254994305
 21
153.625
 31
0.0
  0
LINE
  5
21C
  8
MyLines
 10
306.1606254994305
 20
153.625
 30
0.0
 11
307.41952099852193
 21
153.625
 31
0.0
  0
LINE
  5
21D
  8
MyLines
 10
307.41952099852193
 20
153.625
 30
0.0
 11
308.6784164976134
 21
153.625
 31
0.0
  0
LINE
  5
21E
  8
MyLines
 10
308.6784164976134
 20
153.625
 30
0.0
 11
309.93731199670475
 21
153.625
 31
0.0
  0
LINE
  5
21F
  8
MyLines
 10
309.93731199670475
 20
153.625
 30
0.0
 11
311.1962074957962
 21
153.625
 31
0.0
  0
LINE
  5
220
  8
MyLines
 10
311.1962074957962
 20
153.625
 30
0.0
 11
312.4551029948876
 21
153.625
 31
0.0
  0
LINE
  5
221
  8
MyLines
 10
312.4551029948876
 20
153.625
 30
0.0
 11
313.713998493979
 21
153.625
 31
0.0
  0
LINE
  5
222
  8
MyLines
 10
313.713998493979
 20
153.625
 30
0.0
 11
314.97289399307044
 21
153.625
 31
0.0
  0
LINE
  5
223
  8
MyLines
 10
314.97289399307044
 20
153.625
 30
0.0
 11
316.23178949216185
 21
153.625
 31
0.0
  0
LINE
  5
224
  8
MyLines
 10
316.23178949216185
 20
153.625
 30
0.0
 11
317.4906849912532
 21
153.625
 31
0.0
  0
LINE
  5
225
  8
MyLines
 10
317.4906849912532
 20
153.625
 30
0.0
 11
318.74958049034467
 21
153.625
 31
0.0
  0
LINE
  5
226
  8
MyLines
 10
318.74958049034467
 20
153.625
 30
0.0
 11
320.0084759894361
 21
153.625
 31
0.0
  0
LINE
  5
227
  8
MyLines
 10
320.0084759894361
 20
153.625
 30
0.0
 11
321.2673714885275
 21
153.625
 31
0.0
  0
LINE
  5
228
  8
MyLines
 10
321.2673714885275
 20
153.625
 30
0.0
 11
322.5262669876189
 21
153.625
 31
0.0
  0
LINE
  5
229
  8
MyLines
 10
322.5262669876189
 20
153.625
 30
0.0
 11
323.7851624867103
 21
153.625
 31
0.0
  0
LINE
  5
22A
  8
MyLines
 10
323.7851624867103
 20
153.625
 30
0.0
 11
325.0440579858017
 21
153.625
 31
0.0
  0
LINE
  5
22B
  8
MyLines
 10
325.0440579858017
 20
153.625
 30
0.0
 11
326.3029534848931
 21
153.625
 31
0.0
  0
LINE
  5
22C
  8
MyLines
 10
326.3029534848931
 20
153.625
 30
0.0
 11
327.5618489839846
 21
153.625
 31
0.0
  0
LINE
  5
22D
  8
MyLines
 10
327.5618489839846
 20
153.625
 30
0.0
 11
328.82074448307594
 21
153.625
 31
0.0
  0
LINE
  5
22E
  8
MyLines
 10
328.82074448307594
 20
153.625
 30
0.0
 11
330.07963998216735
 21
153.625
 31
0.0
  0
LINE
  5
22F
  8
MyLines
 10
330.07963998216735
 20
153.625
 30
0.0
 11
330.07963998216735
 21
-141.71875
 31
0.0
  0
LINE
  5
230
  8
MyLines
 10
330.07963998216735
 20
-141.71875
 30
0.0
 11
330.07963998216735
 21
-141.71875
 31
0.0
  0
LINE
  5
231
  8
MyLines
 10
330.07963998216735
 20
-141.71875
 30
0.0
 11
328.9258639716721
 21
-141.71875
 31
0.0
  0
LINE
  5
232
  8
MyLines
 10
328.9258639716721
 20
-141.71875
 30
0.0
 11
327.7720879611767
 21
-141.71875
 31
0.0
  0
LINE
  5
233
  8
MyLines
 10
327.7720879611767
 20
-141.71875
 30
0.0
 11
326.6183119506814
 21
-141.71875
 31
0.0
  0
LINE
  5
234
  8
MyLines
 10
326.6183119506814
 20
-141.71875
 30
0.0
 11
325.464535940186
 21
-141.71875
 31
0.0
  0
LINE
  5
235
  8
MyLines
 10
325.464535940186
 20
-141.71875
 30
0.0
 11
324.31075992969073
 21
-141.71875
 31
0.0
  0
LINE
  5
236
  8
MyLines
 10
324.31075992969073
 20
-141.71875
 30
0.0
 11
323.1569839191954
 21
-141.71875
 31
0.0
  0
LINE
  5
237
  8
MyLines
 10
323.1569839191954
 20
-141.71875
 30
0.0
 11
322.00320790870006
 21
-141.71875
 31
0.0
  0
LINE
  5
238
  8
MyLines
 10
322.00320790870006
 20
-141.71875
 30
0.0
 11
320.8494318982047
 21
-141.71875
 31
0.0
  0
LINE
  5
239
  8
MyLines
 10
320.8494318982047
 20
-141.71875
 30
0.0
 11
319.6956558877094
 21
-141.71875
 31
0.0
  0
LINE
  5
23A
  8
MyLines
 10
319.6956558877094
 20
-141.71875
 30
0.0
 11
318.54187987721406
 21
-141.71875
 31
0.0
  0
LINE
  5
23B
  8
MyLines
 10
318.54187987721406
 20
-141.71875
 30
0.0
 11
317.3881038667188
 21
-141.71875
 31
0.0
  0
LINE
  5
23C
  8
MyLines
 10
317.3881038667188
 20
-141.71875
 30
0.0
 11
316.2343278562234
 21
-141.71875
 31
0.0
  0
LINE
  5
23D
  8
MyLines
 10
316.2343278562234
 20
-141.71875
 30
0.0
 11
315.0805518457281
 21
-141.71875
 31
0.0
  0
LINE
  5
23E
  8
MyLines
 10
315.0805518457281
 20
-141.71875
 30
0.0
 11
313.9267758352327
 21
-141.71875
 31
0.0
  0
LINE
  5
23F
  8
MyLines
 10
313.9267758352327
 20
-141.71875
 30
0.0
 11
312.77299982473744
 21
-141.71875
 31
0.0
  0
LINE
  5
240
  8
MyLines
 10
312.77299982473744
 20
-141.71875
 30
0.0
 11
311.6192238142421
 21
-141.71875
 31
0.0
  0
LINE
  5
241
  8
MyLines
 10
311.6192238142421
 20
-141.71875
 30
0.0
 11
310.46544780374677
 21
-141.71875
 31
0.0
  0
LINE
  5
242
  8
MyLines
 10
310.46544780374677
 20
-141.71875
 30
0.0
 11
309.31167179325143
 21
-141.71875
 31
0.0
  0
LINE
  5
243
  8
MyLines
 10
309.31167179325143
 20
-141.71875
 30
0.0
 11
308.1578957827561
 21
-141.71875
 31
0.0
  0
LINE
  5
244
  8
MyLines
 10
308.1578957827561
 20
-141.71875
 30
0.0
 11
307.00411977226076
 21
-141.71875
 31
0.0
  0
LINE
  5
245
  8
MyLines
 10
307.00411977226076
 20
-141.71875
 30
0.0
 11
305.8503437617655
 21
-141.71875
 31
0.0
  0
LINE
  5
246
  8
MyLines
 10
305.8503437617655
 20
-141.71875
 30
0.0
 11
304.6965677512701
 21
-141.71875
 31
0.0
  0
LINE
  5
247
  8
MyLines
 10
304.6965677512701
 20
-141.71875
 30
0.0
 11
303.5427917407748
 21
-141.71875
 31
0.0
  0
LINE
  5
248
  8
MyLines
 10
303.5427917407748
 20
-141.71875
 30
0.0
 11
302.3890157302795
 21
-141.71875
 31
0.0
  0
LINE
  5
249
  8
MyLines
 10
302.3890157302795
 20
-141.71875
 30
0.0
 11
301.23523971978415
 21
-141.71875
 31
0.0
  0
LINE
  5
24A
  8
MyLines
 10
301.23523971978415
 20
-141.71875
 30
0.0
 11
300.08146370928876
 21
-141.71875
 31
0.0
  0
LINE
  5
24B
  8
MyLines
 10
300.08146370928876
 20
-141.71875
 30
0.0
 11
298.9276876987935
 21
-141.71875
 31
0.0
  0
LINE
  5
24C
  8
MyLines
 10
298.9276876987935
 20
-141.71875
 30
0.0
 11
297.77391168829814
 21
-141.71875
 31
0.0
  0
LINE
  5
24D
  8
MyLines
 10
297.77391168829814
 20
-141.71875
 30
0.0
 11
296.6201356778028
 21
-141.71875
 31
0.0
  0
LINE
  5
24E
  8
MyLines
 10
296.6201356778028
 20
-141.71875
 30
0.0
 11
295.4663596673075
 21
-141.71875
 31
0.0
  0
LINE
  5
24F
  8
MyLines
 10
295.4663596673075
 20
-141.71875
 30
0.0
 11
294.3125836568122
 21
-141.71875
 31
0.0
  0
LINE
  5
250
  8
MyLines
 10
294.3125836568122
 20
-141.71875
 30
0.0
 11
293.1588076463168
 21
-141.71875
 31
0.0
  0
LINE
  5
251
  8
MyLines
 10
293.1588076463168
 20
-141.71875
 30
0.0
 11
292.0050316358215
 21
-141.71875
 31
0.0
  0
LINE
  5
252
  8
MyLines
 10
292.0050316358215
 20
-141.71875
 30
0.0
 11
290.8512556253262
 21
-141.71875
 31
0.0
  0
LINE
  5
253
  8
MyLines
 10
290.8512556253262
 20
-141.71875
 30
0.0
 11
289.69747961483085
 21
-141.71875
 31
0.0
  0
LINE
  5
254
  8
MyLines
 10
289.69747961483085
 20
-141.71875
 30
0.0
 11
288.54370360433546
 21
-141.71875
 31
0.0
  0
LINE
  5
255
  8
MyLines
 10
288.54370360433546
 20
-141.71875
 30
0.0
 11
287.3899275938402
 21
-141.71875
 31
0.0
  0
LINE
  5
256
  8
MyLines
 10
287.3899275938402
 20
-141.71875
 30
0.0
 11
286.23615158334485
 21
-141.71875
 31
0.0
  0
LINE
  5
257
  8
MyLines
 10
286.23615158334485
 20
-141.71875
 30
0.0
 11
285.0823755728495
 21
-141.71875
 31
0.0
  0
LINE
  5
258
  8
MyLines
 10
285.0823755728495
 20
-141.71875
 30
0.0
 11
283.9285995623542
 21
-141.71875
 31
0.0
  0
LINE
  5
259
  8
MyLines
 10
283.9285995623542
 20
-141.71875
 30
0.0
 11
282.7748235518589
 21
-141.71875
 31
0.0
  0
LINE
  5
25A
  8
MyLines
 10
282.7748235518589
 20
-141.71875
 30
0.0
 11
281.6210475413635
 21
-141.71875
 31
0.0
  0
LINE
  5
25B
  8
MyLines
 10
281.6210475413635
 20
-141.71875
 30
0.0
 11
280.46727153086823
 21
-141.71875
 31
0.0
  0
LINE
  5
25C
  8
MyLines
 10
280.46727153086823
 20
-141.71875
 30
0.0
 11
279.3134955203729
 21
-141.71875
 31
0.0
  0
LINE
  5
25D
  8
MyLines
 10
279.3134955203729
 20
-141.71875
 30
0.0
 11
278.15971950987756
 21
-141.71875
 31
0.0
  0
LINE
  5
25E
  8
MyLines
 10
278.15971950987756
 20
-141.71875
 30
0.0
 11
277.00594349938217
 21
-141.71875
 31
0.0
  0
LINE
  5
25F
  8
MyLines
 10
277.00594349938217
 20
-141.71875
 30
0.0
 11
275.8521674888869
 21
-141.71875
 31
0.0
  0
LINE
  5
260
  8
MyLines
 10
275.8521674888869
 20
-141.71875
 30
0.0
 11
274.69839147839156
 21
-141.71875
 31
0.0
  0
LINE
  5
261
  8
MyLines
 10
274.69839147839156
 20
-141.71875
 30
0.0
 11
273.5446154678962
 21
-141.71875
 31
0.0
  0
LINE
  5
262
  8
MyLines
 10
273.5446154678962
 20
-141.71875
 30
0.0
 11
273.5446154678962
 21
-141.71875
 31
0.0
  0
LINE
  5
263
  8
MyLines
 10
273.5446154678962
 20
-141.71875
 30
0.0
 11
273.5446154678962
 21
149.65625
 31
0.0
  0
LINE
  5
264
  8
MyLines
 10
273.5446154678962
 20
149.65625
 30
0.0
 11
273.5446154678962
 21
149.65625
 31
0.0
  0
LINE
  5
265
  8
MyLines
 10
273.5446154678962
 20
149.65625
 30
0.0
 11
274.5932719897954
 21
149.65625
 31
0.0
  0
LINE
  5
266
  8
MyLines
 10
274.5932719897954
 20
149.65625
 30
0.0
 11
275.64192851169474
 21
149.65625
 31
0.0
  0
LINE
  5
267
  8
MyLines
 10
275.64192851169474
 20
149.65625
 30
0.0
 11
276.69058503359395
 21
149.65625
 31
0.0
  0
LINE
  5
268
  8
MyLines
 10
276.69058503359395
 20
149.65625
 30
0.0
 11
277.7392415554932
 21
149.65625
 31
0.0
  0
LINE
  5
269
  8
MyLines
 10
277.7392415554932
 20
149.65625
 30
0.0
 11
278.78789807739247
 21
149.65625
 31
0.0
  0
LINE
  5
26A
  8
MyLines
 10
278.78789807739247
 20
149.65625
 30
0.0
 11
279.83655459929173
 21
149.65625
 31
0.0
  0
LINE
  5
26B
  8
MyLines
 10
279.83655459929173
 20
149.65625
 30
0.0
 11
280.885211121191
 21
149.65625
 31
0.0
  0
LINE
  5
26C
  8
MyLines
 10
280.885211121191
 20
149.65625
 30
0.0
 11
281.93386764309025
 21
149.65625
 31
0.0
  0
LINE
  5
26D
  8
MyLines
 10
281.93386764309025
 20
149.65625
 30
0.0
 11
282.98252416498946
 21
149.65625
 31
0.0
  0
LINE
  5
26E
  8
MyLines
 10
282.98252416498946
 20
149.65625
 30
0.0
 11
284.0311806868887
 21
149.65625
 31
0.0
  0
LINE
  5
26F
  8
MyLines
 10
284.0311806868887
 20
149.65625
 30
0.0
 11
285.0798372087879
 21
149.65625
 31
0.0
  0
LINE
  5
270
  8
MyLines
 10
285.0798372087879
 20
149.65625
 30
0.0
 11
286.1284937306872
 21
149.65625
 31
0.0
  0
LINE
  5
271
  8
MyLines
 10
286.1284937306872
 20
149.65625
 30
0.0
 11
287.17715025258644
 21
149.65625
 31
0.0
  0
LINE
  5
272
  8
MyLines
 10
287.17715025258644
 20
149.65625
 30
0.0
 11
288.22580677448565
 21
149.65625
 31
0.0
  0
LINE
  5
273
  8
MyLines
 10
288.22580677448565
 20
149.65625
 30
0.0
 11
289.2744632963849
 21
149.65625
 31
0.0
  0
LINE
  5
274
  8
MyLines
 10
289.2744632963849
 20
149.65625
 30
0.0
 11
290.32311981828417
 21
149.65625
 31
0.0
  0
LINE
  5
275
  8
MyLines
 10
290.32311981828417
 20
149.65625
 30
0.0
 11
291.37177634018343
 21
149.65625
 31
0.0
  0
LINE
  5
276
  8
MyLines
 10
291.37177634018343
 20
149.65625
 30
0.0
 11
292.4204328620827
 21
149.65625
 31
0.0
  0
LINE
  5
277
  8
MyLines
 10
292.4204328620827
 20
149.65625
 30
0.0
 11
293.4690893839819
 21
149.65625
 31
0.0
  0
LINE
  5
278
  8
MyLines
 10
293.4690893839819
 20
149.65625
 30
0.0
 11
294.51774590588116
 21
149.65625
 31
0.0
  0
LINE
  5
279
  8
MyLines
 10
294.51774590588116
 20
149.65625
 30
0.0
 11
295.5664024277805
 21
149.65625
 31
0.0
  0
LINE
  5
27A
  8
MyLines
 10
295.5664024277805
 20
149.65625
 30
0.0
 11
296.6150589496797
 21
149.65625
 31
0.0
  0
LINE
  5
27B
  8
MyLines
 10
296.6150589496797
 20
149.65625
 30
0.0
 11
297.66371547157894
 21
149.65625
 31
0.0
  0
LINE
  5
27C
  8
MyLines
 10
297.66371547157894
 20
149.65625
 30
0.0
 11
298.7123719934782
 21
149.65625
 31
0.0
  0
LINE
  5
27D
  8
MyLines
 10
298.7123719934782
 20
149.65625
 30
0.0
 11
299.7610285153774
 21
149.65625
 31
0.0
  0
LINE
  5
27E
  8
MyLines
 10
299.7610285153774
 20
149.65625
 30
0.0
 11
300.80968503727667
 21
149.65625
 31
0.0
  0
LINE
  5
27F
  8
MyLines
 10
300.80968503727667
 20
149.65625
 30
0.0
 11
301.85834155917587
 21
149.65625
 31
0.0
  0
LINE
  5
280
  8
MyLines
 10
301.85834155917587
 20
149.65625
 30
0.0
 11
302.90699808107513
 21
149.65625
 31
0.0
  0
LINE
  5
281
  8
MyLines
 10
302.90699808107513
 20
149.65625
 30
0.0
 11
303.9556546029744
 21
149.65625
 31
0.0
  0
LINE
  5
282
  8
MyLines
 10
303.9556546029744
 20
149.65625
 30
0.0
 11
305.00431112487365
 21
149.65625
 31
0.0
  0
LINE
  5
283
  8
MyLines
 10
305.00431112487365
 20
149.65625
 30
0.0
 11
306.0529676467729
 21
149.65625
 31
0.0
  0
LINE
  5
284
  8
MyLines
 10
306.0529676467729
 20
149.65625
 30
0.0
 11
307.1016241686722
 21
149.65625
 31
0.0
  0
LINE
  5
285
  8
MyLines
 10
307.1016241686722
 20
149.65625
 30
0.0
 11
308.1502806905714
 21
149.65625
 31
0.0
  0
LINE
  5
286
  8
MyLines
 10
308.1502806905714
 20
149.65625
 30
0.0
 11
309.19893721247064
 21
149.65625
 31
0.0
  0
LINE
  5
287
  8
MyLines
 10
309.19893721247064
 20
149.65625
 30
0.0
 11
310.24759373436984
 21
149.65625
 31
0.0
  0
LINE
  5
288
  8
MyLines
 10
310.24759373436984
 20
149.65625
 30
0.0
 11
311.2962502562691
 21
149.65625
 31
0.0
  0
LINE
  5
289
  8
MyLines
 10
311.2962502562691
 20
149.65625
 30
0.0
 11
312.34490677816837
 21
149.65625
 31
0.0
  0
LINE
  5
28A
  8
MyLines
 10
312.34490677816837
 20
149.65625
 30
0.0
 11
313.39356330006757
 21
149.65625
 31
0.0
  0
LINE
  5
28B
  8
MyLines
 10
313.39356330006757
 20
149.65625
 30
0.0
 11
314.4422198219669
 21
149.65625
 31
0.0
  0
LINE
  5
28C
  8
MyLines
 10
314.4422198219669
 20
149.65625
 30
0.0
 11
315.49087634386615
 21
149.65625
 31
0.0
  0
LINE
  5
28D
  8
MyLines
 10
315.49087634386615
 20
149.65625
 30
0.0
 11
316.53953286576535
 21
149.65625
 31
0.0
  0
LINE
  5
28E
  8
MyLines
 10
316.53953286576535
 20
149.65625
 30
0.0
 11
317.5881893876646
 21
149.65625
 31
0.0
  0
LINE
  5
28F
  8
MyLines
 10
317.5881893876646
 20
149.65625
 30
0.0
 11
318.6368459095638
 21
149.65625
 31
0.0
  0
LINE
  5
290
  8
MyLines
 10
318.6368459095638
 20
149.65625
 30
0.0
 11
319.6855024314631
 21
149.65625
 31
0.0
  0
LINE
  5
291
  8
MyLines
 10
319.6855024314631
 20
149.65625
 30
0.0
 11
320.7341589533624
 21
149.65625
 31
0.0
  0
LINE
  5
292
  8
MyLines
 10
320.7341589533624
 20
149.65625
 30
0.0
 11
321.7828154752616
 21
149.65625
 31
0.0
  0
LINE
  5
293
  8
MyLines
 10
321.7828154752616
 20
149.65625
 30
0.0
 11
322.83147199716086
 21
149.65625
 31
0.0
  0
LINE
  5
294
  8
MyLines
 10
322.83147199716086
 20
149.65625
 30
0.0
 11
323.8801285190601
 21
149.65625
 31
0.0
  0
LINE
  5
295
  8
MyLines
 10
323.8801285190601
 20
149.65625
 30
0.0
 11
324.9287850409593
 21
149.65625
 31
0.0
  0
LINE
  5
296
  8
MyLines
 10
324.9287850409593
 20
149.65625
 30
0.0
 11
324.9287850409593
 21
-137.75
 31
0.0
  0
LINE
  5
297
  8
MyLines
 10
324.9287850409593
 20
-137.75
 30
0.0
 11
324.9287850409593
 21
-137.75
 31
0.0
  0
LINE
  5
298
  8
MyLines
 10
324.9287850409593
 20
-137.75
 30
0.0
 11
324.0065791415444
 21
-137.75
 31
0.0
  0
LINE
  5
299
  8
MyLines
 10
324.0065791415444
 20
-137.75
 30
0.0
 11
323.0843732421296
 21
-137.75
 31
0.0
  0
LINE
  5
29A
  8
MyLines
 10
323.0843732421296
 20
-137.75
 30
0.0
 11
322.1621673427146
 21
-137.75
 31
0.0
  0
LINE
  5
29B
  8
MyLines
 10
322.1621673427146
 20
-137.75
 30
0.0
 11
321.2399614432997
 21
-137.75
 31
0.0
  0
LINE
  5
29C
  8
MyLines
 10
321.2399614432997
 20
-137.75
 30
0.0
 11
320.3177555438848
 21
-137.75
 31
0.0
  0
LINE
  5
29D
  8
MyLines
 10
320.3177555438848
 20
-137.75
 30
0.0
 11
319.3955496444699
 21
-137.75
 31
0.0
  0
LINE
  5
29E
  8
MyLines
 10
319.3955496444699
 20
-137.75
 30
0.0
 11
318.47334374505493
 21
-137.75
 31
0.0
  0
LINE
  5
29F
  8
MyLines
 10
318.47334374505493
 20
-137.75
 30
0.0
 11
317.5511378456401
 21
-137.75
 31
0.0
  0
LINE
  5
2A0
  8
MyLines
 10
317.5511378456401
 20
-137.75
 30
0.0
 11
316.6289319462252
 21
-137.75
 31
0.0
  0
LINE
  5
2A1
  8
MyLines
 10
316.6289319462252
 20
-137.75
 30
0.0
 11
315.7067260468103
 21
-137.75
 31
0.0
  0
LINE
  5
2A2
  8
MyLines
 10
315.7067260468103
 20
-137.75
 30
0.0
 11
314.7845201473953
 21
-137.75
 31
0.0
  0
LINE
  5
2A3
  8
MyLines
 10
314.7845201473953
 20
-137.75
 30
0.0
 11
313.8623142479804
 21
-137.75
 31
0.0
  0
LINE
  5
2A4
  8
MyLines
 10
313.8623142479804
 20
-137.75
 30
0.0
 11
312.94010834856556
 21
-137.75
 31
0.0
  0
LINE
  5
2A5
  8
MyLines
 10
312.94010834856556
 20
-137.75
 30
0.0
 11
312.01790244915065
 21
-137.75
 31
0.0
  0
LINE
  5
2A6
  8
MyLines
 10
312.01790244915065
 20
-137.75
 30
0.0
 11
311.0956965497357
 21
-137.75
 31
0.0
  0
LINE
  5
2A7
  8
MyLines
 10
311.0956965497357
 20
-137.75
 30
0.0
 11
310.1734906503208
 21
-137.75
 31
0.0
  0
LINE
  5
2A8
  8
MyLines
 10
310.1734906503208
 20
-137.75
 30
0.0
 11
309.2512847509059
 21
-137.75
 31
0.0
  0
LINE
  5
2A9
  8
MyLines
 10
309.2512847509059
 20
-137.75
 30
0.0
 11
308.32907885149103
 21
-137.75
 31
0.0
  0
LINE
  5
2AA
  8
MyLines
 10
308.32907885149103
 20
-137.75
 30
0.0
 11
307.40687295207607
 21
-137.75
 31
0.0
  0
LINE
  5
2AB
  8
MyLines
 10
307.40687295207607
 20
-137.75
 30
0.0
 11
306.48466705266117
 21
-137.75
 31
0.0
  0
LINE
  5
2AC
  8
MyLines
 10
306.48466705266117
 20
-137.75
 30
0.0
 11
305.56246115324626
 21
-137.75
 31
0.0
  0
LINE
  5
2AD
  8
MyLines
 10
305.56246115324626
 20
-137.75
 30
0.0
 11
304.64025525383136
 21
-137.75
 31
0.0
  0
LINE
  5
2AE
  8
MyLines
 10
304.64025525383136
 20
-137.75
 30
0.0
 11
303.7180493544165
 21
-137.75
 31
0.0
  0
LINE
  5
2AF
  8
MyLines
 10
303.7180493544165
 20
-137.75
 30
0.0
 11
302.79584345500155
 21
-137.75
 31
0.0
  0
LINE
  5
2B0
  8
MyLines
 10
302.79584345500155
 20
-137.75
 30
0.0
 11
301.87363755558664
 21
-137.75
 31
0.0
  0
LINE
  5
2B1
  8
MyLines
 10
301.87363755558664
 20
-137.75
 30
0.0
 11
300.9514316561717
 21
-137.75
 31
0.0
  0
LINE
  5
2B2
  8
MyLines
 10
300.9514316561717
 20
-137.75
 30
0.0
 11
300.0292257567568
 21
-137.75
 31
0.0
  0
LINE
  5
2B3
  8
MyLines
 10
300.0292257567568
 20
-137.75
 30
0.0
 11
299.10701985734187
 21
-137.75
 31
0.0
  0
LINE
  5
2B4
  8
MyLines
 10
299.10701985734187
 20
-137.75
 30
0.0
 11
298.184813957927
 21
-137.75
 31
0.0
  0
LINE
  5
2B5
  8
MyLines
 10
298.184813957927
 20
-137.75
 30
0.0
 11
297.2626080585121
 21
-137.75
 31
0.0
  0
LINE
  5
2B6
  8
MyLines
 10
297.2626080585121
 20
-137.75
 30
0.0
 11
296.3404021590972
 21
-137.75
 31
0.0
  0
LINE
  5
2B7
  8
MyLines
 10
296.3404021590972
 20
-137.75
 30
0.0
 11
295.41819625968225
 21
-137.75
 31
0.0
  0
LINE
  5
2B8
  8
MyLines
 10
295.41819625968225
 20
-137.75
 30
0.0
 11
294.49599036026734
 21
-137.75
 31
0.0
  0
LINE
  5
2B9
  8
MyLines
 10
294.49599036026734
 20
-137.75
 30
0.0
 11
293.57378446085244
 21
-137.75
 31
0.0
  0
LINE
  5
2BA
  8
MyLines
 10
293.57378446085244
 20
-137.75
 30
0.0
 11
292.65157856143753
 21
-137.75
 31
0.0
  0
LINE
  5
2BB
  8
MyLines
 10
292.65157856143753
 20
-137.75
 30
0.0
 11
291.7293726620226
 21
-137.75
 31
0.0
  0
LINE
  5
2BC
  8
MyLines
 10
291.7293726620226
 20
-137.75
 30
0.0
 11
290.8071667626077
 21
-137.75
 31
0.0
  0
LINE
  5
2BD
  8
MyLines
 10
290.8071667626077
 20
-137.75
 30
0.0
 11
289.8849608631928
 21
-137.75
 31
0.0
  0
LINE
  5
2BE
  8
MyLines
 10
289.8849608631928
 20
-137.75
 30
0.0
 11
288.96275496377797
 21
-137.75
 31
0.0
  0
LINE
  5
2BF
  8
MyLines
 10
288.96275496377797
 20
-137.75
 30
0.0
 11
288.040549064363
 21
-137.75
 31
0.0
  0
LINE
  5
2C0
  8
MyLines
 10
288.040549064363
 20
-137.75
 30
0.0
 11
287.1183431649481
 21
-137.75
 31
0.0
  0
LINE
  5
2C1
  8
MyLines
 10
287.1183431649481
 20
-137.75
 30
0.0
 11
286.1961372655332
 21
-137.75
 31
0.0
  0
LINE
  5
2C2
  8
MyLines
 10
286.1961372655332
 20
-137.75
 30
0.0
 11
285.27393136611823
 21
-137.75
 31
0.0
  0
LINE
  5
2C3
  8
MyLines
 10
285.27393136611823
 20
-137.75
 30
0.0
 11
284.35172546670333
 21
-137.75
 31
0.0
  0
LINE
  5
2C4
  8
MyLines
 10
284.35172546670333
 20
-137.75
 30
0.0
 11
283.4295195672885
 21
-137.75
 31
0.0
  0
LINE
  5
2C5
  8
MyLines
 10
283.4295195672885
 20
-137.75
 30
0.0
 11
282.5073136678736
 21
-137.75
 31
0.0
  0
LINE
  5
2C6
  8
MyLines
 10
282.5073136678736
 20
-137.75
 30
0.0
 11
281.58510776845867
 21
-137.75
 31
0.0
  0
LINE
  5
2C7
  8
MyLines
 10
281.58510776845867
 20
-137.75
 30
0.0
 11
280.6629018690437
 21
-137.75
 31
0.0
  0
LINE
  5
2C8
  8
MyLines
 10
280.6629018690437
 20
-137.75
 30
0.0
 11
279.7406959696288
 21
-137.75
 31
0.0
  0
LINE
  5
2C9
  8
MyLines
 10
279.7406959696288
 20
-137.75
 30
0.0
 11
279.7406959696288
 21
-137.75
 31
0.0
  0
LINE
  5
2CA
  8
MyLines
 10
279.7406959696288
 20
-137.75
 30
0.0
 11
279.7406959696288
 21
145.6875
 31
0.0
  0
LINE
  5
2CB
  8
MyLines
 10
279.7406959696288
 20
145.6875
 30
0.0
 11
279.7406959696288
 21
145.6875
 31
0.0
  0
LINE
  5
2CC
  8
MyLines
 10
279.7406959696288
 20
145.6875
 30
0.0
 11
280.5364512465594
 21
145.6875
 31
0.0
  0
LINE
  5
2CD
  8
MyLines
 10
280.5364512465594
 20
145.6875
 30
0.0
 11
281.33220652348996
 21
145.6875
 31
0.0
  0
LINE
  5
2CE
  8
MyLines
 10
281.33220652348996
 20
145.6875
 30
0.0
 11
282.1279618004205
 21
145.6875
 31
0.0
  0
LINE
  5
2CF
  8
MyLines
 10
282.1279618004205
 20
145.6875
 30
0.0
 11
282.92371707735106
 21
145.6875
 31
0.0
  0
LINE
  5
2D0
  8
MyLines
 10
282.92371707735106
 20
145.6875
 30
0.0
 11
283.71947235428166
 21
145.6875
 31
0.0
  0
LINE
  5
2D1
  8
MyLines
 10
283.71947235428166
 20
145.6875
 30
0.0
 11
284.5152276312122
 21
145.6875
 31
0.0
  0
LINE
  5
2D2
  8
MyLines
 10
284.5152276312122
 20
145.6875
 30
0.0
 11
285.3109829081428
 21
145.6875
 31
0.0
  0
LINE
  5
2D3
  8
MyLines
 10
285.3109829081428
 20
145.6875
 30
0.0
 11
286.10673818507337
 21
145.6875
 31
0.0
  0
LINE
  5
2D4
  8
MyLines
 10
286.10673818507337
 20
145.6875
 30
0.0
 11
286.9024934620039
 21
145.6875
 31
0.0
  0
LINE
  5
2D5
  8
MyLines
 10
286.9024934620039
 20
145.6875
 30
0.0
 11
287.69824873893447
 21
145.6875
 31
0.0
  0
LINE
  5
2D6
  8
MyLines
 10
287.69824873893447
 20
145.6875
 30
0.0
 11
288.4940040158651
 21
145.6875
 31
0.0
  0
LINE
  5
2D7
  8
MyLines
 10
288.4940040158651
 20
145.6875
 30
0.0
 11
289.2897592927957
 21
145.6875
 31
0.0
  0
LINE
  5
2D8
  8
MyLines
 10
289.2897592927957
 20
145.6875
 30
0.0
 11
290.08551456972623
 21
145.6875
 31
0.0
  0
LINE
  5
2D9
  8
MyLines
 10
290.08551456972623
 20
145.6875
 30
0.0
 11
290.8812698466568
 21
145.6875
 31
0.0
  0
LINE
  5
2DA
  8
MyLines
 10
290.8812698466568
 20
145.6875
 30
0.0
 11
291.6770251235873
 21
145.6875
 31
0.0
  0
LINE
  5
2DB
  8
MyLines
 10
291.6770251235873
 20
145.6875
 30
0.0
 11
292.47278040051793
 21
145.6875
 31
0.0
  0
LINE
  5
2DC
  8
MyLines
 10
292.47278040051793
 20
145.6875
 30
0.0
 11
293.2685356774485
 21
145.6875
 31
0.0
  0
LINE
  5
2DD
  8
MyLines
 10
293.2685356774485
 20
145.6875
 30
0.0
 11
294.0642909543791
 21
145.6875
 31
0.0
  0
LINE
  5
2DE
  8
MyLines
 10
294.0642909543791
 20
145.6875
 30
0.0
 11
294.86004623130964
 21
145.6875
 31
0.0
  0
LINE
  5
2DF
  8
MyLines
 10
294.86004623130964
 20
145.6875
 30
0.0
 11
295.6558015082402
 21
145.6875
 31
0.0
  0
LINE
  5
2E0
  8
MyLines
 10
295.6558015082402
 20
145.6875
 30
0.0
 11
296.45155678517074
 21
145.6875
 31
0.0
  0
LINE
  5
2E1
  8
MyLines
 10
296.45155678517074
 20
145.6875
 30
0.0
 11
297.24731206210134
 21
145.6875
 31
0.0
  0
LINE
  5
2E2
  8
MyLines
 10
297.24731206210134
 20
145.6875
 30
0.0
 11
298.04306733903195
 21
145.6875
 31
0.0
  0
LINE
  5
2E3
  8
MyLines
 10
298.04306733903195
 20
145.6875
 30
0.0
 11
298.8388226159625
 21
145.6875
 31
0.0
  0
LINE
  5
2E4
  8
MyLines
 10
298.8388226159625
 20
145.6875
 30
0.0
 11
299.63457789289305
 21
145.6875
 31
0.0
  0
LINE
  5
2E5
  8
MyLines
 10
299.63457789289305
 20
145.6875
 30
0.0
 11
300.4303331698236
 21
145.6875
 31
0.0
  0
LINE
  5
2E6
  8
MyLines
 10
300.4303331698236
 20
145.6875
 30
0.0
 11
301.2260884467542
 21
145.6875
 31
0.0
  0
LINE
  5
2E7
  8
MyLines
 10
301.2260884467542
 20
145.6875
 30
0.0
 11
302.02184372368475
 21
145.6875
 31
0.0
  0
LINE
  5
2E8
  8
MyLines
 10
302.02184372368475
 20
145.6875
 30
0.0
 11
302.81759900061536
 21
145.6875
 31
0.0
  0
LINE
  5
2E9
  8
MyLines
 10
302.81759900061536
 20
145.6875
 30
0.0
 11
303.6133542775459
 21
145.6875
 31
0.0
  0
LINE
  5
2EA
  8
MyLines
 10
303.6133542775459
 20
145.6875
 30
0.0
 11
304.40910955447646
 21
145.6875
 31
0.0
  0
LINE
  5
2EB
  8
MyLines
 10
304.40910955447646
 20
145.6875
 30
0.0
 11
305.20486483140706
 21
145.6875
 31
0.0
  0
LINE
  5
2EC
  8
MyLines
 10
305.20486483140706
 20
145.6875
 30
0.0
 11
306.0006201083376
 21
145.6875
 31
0.0
  0
LINE
  5
2ED
  8
MyLines
 10
306.0006201083376
 20
145.6875
 30
0.0
 11
306.79637538526816
 21
145.6875
 31
0.0
  0
LINE
  5
2EE
  8
MyLines
 10
306.79637538526816
 20
145.6875
 30
0.0
 11
307.59213066219877
 21
145.6875
 31
0.0
  0
LINE
  5
2EF
  8
MyLines
 10
307.59213066219877
 20
145.6875
 30
0.0
 11
308.3878859391293
 21
145.6875
 31
0.0
  0
LINE
  5
2F0
  8
MyLines
 10
308.3878859391293
 20
145.6875
 30
0.0
 11
309.1836412160599
 21
145.6875
 31
0.0
  0
LINE
  5
2F1
  8
MyLines
 10
309.1836412160599
 20
145.6875
 30
0.0
 11
309.9793964929905
 21
145.6875
 31
0.0
  0
LINE
  5
2F2
  8
MyLines
 10
309.9793964929905
 20
145.6875
 30
0.0
 11
310.775151769921
 21
145.6875
 31
0.0
  0
LINE
  5
2F3
  8
MyLines
 10
310.775151769921
 20
145.6875
 30
0.0
 11
311.57090704685163
 21
145.6875
 31
0.0
  0
LINE
  5
2F4
  8
MyLines
 10
311.57090704685163
 20
145.6875
 30
0.0
 11
312.3666623237822
 21
145.6875
 31
0.0
  0
LINE
  5
2F5
  8
MyLines
 10
312.3666623237822
 20
145.6875
 30
0.0
 11
313.16241760071273
 21
145.6875
 31
0.0
  0
LINE
  5
2F6
  8
MyLines
 10
313.16241760071273
 20
145.6875
 30
0.0
 11
313.95817287764334
 21
145.6875
 31
0.0
  0
LINE
  5
2F7
  8
MyLines
 10
313.95817287764334
 20
145.6875
 30
0.0
 11
314.7539281545739
 21
145.6875
 31
0.0
  0
LINE
  5
2F8
  8
MyLines
 10
314.7539281545739
 20
145.6875
 30
0.0
 11
315.54968343150443
 21
145.6875
 31
0.0
  0
LINE
  5
2F9
  8
MyLines
 10
315.54968343150443
 20
145.6875
 30
0.0
 11
316.34543870843504
 21
145.6875
 31
0.0
  0
LINE
  5
2FA
  8
MyLines
 10
316.34543870843504
 20
145.6875
 30
0.0
 11
317.1411939853656
 21
145.6875
 31
0.0
  0
LINE
  5
2FB
  8
MyLines
 10
317.1411939853656
 20
145.6875
 30
0.0
 11
317.9369492622962
 21
145.6875
 31
0.0
  0
LINE
  5
2FC
  8
MyLines
 10
317.9369492622962
 20
145.6875
 30
0.0
 11
318.73270453922675
 21
145.6875
 31
0.0
  0
LINE
  5
2FD
  8
MyLines
 10
318.73270453922675
 20
145.6875
 30
0.0
 11
318.73270453922675
 21
-133.78125
 31
0.0
  0
LINE
  5
2FE
  8
MyLines
 10
318.73270453922675
 20
-133.78125
 30
0.0
 11
318.73270453922675
 21
-133.78125
 31
0.0
  0
LINE
  5
2FF
  8
MyLines
 10
318.73270453922675
 20
-133.78125
 30
0.0
 11
318.17110040890924
 21
-133.78125
 31
0.0
  0
LINE
  5
300
  8
MyLines
 10
318.17110040890924
 20
-133.78125
 30
0.0
 11
317.6094962785917
 21
-133.78125
 31
0.0
  0
LINE
  5
301
  8
MyLines
 10
317.6094962785917
 20
-133.78125
 30
0.0
 11
317.0478921482741
 21
-133.78125
 31
0.0
  0
LINE
  5
302
  8
MyLines
 10
317.0478921482741
 20
-133.78125
 30
0.0
 11
316.48628801795655
 21
-133.78125
 31
0.0
  0
LINE
  5
303
  8
MyLines
 10
316.48628801795655
 20
-133.78125
 30
0.0
 11
315.92468388763905
 21
-133.78125
 31
0.0
  0
LINE
  5
304
  8
MyLines
 10
315.92468388763905
 20
-133.78125
 30
0.0
 11
315.36307975732143
 21
-133.78125
 31
0.0
  0
LINE
  5
305
  8
MyLines
 10
315.36307975732143
 20
-133.78125
 30
0.0
 11
314.8014756270039
 21
-133.78125
 31
0.0
  0
LINE
  5
306
  8
MyLines
 10
314.8014756270039
 20
-133.78125
 30
0.0
 11
314.2398714966863
 21
-133.78125
 31
0.0
  0
LINE
  5
307
  8
MyLines
 10
314.2398714966863
 20
-133.78125
 30
0.0
 11
313.6782673663688
 21
-133.78125
 31
0.0
  0
LINE
  5
308
  8
MyLines
 10
313.6782673663688
 20
-133.78125
 30
0.0
 11
313.1166632360513
 21
-133.78125
 31
0.0
  0
LINE
  5
309
  8
MyLines
 10
313.1166632360513
 20
-133.78125
 30
0.0
 11
312.5550591057337
 21
-133.78125
 31
0.0
  0
LINE
  5
30A
  8
MyLines
 10
312.5550591057337
 20
-133.78125
 30
0.0
 11
311.99345497541617
 21
-133.78125
 31
0.0
  0
LINE
  5
30B
  8
MyLines
 10
311.99345497541617
 20
-133.78125
 30
0.0
 11
311.4318508450986
 21
-133.78125
 31
0.0
  0
LINE
  5
30C
  8
MyLines
 10
311.4318508450986
 20
-133.78125
 30
0.0
 11
310.87024671478105
 21
-133.78125
 31
0.0
  0
LINE
  5
30D
  8
MyLines
 10
310.87024671478105
 20
-133.78125
 30
0.0
 11
310.3086425844635
 21
-133.78125
 31
0.0
  0
LINE
  5
30E
  8
MyLines
 10
310.3086425844635
 20
-133.78125
 30
0.0
 11
309.747038454146
 21
-133.78125
 31
0.0
  0
LINE
  5
30F
  8
MyLines
 10
309.747038454146
 20
-133.78125
 30
0.0
 11
309.1854343238284
 21
-133.78125
 31
0.0
  0
LINE
  5
310
  8
MyLines
 10
309.1854343238284
 20
-133.78125
 30
0.0
 11
308.62383019351086
 21
-133.78125
 31
0.0
  0
LINE
  5
311
  8
MyLines
 10
308.62383019351086
 20
-133.78125
 30
0.0
 11
308.06222606319335
 21
-133.78125
 31
0.0
  0
LINE
  5
312
  8
MyLines
 10
308.06222606319335
 20
-133.78125
 30
0.0
 11
307.50062193287573
 21
-133.78125
 31
0.0
  0
LINE
  5
313
  8
MyLines
 10
307.50062193287573
 20
-133.78125
 30
0.0
 11
306.9390178025582
 21
-133.78125
 31
0.0
  0
LINE
  5
314
  8
MyLines
 10
306.9390178025582
 20
-133.78125
 30
0.0
 11
306.3774136722406
 21
-133.78125
 31
0.0
  0
LINE
  5
315
  8
MyLines
 10
306.3774136722406
 20
-133.78125
 30
0.0
 11
305.8158095419231
 21
-133.78125
 31
0.0
  0
LINE
  5
316
  8
MyLines
 10
305.8158095419231
 20
-133.78125
 30
0.0
 11
305.25420541160554
 21
-133.78125
 31
0.0
  0
LINE
  5
317
  8
MyLines
 10
305.25420541160554
 20
-133.78125
 30
0.0
 11
304.692601281288
 21
-133.78125
 31
0.0
  0
LINE
  5
318
  8
MyLines
 10
304.692601281288
 20
-133.78125
 30
0.0
 11
304.1309971509705
 21
-133.78125
 31
0.0
  0
LINE
  5
319
  8
MyLines
 10
304.1309971509705
 20
-133.78125
 30
0.0
 11
303.5693930206529
 21
-133.78125
 31
0.0
  0
LINE
  5
31A
  8
MyLines
 10
303.5693930206529
 20
-133.78125
 30
0.0
 11
303.0077888903353
 21
-133.78125
 31
0.0
  0
LINE
  5
31B
  8
MyLines
 10
303.0077888903353
 20
-133.78125
 30
0.0
 11
302.4461847600178
 21
-133.78125
 31
0.0
  0
LINE
  5
31C
  8
MyLines
 10
302.4461847600178
 20
-133.78125
 30
0.0
 11
301.8845806297003
 21
-133.78125
 31
0.0
  0
LINE
  5
31D
  8
MyLines
 10
301.8845806297003
 20
-133.78125
 30
0.0
 11
301.3229764993827
 21
-133.78125
 31
0.0
  0
LINE
  5
31E
  8
MyLines
 10
301.3229764993827
 20
-133.78125
 30
0.0
 11
300.76137236906516
 21
-133.78125
 31
0.0
  0
LINE
  5
31F
  8
MyLines
 10
300.76137236906516
 20
-133.78125
 30
0.0
 11
300.1997682387476
 21
-133.78125
 31
0.0
  0
LINE
  5
320
  8
MyLines
 10
300.1997682387476
 20
-133.78125
 30
0.0
 11
299.63816410843003
 21
-133.78125
 31
0.0
  0
LINE
  5
321
  8
MyLines
 10
299.63816410843003
 20
-133.78125
 30
0.0
 11
299.0765599781125
 21
-133.78125
 31
0.0
  0
LINE
  5
322
  8
MyLines
 10
299.0765599781125
 20
-133.78125
 30
0.0
 11
298.5149558477949
 21
-133.78125
 31
0.0
  0
LINE
  5
323
  8
MyLines
 10
298.5149558477949
 20
-133.78125
 30
0.0
 11
297.9533517174774
 21
-133.78125
 31
0.0
  0
LINE
  5
324
  8
MyLines
 10
297.9533517174774
 20
-133.78125
 30
0.0
 11
297.39174758715984
 21
-133.78125
 31
0.0
  0
LINE
  5
325
  8
MyLines
 10
297.39174758715984
 20
-133.78125
 30
0.0
 11
296.8301434568423
 21
-133.78125
 31
0.0
  0
LINE
  5
326
  8
MyLines
 10
296.8301434568423
 20
-133.78125
 30
0.0
 11
296.2685393265248
 21
-133.78125
 31
0.0
  0
LINE
  5
327
  8
MyLines
 10
296.2685393265248
 20
-133.78125
 30
0.0
 11
295.7069351962072
 21
-133.78125
 31
0.0
  0
LINE
  5
328
  8
MyLines
 10
295.7069351962072
 20
-133.78125
 30
0.0
 11
295.1453310658896
 21
-133.78125
 31
0.0
  0
LINE
  5
329
  8
MyLines
 10
295.1453310658896
 20
-133.78125
 30
0.0
 11
294.5837269355721
 21
-133.78125
 31
0.0
  0
LINE
  5
32A
  8
MyLines
 10
294.5837269355721
 20
-133.78125
 30
0.0
 11
294.0221228052546
 21
-133.78125
 31
0.0
  0
LINE
  5
32B
  8
MyLines
 10
294.0221228052546
 20
-133.78125
 30
0.0
 11
293.46051867493696
 21
-133.78125
 31
0.0
  0
LINE
  5
32C
  8
MyLines
 10
293.46051867493696
 20
-133.78125
 30
0.0
 11
292.89891454461946
 21
-133.78125
 31
0.0
  0
LINE
  5
32D
  8
MyLines
 10
292.89891454461946
 20
-133.78125
 30
0.0
 11
292.3373104143019
 21
-133.78125
 31
0.0
  0
LINE
  5
32E
  8
MyLines
 10
292.3373104143019
 20
-133.78125
 30
0.0
 11
291.77570628398433
 21
-133.78125
 31
0.0
  0
LINE
  5
32F
  8
MyLines
 10
291.77570628398433
 20
-133.78125
 30
0.0
 11
291.21410215366683
 21
-133.78125
 31
0.0
  0
LINE
  5
330
  8
MyLines
 10
291.21410215366683
 20
-133.78125
 30
0.0
 11
291.21410215366683
 21
-133.78125
 31
0.0
  0
LINE
  5
331
  8
MyLines
 10
291.21410215366683
 20
-133.78125
 30
0.0
 11
291.21410215366683
 21
141.71875
 31
0.0
  0
LINE
  5
332
  8
MyLines
 10
291.21410215366683
 20
141.71875
 30
0.0
 11
291.21410215366683
 21
141.71875
 31
0.0
  0
LINE
  5
333
  8
MyLines
 10
291.21410215366683
 20
141.71875
 30
0.0
 11
291.54155513737135
 21
141.71875
 31
0.0
  0
LINE
  5
334
  8
MyLines
 10
291.54155513737135
 20
141.71875
 30
0.0
 11
291.8690081210758
 21
141.71875
 31
0.0
  0
LINE
  5
335
  8
MyLines
 10
291.8690081210758
 20
141.71875
 30
0.0
 11
292.1964611047804
 21
141.71875
 31
0.0
  0
LINE
  5
336
  8
MyLines
 10
292.1964611047804
 20
141.71875
 30
0.0
 11
292.52391408848496
 21
141.71875
 31
0.0
  0
LINE
  5
337
  8
MyLines
 10
292.52391408848496
 20
141.71875
 30
0.0
 11
292.8513670721894
 21
141.71875
 31
0.0
  0
LINE
  5
338
  8
MyLines
 10
292.8513670721894
 20
141.71875
 30
0.0
 11
293.17882005589394
 21
141.71875
 31
0.0
  0
LINE
  5
339
  8
MyLines
 10
293.17882005589394
 20
141.71875
 30
0.0
 11
293.5062730395985
 21
141.71875
 31
0.0
  0
LINE
  5
33A
  8
MyLines
 10
293.5062730395985
 20
141.71875
 30
0.0
 11
293.8337260233031
 21
141.71875
 31
0.0
  0
LINE
  5
33B
  8
MyLines
 10
293.8337260233031
 20
141.71875
 30
0.0
 11
294.16117900700755
 21
141.71875
 31
0.0
  0
LINE
  5
33C
  8
MyLines
 10
294.16117900700755
 20
141.71875
 30
0.0
 11
294.48863199071207
 21
141.71875
 31
0.0
  0
LINE
  5
33D
  8
MyLines
 10
294.48863199071207
 20
141.71875
 30
0.0
 11
294.81608497441664
 21
141.71875
 31
0.0
  0
LINE
  5
33E
  8
MyLines
 10
294.81608497441664
 20
141.71875
 30
0.0
 11
295.14353795812116
 21
141.71875
 31
0.0
  0
LINE
  5
33F
  8
MyLines
 10
295.14353795812116
 20
141.71875
 30
0.0
 11
295.4709909418257
 21
141.71875
 31
0.0
  0
LINE
  5
340
  8
MyLines
 10
295.4709909418257
 20
141.71875
 30
0.0
 11
295.7984439255302
 21
141.71875
 31
0.0
  0
LINE
  5
341
  8
MyLines
 10
295.7984439255302
 20
141.71875
 30
0.0
 11
296.12589690923477
 21
141.71875
 31
0.0
  0
LINE
  5
342
  8
MyLines
 10
296.12589690923477
 20
141.71875
 30
0.0
 11
296.4533498929393
 21
141.71875
 31
0.0
  0
LINE
  5
343
  8
MyLines
 10
296.4533498929393
 20
141.71875
 30
0.0
 11
296.7808028766438
 21
141.71875
 31
0.0
  0
LINE
  5
344
  8
MyLines
 10
296.7808028766438
 20
141.71875
 30
0.0
 11
297.1082558603483
 21
141.71875
 31
0.0
  0
LINE
  5
345
  8
MyLines
 10
297.1082558603483
 20
141.71875
 30
0.0
 11
297.43570884405284
 21
141.71875
 31
0.0
  0
LINE
  5
346
  8
MyLines
 10
297.43570884405284
 20
141.71875
 30
0.0
 11
297.7631618277574
 21
141.71875
 31
0.0
  0
LINE
  5
347
  8
MyLines
 10
297.7631618277574
 20
141.71875
 30
0.0
 11
298.09061481146193
 21
141.71875
 31
0.0
  0
LINE
  5
348
  8
MyLines
 10
298.09061481146193
 20
141.71875
 30
0.0
 11
298.41806779516645
 21
141.71875
 31
0.0
  0
LINE
  5
349
  8
MyLines
 10
298.41806779516645
 20
141.71875
 30
0.0
 11
298.74552077887097
 21
141.71875
 31
0.0
  0
LINE
  5
34A
  8
MyLines
 10
298.74552077887097
 20
141.71875
 30
0.0
 11
299.07297376257554
 21
141.71875
 31
0.0
  0
LINE
  5
34B
  8
MyLines
 10
299.07297376257554
 20
141.71875
 30
0.0
 11
299.40042674628006
 21
141.71875
 31
0.0
  0
LINE
  5
34C
  8
MyLines
 10
299.40042674628006
 20
141.71875
 30
0.0
 11
299.7278797299845
 21
141.71875
 31
0.0
  0
LINE
  5
34D
  8
MyLines
 10
299.7278797299845
 20
141.71875
 30
0.0
 11
300.0553327136891
 21
141.71875
 31
0.0
  0
LINE
  5
34E
  8
MyLines
 10
300.0553327136891
 20
141.71875
 30
0.0
 11
300.3827856973937
 21
141.71875
 31
0.0
  0
LINE
  5
34F
  8
MyLines
 10
300.3827856973937
 20
141.71875
 30
0.0
 11
300.7102386810982
 21
141.71875
 31
0.0
  0
LINE
  5
350
  8
MyLines
 10
300.7102386810982
 20
141.71875
 30
0.0
 11
301.03769166480265
 21
141.71875
 31
0.0
  0
LINE
  5
351
  8
MyLines
 10
301.03769166480265
 20
141.71875
 30
0.0
 11
301.3651446485072
 21
141.71875
 31
0.0
  0
LINE
  5
352
  8
MyLines
 10
301.3651446485072
 20
141.71875
 30
0.0
 11
301.6925976322118
 21
141.71875
 31
0.0
  0
LINE
  5
353
  8
MyLines
 10
301.6925976322118
 20
141.71875
 30
0.0
 11
302.02005061591626
 21
141.71875
 31
0.0
  0
LINE
  5
354
  8
MyLines
 10
302.02005061591626
 20
141.71875
 30
0.0
 11
302.3475035996208
 21
141.71875
 31
0.0
  0
LINE
  5
355
  8
MyLines
 10
302.3475035996208
 20
141.71875
 30
0.0
 11
302.67495658332535
 21
141.71875
 31
0.0
  0
LINE
  5
356
  8
MyLines
 10
302.67495658332535
 20
141.71875
 30
0.0
 11
303.00240956702993
 21
141.71875
 31
0.0
  0
LINE
  5
357
  8
MyLines
 10
303.00240956702993
 20
141.71875
 30
0.0
 11
303.3298625507344
 21
141.71875
 31
0.0
  0
LINE
  5
358
  8
MyLines
 10
303.3298625507344
 20
141.71875
 30
0.0
 11
303.6573155344389
 21
141.71875
 31
0.0
  0
LINE
  5
359
  8
MyLines
 10
303.6573155344389
 20
141.71875
 30
0.0
 11
303.9847685181435
 21
141.71875
 31
0.0
  0
LINE
  5
35A
  8
MyLines
 10
303.9847685181435
 20
141.71875
 30
0.0
 11
304.31222150184794
 21
141.71875
 31
0.0
  0
LINE
  5
35B
  8
MyLines
 10
304.31222150184794
 20
141.71875
 30
0.0
 11
304.6396744855525
 21
141.71875
 31
0.0
  0
LINE
  5
35C
  8
MyLines
 10
304.6396744855525
 20
141.71875
 30
0.0
 11
304.9671274692571
 21
141.71875
 31
0.0
  0
LINE
  5
35D
  8
MyLines
 10
304.9671274692571
 20
141.71875
 30
0.0
 11
305.2945804529616
 21
141.71875
 31
0.0
  0
LINE
  5
35E
  8
MyLines
 10
305.2945804529616
 20
141.71875
 30
0.0
 11
305.6220334366661
 21
141.71875
 31
0.0
  0
LINE
  5
35F
  8
MyLines
 10
305.6220334366661
 20
141.71875
 30
0.0
 11
305.94948642037065
 21
141.71875
 31
0.0
  0
LINE
  5
360
  8
MyLines
 10
305.94948642037065
 20
141.71875
 30
0.0
 11
306.2769394040752
 21
141.71875
 31
0.0
  0
LINE
  5
361
  8
MyLines
 10
306.2769394040752
 20
141.71875
 30
0.0
 11
306.6043923877797
 21
141.71875
 31
0.0
  0
LINE
  5
362
  8
MyLines
 10
306.6043923877797
 20
141.71875
 30
0.0
 11
306.9318453714842
 21
141.71875
 31
0.0
  0
LINE
  5
363
  8
MyLines
 10
306.9318453714842
 20
141.71875
 30
0.0
 11
307.2592983551888
 21
141.71875
 31
0.0
  0
LINE
  5
364
  8
MyLines
 10
307.2592983551888
 20
141.71875
 30
0.0
 11
307.2592983551888
 21
-129.8125
 31
0.0
  0
LINE
  5
365
  8
MyLines
 10
307.2592983551888
 20
-129.8125
 30
0.0
 11
307.2592983551888
 21
-129.8125
 31
0.0
  0
LINE
  5
366
  8
MyLines
 10
307.2592983551888
 20
-129.8125
 30
0.0
 11
307.2592983551888
 21
-129.8125
 31
0.0
  0
LINE
  5
367
  8
MyLines
 10
307.2592983551888
 20
-129.8125
 30
0.0
 11
307.2592983551888
 21
-129.8125
 31
0.0
  0
LINE
  5
368
  8
MyLines
 10
307.2592983551888
 20
-129.8125
 30
0.0
 11
307.2592983551888
 21
-129.8125
 31
0.0
  0
LINE
  5
369
  8
MyLines
 10
307.2592983551888
 20
-129.8125
 30
0.0
 11
307.2592983551888
 21
-129.8125
 31
0.0
  0
LINE
  5
36A
  8
MyLines
 10
307.2592983551888
 20
-129.8125
 30
0.0
 11
307.2592983551888
 21
-129.8125
 31
0.0
  0
LINE
  5
36B
  8
MyLines
 10
307.2592983551888
 20
-129.8125
 30
0.0
 11
307.2592983551888
 21
-129.8125
 31
0.0
  0
LINE
  5
36C
  8
MyLines
 10
307.2592983551888
 20
-129.8125
 30
0.0
 11
307.2592983551888
 21
-129.8125
 31
0.0
  0
LINE
  5
36D
  8
MyLines
 10
307.2592983551888
 20
-129.8125
 30
0.0
 11
307.2592983551888
 21
-129.8125
 31
0.0
  0
LINE
  5
36E
  8
MyLines
 10
307.2592983551888
 20
-129.8125
 30
0.0
 11
307.2592983551888
 21
-129.8125
 31
0.0
  0
LINE
  5
36F
  8
MyLines
 10
307.2592983551888
 20
-129.8125
 30
0.0
 11
307.2592983551888
 21
-129.8125
 31
0.0
  0
LINE
  5
370
  8
MyLines
 10
307.2592983551888
 20
-129.8125
 30
0.0
 11
307.2592983551888
 21
-129.8125
 31
0.0
  0
LINE
  5
371
  8
MyLines
 10
307.2592983551888
 20
-129.8125
 30
0.0
 11
307.2592983551888
 21
-129.8125
 31
0.0
  0
LINE
  5
372
  8
MyLines
 10
307.2592983551888
 20
-129.8125
 30
0.0
 11
307.2592983551888
 21
-129.8125
 31
0.0
  0
LINE
  5
373
  8
MyLines
 10
307.2592983551888
 20
-129.8125
 30
0.0
 11
307.2592983551888
 21
-129.8125
 31
0.0
  0
LINE
  5
374
  8
MyLines
 10
307.2592983551888
 20
-129.8125
 30
0.0
 11
307.2592983551888
 21
-129.8125
 31
0.0
  0
LINE
  5
375
  8
MyLines
 10
307.2592983551888
 20
-129.8125
 30
0.0
 11
307.2592983551888
 21
-129.8125
 31
0.0
  0
LINE
  5
376
  8
MyLines
 10
307.2592983551888
 20
-129.8125
 30
0.0
 11
307.2592983551888
 21
-129.8125
 31
0.0
  0
LINE
  5
377
  8
MyLines
 10
307.2592983551888
 20
-129.8125
 30
0.0
 11
307.2592983551888
 21
-129.8125
 31
0.0
  0
LINE
  5
378
  8
MyLines
 10
307.2592983551888
 20
-129.8125
 30
0.0
 11
307.2592983551888
 21
-129.8125
 31
0.0
  0
LINE
  5
379
  8
MyLines
 10
307.2592983551888
 20
-129.8125
 30
0.0
 11
307.2592983551888
 21
-129.8125
 31
0.0
  0
LINE
  5
37A
  8
MyLines
 10
307.2592983551888
 20
-129.8125
 30
0.0
 11
307.2592983551888
 21
-129.8125
 31
0.0
  0
LINE
  5
37B
  8
MyLines
 10
307.2592983551888
 20
-129.8125
 30
0.0
 11
307.2592983551888
 21
-129.8125
 31
0.0
  0
LINE
  5
37C
  8
MyLines
 10
307.2592983551888
 20
-129.8125
 30
0.0
 11
307.2592983551888
 21
-129.8125
 31
0.0
  0
LINE
  5
37D
  8
MyLines
 10
307.2592983551888
 20
-129.8125
 30
0.0
 11
307.2592983551888
 21
-129.8125
 31
0.0
  0
LINE
  5
37E
  8
MyLines
 10
307.2592983551888
 20
-129.8125
 30
0.0
 11
307.2592983551888
 21
-129.8125
 31
0.0
  0
LINE
  5
37F
  8
MyLines
 10
307.2592983551888
 20
-129.8125
 30
0.0
 11
307.2592983551888
 21
-129.8125
 31
0.0
  0
LINE
  5
380
  8
MyLines
 10
307.2592983551888
 20
-129.8125
 30
0.0
 11
307.2592983551888
 21
-129.8125
 31
0.0
  0
LINE
  5
381
  8
MyLines
 10
307.2592983551888
 20
-129.8125
 30
0.0
 11
307.2592983551888
 21
-129.8125
 31
0.0
  0
LINE
  5
382
  8
MyLines
 10
307.2592983551888
 20
-129.8125
 30
0.0
 11
307.2592983551888
 21
-129.8125
 31
0.0
  0
LINE
  5
383
  8
MyLines
 10
307.2592983551888
 20
-129.8125
 30
0.0
 11
307.2592983551888
 21
-129.8125
 31
0.0
  0
LINE
  5
384
  8
MyLines
 10
307.2592983551888
 20
-129.8125
 30
0.0
 11
307.2592983551888
 21
-129.8125
 31
0.0
  0
LINE
  5
385
  8
MyLines
 10
307.2592983551888
 20
-129.8125
 30
0.0
 11
307.2592983551888
 21
-129.8125
 31
0.0
  0
LINE
  5
386
  8
MyLines
 10
307.2592983551888
 20
-129.8125
 30
0.0
 11
307.2592983551888
 21
-129.8125
 31
0.0
  0
LINE
  5
387
  8
MyLines
 10
307.2592983551888
 20
-129.8125
 30
0.0
 11
307.2592983551888
 21
-129.8125
 31
0.0
  0
LINE
  5
388
  8
MyLines
 10
307.2592983551888
 20
-129.8125
 30
0.0
 11
307.2592983551888
 21
-129.8125
 31
0.0
  0
LINE
  5
389
  8
MyLines
 10
307.2592983551888
 20
-129.8125
 30
0.0
 11
307.2592983551888
 21
-129.8125
 31
0.0
  0
LINE
  5
38A
  8
MyLines
 10
307.2592983551888
 20
-129.8125
 30
0.0
 11
307.2592983551888
 21
-129.8125
 31
0.0
  0
LINE
  5
38B
  8
MyLines
 10
307.2592983551888
 20
-129.8125
 30
0.0
 11
307.2592983551888
 21
-129.8125
 31
0.0
  0
LINE
  5
38C
  8
MyLines
 10
307.2592983551888
 20
-129.8125
 30
0.0
 11
307.2592983551888
 21
-129.8125
 31
0.0
  0
LINE
  5
38D
  8
MyLines
 10
307.2592983551888
 20
-129.8125
 30
0.0
 11
307.2592983551888
 21
-129.8125
 31
0.0
  0
LINE
  5
38E
  8
MyLines
 10
307.2592983551888
 20
-129.8125
 30
0.0
 11
307.2592983551888
 21
-129.8125
 31
0.0
  0
LINE
  5
38F
  8
MyLines
 10
307.2592983551888
 20
-129.8125
 30
0.0
 11
307.2592983551888
 21
-129.8125
 31
0.0
  0
LINE
  5
390
  8
MyLines
 10
307.2592983551888
 20
-129.8125
 30
0.0
 11
307.2592983551888
 21
-129.8125
 31
0.0
  0
LINE
  5
391
  8
MyLines
 10
307.2592983551888
 20
-129.8125
 30
0.0
 11
307.2592983551888
 21
-129.8125
 31
0.0
  0
LINE
  5
392
  8
MyLines
 10
307.2592983551888
 20
-129.8125
 30
0.0
 11
307.2592983551888
 21
-129.8125
 31
0.0
  0
LINE
  5
393
  8
MyLines
 10
307.2592983551888
 20
-129.8125
 30
0.0
 11
307.2592983551888
 21
-129.8125
 31
0.0
  0
LINE
  5
394
  8
MyLines
 10
307.2592983551888
 20
-129.8125
 30
0.0
 11
307.2592983551888
 21
-129.8125
 31
0.0
  0
LINE
  5
395
  8
MyLines
 10
307.2592983551888
 20
-129.8125
 30
0.0
 11
307.2592983551888
 21
-129.8125
 31
0.0
  0
LINE
  5
396
  8
MyLines
 10
307.2592983551888
 20
-129.8125
 30
0.0
 11
307.2592983551888
 21
-129.8125
 31
0.0
  0
ENDSEC
  0
EOF
