  0
SECTION
  2
HEADER
  9
$ACADVER
  1
AC1009
  9
$DWGCODEPAGE
  3
ANSI_1252
  9
$INSBASE
 10
0.0
 20
0.0
 30
0.0
  9
$EXTMIN
 10
1e+20
 20
1e+20
 30
1e+20
  9
$EXTMAX
 10
-1e+20
 20
-1e+20
 30
-1e+20
  9
$LIMMIN
 10
0.0
 20
0.0
  9
$LIMMAX
 10
420.0
 20
297.0
  9
$ORTHOMODE
 70
0
  9
$REGENMODE
 70
1
  9
$FILLMODE
 70
1
  9
$DRAGMODE
 70
2
  9
$QTEXTMODE
 70
0
  9
$MIRRTEXT
 70
1
  9
$OSMODE
 70
20583
  9
$LTSCALE
 40
1.0
  9
$ATTMODE
 70
1
  9
$TEXTSIZE
 40
2.5
  9
$TRACEWID
 40
1.0
  9
$TEXTSTYLE
  7
Standard
  9
$CLAYER
  8
0
  9
$CELTYPE
  6
ByLayer
  9
$CECOLOR
 62
256
  9
$DIMSCALE
 40
1.0
  9
$DIMASZ
 40
2.5
  9
$DIMEXO
 40
0.625
  9
$DIMDLI
 40
3.75
  9
$DIMRND
 40
0.0
  9
$DIMDLE
 40
0.0
  9
$DIMEXE
 40
1.25
  9
$DIMTP
 40
0.0
  9
$DIMTM
 40
0.0
  9
$DIMTXT
 40
2.5
  9
$DIMCEN
 40
2.5
  9
$DIMTSZ
 40
0.0
  9
$DIMTOL
 70
0
  9
$DIMLIM
 70
0
  9
$DIMTIH
 70
0
  9
$DIMTOH
 70
0
  9
$DIMSE1
 70
0
  9
$DIMSE2
 70
0
  9
$DIMTAD
 70
1
  9
$DIMZIN
 70
8
  9
$DIMBLK
  1

  9
$DIMASO
 70
1
  9
$DIMSHO
 70
1
  9
$DIMPOST
  1

  9
$DIMAPOST
  1

  9
$DIMALT
 70
0
  9
$DIMALTD
 70
3
  9
$DIMALTF
 40
0.03937007874
  9
$DIMLFAC
 40
1.0
  9
$DIMTOFL
 70
1
  9
$DIMTVP
 40
0.0
  9
$DIMTIX
 70
0
  9
$DIMSOXD
 70
0
  9
$DIMSAH
 70
0
  9
$DIMBLK1
  1

  9
$DIMBLK2
  1

  9
$DIMSTYLE
  2
ISO-25
  9
$DIMCLRD
 70
0
  9
$DIMCLRE
 70
0
  9
$DIMCLRT
 70
0
  9
$DIMTFAC
 40
1.0
  9
$DIMGAP
 40
0.625
  9
$COORDS
 70
1
  9
$ATTDIA
 70
0
  9
$ATTREQ
 70
1
  9
$HANDLING
 70
1
  9
$LUNITS
 70
2
  9
$LUPREC
 70
4
  9
$SKETCHINC
 40
1.0
  9
$FILLETRAD
 40
10.0
  9
$AUNITS
 70
0
  9
$AUPREC
 70
2
  9
$MENU
  1
.
  9
$ELEVATION
 40
0.0
  9
$PELEVATION
 40
0.0
  9
$THICKNESS
 40
0.0
  9
$LIMCHECK
 70
0
  9
$CHAMFERA
 40
0.0
  9
$CHAMFERB
 40
0.0
  9
$SKPOLY
 70
0
  9
$TDCREATE
 40
2459340.736284722
  9
$TDUPDATE
 40
2459340.736284722
  9
$TDINDWG
 40
0.0
  9
$TDUSRTIMER
 40
0.0
  9
$USRTIMER
 70
1
  9
$ANGBASE
 50
0.0
  9
$ANGDIR
 70
0
  9
$PDMODE
 70
0
  9
$PDSIZE
 40
0.0
  9
$PLINEWID
 40
0.0
  9
$SPLFRAME
 70
0
  9
$SPLINETYPE
 70
6
  9
$SPLINESEGS
 70
8
  9
$HANDSEED
  5
398
  9
$SURFTAB1
 70
6
  9
$SURFTAB2
 70
6
  9
$SURFTYPE
 70
6
  9
$SURFU
 70
6
  9
$SURFV
 70
6
  9
$UCSNAME
  2

  9
$UCSORG
 10
0.0
 20
0.0
 30
0.0
  9
$UCSXDIR
 10
1.0
 20
0.0
 30
0.0
  9
$UCSYDIR
 10
0.0
 20
1.0
 30
0.0
  9
$PUCSNAME
  2

  9
$PUCSORG
 10
0.0
 20
0.0
 30
0.0
  9
$PUCSXDIR
 10
1.0
 20
0.0
 30
0.0
  9
$PUCSYDIR
 10
0.0
 20
1.0
 30
0.0
  9
$USERI1
 70
0
  9
$USERI2
 70
0
  9
$USERI3
 70
0
  9
$USERI4
 70
0
  9
$USERI5
 70
0
  9
$USERR1
 40
0.0
  9
$USERR2
 40
0.0
  9
$USERR3
 40
0.0
  9
$USERR4
 40
0.0
  9
$USERR5
 40
0.0
  9
$WORLDVIEW
 70
1
  9
$SHADEDGE
 70
3
  9
$SHADEDIF
 70
70
  9
$TILEMODE
 70
1
  9
$MAXACTVP
 70
64
  9
$PLIMCHECK
 70
0
  9
$PEXTMIN
 10
1e+20
 20
1e+20
 30
1e+20
  9
$PEXTMAX
 10
-1e+20
 20
-1e+20
 30
-1e+20
  9
$PLIMMIN
 10
0.0
 20
0.0
  9
$PLIMMAX
 10
420.0
 20
297.0
  9
$UNITMODE
 70
0
  9
$VISRETAIN
 70
1
  9
$PLINEGEN
 70
0
  9
$PSLTSCALE
 70
1
  0
ENDSEC
  0
SECTION
  2
TABLES
  0
TABLE
  2
VPORT
 70
1
  0
VPORT
  5
23
  2
*Active
 70
0
 10
0.0
 20
0.0
 11
1.0
 21
1.0
 12
344.2
 22
148.5
 13
0.0
 23
0.0
 14
0.5
 24
0.5
 15
0.5
 25
0.5
 16
0.0
 26
0.0
 36
1.0
 17
0.0
 27
0.0
 37
0.0
 40
297.0
 41
1.34
 42
50.0
 43
0.0
 44
0.0
 50
0.0
 51
0.0
 71
0
 72
1000
 73
1
 74
3
 75
0
 76
0
 77
0
 78
0
  0
ENDTAB
  0
TABLE
  2
LTYPE
 70
3
  0
LTYPE
  5
24
  2
ByBlock
 70
0
  3

 72
65
 73
0
 40
0.0
  0
LTYPE
  5
25
  2
ByLayer
 70
0
  3

 72
65
 73
0
 40
0.0
  0
LTYPE
  5
26
  2
Continuous
 70
0
  3

 72
65
 73
0
 40
0.0
  0
ENDTAB
  0
TABLE
  2
LAYER
 70
3
  0
LAYER
  5
27
  2
0
 70
0
 62
7
  6
Continuous
  0
LAYER
  5
28
  2
Defpoints
 70
0
 62
7
  6
Continuous
  0
LAYER
  5
2D
  2
MyLines
 70
0
 62
7
  6
DASHED
  0
ENDTAB
  0
TABLE
  2
STYLE
 70
1
  0
STYLE
  5
29
  2
Standard
 70
0
 40
0.0
 41
1.0
 50
0.0
 71
0
 42
2.5
  3
txt
  4

  0
ENDTAB
  0
TABLE
  2
VIEW
 70
0
  0
ENDTAB
  0
TABLE
  2
UCS
 70
0
  0
ENDTAB
  0
TABLE
  2
APPID
 70
2
  0
APPID
  5
2A
  2
ACAD
 70
0
  0
APPID
  5
397
  2
HATCHBACKGROUNDCOLOR
 70
0
  0
ENDTAB
  0
TABLE
  2
DIMSTYLE
 70
1
  0
DIMSTYLE
105
2B
  2
Standard
 70
0
  3

  4

  5

  6

  7

 40
1.0
 41
2.5
 42
0.625
 43
3.75
 44
1.25
 45
0.0
 46
0.0
 47
0.0
 48
0.0
140
2.5
141
2.5
142
0.0
143
0.03937007874
144
1.0
145
0.0
146
1.0
147
0.625
 71
0
 72
0
 73
0
 74
0
 75
0
 76
0
 77
1
 78
8
170
0
171
3
172
1
173
0
174
0
175
0
176
0
177
0
178
0
  0
ENDTAB
  0
ENDSEC
  0
SECTION
  2
BLOCKS
  0
BLOCK
  5
18
  8
0
  2
$Model_Space
 70
0
 10
0.0
 20
0.0
 30
0.0
  3
$Model_Space
  1

  0
ENDBLK
  5
19
  8
0
  0
BLOCK
  5
1C
  8
0
  2
$Paper_Space
 70
0
 10
0.0
 20
0.0
 30
0.0
  3
$Paper_Space
  1

  0
ENDBLK
  5
1D
  8
0
  0
ENDSEC
  0
SECTION
  2
ENTITIES
  0
LINE
  5
2E
  8
MyLines
 10
307.2592983551888
 20
-165.53125
 30
0.0
 11
310.10840392063085
 21
-165.53125
 31
0.0
  0
LINE
  5
2F
  8
MyLines
 10
310.10840392063085
 20
-165.53125
 30
0.0
 11
312.95750948607287
 21
-165.53125
 31
0.0
  0
LINE
  5
30
  8
MyLines
 10
312.95750948607287
 20
-165.53125
 30
0.0
 11
315.8066150515149
 21
-165.53125
 31
0.0
  0
LINE
  5
31
  8
MyLines
 10
315.8066150515149
 20
-165.53125
 30
0.0
 11
318.6557206169569
 21
-165.53125
 31
0.0
  0
LINE
  5
32
  8
MyLines
 10
318.6557206169569
 20
-165.53125
 30
0.0
 11
321.504826182399
 21
-165.53125
 31
0.0
  0
LINE
  5
33
  8
MyLines
 10
321.504826182399
 20
-165.53125
 30
0.0
 11
324.353931747841
 21
-165.53125
 31
0.0
  0
LINE
  5
34
  8
MyLines
 10
324.353931747841
 20
-165.53125
 30
0.0
 11
327.20303731328306
 21
-165.53125
 31
0.0
  0
LINE
  5
35
  8
MyLines
 10
327.20303731328306
 20
-165.53125
 30
0.0
 11
330.0521428787251
 21
-165.53125
 31
0.0
  0
LINE
  5
36
  8
MyLines
 10
330.0521428787251
 20
-165.53125
 30
0.0
 11
332.9012484441671
 21
-165.53125
 31
0.0
  0
LINE
  5
37
  8
MyLines
 10
332.9012484441671
 20
-165.53125
 30
0.0
 11
335.75035400960917
 21
-165.53125
 31
0.0
  0
LINE
  5
38
  8
MyLines
 10
335.75035400960917
 20
-165.53125
 30
0.0
 11
338.5994595750512
 21
-165.53125
 31
0.0
  0
LINE
  5
39
  8
MyLines
 10
338.5994595750512
 20
-165.53125
 30
0.0
 11
341.44856514049326
 21
-165.53125
 31
0.0
  0
LINE
  5
3A
  8
MyLines
 10
341.44856514049326
 20
-165.53125
 30
0.0
 11
344.2976707059353
 21
-165.53125
 31
0.0
  0
LINE
  5
3B
  8
MyLines
 10
344.2976707059353
 20
-165.53125
 30
0.0
 11
347.14677627137735
 21
-165.53125
 31
0.0
  0
LINE
  5
3C
  8
MyLines
 10
347.14677627137735
 20
-165.53125
 30
0.0
 11
349.9958818368193
 21
-165.53125
 31
0.0
  0
LINE
  5
3D
  8
MyLines
 10
349.9958818368193
 20
-165.53125
 30
0.0
 11
352.8449874022614
 21
-165.53125
 31
0.0
  0
LINE
  5
3E
  8
MyLines
 10
352.8449874022614
 20
-165.53125
 30
0.0
 11
355.6940929677034
 21
-165.53125
 31
0.0
  0
LINE
  5
3F
  8
MyLines
 10
355.6940929677034
 20
-165.53125
 30
0.0
 11
358.54319853314547
 21
-165.53125
 31
0.0
  0
LINE
  5
40
  8
MyLines
 10
358.54319853314547
 20
-165.53125
 30
0.0
 11
361.39230409858754
 21
-165.53125
 31
0.0
  0
LINE
  5
41
  8
MyLines
 10
361.39230409858754
 20
-165.53125
 30
0.0
 11
364.24140966402956
 21
-165.53125
 31
0.0
  0
LINE
  5
42
  8
MyLines
 10
364.24140966402956
 20
-165.53125
 30
0.0
 11
367.09051522947163
 21
-165.53125
 31
0.0
  0
LINE
  5
43
  8
MyLines
 10
367.09051522947163
 20
-165.53125
 30
0.0
 11
369.9396207949136
 21
-165.53125
 31
0.0
  0
LINE
  5
44
  8
MyLines
 10
369.9396207949136
 20
-165.53125
 30
0.0
 11
372.78872636035567
 21
-165.53125
 31
0.0
  0
LINE
  5
45
  8
MyLines
 10
372.78872636035567
 20
-165.53125
 30
0.0
 11
375.6378319257977
 21
-165.53125
 31
0.0
  0
LINE
  5
46
  8
MyLines
 10
375.6378319257977
 20
-165.53125
 30
0.0
 11
378.48693749123976
 21
-165.53125
 31
0.0
  0
LINE
  5
47
  8
MyLines
 10
378.48693749123976
 20
-165.53125
 30
0.0
 11
381.33604305668183
 21
-165.53125
 31
0.0
  0
LINE
  5
48
  8
MyLines
 10
381.33604305668183
 20
-165.53125
 30
0.0
 11
384.18514862212385
 21
-165.53125
 31
0.0
  0
LINE
  5
49
  8
MyLines
 10
384.18514862212385
 20
-165.53125
 30
0.0
 11
387.0342541875658
 21
-165.53125
 31
0.0
  0
LINE
  5
4A
  8
MyLines
 10
387.0342541875658
 20
-165.53125
 30
0.0
 11
389.8833597530079
 21
-165.53125
 31
0.0
  0
LINE
  5
4B
  8
MyLines
 10
389.8833597530079
 20
-165.53125
 30
0.0
 11
392.73246531844995
 21
-165.53125
 31
0.0
  0
LINE
  5
4C
  8
MyLines
 10
392.73246531844995
 20
-165.53125
 30
0.0
 11
395.58157088389197
 21
-165.53125
 31
0.0
  0
LINE
  5
4D
  8
MyLines
 10
395.58157088389197
 20
-165.53125
 30
0.0
 11
398.43067644933404
 21
-165.53125
 31
0.0
  0
LINE
  5
4E
  8
MyLines
 10
398.43067644933404
 20
-165.53125
 30
0.0
 11
401.27978201477606
 21
-165.53125
 31
0.0
  0
LINE
  5
4F
  8
MyLines
 10
401.27978201477606
 20
-165.53125
 30
0.0
 11
404.1288875802181
 21
-165.53125
 31
0.0
  0
LINE
  5
50
  8
MyLines
 10
404.1288875802181
 20
-165.53125
 30
0.0
 11
406.9779931456601
 21
-165.53125
 31
0.0
  0
LINE
  5
51
  8
MyLines
 10
406.9779931456601
 20
-165.53125
 30
0.0
 11
409.82709871110217
 21
-165.53125
 31
0.0
  0
LINE
  5
52
  8
MyLines
 10
409.82709871110217
 20
-165.53125
 30
0.0
 11
412.67620427654424
 21
-165.53125
 31
0.0
  0
LINE
  5
53
  8
MyLines
 10
412.67620427654424
 20
-165.53125
 30
0.0
 11
415.52530984198626
 21
-165.53125
 31
0.0
  0
LINE
  5
54
  8
MyLines
 10
415.52530984198626
 20
-165.53125
 30
0.0
 11
418.37441540742833
 21
-165.53125
 31
0.0
  0
LINE
  5
55
  8
MyLines
 10
418.37441540742833
 20
-165.53125
 30
0.0
 11
421.2235209728703
 21
-165.53125
 31
0.0
  0
LINE
  5
56
  8
MyLines
 10
421.2235209728703
 20
-165.53125
 30
0.0
 11
424.07262653831236
 21
-165.53125
 31
0.0
  0
LINE
  5
57
  8
MyLines
 10
424.07262653831236
 20
-165.53125
 30
0.0
 11
426.9217321037544
 21
-165.53125
 31
0.0
  0
LINE
  5
58
  8
MyLines
 10
426.9217321037544
 20
-165.53125
 30
0.0
 11
429.77083766919645
 21
-165.53125
 31
0.0
  0
LINE
  5
59
  8
MyLines
 10
429.77083766919645
 20
-165.53125
 30
0.0
 11
432.6199432346385
 21
-165.53125
 31
0.0
  0
LINE
  5
5A
  8
MyLines
 10
432.6199432346385
 20
-165.53125
 30
0.0
 11
435.46904880008054
 21
-165.53125
 31
0.0
  0
LINE
  5
5B
  8
MyLines
 10
435.46904880008054
 20
-165.53125
 30
0.0
 11
438.3181543655225
 21
-165.53125
 31
0.0
  0
LINE
  5
5C
  8
MyLines
 10
438.3181543655225
 20
-165.53125
 30
0.0
 11
441.1672599309646
 21
-165.53125
 31
0.0
  0
LINE
  5
5D
  8
MyLines
 10
441.1672599309646
 20
-165.53125
 30
0.0
 11
444.01636549640665
 21
-165.53125
 31
0.0
  0
LINE
  5
5E
  8
MyLines
 10
444.01636549640665
 20
-165.53125
 30
0.0
 11
446.86547106184867
 21
-165.53125
 31
0.0
  0
LINE
  5
5F
  8
MyLines
 10
446.86547106184867
 20
-165.53125
 30
0.0
 11
446.86547106184867
 21
-161.5625
 31
0.0
  0
LINE
  5
60
  8
MyLines
 10
446.86547106184867
 20
-161.5625
 30
0.0
 11
446.86547106184867
 21
169.5
 31
0.0
  0
LINE
  5
61
  8
MyLines
 10
446.86547106184867
 20
169.5
 30
0.0
 11
446.86547106184867
 21
169.5
 31
0.0
  0
LINE
  5
62
  8
MyLines
 10
446.86547106184867
 20
169.5
 30
0.0
 11
444.9110545697693
 21
169.5
 31
0.0
  0
LINE
  5
63
  8
MyLines
 10
444.9110545697693
 20
169.5
 30
0.0
 11
442.9566380776899
 21
169.5
 31
0.0
  0
LINE
  5
64
  8
MyLines
 10
442.9566380776899
 20
169.5
 30
0.0
 11
441.0022215856105
 21
169.5
 31
0.0
  0
LINE
  5
65
  8
MyLines
 10
441.0022215856105
 20
169.5
 30
0.0
 11
439.0478050935311
 21
169.5
 31
0.0
  0
LINE
  5
66
  8
MyLines
 10
439.0478050935311
 20
169.5
 30
0.0
 11
437.0933886014517
 21
169.5
 31
0.0
  0
LINE
  5
67
  8
MyLines
 10
437.0933886014517
 20
169.5
 30
0.0
 11
435.13897210937233
 21
169.5
 31
0.0
  0
LINE
  5
68
  8
MyLines
 10
435.13897210937233
 20
169.5
 30
0.0
 11
433.184555617293
 21
169.5
 31
0.0
  0
LINE
  5
69
  8
MyLines
 10
433.184555617293
 20
169.5
 30
0.0
 11
431.2301391252136
 21
169.5
 31
0.0
  0
LINE
  5
6A
  8
MyLines
 10
431.2301391252136
 20
169.5
 30
0.0
 11
429.2757226331342
 21
169.5
 31
0.0
  0
LINE
  5
6B
  8
MyLines
 10
429.2757226331342
 20
169.5
 30
0.0
 11
427.32130614105483
 21
169.5
 31
0.0
  0
LINE
  5
6C
  8
MyLines
 10
427.32130614105483
 20
169.5
 30
0.0
 11
425.3668896489755
 21
169.5
 31
0.0
  0
LINE
  5
6D
  8
MyLines
 10
425.3668896489755
 20
169.5
 30
0.0
 11
423.412473156896
 21
169.5
 31
0.0
  0
LINE
  5
6E
  8
MyLines
 10
423.412473156896
 20
169.5
 30
0.0
 11
421.45805666481664
 21
169.5
 31
0.0
  0
LINE
  5
6F
  8
MyLines
 10
421.45805666481664
 20
169.5
 30
0.0
 11
419.5036401727373
 21
169.5
 31
0.0
  0
LINE
  5
70
  8
MyLines
 10
419.5036401727373
 20
169.5
 30
0.0
 11
417.54922368065786
 21
169.5
 31
0.0
  0
LINE
  5
71
  8
MyLines
 10
417.54922368065786
 20
169.5
 30
0.0
 11
415.5948071885785
 21
169.5
 31
0.0
  0
LINE
  5
72
  8
MyLines
 10
415.5948071885785
 20
169.5
 30
0.0
 11
413.64039069649914
 21
169.5
 31
0.0
  0
LINE
  5
73
  8
MyLines
 10
413.64039069649914
 20
169.5
 30
0.0
 11
411.6859742044197
 21
169.5
 31
0.0
  0
LINE
  5
74
  8
MyLines
 10
411.6859742044197
 20
169.5
 30
0.0
 11
409.73155771234036
 21
169.5
 31
0.0
  0
LINE
  5
75
  8
MyLines
 10
409.73155771234036
 20
169.5
 30
0.0
 11
407.77714122026094
 21
169.5
 31
0.0
  0
LINE
  5
76
  8
MyLines
 10
407.77714122026094
 20
169.5
 30
0.0
 11
405.8227247281816
 21
169.5
 31
0.0
  0
LINE
  5
77
  8
MyLines
 10
405.8227247281816
 20
169.5
 30
0.0
 11
403.86830823610217
 21
169.5
 31
0.0
  0
LINE
  5
78
  8
MyLines
 10
403.86830823610217
 20
169.5
 30
0.0
 11
401.9138917440228
 21
169.5
 31
0.0
  0
LINE
  5
79
  8
MyLines
 10
401.9138917440228
 20
169.5
 30
0.0
 11
399.95947525194345
 21
169.5
 31
0.0
  0
LINE
  5
7A
  8
MyLines
 10
399.95947525194345
 20
169.5
 30
0.0
 11
398.005058759864
 21
169.5
 31
0.0
  0
LINE
  5
7B
  8
MyLines
 10
398.005058759864
 20
169.5
 30
0.0
 11
396.05064226778467
 21
169.5
 31
0.0
  0
LINE
  5
7C
  8
MyLines
 10
396.05064226778467
 20
169.5
 30
0.0
 11
394.09622577570525
 21
169.5
 31
0.0
  0
LINE
  5
7D
  8
MyLines
 10
394.09622577570525
 20
169.5
 30
0.0
 11
392.1418092836259
 21
169.5
 31
0.0
  0
LINE
  5
7E
  8
MyLines
 10
392.1418092836259
 20
169.5
 30
0.0
 11
390.1873927915465
 21
169.5
 31
0.0
  0
LINE
  5
7F
  8
MyLines
 10
390.1873927915465
 20
169.5
 30
0.0
 11
388.2329762994671
 21
169.5
 31
0.0
  0
LINE
  5
80
  8
MyLines
 10
388.2329762994671
 20
169.5
 30
0.0
 11
386.27855980738775
 21
169.5
 31
0.0
  0
LINE
  5
81
  8
MyLines
 10
386.27855980738775
 20
169.5
 30
0.0
 11
384.32414331530833
 21
169.5
 31
0.0
  0
LINE
  5
82
  8
MyLines
 10
384.32414331530833
 20
169.5
 30
0.0
 11
382.369726823229
 21
169.5
 31
0.0
  0
LINE
  5
83
  8
MyLines
 10
382.369726823229
 20
169.5
 30
0.0
 11
380.4153103311496
 21
169.5
 31
0.0
  0
LINE
  5
84
  8
MyLines
 10
380.4153103311496
 20
169.5
 30
0.0
 11
378.46089383907014
 21
169.5
 31
0.0
  0
LINE
  5
85
  8
MyLines
 10
378.46089383907014
 20
169.5
 30
0.0
 11
376.5064773469908
 21
169.5
 31
0.0
  0
LINE
  5
86
  8
MyLines
 10
376.5064773469908
 20
169.5
 30
0.0
 11
374.5520608549114
 21
169.5
 31
0.0
  0
LINE
  5
87
  8
MyLines
 10
374.5520608549114
 20
169.5
 30
0.0
 11
372.597644362832
 21
169.5
 31
0.0
  0
LINE
  5
88
  8
MyLines
 10
372.597644362832
 20
169.5
 30
0.0
 11
370.64322787075264
 21
169.5
 31
0.0
  0
LINE
  5
89
  8
MyLines
 10
370.64322787075264
 20
169.5
 30
0.0
 11
368.6888113786733
 21
169.5
 31
0.0
  0
LINE
  5
8A
  8
MyLines
 10
368.6888113786733
 20
169.5
 30
0.0
 11
366.73439488659386
 21
169.5
 31
0.0
  0
LINE
  5
8B
  8
MyLines
 10
366.73439488659386
 20
169.5
 30
0.0
 11
364.7799783945145
 21
169.5
 31
0.0
  0
LINE
  5
8C
  8
MyLines
 10
364.7799783945145
 20
169.5
 30
0.0
 11
362.8255619024351
 21
169.5
 31
0.0
  0
LINE
  5
8D
  8
MyLines
 10
362.8255619024351
 20
169.5
 30
0.0
 11
360.87114541035567
 21
169.5
 31
0.0
  0
LINE
  5
8E
  8
MyLines
 10
360.87114541035567
 20
169.5
 30
0.0
 11
358.9167289182763
 21
169.5
 31
0.0
  0
LINE
  5
8F
  8
MyLines
 10
358.9167289182763
 20
169.5
 30
0.0
 11
356.96231242619695
 21
169.5
 31
0.0
  0
LINE
  5
90
  8
MyLines
 10
356.96231242619695
 20
169.5
 30
0.0
 11
355.0078959341176
 21
169.5
 31
0.0
  0
LINE
  5
91
  8
MyLines
 10
355.0078959341176
 20
169.5
 30
0.0
 11
353.0534794420382
 21
169.5
 31
0.0
  0
LINE
  5
92
  8
MyLines
 10
353.0534794420382
 20
169.5
 30
0.0
 11
351.0990629499588
 21
169.5
 31
0.0
  0
LINE
  5
93
  8
MyLines
 10
351.0990629499588
 20
169.5
 30
0.0
 11
351.0990629499588
 21
-157.59375
 31
0.0
  0
LINE
  5
94
  8
MyLines
 10
351.0990629499588
 20
-157.59375
 30
0.0
 11
351.0990629499588
 21
-157.59375
 31
0.0
  0
LINE
  5
95
  8
MyLines
 10
351.0990629499588
 20
-157.59375
 30
0.0
 11
352.97161619611205
 21
-157.59375
 31
0.0
  0
LINE
  5
96
  8
MyLines
 10
352.97161619611205
 20
-157.59375
 30
0.0
 11
354.8441694422653
 21
-157.59375
 31
0.0
  0
LINE
  5
97
  8
MyLines
 10
354.8441694422653
 20
-157.59375
 30
0.0
 11
356.7167226884185
 21
-157.59375
 31
0.0
  0
LINE
  5
98
  8
MyLines
 10
356.7167226884185
 20
-157.59375
 30
0.0
 11
358.5892759345718
 21
-157.59375
 31
0.0
  0
LINE
  5
99
  8
MyLines
 10
358.5892759345718
 20
-157.59375
 30
0.0
 11
360.46182918072503
 21
-157.59375
 31
0.0
  0
LINE
  5
9A
  8
MyLines
 10
360.46182918072503
 20
-157.59375
 30
0.0
 11
362.3343824268783
 21
-157.59375
 31
0.0
  0
LINE
  5
9B
  8
MyLines
 10
362.3343824268783
 20
-157.59375
 30
0.0
 11
364.2069356730315
 21
-157.59375
 31
0.0
  0
LINE
  5
9C
  8
MyLines
 10
364.2069356730315
 20
-157.59375
 30
0.0
 11
366.07948891918477
 21
-157.59375
 31
0.0
  0
LINE
  5
9D
  8
MyLines
 10
366.07948891918477
 20
-157.59375
 30
0.0
 11
367.95204216533807
 21
-157.59375
 31
0.0
  0
LINE
  5
9E
  8
MyLines
 10
367.95204216533807
 20
-157.59375
 30
0.0
 11
369.8245954114913
 21
-157.59375
 31
0.0
  0
LINE
  5
9F
  8
MyLines
 10
369.8245954114913
 20
-157.59375
 30
0.0
 11
371.69714865764456
 21
-157.59375
 31
0.0
  0
LINE
  5
A0
  8
MyLines
 10
371.69714865764456
 20
-157.59375
 30
0.0
 11
373.5697019037978
 21
-157.59375
 31
0.0
  0
LINE
  5
A1
  8
MyLines
 10
373.5697019037978
 20
-157.59375
 30
0.0
 11
375.44225514995105
 21
-157.59375
 31
0.0
  0
LINE
  5
A2
  8
MyLines
 10
375.44225514995105
 20
-157.59375
 30
0.0
 11
377.3148083961043
 21
-157.59375
 31
0.0
  0
LINE
  5
A3
  8
MyLines
 10
377.3148083961043
 20
-157.59375
 30
0.0
 11
379.18736164225754
 21
-157.59375
 31
0.0
  0
LINE
  5
A4
  8
MyLines
 10
379.18736164225754
 20
-157.59375
 30
0.0
 11
381.05991488841084
 21
-157.59375
 31
0.0
  0
LINE
  5
A5
  8
MyLines
 10
381.05991488841084
 20
-157.59375
 30
0.0
 11
382.9324681345641
 21
-157.59375
 31
0.0
  0
LINE
  5
A6
  8
MyLines
 10
382.9324681345641
 20
-157.59375
 30
0.0
 11
384.80502138071733
 21
-157.59375
 31
0.0
  0
LINE
  5
A7
  8
MyLines
 10
384.80502138071733
 20
-157.59375
 30
0.0
 11
386.6775746268706
 21
-157.59375
 31
0.0
  0
LINE
  5
A8
  8
MyLines
 10
386.6775746268706
 20
-157.59375
 30
0.0
 11
388.5501278730238
 21
-157.59375
 31
0.0
  0
LINE
  5
A9
  8
MyLines
 10
388.5501278730238
 20
-157.59375
 30
0.0
 11
390.4226811191771
 21
-157.59375
 31
0.0
  0
LINE
  5
AA
  8
MyLines
 10
390.4226811191771
 20
-157.59375
 30
0.0
 11
392.2952343653304
 21
-157.59375
 31
0.0
  0
LINE
  5
AB
  8
MyLines
 10
392.2952343653304
 20
-157.59375
 30
0.0
 11
394.1677876114836
 21
-157.59375
 31
0.0
  0
LINE
  5
AC
  8
MyLines
 10
394.1677876114836
 20
-157.59375
 30
0.0
 11
396.0403408576368
 21
-157.59375
 31
0.0
  0
LINE
  5
AD
  8
MyLines
 10
396.0403408576368
 20
-157.59375
 30
0.0
 11
397.91289410379005
 21
-157.59375
 31
0.0
  0
LINE
  5
AE
  8
MyLines
 10
397.91289410379005
 20
-157.59375
 30
0.0
 11
399.7854473499433
 21
-157.59375
 31
0.0
  0
LINE
  5
AF
  8
MyLines
 10
399.7854473499433
 20
-157.59375
 30
0.0
 11
401.65800059609654
 21
-157.59375
 31
0.0
  0
LINE
  5
B0
  8
MyLines
 10
401.65800059609654
 20
-157.59375
 30
0.0
 11
403.53055384224984
 21
-157.59375
 31
0.0
  0
LINE
  5
B1
  8
MyLines
 10
403.53055384224984
 20
-157.59375
 30
0.0
 11
405.4031070884031
 21
-157.59375
 31
0.0
  0
LINE
  5
B2
  8
MyLines
 10
405.4031070884031
 20
-157.59375
 30
0.0
 11
407.27566033455633
 21
-157.59375
 31
0.0
  0
LINE
  5
B3
  8
MyLines
 10
407.27566033455633
 20
-157.59375
 30
0.0
 11
409.1482135807096
 21
-157.59375
 31
0.0
  0
LINE
  5
B4
  8
MyLines
 10
409.1482135807096
 20
-157.59375
 30
0.0
 11
411.0207668268628
 21
-157.59375
 31
0.0
  0
LINE
  5
B5
  8
MyLines
 10
411.0207668268628
 20
-157.59375
 30
0.0
 11
412.89332007301607
 21
-157.59375
 31
0.0
  0
LINE
  5
B6
  8
MyLines
 10
412.89332007301607
 20
-157.59375
 30
0.0
 11
414.7658733191694
 21
-157.59375
 31
0.0
  0
LINE
  5
B7
  8
MyLines
 10
414.7658733191694
 20
-157.59375
 30
0.0
 11
416.6384265653226
 21
-157.59375
 31
0.0
  0
LINE
  5
B8
  8
MyLines
 10
416.6384265653226
 20
-157.59375
 30
0.0
 11
418.51097981147586
 21
-157.59375
 31
0.0
  0
LINE
  5
B9
  8
MyLines
 10
418.51097981147586
 20
-157.59375
 30
0.0
 11
420.3835330576291
 21
-157.59375
 31
0.0
  0
LINE
  5
BA
  8
MyLines
 10
420.3835330576291
 20
-157.59375
 30
0.0
 11
422.25608630378235
 21
-157.59375
 31
0.0
  0
LINE
  5
BB
  8
MyLines
 10
422.25608630378235
 20
-157.59375
 30
0.0
 11
424.1286395499356
 21
-157.59375
 31
0.0
  0
LINE
  5
BC
  8
MyLines
 10
424.1286395499356
 20
-157.59375
 30
0.0
 11
426.00119279608884
 21
-157.59375
 31
0.0
  0
LINE
  5
BD
  8
MyLines
 10
426.00119279608884
 20
-157.59375
 30
0.0
 11
427.87374604224215
 21
-157.59375
 31
0.0
  0
LINE
  5
BE
  8
MyLines
 10
427.87374604224215
 20
-157.59375
 30
0.0
 11
429.7462992883954
 21
-157.59375
 31
0.0
  0
LINE
  5
BF
  8
MyLines
 10
429.7462992883954
 20
-157.59375
 30
0.0
 11
431.61885253454864
 21
-157.59375
 31
0.0
  0
LINE
  5
C0
  8
MyLines
 10
431.61885253454864
 20
-157.59375
 30
0.0
 11
433.4914057807018
 21
-157.59375
 31
0.0
  0
LINE
  5
C1
  8
MyLines
 10
433.4914057807018
 20
-157.59375
 30
0.0
 11
435.3639590268551
 21
-157.59375
 31
0.0
  0
LINE
  5
C2
  8
MyLines
 10
435.3639590268551
 20
-157.59375
 30
0.0
 11
437.2365122730084
 21
-157.59375
 31
0.0
  0
LINE
  5
C3
  8
MyLines
 10
437.2365122730084
 20
-157.59375
 30
0.0
 11
439.1090655191616
 21
-157.59375
 31
0.0
  0
LINE
  5
C4
  8
MyLines
 10
439.1090655191616
 20
-157.59375
 30
0.0
 11
440.98161876531486
 21
-157.59375
 31
0.0
  0
LINE
  5
C5
  8
MyLines
 10
440.98161876531486
 20
-157.59375
 30
0.0
 11
442.8541720114681
 21
-157.59375
 31
0.0
  0
LINE
  5
C6
  8
MyLines
 10
442.8541720114681
 20
-157.59375
 30
0.0
 11
442.8541720114681
 21
-157.59375
 31
0.0
  0
LINE
  5
C7
  8
MyLines
 10
442.8541720114681
 20
-157.59375
 30
0.0
 11
442.8541720114681
 21
165.53125
 31
0.0
  0
LINE
  5
C8
  8
MyLines
 10
442.8541720114681
 20
165.53125
 30
0.0
 11
442.8541720114681
 21
165.53125
 31
0.0
  0
LINE
  5
C9
  8
MyLines
 10
442.8541720114681
 20
165.53125
 30
0.0
 11
441.063482011241
 21
165.53125
 31
0.0
  0
LINE
  5
CA
  8
MyLines
 10
441.063482011241
 20
165.53125
 30
0.0
 11
439.2727920110139
 21
165.53125
 31
0.0
  0
LINE
  5
CB
  8
MyLines
 10
439.2727920110139
 20
165.53125
 30
0.0
 11
437.4821020107868
 21
165.53125
 31
0.0
  0
LINE
  5
CC
  8
MyLines
 10
437.4821020107868
 20
165.53125
 30
0.0
 11
435.69141201055965
 21
165.53125
 31
0.0
  0
LINE
  5
CD
  8
MyLines
 10
435.69141201055965
 20
165.53125
 30
0.0
 11
433.9007220103325
 21
165.53125
 31
0.0
  0
LINE
  5
CE
  8
MyLines
 10
433.9007220103325
 20
165.53125
 30
0.0
 11
432.11003201010544
 21
165.53125
 31
0.0
  0
LINE
  5
CF
  8
MyLines
 10
432.11003201010544
 20
165.53125
 30
0.0
 11
430.3193420098783
 21
165.53125
 31
0.0
  0
LINE
  5
D0
  8
MyLines
 10
430.3193420098783
 20
165.53125
 30
0.0
 11
428.5286520096512
 21
165.53125
 31
0.0
  0
LINE
  5
D1
  8
MyLines
 10
428.5286520096512
 20
165.53125
 30
0.0
 11
426.73796200942405
 21
165.53125
 31
0.0
  0
LINE
  5
D2
  8
MyLines
 10
426.73796200942405
 20
165.53125
 30
0.0
 11
424.947272009197
 21
165.53125
 31
0.0
  0
LINE
  5
D3
  8
MyLines
 10
424.947272009197
 20
165.53125
 30
0.0
 11
423.15658200896985
 21
165.53125
 31
0.0
  0
LINE
  5
D4
  8
MyLines
 10
423.15658200896985
 20
165.53125
 30
0.0
 11
421.3658920087427
 21
165.53125
 31
0.0
  0
LINE
  5
D5
  8
MyLines
 10
421.3658920087427
 20
165.53125
 30
0.0
 11
419.57520200851553
 21
165.53125
 31
0.0
  0
LINE
  5
D6
  8
MyLines
 10
419.57520200851553
 20
165.53125
 30
0.0
 11
417.7845120082884
 21
165.53125
 31
0.0
  0
LINE
  5
D7
  8
MyLines
 10
417.7845120082884
 20
165.53125
 30
0.0
 11
415.99382200806133
 21
165.53125
 31
0.0
  0
LINE
  5
D8
  8
MyLines
 10
415.99382200806133
 20
165.53125
 30
0.0
 11
414.2031320078342
 21
165.53125
 31
0.0
  0
LINE
  5
D9
  8
MyLines
 10
414.2031320078342
 20
165.53125
 30
0.0
 11
412.41244200760707
 21
165.53125
 31
0.0
  0
LINE
  5
DA
  8
MyLines
 10
412.41244200760707
 20
165.53125
 30
0.0
 11
410.62175200737994
 21
165.53125
 31
0.0
  0
LINE
  5
DB
  8
MyLines
 10
410.62175200737994
 20
165.53125
 30
0.0
 11
408.83106200715287
 21
165.53125
 31
0.0
  0
LINE
  5
DC
  8
MyLines
 10
408.83106200715287
 20
165.53125
 30
0.0
 11
407.04037200692574
 21
165.53125
 31
0.0
  0
LINE
  5
DD
  8
MyLines
 10
407.04037200692574
 20
165.53125
 30
0.0
 11
405.2496820066986
 21
165.53125
 31
0.0
  0
LINE
  5
DE
  8
MyLines
 10
405.2496820066986
 20
165.53125
 30
0.0
 11
403.4589920064715
 21
165.53125
 31
0.0
  0
LINE
  5
DF
  8
MyLines
 10
403.4589920064715
 20
165.53125
 30
0.0
 11
401.66830200624435
 21
165.53125
 31
0.0
  0
LINE
  5
E0
  8
MyLines
 10
401.66830200624435
 20
165.53125
 30
0.0
 11
399.8776120060173
 21
165.53125
 31
0.0
  0
LINE
  5
E1
  8
MyLines
 10
399.8776120060173
 20
165.53125
 30
0.0
 11
398.08692200579014
 21
165.53125
 31
0.0
  0
LINE
  5
E2
  8
MyLines
 10
398.08692200579014
 20
165.53125
 30
0.0
 11
396.296232005563
 21
165.53125
 31
0.0
  0
LINE
  5
E3
  8
MyLines
 10
396.296232005563
 20
165.53125
 30
0.0
 11
394.5055420053359
 21
165.53125
 31
0.0
  0
LINE
  5
E4
  8
MyLines
 10
394.5055420053359
 20
165.53125
 30
0.0
 11
392.7148520051088
 21
165.53125
 31
0.0
  0
LINE
  5
E5
  8
MyLines
 10
392.7148520051088
 20
165.53125
 30
0.0
 11
390.9241620048817
 21
165.53125
 31
0.0
  0
LINE
  5
E6
  8
MyLines
 10
390.9241620048817
 20
165.53125
 30
0.0
 11
389.13347200465455
 21
165.53125
 31
0.0
  0
LINE
  5
E7
  8
MyLines
 10
389.13347200465455
 20
165.53125
 30
0.0
 11
387.3427820044274
 21
165.53125
 31
0.0
  0
LINE
  5
E8
  8
MyLines
 10
387.3427820044274
 20
165.53125
 30
0.0
 11
385.55209200420035
 21
165.53125
 31
0.0
  0
LINE
  5
E9
  8
MyLines
 10
385.55209200420035
 20
165.53125
 30
0.0
 11
383.7614020039732
 21
165.53125
 31
0.0
  0
LINE
  5
EA
  8
MyLines
 10
383.7614020039732
 20
165.53125
 30
0.0
 11
381.9707120037461
 21
165.53125
 31
0.0
  0
LINE
  5
EB
  8
MyLines
 10
381.9707120037461
 20
165.53125
 30
0.0
 11
380.18002200351896
 21
165.53125
 31
0.0
  0
LINE
  5
EC
  8
MyLines
 10
380.18002200351896
 20
165.53125
 30
0.0
 11
378.38933200329177
 21
165.53125
 31
0.0
  0
LINE
  5
ED
  8
MyLines
 10
378.38933200329177
 20
165.53125
 30
0.0
 11
376.59864200306475
 21
165.53125
 31
0.0
  0
LINE
  5
EE
  8
MyLines
 10
376.59864200306475
 20
165.53125
 30
0.0
 11
374.80795200283757
 21
165.53125
 31
0.0
  0
LINE
  5
EF
  8
MyLines
 10
374.80795200283757
 20
165.53125
 30
0.0
 11
373.0172620026105
 21
165.53125
 31
0.0
  0
LINE
  5
F0
  8
MyLines
 10
373.0172620026105
 20
165.53125
 30
0.0
 11
371.2265720023833
 21
165.53125
 31
0.0
  0
LINE
  5
F1
  8
MyLines
 10
371.2265720023833
 20
165.53125
 30
0.0
 11
369.4358820021563
 21
165.53125
 31
0.0
  0
LINE
  5
F2
  8
MyLines
 10
369.4358820021563
 20
165.53125
 30
0.0
 11
367.6451920019291
 21
165.53125
 31
0.0
  0
LINE
  5
F3
  8
MyLines
 10
367.6451920019291
 20
165.53125
 30
0.0
 11
365.854502001702
 21
165.53125
 31
0.0
  0
LINE
  5
F4
  8
MyLines
 10
365.854502001702
 20
165.53125
 30
0.0
 11
364.06381200147484
 21
165.53125
 31
0.0
  0
LINE
  5
F5
  8
MyLines
 10
364.06381200147484
 20
165.53125
 30
0.0
 11
362.2731220012477
 21
165.53125
 31
0.0
  0
LINE
  5
F6
  8
MyLines
 10
362.2731220012477
 20
165.53125
 30
0.0
 11
360.48243200102064
 21
165.53125
 31
0.0
  0
LINE
  5
F7
  8
MyLines
 10
360.48243200102064
 20
165.53125
 30
0.0
 11
358.6917420007935
 21
165.53125
 31
0.0
  0
LINE
  5
F8
  8
MyLines
 10
358.6917420007935
 20
165.53125
 30
0.0
 11
356.9010520005664
 21
165.53125
 31
0.0
  0
LINE
  5
F9
  8
MyLines
 10
356.9010520005664
 20
165.53125
 30
0.0
 11
355.11036200033925
 21
165.53125
 31
0.0
  0
LINE
  5
FA
  8
MyLines
 10
355.11036200033925
 20
165.53125
 30
0.0
 11
355.11036200033925
 21
-153.625
 31
0.0
  0
LINE
  5
FB
  8
MyLines
 10
355.11036200033925
 20
-153.625
 30
0.0
 11
355.11036200033925
 21
-153.625
 31
0.0
  0
LINE
  5
FC
  8
MyLines
 10
355.11036200033925
 20
-153.625
 30
0.0
 11
356.8171189500496
 21
-153.625
 31
0.0
  0
LINE
  5
FD
  8
MyLines
 10
356.8171189500496
 20
-153.625
 30
0.0
 11
358.52387589975984
 21
-153.625
 31
0.0
  0
LINE
  5
FE
  8
MyLines
 10
358.52387589975984
 20
-153.625
 30
0.0
 11
360.2306328494701
 21
-153.625
 31
0.0
  0
LINE
  5
FF
  8
MyLines
 10
360.2306328494701
 20
-153.625
 30
0.0
 11
361.9373897991804
 21
-153.625
 31
0.0
  0
LINE
  5
100
  8
MyLines
 10
361.9373897991804
 20
-153.625
 30
0.0
 11
363.6441467488907
 21
-153.625
 31
0.0
  0
LINE
  5
101
  8
MyLines
 10
363.6441467488907
 20
-153.625
 30
0.0
 11
365.3509036986009
 21
-153.625
 31
0.0
  0
LINE
  5
102
  8
MyLines
 10
365.3509036986009
 20
-153.625
 30
0.0
 11
367.05766064831124
 21
-153.625
 31
0.0
  0
LINE
  5
103
  8
MyLines
 10
367.05766064831124
 20
-153.625
 30
0.0
 11
368.7644175980215
 21
-153.625
 31
0.0
  0
LINE
  5
104
  8
MyLines
 10
368.7644175980215
 20
-153.625
 30
0.0
 11
370.47117454773183
 21
-153.625
 31
0.0
  0
LINE
  5
105
  8
MyLines
 10
370.47117454773183
 20
-153.625
 30
0.0
 11
372.17793149744205
 21
-153.625
 31
0.0
  0
LINE
  5
106
  8
MyLines
 10
372.17793149744205
 20
-153.625
 30
0.0
 11
373.88468844715237
 21
-153.625
 31
0.0
  0
LINE
  5
107
  8
MyLines
 10
373.88468844715237
 20
-153.625
 30
0.0
 11
375.59144539686264
 21
-153.625
 31
0.0
  0
LINE
  5
108
  8
MyLines
 10
375.59144539686264
 20
-153.625
 30
0.0
 11
377.2982023465729
 21
-153.625
 31
0.0
  0
LINE
  5
109
  8
MyLines
 10
377.2982023465729
 20
-153.625
 30
0.0
 11
379.0049592962832
 21
-153.625
 31
0.0
  0
LINE
  5
10A
  8
MyLines
 10
379.0049592962832
 20
-153.625
 30
0.0
 11
380.7117162459935
 21
-153.625
 31
0.0
  0
LINE
  5
10B
  8
MyLines
 10
380.7117162459935
 20
-153.625
 30
0.0
 11
382.4184731957037
 21
-153.625
 31
0.0
  0
LINE
  5
10C
  8
MyLines
 10
382.4184731957037
 20
-153.625
 30
0.0
 11
384.12523014541404
 21
-153.625
 31
0.0
  0
LINE
  5
10D
  8
MyLines
 10
384.12523014541404
 20
-153.625
 30
0.0
 11
385.8319870951243
 21
-153.625
 31
0.0
  0
LINE
  5
10E
  8
MyLines
 10
385.8319870951243
 20
-153.625
 30
0.0
 11
387.5387440448346
 21
-153.625
 31
0.0
  0
LINE
  5
10F
  8
MyLines
 10
387.5387440448346
 20
-153.625
 30
0.0
 11
389.24550099454484
 21
-153.625
 31
0.0
  0
LINE
  5
110
  8
MyLines
 10
389.24550099454484
 20
-153.625
 30
0.0
 11
390.95225794425517
 21
-153.625
 31
0.0
  0
LINE
  5
111
  8
MyLines
 10
390.95225794425517
 20
-153.625
 30
0.0
 11
392.6590148939654
 21
-153.625
 31
0.0
  0
LINE
  5
112
  8
MyLines
 10
392.6590148939654
 20
-153.625
 30
0.0
 11
394.3657718436757
 21
-153.625
 31
0.0
  0
LINE
  5
113
  8
MyLines
 10
394.3657718436757
 20
-153.625
 30
0.0
 11
396.07252879338597
 21
-153.625
 31
0.0
  0
LINE
  5
114
  8
MyLines
 10
396.07252879338597
 20
-153.625
 30
0.0
 11
397.77928574309624
 21
-153.625
 31
0.0
  0
LINE
  5
115
  8
MyLines
 10
397.77928574309624
 20
-153.625
 30
0.0
 11
399.4860426928065
 21
-153.625
 31
0.0
  0
LINE
  5
116
  8
MyLines
 10
399.4860426928065
 20
-153.625
 30
0.0
 11
401.19279964251683
 21
-153.625
 31
0.0
  0
LINE
  5
117
  8
MyLines
 10
401.19279964251683
 20
-153.625
 30
0.0
 11
402.8995565922271
 21
-153.625
 31
0.0
  0
LINE
  5
118
  8
MyLines
 10
402.8995565922271
 20
-153.625
 30
0.0
 11
404.60631354193737
 21
-153.625
 31
0.0
  0
LINE
  5
119
  8
MyLines
 10
404.60631354193737
 20
-153.625
 30
0.0
 11
406.31307049164764
 21
-153.625
 31
0.0
  0
LINE
  5
11A
  8
MyLines
 10
406.31307049164764
 20
-153.625
 30
0.0
 11
408.01982744135796
 21
-153.625
 31
0.0
  0
LINE
  5
11B
  8
MyLines
 10
408.01982744135796
 20
-153.625
 30
0.0
 11
409.7265843910682
 21
-153.625
 31
0.0
  0
LINE
  5
11C
  8
MyLines
 10
409.7265843910682
 20
-153.625
 30
0.0
 11
411.4333413407785
 21
-153.625
 31
0.0
  0
LINE
  5
11D
  8
MyLines
 10
411.4333413407785
 20
-153.625
 30
0.0
 11
413.14009829048877
 21
-153.625
 31
0.0
  0
LINE
  5
11E
  8
MyLines
 10
413.14009829048877
 20
-153.625
 30
0.0
 11
414.84685524019903
 21
-153.625
 31
0.0
  0
LINE
  5
11F
  8
MyLines
 10
414.84685524019903
 20
-153.625
 30
0.0
 11
416.5536121899093
 21
-153.625
 31
0.0
  0
LINE
  5
120
  8
MyLines
 10
416.5536121899093
 20
-153.625
 30
0.0
 11
418.2603691396196
 21
-153.625
 31
0.0
  0
LINE
  5
121
  8
MyLines
 10
418.2603691396196
 20
-153.625
 30
0.0
 11
419.96712608932984
 21
-153.625
 31
0.0
  0
LINE
  5
122
  8
MyLines
 10
419.96712608932984
 20
-153.625
 30
0.0
 11
421.67388303904016
 21
-153.625
 31
0.0
  0
LINE
  5
123
  8
MyLines
 10
421.67388303904016
 20
-153.625
 30
0.0
 11
423.3806399887505
 21
-153.625
 31
0.0
  0
LINE
  5
124
  8
MyLines
 10
423.3806399887505
 20
-153.625
 30
0.0
 11
425.0873969384607
 21
-153.625
 31
0.0
  0
LINE
  5
125
  8
MyLines
 10
425.0873969384607
 20
-153.625
 30
0.0
 11
426.79415388817097
 21
-153.625
 31
0.0
  0
LINE
  5
126
  8
MyLines
 10
426.79415388817097
 20
-153.625
 30
0.0
 11
428.5009108378813
 21
-153.625
 31
0.0
  0
LINE
  5
127
  8
MyLines
 10
428.5009108378813
 20
-153.625
 30
0.0
 11
430.20766778759156
 21
-153.625
 31
0.0
  0
LINE
  5
128
  8
MyLines
 10
430.20766778759156
 20
-153.625
 30
0.0
 11
431.91442473730183
 21
-153.625
 31
0.0
  0
LINE
  5
129
  8
MyLines
 10
431.91442473730183
 20
-153.625
 30
0.0
 11
433.6211816870121
 21
-153.625
 31
0.0
  0
LINE
  5
12A
  8
MyLines
 10
433.6211816870121
 20
-153.625
 30
0.0
 11
435.32793863672237
 21
-153.625
 31
0.0
  0
LINE
  5
12B
  8
MyLines
 10
435.32793863672237
 20
-153.625
 30
0.0
 11
437.0346955864327
 21
-153.625
 31
0.0
  0
LINE
  5
12C
  8
MyLines
 10
437.0346955864327
 20
-153.625
 30
0.0
 11
438.74145253614296
 21
-153.625
 31
0.0
  0
LINE
  5
12D
  8
MyLines
 10
438.74145253614296
 20
-153.625
 30
0.0
 11
438.74145253614296
 21
-153.625
 31
0.0
  0
LINE
  5
12E
  8
MyLines
 10
438.74145253614296
 20
-153.625
 30
0.0
 11
438.74145253614296
 21
161.5625
 31
0.0
  0
LINE
  5
12F
  8
MyLines
 10
438.74145253614296
 20
161.5625
 30
0.0
 11
438.74145253614296
 21
161.5625
 31
0.0
  0
LINE
  5
130
  8
MyLines
 10
438.74145253614296
 20
161.5625
 30
0.0
 11
437.1186286369495
 21
161.5625
 31
0.0
  0
LINE
  5
131
  8
MyLines
 10
437.1186286369495
 20
161.5625
 30
0.0
 11
435.4958047377561
 21
161.5625
 31
0.0
  0
LINE
  5
132
  8
MyLines
 10
435.4958047377561
 20
161.5625
 30
0.0
 11
433.8729808385626
 21
161.5625
 31
0.0
  0
LINE
  5
133
  8
MyLines
 10
433.8729808385626
 20
161.5625
 30
0.0
 11
432.25015693936916
 21
161.5625
 31
0.0
  0
LINE
  5
134
  8
MyLines
 10
432.25015693936916
 20
161.5625
 30
0.0
 11
430.62733304017576
 21
161.5625
 31
0.0
  0
LINE
  5
135
  8
MyLines
 10
430.62733304017576
 20
161.5625
 30
0.0
 11
429.0045091409823
 21
161.5625
 31
0.0
  0
LINE
  5
136
  8
MyLines
 10
429.0045091409823
 20
161.5625
 30
0.0
 11
427.3816852417889
 21
161.5625
 31
0.0
  0
LINE
  5
137
  8
MyLines
 10
427.3816852417889
 20
161.5625
 30
0.0
 11
425.7588613425954
 21
161.5625
 31
0.0
  0
LINE
  5
138
  8
MyLines
 10
425.7588613425954
 20
161.5625
 30
0.0
 11
424.136037443402
 21
161.5625
 31
0.0
  0
LINE
  5
139
  8
MyLines
 10
424.136037443402
 20
161.5625
 30
0.0
 11
422.51321354420855
 21
161.5625
 31
0.0
  0
LINE
  5
13A
  8
MyLines
 10
422.51321354420855
 20
161.5625
 30
0.0
 11
420.8903896450151
 21
161.5625
 31
0.0
  0
LINE
  5
13B
  8
MyLines
 10
420.8903896450151
 20
161.5625
 30
0.0
 11
419.2675657458217
 21
161.5625
 31
0.0
  0
LINE
  5
13C
  8
MyLines
 10
419.2675657458217
 20
161.5625
 30
0.0
 11
417.6447418466282
 21
161.5625
 31
0.0
  0
LINE
  5
13D
  8
MyLines
 10
417.6447418466282
 20
161.5625
 30
0.0
 11
416.0219179474349
 21
161.5625
 31
0.0
  0
LINE
  5
13E
  8
MyLines
 10
416.0219179474349
 20
161.5625
 30
0.0
 11
414.3990940482414
 21
161.5625
 31
0.0
  0
LINE
  5
13F
  8
MyLines
 10
414.3990940482414
 20
161.5625
 30
0.0
 11
412.77627014904795
 21
161.5625
 31
0.0
  0
LINE
  5
140
  8
MyLines
 10
412.77627014904795
 20
161.5625
 30
0.0
 11
411.15344624985454
 21
161.5625
 31
0.0
  0
LINE
  5
141
  8
MyLines
 10
411.15344624985454
 20
161.5625
 30
0.0
 11
409.5306223506611
 21
161.5625
 31
0.0
  0
LINE
  5
142
  8
MyLines
 10
409.5306223506611
 20
161.5625
 30
0.0
 11
407.90779845146767
 21
161.5625
 31
0.0
  0
LINE
  5
143
  8
MyLines
 10
407.90779845146767
 20
161.5625
 30
0.0
 11
406.2849745522742
 21
161.5625
 31
0.0
  0
LINE
  5
144
  8
MyLines
 10
406.2849745522742
 20
161.5625
 30
0.0
 11
404.66215065308074
 21
161.5625
 31
0.0
  0
LINE
  5
145
  8
MyLines
 10
404.66215065308074
 20
161.5625
 30
0.0
 11
403.03932675388734
 21
161.5625
 31
0.0
  0
LINE
  5
146
  8
MyLines
 10
403.03932675388734
 20
161.5625
 30
0.0
 11
401.4165028546939
 21
161.5625
 31
0.0
  0
LINE
  5
147
  8
MyLines
 10
401.4165028546939
 20
161.5625
 30
0.0
 11
399.79367895550047
 21
161.5625
 31
0.0
  0
LINE
  5
148
  8
MyLines
 10
399.79367895550047
 20
161.5625
 30
0.0
 11
398.170855056307
 21
161.5625
 31
0.0
  0
LINE
  5
149
  8
MyLines
 10
398.170855056307
 20
161.5625
 30
0.0
 11
396.54803115711354
 21
161.5625
 31
0.0
  0
LINE
  5
14A
  8
MyLines
 10
396.54803115711354
 20
161.5625
 30
0.0
 11
394.92520725792014
 21
161.5625
 31
0.0
  0
LINE
  5
14B
  8
MyLines
 10
394.92520725792014
 20
161.5625
 30
0.0
 11
393.3023833587267
 21
161.5625
 31
0.0
  0
LINE
  5
14C
  8
MyLines
 10
393.3023833587267
 20
161.5625
 30
0.0
 11
391.67955945953327
 21
161.5625
 31
0.0
  0
LINE
  5
14D
  8
MyLines
 10
391.67955945953327
 20
161.5625
 30
0.0
 11
390.0567355603398
 21
161.5625
 31
0.0
  0
LINE
  5
14E
  8
MyLines
 10
390.0567355603398
 20
161.5625
 30
0.0
 11
388.43391166114634
 21
161.5625
 31
0.0
  0
LINE
  5
14F
  8
MyLines
 10
388.43391166114634
 20
161.5625
 30
0.0
 11
386.81108776195293
 21
161.5625
 31
0.0
  0
LINE
  5
150
  8
MyLines
 10
386.81108776195293
 20
161.5625
 30
0.0
 11
385.18826386275947
 21
161.5625
 31
0.0
  0
LINE
  5
151
  8
MyLines
 10
385.18826386275947
 20
161.5625
 30
0.0
 11
383.56543996356606
 21
161.5625
 31
0.0
  0
LINE
  5
152
  8
MyLines
 10
383.56543996356606
 20
161.5625
 30
0.0
 11
381.9426160643726
 21
161.5625
 31
0.0
  0
LINE
  5
153
  8
MyLines
 10
381.9426160643726
 20
161.5625
 30
0.0
 11
380.31979216517914
 21
161.5625
 31
0.0
  0
LINE
  5
154
  8
MyLines
 10
380.31979216517914
 20
161.5625
 30
0.0
 11
378.6969682659858
 21
161.5625
 31
0.0
  0
LINE
  5
155
  8
MyLines
 10
378.6969682659858
 20
161.5625
 30
0.0
 11
377.0741443667923
 21
161.5625
 31
0.0
  0
LINE
  5
156
  8
MyLines
 10
377.0741443667923
 20
161.5625
 30
0.0
 11
375.4513204675989
 21
161.5625
 31
0.0
  0
LINE
  5
157
  8
MyLines
 10
375.4513204675989
 20
161.5625
 30
0.0
 11
373.82849656840546
 21
161.5625
 31
0.0
  0
LINE
  5
158
  8
MyLines
 10
373.82849656840546
 20
161.5625
 30
0.0
 11
372.20567266921205
 21
161.5625
 31
0.0
  0
LINE
  5
159
  8
MyLines
 10
372.20567266921205
 20
161.5625
 30
0.0
 11
370.5828487700186
 21
161.5625
 31
0.0
  0
LINE
  5
15A
  8
MyLines
 10
370.5828487700186
 20
161.5625
 30
0.0
 11
368.9600248708251
 21
161.5625
 31
0.0
  0
LINE
  5
15B
  8
MyLines
 10
368.9600248708251
 20
161.5625
 30
0.0
 11
367.3372009716317
 21
161.5625
 31
0.0
  0
LINE
  5
15C
  8
MyLines
 10
367.3372009716317
 20
161.5625
 30
0.0
 11
365.71437707243825
 21
161.5625
 31
0.0
  0
LINE
  5
15D
  8
MyLines
 10
365.71437707243825
 20
161.5625
 30
0.0
 11
364.09155317324485
 21
161.5625
 31
0.0
  0
LINE
  5
15E
  8
MyLines
 10
364.09155317324485
 20
161.5625
 30
0.0
 11
362.4687292740514
 21
161.5625
 31
0.0
  0
LINE
  5
15F
  8
MyLines
 10
362.4687292740514
 20
161.5625
 30
0.0
 11
360.8459053748579
 21
161.5625
 31
0.0
  0
LINE
  5
160
  8
MyLines
 10
360.8459053748579
 20
161.5625
 30
0.0
 11
359.2230814756645
 21
161.5625
 31
0.0
  0
LINE
  5
161
  8
MyLines
 10
359.2230814756645
 20
161.5625
 30
0.0
 11
359.2230814756645
 21
-149.65625
 31
0.0
  0
LINE
  5
162
  8
MyLines
 10
359.2230814756645
 20
-149.65625
 30
0.0
 11
359.2230814756645
 21
-149.65625
 31
0.0
  0
LINE
  5
163
  8
MyLines
 10
359.2230814756645
 20
-149.65625
 30
0.0
 11
360.7581333031795
 21
-149.65625
 31
0.0
  0
LINE
  5
164
  8
MyLines
 10
360.7581333031795
 20
-149.65625
 30
0.0
 11
362.29318513069455
 21
-149.65625
 31
0.0
  0
LINE
  5
165
  8
MyLines
 10
362.29318513069455
 20
-149.65625
 30
0.0
 11
363.8282369582095
 21
-149.65625
 31
0.0
  0
LINE
  5
166
  8
MyLines
 10
363.8282369582095
 20
-149.65625
 30
0.0
 11
365.3632887857246
 21
-149.65625
 31
0.0
  0
LINE
  5
167
  8
MyLines
 10
365.3632887857246
 20
-149.65625
 30
0.0
 11
366.89834061323955
 21
-149.65625
 31
0.0
  0
LINE
  5
168
  8
MyLines
 10
366.89834061323955
 20
-149.65625
 30
0.0
 11
368.43339244075463
 21
-149.65625
 31
0.0
  0
LINE
  5
169
  8
MyLines
 10
368.43339244075463
 20
-149.65625
 30
0.0
 11
369.9684442682696
 21
-149.65625
 31
0.0
  0
LINE
  5
16A
  8
MyLines
 10
369.9684442682696
 20
-149.65625
 30
0.0
 11
371.50349609578467
 21
-149.65625
 31
0.0
  0
LINE
  5
16B
  8
MyLines
 10
371.50349609578467
 20
-149.65625
 30
0.0
 11
373.03854792329963
 21
-149.65625
 31
0.0
  0
LINE
  5
16C
  8
MyLines
 10
373.03854792329963
 20
-149.65625
 30
0.0
 11
374.5735997508147
 21
-149.65625
 31
0.0
  0
LINE
  5
16D
  8
MyLines
 10
374.5735997508147
 20
-149.65625
 30
0.0
 11
376.10865157832967
 21
-149.65625
 31
0.0
  0
LINE
  5
16E
  8
MyLines
 10
376.10865157832967
 20
-149.65625
 30
0.0
 11
377.64370340584475
 21
-149.65625
 31
0.0
  0
LINE
  5
16F
  8
MyLines
 10
377.64370340584475
 20
-149.65625
 30
0.0
 11
379.1787552333597
 21
-149.65625
 31
0.0
  0
LINE
  5
170
  8
MyLines
 10
379.1787552333597
 20
-149.65625
 30
0.0
 11
380.7138070608748
 21
-149.65625
 31
0.0
  0
LINE
  5
171
  8
MyLines
 10
380.7138070608748
 20
-149.65625
 30
0.0
 11
382.24885888838975
 21
-149.65625
 31
0.0
  0
LINE
  5
172
  8
MyLines
 10
382.24885888838975
 20
-149.65625
 30
0.0
 11
383.7839107159048
 21
-149.65625
 31
0.0
  0
LINE
  5
173
  8
MyLines
 10
383.7839107159048
 20
-149.65625
 30
0.0
 11
385.3189625434198
 21
-149.65625
 31
0.0
  0
LINE
  5
174
  8
MyLines
 10
385.3189625434198
 20
-149.65625
 30
0.0
 11
386.85401437093486
 21
-149.65625
 31
0.0
  0
LINE
  5
175
  8
MyLines
 10
386.85401437093486
 20
-149.65625
 30
0.0
 11
388.3890661984498
 21
-149.65625
 31
0.0
  0
LINE
  5
176
  8
MyLines
 10
388.3890661984498
 20
-149.65625
 30
0.0
 11
389.9241180259649
 21
-149.65625
 31
0.0
  0
LINE
  5
177
  8
MyLines
 10
389.9241180259649
 20
-149.65625
 30
0.0
 11
391.4591698534799
 21
-149.65625
 31
0.0
  0
LINE
  5
178
  8
MyLines
 10
391.4591698534799
 20
-149.65625
 30
0.0
 11
392.99422168099494
 21
-149.65625
 31
0.0
  0
LINE
  5
179
  8
MyLines
 10
392.99422168099494
 20
-149.65625
 30
0.0
 11
394.52927350850996
 21
-149.65625
 31
0.0
  0
LINE
  5
17A
  8
MyLines
 10
394.52927350850996
 20
-149.65625
 30
0.0
 11
396.064325336025
 21
-149.65625
 31
0.0
  0
LINE
  5
17B
  8
MyLines
 10
396.064325336025
 20
-149.65625
 30
0.0
 11
397.59937716354
 21
-149.65625
 31
0.0
  0
LINE
  5
17C
  8
MyLines
 10
397.59937716354
 20
-149.65625
 30
0.0
 11
399.134428991055
 21
-149.65625
 31
0.0
  0
LINE
  5
17D
  8
MyLines
 10
399.134428991055
 20
-149.65625
 30
0.0
 11
400.66948081857004
 21
-149.65625
 31
0.0
  0
LINE
  5
17E
  8
MyLines
 10
400.66948081857004
 20
-149.65625
 30
0.0
 11
402.20453264608506
 21
-149.65625
 31
0.0
  0
LINE
  5
17F
  8
MyLines
 10
402.20453264608506
 20
-149.65625
 30
0.0
 11
403.7395844736001
 21
-149.65625
 31
0.0
  0
LINE
  5
180
  8
MyLines
 10
403.7395844736001
 20
-149.65625
 30
0.0
 11
405.2746363011151
 21
-149.65625
 31
0.0
  0
LINE
  5
181
  8
MyLines
 10
405.2746363011151
 20
-149.65625
 30
0.0
 11
406.8096881286301
 21
-149.65625
 31
0.0
  0
LINE
  5
182
  8
MyLines
 10
406.8096881286301
 20
-149.65625
 30
0.0
 11
408.34473995614513
 21
-149.65625
 31
0.0
  0
LINE
  5
183
  8
MyLines
 10
408.34473995614513
 20
-149.65625
 30
0.0
 11
409.87979178366015
 21
-149.65625
 31
0.0
  0
LINE
  5
184
  8
MyLines
 10
409.87979178366015
 20
-149.65625
 30
0.0
 11
411.4148436111752
 21
-149.65625
 31
0.0
  0
LINE
  5
185
  8
MyLines
 10
411.4148436111752
 20
-149.65625
 30
0.0
 11
412.9498954386902
 21
-149.65625
 31
0.0
  0
LINE
  5
186
  8
MyLines
 10
412.9498954386902
 20
-149.65625
 30
0.0
 11
414.4849472662052
 21
-149.65625
 31
0.0
  0
LINE
  5
187
  8
MyLines
 10
414.4849472662052
 20
-149.65625
 30
0.0
 11
416.01999909372023
 21
-149.65625
 31
0.0
  0
LINE
  5
188
  8
MyLines
 10
416.01999909372023
 20
-149.65625
 30
0.0
 11
417.5550509212352
 21
-149.65625
 31
0.0
  0
LINE
  5
189
  8
MyLines
 10
417.5550509212352
 20
-149.65625
 30
0.0
 11
419.09010274875027
 21
-149.65625
 31
0.0
  0
LINE
  5
18A
  8
MyLines
 10
419.09010274875027
 20
-149.65625
 30
0.0
 11
420.6251545762653
 21
-149.65625
 31
0.0
  0
LINE
  5
18B
  8
MyLines
 10
420.6251545762653
 20
-149.65625
 30
0.0
 11
422.1602064037803
 21
-149.65625
 31
0.0
  0
LINE
  5
18C
  8
MyLines
 10
422.1602064037803
 20
-149.65625
 30
0.0
 11
423.69525823129527
 21
-149.65625
 31
0.0
  0
LINE
  5
18D
  8
MyLines
 10
423.69525823129527
 20
-149.65625
 30
0.0
 11
425.23031005881035
 21
-149.65625
 31
0.0
  0
LINE
  5
18E
  8
MyLines
 10
425.23031005881035
 20
-149.65625
 30
0.0
 11
426.76536188632537
 21
-149.65625
 31
0.0
  0
LINE
  5
18F
  8
MyLines
 10
426.76536188632537
 20
-149.65625
 30
0.0
 11
428.3004137138404
 21
-149.65625
 31
0.0
  0
LINE
  5
190
  8
MyLines
 10
428.3004137138404
 20
-149.65625
 30
0.0
 11
429.83546554135535
 21
-149.65625
 31
0.0
  0
LINE
  5
191
  8
MyLines
 10
429.83546554135535
 20
-149.65625
 30
0.0
 11
431.3705173688704
 21
-149.65625
 31
0.0
  0
LINE
  5
192
  8
MyLines
 10
431.3705173688704
 20
-149.65625
 30
0.0
 11
432.90556919638544
 21
-149.65625
 31
0.0
  0
LINE
  5
193
  8
MyLines
 10
432.90556919638544
 20
-149.65625
 30
0.0
 11
434.44062102390046
 21
-149.65625
 31
0.0
  0
LINE
  5
194
  8
MyLines
 10
434.44062102390046
 20
-149.65625
 30
0.0
 11
434.44062102390046
 21
-149.65625
 31
0.0
  0
LINE
  5
195
  8
MyLines
 10
434.44062102390046
 20
-149.65625
 30
0.0
 11
434.44062102390046
 21
157.59375
 31
0.0
  0
LINE
  5
196
  8
MyLines
 10
434.44062102390046
 20
157.59375
 30
0.0
 11
434.44062102390046
 21
157.59375
 31
0.0
  0
LINE
  5
197
  8
MyLines
 10
434.44062102390046
 20
157.59375
 30
0.0
 11
432.99334126806383
 21
157.59375
 31
0.0
  0
LINE
  5
198
  8
MyLines
 10
432.99334126806383
 20
157.59375
 30
0.0
 11
431.54606151222725
 21
157.59375
 31
0.0
  0
LINE
  5
199
  8
MyLines
 10
431.54606151222725
 20
157.59375
 30
0.0
 11
430.0987817563907
 21
157.59375
 31
0.0
  0
LINE
  5
19A
  8
MyLines
 10
430.0987817563907
 20
157.59375
 30
0.0
 11
428.65150200055405
 21
157.59375
 31
0.0
  0
LINE
  5
19B
  8
MyLines
 10
428.65150200055405
 20
157.59375
 30
0.0
 11
427.20422224471747
 21
157.59375
 31
0.0
  0
LINE
  5
19C
  8
MyLines
 10
427.20422224471747
 20
157.59375
 30
0.0
 11
425.75694248888084
 21
157.59375
 31
0.0
  0
LINE
  5
19D
  8
MyLines
 10
425.75694248888084
 20
157.59375
 30
0.0
 11
424.30966273304426
 21
157.59375
 31
0.0
  0
LINE
  5
19E
  8
MyLines
 10
424.30966273304426
 20
157.59375
 30
0.0
 11
422.86238297720763
 21
157.59375
 31
0.0
  0
LINE
  5
19F
  8
MyLines
 10
422.86238297720763
 20
157.59375
 30
0.0
 11
421.41510322137106
 21
157.59375
 31
0.0
  0
LINE
  5
1A0
  8
MyLines
 10
421.41510322137106
 20
157.59375
 30
0.0
 11
419.9678234655345
 21
157.59375
 31
0.0
  0
LINE
  5
1A1
  8
MyLines
 10
419.9678234655345
 20
157.59375
 30
0.0
 11
418.52054370969785
 21
157.59375
 31
0.0
  0
LINE
  5
1A2
  8
MyLines
 10
418.52054370969785
 20
157.59375
 30
0.0
 11
417.0732639538613
 21
157.59375
 31
0.0
  0
LINE
  5
1A3
  8
MyLines
 10
417.0732639538613
 20
157.59375
 30
0.0
 11
415.62598419802464
 21
157.59375
 31
0.0
  0
LINE
  5
1A4
  8
MyLines
 10
415.62598419802464
 20
157.59375
 30
0.0
 11
414.17870444218806
 21
157.59375
 31
0.0
  0
LINE
  5
1A5
  8
MyLines
 10
414.17870444218806
 20
157.59375
 30
0.0
 11
412.73142468635143
 21
157.59375
 31
0.0
  0
LINE
  5
1A6
  8
MyLines
 10
412.73142468635143
 20
157.59375
 30
0.0
 11
411.28414493051486
 21
157.59375
 31
0.0
  0
LINE
  5
1A7
  8
MyLines
 10
411.28414493051486
 20
157.59375
 30
0.0
 11
409.8368651746783
 21
157.59375
 31
0.0
  0
LINE
  5
1A8
  8
MyLines
 10
409.8368651746783
 20
157.59375
 30
0.0
 11
408.38958541884165
 21
157.59375
 31
0.0
  0
LINE
  5
1A9
  8
MyLines
 10
408.38958541884165
 20
157.59375
 30
0.0
 11
406.9423056630051
 21
157.59375
 31
0.0
  0
LINE
  5
1AA
  8
MyLines
 10
406.9423056630051
 20
157.59375
 30
0.0
 11
405.49502590716844
 21
157.59375
 31
0.0
  0
LINE
  5
1AB
  8
MyLines
 10
405.49502590716844
 20
157.59375
 30
0.0
 11
404.04774615133186
 21
157.59375
 31
0.0
  0
LINE
  5
1AC
  8
MyLines
 10
404.04774615133186
 20
157.59375
 30
0.0
 11
402.60046639549523
 21
157.59375
 31
0.0
  0
LINE
  5
1AD
  8
MyLines
 10
402.60046639549523
 20
157.59375
 30
0.0
 11
401.1531866396586
 21
157.59375
 31
0.0
  0
LINE
  5
1AE
  8
MyLines
 10
401.1531866396586
 20
157.59375
 30
0.0
 11
399.7059068838221
 21
157.59375
 31
0.0
  0
LINE
  5
1AF
  8
MyLines
 10
399.7059068838221
 20
157.59375
 30
0.0
 11
398.2586271279854
 21
157.59375
 31
0.0
  0
LINE
  5
1B0
  8
MyLines
 10
398.2586271279854
 20
157.59375
 30
0.0
 11
396.8113473721489
 21
157.59375
 31
0.0
  0
LINE
  5
1B1
  8
MyLines
 10
396.8113473721489
 20
157.59375
 30
0.0
 11
395.3640676163122
 21
157.59375
 31
0.0
  0
LINE
  5
1B2
  8
MyLines
 10
395.3640676163122
 20
157.59375
 30
0.0
 11
393.91678786047567
 21
157.59375
 31
0.0
  0
LINE
  5
1B3
  8
MyLines
 10
393.91678786047567
 20
157.59375
 30
0.0
 11
392.469508104639
 21
157.59375
 31
0.0
  0
LINE
  5
1B4
  8
MyLines
 10
392.469508104639
 20
157.59375
 30
0.0
 11
391.0222283488024
 21
157.59375
 31
0.0
  0
LINE
  5
1B5
  8
MyLines
 10
391.0222283488024
 20
157.59375
 30
0.0
 11
389.5749485929658
 21
157.59375
 31
0.0
  0
LINE
  5
1B6
  8
MyLines
 10
389.5749485929658
 20
157.59375
 30
0.0
 11
388.1276688371292
 21
157.59375
 31
0.0
  0
LINE
  5
1B7
  8
MyLines
 10
388.1276688371292
 20
157.59375
 30
0.0
 11
386.6803890812926
 21
157.59375
 31
0.0
  0
LINE
  5
1B8
  8
MyLines
 10
386.6803890812926
 20
157.59375
 30
0.0
 11
385.233109325456
 21
157.59375
 31
0.0
  0
LINE
  5
1B9
  8
MyLines
 10
385.233109325456
 20
157.59375
 30
0.0
 11
383.7858295696194
 21
157.59375
 31
0.0
  0
LINE
  5
1BA
  8
MyLines
 10
383.7858295696194
 20
157.59375
 30
0.0
 11
382.3385498137828
 21
157.59375
 31
0.0
  0
LINE
  5
1BB
  8
MyLines
 10
382.3385498137828
 20
157.59375
 30
0.0
 11
380.8912700579462
 21
157.59375
 31
0.0
  0
LINE
  5
1BC
  8
MyLines
 10
380.8912700579462
 20
157.59375
 30
0.0
 11
379.4439903021096
 21
157.59375
 31
0.0
  0
LINE
  5
1BD
  8
MyLines
 10
379.4439903021096
 20
157.59375
 30
0.0
 11
377.996710546273
 21
157.59375
 31
0.0
  0
LINE
  5
1BE
  8
MyLines
 10
377.996710546273
 20
157.59375
 30
0.0
 11
376.5494307904364
 21
157.59375
 31
0.0
  0
LINE
  5
1BF
  8
MyLines
 10
376.5494307904364
 20
157.59375
 30
0.0
 11
375.1021510345998
 21
157.59375
 31
0.0
  0
LINE
  5
1C0
  8
MyLines
 10
375.1021510345998
 20
157.59375
 30
0.0
 11
373.6548712787632
 21
157.59375
 31
0.0
  0
LINE
  5
1C1
  8
MyLines
 10
373.6548712787632
 20
157.59375
 30
0.0
 11
372.2075915229266
 21
157.59375
 31
0.0
  0
LINE
  5
1C2
  8
MyLines
 10
372.2075915229266
 20
157.59375
 30
0.0
 11
370.76031176709
 21
157.59375
 31
0.0
  0
LINE
  5
1C3
  8
MyLines
 10
370.76031176709
 20
157.59375
 30
0.0
 11
369.3130320112534
 21
157.59375
 31
0.0
  0
LINE
  5
1C4
  8
MyLines
 10
369.3130320112534
 20
157.59375
 30
0.0
 11
367.8657522554168
 21
157.59375
 31
0.0
  0
LINE
  5
1C5
  8
MyLines
 10
367.8657522554168
 20
157.59375
 30
0.0
 11
366.4184724995802
 21
157.59375
 31
0.0
  0
LINE
  5
1C6
  8
MyLines
 10
366.4184724995802
 20
157.59375
 30
0.0
 11
364.9711927437436
 21
157.59375
 31
0.0
  0
LINE
  5
1C7
  8
MyLines
 10
364.9711927437436
 20
157.59375
 30
0.0
 11
363.523912987907
 21
157.59375
 31
0.0
  0
LINE
  5
1C8
  8
MyLines
 10
363.523912987907
 20
157.59375
 30
0.0
 11
363.523912987907
 21
-145.6875
 31
0.0
  0
LINE
  5
1C9
  8
MyLines
 10
363.523912987907
 20
-145.6875
 30
0.0
 11
363.523912987907
 21
-145.6875
 31
0.0
  0
LINE
  5
1CA
  8
MyLines
 10
363.523912987907
 20
-145.6875
 30
0.0
 11
364.877000615371
 21
-145.6875
 31
0.0
  0
LINE
  5
1CB
  8
MyLines
 10
364.877000615371
 20
-145.6875
 30
0.0
 11
366.23008824283505
 21
-145.6875
 31
0.0
  0
LINE
  5
1CC
  8
MyLines
 10
366.23008824283505
 20
-145.6875
 30
0.0
 11
367.58317587029904
 21
-145.6875
 31
0.0
  0
LINE
  5
1CD
  8
MyLines
 10
367.58317587029904
 20
-145.6875
 30
0.0
 11
368.936263497763
 21
-145.6875
 31
0.0
  0
LINE
  5
1CE
  8
MyLines
 10
368.936263497763
 20
-145.6875
 30
0.0
 11
370.28935112522703
 21
-145.6875
 31
0.0
  0
LINE
  5
1CF
  8
MyLines
 10
370.28935112522703
 20
-145.6875
 30
0.0
 11
371.642438752691
 21
-145.6875
 31
0.0
  0
LINE
  5
1D0
  8
MyLines
 10
371.642438752691
 20
-145.6875
 30
0.0
 11
372.99552638015507
 21
-145.6875
 31
0.0
  0
LINE
  5
1D1
  8
MyLines
 10
372.99552638015507
 20
-145.6875
 30
0.0
 11
374.34861400761906
 21
-145.6875
 31
0.0
  0
LINE
  5
1D2
  8
MyLines
 10
374.34861400761906
 20
-145.6875
 30
0.0
 11
375.70170163508305
 21
-145.6875
 31
0.0
  0
LINE
  5
1D3
  8
MyLines
 10
375.70170163508305
 20
-145.6875
 30
0.0
 11
377.05478926254705
 21
-145.6875
 31
0.0
  0
LINE
  5
1D4
  8
MyLines
 10
377.05478926254705
 20
-145.6875
 30
0.0
 11
378.40787689001104
 21
-145.6875
 31
0.0
  0
LINE
  5
1D5
  8
MyLines
 10
378.40787689001104
 20
-145.6875
 30
0.0
 11
379.7609645174751
 21
-145.6875
 31
0.0
  0
LINE
  5
1D6
  8
MyLines
 10
379.7609645174751
 20
-145.6875
 30
0.0
 11
381.1140521449391
 21
-145.6875
 31
0.0
  0
LINE
  5
1D7
  8
MyLines
 10
381.1140521449391
 20
-145.6875
 30
0.0
 11
382.4671397724031
 21
-145.6875
 31
0.0
  0
LINE
  5
1D8
  8
MyLines
 10
382.4671397724031
 20
-145.6875
 30
0.0
 11
383.8202273998671
 21
-145.6875
 31
0.0
  0
LINE
  5
1D9
  8
MyLines
 10
383.8202273998671
 20
-145.6875
 30
0.0
 11
385.17331502733106
 21
-145.6875
 31
0.0
  0
LINE
  5
1DA
  8
MyLines
 10
385.17331502733106
 20
-145.6875
 30
0.0
 11
386.5264026547951
 21
-145.6875
 31
0.0
  0
LINE
  5
1DB
  8
MyLines
 10
386.5264026547951
 20
-145.6875
 30
0.0
 11
387.8794902822591
 21
-145.6875
 31
0.0
  0
LINE
  5
1DC
  8
MyLines
 10
387.8794902822591
 20
-145.6875
 30
0.0
 11
389.23257790972315
 21
-145.6875
 31
0.0
  0
LINE
  5
1DD
  8
MyLines
 10
389.23257790972315
 20
-145.6875
 30
0.0
 11
390.58566553718714
 21
-145.6875
 31
0.0
  0
LINE
  5
1DE
  8
MyLines
 10
390.58566553718714
 20
-145.6875
 30
0.0
 11
391.93875316465113
 21
-145.6875
 31
0.0
  0
LINE
  5
1DF
  8
MyLines
 10
391.93875316465113
 20
-145.6875
 30
0.0
 11
393.2918407921151
 21
-145.6875
 31
0.0
  0
LINE
  5
1E0
  8
MyLines
 10
393.2918407921151
 20
-145.6875
 30
0.0
 11
394.6449284195791
 21
-145.6875
 31
0.0
  0
LINE
  5
1E1
  8
MyLines
 10
394.6449284195791
 20
-145.6875
 30
0.0
 11
395.99801604704317
 21
-145.6875
 31
0.0
  0
LINE
  5
1E2
  8
MyLines
 10
395.99801604704317
 20
-145.6875
 30
0.0
 11
397.35110367450716
 21
-145.6875
 31
0.0
  0
LINE
  5
1E3
  8
MyLines
 10
397.35110367450716
 20
-145.6875
 30
0.0
 11
398.70419130197115
 21
-145.6875
 31
0.0
  0
LINE
  5
1E4
  8
MyLines
 10
398.70419130197115
 20
-145.6875
 30
0.0
 11
400.0572789294352
 21
-145.6875
 31
0.0
  0
LINE
  5
1E5
  8
MyLines
 10
400.0572789294352
 20
-145.6875
 30
0.0
 11
401.41036655689913
 21
-145.6875
 31
0.0
  0
LINE
  5
1E6
  8
MyLines
 10
401.41036655689913
 20
-145.6875
 30
0.0
 11
402.7634541843632
 21
-145.6875
 31
0.0
  0
LINE
  5
1E7
  8
MyLines
 10
402.7634541843632
 20
-145.6875
 30
0.0
 11
404.1165418118272
 21
-145.6875
 31
0.0
  0
LINE
  5
1E8
  8
MyLines
 10
404.1165418118272
 20
-145.6875
 30
0.0
 11
405.46962943929117
 21
-145.6875
 31
0.0
  0
LINE
  5
1E9
  8
MyLines
 10
405.46962943929117
 20
-145.6875
 30
0.0
 11
406.8227170667552
 21
-145.6875
 31
0.0
  0
LINE
  5
1EA
  8
MyLines
 10
406.8227170667552
 20
-145.6875
 30
0.0
 11
408.1758046942192
 21
-145.6875
 31
0.0
  0
LINE
  5
1EB
  8
MyLines
 10
408.1758046942192
 20
-145.6875
 30
0.0
 11
409.5288923216832
 21
-145.6875
 31
0.0
  0
LINE
  5
1EC
  8
MyLines
 10
409.5288923216832
 20
-145.6875
 30
0.0
 11
410.8819799491472
 21
-145.6875
 31
0.0
  0
LINE
  5
1ED
  8
MyLines
 10
410.8819799491472
 20
-145.6875
 30
0.0
 11
412.2350675766112
 21
-145.6875
 31
0.0
  0
LINE
  5
1EE
  8
MyLines
 10
412.2350675766112
 20
-145.6875
 30
0.0
 11
413.58815520407524
 21
-145.6875
 31
0.0
  0
LINE
  5
1EF
  8
MyLines
 10
413.58815520407524
 20
-145.6875
 30
0.0
 11
414.9412428315392
 21
-145.6875
 31
0.0
  0
LINE
  5
1F0
  8
MyLines
 10
414.9412428315392
 20
-145.6875
 30
0.0
 11
416.2943304590033
 21
-145.6875
 31
0.0
  0
LINE
  5
1F1
  8
MyLines
 10
416.2943304590033
 20
-145.6875
 30
0.0
 11
417.64741808646727
 21
-145.6875
 31
0.0
  0
LINE
  5
1F2
  8
MyLines
 10
417.64741808646727
 20
-145.6875
 30
0.0
 11
419.00050571393126
 21
-145.6875
 31
0.0
  0
LINE
  5
1F3
  8
MyLines
 10
419.00050571393126
 20
-145.6875
 30
0.0
 11
420.35359334139525
 21
-145.6875
 31
0.0
  0
LINE
  5
1F4
  8
MyLines
 10
420.35359334139525
 20
-145.6875
 30
0.0
 11
421.70668096885925
 21
-145.6875
 31
0.0
  0
LINE
  5
1F5
  8
MyLines
 10
421.70668096885925
 20
-145.6875
 30
0.0
 11
423.0597685963233
 21
-145.6875
 31
0.0
  0
LINE
  5
1F6
  8
MyLines
 10
423.0597685963233
 20
-145.6875
 30
0.0
 11
424.4128562237873
 21
-145.6875
 31
0.0
  0
LINE
  5
1F7
  8
MyLines
 10
424.4128562237873
 20
-145.6875
 30
0.0
 11
425.7659438512513
 21
-145.6875
 31
0.0
  0
LINE
  5
1F8
  8
MyLines
 10
425.7659438512513
 20
-145.6875
 30
0.0
 11
427.11903147871527
 21
-145.6875
 31
0.0
  0
LINE
  5
1F9
  8
MyLines
 10
427.11903147871527
 20
-145.6875
 30
0.0
 11
428.47211910617926
 21
-145.6875
 31
0.0
  0
LINE
  5
1FA
  8
MyLines
 10
428.47211910617926
 20
-145.6875
 30
0.0
 11
429.8252067336433
 21
-145.6875
 31
0.0
  0
LINE
  5
1FB
  8
MyLines
 10
429.8252067336433
 20
-145.6875
 30
0.0
 11
429.8252067336433
 21
-145.6875
 31
0.0
  0
LINE
  5
1FC
  8
MyLines
 10
429.8252067336433
 20
-145.6875
 30
0.0
 11
429.8252067336433
 21
153.625
 31
0.0
  0
LINE
  5
1FD
  8
MyLines
 10
429.8252067336433
 20
153.625
 30
0.0
 11
429.8252067336433
 21
153.625
 31
0.0
  0
LINE
  5
1FE
  8
MyLines
 10
429.8252067336433
 20
153.625
 30
0.0
 11
428.56631123455185
 21
153.625
 31
0.0
  0
LINE
  5
1FF
  8
MyLines
 10
428.56631123455185
 20
153.625
 30
0.0
 11
427.3074157354605
 21
153.625
 31
0.0
  0
LINE
  5
200
  8
MyLines
 10
427.3074157354605
 20
153.625
 30
0.0
 11
426.0485202363691
 21
153.625
 31
0.0
  0
LINE
  5
201
  8
MyLines
 10
426.0485202363691
 20
153.625
 30
0.0
 11
424.7896247372776
 21
153.625
 31
0.0
  0
LINE
  5
202
  8
MyLines
 10
424.7896247372776
 20
153.625
 30
0.0
 11
423.53072923818627
 21
153.625
 31
0.0
  0
LINE
  5
203
  8
MyLines
 10
423.53072923818627
 20
153.625
 30
0.0
 11
422.2718337390948
 21
153.625
 31
0.0
  0
LINE
  5
204
  8
MyLines
 10
422.2718337390948
 20
153.625
 30
0.0
 11
421.0129382400034
 21
153.625
 31
0.0
  0
LINE
  5
205
  8
MyLines
 10
421.0129382400034
 20
153.625
 30
0.0
 11
419.75404274091204
 21
153.625
 31
0.0
  0
LINE
  5
206
  8
MyLines
 10
419.75404274091204
 20
153.625
 30
0.0
 11
418.4951472418206
 21
153.625
 31
0.0
  0
LINE
  5
207
  8
MyLines
 10
418.4951472418206
 20
153.625
 30
0.0
 11
417.23625174272917
 21
153.625
 31
0.0
  0
LINE
  5
208
  8
MyLines
 10
417.23625174272917
 20
153.625
 30
0.0
 11
415.9773562436378
 21
153.625
 31
0.0
  0
LINE
  5
209
  8
MyLines
 10
415.9773562436378
 20
153.625
 30
0.0
 11
414.71846074454635
 21
153.625
 31
0.0
  0
LINE
  5
20A
  8
MyLines
 10
414.71846074454635
 20
153.625
 30
0.0
 11
413.459565245455
 21
153.625
 31
0.0
  0
LINE
  5
20B
  8
MyLines
 10
413.459565245455
 20
153.625
 30
0.0
 11
412.20066974636353
 21
153.625
 31
0.0
  0
LINE
  5
20C
  8
MyLines
 10
412.20066974636353
 20
153.625
 30
0.0
 11
410.9417742472721
 21
153.625
 31
0.0
  0
LINE
  5
20D
  8
MyLines
 10
410.9417742472721
 20
153.625
 30
0.0
 11
409.68287874818077
 21
153.625
 31
0.0
  0
LINE
  5
20E
  8
MyLines
 10
409.68287874818077
 20
153.625
 30
0.0
 11
408.4239832490893
 21
153.625
 31
0.0
  0
LINE
  5
20F
  8
MyLines
 10
408.4239832490893
 20
153.625
 30
0.0
 11
407.1650877499979
 21
153.625
 31
0.0
  0
LINE
  5
210
  8
MyLines
 10
407.1650877499979
 20
153.625
 30
0.0
 11
405.9061922509065
 21
153.625
 31
0.0
  0
LINE
  5
211
  8
MyLines
 10
405.9061922509065
 20
153.625
 30
0.0
 11
404.6472967518151
 21
153.625
 31
0.0
  0
LINE
  5
212
  8
MyLines
 10
404.6472967518151
 20
153.625
 30
0.0
 11
403.38840125272367
 21
153.625
 31
0.0
  0
LINE
  5
213
  8
MyLines
 10
403.38840125272367
 20
153.625
 30
0.0
 11
402.12950575363226
 21
153.625
 31
0.0
  0
LINE
  5
214
  8
MyLines
 10
402.12950575363226
 20
153.625
 30
0.0
 11
400.87061025454085
 21
153.625
 31
0.0
  0
LINE
  5
215
  8
MyLines
 10
400.87061025454085
 20
153.625
 30
0.0
 11
399.61171475544944
 21
153.625
 31
0.0
  0
LINE
  5
216
  8
MyLines
 10
399.61171475544944
 20
153.625
 30
0.0
 11
398.35281925635803
 21
153.625
 31
0.0
  0
LINE
  5
217
  8
MyLines
 10
398.35281925635803
 20
153.625
 30
0.0
 11
397.0939237572666
 21
153.625
 31
0.0
  0
LINE
  5
218
  8
MyLines
 10
397.0939237572666
 20
153.625
 30
0.0
 11
395.83502825817516
 21
153.625
 31
0.0
  0
LINE
  5
219
  8
MyLines
 10
395.83502825817516
 20
153.625
 30
0.0
 11
394.5761327590838
 21
153.625
 31
0.0
  0
LINE
  5
21A
  8
MyLines
 10
394.5761327590838
 20
153.625
 30
0.0
 11
393.3172372599924
 21
153.625
 31
0.0
  0
LINE
  5
21B
  8
MyLines
 10
393.3172372599924
 20
153.625
 30
0.0
 11
392.05834176090093
 21
153.625
 31
0.0
  0
LINE
  5
21C
  8
MyLines
 10
392.05834176090093
 20
153.625
 30
0.0
 11
390.7994462618096
 21
153.625
 31
0.0
  0
LINE
  5
21D
  8
MyLines
 10
390.7994462618096
 20
153.625
 30
0.0
 11
389.5405507627181
 21
153.625
 31
0.0
  0
LINE
  5
21E
  8
MyLines
 10
389.5405507627181
 20
153.625
 30
0.0
 11
388.2816552636267
 21
153.625
 31
0.0
  0
LINE
  5
21F
  8
MyLines
 10
388.2816552636267
 20
153.625
 30
0.0
 11
387.02275976453535
 21
153.625
 31
0.0
  0
LINE
  5
220
  8
MyLines
 10
387.02275976453535
 20
153.625
 30
0.0
 11
385.7638642654439
 21
153.625
 31
0.0
  0
LINE
  5
221
  8
MyLines
 10
385.7638642654439
 20
153.625
 30
0.0
 11
384.5049687663525
 21
153.625
 31
0.0
  0
LINE
  5
222
  8
MyLines
 10
384.5049687663525
 20
153.625
 30
0.0
 11
383.24607326726107
 21
153.625
 31
0.0
  0
LINE
  5
223
  8
MyLines
 10
383.24607326726107
 20
153.625
 30
0.0
 11
381.98717776816966
 21
153.625
 31
0.0
  0
LINE
  5
224
  8
MyLines
 10
381.98717776816966
 20
153.625
 30
0.0
 11
380.72828226907825
 21
153.625
 31
0.0
  0
LINE
  5
225
  8
MyLines
 10
380.72828226907825
 20
153.625
 30
0.0
 11
379.46938676998684
 21
153.625
 31
0.0
  0
LINE
  5
226
  8
MyLines
 10
379.46938676998684
 20
153.625
 30
0.0
 11
378.21049127089543
 21
153.625
 31
0.0
  0
LINE
  5
227
  8
MyLines
 10
378.21049127089543
 20
153.625
 30
0.0
 11
376.9515957718041
 21
153.625
 31
0.0
  0
LINE
  5
228
  8
MyLines
 10
376.9515957718041
 20
153.625
 30
0.0
 11
375.6927002727126
 21
153.625
 31
0.0
  0
LINE
  5
229
  8
MyLines
 10
375.6927002727126
 20
153.625
 30
0.0
 11
374.4338047736212
 21
153.625
 31
0.0
  0
LINE
  5
22A
  8
MyLines
 10
374.4338047736212
 20
153.625
 30
0.0
 11
373.1749092745298
 21
153.625
 31
0.0
  0
LINE
  5
22B
  8
MyLines
 10
373.1749092745298
 20
153.625
 30
0.0
 11
371.9160137754384
 21
153.625
 31
0.0
  0
LINE
  5
22C
  8
MyLines
 10
371.9160137754384
 20
153.625
 30
0.0
 11
370.657118276347
 21
153.625
 31
0.0
  0
LINE
  5
22D
  8
MyLines
 10
370.657118276347
 20
153.625
 30
0.0
 11
369.39822277725557
 21
153.625
 31
0.0
  0
LINE
  5
22E
  8
MyLines
 10
369.39822277725557
 20
153.625
 30
0.0
 11
368.13932727816416
 21
153.625
 31
0.0
  0
LINE
  5
22F
  8
MyLines
 10
368.13932727816416
 20
153.625
 30
0.0
 11
368.13932727816416
 21
-141.71875
 31
0.0
  0
LINE
  5
230
  8
MyLines
 10
368.13932727816416
 20
-141.71875
 30
0.0
 11
368.13932727816416
 21
-141.71875
 31
0.0
  0
LINE
  5
231
  8
MyLines
 10
368.13932727816416
 20
-141.71875
 30
0.0
 11
369.29310328865944
 21
-141.71875
 31
0.0
  0
LINE
  5
232
  8
MyLines
 10
369.29310328865944
 20
-141.71875
 30
0.0
 11
370.44687929915483
 21
-141.71875
 31
0.0
  0
LINE
  5
233
  8
MyLines
 10
370.44687929915483
 20
-141.71875
 30
0.0
 11
371.6006553096501
 21
-141.71875
 31
0.0
  0
LINE
  5
234
  8
MyLines
 10
371.6006553096501
 20
-141.71875
 30
0.0
 11
372.7544313201455
 21
-141.71875
 31
0.0
  0
LINE
  5
235
  8
MyLines
 10
372.7544313201455
 20
-141.71875
 30
0.0
 11
373.9082073306408
 21
-141.71875
 31
0.0
  0
LINE
  5
236
  8
MyLines
 10
373.9082073306408
 20
-141.71875
 30
0.0
 11
375.0619833411361
 21
-141.71875
 31
0.0
  0
LINE
  5
237
  8
MyLines
 10
375.0619833411361
 20
-141.71875
 30
0.0
 11
376.21575935163145
 21
-141.71875
 31
0.0
  0
LINE
  5
238
  8
MyLines
 10
376.21575935163145
 20
-141.71875
 30
0.0
 11
377.3695353621268
 21
-141.71875
 31
0.0
  0
LINE
  5
239
  8
MyLines
 10
377.3695353621268
 20
-141.71875
 30
0.0
 11
378.52331137262206
 21
-141.71875
 31
0.0
  0
LINE
  5
23A
  8
MyLines
 10
378.52331137262206
 20
-141.71875
 30
0.0
 11
379.67708738311745
 21
-141.71875
 31
0.0
  0
LINE
  5
23B
  8
MyLines
 10
379.67708738311745
 20
-141.71875
 30
0.0
 11
380.83086339361273
 21
-141.71875
 31
0.0
  0
LINE
  5
23C
  8
MyLines
 10
380.83086339361273
 20
-141.71875
 30
0.0
 11
381.9846394041081
 21
-141.71875
 31
0.0
  0
LINE
  5
23D
  8
MyLines
 10
381.9846394041081
 20
-141.71875
 30
0.0
 11
383.1384154146034
 21
-141.71875
 31
0.0
  0
LINE
  5
23E
  8
MyLines
 10
383.1384154146034
 20
-141.71875
 30
0.0
 11
384.29219142509874
 21
-141.71875
 31
0.0
  0
LINE
  5
23F
  8
MyLines
 10
384.29219142509874
 20
-141.71875
 30
0.0
 11
385.44596743559407
 21
-141.71875
 31
0.0
  0
LINE
  5
240
  8
MyLines
 10
385.44596743559407
 20
-141.71875
 30
0.0
 11
386.5997434460894
 21
-141.71875
 31
0.0
  0
LINE
  5
241
  8
MyLines
 10
386.5997434460894
 20
-141.71875
 30
0.0
 11
387.75351945658474
 21
-141.71875
 31
0.0
  0
LINE
  5
242
  8
MyLines
 10
387.75351945658474
 20
-141.71875
 30
0.0
 11
388.9072954670801
 21
-141.71875
 31
0.0
  0
LINE
  5
243
  8
MyLines
 10
388.9072954670801
 20
-141.71875
 30
0.0
 11
390.06107147757535
 21
-141.71875
 31
0.0
  0
LINE
  5
244
  8
MyLines
 10
390.06107147757535
 20
-141.71875
 30
0.0
 11
391.21484748807075
 21
-141.71875
 31
0.0
  0
LINE
  5
245
  8
MyLines
 10
391.21484748807075
 20
-141.71875
 30
0.0
 11
392.368623498566
 21
-141.71875
 31
0.0
  0
LINE
  5
246
  8
MyLines
 10
392.368623498566
 20
-141.71875
 30
0.0
 11
393.52239950906136
 21
-141.71875
 31
0.0
  0
LINE
  5
247
  8
MyLines
 10
393.52239950906136
 20
-141.71875
 30
0.0
 11
394.6761755195567
 21
-141.71875
 31
0.0
  0
LINE
  5
248
  8
MyLines
 10
394.6761755195567
 20
-141.71875
 30
0.0
 11
395.829951530052
 21
-141.71875
 31
0.0
  0
LINE
  5
249
  8
MyLines
 10
395.829951530052
 20
-141.71875
 30
0.0
 11
396.98372754054736
 21
-141.71875
 31
0.0
  0
LINE
  5
24A
  8
MyLines
 10
396.98372754054736
 20
-141.71875
 30
0.0
 11
398.1375035510427
 21
-141.71875
 31
0.0
  0
LINE
  5
24B
  8
MyLines
 10
398.1375035510427
 20
-141.71875
 30
0.0
 11
399.291279561538
 21
-141.71875
 31
0.0
  0
LINE
  5
24C
  8
MyLines
 10
399.291279561538
 20
-141.71875
 30
0.0
 11
400.44505557203337
 21
-141.71875
 31
0.0
  0
LINE
  5
24D
  8
MyLines
 10
400.44505557203337
 20
-141.71875
 30
0.0
 11
401.5988315825287
 21
-141.71875
 31
0.0
  0
LINE
  5
24E
  8
MyLines
 10
401.5988315825287
 20
-141.71875
 30
0.0
 11
402.75260759302404
 21
-141.71875
 31
0.0
  0
LINE
  5
24F
  8
MyLines
 10
402.75260759302404
 20
-141.71875
 30
0.0
 11
403.9063836035194
 21
-141.71875
 31
0.0
  0
LINE
  5
250
  8
MyLines
 10
403.9063836035194
 20
-141.71875
 30
0.0
 11
405.06015961401465
 21
-141.71875
 31
0.0
  0
LINE
  5
251
  8
MyLines
 10
405.06015961401465
 20
-141.71875
 30
0.0
 11
406.21393562451004
 21
-141.71875
 31
0.0
  0
LINE
  5
252
  8
MyLines
 10
406.21393562451004
 20
-141.71875
 30
0.0
 11
407.3677116350053
 21
-141.71875
 31
0.0
  0
LINE
  5
253
  8
MyLines
 10
407.3677116350053
 20
-141.71875
 30
0.0
 11
408.52148764550066
 21
-141.71875
 31
0.0
  0
LINE
  5
254
  8
MyLines
 10
408.52148764550066
 20
-141.71875
 30
0.0
 11
409.675263655996
 21
-141.71875
 31
0.0
  0
LINE
  5
255
  8
MyLines
 10
409.675263655996
 20
-141.71875
 30
0.0
 11
410.8290396664913
 21
-141.71875
 31
0.0
  0
LINE
  5
256
  8
MyLines
 10
410.8290396664913
 20
-141.71875
 30
0.0
 11
411.98281567698666
 21
-141.71875
 31
0.0
  0
LINE
  5
257
  8
MyLines
 10
411.98281567698666
 20
-141.71875
 30
0.0
 11
413.136591687482
 21
-141.71875
 31
0.0
  0
LINE
  5
258
  8
MyLines
 10
413.136591687482
 20
-141.71875
 30
0.0
 11
414.29036769797733
 21
-141.71875
 31
0.0
  0
LINE
  5
259
  8
MyLines
 10
414.29036769797733
 20
-141.71875
 30
0.0
 11
415.44414370847267
 21
-141.71875
 31
0.0
  0
LINE
  5
25A
  8
MyLines
 10
415.44414370847267
 20
-141.71875
 30
0.0
 11
416.59791971896794
 21
-141.71875
 31
0.0
  0
LINE
  5
25B
  8
MyLines
 10
416.59791971896794
 20
-141.71875
 30
0.0
 11
417.75169572946334
 21
-141.71875
 31
0.0
  0
LINE
  5
25C
  8
MyLines
 10
417.75169572946334
 20
-141.71875
 30
0.0
 11
418.9054717399586
 21
-141.71875
 31
0.0
  0
LINE
  5
25D
  8
MyLines
 10
418.9054717399586
 20
-141.71875
 30
0.0
 11
420.05924775045395
 21
-141.71875
 31
0.0
  0
LINE
  5
25E
  8
MyLines
 10
420.05924775045395
 20
-141.71875
 30
0.0
 11
421.2130237609493
 21
-141.71875
 31
0.0
  0
LINE
  5
25F
  8
MyLines
 10
421.2130237609493
 20
-141.71875
 30
0.0
 11
422.3667997714446
 21
-141.71875
 31
0.0
  0
LINE
  5
260
  8
MyLines
 10
422.3667997714446
 20
-141.71875
 30
0.0
 11
423.5205757819399
 21
-141.71875
 31
0.0
  0
LINE
  5
261
  8
MyLines
 10
423.5205757819399
 20
-141.71875
 30
0.0
 11
424.6743517924353
 21
-141.71875
 31
0.0
  0
LINE
  5
262
  8
MyLines
 10
424.6743517924353
 20
-141.71875
 30
0.0
 11
424.6743517924353
 21
-141.71875
 31
0.0
  0
LINE
  5
263
  8
MyLines
 10
424.6743517924353
 20
-141.71875
 30
0.0
 11
424.6743517924353
 21
149.65625
 31
0.0
  0
LINE
  5
264
  8
MyLines
 10
424.6743517924353
 20
149.65625
 30
0.0
 11
424.6743517924353
 21
149.65625
 31
0.0
  0
LINE
  5
265
  8
MyLines
 10
424.6743517924353
 20
149.65625
 30
0.0
 11
423.625695270536
 21
149.65625
 31
0.0
  0
LINE
  5
266
  8
MyLines
 10
423.625695270536
 20
149.65625
 30
0.0
 11
422.57703874863677
 21
149.65625
 31
0.0
  0
LINE
  5
267
  8
MyLines
 10
422.57703874863677
 20
149.65625
 30
0.0
 11
421.52838222673756
 21
149.65625
 31
0.0
  0
LINE
  5
268
  8
MyLines
 10
421.52838222673756
 20
149.65625
 30
0.0
 11
420.47972570483824
 21
149.65625
 31
0.0
  0
LINE
  5
269
  8
MyLines
 10
420.47972570483824
 20
149.65625
 30
0.0
 11
419.431069182939
 21
149.65625
 31
0.0
  0
LINE
  5
26A
  8
MyLines
 10
419.431069182939
 20
149.65625
 30
0.0
 11
418.3824126610398
 21
149.65625
 31
0.0
  0
LINE
  5
26B
  8
MyLines
 10
418.3824126610398
 20
149.65625
 30
0.0
 11
417.3337561391405
 21
149.65625
 31
0.0
  0
LINE
  5
26C
  8
MyLines
 10
417.3337561391405
 20
149.65625
 30
0.0
 11
416.2850996172413
 21
149.65625
 31
0.0
  0
LINE
  5
26D
  8
MyLines
 10
416.2850996172413
 20
149.65625
 30
0.0
 11
415.23644309534205
 21
149.65625
 31
0.0
  0
LINE
  5
26E
  8
MyLines
 10
415.23644309534205
 20
149.65625
 30
0.0
 11
414.1877865734428
 21
149.65625
 31
0.0
  0
LINE
  5
26F
  8
MyLines
 10
414.1877865734428
 20
149.65625
 30
0.0
 11
413.13913005154353
 21
149.65625
 31
0.0
  0
LINE
  5
270
  8
MyLines
 10
413.13913005154353
 20
149.65625
 30
0.0
 11
412.09047352964427
 21
149.65625
 31
0.0
  0
LINE
  5
271
  8
MyLines
 10
412.09047352964427
 20
149.65625
 30
0.0
 11
411.041817007745
 21
149.65625
 31
0.0
  0
LINE
  5
272
  8
MyLines
 10
411.041817007745
 20
149.65625
 30
0.0
 11
409.9931604858458
 21
149.65625
 31
0.0
  0
LINE
  5
273
  8
MyLines
 10
409.9931604858458
 20
149.65625
 30
0.0
 11
408.94450396394654
 21
149.65625
 31
0.0
  0
LINE
  5
274
  8
MyLines
 10
408.94450396394654
 20
149.65625
 30
0.0
 11
407.89584744204734
 21
149.65625
 31
0.0
  0
LINE
  5
275
  8
MyLines
 10
407.89584744204734
 20
149.65625
 30
0.0
 11
406.8471909201481
 21
149.65625
 31
0.0
  0
LINE
  5
276
  8
MyLines
 10
406.8471909201481
 20
149.65625
 30
0.0
 11
405.79853439824876
 21
149.65625
 31
0.0
  0
LINE
  5
277
  8
MyLines
 10
405.79853439824876
 20
149.65625
 30
0.0
 11
404.74987787634956
 21
149.65625
 31
0.0
  0
LINE
  5
278
  8
MyLines
 10
404.74987787634956
 20
149.65625
 30
0.0
 11
403.7012213544503
 21
149.65625
 31
0.0
  0
LINE
  5
279
  8
MyLines
 10
403.7012213544503
 20
149.65625
 30
0.0
 11
402.6525648325511
 21
149.65625
 31
0.0
  0
LINE
  5
27A
  8
MyLines
 10
402.6525648325511
 20
149.65625
 30
0.0
 11
401.60390831065183
 21
149.65625
 31
0.0
  0
LINE
  5
27B
  8
MyLines
 10
401.60390831065183
 20
149.65625
 30
0.0
 11
400.55525178875257
 21
149.65625
 31
0.0
  0
LINE
  5
27C
  8
MyLines
 10
400.55525178875257
 20
149.65625
 30
0.0
 11
399.5065952668533
 21
149.65625
 31
0.0
  0
LINE
  5
27D
  8
MyLines
 10
399.5065952668533
 20
149.65625
 30
0.0
 11
398.45793874495405
 21
149.65625
 31
0.0
  0
LINE
  5
27E
  8
MyLines
 10
398.45793874495405
 20
149.65625
 30
0.0
 11
397.4092822230548
 21
149.65625
 31
0.0
  0
LINE
  5
27F
  8
MyLines
 10
397.4092822230548
 20
149.65625
 30
0.0
 11
396.3606257011556
 21
149.65625
 31
0.0
  0
LINE
  5
280
  8
MyLines
 10
396.3606257011556
 20
149.65625
 30
0.0
 11
395.3119691792563
 21
149.65625
 31
0.0
  0
LINE
  5
281
  8
MyLines
 10
395.3119691792563
 20
149.65625
 30
0.0
 11
394.2633126573571
 21
149.65625
 31
0.0
  0
LINE
  5
282
  8
MyLines
 10
394.2633126573571
 20
149.65625
 30
0.0
 11
393.21465613545786
 21
149.65625
 31
0.0
  0
LINE
  5
283
  8
MyLines
 10
393.21465613545786
 20
149.65625
 30
0.0
 11
392.1659996135586
 21
149.65625
 31
0.0
  0
LINE
  5
284
  8
MyLines
 10
392.1659996135586
 20
149.65625
 30
0.0
 11
391.11734309165934
 21
149.65625
 31
0.0
  0
LINE
  5
285
  8
MyLines
 10
391.11734309165934
 20
149.65625
 30
0.0
 11
390.0686865697601
 21
149.65625
 31
0.0
  0
LINE
  5
286
  8
MyLines
 10
390.0686865697601
 20
149.65625
 30
0.0
 11
389.0200300478608
 21
149.65625
 31
0.0
  0
LINE
  5
287
  8
MyLines
 10
389.0200300478608
 20
149.65625
 30
0.0
 11
387.9713735259616
 21
149.65625
 31
0.0
  0
LINE
  5
288
  8
MyLines
 10
387.9713735259616
 20
149.65625
 30
0.0
 11
386.92271700406235
 21
149.65625
 31
0.0
  0
LINE
  5
289
  8
MyLines
 10
386.92271700406235
 20
149.65625
 30
0.0
 11
385.87406048216315
 21
149.65625
 31
0.0
  0
LINE
  5
28A
  8
MyLines
 10
385.87406048216315
 20
149.65625
 30
0.0
 11
384.8254039602638
 21
149.65625
 31
0.0
  0
LINE
  5
28B
  8
MyLines
 10
384.8254039602638
 20
149.65625
 30
0.0
 11
383.77674743836457
 21
149.65625
 31
0.0
  0
LINE
  5
28C
  8
MyLines
 10
383.77674743836457
 20
149.65625
 30
0.0
 11
382.72809091646536
 21
149.65625
 31
0.0
  0
LINE
  5
28D
  8
MyLines
 10
382.72809091646536
 20
149.65625
 30
0.0
 11
381.6794343945661
 21
149.65625
 31
0.0
  0
LINE
  5
28E
  8
MyLines
 10
381.6794343945661
 20
149.65625
 30
0.0
 11
380.63077787266684
 21
149.65625
 31
0.0
  0
LINE
  5
28F
  8
MyLines
 10
380.63077787266684
 20
149.65625
 30
0.0
 11
379.58212135076764
 21
149.65625
 31
0.0
  0
LINE
  5
290
  8
MyLines
 10
379.58212135076764
 20
149.65625
 30
0.0
 11
378.5334648288684
 21
149.65625
 31
0.0
  0
LINE
  5
291
  8
MyLines
 10
378.5334648288684
 20
149.65625
 30
0.0
 11
377.48480830696917
 21
149.65625
 31
0.0
  0
LINE
  5
292
  8
MyLines
 10
377.48480830696917
 20
149.65625
 30
0.0
 11
376.43615178506985
 21
149.65625
 31
0.0
  0
LINE
  5
293
  8
MyLines
 10
376.43615178506985
 20
149.65625
 30
0.0
 11
375.3874952631706
 21
149.65625
 31
0.0
  0
LINE
  5
294
  8
MyLines
 10
375.3874952631706
 20
149.65625
 30
0.0
 11
374.3388387412714
 21
149.65625
 31
0.0
  0
LINE
  5
295
  8
MyLines
 10
374.3388387412714
 20
149.65625
 30
0.0
 11
373.2901822193721
 21
149.65625
 31
0.0
  0
LINE
  5
296
  8
MyLines
 10
373.2901822193721
 20
149.65625
 30
0.0
 11
373.2901822193721
 21
-137.75
 31
0.0
  0
LINE
  5
297
  8
MyLines
 10
373.2901822193721
 20
-137.75
 30
0.0
 11
373.2901822193721
 21
-137.75
 31
0.0
  0
LINE
  5
298
  8
MyLines
 10
373.2901822193721
 20
-137.75
 30
0.0
 11
374.21238811878703
 21
-137.75
 31
0.0
  0
LINE
  5
299
  8
MyLines
 10
374.21238811878703
 20
-137.75
 30
0.0
 11
375.134594018202
 21
-137.75
 31
0.0
  0
LINE
  5
29A
  8
MyLines
 10
375.134594018202
 20
-137.75
 30
0.0
 11
376.05679991761684
 21
-137.75
 31
0.0
  0
LINE
  5
29B
  8
MyLines
 10
376.05679991761684
 20
-137.75
 30
0.0
 11
376.97900581703175
 21
-137.75
 31
0.0
  0
LINE
  5
29C
  8
MyLines
 10
376.97900581703175
 20
-137.75
 30
0.0
 11
377.90121171644665
 21
-137.75
 31
0.0
  0
LINE
  5
29D
  8
MyLines
 10
377.90121171644665
 20
-137.75
 30
0.0
 11
378.8234176158616
 21
-137.75
 31
0.0
  0
LINE
  5
29E
  8
MyLines
 10
378.8234176158616
 20
-137.75
 30
0.0
 11
379.7456235152765
 21
-137.75
 31
0.0
  0
LINE
  5
29F
  8
MyLines
 10
379.7456235152765
 20
-137.75
 30
0.0
 11
380.6678294146914
 21
-137.75
 31
0.0
  0
LINE
  5
2A0
  8
MyLines
 10
380.6678294146914
 20
-137.75
 30
0.0
 11
381.5900353141063
 21
-137.75
 31
0.0
  0
LINE
  5
2A1
  8
MyLines
 10
381.5900353141063
 20
-137.75
 30
0.0
 11
382.51224121352124
 21
-137.75
 31
0.0
  0
LINE
  5
2A2
  8
MyLines
 10
382.51224121352124
 20
-137.75
 30
0.0
 11
383.43444711293614
 21
-137.75
 31
0.0
  0
LINE
  5
2A3
  8
MyLines
 10
383.43444711293614
 20
-137.75
 30
0.0
 11
384.35665301235105
 21
-137.75
 31
0.0
  0
LINE
  5
2A4
  8
MyLines
 10
384.35665301235105
 20
-137.75
 30
0.0
 11
385.27885891176595
 21
-137.75
 31
0.0
  0
LINE
  5
2A5
  8
MyLines
 10
385.27885891176595
 20
-137.75
 30
0.0
 11
386.20106481118086
 21
-137.75
 31
0.0
  0
LINE
  5
2A6
  8
MyLines
 10
386.20106481118086
 20
-137.75
 30
0.0
 11
387.12327071059576
 21
-137.75
 31
0.0
  0
LINE
  5
2A7
  8
MyLines
 10
387.12327071059576
 20
-137.75
 30
0.0
 11
388.04547661001067
 21
-137.75
 31
0.0
  0
LINE
  5
2A8
  8
MyLines
 10
388.04547661001067
 20
-137.75
 30
0.0
 11
388.96768250942563
 21
-137.75
 31
0.0
  0
LINE
  5
2A9
  8
MyLines
 10
388.96768250942563
 20
-137.75
 30
0.0
 11
389.88988840884053
 21
-137.75
 31
0.0
  0
LINE
  5
2AA
  8
MyLines
 10
389.88988840884053
 20
-137.75
 30
0.0
 11
390.8120943082554
 21
-137.75
 31
0.0
  0
LINE
  5
2AB
  8
MyLines
 10
390.8120943082554
 20
-137.75
 30
0.0
 11
391.7343002076703
 21
-137.75
 31
0.0
  0
LINE
  5
2AC
  8
MyLines
 10
391.7343002076703
 20
-137.75
 30
0.0
 11
392.65650610708525
 21
-137.75
 31
0.0
  0
LINE
  5
2AD
  8
MyLines
 10
392.65650610708525
 20
-137.75
 30
0.0
 11
393.57871200650015
 21
-137.75
 31
0.0
  0
LINE
  5
2AE
  8
MyLines
 10
393.57871200650015
 20
-137.75
 30
0.0
 11
394.50091790591506
 21
-137.75
 31
0.0
  0
LINE
  5
2AF
  8
MyLines
 10
394.50091790591506
 20
-137.75
 30
0.0
 11
395.4231238053299
 21
-137.75
 31
0.0
  0
LINE
  5
2B0
  8
MyLines
 10
395.4231238053299
 20
-137.75
 30
0.0
 11
396.34532970474487
 21
-137.75
 31
0.0
  0
LINE
  5
2B1
  8
MyLines
 10
396.34532970474487
 20
-137.75
 30
0.0
 11
397.2675356041598
 21
-137.75
 31
0.0
  0
LINE
  5
2B2
  8
MyLines
 10
397.2675356041598
 20
-137.75
 30
0.0
 11
398.1897415035747
 21
-137.75
 31
0.0
  0
LINE
  5
2B3
  8
MyLines
 10
398.1897415035747
 20
-137.75
 30
0.0
 11
399.1119474029896
 21
-137.75
 31
0.0
  0
LINE
  5
2B4
  8
MyLines
 10
399.1119474029896
 20
-137.75
 30
0.0
 11
400.03415330240455
 21
-137.75
 31
0.0
  0
LINE
  5
2B5
  8
MyLines
 10
400.03415330240455
 20
-137.75
 30
0.0
 11
400.9563592018194
 21
-137.75
 31
0.0
  0
LINE
  5
2B6
  8
MyLines
 10
400.9563592018194
 20
-137.75
 30
0.0
 11
401.8785651012343
 21
-137.75
 31
0.0
  0
LINE
  5
2B7
  8
MyLines
 10
401.8785651012343
 20
-137.75
 30
0.0
 11
402.80077100064926
 21
-137.75
 31
0.0
  0
LINE
  5
2B8
  8
MyLines
 10
402.80077100064926
 20
-137.75
 30
0.0
 11
403.72297690006417
 21
-137.75
 31
0.0
  0
LINE
  5
2B9
  8
MyLines
 10
403.72297690006417
 20
-137.75
 30
0.0
 11
404.6451827994791
 21
-137.75
 31
0.0
  0
LINE
  5
2BA
  8
MyLines
 10
404.6451827994791
 20
-137.75
 30
0.0
 11
405.5673886988939
 21
-137.75
 31
0.0
  0
LINE
  5
2BB
  8
MyLines
 10
405.5673886988939
 20
-137.75
 30
0.0
 11
406.4895945983088
 21
-137.75
 31
0.0
  0
LINE
  5
2BC
  8
MyLines
 10
406.4895945983088
 20
-137.75
 30
0.0
 11
407.4118004977238
 21
-137.75
 31
0.0
  0
LINE
  5
2BD
  8
MyLines
 10
407.4118004977238
 20
-137.75
 30
0.0
 11
408.3340063971387
 21
-137.75
 31
0.0
  0
LINE
  5
2BE
  8
MyLines
 10
408.3340063971387
 20
-137.75
 30
0.0
 11
409.2562122965536
 21
-137.75
 31
0.0
  0
LINE
  5
2BF
  8
MyLines
 10
409.2562122965536
 20
-137.75
 30
0.0
 11
410.1784181959685
 21
-137.75
 31
0.0
  0
LINE
  5
2C0
  8
MyLines
 10
410.1784181959685
 20
-137.75
 30
0.0
 11
411.1006240953834
 21
-137.75
 31
0.0
  0
LINE
  5
2C1
  8
MyLines
 10
411.1006240953834
 20
-137.75
 30
0.0
 11
412.0228299947983
 21
-137.75
 31
0.0
  0
LINE
  5
2C2
  8
MyLines
 10
412.0228299947983
 20
-137.75
 30
0.0
 11
412.9450358942132
 21
-137.75
 31
0.0
  0
LINE
  5
2C3
  8
MyLines
 10
412.9450358942132
 20
-137.75
 30
0.0
 11
413.8672417936282
 21
-137.75
 31
0.0
  0
LINE
  5
2C4
  8
MyLines
 10
413.8672417936282
 20
-137.75
 30
0.0
 11
414.78944769304303
 21
-137.75
 31
0.0
  0
LINE
  5
2C5
  8
MyLines
 10
414.78944769304303
 20
-137.75
 30
0.0
 11
415.71165359245794
 21
-137.75
 31
0.0
  0
LINE
  5
2C6
  8
MyLines
 10
415.71165359245794
 20
-137.75
 30
0.0
 11
416.6338594918729
 21
-137.75
 31
0.0
  0
LINE
  5
2C7
  8
MyLines
 10
416.6338594918729
 20
-137.75
 30
0.0
 11
417.5560653912878
 21
-137.75
 31
0.0
  0
LINE
  5
2C8
  8
MyLines
 10
417.5560653912878
 20
-137.75
 30
0.0
 11
418.4782712907027
 21
-137.75
 31
0.0
  0
LINE
  5
2C9
  8
MyLines
 10
418.4782712907027
 20
-137.75
 30
0.0
 11
418.4782712907027
 21
-137.75
 31
0.0
  0
LINE
  5
2CA
  8
MyLines
 10
418.4782712907027
 20
-137.75
 30
0.0
 11
418.4782712907027
 21
145.6875
 31
0.0
  0
LINE
  5
2CB
  8
MyLines
 10
418.4782712907027
 20
145.6875
 30
0.0
 11
418.4782712907027
 21
145.6875
 31
0.0
  0
LINE
  5
2CC
  8
MyLines
 10
418.4782712907027
 20
145.6875
 30
0.0
 11
417.68251601377216
 21
145.6875
 31
0.0
  0
LINE
  5
2CD
  8
MyLines
 10
417.68251601377216
 20
145.6875
 30
0.0
 11
416.88676073684155
 21
145.6875
 31
0.0
  0
LINE
  5
2CE
  8
MyLines
 10
416.88676073684155
 20
145.6875
 30
0.0
 11
416.091005459911
 21
145.6875
 31
0.0
  0
LINE
  5
2CF
  8
MyLines
 10
416.091005459911
 20
145.6875
 30
0.0
 11
415.29525018298045
 21
145.6875
 31
0.0
  0
LINE
  5
2D0
  8
MyLines
 10
415.29525018298045
 20
145.6875
 30
0.0
 11
414.49949490604985
 21
145.6875
 31
0.0
  0
LINE
  5
2D1
  8
MyLines
 10
414.49949490604985
 20
145.6875
 30
0.0
 11
413.7037396291193
 21
145.6875
 31
0.0
  0
LINE
  5
2D2
  8
MyLines
 10
413.7037396291193
 20
145.6875
 30
0.0
 11
412.9079843521887
 21
145.6875
 31
0.0
  0
LINE
  5
2D3
  8
MyLines
 10
412.9079843521887
 20
145.6875
 30
0.0
 11
412.11222907525814
 21
145.6875
 31
0.0
  0
LINE
  5
2D4
  8
MyLines
 10
412.11222907525814
 20
145.6875
 30
0.0
 11
411.3164737983276
 21
145.6875
 31
0.0
  0
LINE
  5
2D5
  8
MyLines
 10
411.3164737983276
 20
145.6875
 30
0.0
 11
410.520718521397
 21
145.6875
 31
0.0
  0
LINE
  5
2D6
  8
MyLines
 10
410.520718521397
 20
145.6875
 30
0.0
 11
409.72496324446644
 21
145.6875
 31
0.0
  0
LINE
  5
2D7
  8
MyLines
 10
409.72496324446644
 20
145.6875
 30
0.0
 11
408.9292079675359
 21
145.6875
 31
0.0
  0
LINE
  5
2D8
  8
MyLines
 10
408.9292079675359
 20
145.6875
 30
0.0
 11
408.1334526906053
 21
145.6875
 31
0.0
  0
LINE
  5
2D9
  8
MyLines
 10
408.1334526906053
 20
145.6875
 30
0.0
 11
407.33769741367473
 21
145.6875
 31
0.0
  0
LINE
  5
2DA
  8
MyLines
 10
407.33769741367473
 20
145.6875
 30
0.0
 11
406.5419421367441
 21
145.6875
 31
0.0
  0
LINE
  5
2DB
  8
MyLines
 10
406.5419421367441
 20
145.6875
 30
0.0
 11
405.7461868598136
 21
145.6875
 31
0.0
  0
LINE
  5
2DC
  8
MyLines
 10
405.7461868598136
 20
145.6875
 30
0.0
 11
404.950431582883
 21
145.6875
 31
0.0
  0
LINE
  5
2DD
  8
MyLines
 10
404.950431582883
 20
145.6875
 30
0.0
 11
404.1546763059524
 21
145.6875
 31
0.0
  0
LINE
  5
2DE
  8
MyLines
 10
404.1546763059524
 20
145.6875
 30
0.0
 11
403.3589210290219
 21
145.6875
 31
0.0
  0
LINE
  5
2DF
  8
MyLines
 10
403.3589210290219
 20
145.6875
 30
0.0
 11
402.5631657520913
 21
145.6875
 31
0.0
  0
LINE
  5
2E0
  8
MyLines
 10
402.5631657520913
 20
145.6875
 30
0.0
 11
401.7674104751607
 21
145.6875
 31
0.0
  0
LINE
  5
2E1
  8
MyLines
 10
401.7674104751607
 20
145.6875
 30
0.0
 11
400.97165519823017
 21
145.6875
 31
0.0
  0
LINE
  5
2E2
  8
MyLines
 10
400.97165519823017
 20
145.6875
 30
0.0
 11
400.1758999212996
 21
145.6875
 31
0.0
  0
LINE
  5
2E3
  8
MyLines
 10
400.1758999212996
 20
145.6875
 30
0.0
 11
399.380144644369
 21
145.6875
 31
0.0
  0
LINE
  5
2E4
  8
MyLines
 10
399.380144644369
 20
145.6875
 30
0.0
 11
398.58438936743846
 21
145.6875
 31
0.0
  0
LINE
  5
2E5
  8
MyLines
 10
398.58438936743846
 20
145.6875
 30
0.0
 11
397.78863409050786
 21
145.6875
 31
0.0
  0
LINE
  5
2E6
  8
MyLines
 10
397.78863409050786
 20
145.6875
 30
0.0
 11
396.9928788135773
 21
145.6875
 31
0.0
  0
LINE
  5
2E7
  8
MyLines
 10
396.9928788135773
 20
145.6875
 30
0.0
 11
396.19712353664676
 21
145.6875
 31
0.0
  0
LINE
  5
2E8
  8
MyLines
 10
396.19712353664676
 20
145.6875
 30
0.0
 11
395.40136825971615
 21
145.6875
 31
0.0
  0
LINE
  5
2E9
  8
MyLines
 10
395.40136825971615
 20
145.6875
 30
0.0
 11
394.6056129827856
 21
145.6875
 31
0.0
  0
LINE
  5
2EA
  8
MyLines
 10
394.6056129827856
 20
145.6875
 30
0.0
 11
393.80985770585505
 21
145.6875
 31
0.0
  0
LINE
  5
2EB
  8
MyLines
 10
393.80985770585505
 20
145.6875
 30
0.0
 11
393.01410242892445
 21
145.6875
 31
0.0
  0
LINE
  5
2EC
  8
MyLines
 10
393.01410242892445
 20
145.6875
 30
0.0
 11
392.2183471519939
 21
145.6875
 31
0.0
  0
LINE
  5
2ED
  8
MyLines
 10
392.2183471519939
 20
145.6875
 30
0.0
 11
391.42259187506335
 21
145.6875
 31
0.0
  0
LINE
  5
2EE
  8
MyLines
 10
391.42259187506335
 20
145.6875
 30
0.0
 11
390.62683659813274
 21
145.6875
 31
0.0
  0
LINE
  5
2EF
  8
MyLines
 10
390.62683659813274
 20
145.6875
 30
0.0
 11
389.8310813212022
 21
145.6875
 31
0.0
  0
LINE
  5
2F0
  8
MyLines
 10
389.8310813212022
 20
145.6875
 30
0.0
 11
389.0353260442716
 21
145.6875
 31
0.0
  0
LINE
  5
2F1
  8
MyLines
 10
389.0353260442716
 20
145.6875
 30
0.0
 11
388.23957076734104
 21
145.6875
 31
0.0
  0
LINE
  5
2F2
  8
MyLines
 10
388.23957076734104
 20
145.6875
 30
0.0
 11
387.4438154904105
 21
145.6875
 31
0.0
  0
LINE
  5
2F3
  8
MyLines
 10
387.4438154904105
 20
145.6875
 30
0.0
 11
386.6480602134799
 21
145.6875
 31
0.0
  0
LINE
  5
2F4
  8
MyLines
 10
386.6480602134799
 20
145.6875
 30
0.0
 11
385.85230493654933
 21
145.6875
 31
0.0
  0
LINE
  5
2F5
  8
MyLines
 10
385.85230493654933
 20
145.6875
 30
0.0
 11
385.0565496596188
 21
145.6875
 31
0.0
  0
LINE
  5
2F6
  8
MyLines
 10
385.0565496596188
 20
145.6875
 30
0.0
 11
384.2607943826882
 21
145.6875
 31
0.0
  0
LINE
  5
2F7
  8
MyLines
 10
384.2607943826882
 20
145.6875
 30
0.0
 11
383.4650391057576
 21
145.6875
 31
0.0
  0
LINE
  5
2F8
  8
MyLines
 10
383.4650391057576
 20
145.6875
 30
0.0
 11
382.6692838288271
 21
145.6875
 31
0.0
  0
LINE
  5
2F9
  8
MyLines
 10
382.6692838288271
 20
145.6875
 30
0.0
 11
381.87352855189647
 21
145.6875
 31
0.0
  0
LINE
  5
2FA
  8
MyLines
 10
381.87352855189647
 20
145.6875
 30
0.0
 11
381.0777732749659
 21
145.6875
 31
0.0
  0
LINE
  5
2FB
  8
MyLines
 10
381.0777732749659
 20
145.6875
 30
0.0
 11
380.2820179980353
 21
145.6875
 31
0.0
  0
LINE
  5
2FC
  8
MyLines
 10
380.2820179980353
 20
145.6875
 30
0.0
 11
379.48626272110477
 21
145.6875
 31
0.0
  0
LINE
  5
2FD
  8
MyLines
 10
379.48626272110477
 20
145.6875
 30
0.0
 11
379.48626272110477
 21
-133.78125
 31
0.0
  0
LINE
  5
2FE
  8
MyLines
 10
379.48626272110477
 20
-133.78125
 30
0.0
 11
379.48626272110477
 21
-133.78125
 31
0.0
  0
LINE
  5
2FF
  8
MyLines
 10
379.48626272110477
 20
-133.78125
 30
0.0
 11
380.04786685142227
 21
-133.78125
 31
0.0
  0
LINE
  5
300
  8
MyLines
 10
380.04786685142227
 20
-133.78125
 30
0.0
 11
380.6094709817399
 21
-133.78125
 31
0.0
  0
LINE
  5
301
  8
MyLines
 10
380.6094709817399
 20
-133.78125
 30
0.0
 11
381.1710751120574
 21
-133.78125
 31
0.0
  0
LINE
  5
302
  8
MyLines
 10
381.1710751120574
 20
-133.78125
 30
0.0
 11
381.73267924237496
 21
-133.78125
 31
0.0
  0
LINE
  5
303
  8
MyLines
 10
381.73267924237496
 20
-133.78125
 30
0.0
 11
382.2942833726925
 21
-133.78125
 31
0.0
  0
LINE
  5
304
  8
MyLines
 10
382.2942833726925
 20
-133.78125
 30
0.0
 11
382.8558875030101
 21
-133.78125
 31
0.0
  0
LINE
  5
305
  8
MyLines
 10
382.8558875030101
 20
-133.78125
 30
0.0
 11
383.4174916333276
 21
-133.78125
 31
0.0
  0
LINE
  5
306
  8
MyLines
 10
383.4174916333276
 20
-133.78125
 30
0.0
 11
383.97909576364515
 21
-133.78125
 31
0.0
  0
LINE
  5
307
  8
MyLines
 10
383.97909576364515
 20
-133.78125
 30
0.0
 11
384.5406998939627
 21
-133.78125
 31
0.0
  0
LINE
  5
308
  8
MyLines
 10
384.5406998939627
 20
-133.78125
 30
0.0
 11
385.1023040242802
 21
-133.78125
 31
0.0
  0
LINE
  5
309
  8
MyLines
 10
385.1023040242802
 20
-133.78125
 30
0.0
 11
385.66390815459783
 21
-133.78125
 31
0.0
  0
LINE
  5
30A
  8
MyLines
 10
385.66390815459783
 20
-133.78125
 30
0.0
 11
386.22551228491534
 21
-133.78125
 31
0.0
  0
LINE
  5
30B
  8
MyLines
 10
386.22551228491534
 20
-133.78125
 30
0.0
 11
386.78711641523296
 21
-133.78125
 31
0.0
  0
LINE
  5
30C
  8
MyLines
 10
386.78711641523296
 20
-133.78125
 30
0.0
 11
387.34872054555046
 21
-133.78125
 31
0.0
  0
LINE
  5
30D
  8
MyLines
 10
387.34872054555046
 20
-133.78125
 30
0.0
 11
387.91032467586797
 21
-133.78125
 31
0.0
  0
LINE
  5
30E
  8
MyLines
 10
387.91032467586797
 20
-133.78125
 30
0.0
 11
388.4719288061856
 21
-133.78125
 31
0.0
  0
LINE
  5
30F
  8
MyLines
 10
388.4719288061856
 20
-133.78125
 30
0.0
 11
389.0335329365031
 21
-133.78125
 31
0.0
  0
LINE
  5
310
  8
MyLines
 10
389.0335329365031
 20
-133.78125
 30
0.0
 11
389.59513706682066
 21
-133.78125
 31
0.0
  0
LINE
  5
311
  8
MyLines
 10
389.59513706682066
 20
-133.78125
 30
0.0
 11
390.1567411971382
 21
-133.78125
 31
0.0
  0
LINE
  5
312
  8
MyLines
 10
390.1567411971382
 20
-133.78125
 30
0.0
 11
390.7183453274558
 21
-133.78125
 31
0.0
  0
LINE
  5
313
  8
MyLines
 10
390.7183453274558
 20
-133.78125
 30
0.0
 11
391.2799494577733
 21
-133.78125
 31
0.0
  0
LINE
  5
314
  8
MyLines
 10
391.2799494577733
 20
-133.78125
 30
0.0
 11
391.84155358809085
 21
-133.78125
 31
0.0
  0
LINE
  5
315
  8
MyLines
 10
391.84155358809085
 20
-133.78125
 30
0.0
 11
392.4031577184084
 21
-133.78125
 31
0.0
  0
LINE
  5
316
  8
MyLines
 10
392.4031577184084
 20
-133.78125
 30
0.0
 11
392.9647618487259
 21
-133.78125
 31
0.0
  0
LINE
  5
317
  8
MyLines
 10
392.9647618487259
 20
-133.78125
 30
0.0
 11
393.52636597904353
 21
-133.78125
 31
0.0
  0
LINE
  5
318
  8
MyLines
 10
393.52636597904353
 20
-133.78125
 30
0.0
 11
394.08797010936104
 21
-133.78125
 31
0.0
  0
LINE
  5
319
  8
MyLines
 10
394.08797010936104
 20
-133.78125
 30
0.0
 11
394.6495742396786
 21
-133.78125
 31
0.0
  0
LINE
  5
31A
  8
MyLines
 10
394.6495742396786
 20
-133.78125
 30
0.0
 11
395.21117836999616
 21
-133.78125
 31
0.0
  0
LINE
  5
31B
  8
MyLines
 10
395.21117836999616
 20
-133.78125
 30
0.0
 11
395.77278250031367
 21
-133.78125
 31
0.0
  0
LINE
  5
31C
  8
MyLines
 10
395.77278250031367
 20
-133.78125
 30
0.0
 11
396.3343866306313
 21
-133.78125
 31
0.0
  0
LINE
  5
31D
  8
MyLines
 10
396.3343866306313
 20
-133.78125
 30
0.0
 11
396.8959907609488
 21
-133.78125
 31
0.0
  0
LINE
  5
31E
  8
MyLines
 10
396.8959907609488
 20
-133.78125
 30
0.0
 11
397.45759489126635
 21
-133.78125
 31
0.0
  0
LINE
  5
31F
  8
MyLines
 10
397.45759489126635
 20
-133.78125
 30
0.0
 11
398.0191990215839
 21
-133.78125
 31
0.0
  0
LINE
  5
320
  8
MyLines
 10
398.0191990215839
 20
-133.78125
 30
0.0
 11
398.5808031519015
 21
-133.78125
 31
0.0
  0
LINE
  5
321
  8
MyLines
 10
398.5808031519015
 20
-133.78125
 30
0.0
 11
399.142407282219
 21
-133.78125
 31
0.0
  0
LINE
  5
322
  8
MyLines
 10
399.142407282219
 20
-133.78125
 30
0.0
 11
399.70401141253654
 21
-133.78125
 31
0.0
  0
LINE
  5
323
  8
MyLines
 10
399.70401141253654
 20
-133.78125
 30
0.0
 11
400.2656155428541
 21
-133.78125
 31
0.0
  0
LINE
  5
324
  8
MyLines
 10
400.2656155428541
 20
-133.78125
 30
0.0
 11
400.8272196731716
 21
-133.78125
 31
0.0
  0
LINE
  5
325
  8
MyLines
 10
400.8272196731716
 20
-133.78125
 30
0.0
 11
401.38882380348923
 21
-133.78125
 31
0.0
  0
LINE
  5
326
  8
MyLines
 10
401.38882380348923
 20
-133.78125
 30
0.0
 11
401.95042793380674
 21
-133.78125
 31
0.0
  0
LINE
  5
327
  8
MyLines
 10
401.95042793380674
 20
-133.78125
 30
0.0
 11
402.5120320641243
 21
-133.78125
 31
0.0
  0
LINE
  5
328
  8
MyLines
 10
402.5120320641243
 20
-133.78125
 30
0.0
 11
403.07363619444186
 21
-133.78125
 31
0.0
  0
LINE
  5
329
  8
MyLines
 10
403.07363619444186
 20
-133.78125
 30
0.0
 11
403.63524032475937
 21
-133.78125
 31
0.0
  0
LINE
  5
32A
  8
MyLines
 10
403.63524032475937
 20
-133.78125
 30
0.0
 11
404.196844455077
 21
-133.78125
 31
0.0
  0
LINE
  5
32B
  8
MyLines
 10
404.196844455077
 20
-133.78125
 30
0.0
 11
404.7584485853945
 21
-133.78125
 31
0.0
  0
LINE
  5
32C
  8
MyLines
 10
404.7584485853945
 20
-133.78125
 30
0.0
 11
405.32005271571205
 21
-133.78125
 31
0.0
  0
LINE
  5
32D
  8
MyLines
 10
405.32005271571205
 20
-133.78125
 30
0.0
 11
405.8816568460296
 21
-133.78125
 31
0.0
  0
LINE
  5
32E
  8
MyLines
 10
405.8816568460296
 20
-133.78125
 30
0.0
 11
406.4432609763471
 21
-133.78125
 31
0.0
  0
LINE
  5
32F
  8
MyLines
 10
406.4432609763471
 20
-133.78125
 30
0.0
 11
407.0048651066647
 21
-133.78125
 31
0.0
  0
LINE
  5
330
  8
MyLines
 10
407.0048651066647
 20
-133.78125
 30
0.0
 11
407.0048651066647
 21
-133.78125
 31
0.0
  0
LINE
  5
331
  8
MyLines
 10
407.0048651066647
 20
-133.78125
 30
0.0
 11
407.0048651066647
 21
141.71875
 31
0.0
  0
LINE
  5
332
  8
MyLines
 10
407.0048651066647
 20
141.71875
 30
0.0
 11
407.0048651066647
 21
141.71875
 31
0.0
  0
LINE
  5
333
  8
MyLines
 10
407.0048651066647
 20
141.71875
 30
0.0
 11
406.6774121229602
 21
141.71875
 31
0.0
  0
LINE
  5
334
  8
MyLines
 10
406.6774121229602
 20
141.71875
 30
0.0
 11
406.34995913925565
 21
141.71875
 31
0.0
  0
LINE
  5
335
  8
MyLines
 10
406.34995913925565
 20
141.71875
 30
0.0
 11
406.0225061555511
 21
141.71875
 31
0.0
  0
LINE
  5
336
  8
MyLines
 10
406.0225061555511
 20
141.71875
 30
0.0
 11
405.69505317184655
 21
141.71875
 31
0.0
  0
LINE
  5
337
  8
MyLines
 10
405.69505317184655
 20
141.71875
 30
0.0
 11
405.3676001881421
 21
141.71875
 31
0.0
  0
LINE
  5
338
  8
MyLines
 10
405.3676001881421
 20
141.71875
 30
0.0
 11
405.0401472044375
 21
141.71875
 31
0.0
  0
LINE
  5
339
  8
MyLines
 10
405.0401472044375
 20
141.71875
 30
0.0
 11
404.712694220733
 21
141.71875
 31
0.0
  0
LINE
  5
33A
  8
MyLines
 10
404.712694220733
 20
141.71875
 30
0.0
 11
404.3852412370285
 21
141.71875
 31
0.0
  0
LINE
  5
33B
  8
MyLines
 10
404.3852412370285
 20
141.71875
 30
0.0
 11
404.05778825332396
 21
141.71875
 31
0.0
  0
LINE
  5
33C
  8
MyLines
 10
404.05778825332396
 20
141.71875
 30
0.0
 11
403.7303352696194
 21
141.71875
 31
0.0
  0
LINE
  5
33D
  8
MyLines
 10
403.7303352696194
 20
141.71875
 30
0.0
 11
403.40288228591487
 21
141.71875
 31
0.0
  0
LINE
  5
33E
  8
MyLines
 10
403.40288228591487
 20
141.71875
 30
0.0
 11
403.07542930221035
 21
141.71875
 31
0.0
  0
LINE
  5
33F
  8
MyLines
 10
403.07542930221035
 20
141.71875
 30
0.0
 11
402.74797631850583
 21
141.71875
 31
0.0
  0
LINE
  5
340
  8
MyLines
 10
402.74797631850583
 20
141.71875
 30
0.0
 11
402.42052333480126
 21
141.71875
 31
0.0
  0
LINE
  5
341
  8
MyLines
 10
402.42052333480126
 20
141.71875
 30
0.0
 11
402.0930703510968
 21
141.71875
 31
0.0
  0
LINE
  5
342
  8
MyLines
 10
402.0930703510968
 20
141.71875
 30
0.0
 11
401.7656173673922
 21
141.71875
 31
0.0
  0
LINE
  5
343
  8
MyLines
 10
401.7656173673922
 20
141.71875
 30
0.0
 11
401.4381643836877
 21
141.71875
 31
0.0
  0
LINE
  5
344
  8
MyLines
 10
401.4381643836877
 20
141.71875
 30
0.0
 11
401.11071139998313
 21
141.71875
 31
0.0
  0
LINE
  5
345
  8
MyLines
 10
401.11071139998313
 20
141.71875
 30
0.0
 11
400.78325841627867
 21
141.71875
 31
0.0
  0
LINE
  5
346
  8
MyLines
 10
400.78325841627867
 20
141.71875
 30
0.0
 11
400.4558054325741
 21
141.71875
 31
0.0
  0
LINE
  5
347
  8
MyLines
 10
400.4558054325741
 20
141.71875
 30
0.0
 11
400.1283524488696
 21
141.71875
 31
0.0
  0
LINE
  5
348
  8
MyLines
 10
400.1283524488696
 20
141.71875
 30
0.0
 11
399.80089946516506
 21
141.71875
 31
0.0
  0
LINE
  5
349
  8
MyLines
 10
399.80089946516506
 20
141.71875
 30
0.0
 11
399.47344648146054
 21
141.71875
 31
0.0
  0
LINE
  5
34A
  8
MyLines
 10
399.47344648146054
 20
141.71875
 30
0.0
 11
399.14599349775597
 21
141.71875
 31
0.0
  0
LINE
  5
34B
  8
MyLines
 10
399.14599349775597
 20
141.71875
 30
0.0
 11
398.81854051405145
 21
141.71875
 31
0.0
  0
LINE
  5
34C
  8
MyLines
 10
398.81854051405145
 20
141.71875
 30
0.0
 11
398.49108753034693
 21
141.71875
 31
0.0
  0
LINE
  5
34D
  8
MyLines
 10
398.49108753034693
 20
141.71875
 30
0.0
 11
398.1636345466424
 21
141.71875
 31
0.0
  0
LINE
  5
34E
  8
MyLines
 10
398.1636345466424
 20
141.71875
 30
0.0
 11
397.83618156293784
 21
141.71875
 31
0.0
  0
LINE
  5
34F
  8
MyLines
 10
397.83618156293784
 20
141.71875
 30
0.0
 11
397.5087285792334
 21
141.71875
 31
0.0
  0
LINE
  5
350
  8
MyLines
 10
397.5087285792334
 20
141.71875
 30
0.0
 11
397.1812755955288
 21
141.71875
 31
0.0
  0
LINE
  5
351
  8
MyLines
 10
397.1812755955288
 20
141.71875
 30
0.0
 11
396.8538226118243
 21
141.71875
 31
0.0
  0
LINE
  5
352
  8
MyLines
 10
396.8538226118243
 20
141.71875
 30
0.0
 11
396.5263696281197
 21
141.71875
 31
0.0
  0
LINE
  5
353
  8
MyLines
 10
396.5263696281197
 20
141.71875
 30
0.0
 11
396.19891664441525
 21
141.71875
 31
0.0
  0
LINE
  5
354
  8
MyLines
 10
396.19891664441525
 20
141.71875
 30
0.0
 11
395.8714636607107
 21
141.71875
 31
0.0
  0
LINE
  5
355
  8
MyLines
 10
395.8714636607107
 20
141.71875
 30
0.0
 11
395.54401067700616
 21
141.71875
 31
0.0
  0
LINE
  5
356
  8
MyLines
 10
395.54401067700616
 20
141.71875
 30
0.0
 11
395.21655769330164
 21
141.71875
 31
0.0
  0
LINE
  5
357
  8
MyLines
 10
395.21655769330164
 20
141.71875
 30
0.0
 11
394.8891047095971
 21
141.71875
 31
0.0
  0
LINE
  5
358
  8
MyLines
 10
394.8891047095971
 20
141.71875
 30
0.0
 11
394.56165172589255
 21
141.71875
 31
0.0
  0
LINE
  5
359
  8
MyLines
 10
394.56165172589255
 20
141.71875
 30
0.0
 11
394.234198742188
 21
141.71875
 31
0.0
  0
LINE
  5
35A
  8
MyLines
 10
394.234198742188
 20
141.71875
 30
0.0
 11
393.9067457584835
 21
141.71875
 31
0.0
  0
LINE
  5
35B
  8
MyLines
 10
393.9067457584835
 20
141.71875
 30
0.0
 11
393.579292774779
 21
141.71875
 31
0.0
  0
LINE
  5
35C
  8
MyLines
 10
393.579292774779
 20
141.71875
 30
0.0
 11
393.2518397910744
 21
141.71875
 31
0.0
  0
LINE
  5
35D
  8
MyLines
 10
393.2518397910744
 20
141.71875
 30
0.0
 11
392.92438680736996
 21
141.71875
 31
0.0
  0
LINE
  5
35E
  8
MyLines
 10
392.92438680736996
 20
141.71875
 30
0.0
 11
392.5969338236654
 21
141.71875
 31
0.0
  0
LINE
  5
35F
  8
MyLines
 10
392.5969338236654
 20
141.71875
 30
0.0
 11
392.26948083996086
 21
141.71875
 31
0.0
  0
LINE
  5
360
  8
MyLines
 10
392.26948083996086
 20
141.71875
 30
0.0
 11
391.9420278562563
 21
141.71875
 31
0.0
  0
LINE
  5
361
  8
MyLines
 10
391.9420278562563
 20
141.71875
 30
0.0
 11
391.6145748725518
 21
141.71875
 31
0.0
  0
LINE
  5
362
  8
MyLines
 10
391.6145748725518
 20
141.71875
 30
0.0
 11
391.28712188884725
 21
141.71875
 31
0.0
  0
LINE
  5
363
  8
MyLines
 10
391.28712188884725
 20
141.71875
 30
0.0
 11
390.95966890514273
 21
141.71875
 31
0.0
  0
LINE
  5
364
  8
MyLines
 10
390.95966890514273
 20
141.71875
 30
0.0
 11
390.95966890514273
 21
-129.8125
 31
0.0
  0
LINE
  5
365
  8
MyLines
 10
390.95966890514273
 20
-129.8125
 30
0.0
 11
390.95966890514273
 21
-129.8125
 31
0.0
  0
LINE
  5
366
  8
MyLines
 10
390.95966890514273
 20
-129.8125
 30
0.0
 11
390.95966890514273
 21
-129.8125
 31
0.0
  0
LINE
  5
367
  8
MyLines
 10
390.95966890514273
 20
-129.8125
 30
0.0
 11
390.95966890514273
 21
-129.8125
 31
0.0
  0
LINE
  5
368
  8
MyLines
 10
390.95966890514273
 20
-129.8125
 30
0.0
 11
390.95966890514273
 21
-129.8125
 31
0.0
  0
LINE
  5
369
  8
MyLines
 10
390.95966890514273
 20
-129.8125
 30
0.0
 11
390.95966890514273
 21
-129.8125
 31
0.0
  0
LINE
  5
36A
  8
MyLines
 10
390.95966890514273
 20
-129.8125
 30
0.0
 11
390.95966890514273
 21
-129.8125
 31
0.0
  0
LINE
  5
36B
  8
MyLines
 10
390.95966890514273
 20
-129.8125
 30
0.0
 11
390.95966890514273
 21
-129.8125
 31
0.0
  0
LINE
  5
36C
  8
MyLines
 10
390.95966890514273
 20
-129.8125
 30
0.0
 11
390.95966890514273
 21
-129.8125
 31
0.0
  0
LINE
  5
36D
  8
MyLines
 10
390.95966890514273
 20
-129.8125
 30
0.0
 11
390.95966890514273
 21
-129.8125
 31
0.0
  0
LINE
  5
36E
  8
MyLines
 10
390.95966890514273
 20
-129.8125
 30
0.0
 11
390.95966890514273
 21
-129.8125
 31
0.0
  0
LINE
  5
36F
  8
MyLines
 10
390.95966890514273
 20
-129.8125
 30
0.0
 11
390.95966890514273
 21
-129.8125
 31
0.0
  0
LINE
  5
370
  8
MyLines
 10
390.95966890514273
 20
-129.8125
 30
0.0
 11
390.95966890514273
 21
-129.8125
 31
0.0
  0
LINE
  5
371
  8
MyLines
 10
390.95966890514273
 20
-129.8125
 30
0.0
 11
390.95966890514273
 21
-129.8125
 31
0.0
  0
LINE
  5
372
  8
MyLines
 10
390.95966890514273
 20
-129.8125
 30
0.0
 11
390.95966890514273
 21
-129.8125
 31
0.0
  0
LINE
  5
373
  8
MyLines
 10
390.95966890514273
 20
-129.8125
 30
0.0
 11
390.95966890514273
 21
-129.8125
 31
0.0
  0
LINE
  5
374
  8
MyLines
 10
390.95966890514273
 20
-129.8125
 30
0.0
 11
390.95966890514273
 21
-129.8125
 31
0.0
  0
LINE
  5
375
  8
MyLines
 10
390.95966890514273
 20
-129.8125
 30
0.0
 11
390.95966890514273
 21
-129.8125
 31
0.0
  0
LINE
  5
376
  8
MyLines
 10
390.95966890514273
 20
-129.8125
 30
0.0
 11
390.95966890514273
 21
-129.8125
 31
0.0
  0
LINE
  5
377
  8
MyLines
 10
390.95966890514273
 20
-129.8125
 30
0.0
 11
390.95966890514273
 21
-129.8125
 31
0.0
  0
LINE
  5
378
  8
MyLines
 10
390.95966890514273
 20
-129.8125
 30
0.0
 11
390.95966890514273
 21
-129.8125
 31
0.0
  0
LINE
  5
379
  8
MyLines
 10
390.95966890514273
 20
-129.8125
 30
0.0
 11
390.95966890514273
 21
-129.8125
 31
0.0
  0
LINE
  5
37A
  8
MyLines
 10
390.95966890514273
 20
-129.8125
 30
0.0
 11
390.95966890514273
 21
-129.8125
 31
0.0
  0
LINE
  5
37B
  8
MyLines
 10
390.95966890514273
 20
-129.8125
 30
0.0
 11
390.95966890514273
 21
-129.8125
 31
0.0
  0
LINE
  5
37C
  8
MyLines
 10
390.95966890514273
 20
-129.8125
 30
0.0
 11
390.95966890514273
 21
-129.8125
 31
0.0
  0
LINE
  5
37D
  8
MyLines
 10
390.95966890514273
 20
-129.8125
 30
0.0
 11
390.95966890514273
 21
-129.8125
 31
0.0
  0
LINE
  5
37E
  8
MyLines
 10
390.95966890514273
 20
-129.8125
 30
0.0
 11
390.95966890514273
 21
-129.8125
 31
0.0
  0
LINE
  5
37F
  8
MyLines
 10
390.95966890514273
 20
-129.8125
 30
0.0
 11
390.95966890514273
 21
-129.8125
 31
0.0
  0
LINE
  5
380
  8
MyLines
 10
390.95966890514273
 20
-129.8125
 30
0.0
 11
390.95966890514273
 21
-129.8125
 31
0.0
  0
LINE
  5
381
  8
MyLines
 10
390.95966890514273
 20
-129.8125
 30
0.0
 11
390.95966890514273
 21
-129.8125
 31
0.0
  0
LINE
  5
382
  8
MyLines
 10
390.95966890514273
 20
-129.8125
 30
0.0
 11
390.95966890514273
 21
-129.8125
 31
0.0
  0
LINE
  5
383
  8
MyLines
 10
390.95966890514273
 20
-129.8125
 30
0.0
 11
390.95966890514273
 21
-129.8125
 31
0.0
  0
LINE
  5
384
  8
MyLines
 10
390.95966890514273
 20
-129.8125
 30
0.0
 11
390.95966890514273
 21
-129.8125
 31
0.0
  0
LINE
  5
385
  8
MyLines
 10
390.95966890514273
 20
-129.8125
 30
0.0
 11
390.95966890514273
 21
-129.8125
 31
0.0
  0
LINE
  5
386
  8
MyLines
 10
390.95966890514273
 20
-129.8125
 30
0.0
 11
390.95966890514273
 21
-129.8125
 31
0.0
  0
LINE
  5
387
  8
MyLines
 10
390.95966890514273
 20
-129.8125
 30
0.0
 11
390.95966890514273
 21
-129.8125
 31
0.0
  0
LINE
  5
388
  8
MyLines
 10
390.95966890514273
 20
-129.8125
 30
0.0
 11
390.95966890514273
 21
-129.8125
 31
0.0
  0
LINE
  5
389
  8
MyLines
 10
390.95966890514273
 20
-129.8125
 30
0.0
 11
390.95966890514273
 21
-129.8125
 31
0.0
  0
LINE
  5
38A
  8
MyLines
 10
390.95966890514273
 20
-129.8125
 30
0.0
 11
390.95966890514273
 21
-129.8125
 31
0.0
  0
LINE
  5
38B
  8
MyLines
 10
390.95966890514273
 20
-129.8125
 30
0.0
 11
390.95966890514273
 21
-129.8125
 31
0.0
  0
LINE
  5
38C
  8
MyLines
 10
390.95966890514273
 20
-129.8125
 30
0.0
 11
390.95966890514273
 21
-129.8125
 31
0.0
  0
LINE
  5
38D
  8
MyLines
 10
390.95966890514273
 20
-129.8125
 30
0.0
 11
390.95966890514273
 21
-129.8125
 31
0.0
  0
LINE
  5
38E
  8
MyLines
 10
390.95966890514273
 20
-129.8125
 30
0.0
 11
390.95966890514273
 21
-129.8125
 31
0.0
  0
LINE
  5
38F
  8
MyLines
 10
390.95966890514273
 20
-129.8125
 30
0.0
 11
390.95966890514273
 21
-129.8125
 31
0.0
  0
LINE
  5
390
  8
MyLines
 10
390.95966890514273
 20
-129.8125
 30
0.0
 11
390.95966890514273
 21
-129.8125
 31
0.0
  0
LINE
  5
391
  8
MyLines
 10
390.95966890514273
 20
-129.8125
 30
0.0
 11
390.95966890514273
 21
-129.8125
 31
0.0
  0
LINE
  5
392
  8
MyLines
 10
390.95966890514273
 20
-129.8125
 30
0.0
 11
390.95966890514273
 21
-129.8125
 31
0.0
  0
LINE
  5
393
  8
MyLines
 10
390.95966890514273
 20
-129.8125
 30
0.0
 11
390.95966890514273
 21
-129.8125
 31
0.0
  0
LINE
  5
394
  8
MyLines
 10
390.95966890514273
 20
-129.8125
 30
0.0
 11
390.95966890514273
 21
-129.8125
 31
0.0
  0
LINE
  5
395
  8
MyLines
 10
390.95966890514273
 20
-129.8125
 30
0.0
 11
390.95966890514273
 21
-129.8125
 31
0.0
  0
LINE
  5
396
  8
MyLines
 10
390.95966890514273
 20
-129.8125
 30
0.0
 11
390.95966890514273
 21
-129.8125
 31
0.0
  0
ENDSEC
  0
EOF
