  0
SECTION
  2
HEADER
  9
$ACADVER
  1
AC1009
  9
$DWGCODEPAGE
  3
ANSI_1252
  9
$INSBASE
 10
0.0
 20
0.0
 30
0.0
  9
$EXTMIN
 10
1e+20
 20
1e+20
 30
1e+20
  9
$EXTMAX
 10
-1e+20
 20
-1e+20
 30
-1e+20
  9
$LIMMIN
 10
0.0
 20
0.0
  9
$LIMMAX
 10
420.0
 20
297.0
  9
$ORTHOMODE
 70
0
  9
$REGENMODE
 70
1
  9
$FILLMODE
 70
1
  9
$DRAGMODE
 70
2
  9
$QTEXTMODE
 70
0
  9
$MIRRTEXT
 70
1
  9
$OSMODE
 70
20583
  9
$LTSCALE
 40
1.0
  9
$ATTMODE
 70
1
  9
$TEXTSIZE
 40
2.5
  9
$TRACEWID
 40
1.0
  9
$TEXTSTYLE
  7
Standard
  9
$CLAYER
  8
0
  9
$CELTYPE
  6
ByLayer
  9
$CECOLOR
 62
256
  9
$DIMSCALE
 40
1.0
  9
$DIMASZ
 40
2.5
  9
$DIMEXO
 40
0.625
  9
$DIMDLI
 40
3.75
  9
$DIMRND
 40
0.0
  9
$DIMDLE
 40
0.0
  9
$DIMEXE
 40
1.25
  9
$DIMTP
 40
0.0
  9
$DIMTM
 40
0.0
  9
$DIMTXT
 40
2.5
  9
$DIMCEN
 40
2.5
  9
$DIMTSZ
 40
0.0
  9
$DIMTOL
 70
0
  9
$DIMLIM
 70
0
  9
$DIMTIH
 70
0
  9
$DIMTOH
 70
0
  9
$DIMSE1
 70
0
  9
$DIMSE2
 70
0
  9
$DIMTAD
 70
1
  9
$DIMZIN
 70
8
  9
$DIMBLK
  1

  9
$DIMASO
 70
1
  9
$DIMSHO
 70
1
  9
$DIMPOST
  1

  9
$DIMAPOST
  1

  9
$DIMALT
 70
0
  9
$DIMALTD
 70
3
  9
$DIMALTF
 40
0.03937007874
  9
$DIMLFAC
 40
1.0
  9
$DIMTOFL
 70
1
  9
$DIMTVP
 40
0.0
  9
$DIMTIX
 70
0
  9
$DIMSOXD
 70
0
  9
$DIMSAH
 70
0
  9
$DIMBLK1
  1

  9
$DIMBLK2
  1

  9
$DIMSTYLE
  2
ISO-25
  9
$DIMCLRD
 70
0
  9
$DIMCLRE
 70
0
  9
$DIMCLRT
 70
0
  9
$DIMTFAC
 40
1.0
  9
$DIMGAP
 40
0.625
  9
$COORDS
 70
1
  9
$ATTDIA
 70
0
  9
$ATTREQ
 70
1
  9
$HANDLING
 70
1
  9
$LUNITS
 70
2
  9
$LUPREC
 70
4
  9
$SKETCHINC
 40
1.0
  9
$FILLETRAD
 40
10.0
  9
$AUNITS
 70
0
  9
$AUPREC
 70
2
  9
$MENU
  1
.
  9
$ELEVATION
 40
0.0
  9
$PELEVATION
 40
0.0
  9
$THICKNESS
 40
0.0
  9
$LIMCHECK
 70
0
  9
$CHAMFERA
 40
0.0
  9
$CHAMFERB
 40
0.0
  9
$SKPOLY
 70
0
  9
$TDCREATE
 40
2459340.736284722
  9
$TDUPDATE
 40
2459340.736284722
  9
$TDINDWG
 40
0.0
  9
$TDUSRTIMER
 40
0.0
  9
$USRTIMER
 70
1
  9
$ANGBASE
 50
0.0
  9
$ANGDIR
 70
0
  9
$PDMODE
 70
0
  9
$PDSIZE
 40
0.0
  9
$PLINEWID
 40
0.0
  9
$SPLFRAME
 70
0
  9
$SPLINETYPE
 70
6
  9
$SPLINESEGS
 70
8
  9
$HANDSEED
  5
60
  9
$SURFTAB1
 70
6
  9
$SURFTAB2
 70
6
  9
$SURFTYPE
 70
6
  9
$SURFU
 70
6
  9
$SURFV
 70
6
  9
$UCSNAME
  2

  9
$UCSORG
 10
0.0
 20
0.0
 30
0.0
  9
$UCSXDIR
 10
1.0
 20
0.0
 30
0.0
  9
$UCSYDIR
 10
0.0
 20
1.0
 30
0.0
  9
$PUCSNAME
  2

  9
$PUCSORG
 10
0.0
 20
0.0
 30
0.0
  9
$PUCSXDIR
 10
1.0
 20
0.0
 30
0.0
  9
$PUCSYDIR
 10
0.0
 20
1.0
 30
0.0
  9
$USERI1
 70
0
  9
$USERI2
 70
0
  9
$USERI3
 70
0
  9
$USERI4
 70
0
  9
$USERI5
 70
0
  9
$USERR1
 40
0.0
  9
$USERR2
 40
0.0
  9
$USERR3
 40
0.0
  9
$USERR4
 40
0.0
  9
$USERR5
 40
0.0
  9
$WORLDVIEW
 70
1
  9
$SHADEDGE
 70
3
  9
$SHADEDIF
 70
70
  9
$TILEMODE
 70
1
  9
$MAXACTVP
 70
64
  9
$PLIMCHECK
 70
0
  9
$PEXTMIN
 10
1e+20
 20
1e+20
 30
1e+20
  9
$PEXTMAX
 10
-1e+20
 20
-1e+20
 30
-1e+20
  9
$PLIMMIN
 10
0.0
 20
0.0
  9
$PLIMMAX
 10
420.0
 20
297.0
  9
$UNITMODE
 70
0
  9
$VISRETAIN
 70
1
  9
$PLINEGEN
 70
0
  9
$PSLTSCALE
 70
1
  0
ENDSEC
  0
SECTION
  2
TABLES
  0
TABLE
  2
VPORT
 70
1
  0
VPORT
  5
23
  2
*Active
 70
0
 10
0.0
 20
0.0
 11
1.0
 21
1.0
 12
344.2
 22
148.5
 13
0.0
 23
0.0
 14
0.5
 24
0.5
 15
0.5
 25
0.5
 16
0.0
 26
0.0
 36
1.0
 17
0.0
 27
0.0
 37
0.0
 40
297.0
 41
1.34
 42
50.0
 43
0.0
 44
0.0
 50
0.0
 51
0.0
 71
0
 72
1000
 73
1
 74
3
 75
0
 76
0
 77
0
 78
0
  0
ENDTAB
  0
TABLE
  2
LTYPE
 70
3
  0
LTYPE
  5
24
  2
ByBlock
 70
0
  3

 72
65
 73
0
 40
0.0
  0
LTYPE
  5
25
  2
ByLayer
 70
0
  3

 72
65
 73
0
 40
0.0
  0
LTYPE
  5
26
  2
Continuous
 70
0
  3

 72
65
 73
0
 40
0.0
  0
ENDTAB
  0
TABLE
  2
LAYER
 70
3
  0
LAYER
  5
27
  2
0
 70
0
 62
7
  6
Continuous
  0
LAYER
  5
28
  2
Defpoints
 70
0
 62
7
  6
Continuous
  0
LAYER
  5
2D
  2
MyLines
 70
0
 62
7
  6
DASHED
  0
ENDTAB
  0
TABLE
  2
STYLE
 70
1
  0
STYLE
  5
29
  2
Standard
 70
0
 40
0.0
 41
1.0
 50
0.0
 71
0
 42
2.5
  3
txt
  4

  0
ENDTAB
  0
TABLE
  2
VIEW
 70
0
  0
ENDTAB
  0
TABLE
  2
UCS
 70
0
  0
ENDTAB
  0
TABLE
  2
APPID
 70
2
  0
APPID
  5
2A
  2
ACAD
 70
0
  0
APPID
  5
5F
  2
HATCHBACKGROUNDCOLOR
 70
0
  0
ENDTAB
  0
TABLE
  2
DIMSTYLE
 70
1
  0
DIMSTYLE
105
2B
  2
Standard
 70
0
  3

  4

  5

  6

  7

 40
1.0
 41
2.5
 42
0.625
 43
3.75
 44
1.25
 45
0.0
 46
0.0
 47
0.0
 48
0.0
140
2.5
141
2.5
142
0.0
143
0.03937007874
144
1.0
145
0.0
146
1.0
147
0.625
 71
0
 72
0
 73
0
 74
0
 75
0
 76
0
 77
1
 78
8
170
0
171
3
172
1
173
0
174
0
175
0
176
0
177
0
178
0
  0
ENDTAB
  0
ENDSEC
  0
SECTION
  2
BLOCKS
  0
BLOCK
  5
18
  8
0
  2
$Model_Space
 70
0
 10
0.0
 20
0.0
 30
0.0
  3
$Model_Space
  1

  0
ENDBLK
  5
19
  8
0
  0
BLOCK
  5
1C
  8
0
  2
$Paper_Space
 70
0
 10
0.0
 20
0.0
 30
0.0
  3
$Paper_Space
  1

  0
ENDBLK
  5
1D
  8
0
  0
ENDSEC
  0
SECTION
  2
ENTITIES
  0
LINE
  5
2E
  8
MyLines
 10
390.95966890514273
 20
-169.5
 30
0.0
 11
384.1211789631176
 21
-169.5
 31
0.0
  0
LINE
  5
2F
  8
MyLines
 10
384.1211789631176
 20
-169.5
 30
0.0
 11
377.2826890210925
 21
-169.5
 31
0.0
  0
LINE
  5
30
  8
MyLines
 10
377.2826890210925
 20
-169.5
 30
0.0
 11
370.4441990790674
 21
-169.5
 31
0.0
  0
LINE
  5
31
  8
MyLines
 10
370.4441990790674
 20
-169.5
 30
0.0
 11
363.60570913704225
 21
-169.5
 31
0.0
  0
LINE
  5
32
  8
MyLines
 10
363.60570913704225
 20
-169.5
 30
0.0
 11
356.7672191950171
 21
-169.5
 31
0.0
  0
LINE
  5
33
  8
MyLines
 10
356.7672191950171
 20
-169.5
 30
0.0
 11
349.928729252992
 21
-169.5
 31
0.0
  0
LINE
  5
34
  8
MyLines
 10
349.928729252992
 20
-169.5
 30
0.0
 11
343.09023931096687
 21
-169.5
 31
0.0
  0
LINE
  5
35
  8
MyLines
 10
343.09023931096687
 20
-169.5
 30
0.0
 11
336.2517493689417
 21
-169.5
 31
0.0
  0
LINE
  5
36
  8
MyLines
 10
336.2517493689417
 20
-169.5
 30
0.0
 11
329.4132594269166
 21
-169.5
 31
0.0
  0
LINE
  5
37
  8
MyLines
 10
329.4132594269166
 20
-169.5
 30
0.0
 11
322.5747694848915
 21
-169.5
 31
0.0
  0
LINE
  5
38
  8
MyLines
 10
322.5747694848915
 20
-169.5
 30
0.0
 11
315.7362795428663
 21
-169.5
 31
0.0
  0
LINE
  5
39
  8
MyLines
 10
315.7362795428663
 20
-169.5
 30
0.0
 11
308.8977896008412
 21
-169.5
 31
0.0
  0
LINE
  5
3A
  8
MyLines
 10
308.8977896008412
 20
-169.5
 30
0.0
 11
302.0592996588161
 21
-169.5
 31
0.0
  0
LINE
  5
3B
  8
MyLines
 10
302.0592996588161
 20
-169.5
 30
0.0
 11
295.22080971679094
 21
-169.5
 31
0.0
  0
LINE
  5
3C
  8
MyLines
 10
295.22080971679094
 20
-169.5
 30
0.0
 11
288.3823197747658
 21
-169.5
 31
0.0
  0
LINE
  5
3D
  8
MyLines
 10
288.3823197747658
 20
-169.5
 30
0.0
 11
281.5438298327407
 21
-169.5
 31
0.0
  0
LINE
  5
3E
  8
MyLines
 10
281.5438298327407
 20
-169.5
 30
0.0
 11
274.7053398907156
 21
-169.5
 31
0.0
  0
LINE
  5
3F
  8
MyLines
 10
274.7053398907156
 20
-169.5
 30
0.0
 11
267.86684994869046
 21
-169.5
 31
0.0
  0
LINE
  5
40
  8
MyLines
 10
267.86684994869046
 20
-169.5
 30
0.0
 11
261.02836000666537
 21
-169.5
 31
0.0
  0
LINE
  5
41
  8
MyLines
 10
261.02836000666537
 20
-169.5
 30
0.0
 11
254.18987006464022
 21
-169.5
 31
0.0
  0
LINE
  5
42
  8
MyLines
 10
254.18987006464022
 20
-169.5
 30
0.0
 11
247.35138012261507
 21
-169.5
 31
0.0
  0
LINE
  5
43
  8
MyLines
 10
247.35138012261507
 20
-169.5
 30
0.0
 11
240.51289018058992
 21
-169.5
 31
0.0
  0
LINE
  5
44
  8
MyLines
 10
240.51289018058992
 20
-169.5
 30
0.0
 11
233.6744002385648
 21
-169.5
 31
0.0
  0
LINE
  5
45
  8
MyLines
 10
233.6744002385648
 20
-169.5
 30
0.0
 11
226.83591029653968
 21
-169.5
 31
0.0
  0
LINE
  5
46
  8
MyLines
 10
226.83591029653968
 20
-169.5
 30
0.0
 11
219.99742035451453
 21
-169.5
 31
0.0
  0
LINE
  5
47
  8
MyLines
 10
219.99742035451453
 20
-169.5
 30
0.0
 11
213.15893041248944
 21
-169.5
 31
0.0
  0
LINE
  5
48
  8
MyLines
 10
213.15893041248944
 20
-169.5
 30
0.0
 11
206.3204404704643
 21
-169.5
 31
0.0
  0
LINE
  5
49
  8
MyLines
 10
206.3204404704643
 20
-169.5
 30
0.0
 11
199.48195052843917
 21
-169.5
 31
0.0
  0
LINE
  5
4A
  8
MyLines
 10
199.48195052843917
 20
-169.5
 30
0.0
 11
192.64346058641402
 21
-169.5
 31
0.0
  0
LINE
  5
4B
  8
MyLines
 10
192.64346058641402
 20
-169.5
 30
0.0
 11
185.8049706443889
 21
-169.5
 31
0.0
  0
LINE
  5
4C
  8
MyLines
 10
185.8049706443889
 20
-169.5
 30
0.0
 11
178.96648070236375
 21
-169.5
 31
0.0
  0
LINE
  5
4D
  8
MyLines
 10
178.96648070236375
 20
-169.5
 30
0.0
 11
172.12799076033863
 21
-169.5
 31
0.0
  0
LINE
  5
4E
  8
MyLines
 10
172.12799076033863
 20
-169.5
 30
0.0
 11
165.28950081831354
 21
-169.5
 31
0.0
  0
LINE
  5
4F
  8
MyLines
 10
165.28950081831354
 20
-169.5
 30
0.0
 11
158.4510108762884
 21
-169.5
 31
0.0
  0
LINE
  5
50
  8
MyLines
 10
158.4510108762884
 20
-169.5
 30
0.0
 11
151.61252093426327
 21
-169.5
 31
0.0
  0
LINE
  5
51
  8
MyLines
 10
151.61252093426327
 20
-169.5
 30
0.0
 11
144.77403099223812
 21
-169.5
 31
0.0
  0
LINE
  5
52
  8
MyLines
 10
144.77403099223812
 20
-169.5
 30
0.0
 11
137.935541050213
 21
-169.5
 31
0.0
  0
LINE
  5
53
  8
MyLines
 10
137.935541050213
 20
-169.5
 30
0.0
 11
131.09705110818788
 21
-169.5
 31
0.0
  0
LINE
  5
54
  8
MyLines
 10
131.09705110818788
 20
-169.5
 30
0.0
 11
124.25856116616275
 21
-169.5
 31
0.0
  0
LINE
  5
55
  8
MyLines
 10
124.25856116616275
 20
-169.5
 30
0.0
 11
117.4200712241376
 21
-169.5
 31
0.0
  0
LINE
  5
56
  8
MyLines
 10
117.4200712241376
 20
-169.5
 30
0.0
 11
110.58158128211252
 21
-169.5
 31
0.0
  0
LINE
  5
57
  8
MyLines
 10
110.58158128211252
 20
-169.5
 30
0.0
 11
103.74309134008737
 21
-169.5
 31
0.0
  0
LINE
  5
58
  8
MyLines
 10
103.74309134008737
 20
-169.5
 30
0.0
 11
96.90460139806223
 21
-169.5
 31
0.0
  0
LINE
  5
59
  8
MyLines
 10
96.90460139806223
 20
-169.5
 30
0.0
 11
90.06611145603709
 21
-169.5
 31
0.0
  0
LINE
  5
5A
  8
MyLines
 10
90.06611145603709
 20
-169.5
 30
0.0
 11
83.227621514012
 21
-169.5
 31
0.0
  0
LINE
  5
5B
  8
MyLines
 10
83.227621514012
 20
-169.5
 30
0.0
 11
76.38913157198685
 21
-169.5
 31
0.0
  0
LINE
  5
5C
  8
MyLines
 10
76.38913157198685
 20
-169.5
 30
0.0
 11
69.5506416299617
 21
-169.5
 31
0.0
  0
LINE
  5
5D
  8
MyLines
 10
69.5506416299617
 20
-169.5
 30
0.0
 11
62.712151687936625
 21
-169.5
 31
0.0
  0
LINE
  5
5E
  8
MyLines
 10
62.712151687936625
 20
-169.5
 30
0.0
 11
55.873661745911505
 21
-169.5
 31
0.0
  0
ENDSEC
  0
EOF
