  0
SECTION
  2
HEADER
  9
$ACADVER
  1
AC1009
  9
$DWGCODEPAGE
  3
ANSI_1252
  9
$INSBASE
 10
0.0
 20
0.0
 30
0.0
  9
$EXTMIN
 10
1e+20
 20
1e+20
 30
1e+20
  9
$EXTMAX
 10
-1e+20
 20
-1e+20
 30
-1e+20
  9
$LIMMIN
 10
0.0
 20
0.0
  9
$LIMMAX
 10
420.0
 20
297.0
  9
$ORTHOMODE
 70
0
  9
$REGENMODE
 70
1
  9
$FILLMODE
 70
1
  9
$DRAGMODE
 70
2
  9
$QTEXTMODE
 70
0
  9
$MIRRTEXT
 70
1
  9
$OSMODE
 70
20583
  9
$LTSCALE
 40
1.0
  9
$ATTMODE
 70
1
  9
$TEXTSIZE
 40
2.5
  9
$TRACEWID
 40
1.0
  9
$TEXTSTYLE
  7
Standard
  9
$CLAYER
  8
0
  9
$CELTYPE
  6
ByLayer
  9
$CECOLOR
 62
256
  9
$DIMSCALE
 40
1.0
  9
$DIMASZ
 40
2.5
  9
$DIMEXO
 40
0.625
  9
$DIMDLI
 40
3.75
  9
$DIMRND
 40
0.0
  9
$DIMDLE
 40
0.0
  9
$DIMEXE
 40
1.25
  9
$DIMTP
 40
0.0
  9
$DIMTM
 40
0.0
  9
$DIMTXT
 40
2.5
  9
$DIMCEN
 40
2.5
  9
$DIMTSZ
 40
0.0
  9
$DIMTOL
 70
0
  9
$DIMLIM
 70
0
  9
$DIMTIH
 70
0
  9
$DIMTOH
 70
0
  9
$DIMSE1
 70
0
  9
$DIMSE2
 70
0
  9
$DIMTAD
 70
1
  9
$DIMZIN
 70
8
  9
$DIMBLK
  1

  9
$DIMASO
 70
1
  9
$DIMSHO
 70
1
  9
$DIMPOST
  1

  9
$DIMAPOST
  1

  9
$DIMALT
 70
0
  9
$DIMALTD
 70
3
  9
$DIMALTF
 40
0.03937007874
  9
$DIMLFAC
 40
1.0
  9
$DIMTOFL
 70
1
  9
$DIMTVP
 40
0.0
  9
$DIMTIX
 70
0
  9
$DIMSOXD
 70
0
  9
$DIMSAH
 70
0
  9
$DIMBLK1
  1

  9
$DIMBLK2
  1

  9
$DIMSTYLE
  2
ISO-25
  9
$DIMCLRD
 70
0
  9
$DIMCLRE
 70
0
  9
$DIMCLRT
 70
0
  9
$DIMTFAC
 40
1.0
  9
$DIMGAP
 40
0.625
  9
$COORDS
 70
1
  9
$ATTDIA
 70
0
  9
$ATTREQ
 70
1
  9
$HANDLING
 70
1
  9
$LUNITS
 70
2
  9
$LUPREC
 70
4
  9
$SKETCHINC
 40
1.0
  9
$FILLETRAD
 40
10.0
  9
$AUNITS
 70
0
  9
$AUPREC
 70
2
  9
$MENU
  1
.
  9
$ELEVATION
 40
0.0
  9
$PELEVATION
 40
0.0
  9
$THICKNESS
 40
0.0
  9
$LIMCHECK
 70
0
  9
$CHAMFERA
 40
0.0
  9
$CHAMFERB
 40
0.0
  9
$SKPOLY
 70
0
  9
$TDCREATE
 40
2459340.736284722
  9
$TDUPDATE
 40
2459340.736284722
  9
$TDINDWG
 40
0.0
  9
$TDUSRTIMER
 40
0.0
  9
$USRTIMER
 70
1
  9
$ANGBASE
 50
0.0
  9
$ANGDIR
 70
0
  9
$PDMODE
 70
0
  9
$PDSIZE
 40
0.0
  9
$PLINEWID
 40
0.0
  9
$SPLFRAME
 70
0
  9
$SPLINETYPE
 70
6
  9
$SPLINESEGS
 70
8
  9
$HANDSEED
  5
367
  9
$SURFTAB1
 70
6
  9
$SURFTAB2
 70
6
  9
$SURFTYPE
 70
6
  9
$SURFU
 70
6
  9
$SURFV
 70
6
  9
$UCSNAME
  2

  9
$UCSORG
 10
0.0
 20
0.0
 30
0.0
  9
$UCSXDIR
 10
1.0
 20
0.0
 30
0.0
  9
$UCSYDIR
 10
0.0
 20
1.0
 30
0.0
  9
$PUCSNAME
  2

  9
$PUCSORG
 10
0.0
 20
0.0
 30
0.0
  9
$PUCSXDIR
 10
1.0
 20
0.0
 30
0.0
  9
$PUCSYDIR
 10
0.0
 20
1.0
 30
0.0
  9
$USERI1
 70
0
  9
$USERI2
 70
0
  9
$USERI3
 70
0
  9
$USERI4
 70
0
  9
$USERI5
 70
0
  9
$USERR1
 40
0.0
  9
$USERR2
 40
0.0
  9
$USERR3
 40
0.0
  9
$USERR4
 40
0.0
  9
$USERR5
 40
0.0
  9
$WORLDVIEW
 70
1
  9
$SHADEDGE
 70
3
  9
$SHADEDIF
 70
70
  9
$TILEMODE
 70
1
  9
$MAXACTVP
 70
64
  9
$PLIMCHECK
 70
0
  9
$PEXTMIN
 10
1e+20
 20
1e+20
 30
1e+20
  9
$PEXTMAX
 10
-1e+20
 20
-1e+20
 30
-1e+20
  9
$PLIMMIN
 10
0.0
 20
0.0
  9
$PLIMMAX
 10
420.0
 20
297.0
  9
$UNITMODE
 70
0
  9
$VISRETAIN
 70
1
  9
$PLINEGEN
 70
0
  9
$PSLTSCALE
 70
1
  0
ENDSEC
  0
SECTION
  2
TABLES
  0
TABLE
  2
VPORT
 70
1
  0
VPORT
  5
23
  2
*Active
 70
0
 10
0.0
 20
0.0
 11
1.0
 21
1.0
 12
344.2
 22
148.5
 13
0.0
 23
0.0
 14
0.5
 24
0.5
 15
0.5
 25
0.5
 16
0.0
 26
0.0
 36
1.0
 17
0.0
 27
0.0
 37
0.0
 40
297.0
 41
1.34
 42
50.0
 43
0.0
 44
0.0
 50
0.0
 51
0.0
 71
0
 72
1000
 73
1
 74
3
 75
0
 76
0
 77
0
 78
0
  0
ENDTAB
  0
TABLE
  2
LTYPE
 70
3
  0
LTYPE
  5
24
  2
ByBlock
 70
0
  3

 72
65
 73
0
 40
0.0
  0
LTYPE
  5
25
  2
ByLayer
 70
0
  3

 72
65
 73
0
 40
0.0
  0
LTYPE
  5
26
  2
Continuous
 70
0
  3

 72
65
 73
0
 40
0.0
  0
ENDTAB
  0
TABLE
  2
LAYER
 70
3
  0
LAYER
  5
27
  2
0
 70
0
 62
7
  6
Continuous
  0
LAYER
  5
28
  2
Defpoints
 70
0
 62
7
  6
Continuous
  0
LAYER
  5
2D
  2
MyLines
 70
0
 62
7
  6
DASHED
  0
ENDTAB
  0
TABLE
  2
STYLE
 70
1
  0
STYLE
  5
29
  2
Standard
 70
0
 40
0.0
 41
1.0
 50
0.0
 71
0
 42
2.5
  3
txt
  4

  0
ENDTAB
  0
TABLE
  2
VIEW
 70
0
  0
ENDTAB
  0
TABLE
  2
UCS
 70
0
  0
ENDTAB
  0
TABLE
  2
APPID
 70
2
  0
APPID
  5
2A
  2
ACAD
 70
0
  0
APPID
  5
366
  2
HATCHBACKGROUNDCOLOR
 70
0
  0
ENDTAB
  0
TABLE
  2
DIMSTYLE
 70
1
  0
DIMSTYLE
105
2B
  2
Standard
 70
0
  3

  4

  5

  6

  7

 40
1.0
 41
2.5
 42
0.625
 43
3.75
 44
1.25
 45
0.0
 46
0.0
 47
0.0
 48
0.0
140
2.5
141
2.5
142
0.0
143
0.03937007874
144
1.0
145
0.0
146
1.0
147
0.625
 71
0
 72
0
 73
0
 74
0
 75
0
 76
0
 77
1
 78
8
170
0
171
3
172
1
173
0
174
0
175
0
176
0
177
0
178
0
  0
ENDTAB
  0
ENDSEC
  0
SECTION
  2
BLOCKS
  0
BLOCK
  5
18
  8
0
  2
$Model_Space
 70
0
 10
0.0
 20
0.0
 30
0.0
  3
$Model_Space
  1

  0
ENDBLK
  5
19
  8
0
  0
BLOCK
  5
1C
  8
0
  2
$Paper_Space
 70
0
 10
0.0
 20
0.0
 30
0.0
  3
$Paper_Space
  1

  0
ENDBLK
  5
1D
  8
0
  0
ENDSEC
  0
SECTION
  2
ENTITIES
  0
LINE
  5
2E
  8
MyLines
 10
1.9895793197930383
 20
-169.5
 30
0.0
 11
1.9895793197930383
 21
-161.5625
 31
0.0
  0
LINE
  5
2F
  8
MyLines
 10
1.9895793197930383
 20
-161.5625
 30
0.0
 11
1.9895793197930383
 21
169.5
 31
0.0
  0
LINE
  5
30
  8
MyLines
 10
1.9895793197930383
 20
169.5
 30
0.0
 11
1.9895793197930383
 21
169.5
 31
0.0
  0
LINE
  5
31
  8
MyLines
 10
1.9895793197930383
 20
169.5
 30
0.0
 11
3.9439958118724228
 21
169.5
 31
0.0
  0
LINE
  5
32
  8
MyLines
 10
3.9439958118724228
 20
169.5
 30
0.0
 11
5.898412303951808
 21
169.5
 31
0.0
  0
LINE
  5
33
  8
MyLines
 10
5.898412303951808
 20
169.5
 30
0.0
 11
7.852828796031193
 21
169.5
 31
0.0
  0
LINE
  5
34
  8
MyLines
 10
7.852828796031193
 20
169.5
 30
0.0
 11
9.807245288110579
 21
169.5
 31
0.0
  0
LINE
  5
35
  8
MyLines
 10
9.807245288110579
 20
169.5
 30
0.0
 11
11.761661780189964
 21
169.5
 31
0.0
  0
LINE
  5
36
  8
MyLines
 10
11.761661780189964
 20
169.5
 30
0.0
 11
13.716078272269346
 21
169.5
 31
0.0
  0
LINE
  5
37
  8
MyLines
 10
13.716078272269346
 20
169.5
 30
0.0
 11
15.670494764348732
 21
169.5
 31
0.0
  0
LINE
  5
38
  8
MyLines
 10
15.670494764348732
 20
169.5
 30
0.0
 11
17.624911256428117
 21
169.5
 31
0.0
  0
LINE
  5
39
  8
MyLines
 10
17.624911256428117
 20
169.5
 30
0.0
 11
19.579327748507502
 21
169.5
 31
0.0
  0
LINE
  5
3A
  8
MyLines
 10
19.579327748507502
 20
169.5
 30
0.0
 11
21.533744240586888
 21
169.5
 31
0.0
  0
LINE
  5
3B
  8
MyLines
 10
21.533744240586888
 20
169.5
 30
0.0
 11
23.48816073266627
 21
169.5
 31
0.0
  0
LINE
  5
3C
  8
MyLines
 10
23.48816073266627
 20
169.5
 30
0.0
 11
25.44257722474566
 21
169.5
 31
0.0
  0
LINE
  5
3D
  8
MyLines
 10
25.44257722474566
 20
169.5
 30
0.0
 11
27.396993716825044
 21
169.5
 31
0.0
  0
LINE
  5
3E
  8
MyLines
 10
27.396993716825044
 20
169.5
 30
0.0
 11
29.351410208904426
 21
169.5
 31
0.0
  0
LINE
  5
3F
  8
MyLines
 10
29.351410208904426
 20
169.5
 30
0.0
 11
31.30582670098381
 21
169.5
 31
0.0
  0
LINE
  5
40
  8
MyLines
 10
31.30582670098381
 20
169.5
 30
0.0
 11
33.2602431930632
 21
169.5
 31
0.0
  0
LINE
  5
41
  8
MyLines
 10
33.2602431930632
 20
169.5
 30
0.0
 11
35.21465968514258
 21
169.5
 31
0.0
  0
LINE
  5
42
  8
MyLines
 10
35.21465968514258
 20
169.5
 30
0.0
 11
37.16907617722197
 21
169.5
 31
0.0
  0
LINE
  5
43
  8
MyLines
 10
37.16907617722197
 20
169.5
 30
0.0
 11
39.12349266930135
 21
169.5
 31
0.0
  0
LINE
  5
44
  8
MyLines
 10
39.12349266930135
 20
169.5
 30
0.0
 11
41.07790916138074
 21
169.5
 31
0.0
  0
LINE
  5
45
  8
MyLines
 10
41.07790916138074
 20
169.5
 30
0.0
 11
43.03232565346012
 21
169.5
 31
0.0
  0
LINE
  5
46
  8
MyLines
 10
43.03232565346012
 20
169.5
 30
0.0
 11
44.9867421455395
 21
169.5
 31
0.0
  0
LINE
  5
47
  8
MyLines
 10
44.9867421455395
 20
169.5
 30
0.0
 11
46.94115863761889
 21
169.5
 31
0.0
  0
LINE
  5
48
  8
MyLines
 10
46.94115863761889
 20
169.5
 30
0.0
 11
48.89557512969827
 21
169.5
 31
0.0
  0
LINE
  5
49
  8
MyLines
 10
48.89557512969827
 20
169.5
 30
0.0
 11
50.849991621777654
 21
169.5
 31
0.0
  0
LINE
  5
4A
  8
MyLines
 10
50.849991621777654
 20
169.5
 30
0.0
 11
52.80440811385704
 21
169.5
 31
0.0
  0
LINE
  5
4B
  8
MyLines
 10
52.80440811385704
 20
169.5
 30
0.0
 11
54.758824605936425
 21
169.5
 31
0.0
  0
LINE
  5
4C
  8
MyLines
 10
54.758824605936425
 20
169.5
 30
0.0
 11
56.71324109801581
 21
169.5
 31
0.0
  0
LINE
  5
4D
  8
MyLines
 10
56.71324109801581
 20
169.5
 30
0.0
 11
58.6676575900952
 21
169.5
 31
0.0
  0
LINE
  5
4E
  8
MyLines
 10
58.6676575900952
 20
169.5
 30
0.0
 11
60.622074082174585
 21
169.5
 31
0.0
  0
LINE
  5
4F
  8
MyLines
 10
60.622074082174585
 20
169.5
 30
0.0
 11
62.576490574253974
 21
169.5
 31
0.0
  0
LINE
  5
50
  8
MyLines
 10
62.576490574253974
 20
169.5
 30
0.0
 11
64.53090706633336
 21
169.5
 31
0.0
  0
LINE
  5
51
  8
MyLines
 10
64.53090706633336
 20
169.5
 30
0.0
 11
66.48532355841273
 21
169.5
 31
0.0
  0
LINE
  5
52
  8
MyLines
 10
66.48532355841273
 20
169.5
 30
0.0
 11
68.43974005049212
 21
169.5
 31
0.0
  0
LINE
  5
53
  8
MyLines
 10
68.43974005049212
 20
169.5
 30
0.0
 11
70.39415654257151
 21
169.5
 31
0.0
  0
LINE
  5
54
  8
MyLines
 10
70.39415654257151
 20
169.5
 30
0.0
 11
72.3485730346509
 21
169.5
 31
0.0
  0
LINE
  5
55
  8
MyLines
 10
72.3485730346509
 20
169.5
 30
0.0
 11
74.30298952673027
 21
169.5
 31
0.0
  0
LINE
  5
56
  8
MyLines
 10
74.30298952673027
 20
169.5
 30
0.0
 11
76.25740601880966
 21
169.5
 31
0.0
  0
LINE
  5
57
  8
MyLines
 10
76.25740601880966
 20
169.5
 30
0.0
 11
78.21182251088904
 21
169.5
 31
0.0
  0
LINE
  5
58
  8
MyLines
 10
78.21182251088904
 20
169.5
 30
0.0
 11
80.16623900296844
 21
169.5
 31
0.0
  0
LINE
  5
59
  8
MyLines
 10
80.16623900296844
 20
169.5
 30
0.0
 11
82.12065549504783
 21
169.5
 31
0.0
  0
LINE
  5
5A
  8
MyLines
 10
82.12065549504783
 20
169.5
 30
0.0
 11
84.0750719871272
 21
169.5
 31
0.0
  0
LINE
  5
5B
  8
MyLines
 10
84.0750719871272
 20
169.5
 30
0.0
 11
86.02948847920659
 21
169.5
 31
0.0
  0
LINE
  5
5C
  8
MyLines
 10
86.02948847920659
 20
169.5
 30
0.0
 11
87.98390497128597
 21
169.5
 31
0.0
  0
LINE
  5
5D
  8
MyLines
 10
87.98390497128597
 20
169.5
 30
0.0
 11
89.93832146336536
 21
169.5
 31
0.0
  0
LINE
  5
5E
  8
MyLines
 10
89.93832146336536
 20
169.5
 30
0.0
 11
91.89273795544474
 21
169.5
 31
0.0
  0
LINE
  5
5F
  8
MyLines
 10
91.89273795544474
 20
169.5
 30
0.0
 11
93.84715444752413
 21
169.5
 31
0.0
  0
LINE
  5
60
  8
MyLines
 10
93.84715444752413
 20
169.5
 30
0.0
 11
95.80157093960351
 21
169.5
 31
0.0
  0
LINE
  5
61
  8
MyLines
 10
95.80157093960351
 20
169.5
 30
0.0
 11
97.7559874316829
 21
169.5
 31
0.0
  0
LINE
  5
62
  8
MyLines
 10
97.7559874316829
 20
169.5
 30
0.0
 11
97.7559874316829
 21
-157.59375
 31
0.0
  0
LINE
  5
63
  8
MyLines
 10
97.7559874316829
 20
-157.59375
 30
0.0
 11
97.7559874316829
 21
-157.59375
 31
0.0
  0
LINE
  5
64
  8
MyLines
 10
97.7559874316829
 20
-157.59375
 30
0.0
 11
95.88343418552964
 21
-157.59375
 31
0.0
  0
LINE
  5
65
  8
MyLines
 10
95.88343418552964
 20
-157.59375
 30
0.0
 11
94.01088093937639
 21
-157.59375
 31
0.0
  0
LINE
  5
66
  8
MyLines
 10
94.01088093937639
 20
-157.59375
 30
0.0
 11
92.13832769322313
 21
-157.59375
 31
0.0
  0
LINE
  5
67
  8
MyLines
 10
92.13832769322313
 20
-157.59375
 30
0.0
 11
90.26577444706987
 21
-157.59375
 31
0.0
  0
LINE
  5
68
  8
MyLines
 10
90.26577444706987
 20
-157.59375
 30
0.0
 11
88.39322120091664
 21
-157.59375
 31
0.0
  0
LINE
  5
69
  8
MyLines
 10
88.39322120091664
 20
-157.59375
 30
0.0
 11
86.52066795476338
 21
-157.59375
 31
0.0
  0
LINE
  5
6A
  8
MyLines
 10
86.52066795476338
 20
-157.59375
 30
0.0
 11
84.64811470861012
 21
-157.59375
 31
0.0
  0
LINE
  5
6B
  8
MyLines
 10
84.64811470861012
 20
-157.59375
 30
0.0
 11
82.77556146245688
 21
-157.59375
 31
0.0
  0
LINE
  5
6C
  8
MyLines
 10
82.77556146245688
 20
-157.59375
 30
0.0
 11
80.90300821630362
 21
-157.59375
 31
0.0
  0
LINE
  5
6D
  8
MyLines
 10
80.90300821630362
 20
-157.59375
 30
0.0
 11
79.03045497015037
 21
-157.59375
 31
0.0
  0
LINE
  5
6E
  8
MyLines
 10
79.03045497015037
 20
-157.59375
 30
0.0
 11
77.15790172399713
 21
-157.59375
 31
0.0
  0
LINE
  5
6F
  8
MyLines
 10
77.15790172399713
 20
-157.59375
 30
0.0
 11
75.28534847784387
 21
-157.59375
 31
0.0
  0
LINE
  5
70
  8
MyLines
 10
75.28534847784387
 20
-157.59375
 30
0.0
 11
73.41279523169061
 21
-157.59375
 31
0.0
  0
LINE
  5
71
  8
MyLines
 10
73.41279523169061
 20
-157.59375
 30
0.0
 11
71.54024198553736
 21
-157.59375
 31
0.0
  0
LINE
  5
72
  8
MyLines
 10
71.54024198553736
 20
-157.59375
 30
0.0
 11
69.66768873938412
 21
-157.59375
 31
0.0
  0
LINE
  5
73
  8
MyLines
 10
69.66768873938412
 20
-157.59375
 30
0.0
 11
67.79513549323086
 21
-157.59375
 31
0.0
  0
LINE
  5
74
  8
MyLines
 10
67.79513549323086
 20
-157.59375
 30
0.0
 11
65.92258224707761
 21
-157.59375
 31
0.0
  0
LINE
  5
75
  8
MyLines
 10
65.92258224707761
 20
-157.59375
 30
0.0
 11
64.05002900092435
 21
-157.59375
 31
0.0
  0
LINE
  5
76
  8
MyLines
 10
64.05002900092435
 20
-157.59375
 30
0.0
 11
62.1774757547711
 21
-157.59375
 31
0.0
  0
LINE
  5
77
  8
MyLines
 10
62.1774757547711
 20
-157.59375
 30
0.0
 11
60.30492250861785
 21
-157.59375
 31
0.0
  0
LINE
  5
78
  8
MyLines
 10
60.30492250861785
 20
-157.59375
 30
0.0
 11
58.4323692624646
 21
-157.59375
 31
0.0
  0
LINE
  5
79
  8
MyLines
 10
58.4323692624646
 20
-157.59375
 30
0.0
 11
56.559816016311345
 21
-157.59375
 31
0.0
  0
LINE
  5
7A
  8
MyLines
 10
56.559816016311345
 20
-157.59375
 30
0.0
 11
54.68726277015809
 21
-157.59375
 31
0.0
  0
LINE
  5
7B
  8
MyLines
 10
54.68726277015809
 20
-157.59375
 30
0.0
 11
52.81470952400485
 21
-157.59375
 31
0.0
  0
LINE
  5
7C
  8
MyLines
 10
52.81470952400485
 20
-157.59375
 30
0.0
 11
50.94215627785159
 21
-157.59375
 31
0.0
  0
LINE
  5
7D
  8
MyLines
 10
50.94215627785159
 20
-157.59375
 30
0.0
 11
49.069603031698335
 21
-157.59375
 31
0.0
  0
LINE
  5
7E
  8
MyLines
 10
49.069603031698335
 20
-157.59375
 30
0.0
 11
47.19704978554509
 21
-157.59375
 31
0.0
  0
LINE
  5
7F
  8
MyLines
 10
47.19704978554509
 20
-157.59375
 30
0.0
 11
45.32449653939183
 21
-157.59375
 31
0.0
  0
LINE
  5
80
  8
MyLines
 10
45.32449653939183
 20
-157.59375
 30
0.0
 11
43.451943293238585
 21
-157.59375
 31
0.0
  0
LINE
  5
81
  8
MyLines
 10
43.451943293238585
 20
-157.59375
 30
0.0
 11
41.57939004708533
 21
-157.59375
 31
0.0
  0
LINE
  5
82
  8
MyLines
 10
41.57939004708533
 20
-157.59375
 30
0.0
 11
39.706836800932074
 21
-157.59375
 31
0.0
  0
LINE
  5
83
  8
MyLines
 10
39.706836800932074
 20
-157.59375
 30
0.0
 11
37.83428355477883
 21
-157.59375
 31
0.0
  0
LINE
  5
84
  8
MyLines
 10
37.83428355477883
 20
-157.59375
 30
0.0
 11
35.961730308625576
 21
-157.59375
 31
0.0
  0
LINE
  5
85
  8
MyLines
 10
35.961730308625576
 20
-157.59375
 30
0.0
 11
34.08917706247232
 21
-157.59375
 31
0.0
  0
LINE
  5
86
  8
MyLines
 10
34.08917706247232
 20
-157.59375
 30
0.0
 11
32.216623816319064
 21
-157.59375
 31
0.0
  0
LINE
  5
87
  8
MyLines
 10
32.216623816319064
 20
-157.59375
 30
0.0
 11
30.344070570165822
 21
-157.59375
 31
0.0
  0
LINE
  5
88
  8
MyLines
 10
30.344070570165822
 20
-157.59375
 30
0.0
 11
28.471517324012563
 21
-157.59375
 31
0.0
  0
LINE
  5
89
  8
MyLines
 10
28.471517324012563
 20
-157.59375
 30
0.0
 11
26.598964077859307
 21
-157.59375
 31
0.0
  0
LINE
  5
8A
  8
MyLines
 10
26.598964077859307
 20
-157.59375
 30
0.0
 11
24.726410831706065
 21
-157.59375
 31
0.0
  0
LINE
  5
8B
  8
MyLines
 10
24.726410831706065
 20
-157.59375
 30
0.0
 11
22.85385758555281
 21
-157.59375
 31
0.0
  0
LINE
  5
8C
  8
MyLines
 10
22.85385758555281
 20
-157.59375
 30
0.0
 11
20.98130433939955
 21
-157.59375
 31
0.0
  0
LINE
  5
8D
  8
MyLines
 10
20.98130433939955
 20
-157.59375
 30
0.0
 11
19.10875109324631
 21
-157.59375
 31
0.0
  0
LINE
  5
8E
  8
MyLines
 10
19.10875109324631
 20
-157.59375
 30
0.0
 11
17.236197847093052
 21
-157.59375
 31
0.0
  0
LINE
  5
8F
  8
MyLines
 10
17.236197847093052
 20
-157.59375
 30
0.0
 11
15.363644600939795
 21
-157.59375
 31
0.0
  0
LINE
  5
90
  8
MyLines
 10
15.363644600939795
 20
-157.59375
 30
0.0
 11
13.491091354786553
 21
-157.59375
 31
0.0
  0
LINE
  5
91
  8
MyLines
 10
13.491091354786553
 20
-157.59375
 30
0.0
 11
11.618538108633295
 21
-157.59375
 31
0.0
  0
LINE
  5
92
  8
MyLines
 10
11.618538108633295
 20
-157.59375
 30
0.0
 11
9.74598486248004
 21
-157.59375
 31
0.0
  0
LINE
  5
93
  8
MyLines
 10
9.74598486248004
 20
-157.59375
 30
0.0
 11
7.873431616326797
 21
-157.59375
 31
0.0
  0
LINE
  5
94
  8
MyLines
 10
7.873431616326797
 20
-157.59375
 30
0.0
 11
6.000878370173536
 21
-157.59375
 31
0.0
  0
LINE
  5
95
  8
MyLines
 10
6.000878370173536
 20
-157.59375
 30
0.0
 11
6.000878370173536
 21
-157.59375
 31
0.0
  0
LINE
  5
96
  8
MyLines
 10
6.000878370173536
 20
-157.59375
 30
0.0
 11
6.000878370173536
 21
165.53125
 31
0.0
  0
LINE
  5
97
  8
MyLines
 10
6.000878370173536
 20
165.53125
 30
0.0
 11
6.000878370173536
 21
165.53125
 31
0.0
  0
LINE
  5
98
  8
MyLines
 10
6.000878370173536
 20
165.53125
 30
0.0
 11
7.791568370400656
 21
165.53125
 31
0.0
  0
LINE
  5
99
  8
MyLines
 10
7.791568370400656
 20
165.53125
 30
0.0
 11
9.582258370627775
 21
165.53125
 31
0.0
  0
LINE
  5
9A
  8
MyLines
 10
9.582258370627775
 20
165.53125
 30
0.0
 11
11.372948370854894
 21
165.53125
 31
0.0
  0
LINE
  5
9B
  8
MyLines
 10
11.372948370854894
 20
165.53125
 30
0.0
 11
13.163638371082014
 21
165.53125
 31
0.0
  0
LINE
  5
9C
  8
MyLines
 10
13.163638371082014
 20
165.53125
 30
0.0
 11
14.954328371309133
 21
165.53125
 31
0.0
  0
LINE
  5
9D
  8
MyLines
 10
14.954328371309133
 20
165.53125
 30
0.0
 11
16.745018371536254
 21
165.53125
 31
0.0
  0
LINE
  5
9E
  8
MyLines
 10
16.745018371536254
 20
165.53125
 30
0.0
 11
18.535708371763373
 21
165.53125
 31
0.0
  0
LINE
  5
9F
  8
MyLines
 10
18.535708371763373
 20
165.53125
 30
0.0
 11
20.326398371990493
 21
165.53125
 31
0.0
  0
LINE
  5
A0
  8
MyLines
 10
20.326398371990493
 20
165.53125
 30
0.0
 11
22.117088372217612
 21
165.53125
 31
0.0
  0
LINE
  5
A1
  8
MyLines
 10
22.117088372217612
 20
165.53125
 30
0.0
 11
23.907778372444728
 21
165.53125
 31
0.0
  0
LINE
  5
A2
  8
MyLines
 10
23.907778372444728
 20
165.53125
 30
0.0
 11
25.69846837267185
 21
165.53125
 31
0.0
  0
LINE
  5
A3
  8
MyLines
 10
25.69846837267185
 20
165.53125
 30
0.0
 11
27.48915837289897
 21
165.53125
 31
0.0
  0
LINE
  5
A4
  8
MyLines
 10
27.48915837289897
 20
165.53125
 30
0.0
 11
29.279848373126086
 21
165.53125
 31
0.0
  0
LINE
  5
A5
  8
MyLines
 10
29.279848373126086
 20
165.53125
 30
0.0
 11
31.07053837335321
 21
165.53125
 31
0.0
  0
LINE
  5
A6
  8
MyLines
 10
31.07053837335321
 20
165.53125
 30
0.0
 11
32.861228373580325
 21
165.53125
 31
0.0
  0
LINE
  5
A7
  8
MyLines
 10
32.861228373580325
 20
165.53125
 30
0.0
 11
34.65191837380744
 21
165.53125
 31
0.0
  0
LINE
  5
A8
  8
MyLines
 10
34.65191837380744
 20
165.53125
 30
0.0
 11
36.44260837403456
 21
165.53125
 31
0.0
  0
LINE
  5
A9
  8
MyLines
 10
36.44260837403456
 20
165.53125
 30
0.0
 11
38.23329837426169
 21
165.53125
 31
0.0
  0
LINE
  5
AA
  8
MyLines
 10
38.23329837426169
 20
165.53125
 30
0.0
 11
40.02398837448881
 21
165.53125
 31
0.0
  0
LINE
  5
AB
  8
MyLines
 10
40.02398837448881
 20
165.53125
 30
0.0
 11
41.814678374715925
 21
165.53125
 31
0.0
  0
LINE
  5
AC
  8
MyLines
 10
41.814678374715925
 20
165.53125
 30
0.0
 11
43.60536837494304
 21
165.53125
 31
0.0
  0
LINE
  5
AD
  8
MyLines
 10
43.60536837494304
 20
165.53125
 30
0.0
 11
45.396058375170156
 21
165.53125
 31
0.0
  0
LINE
  5
AE
  8
MyLines
 10
45.396058375170156
 20
165.53125
 30
0.0
 11
47.18674837539728
 21
165.53125
 31
0.0
  0
LINE
  5
AF
  8
MyLines
 10
47.18674837539728
 20
165.53125
 30
0.0
 11
48.97743837562441
 21
165.53125
 31
0.0
  0
LINE
  5
B0
  8
MyLines
 10
48.97743837562441
 20
165.53125
 30
0.0
 11
50.768128375851525
 21
165.53125
 31
0.0
  0
LINE
  5
B1
  8
MyLines
 10
50.768128375851525
 20
165.53125
 30
0.0
 11
52.55881837607864
 21
165.53125
 31
0.0
  0
LINE
  5
B2
  8
MyLines
 10
52.55881837607864
 20
165.53125
 30
0.0
 11
54.34950837630576
 21
165.53125
 31
0.0
  0
LINE
  5
B3
  8
MyLines
 10
54.34950837630576
 20
165.53125
 30
0.0
 11
56.14019837653287
 21
165.53125
 31
0.0
  0
LINE
  5
B4
  8
MyLines
 10
56.14019837653287
 20
165.53125
 30
0.0
 11
57.930888376759995
 21
165.53125
 31
0.0
  0
LINE
  5
B5
  8
MyLines
 10
57.930888376759995
 20
165.53125
 30
0.0
 11
59.72157837698711
 21
165.53125
 31
0.0
  0
LINE
  5
B6
  8
MyLines
 10
59.72157837698711
 20
165.53125
 30
0.0
 11
61.51226837721424
 21
165.53125
 31
0.0
  0
LINE
  5
B7
  8
MyLines
 10
61.51226837721424
 20
165.53125
 30
0.0
 11
63.30295837744136
 21
165.53125
 31
0.0
  0
LINE
  5
B8
  8
MyLines
 10
63.30295837744136
 20
165.53125
 30
0.0
 11
65.09364837766847
 21
165.53125
 31
0.0
  0
LINE
  5
B9
  8
MyLines
 10
65.09364837766847
 20
165.53125
 30
0.0
 11
66.88433837789559
 21
165.53125
 31
0.0
  0
LINE
  5
BA
  8
MyLines
 10
66.88433837789559
 20
165.53125
 30
0.0
 11
68.6750283781227
 21
165.53125
 31
0.0
  0
LINE
  5
BB
  8
MyLines
 10
68.6750283781227
 20
165.53125
 30
0.0
 11
70.46571837834983
 21
165.53125
 31
0.0
  0
LINE
  5
BC
  8
MyLines
 10
70.46571837834983
 20
165.53125
 30
0.0
 11
72.25640837857696
 21
165.53125
 31
0.0
  0
LINE
  5
BD
  8
MyLines
 10
72.25640837857696
 20
165.53125
 30
0.0
 11
74.04709837880408
 21
165.53125
 31
0.0
  0
LINE
  5
BE
  8
MyLines
 10
74.04709837880408
 20
165.53125
 30
0.0
 11
75.8377883790312
 21
165.53125
 31
0.0
  0
LINE
  5
BF
  8
MyLines
 10
75.8377883790312
 20
165.53125
 30
0.0
 11
77.62847837925831
 21
165.53125
 31
0.0
  0
LINE
  5
C0
  8
MyLines
 10
77.62847837925831
 20
165.53125
 30
0.0
 11
79.41916837948543
 21
165.53125
 31
0.0
  0
LINE
  5
C1
  8
MyLines
 10
79.41916837948543
 20
165.53125
 30
0.0
 11
81.20985837971256
 21
165.53125
 31
0.0
  0
LINE
  5
C2
  8
MyLines
 10
81.20985837971256
 20
165.53125
 30
0.0
 11
83.00054837993967
 21
165.53125
 31
0.0
  0
LINE
  5
C3
  8
MyLines
 10
83.00054837993967
 20
165.53125
 30
0.0
 11
84.79123838016679
 21
165.53125
 31
0.0
  0
LINE
  5
C4
  8
MyLines
 10
84.79123838016679
 20
165.53125
 30
0.0
 11
86.5819283803939
 21
165.53125
 31
0.0
  0
LINE
  5
C5
  8
MyLines
 10
86.5819283803939
 20
165.53125
 30
0.0
 11
88.37261838062102
 21
165.53125
 31
0.0
  0
LINE
  5
C6
  8
MyLines
 10
88.37261838062102
 20
165.53125
 30
0.0
 11
90.16330838084814
 21
165.53125
 31
0.0
  0
LINE
  5
C7
  8
MyLines
 10
90.16330838084814
 20
165.53125
 30
0.0
 11
91.95399838107528
 21
165.53125
 31
0.0
  0
LINE
  5
C8
  8
MyLines
 10
91.95399838107528
 20
165.53125
 30
0.0
 11
93.7446883813024
 21
165.53125
 31
0.0
  0
LINE
  5
C9
  8
MyLines
 10
93.7446883813024
 20
165.53125
 30
0.0
 11
93.7446883813024
 21
-153.625
 31
0.0
  0
LINE
  5
CA
  8
MyLines
 10
93.7446883813024
 20
-153.625
 30
0.0
 11
93.7446883813024
 21
-153.625
 31
0.0
  0
LINE
  5
CB
  8
MyLines
 10
93.7446883813024
 20
-153.625
 30
0.0
 11
92.03793143159211
 21
-153.625
 31
0.0
  0
LINE
  5
CC
  8
MyLines
 10
92.03793143159211
 20
-153.625
 30
0.0
 11
90.33117448188183
 21
-153.625
 31
0.0
  0
LINE
  5
CD
  8
MyLines
 10
90.33117448188183
 20
-153.625
 30
0.0
 11
88.62441753217155
 21
-153.625
 31
0.0
  0
LINE
  5
CE
  8
MyLines
 10
88.62441753217155
 20
-153.625
 30
0.0
 11
86.91766058246128
 21
-153.625
 31
0.0
  0
LINE
  5
CF
  8
MyLines
 10
86.91766058246128
 20
-153.625
 30
0.0
 11
85.210903632751
 21
-153.625
 31
0.0
  0
LINE
  5
D0
  8
MyLines
 10
85.210903632751
 20
-153.625
 30
0.0
 11
83.50414668304072
 21
-153.625
 31
0.0
  0
LINE
  5
D1
  8
MyLines
 10
83.50414668304072
 20
-153.625
 30
0.0
 11
81.79738973333045
 21
-153.625
 31
0.0
  0
LINE
  5
D2
  8
MyLines
 10
81.79738973333045
 20
-153.625
 30
0.0
 11
80.09063278362017
 21
-153.625
 31
0.0
  0
LINE
  5
D3
  8
MyLines
 10
80.09063278362017
 20
-153.625
 30
0.0
 11
78.38387583390988
 21
-153.625
 31
0.0
  0
LINE
  5
D4
  8
MyLines
 10
78.38387583390988
 20
-153.625
 30
0.0
 11
76.6771188841996
 21
-153.625
 31
0.0
  0
LINE
  5
D5
  8
MyLines
 10
76.6771188841996
 20
-153.625
 30
0.0
 11
74.97036193448933
 21
-153.625
 31
0.0
  0
LINE
  5
D6
  8
MyLines
 10
74.97036193448933
 20
-153.625
 30
0.0
 11
73.26360498477905
 21
-153.625
 31
0.0
  0
LINE
  5
D7
  8
MyLines
 10
73.26360498477905
 20
-153.625
 30
0.0
 11
71.55684803506877
 21
-153.625
 31
0.0
  0
LINE
  5
D8
  8
MyLines
 10
71.55684803506877
 20
-153.625
 30
0.0
 11
69.8500910853585
 21
-153.625
 31
0.0
  0
LINE
  5
D9
  8
MyLines
 10
69.8500910853585
 20
-153.625
 30
0.0
 11
68.14333413564823
 21
-153.625
 31
0.0
  0
LINE
  5
DA
  8
MyLines
 10
68.14333413564823
 20
-153.625
 30
0.0
 11
66.43657718593795
 21
-153.625
 31
0.0
  0
LINE
  5
DB
  8
MyLines
 10
66.43657718593795
 20
-153.625
 30
0.0
 11
64.72982023622767
 21
-153.625
 31
0.0
  0
LINE
  5
DC
  8
MyLines
 10
64.72982023622767
 20
-153.625
 30
0.0
 11
63.02306328651739
 21
-153.625
 31
0.0
  0
LINE
  5
DD
  8
MyLines
 10
63.02306328651739
 20
-153.625
 30
0.0
 11
61.31630633680711
 21
-153.625
 31
0.0
  0
LINE
  5
DE
  8
MyLines
 10
61.31630633680711
 20
-153.625
 30
0.0
 11
59.609549387096834
 21
-153.625
 31
0.0
  0
LINE
  5
DF
  8
MyLines
 10
59.609549387096834
 20
-153.625
 30
0.0
 11
57.90279243738655
 21
-153.625
 31
0.0
  0
LINE
  5
E0
  8
MyLines
 10
57.90279243738655
 20
-153.625
 30
0.0
 11
56.196035487676276
 21
-153.625
 31
0.0
  0
LINE
  5
E1
  8
MyLines
 10
56.196035487676276
 20
-153.625
 30
0.0
 11
54.489278537966
 21
-153.625
 31
0.0
  0
LINE
  5
E2
  8
MyLines
 10
54.489278537966
 20
-153.625
 30
0.0
 11
52.78252158825572
 21
-153.625
 31
0.0
  0
LINE
  5
E3
  8
MyLines
 10
52.78252158825572
 20
-153.625
 30
0.0
 11
51.075764638545444
 21
-153.625
 31
0.0
  0
LINE
  5
E4
  8
MyLines
 10
51.075764638545444
 20
-153.625
 30
0.0
 11
49.36900768883516
 21
-153.625
 31
0.0
  0
LINE
  5
E5
  8
MyLines
 10
49.36900768883516
 20
-153.625
 30
0.0
 11
47.66225073912489
 21
-153.625
 31
0.0
  0
LINE
  5
E6
  8
MyLines
 10
47.66225073912489
 20
-153.625
 30
0.0
 11
45.95549378941461
 21
-153.625
 31
0.0
  0
LINE
  5
E7
  8
MyLines
 10
45.95549378941461
 20
-153.625
 30
0.0
 11
44.248736839704335
 21
-153.625
 31
0.0
  0
LINE
  5
E8
  8
MyLines
 10
44.248736839704335
 20
-153.625
 30
0.0
 11
42.54197988999405
 21
-153.625
 31
0.0
  0
LINE
  5
E9
  8
MyLines
 10
42.54197988999405
 20
-153.625
 30
0.0
 11
40.83522294028378
 21
-153.625
 31
0.0
  0
LINE
  5
EA
  8
MyLines
 10
40.83522294028378
 20
-153.625
 30
0.0
 11
39.128465990573496
 21
-153.625
 31
0.0
  0
LINE
  5
EB
  8
MyLines
 10
39.128465990573496
 20
-153.625
 30
0.0
 11
37.42170904086322
 21
-153.625
 31
0.0
  0
LINE
  5
EC
  8
MyLines
 10
37.42170904086322
 20
-153.625
 30
0.0
 11
35.71495209115294
 21
-153.625
 31
0.0
  0
LINE
  5
ED
  8
MyLines
 10
35.71495209115294
 20
-153.625
 30
0.0
 11
34.00819514144266
 21
-153.625
 31
0.0
  0
LINE
  5
EE
  8
MyLines
 10
34.00819514144266
 20
-153.625
 30
0.0
 11
32.30143819173238
 21
-153.625
 31
0.0
  0
LINE
  5
EF
  8
MyLines
 10
32.30143819173238
 20
-153.625
 30
0.0
 11
30.594681242022105
 21
-153.625
 31
0.0
  0
LINE
  5
F0
  8
MyLines
 10
30.594681242022105
 20
-153.625
 30
0.0
 11
28.887924292311833
 21
-153.625
 31
0.0
  0
LINE
  5
F1
  8
MyLines
 10
28.887924292311833
 20
-153.625
 30
0.0
 11
27.181167342601555
 21
-153.625
 31
0.0
  0
LINE
  5
F2
  8
MyLines
 10
27.181167342601555
 20
-153.625
 30
0.0
 11
25.474410392891276
 21
-153.625
 31
0.0
  0
LINE
  5
F3
  8
MyLines
 10
25.474410392891276
 20
-153.625
 30
0.0
 11
23.767653443180997
 21
-153.625
 31
0.0
  0
LINE
  5
F4
  8
MyLines
 10
23.767653443180997
 20
-153.625
 30
0.0
 11
22.060896493470718
 21
-153.625
 31
0.0
  0
LINE
  5
F5
  8
MyLines
 10
22.060896493470718
 20
-153.625
 30
0.0
 11
20.35413954376044
 21
-153.625
 31
0.0
  0
LINE
  5
F6
  8
MyLines
 10
20.35413954376044
 20
-153.625
 30
0.0
 11
18.64738259405016
 21
-153.625
 31
0.0
  0
LINE
  5
F7
  8
MyLines
 10
18.64738259405016
 20
-153.625
 30
0.0
 11
16.94062564433988
 21
-153.625
 31
0.0
  0
LINE
  5
F8
  8
MyLines
 10
16.94062564433988
 20
-153.625
 30
0.0
 11
15.233868694629605
 21
-153.625
 31
0.0
  0
LINE
  5
F9
  8
MyLines
 10
15.233868694629605
 20
-153.625
 30
0.0
 11
13.527111744919326
 21
-153.625
 31
0.0
  0
LINE
  5
FA
  8
MyLines
 10
13.527111744919326
 20
-153.625
 30
0.0
 11
11.820354795209047
 21
-153.625
 31
0.0
  0
LINE
  5
FB
  8
MyLines
 10
11.820354795209047
 20
-153.625
 30
0.0
 11
10.113597845498768
 21
-153.625
 31
0.0
  0
LINE
  5
FC
  8
MyLines
 10
10.113597845498768
 20
-153.625
 30
0.0
 11
10.113597845498768
 21
-153.625
 31
0.0
  0
LINE
  5
FD
  8
MyLines
 10
10.113597845498768
 20
-153.625
 30
0.0
 11
10.113597845498768
 21
161.5625
 31
0.0
  0
LINE
  5
FE
  8
MyLines
 10
10.113597845498768
 20
161.5625
 30
0.0
 11
10.113597845498768
 21
161.5625
 31
0.0
  0
LINE
  5
FF
  8
MyLines
 10
10.113597845498768
 20
161.5625
 30
0.0
 11
11.736421744692205
 21
161.5625
 31
0.0
  0
LINE
  5
100
  8
MyLines
 10
11.736421744692205
 20
161.5625
 30
0.0
 11
13.359245643885641
 21
161.5625
 31
0.0
  0
LINE
  5
101
  8
MyLines
 10
13.359245643885641
 20
161.5625
 30
0.0
 11
14.982069543079078
 21
161.5625
 31
0.0
  0
LINE
  5
102
  8
MyLines
 10
14.982069543079078
 20
161.5625
 30
0.0
 11
16.604893442272516
 21
161.5625
 31
0.0
  0
LINE
  5
103
  8
MyLines
 10
16.604893442272516
 20
161.5625
 30
0.0
 11
18.22771734146595
 21
161.5625
 31
0.0
  0
LINE
  5
104
  8
MyLines
 10
18.22771734146595
 20
161.5625
 30
0.0
 11
19.85054124065939
 21
161.5625
 31
0.0
  0
LINE
  5
105
  8
MyLines
 10
19.85054124065939
 20
161.5625
 30
0.0
 11
21.473365139852824
 21
161.5625
 31
0.0
  0
LINE
  5
106
  8
MyLines
 10
21.473365139852824
 20
161.5625
 30
0.0
 11
23.096189039046262
 21
161.5625
 31
0.0
  0
LINE
  5
107
  8
MyLines
 10
23.096189039046262
 20
161.5625
 30
0.0
 11
24.719012938239697
 21
161.5625
 31
0.0
  0
LINE
  5
108
  8
MyLines
 10
24.719012938239697
 20
161.5625
 30
0.0
 11
26.341836837433135
 21
161.5625
 31
0.0
  0
LINE
  5
109
  8
MyLines
 10
26.341836837433135
 20
161.5625
 30
0.0
 11
27.96466073662657
 21
161.5625
 31
0.0
  0
LINE
  5
10A
  8
MyLines
 10
27.96466073662657
 20
161.5625
 30
0.0
 11
29.587484635820008
 21
161.5625
 31
0.0
  0
LINE
  5
10B
  8
MyLines
 10
29.587484635820008
 20
161.5625
 30
0.0
 11
31.210308535013443
 21
161.5625
 31
0.0
  0
LINE
  5
10C
  8
MyLines
 10
31.210308535013443
 20
161.5625
 30
0.0
 11
32.83313243420688
 21
161.5625
 31
0.0
  0
LINE
  5
10D
  8
MyLines
 10
32.83313243420688
 20
161.5625
 30
0.0
 11
34.455956333400316
 21
161.5625
 31
0.0
  0
LINE
  5
10E
  8
MyLines
 10
34.455956333400316
 20
161.5625
 30
0.0
 11
36.07878023259375
 21
161.5625
 31
0.0
  0
LINE
  5
10F
  8
MyLines
 10
36.07878023259375
 20
161.5625
 30
0.0
 11
37.70160413178719
 21
161.5625
 31
0.0
  0
LINE
  5
110
  8
MyLines
 10
37.70160413178719
 20
161.5625
 30
0.0
 11
39.32442803098063
 21
161.5625
 31
0.0
  0
LINE
  5
111
  8
MyLines
 10
39.32442803098063
 20
161.5625
 30
0.0
 11
40.94725193017406
 21
161.5625
 31
0.0
  0
LINE
  5
112
  8
MyLines
 10
40.94725193017406
 20
161.5625
 30
0.0
 11
42.5700758293675
 21
161.5625
 31
0.0
  0
LINE
  5
113
  8
MyLines
 10
42.5700758293675
 20
161.5625
 30
0.0
 11
44.19289972856094
 21
161.5625
 31
0.0
  0
LINE
  5
114
  8
MyLines
 10
44.19289972856094
 20
161.5625
 30
0.0
 11
45.81572362775437
 21
161.5625
 31
0.0
  0
LINE
  5
115
  8
MyLines
 10
45.81572362775437
 20
161.5625
 30
0.0
 11
47.43854752694781
 21
161.5625
 31
0.0
  0
LINE
  5
116
  8
MyLines
 10
47.43854752694781
 20
161.5625
 30
0.0
 11
49.06137142614124
 21
161.5625
 31
0.0
  0
LINE
  5
117
  8
MyLines
 10
49.06137142614124
 20
161.5625
 30
0.0
 11
50.684195325334684
 21
161.5625
 31
0.0
  0
LINE
  5
118
  8
MyLines
 10
50.684195325334684
 20
161.5625
 30
0.0
 11
52.30701922452812
 21
161.5625
 31
0.0
  0
LINE
  5
119
  8
MyLines
 10
52.30701922452812
 20
161.5625
 30
0.0
 11
53.929843123721554
 21
161.5625
 31
0.0
  0
LINE
  5
11A
  8
MyLines
 10
53.929843123721554
 20
161.5625
 30
0.0
 11
55.55266702291499
 21
161.5625
 31
0.0
  0
LINE
  5
11B
  8
MyLines
 10
55.55266702291499
 20
161.5625
 30
0.0
 11
57.17549092210843
 21
161.5625
 31
0.0
  0
LINE
  5
11C
  8
MyLines
 10
57.17549092210843
 20
161.5625
 30
0.0
 11
58.798314821301865
 21
161.5625
 31
0.0
  0
LINE
  5
11D
  8
MyLines
 10
58.798314821301865
 20
161.5625
 30
0.0
 11
60.4211387204953
 21
161.5625
 31
0.0
  0
LINE
  5
11E
  8
MyLines
 10
60.4211387204953
 20
161.5625
 30
0.0
 11
62.043962619688735
 21
161.5625
 31
0.0
  0
LINE
  5
11F
  8
MyLines
 10
62.043962619688735
 20
161.5625
 30
0.0
 11
63.666786518882176
 21
161.5625
 31
0.0
  0
LINE
  5
120
  8
MyLines
 10
63.666786518882176
 20
161.5625
 30
0.0
 11
65.28961041807561
 21
161.5625
 31
0.0
  0
LINE
  5
121
  8
MyLines
 10
65.28961041807561
 20
161.5625
 30
0.0
 11
66.91243431726905
 21
161.5625
 31
0.0
  0
LINE
  5
122
  8
MyLines
 10
66.91243431726905
 20
161.5625
 30
0.0
 11
68.53525821646248
 21
161.5625
 31
0.0
  0
LINE
  5
123
  8
MyLines
 10
68.53525821646248
 20
161.5625
 30
0.0
 11
70.15808211565593
 21
161.5625
 31
0.0
  0
LINE
  5
124
  8
MyLines
 10
70.15808211565593
 20
161.5625
 30
0.0
 11
71.78090601484935
 21
161.5625
 31
0.0
  0
LINE
  5
125
  8
MyLines
 10
71.78090601484935
 20
161.5625
 30
0.0
 11
73.40372991404278
 21
161.5625
 31
0.0
  0
LINE
  5
126
  8
MyLines
 10
73.40372991404278
 20
161.5625
 30
0.0
 11
75.02655381323623
 21
161.5625
 31
0.0
  0
LINE
  5
127
  8
MyLines
 10
75.02655381323623
 20
161.5625
 30
0.0
 11
76.64937771242967
 21
161.5625
 31
0.0
  0
LINE
  5
128
  8
MyLines
 10
76.64937771242967
 20
161.5625
 30
0.0
 11
78.2722016116231
 21
161.5625
 31
0.0
  0
LINE
  5
129
  8
MyLines
 10
78.2722016116231
 20
161.5625
 30
0.0
 11
79.89502551081654
 21
161.5625
 31
0.0
  0
LINE
  5
12A
  8
MyLines
 10
79.89502551081654
 20
161.5625
 30
0.0
 11
81.51784941000997
 21
161.5625
 31
0.0
  0
LINE
  5
12B
  8
MyLines
 10
81.51784941000997
 20
161.5625
 30
0.0
 11
83.14067330920342
 21
161.5625
 31
0.0
  0
LINE
  5
12C
  8
MyLines
 10
83.14067330920342
 20
161.5625
 30
0.0
 11
84.76349720839684
 21
161.5625
 31
0.0
  0
LINE
  5
12D
  8
MyLines
 10
84.76349720839684
 20
161.5625
 30
0.0
 11
86.38632110759028
 21
161.5625
 31
0.0
  0
LINE
  5
12E
  8
MyLines
 10
86.38632110759028
 20
161.5625
 30
0.0
 11
88.00914500678373
 21
161.5625
 31
0.0
  0
LINE
  5
12F
  8
MyLines
 10
88.00914500678373
 20
161.5625
 30
0.0
 11
89.63196890597716
 21
161.5625
 31
0.0
  0
LINE
  5
130
  8
MyLines
 10
89.63196890597716
 20
161.5625
 30
0.0
 11
89.63196890597716
 21
-149.65625
 31
0.0
  0
LINE
  5
131
  8
MyLines
 10
89.63196890597716
 20
-149.65625
 30
0.0
 11
89.63196890597716
 21
-149.65625
 31
0.0
  0
LINE
  5
132
  8
MyLines
 10
89.63196890597716
 20
-149.65625
 30
0.0
 11
88.09691707846214
 21
-149.65625
 31
0.0
  0
LINE
  5
133
  8
MyLines
 10
88.09691707846214
 20
-149.65625
 30
0.0
 11
86.56186525094712
 21
-149.65625
 31
0.0
  0
LINE
  5
134
  8
MyLines
 10
86.56186525094712
 20
-149.65625
 30
0.0
 11
85.0268134234321
 21
-149.65625
 31
0.0
  0
LINE
  5
135
  8
MyLines
 10
85.0268134234321
 20
-149.65625
 30
0.0
 11
83.49176159591708
 21
-149.65625
 31
0.0
  0
LINE
  5
136
  8
MyLines
 10
83.49176159591708
 20
-149.65625
 30
0.0
 11
81.95670976840208
 21
-149.65625
 31
0.0
  0
LINE
  5
137
  8
MyLines
 10
81.95670976840208
 20
-149.65625
 30
0.0
 11
80.42165794088706
 21
-149.65625
 31
0.0
  0
LINE
  5
138
  8
MyLines
 10
80.42165794088706
 20
-149.65625
 30
0.0
 11
78.88660611337204
 21
-149.65625
 31
0.0
  0
LINE
  5
139
  8
MyLines
 10
78.88660611337204
 20
-149.65625
 30
0.0
 11
77.35155428585702
 21
-149.65625
 31
0.0
  0
LINE
  5
13A
  8
MyLines
 10
77.35155428585702
 20
-149.65625
 30
0.0
 11
75.816502458342
 21
-149.65625
 31
0.0
  0
LINE
  5
13B
  8
MyLines
 10
75.816502458342
 20
-149.65625
 30
0.0
 11
74.28145063082698
 21
-149.65625
 31
0.0
  0
LINE
  5
13C
  8
MyLines
 10
74.28145063082698
 20
-149.65625
 30
0.0
 11
72.74639880331198
 21
-149.65625
 31
0.0
  0
LINE
  5
13D
  8
MyLines
 10
72.74639880331198
 20
-149.65625
 30
0.0
 11
71.21134697579696
 21
-149.65625
 31
0.0
  0
LINE
  5
13E
  8
MyLines
 10
71.21134697579696
 20
-149.65625
 30
0.0
 11
69.67629514828194
 21
-149.65625
 31
0.0
  0
LINE
  5
13F
  8
MyLines
 10
69.67629514828194
 20
-149.65625
 30
0.0
 11
68.1412433207669
 21
-149.65625
 31
0.0
  0
LINE
  5
140
  8
MyLines
 10
68.1412433207669
 20
-149.65625
 30
0.0
 11
66.60619149325188
 21
-149.65625
 31
0.0
  0
LINE
  5
141
  8
MyLines
 10
66.60619149325188
 20
-149.65625
 30
0.0
 11
65.07113966573687
 21
-149.65625
 31
0.0
  0
LINE
  5
142
  8
MyLines
 10
65.07113966573687
 20
-149.65625
 30
0.0
 11
63.53608783822185
 21
-149.65625
 31
0.0
  0
LINE
  5
143
  8
MyLines
 10
63.53608783822185
 20
-149.65625
 30
0.0
 11
62.001036010706834
 21
-149.65625
 31
0.0
  0
LINE
  5
144
  8
MyLines
 10
62.001036010706834
 20
-149.65625
 30
0.0
 11
60.465984183191814
 21
-149.65625
 31
0.0
  0
LINE
  5
145
  8
MyLines
 10
60.465984183191814
 20
-149.65625
 30
0.0
 11
58.930932355676795
 21
-149.65625
 31
0.0
  0
LINE
  5
146
  8
MyLines
 10
58.930932355676795
 20
-149.65625
 30
0.0
 11
57.395880528161776
 21
-149.65625
 31
0.0
  0
LINE
  5
147
  8
MyLines
 10
57.395880528161776
 20
-149.65625
 30
0.0
 11
55.86082870064676
 21
-149.65625
 31
0.0
  0
LINE
  5
148
  8
MyLines
 10
55.86082870064676
 20
-149.65625
 30
0.0
 11
54.325776873131744
 21
-149.65625
 31
0.0
  0
LINE
  5
149
  8
MyLines
 10
54.325776873131744
 20
-149.65625
 30
0.0
 11
52.790725045616725
 21
-149.65625
 31
0.0
  0
LINE
  5
14A
  8
MyLines
 10
52.790725045616725
 20
-149.65625
 30
0.0
 11
51.255673218101705
 21
-149.65625
 31
0.0
  0
LINE
  5
14B
  8
MyLines
 10
51.255673218101705
 20
-149.65625
 30
0.0
 11
49.720621390586686
 21
-149.65625
 31
0.0
  0
LINE
  5
14C
  8
MyLines
 10
49.720621390586686
 20
-149.65625
 30
0.0
 11
48.185569563071674
 21
-149.65625
 31
0.0
  0
LINE
  5
14D
  8
MyLines
 10
48.185569563071674
 20
-149.65625
 30
0.0
 11
46.650517735556654
 21
-149.65625
 31
0.0
  0
LINE
  5
14E
  8
MyLines
 10
46.650517735556654
 20
-149.65625
 30
0.0
 11
45.115465908041635
 21
-149.65625
 31
0.0
  0
LINE
  5
14F
  8
MyLines
 10
45.115465908041635
 20
-149.65625
 30
0.0
 11
43.580414080526616
 21
-149.65625
 31
0.0
  0
LINE
  5
150
  8
MyLines
 10
43.580414080526616
 20
-149.65625
 30
0.0
 11
42.0453622530116
 21
-149.65625
 31
0.0
  0
LINE
  5
151
  8
MyLines
 10
42.0453622530116
 20
-149.65625
 30
0.0
 11
40.51031042549658
 21
-149.65625
 31
0.0
  0
LINE
  5
152
  8
MyLines
 10
40.51031042549658
 20
-149.65625
 30
0.0
 11
38.97525859798156
 21
-149.65625
 31
0.0
  0
LINE
  5
153
  8
MyLines
 10
38.97525859798156
 20
-149.65625
 30
0.0
 11
37.44020677046654
 21
-149.65625
 31
0.0
  0
LINE
  5
154
  8
MyLines
 10
37.44020677046654
 20
-149.65625
 30
0.0
 11
35.905154942951526
 21
-149.65625
 31
0.0
  0
LINE
  5
155
  8
MyLines
 10
35.905154942951526
 20
-149.65625
 30
0.0
 11
34.37010311543651
 21
-149.65625
 31
0.0
  0
LINE
  5
156
  8
MyLines
 10
34.37010311543651
 20
-149.65625
 30
0.0
 11
32.83505128792149
 21
-149.65625
 31
0.0
  0
LINE
  5
157
  8
MyLines
 10
32.83505128792149
 20
-149.65625
 30
0.0
 11
31.29999946040647
 21
-149.65625
 31
0.0
  0
LINE
  5
158
  8
MyLines
 10
31.29999946040647
 20
-149.65625
 30
0.0
 11
29.764947632891452
 21
-149.65625
 31
0.0
  0
LINE
  5
159
  8
MyLines
 10
29.764947632891452
 20
-149.65625
 30
0.0
 11
28.229895805376433
 21
-149.65625
 31
0.0
  0
LINE
  5
15A
  8
MyLines
 10
28.229895805376433
 20
-149.65625
 30
0.0
 11
26.694843977861414
 21
-149.65625
 31
0.0
  0
LINE
  5
15B
  8
MyLines
 10
26.694843977861414
 20
-149.65625
 30
0.0
 11
25.159792150346394
 21
-149.65625
 31
0.0
  0
LINE
  5
15C
  8
MyLines
 10
25.159792150346394
 20
-149.65625
 30
0.0
 11
23.62474032283137
 21
-149.65625
 31
0.0
  0
LINE
  5
15D
  8
MyLines
 10
23.62474032283137
 20
-149.65625
 30
0.0
 11
22.089688495316366
 21
-149.65625
 31
0.0
  0
LINE
  5
15E
  8
MyLines
 10
22.089688495316366
 20
-149.65625
 30
0.0
 11
20.554636667801347
 21
-149.65625
 31
0.0
  0
LINE
  5
15F
  8
MyLines
 10
20.554636667801347
 20
-149.65625
 30
0.0
 11
19.019584840286328
 21
-149.65625
 31
0.0
  0
LINE
  5
160
  8
MyLines
 10
19.019584840286328
 20
-149.65625
 30
0.0
 11
17.48453301277131
 21
-149.65625
 31
0.0
  0
LINE
  5
161
  8
MyLines
 10
17.48453301277131
 20
-149.65625
 30
0.0
 11
15.949481185256287
 21
-149.65625
 31
0.0
  0
LINE
  5
162
  8
MyLines
 10
15.949481185256287
 20
-149.65625
 30
0.0
 11
14.414429357741266
 21
-149.65625
 31
0.0
  0
LINE
  5
163
  8
MyLines
 10
14.414429357741266
 20
-149.65625
 30
0.0
 11
14.414429357741266
 21
-149.65625
 31
0.0
  0
LINE
  5
164
  8
MyLines
 10
14.414429357741266
 20
-149.65625
 30
0.0
 11
14.414429357741266
 21
157.59375
 31
0.0
  0
LINE
  5
165
  8
MyLines
 10
14.414429357741266
 20
157.59375
 30
0.0
 11
14.414429357741266
 21
157.59375
 31
0.0
  0
LINE
  5
166
  8
MyLines
 10
14.414429357741266
 20
157.59375
 30
0.0
 11
15.861709113577867
 21
157.59375
 31
0.0
  0
LINE
  5
167
  8
MyLines
 10
15.861709113577867
 20
157.59375
 30
0.0
 11
17.308988869414467
 21
157.59375
 31
0.0
  0
LINE
  5
168
  8
MyLines
 10
17.308988869414467
 20
157.59375
 30
0.0
 11
18.756268625251067
 21
157.59375
 31
0.0
  0
LINE
  5
169
  8
MyLines
 10
18.756268625251067
 20
157.59375
 30
0.0
 11
20.203548381087668
 21
157.59375
 31
0.0
  0
LINE
  5
16A
  8
MyLines
 10
20.203548381087668
 20
157.59375
 30
0.0
 11
21.650828136924268
 21
157.59375
 31
0.0
  0
LINE
  5
16B
  8
MyLines
 10
21.650828136924268
 20
157.59375
 30
0.0
 11
23.098107892760865
 21
157.59375
 31
0.0
  0
LINE
  5
16C
  8
MyLines
 10
23.098107892760865
 20
157.59375
 30
0.0
 11
24.545387648597465
 21
157.59375
 31
0.0
  0
LINE
  5
16D
  8
MyLines
 10
24.545387648597465
 20
157.59375
 30
0.0
 11
25.992667404434066
 21
157.59375
 31
0.0
  0
LINE
  5
16E
  8
MyLines
 10
25.992667404434066
 20
157.59375
 30
0.0
 11
27.439947160270666
 21
157.59375
 31
0.0
  0
LINE
  5
16F
  8
MyLines
 10
27.439947160270666
 20
157.59375
 30
0.0
 11
28.887226916107267
 21
157.59375
 31
0.0
  0
LINE
  5
170
  8
MyLines
 10
28.887226916107267
 20
157.59375
 30
0.0
 11
30.334506671943867
 21
157.59375
 31
0.0
  0
LINE
  5
171
  8
MyLines
 10
30.334506671943867
 20
157.59375
 30
0.0
 11
31.781786427780467
 21
157.59375
 31
0.0
  0
LINE
  5
172
  8
MyLines
 10
31.781786427780467
 20
157.59375
 30
0.0
 11
33.229066183617064
 21
157.59375
 31
0.0
  0
LINE
  5
173
  8
MyLines
 10
33.229066183617064
 20
157.59375
 30
0.0
 11
34.67634593945367
 21
157.59375
 31
0.0
  0
LINE
  5
174
  8
MyLines
 10
34.67634593945367
 20
157.59375
 30
0.0
 11
36.123625695290265
 21
157.59375
 31
0.0
  0
LINE
  5
175
  8
MyLines
 10
36.123625695290265
 20
157.59375
 30
0.0
 11
37.57090545112687
 21
157.59375
 31
0.0
  0
LINE
  5
176
  8
MyLines
 10
37.57090545112687
 20
157.59375
 30
0.0
 11
39.018185206963466
 21
157.59375
 31
0.0
  0
LINE
  5
177
  8
MyLines
 10
39.018185206963466
 20
157.59375
 30
0.0
 11
40.46546496280006
 21
157.59375
 31
0.0
  0
LINE
  5
178
  8
MyLines
 10
40.46546496280006
 20
157.59375
 30
0.0
 11
41.91274471863667
 21
157.59375
 31
0.0
  0
LINE
  5
179
  8
MyLines
 10
41.91274471863667
 20
157.59375
 30
0.0
 11
43.36002447447326
 21
157.59375
 31
0.0
  0
LINE
  5
17A
  8
MyLines
 10
43.36002447447326
 20
157.59375
 30
0.0
 11
44.80730423030987
 21
157.59375
 31
0.0
  0
LINE
  5
17B
  8
MyLines
 10
44.80730423030987
 20
157.59375
 30
0.0
 11
46.254583986146464
 21
157.59375
 31
0.0
  0
LINE
  5
17C
  8
MyLines
 10
46.254583986146464
 20
157.59375
 30
0.0
 11
47.70186374198307
 21
157.59375
 31
0.0
  0
LINE
  5
17D
  8
MyLines
 10
47.70186374198307
 20
157.59375
 30
0.0
 11
49.149143497819665
 21
157.59375
 31
0.0
  0
LINE
  5
17E
  8
MyLines
 10
49.149143497819665
 20
157.59375
 30
0.0
 11
50.59642325365627
 21
157.59375
 31
0.0
  0
LINE
  5
17F
  8
MyLines
 10
50.59642325365627
 20
157.59375
 30
0.0
 11
52.043703009492866
 21
157.59375
 31
0.0
  0
LINE
  5
180
  8
MyLines
 10
52.043703009492866
 20
157.59375
 30
0.0
 11
53.49098276532946
 21
157.59375
 31
0.0
  0
LINE
  5
181
  8
MyLines
 10
53.49098276532946
 20
157.59375
 30
0.0
 11
54.93826252116607
 21
157.59375
 31
0.0
  0
LINE
  5
182
  8
MyLines
 10
54.93826252116607
 20
157.59375
 30
0.0
 11
56.38554227700266
 21
157.59375
 31
0.0
  0
LINE
  5
183
  8
MyLines
 10
56.38554227700266
 20
157.59375
 30
0.0
 11
57.83282203283927
 21
157.59375
 31
0.0
  0
LINE
  5
184
  8
MyLines
 10
57.83282203283927
 20
157.59375
 30
0.0
 11
59.280101788675864
 21
157.59375
 31
0.0
  0
LINE
  5
185
  8
MyLines
 10
59.280101788675864
 20
157.59375
 30
0.0
 11
60.72738154451247
 21
157.59375
 31
0.0
  0
LINE
  5
186
  8
MyLines
 10
60.72738154451247
 20
157.59375
 30
0.0
 11
62.174661300349065
 21
157.59375
 31
0.0
  0
LINE
  5
187
  8
MyLines
 10
62.174661300349065
 20
157.59375
 30
0.0
 11
63.62194105618566
 21
157.59375
 31
0.0
  0
LINE
  5
188
  8
MyLines
 10
63.62194105618566
 20
157.59375
 30
0.0
 11
65.06922081202227
 21
157.59375
 31
0.0
  0
LINE
  5
189
  8
MyLines
 10
65.06922081202227
 20
157.59375
 30
0.0
 11
66.51650056785887
 21
157.59375
 31
0.0
  0
LINE
  5
18A
  8
MyLines
 10
66.51650056785887
 20
157.59375
 30
0.0
 11
67.96378032369546
 21
157.59375
 31
0.0
  0
LINE
  5
18B
  8
MyLines
 10
67.96378032369546
 20
157.59375
 30
0.0
 11
69.41106007953206
 21
157.59375
 31
0.0
  0
LINE
  5
18C
  8
MyLines
 10
69.41106007953206
 20
157.59375
 30
0.0
 11
70.85833983536867
 21
157.59375
 31
0.0
  0
LINE
  5
18D
  8
MyLines
 10
70.85833983536867
 20
157.59375
 30
0.0
 11
72.30561959120527
 21
157.59375
 31
0.0
  0
LINE
  5
18E
  8
MyLines
 10
72.30561959120527
 20
157.59375
 30
0.0
 11
73.75289934704186
 21
157.59375
 31
0.0
  0
LINE
  5
18F
  8
MyLines
 10
73.75289934704186
 20
157.59375
 30
0.0
 11
75.20017910287847
 21
157.59375
 31
0.0
  0
LINE
  5
190
  8
MyLines
 10
75.20017910287847
 20
157.59375
 30
0.0
 11
76.64745885871507
 21
157.59375
 31
0.0
  0
LINE
  5
191
  8
MyLines
 10
76.64745885871507
 20
157.59375
 30
0.0
 11
78.09473861455166
 21
157.59375
 31
0.0
  0
LINE
  5
192
  8
MyLines
 10
78.09473861455166
 20
157.59375
 30
0.0
 11
79.54201837038826
 21
157.59375
 31
0.0
  0
LINE
  5
193
  8
MyLines
 10
79.54201837038826
 20
157.59375
 30
0.0
 11
80.98929812622487
 21
157.59375
 31
0.0
  0
LINE
  5
194
  8
MyLines
 10
80.98929812622487
 20
157.59375
 30
0.0
 11
82.43657788206147
 21
157.59375
 31
0.0
  0
LINE
  5
195
  8
MyLines
 10
82.43657788206147
 20
157.59375
 30
0.0
 11
83.88385763789806
 21
157.59375
 31
0.0
  0
LINE
  5
196
  8
MyLines
 10
83.88385763789806
 20
157.59375
 30
0.0
 11
85.33113739373466
 21
157.59375
 31
0.0
  0
LINE
  5
197
  8
MyLines
 10
85.33113739373466
 20
157.59375
 30
0.0
 11
85.33113739373466
 21
-145.6875
 31
0.0
  0
LINE
  5
198
  8
MyLines
 10
85.33113739373466
 20
-145.6875
 30
0.0
 11
85.33113739373466
 21
-145.6875
 31
0.0
  0
LINE
  5
199
  8
MyLines
 10
85.33113739373466
 20
-145.6875
 30
0.0
 11
83.97804976627066
 21
-145.6875
 31
0.0
  0
LINE
  5
19A
  8
MyLines
 10
83.97804976627066
 20
-145.6875
 30
0.0
 11
82.62496213880665
 21
-145.6875
 31
0.0
  0
LINE
  5
19B
  8
MyLines
 10
82.62496213880665
 20
-145.6875
 30
0.0
 11
81.27187451134265
 21
-145.6875
 31
0.0
  0
LINE
  5
19C
  8
MyLines
 10
81.27187451134265
 20
-145.6875
 30
0.0
 11
79.91878688387864
 21
-145.6875
 31
0.0
  0
LINE
  5
19D
  8
MyLines
 10
79.91878688387864
 20
-145.6875
 30
0.0
 11
78.56569925641463
 21
-145.6875
 31
0.0
  0
LINE
  5
19E
  8
MyLines
 10
78.56569925641463
 20
-145.6875
 30
0.0
 11
77.21261162895063
 21
-145.6875
 31
0.0
  0
LINE
  5
19F
  8
MyLines
 10
77.21261162895063
 20
-145.6875
 30
0.0
 11
75.85952400148663
 21
-145.6875
 31
0.0
  0
LINE
  5
1A0
  8
MyLines
 10
75.85952400148663
 20
-145.6875
 30
0.0
 11
74.50643637402261
 21
-145.6875
 31
0.0
  0
LINE
  5
1A1
  8
MyLines
 10
74.50643637402261
 20
-145.6875
 30
0.0
 11
73.1533487465586
 21
-145.6875
 31
0.0
  0
LINE
  5
1A2
  8
MyLines
 10
73.1533487465586
 20
-145.6875
 30
0.0
 11
71.8002611190946
 21
-145.6875
 31
0.0
  0
LINE
  5
1A3
  8
MyLines
 10
71.8002611190946
 20
-145.6875
 30
0.0
 11
70.4471734916306
 21
-145.6875
 31
0.0
  0
LINE
  5
1A4
  8
MyLines
 10
70.4471734916306
 20
-145.6875
 30
0.0
 11
69.09408586416659
 21
-145.6875
 31
0.0
  0
LINE
  5
1A5
  8
MyLines
 10
69.09408586416659
 20
-145.6875
 30
0.0
 11
67.74099823670258
 21
-145.6875
 31
0.0
  0
LINE
  5
1A6
  8
MyLines
 10
67.74099823670258
 20
-145.6875
 30
0.0
 11
66.38791060923857
 21
-145.6875
 31
0.0
  0
LINE
  5
1A7
  8
MyLines
 10
66.38791060923857
 20
-145.6875
 30
0.0
 11
65.03482298177458
 21
-145.6875
 31
0.0
  0
LINE
  5
1A8
  8
MyLines
 10
65.03482298177458
 20
-145.6875
 30
0.0
 11
63.68173535431056
 21
-145.6875
 31
0.0
  0
LINE
  5
1A9
  8
MyLines
 10
63.68173535431056
 20
-145.6875
 30
0.0
 11
62.32864772684656
 21
-145.6875
 31
0.0
  0
LINE
  5
1AA
  8
MyLines
 10
62.32864772684656
 20
-145.6875
 30
0.0
 11
60.975560099382555
 21
-145.6875
 31
0.0
  0
LINE
  5
1AB
  8
MyLines
 10
60.975560099382555
 20
-145.6875
 30
0.0
 11
59.62247247191855
 21
-145.6875
 31
0.0
  0
LINE
  5
1AC
  8
MyLines
 10
59.62247247191855
 20
-145.6875
 30
0.0
 11
58.26938484445454
 21
-145.6875
 31
0.0
  0
LINE
  5
1AD
  8
MyLines
 10
58.26938484445454
 20
-145.6875
 30
0.0
 11
56.91629721699054
 21
-145.6875
 31
0.0
  0
LINE
  5
1AE
  8
MyLines
 10
56.91629721699054
 20
-145.6875
 30
0.0
 11
55.56320958952653
 21
-145.6875
 31
0.0
  0
LINE
  5
1AF
  8
MyLines
 10
55.56320958952653
 20
-145.6875
 30
0.0
 11
54.21012196206252
 21
-145.6875
 31
0.0
  0
LINE
  5
1B0
  8
MyLines
 10
54.21012196206252
 20
-145.6875
 30
0.0
 11
52.857034334598524
 21
-145.6875
 31
0.0
  0
LINE
  5
1B1
  8
MyLines
 10
52.857034334598524
 20
-145.6875
 30
0.0
 11
51.50394670713452
 21
-145.6875
 31
0.0
  0
LINE
  5
1B2
  8
MyLines
 10
51.50394670713452
 20
-145.6875
 30
0.0
 11
50.150859079670504
 21
-145.6875
 31
0.0
  0
LINE
  5
1B3
  8
MyLines
 10
50.150859079670504
 20
-145.6875
 30
0.0
 11
48.7977714522065
 21
-145.6875
 31
0.0
  0
LINE
  5
1B4
  8
MyLines
 10
48.7977714522065
 20
-145.6875
 30
0.0
 11
47.4446838247425
 21
-145.6875
 31
0.0
  0
LINE
  5
1B5
  8
MyLines
 10
47.4446838247425
 20
-145.6875
 30
0.0
 11
46.091596197278484
 21
-145.6875
 31
0.0
  0
LINE
  5
1B6
  8
MyLines
 10
46.091596197278484
 20
-145.6875
 30
0.0
 11
44.73850856981448
 21
-145.6875
 31
0.0
  0
LINE
  5
1B7
  8
MyLines
 10
44.73850856981448
 20
-145.6875
 30
0.0
 11
43.38542094235048
 21
-145.6875
 31
0.0
  0
LINE
  5
1B8
  8
MyLines
 10
43.38542094235048
 20
-145.6875
 30
0.0
 11
42.03233331488647
 21
-145.6875
 31
0.0
  0
LINE
  5
1B9
  8
MyLines
 10
42.03233331488647
 20
-145.6875
 30
0.0
 11
40.67924568742246
 21
-145.6875
 31
0.0
  0
LINE
  5
1BA
  8
MyLines
 10
40.67924568742246
 20
-145.6875
 30
0.0
 11
39.32615805995846
 21
-145.6875
 31
0.0
  0
LINE
  5
1BB
  8
MyLines
 10
39.32615805995846
 20
-145.6875
 30
0.0
 11
37.97307043249445
 21
-145.6875
 31
0.0
  0
LINE
  5
1BC
  8
MyLines
 10
37.97307043249445
 20
-145.6875
 30
0.0
 11
36.619982805030446
 21
-145.6875
 31
0.0
  0
LINE
  5
1BD
  8
MyLines
 10
36.619982805030446
 20
-145.6875
 30
0.0
 11
35.26689517756644
 21
-145.6875
 31
0.0
  0
LINE
  5
1BE
  8
MyLines
 10
35.26689517756644
 20
-145.6875
 30
0.0
 11
33.91380755010243
 21
-145.6875
 31
0.0
  0
LINE
  5
1BF
  8
MyLines
 10
33.91380755010243
 20
-145.6875
 30
0.0
 11
32.56071992263843
 21
-145.6875
 31
0.0
  0
LINE
  5
1C0
  8
MyLines
 10
32.56071992263843
 20
-145.6875
 30
0.0
 11
31.207632295174417
 21
-145.6875
 31
0.0
  0
LINE
  5
1C1
  8
MyLines
 10
31.207632295174417
 20
-145.6875
 30
0.0
 11
29.854544667710417
 21
-145.6875
 31
0.0
  0
LINE
  5
1C2
  8
MyLines
 10
29.854544667710417
 20
-145.6875
 30
0.0
 11
28.501457040246407
 21
-145.6875
 31
0.0
  0
LINE
  5
1C3
  8
MyLines
 10
28.501457040246407
 20
-145.6875
 30
0.0
 11
27.1483694127824
 21
-145.6875
 31
0.0
  0
LINE
  5
1C4
  8
MyLines
 10
27.1483694127824
 20
-145.6875
 30
0.0
 11
25.795281785318398
 21
-145.6875
 31
0.0
  0
LINE
  5
1C5
  8
MyLines
 10
25.795281785318398
 20
-145.6875
 30
0.0
 11
24.44219415785439
 21
-145.6875
 31
0.0
  0
LINE
  5
1C6
  8
MyLines
 10
24.44219415785439
 20
-145.6875
 30
0.0
 11
23.08910653039038
 21
-145.6875
 31
0.0
  0
LINE
  5
1C7
  8
MyLines
 10
23.08910653039038
 20
-145.6875
 30
0.0
 11
21.736018902926382
 21
-145.6875
 31
0.0
  0
LINE
  5
1C8
  8
MyLines
 10
21.736018902926382
 20
-145.6875
 30
0.0
 11
20.38293127546238
 21
-145.6875
 31
0.0
  0
LINE
  5
1C9
  8
MyLines
 10
20.38293127546238
 20
-145.6875
 30
0.0
 11
19.029843647998373
 21
-145.6875
 31
0.0
  0
LINE
  5
1CA
  8
MyLines
 10
19.029843647998373
 20
-145.6875
 30
0.0
 11
19.029843647998373
 21
-145.6875
 31
0.0
  0
LINE
  5
1CB
  8
MyLines
 10
19.029843647998373
 20
-145.6875
 30
0.0
 11
19.029843647998373
 21
153.625
 31
0.0
  0
LINE
  5
1CC
  8
MyLines
 10
19.029843647998373
 20
153.625
 30
0.0
 11
19.029843647998373
 21
153.625
 31
0.0
  0
LINE
  5
1CD
  8
MyLines
 10
19.029843647998373
 20
153.625
 30
0.0
 11
20.288739147089785
 21
153.625
 31
0.0
  0
LINE
  5
1CE
  8
MyLines
 10
20.288739147089785
 20
153.625
 30
0.0
 11
21.547634646181198
 21
153.625
 31
0.0
  0
LINE
  5
1CF
  8
MyLines
 10
21.547634646181198
 20
153.625
 30
0.0
 11
22.806530145272607
 21
153.625
 31
0.0
  0
LINE
  5
1D0
  8
MyLines
 10
22.806530145272607
 20
153.625
 30
0.0
 11
24.06542564436402
 21
153.625
 31
0.0
  0
LINE
  5
1D1
  8
MyLines
 10
24.06542564436402
 20
153.625
 30
0.0
 11
25.324321143455432
 21
153.625
 31
0.0
  0
LINE
  5
1D2
  8
MyLines
 10
25.324321143455432
 20
153.625
 30
0.0
 11
26.583216642546844
 21
153.625
 31
0.0
  0
LINE
  5
1D3
  8
MyLines
 10
26.583216642546844
 20
153.625
 30
0.0
 11
27.842112141638257
 21
153.625
 31
0.0
  0
LINE
  5
1D4
  8
MyLines
 10
27.842112141638257
 20
153.625
 30
0.0
 11
29.10100764072967
 21
153.625
 31
0.0
  0
LINE
  5
1D5
  8
MyLines
 10
29.10100764072967
 20
153.625
 30
0.0
 11
30.359903139821082
 21
153.625
 31
0.0
  0
LINE
  5
1D6
  8
MyLines
 10
30.359903139821082
 20
153.625
 30
0.0
 11
31.618798638912494
 21
153.625
 31
0.0
  0
LINE
  5
1D7
  8
MyLines
 10
31.618798638912494
 20
153.625
 30
0.0
 11
32.8776941380039
 21
153.625
 31
0.0
  0
LINE
  5
1D8
  8
MyLines
 10
32.8776941380039
 20
153.625
 30
0.0
 11
34.13658963709532
 21
153.625
 31
0.0
  0
LINE
  5
1D9
  8
MyLines
 10
34.13658963709532
 20
153.625
 30
0.0
 11
35.39548513618673
 21
153.625
 31
0.0
  0
LINE
  5
1DA
  8
MyLines
 10
35.39548513618673
 20
153.625
 30
0.0
 11
36.65438063527814
 21
153.625
 31
0.0
  0
LINE
  5
1DB
  8
MyLines
 10
36.65438063527814
 20
153.625
 30
0.0
 11
37.91327613436956
 21
153.625
 31
0.0
  0
LINE
  5
1DC
  8
MyLines
 10
37.91327613436956
 20
153.625
 30
0.0
 11
39.17217163346097
 21
153.625
 31
0.0
  0
LINE
  5
1DD
  8
MyLines
 10
39.17217163346097
 20
153.625
 30
0.0
 11
40.43106713255238
 21
153.625
 31
0.0
  0
LINE
  5
1DE
  8
MyLines
 10
40.43106713255238
 20
153.625
 30
0.0
 11
41.689962631643795
 21
153.625
 31
0.0
  0
LINE
  5
1DF
  8
MyLines
 10
41.689962631643795
 20
153.625
 30
0.0
 11
42.9488581307352
 21
153.625
 31
0.0
  0
LINE
  5
1E0
  8
MyLines
 10
42.9488581307352
 20
153.625
 30
0.0
 11
44.20775362982661
 21
153.625
 31
0.0
  0
LINE
  5
1E1
  8
MyLines
 10
44.20775362982661
 20
153.625
 30
0.0
 11
45.46664912891803
 21
153.625
 31
0.0
  0
LINE
  5
1E2
  8
MyLines
 10
45.46664912891803
 20
153.625
 30
0.0
 11
46.72554462800944
 21
153.625
 31
0.0
  0
LINE
  5
1E3
  8
MyLines
 10
46.72554462800944
 20
153.625
 30
0.0
 11
47.98444012710085
 21
153.625
 31
0.0
  0
LINE
  5
1E4
  8
MyLines
 10
47.98444012710085
 20
153.625
 30
0.0
 11
49.24333562619226
 21
153.625
 31
0.0
  0
LINE
  5
1E5
  8
MyLines
 10
49.24333562619226
 20
153.625
 30
0.0
 11
50.50223112528368
 21
153.625
 31
0.0
  0
LINE
  5
1E6
  8
MyLines
 10
50.50223112528368
 20
153.625
 30
0.0
 11
51.76112662437509
 21
153.625
 31
0.0
  0
LINE
  5
1E7
  8
MyLines
 10
51.76112662437509
 20
153.625
 30
0.0
 11
53.020022123466504
 21
153.625
 31
0.0
  0
LINE
  5
1E8
  8
MyLines
 10
53.020022123466504
 20
153.625
 30
0.0
 11
54.27891762255791
 21
153.625
 31
0.0
  0
LINE
  5
1E9
  8
MyLines
 10
54.27891762255791
 20
153.625
 30
0.0
 11
55.53781312164933
 21
153.625
 31
0.0
  0
LINE
  5
1EA
  8
MyLines
 10
55.53781312164933
 20
153.625
 30
0.0
 11
56.79670862074074
 21
153.625
 31
0.0
  0
LINE
  5
1EB
  8
MyLines
 10
56.79670862074074
 20
153.625
 30
0.0
 11
58.055604119832154
 21
153.625
 31
0.0
  0
LINE
  5
1EC
  8
MyLines
 10
58.055604119832154
 20
153.625
 30
0.0
 11
59.31449961892356
 21
153.625
 31
0.0
  0
LINE
  5
1ED
  8
MyLines
 10
59.31449961892356
 20
153.625
 30
0.0
 11
60.57339511801497
 21
153.625
 31
0.0
  0
LINE
  5
1EE
  8
MyLines
 10
60.57339511801497
 20
153.625
 30
0.0
 11
61.83229061710639
 21
153.625
 31
0.0
  0
LINE
  5
1EF
  8
MyLines
 10
61.83229061710639
 20
153.625
 30
0.0
 11
63.0911861161978
 21
153.625
 31
0.0
  0
LINE
  5
1F0
  8
MyLines
 10
63.0911861161978
 20
153.625
 30
0.0
 11
64.35008161528923
 21
153.625
 31
0.0
  0
LINE
  5
1F1
  8
MyLines
 10
64.35008161528923
 20
153.625
 30
0.0
 11
65.60897711438062
 21
153.625
 31
0.0
  0
LINE
  5
1F2
  8
MyLines
 10
65.60897711438062
 20
153.625
 30
0.0
 11
66.86787261347203
 21
153.625
 31
0.0
  0
LINE
  5
1F3
  8
MyLines
 10
66.86787261347203
 20
153.625
 30
0.0
 11
68.12676811256345
 21
153.625
 31
0.0
  0
LINE
  5
1F4
  8
MyLines
 10
68.12676811256345
 20
153.625
 30
0.0
 11
69.38566361165486
 21
153.625
 31
0.0
  0
LINE
  5
1F5
  8
MyLines
 10
69.38566361165486
 20
153.625
 30
0.0
 11
70.64455911074626
 21
153.625
 31
0.0
  0
LINE
  5
1F6
  8
MyLines
 10
70.64455911074626
 20
153.625
 30
0.0
 11
71.9034546098377
 21
153.625
 31
0.0
  0
LINE
  5
1F7
  8
MyLines
 10
71.9034546098377
 20
153.625
 30
0.0
 11
73.16235010892909
 21
153.625
 31
0.0
  0
LINE
  5
1F8
  8
MyLines
 10
73.16235010892909
 20
153.625
 30
0.0
 11
74.4212456080205
 21
153.625
 31
0.0
  0
LINE
  5
1F9
  8
MyLines
 10
74.4212456080205
 20
153.625
 30
0.0
 11
75.68014110711192
 21
153.625
 31
0.0
  0
LINE
  5
1FA
  8
MyLines
 10
75.68014110711192
 20
153.625
 30
0.0
 11
76.93903660620333
 21
153.625
 31
0.0
  0
LINE
  5
1FB
  8
MyLines
 10
76.93903660620333
 20
153.625
 30
0.0
 11
78.19793210529475
 21
153.625
 31
0.0
  0
LINE
  5
1FC
  8
MyLines
 10
78.19793210529475
 20
153.625
 30
0.0
 11
79.45682760438616
 21
153.625
 31
0.0
  0
LINE
  5
1FD
  8
MyLines
 10
79.45682760438616
 20
153.625
 30
0.0
 11
80.71572310347757
 21
153.625
 31
0.0
  0
LINE
  5
1FE
  8
MyLines
 10
80.71572310347757
 20
153.625
 30
0.0
 11
80.71572310347757
 21
-141.71875
 31
0.0
  0
LINE
  5
1FF
  8
MyLines
 10
80.71572310347757
 20
-141.71875
 30
0.0
 11
80.71572310347757
 21
-141.71875
 31
0.0
  0
LINE
  5
200
  8
MyLines
 10
80.71572310347757
 20
-141.71875
 30
0.0
 11
79.56194709298224
 21
-141.71875
 31
0.0
  0
LINE
  5
201
  8
MyLines
 10
79.56194709298224
 20
-141.71875
 30
0.0
 11
78.40817108248692
 21
-141.71875
 31
0.0
  0
LINE
  5
202
  8
MyLines
 10
78.40817108248692
 20
-141.71875
 30
0.0
 11
77.25439507199158
 21
-141.71875
 31
0.0
  0
LINE
  5
203
  8
MyLines
 10
77.25439507199158
 20
-141.71875
 30
0.0
 11
76.10061906149625
 21
-141.71875
 31
0.0
  0
LINE
  5
204
  8
MyLines
 10
76.10061906149625
 20
-141.71875
 30
0.0
 11
74.94684305100093
 21
-141.71875
 31
0.0
  0
LINE
  5
205
  8
MyLines
 10
74.94684305100093
 20
-141.71875
 30
0.0
 11
73.79306704050559
 21
-141.71875
 31
0.0
  0
LINE
  5
206
  8
MyLines
 10
73.79306704050559
 20
-141.71875
 30
0.0
 11
72.63929103001026
 21
-141.71875
 31
0.0
  0
LINE
  5
207
  8
MyLines
 10
72.63929103001026
 20
-141.71875
 30
0.0
 11
71.48551501951493
 21
-141.71875
 31
0.0
  0
LINE
  5
208
  8
MyLines
 10
71.48551501951493
 20
-141.71875
 30
0.0
 11
70.3317390090196
 21
-141.71875
 31
0.0
  0
LINE
  5
209
  8
MyLines
 10
70.3317390090196
 20
-141.71875
 30
0.0
 11
69.17796299852427
 21
-141.71875
 31
0.0
  0
LINE
  5
20A
  8
MyLines
 10
69.17796299852427
 20
-141.71875
 30
0.0
 11
68.02418698802893
 21
-141.71875
 31
0.0
  0
LINE
  5
20B
  8
MyLines
 10
68.02418698802893
 20
-141.71875
 30
0.0
 11
66.8704109775336
 21
-141.71875
 31
0.0
  0
LINE
  5
20C
  8
MyLines
 10
66.8704109775336
 20
-141.71875
 30
0.0
 11
65.71663496703827
 21
-141.71875
 31
0.0
  0
LINE
  5
20D
  8
MyLines
 10
65.71663496703827
 20
-141.71875
 30
0.0
 11
64.56285895654294
 21
-141.71875
 31
0.0
  0
LINE
  5
20E
  8
MyLines
 10
64.56285895654294
 20
-141.71875
 30
0.0
 11
63.40908294604762
 21
-141.71875
 31
0.0
  0
LINE
  5
20F
  8
MyLines
 10
63.40908294604762
 20
-141.71875
 30
0.0
 11
62.25530693555229
 21
-141.71875
 31
0.0
  0
LINE
  5
210
  8
MyLines
 10
62.25530693555229
 20
-141.71875
 30
0.0
 11
61.101530925056956
 21
-141.71875
 31
0.0
  0
LINE
  5
211
  8
MyLines
 10
61.101530925056956
 20
-141.71875
 30
0.0
 11
59.94775491456163
 21
-141.71875
 31
0.0
  0
LINE
  5
212
  8
MyLines
 10
59.94775491456163
 20
-141.71875
 30
0.0
 11
58.7939789040663
 21
-141.71875
 31
0.0
  0
LINE
  5
213
  8
MyLines
 10
58.7939789040663
 20
-141.71875
 30
0.0
 11
57.640202893570965
 21
-141.71875
 31
0.0
  0
LINE
  5
214
  8
MyLines
 10
57.640202893570965
 20
-141.71875
 30
0.0
 11
56.48642688307564
 21
-141.71875
 31
0.0
  0
LINE
  5
215
  8
MyLines
 10
56.48642688307564
 20
-141.71875
 30
0.0
 11
55.33265087258031
 21
-141.71875
 31
0.0
  0
LINE
  5
216
  8
MyLines
 10
55.33265087258031
 20
-141.71875
 30
0.0
 11
54.17887486208497
 21
-141.71875
 31
0.0
  0
LINE
  5
217
  8
MyLines
 10
54.17887486208497
 20
-141.71875
 30
0.0
 11
53.02509885158964
 21
-141.71875
 31
0.0
  0
LINE
  5
218
  8
MyLines
 10
53.02509885158964
 20
-141.71875
 30
0.0
 11
51.87132284109431
 21
-141.71875
 31
0.0
  0
LINE
  5
219
  8
MyLines
 10
51.87132284109431
 20
-141.71875
 30
0.0
 11
50.71754683059898
 21
-141.71875
 31
0.0
  0
LINE
  5
21A
  8
MyLines
 10
50.71754683059898
 20
-141.71875
 30
0.0
 11
49.563770820103656
 21
-141.71875
 31
0.0
  0
LINE
  5
21B
  8
MyLines
 10
49.563770820103656
 20
-141.71875
 30
0.0
 11
48.40999480960832
 21
-141.71875
 31
0.0
  0
LINE
  5
21C
  8
MyLines
 10
48.40999480960832
 20
-141.71875
 30
0.0
 11
47.25621879911299
 21
-141.71875
 31
0.0
  0
LINE
  5
21D
  8
MyLines
 10
47.25621879911299
 20
-141.71875
 30
0.0
 11
46.102442788617665
 21
-141.71875
 31
0.0
  0
LINE
  5
21E
  8
MyLines
 10
46.102442788617665
 20
-141.71875
 30
0.0
 11
44.94866677812233
 21
-141.71875
 31
0.0
  0
LINE
  5
21F
  8
MyLines
 10
44.94866677812233
 20
-141.71875
 30
0.0
 11
43.794890767627
 21
-141.71875
 31
0.0
  0
LINE
  5
220
  8
MyLines
 10
43.794890767627
 20
-141.71875
 30
0.0
 11
42.641114757131675
 21
-141.71875
 31
0.0
  0
LINE
  5
221
  8
MyLines
 10
42.641114757131675
 20
-141.71875
 30
0.0
 11
41.48733874663634
 21
-141.71875
 31
0.0
  0
LINE
  5
222
  8
MyLines
 10
41.48733874663634
 20
-141.71875
 30
0.0
 11
40.33356273614101
 21
-141.71875
 31
0.0
  0
LINE
  5
223
  8
MyLines
 10
40.33356273614101
 20
-141.71875
 30
0.0
 11
39.179786725645684
 21
-141.71875
 31
0.0
  0
LINE
  5
224
  8
MyLines
 10
39.179786725645684
 20
-141.71875
 30
0.0
 11
38.026010715150356
 21
-141.71875
 31
0.0
  0
LINE
  5
225
  8
MyLines
 10
38.026010715150356
 20
-141.71875
 30
0.0
 11
36.87223470465502
 21
-141.71875
 31
0.0
  0
LINE
  5
226
  8
MyLines
 10
36.87223470465502
 20
-141.71875
 30
0.0
 11
35.71845869415969
 21
-141.71875
 31
0.0
  0
LINE
  5
227
  8
MyLines
 10
35.71845869415969
 20
-141.71875
 30
0.0
 11
34.564682683664365
 21
-141.71875
 31
0.0
  0
LINE
  5
228
  8
MyLines
 10
34.564682683664365
 20
-141.71875
 30
0.0
 11
33.41090667316903
 21
-141.71875
 31
0.0
  0
LINE
  5
229
  8
MyLines
 10
33.41090667316903
 20
-141.71875
 30
0.0
 11
32.2571306626737
 21
-141.71875
 31
0.0
  0
LINE
  5
22A
  8
MyLines
 10
32.2571306626737
 20
-141.71875
 30
0.0
 11
31.103354652178375
 21
-141.71875
 31
0.0
  0
LINE
  5
22B
  8
MyLines
 10
31.103354652178375
 20
-141.71875
 30
0.0
 11
29.949578641683043
 21
-141.71875
 31
0.0
  0
LINE
  5
22C
  8
MyLines
 10
29.949578641683043
 20
-141.71875
 30
0.0
 11
28.79580263118771
 21
-141.71875
 31
0.0
  0
LINE
  5
22D
  8
MyLines
 10
28.79580263118771
 20
-141.71875
 30
0.0
 11
27.64202662069238
 21
-141.71875
 31
0.0
  0
LINE
  5
22E
  8
MyLines
 10
27.64202662069238
 20
-141.71875
 30
0.0
 11
26.488250610197053
 21
-141.71875
 31
0.0
  0
LINE
  5
22F
  8
MyLines
 10
26.488250610197053
 20
-141.71875
 30
0.0
 11
25.334474599701718
 21
-141.71875
 31
0.0
  0
LINE
  5
230
  8
MyLines
 10
25.334474599701718
 20
-141.71875
 30
0.0
 11
24.18069858920639
 21
-141.71875
 31
0.0
  0
LINE
  5
231
  8
MyLines
 10
24.18069858920639
 20
-141.71875
 30
0.0
 11
24.18069858920639
 21
-141.71875
 31
0.0
  0
LINE
  5
232
  8
MyLines
 10
24.18069858920639
 20
-141.71875
 30
0.0
 11
24.18069858920639
 21
149.65625
 31
0.0
  0
LINE
  5
233
  8
MyLines
 10
24.18069858920639
 20
149.65625
 30
0.0
 11
24.18069858920639
 21
149.65625
 31
0.0
  0
LINE
  5
234
  8
MyLines
 10
24.18069858920639
 20
149.65625
 30
0.0
 11
25.229355111105637
 21
149.65625
 31
0.0
  0
LINE
  5
235
  8
MyLines
 10
25.229355111105637
 20
149.65625
 30
0.0
 11
26.278011633004887
 21
149.65625
 31
0.0
  0
LINE
  5
236
  8
MyLines
 10
26.278011633004887
 20
149.65625
 30
0.0
 11
27.326668154904134
 21
149.65625
 31
0.0
  0
LINE
  5
237
  8
MyLines
 10
27.326668154904134
 20
149.65625
 30
0.0
 11
28.37532467680338
 21
149.65625
 31
0.0
  0
LINE
  5
238
  8
MyLines
 10
28.37532467680338
 20
149.65625
 30
0.0
 11
29.42398119870263
 21
149.65625
 31
0.0
  0
LINE
  5
239
  8
MyLines
 10
29.42398119870263
 20
149.65625
 30
0.0
 11
30.472637720601877
 21
149.65625
 31
0.0
  0
LINE
  5
23A
  8
MyLines
 10
30.472637720601877
 20
149.65625
 30
0.0
 11
31.521294242501124
 21
149.65625
 31
0.0
  0
LINE
  5
23B
  8
MyLines
 10
31.521294242501124
 20
149.65625
 30
0.0
 11
32.56995076440037
 21
149.65625
 31
0.0
  0
LINE
  5
23C
  8
MyLines
 10
32.56995076440037
 20
149.65625
 30
0.0
 11
33.61860728629962
 21
149.65625
 31
0.0
  0
LINE
  5
23D
  8
MyLines
 10
33.61860728629962
 20
149.65625
 30
0.0
 11
34.66726380819886
 21
149.65625
 31
0.0
  0
LINE
  5
23E
  8
MyLines
 10
34.66726380819886
 20
149.65625
 30
0.0
 11
35.715920330098115
 21
149.65625
 31
0.0
  0
LINE
  5
23F
  8
MyLines
 10
35.715920330098115
 20
149.65625
 30
0.0
 11
36.76457685199736
 21
149.65625
 31
0.0
  0
LINE
  5
240
  8
MyLines
 10
36.76457685199736
 20
149.65625
 30
0.0
 11
37.81323337389661
 21
149.65625
 31
0.0
  0
LINE
  5
241
  8
MyLines
 10
37.81323337389661
 20
149.65625
 30
0.0
 11
38.861889895795855
 21
149.65625
 31
0.0
  0
LINE
  5
242
  8
MyLines
 10
38.861889895795855
 20
149.65625
 30
0.0
 11
39.9105464176951
 21
149.65625
 31
0.0
  0
LINE
  5
243
  8
MyLines
 10
39.9105464176951
 20
149.65625
 30
0.0
 11
40.959202939594356
 21
149.65625
 31
0.0
  0
LINE
  5
244
  8
MyLines
 10
40.959202939594356
 20
149.65625
 30
0.0
 11
42.007859461493595
 21
149.65625
 31
0.0
  0
LINE
  5
245
  8
MyLines
 10
42.007859461493595
 20
149.65625
 30
0.0
 11
43.05651598339285
 21
149.65625
 31
0.0
  0
LINE
  5
246
  8
MyLines
 10
43.05651598339285
 20
149.65625
 30
0.0
 11
44.105172505292096
 21
149.65625
 31
0.0
  0
LINE
  5
247
  8
MyLines
 10
44.105172505292096
 20
149.65625
 30
0.0
 11
45.15382902719134
 21
149.65625
 31
0.0
  0
LINE
  5
248
  8
MyLines
 10
45.15382902719134
 20
149.65625
 30
0.0
 11
46.202485549090596
 21
149.65625
 31
0.0
  0
LINE
  5
249
  8
MyLines
 10
46.202485549090596
 20
149.65625
 30
0.0
 11
47.251142070989836
 21
149.65625
 31
0.0
  0
LINE
  5
24A
  8
MyLines
 10
47.251142070989836
 20
149.65625
 30
0.0
 11
48.29979859288909
 21
149.65625
 31
0.0
  0
LINE
  5
24B
  8
MyLines
 10
48.29979859288909
 20
149.65625
 30
0.0
 11
49.34845511478834
 21
149.65625
 31
0.0
  0
LINE
  5
24C
  8
MyLines
 10
49.34845511478834
 20
149.65625
 30
0.0
 11
50.39711163668758
 21
149.65625
 31
0.0
  0
LINE
  5
24D
  8
MyLines
 10
50.39711163668758
 20
149.65625
 30
0.0
 11
51.44576815858683
 21
149.65625
 31
0.0
  0
LINE
  5
24E
  8
MyLines
 10
51.44576815858683
 20
149.65625
 30
0.0
 11
52.49442468048608
 21
149.65625
 31
0.0
  0
LINE
  5
24F
  8
MyLines
 10
52.49442468048608
 20
149.65625
 30
0.0
 11
53.54308120238533
 21
149.65625
 31
0.0
  0
LINE
  5
250
  8
MyLines
 10
53.54308120238533
 20
149.65625
 30
0.0
 11
54.59173772428457
 21
149.65625
 31
0.0
  0
LINE
  5
251
  8
MyLines
 10
54.59173772428457
 20
149.65625
 30
0.0
 11
55.640394246183824
 21
149.65625
 31
0.0
  0
LINE
  5
252
  8
MyLines
 10
55.640394246183824
 20
149.65625
 30
0.0
 11
56.68905076808307
 21
149.65625
 31
0.0
  0
LINE
  5
253
  8
MyLines
 10
56.68905076808307
 20
149.65625
 30
0.0
 11
57.73770728998232
 21
149.65625
 31
0.0
  0
LINE
  5
254
  8
MyLines
 10
57.73770728998232
 20
149.65625
 30
0.0
 11
58.786363811881564
 21
149.65625
 31
0.0
  0
LINE
  5
255
  8
MyLines
 10
58.786363811881564
 20
149.65625
 30
0.0
 11
59.83502033378081
 21
149.65625
 31
0.0
  0
LINE
  5
256
  8
MyLines
 10
59.83502033378081
 20
149.65625
 30
0.0
 11
60.88367685568006
 21
149.65625
 31
0.0
  0
LINE
  5
257
  8
MyLines
 10
60.88367685568006
 20
149.65625
 30
0.0
 11
61.93233337757931
 21
149.65625
 31
0.0
  0
LINE
  5
258
  8
MyLines
 10
61.93233337757931
 20
149.65625
 30
0.0
 11
62.98098989947856
 21
149.65625
 31
0.0
  0
LINE
  5
259
  8
MyLines
 10
62.98098989947856
 20
149.65625
 30
0.0
 11
64.02964642137782
 21
149.65625
 31
0.0
  0
LINE
  5
25A
  8
MyLines
 10
64.02964642137782
 20
149.65625
 30
0.0
 11
65.07830294327705
 21
149.65625
 31
0.0
  0
LINE
  5
25B
  8
MyLines
 10
65.07830294327705
 20
149.65625
 30
0.0
 11
66.1269594651763
 21
149.65625
 31
0.0
  0
LINE
  5
25C
  8
MyLines
 10
66.1269594651763
 20
149.65625
 30
0.0
 11
67.17561598707555
 21
149.65625
 31
0.0
  0
LINE
  5
25D
  8
MyLines
 10
67.17561598707555
 20
149.65625
 30
0.0
 11
68.2242725089748
 21
149.65625
 31
0.0
  0
LINE
  5
25E
  8
MyLines
 10
68.2242725089748
 20
149.65625
 30
0.0
 11
69.27292903087404
 21
149.65625
 31
0.0
  0
LINE
  5
25F
  8
MyLines
 10
69.27292903087404
 20
149.65625
 30
0.0
 11
70.3215855527733
 21
149.65625
 31
0.0
  0
LINE
  5
260
  8
MyLines
 10
70.3215855527733
 20
149.65625
 30
0.0
 11
71.37024207467255
 21
149.65625
 31
0.0
  0
LINE
  5
261
  8
MyLines
 10
71.37024207467255
 20
149.65625
 30
0.0
 11
72.4188985965718
 21
149.65625
 31
0.0
  0
LINE
  5
262
  8
MyLines
 10
72.4188985965718
 20
149.65625
 30
0.0
 11
73.46755511847103
 21
149.65625
 31
0.0
  0
LINE
  5
263
  8
MyLines
 10
73.46755511847103
 20
149.65625
 30
0.0
 11
74.5162116403703
 21
149.65625
 31
0.0
  0
LINE
  5
264
  8
MyLines
 10
74.5162116403703
 20
149.65625
 30
0.0
 11
75.56486816226953
 21
149.65625
 31
0.0
  0
LINE
  5
265
  8
MyLines
 10
75.56486816226953
 20
149.65625
 30
0.0
 11
75.56486816226953
 21
-137.75
 31
0.0
  0
LINE
  5
266
  8
MyLines
 10
75.56486816226953
 20
-137.75
 30
0.0
 11
75.56486816226953
 21
-137.75
 31
0.0
  0
LINE
  5
267
  8
MyLines
 10
75.56486816226953
 20
-137.75
 30
0.0
 11
74.64266226285463
 21
-137.75
 31
0.0
  0
LINE
  5
268
  8
MyLines
 10
74.64266226285463
 20
-137.75
 30
0.0
 11
73.72045636343972
 21
-137.75
 31
0.0
  0
LINE
  5
269
  8
MyLines
 10
73.72045636343972
 20
-137.75
 30
0.0
 11
72.7982504640248
 21
-137.75
 31
0.0
  0
LINE
  5
26A
  8
MyLines
 10
72.7982504640248
 20
-137.75
 30
0.0
 11
71.8760445646099
 21
-137.75
 31
0.0
  0
LINE
  5
26B
  8
MyLines
 10
71.8760445646099
 20
-137.75
 30
0.0
 11
70.953838665195
 21
-137.75
 31
0.0
  0
LINE
  5
26C
  8
MyLines
 10
70.953838665195
 20
-137.75
 30
0.0
 11
70.03163276578009
 21
-137.75
 31
0.0
  0
LINE
  5
26D
  8
MyLines
 10
70.03163276578009
 20
-137.75
 30
0.0
 11
69.10942686636517
 21
-137.75
 31
0.0
  0
LINE
  5
26E
  8
MyLines
 10
69.10942686636517
 20
-137.75
 30
0.0
 11
68.18722096695026
 21
-137.75
 31
0.0
  0
LINE
  5
26F
  8
MyLines
 10
68.18722096695026
 20
-137.75
 30
0.0
 11
67.26501506753536
 21
-137.75
 31
0.0
  0
LINE
  5
270
  8
MyLines
 10
67.26501506753536
 20
-137.75
 30
0.0
 11
66.34280916812045
 21
-137.75
 31
0.0
  0
LINE
  5
271
  8
MyLines
 10
66.34280916812045
 20
-137.75
 30
0.0
 11
65.42060326870553
 21
-137.75
 31
0.0
  0
LINE
  5
272
  8
MyLines
 10
65.42060326870553
 20
-137.75
 30
0.0
 11
64.49839736929063
 21
-137.75
 31
0.0
  0
LINE
  5
273
  8
MyLines
 10
64.49839736929063
 20
-137.75
 30
0.0
 11
63.576191469875724
 21
-137.75
 31
0.0
  0
LINE
  5
274
  8
MyLines
 10
63.576191469875724
 20
-137.75
 30
0.0
 11
62.653985570460804
 21
-137.75
 31
0.0
  0
LINE
  5
275
  8
MyLines
 10
62.653985570460804
 20
-137.75
 30
0.0
 11
61.7317796710459
 21
-137.75
 31
0.0
  0
LINE
  5
276
  8
MyLines
 10
61.7317796710459
 20
-137.75
 30
0.0
 11
60.80957377163099
 21
-137.75
 31
0.0
  0
LINE
  5
277
  8
MyLines
 10
60.80957377163099
 20
-137.75
 30
0.0
 11
59.88736787221608
 21
-137.75
 31
0.0
  0
LINE
  5
278
  8
MyLines
 10
59.88736787221608
 20
-137.75
 30
0.0
 11
58.96516197280117
 21
-137.75
 31
0.0
  0
LINE
  5
279
  8
MyLines
 10
58.96516197280117
 20
-137.75
 30
0.0
 11
58.042956073386264
 21
-137.75
 31
0.0
  0
LINE
  5
27A
  8
MyLines
 10
58.042956073386264
 20
-137.75
 30
0.0
 11
57.12075017397135
 21
-137.75
 31
0.0
  0
LINE
  5
27B
  8
MyLines
 10
57.12075017397135
 20
-137.75
 30
0.0
 11
56.19854427455645
 21
-137.75
 31
0.0
  0
LINE
  5
27C
  8
MyLines
 10
56.19854427455645
 20
-137.75
 30
0.0
 11
55.276338375141535
 21
-137.75
 31
0.0
  0
LINE
  5
27D
  8
MyLines
 10
55.276338375141535
 20
-137.75
 30
0.0
 11
54.35413247572663
 21
-137.75
 31
0.0
  0
LINE
  5
27E
  8
MyLines
 10
54.35413247572663
 20
-137.75
 30
0.0
 11
53.43192657631172
 21
-137.75
 31
0.0
  0
LINE
  5
27F
  8
MyLines
 10
53.43192657631172
 20
-137.75
 30
0.0
 11
52.50972067689681
 21
-137.75
 31
0.0
  0
LINE
  5
280
  8
MyLines
 10
52.50972067689681
 20
-137.75
 30
0.0
 11
51.58751477748191
 21
-137.75
 31
0.0
  0
LINE
  5
281
  8
MyLines
 10
51.58751477748191
 20
-137.75
 30
0.0
 11
50.66530887806699
 21
-137.75
 31
0.0
  0
LINE
  5
282
  8
MyLines
 10
50.66530887806699
 20
-137.75
 30
0.0
 11
49.74310297865208
 21
-137.75
 31
0.0
  0
LINE
  5
283
  8
MyLines
 10
49.74310297865208
 20
-137.75
 30
0.0
 11
48.82089707923717
 21
-137.75
 31
0.0
  0
LINE
  5
284
  8
MyLines
 10
48.82089707923717
 20
-137.75
 30
0.0
 11
47.898691179822265
 21
-137.75
 31
0.0
  0
LINE
  5
285
  8
MyLines
 10
47.898691179822265
 20
-137.75
 30
0.0
 11
46.97648528040735
 21
-137.75
 31
0.0
  0
LINE
  5
286
  8
MyLines
 10
46.97648528040735
 20
-137.75
 30
0.0
 11
46.05427938099245
 21
-137.75
 31
0.0
  0
LINE
  5
287
  8
MyLines
 10
46.05427938099245
 20
-137.75
 30
0.0
 11
45.132073481577535
 21
-137.75
 31
0.0
  0
LINE
  5
288
  8
MyLines
 10
45.132073481577535
 20
-137.75
 30
0.0
 11
44.20986758216263
 21
-137.75
 31
0.0
  0
LINE
  5
289
  8
MyLines
 10
44.20986758216263
 20
-137.75
 30
0.0
 11
43.28766168274772
 21
-137.75
 31
0.0
  0
LINE
  5
28A
  8
MyLines
 10
43.28766168274772
 20
-137.75
 30
0.0
 11
42.36545578333281
 21
-137.75
 31
0.0
  0
LINE
  5
28B
  8
MyLines
 10
42.36545578333281
 20
-137.75
 30
0.0
 11
41.4432498839179
 21
-137.75
 31
0.0
  0
LINE
  5
28C
  8
MyLines
 10
41.4432498839179
 20
-137.75
 30
0.0
 11
40.521043984502995
 21
-137.75
 31
0.0
  0
LINE
  5
28D
  8
MyLines
 10
40.521043984502995
 20
-137.75
 30
0.0
 11
39.59883808508808
 21
-137.75
 31
0.0
  0
LINE
  5
28E
  8
MyLines
 10
39.59883808508808
 20
-137.75
 30
0.0
 11
38.67663218567318
 21
-137.75
 31
0.0
  0
LINE
  5
28F
  8
MyLines
 10
38.67663218567318
 20
-137.75
 30
0.0
 11
37.754426286258266
 21
-137.75
 31
0.0
  0
LINE
  5
290
  8
MyLines
 10
37.754426286258266
 20
-137.75
 30
0.0
 11
36.83222038684336
 21
-137.75
 31
0.0
  0
LINE
  5
291
  8
MyLines
 10
36.83222038684336
 20
-137.75
 30
0.0
 11
35.91001448742845
 21
-137.75
 31
0.0
  0
LINE
  5
292
  8
MyLines
 10
35.91001448742845
 20
-137.75
 30
0.0
 11
34.98780858801354
 21
-137.75
 31
0.0
  0
LINE
  5
293
  8
MyLines
 10
34.98780858801354
 20
-137.75
 30
0.0
 11
34.06560268859863
 21
-137.75
 31
0.0
  0
LINE
  5
294
  8
MyLines
 10
34.06560268859863
 20
-137.75
 30
0.0
 11
33.143396789183726
 21
-137.75
 31
0.0
  0
LINE
  5
295
  8
MyLines
 10
33.143396789183726
 20
-137.75
 30
0.0
 11
32.22119088976881
 21
-137.75
 31
0.0
  0
LINE
  5
296
  8
MyLines
 10
32.22119088976881
 20
-137.75
 30
0.0
 11
31.298984990353908
 21
-137.75
 31
0.0
  0
LINE
  5
297
  8
MyLines
 10
31.298984990353908
 20
-137.75
 30
0.0
 11
30.376779090939
 21
-137.75
 31
0.0
  0
LINE
  5
298
  8
MyLines
 10
30.376779090939
 20
-137.75
 30
0.0
 11
30.376779090939
 21
-137.75
 31
0.0
  0
LINE
  5
299
  8
MyLines
 10
30.376779090939
 20
-137.75
 30
0.0
 11
30.376779090939
 21
145.6875
 31
0.0
  0
LINE
  5
29A
  8
MyLines
 10
30.376779090939
 20
145.6875
 30
0.0
 11
30.376779090939
 21
145.6875
 31
0.0
  0
LINE
  5
29B
  8
MyLines
 10
30.376779090939
 20
145.6875
 30
0.0
 11
31.17253436786957
 21
145.6875
 31
0.0
  0
LINE
  5
29C
  8
MyLines
 10
31.17253436786957
 20
145.6875
 30
0.0
 11
31.96828964480014
 21
145.6875
 31
0.0
  0
LINE
  5
29D
  8
MyLines
 10
31.96828964480014
 20
145.6875
 30
0.0
 11
32.76404492173071
 21
145.6875
 31
0.0
  0
LINE
  5
29E
  8
MyLines
 10
32.76404492173071
 20
145.6875
 30
0.0
 11
33.55980019866128
 21
145.6875
 31
0.0
  0
LINE
  5
29F
  8
MyLines
 10
33.55980019866128
 20
145.6875
 30
0.0
 11
34.35555547559185
 21
145.6875
 31
0.0
  0
LINE
  5
2A0
  8
MyLines
 10
34.35555547559185
 20
145.6875
 30
0.0
 11
35.15131075252242
 21
145.6875
 31
0.0
  0
LINE
  5
2A1
  8
MyLines
 10
35.15131075252242
 20
145.6875
 30
0.0
 11
35.947066029452984
 21
145.6875
 31
0.0
  0
LINE
  5
2A2
  8
MyLines
 10
35.947066029452984
 20
145.6875
 30
0.0
 11
36.74282130638356
 21
145.6875
 31
0.0
  0
LINE
  5
2A3
  8
MyLines
 10
36.74282130638356
 20
145.6875
 30
0.0
 11
37.538576583314125
 21
145.6875
 31
0.0
  0
LINE
  5
2A4
  8
MyLines
 10
37.538576583314125
 20
145.6875
 30
0.0
 11
38.3343318602447
 21
145.6875
 31
0.0
  0
LINE
  5
2A5
  8
MyLines
 10
38.3343318602447
 20
145.6875
 30
0.0
 11
39.130087137175266
 21
145.6875
 31
0.0
  0
LINE
  5
2A6
  8
MyLines
 10
39.130087137175266
 20
145.6875
 30
0.0
 11
39.92584241410584
 21
145.6875
 31
0.0
  0
LINE
  5
2A7
  8
MyLines
 10
39.92584241410584
 20
145.6875
 30
0.0
 11
40.72159769103641
 21
145.6875
 31
0.0
  0
LINE
  5
2A8
  8
MyLines
 10
40.72159769103641
 20
145.6875
 30
0.0
 11
41.51735296796698
 21
145.6875
 31
0.0
  0
LINE
  5
2A9
  8
MyLines
 10
41.51735296796698
 20
145.6875
 30
0.0
 11
42.31310824489755
 21
145.6875
 31
0.0
  0
LINE
  5
2AA
  8
MyLines
 10
42.31310824489755
 20
145.6875
 30
0.0
 11
43.10886352182812
 21
145.6875
 31
0.0
  0
LINE
  5
2AB
  8
MyLines
 10
43.10886352182812
 20
145.6875
 30
0.0
 11
43.90461879875869
 21
145.6875
 31
0.0
  0
LINE
  5
2AC
  8
MyLines
 10
43.90461879875869
 20
145.6875
 30
0.0
 11
44.70037407568926
 21
145.6875
 31
0.0
  0
LINE
  5
2AD
  8
MyLines
 10
44.70037407568926
 20
145.6875
 30
0.0
 11
45.49612935261983
 21
145.6875
 31
0.0
  0
LINE
  5
2AE
  8
MyLines
 10
45.49612935261983
 20
145.6875
 30
0.0
 11
46.2918846295504
 21
145.6875
 31
0.0
  0
LINE
  5
2AF
  8
MyLines
 10
46.2918846295504
 20
145.6875
 30
0.0
 11
47.08763990648097
 21
145.6875
 31
0.0
  0
LINE
  5
2B0
  8
MyLines
 10
47.08763990648097
 20
145.6875
 30
0.0
 11
47.88339518341154
 21
145.6875
 31
0.0
  0
LINE
  5
2B1
  8
MyLines
 10
47.88339518341154
 20
145.6875
 30
0.0
 11
48.679150460342115
 21
145.6875
 31
0.0
  0
LINE
  5
2B2
  8
MyLines
 10
48.679150460342115
 20
145.6875
 30
0.0
 11
49.47490573727268
 21
145.6875
 31
0.0
  0
LINE
  5
2B3
  8
MyLines
 10
49.47490573727268
 20
145.6875
 30
0.0
 11
50.270661014203256
 21
145.6875
 31
0.0
  0
LINE
  5
2B4
  8
MyLines
 10
50.270661014203256
 20
145.6875
 30
0.0
 11
51.06641629113382
 21
145.6875
 31
0.0
  0
LINE
  5
2B5
  8
MyLines
 10
51.06641629113382
 20
145.6875
 30
0.0
 11
51.8621715680644
 21
145.6875
 31
0.0
  0
LINE
  5
2B6
  8
MyLines
 10
51.8621715680644
 20
145.6875
 30
0.0
 11
52.65792684499496
 21
145.6875
 31
0.0
  0
LINE
  5
2B7
  8
MyLines
 10
52.65792684499496
 20
145.6875
 30
0.0
 11
53.45368212192553
 21
145.6875
 31
0.0
  0
LINE
  5
2B8
  8
MyLines
 10
53.45368212192553
 20
145.6875
 30
0.0
 11
54.2494373988561
 21
145.6875
 31
0.0
  0
LINE
  5
2B9
  8
MyLines
 10
54.2494373988561
 20
145.6875
 30
0.0
 11
55.04519267578667
 21
145.6875
 31
0.0
  0
LINE
  5
2BA
  8
MyLines
 10
55.04519267578667
 20
145.6875
 30
0.0
 11
55.840947952717244
 21
145.6875
 31
0.0
  0
LINE
  5
2BB
  8
MyLines
 10
55.840947952717244
 20
145.6875
 30
0.0
 11
56.636703229647814
 21
145.6875
 31
0.0
  0
LINE
  5
2BC
  8
MyLines
 10
56.636703229647814
 20
145.6875
 30
0.0
 11
57.432458506578385
 21
145.6875
 31
0.0
  0
LINE
  5
2BD
  8
MyLines
 10
57.432458506578385
 20
145.6875
 30
0.0
 11
58.228213783508956
 21
145.6875
 31
0.0
  0
LINE
  5
2BE
  8
MyLines
 10
58.228213783508956
 20
145.6875
 30
0.0
 11
59.023969060439526
 21
145.6875
 31
0.0
  0
LINE
  5
2BF
  8
MyLines
 10
59.023969060439526
 20
145.6875
 30
0.0
 11
59.81972433737009
 21
145.6875
 31
0.0
  0
LINE
  5
2C0
  8
MyLines
 10
59.81972433737009
 20
145.6875
 30
0.0
 11
60.61547961430067
 21
145.6875
 31
0.0
  0
LINE
  5
2C1
  8
MyLines
 10
60.61547961430067
 20
145.6875
 30
0.0
 11
61.411234891231224
 21
145.6875
 31
0.0
  0
LINE
  5
2C2
  8
MyLines
 10
61.411234891231224
 20
145.6875
 30
0.0
 11
62.2069901681618
 21
145.6875
 31
0.0
  0
LINE
  5
2C3
  8
MyLines
 10
62.2069901681618
 20
145.6875
 30
0.0
 11
63.002745445092366
 21
145.6875
 31
0.0
  0
LINE
  5
2C4
  8
MyLines
 10
63.002745445092366
 20
145.6875
 30
0.0
 11
63.79850072202294
 21
145.6875
 31
0.0
  0
LINE
  5
2C5
  8
MyLines
 10
63.79850072202294
 20
145.6875
 30
0.0
 11
64.59425599895351
 21
145.6875
 31
0.0
  0
LINE
  5
2C6
  8
MyLines
 10
64.59425599895351
 20
145.6875
 30
0.0
 11
65.39001127588408
 21
145.6875
 31
0.0
  0
LINE
  5
2C7
  8
MyLines
 10
65.39001127588408
 20
145.6875
 30
0.0
 11
66.18576655281466
 21
145.6875
 31
0.0
  0
LINE
  5
2C8
  8
MyLines
 10
66.18576655281466
 20
145.6875
 30
0.0
 11
66.98152182974523
 21
145.6875
 31
0.0
  0
LINE
  5
2C9
  8
MyLines
 10
66.98152182974523
 20
145.6875
 30
0.0
 11
67.7772771066758
 21
145.6875
 31
0.0
  0
LINE
  5
2CA
  8
MyLines
 10
67.7772771066758
 20
145.6875
 30
0.0
 11
68.57303238360636
 21
145.6875
 31
0.0
  0
LINE
  5
2CB
  8
MyLines
 10
68.57303238360636
 20
145.6875
 30
0.0
 11
69.36878766053694
 21
145.6875
 31
0.0
  0
LINE
  5
2CC
  8
MyLines
 10
69.36878766053694
 20
145.6875
 30
0.0
 11
69.36878766053694
 21
-133.78125
 31
0.0
  0
LINE
  5
2CD
  8
MyLines
 10
69.36878766053694
 20
-133.78125
 30
0.0
 11
69.36878766053694
 21
-133.78125
 31
0.0
  0
LINE
  5
2CE
  8
MyLines
 10
69.36878766053694
 20
-133.78125
 30
0.0
 11
68.80718353021938
 21
-133.78125
 31
0.0
  0
LINE
  5
2CF
  8
MyLines
 10
68.80718353021938
 20
-133.78125
 30
0.0
 11
68.24557939990184
 21
-133.78125
 31
0.0
  0
LINE
  5
2D0
  8
MyLines
 10
68.24557939990184
 20
-133.78125
 30
0.0
 11
67.68397526958428
 21
-133.78125
 31
0.0
  0
LINE
  5
2D1
  8
MyLines
 10
67.68397526958428
 20
-133.78125
 30
0.0
 11
67.12237113926673
 21
-133.78125
 31
0.0
  0
LINE
  5
2D2
  8
MyLines
 10
67.12237113926673
 20
-133.78125
 30
0.0
 11
66.56076700894918
 21
-133.78125
 31
0.0
  0
LINE
  5
2D3
  8
MyLines
 10
66.56076700894918
 20
-133.78125
 30
0.0
 11
65.99916287863164
 21
-133.78125
 31
0.0
  0
LINE
  5
2D4
  8
MyLines
 10
65.99916287863164
 20
-133.78125
 30
0.0
 11
65.43755874831409
 21
-133.78125
 31
0.0
  0
LINE
  5
2D5
  8
MyLines
 10
65.43755874831409
 20
-133.78125
 30
0.0
 11
64.87595461799653
 21
-133.78125
 31
0.0
  0
LINE
  5
2D6
  8
MyLines
 10
64.87595461799653
 20
-133.78125
 30
0.0
 11
64.31435048767898
 21
-133.78125
 31
0.0
  0
LINE
  5
2D7
  8
MyLines
 10
64.31435048767898
 20
-133.78125
 30
0.0
 11
63.75274635736144
 21
-133.78125
 31
0.0
  0
LINE
  5
2D8
  8
MyLines
 10
63.75274635736144
 20
-133.78125
 30
0.0
 11
63.19114222704388
 21
-133.78125
 31
0.0
  0
LINE
  5
2D9
  8
MyLines
 10
63.19114222704388
 20
-133.78125
 30
0.0
 11
62.62953809672633
 21
-133.78125
 31
0.0
  0
LINE
  5
2DA
  8
MyLines
 10
62.62953809672633
 20
-133.78125
 30
0.0
 11
62.06793396640878
 21
-133.78125
 31
0.0
  0
LINE
  5
2DB
  8
MyLines
 10
62.06793396640878
 20
-133.78125
 30
0.0
 11
61.506329836091226
 21
-133.78125
 31
0.0
  0
LINE
  5
2DC
  8
MyLines
 10
61.506329836091226
 20
-133.78125
 30
0.0
 11
60.944725705773685
 21
-133.78125
 31
0.0
  0
LINE
  5
2DD
  8
MyLines
 10
60.944725705773685
 20
-133.78125
 30
0.0
 11
60.38312157545613
 21
-133.78125
 31
0.0
  0
LINE
  5
2DE
  8
MyLines
 10
60.38312157545613
 20
-133.78125
 30
0.0
 11
59.82151744513858
 21
-133.78125
 31
0.0
  0
LINE
  5
2DF
  8
MyLines
 10
59.82151744513858
 20
-133.78125
 30
0.0
 11
59.25991331482103
 21
-133.78125
 31
0.0
  0
LINE
  5
2E0
  8
MyLines
 10
59.25991331482103
 20
-133.78125
 30
0.0
 11
58.69830918450348
 21
-133.78125
 31
0.0
  0
LINE
  5
2E1
  8
MyLines
 10
58.69830918450348
 20
-133.78125
 30
0.0
 11
58.136705054185924
 21
-133.78125
 31
0.0
  0
LINE
  5
2E2
  8
MyLines
 10
58.136705054185924
 20
-133.78125
 30
0.0
 11
57.575100923868376
 21
-133.78125
 31
0.0
  0
LINE
  5
2E3
  8
MyLines
 10
57.575100923868376
 20
-133.78125
 30
0.0
 11
57.01349679355083
 21
-133.78125
 31
0.0
  0
LINE
  5
2E4
  8
MyLines
 10
57.01349679355083
 20
-133.78125
 30
0.0
 11
56.45189266323328
 21
-133.78125
 31
0.0
  0
LINE
  5
2E5
  8
MyLines
 10
56.45189266323328
 20
-133.78125
 30
0.0
 11
55.890288532915726
 21
-133.78125
 31
0.0
  0
LINE
  5
2E6
  8
MyLines
 10
55.890288532915726
 20
-133.78125
 30
0.0
 11
55.32868440259818
 21
-133.78125
 31
0.0
  0
LINE
  5
2E7
  8
MyLines
 10
55.32868440259818
 20
-133.78125
 30
0.0
 11
54.76708027228063
 21
-133.78125
 31
0.0
  0
LINE
  5
2E8
  8
MyLines
 10
54.76708027228063
 20
-133.78125
 30
0.0
 11
54.205476141963075
 21
-133.78125
 31
0.0
  0
LINE
  5
2E9
  8
MyLines
 10
54.205476141963075
 20
-133.78125
 30
0.0
 11
53.64387201164553
 21
-133.78125
 31
0.0
  0
LINE
  5
2EA
  8
MyLines
 10
53.64387201164553
 20
-133.78125
 30
0.0
 11
53.08226788132798
 21
-133.78125
 31
0.0
  0
LINE
  5
2EB
  8
MyLines
 10
53.08226788132798
 20
-133.78125
 30
0.0
 11
52.52066375101043
 21
-133.78125
 31
0.0
  0
LINE
  5
2EC
  8
MyLines
 10
52.52066375101043
 20
-133.78125
 30
0.0
 11
51.95905962069288
 21
-133.78125
 31
0.0
  0
LINE
  5
2ED
  8
MyLines
 10
51.95905962069288
 20
-133.78125
 30
0.0
 11
51.39745549037532
 21
-133.78125
 31
0.0
  0
LINE
  5
2EE
  8
MyLines
 10
51.39745549037532
 20
-133.78125
 30
0.0
 11
50.835851360057774
 21
-133.78125
 31
0.0
  0
LINE
  5
2EF
  8
MyLines
 10
50.835851360057774
 20
-133.78125
 30
0.0
 11
50.274247229740226
 21
-133.78125
 31
0.0
  0
LINE
  5
2F0
  8
MyLines
 10
50.274247229740226
 20
-133.78125
 30
0.0
 11
49.71264309942268
 21
-133.78125
 31
0.0
  0
LINE
  5
2F1
  8
MyLines
 10
49.71264309942268
 20
-133.78125
 30
0.0
 11
49.15103896910512
 21
-133.78125
 31
0.0
  0
LINE
  5
2F2
  8
MyLines
 10
49.15103896910512
 20
-133.78125
 30
0.0
 11
48.589434838787575
 21
-133.78125
 31
0.0
  0
LINE
  5
2F3
  8
MyLines
 10
48.589434838787575
 20
-133.78125
 30
0.0
 11
48.02783070847003
 21
-133.78125
 31
0.0
  0
LINE
  5
2F4
  8
MyLines
 10
48.02783070847003
 20
-133.78125
 30
0.0
 11
47.46622657815247
 21
-133.78125
 31
0.0
  0
LINE
  5
2F5
  8
MyLines
 10
47.46622657815247
 20
-133.78125
 30
0.0
 11
46.90462244783492
 21
-133.78125
 31
0.0
  0
LINE
  5
2F6
  8
MyLines
 10
46.90462244783492
 20
-133.78125
 30
0.0
 11
46.34301831751737
 21
-133.78125
 31
0.0
  0
LINE
  5
2F7
  8
MyLines
 10
46.34301831751737
 20
-133.78125
 30
0.0
 11
45.78141418719983
 21
-133.78125
 31
0.0
  0
LINE
  5
2F8
  8
MyLines
 10
45.78141418719983
 20
-133.78125
 30
0.0
 11
45.219810056882274
 21
-133.78125
 31
0.0
  0
LINE
  5
2F9
  8
MyLines
 10
45.219810056882274
 20
-133.78125
 30
0.0
 11
44.65820592656472
 21
-133.78125
 31
0.0
  0
LINE
  5
2FA
  8
MyLines
 10
44.65820592656472
 20
-133.78125
 30
0.0
 11
44.09660179624717
 21
-133.78125
 31
0.0
  0
LINE
  5
2FB
  8
MyLines
 10
44.09660179624717
 20
-133.78125
 30
0.0
 11
43.53499766592962
 21
-133.78125
 31
0.0
  0
LINE
  5
2FC
  8
MyLines
 10
43.53499766592962
 20
-133.78125
 30
0.0
 11
42.97339353561207
 21
-133.78125
 31
0.0
  0
LINE
  5
2FD
  8
MyLines
 10
42.97339353561207
 20
-133.78125
 30
0.0
 11
42.41178940529453
 21
-133.78125
 31
0.0
  0
LINE
  5
2FE
  8
MyLines
 10
42.41178940529453
 20
-133.78125
 30
0.0
 11
41.85018527497697
 21
-133.78125
 31
0.0
  0
LINE
  5
2FF
  8
MyLines
 10
41.85018527497697
 20
-133.78125
 30
0.0
 11
41.85018527497697
 21
-133.78125
 31
0.0
  0
LINE
  5
300
  8
MyLines
 10
41.85018527497697
 20
-133.78125
 30
0.0
 11
41.85018527497697
 21
141.71875
 31
0.0
  0
LINE
  5
301
  8
MyLines
 10
41.85018527497697
 20
141.71875
 30
0.0
 11
41.85018527497697
 21
141.71875
 31
0.0
  0
LINE
  5
302
  8
MyLines
 10
41.85018527497697
 20
141.71875
 30
0.0
 11
42.1776382586815
 21
141.71875
 31
0.0
  0
LINE
  5
303
  8
MyLines
 10
42.1776382586815
 20
141.71875
 30
0.0
 11
42.50509124238603
 21
141.71875
 31
0.0
  0
LINE
  5
304
  8
MyLines
 10
42.50509124238603
 20
141.71875
 30
0.0
 11
42.83254422609056
 21
141.71875
 31
0.0
  0
LINE
  5
305
  8
MyLines
 10
42.83254422609056
 20
141.71875
 30
0.0
 11
43.159997209795094
 21
141.71875
 31
0.0
  0
LINE
  5
306
  8
MyLines
 10
43.159997209795094
 20
141.71875
 30
0.0
 11
43.48745019349962
 21
141.71875
 31
0.0
  0
LINE
  5
307
  8
MyLines
 10
43.48745019349962
 20
141.71875
 30
0.0
 11
43.81490317720415
 21
141.71875
 31
0.0
  0
LINE
  5
308
  8
MyLines
 10
43.81490317720415
 20
141.71875
 30
0.0
 11
44.14235616090868
 21
141.71875
 31
0.0
  0
LINE
  5
309
  8
MyLines
 10
44.14235616090868
 20
141.71875
 30
0.0
 11
44.46980914461321
 21
141.71875
 31
0.0
  0
LINE
  5
30A
  8
MyLines
 10
44.46980914461321
 20
141.71875
 30
0.0
 11
44.79726212831774
 21
141.71875
 31
0.0
  0
LINE
  5
30B
  8
MyLines
 10
44.79726212831774
 20
141.71875
 30
0.0
 11
45.12471511202227
 21
141.71875
 31
0.0
  0
LINE
  5
30C
  8
MyLines
 10
45.12471511202227
 20
141.71875
 30
0.0
 11
45.452168095726805
 21
141.71875
 31
0.0
  0
LINE
  5
30D
  8
MyLines
 10
45.452168095726805
 20
141.71875
 30
0.0
 11
45.77962107943134
 21
141.71875
 31
0.0
  0
LINE
  5
30E
  8
MyLines
 10
45.77962107943134
 20
141.71875
 30
0.0
 11
46.10707406313587
 21
141.71875
 31
0.0
  0
LINE
  5
30F
  8
MyLines
 10
46.10707406313587
 20
141.71875
 30
0.0
 11
46.4345270468404
 21
141.71875
 31
0.0
  0
LINE
  5
310
  8
MyLines
 10
46.4345270468404
 20
141.71875
 30
0.0
 11
46.761980030544926
 21
141.71875
 31
0.0
  0
LINE
  5
311
  8
MyLines
 10
46.761980030544926
 20
141.71875
 30
0.0
 11
47.08943301424946
 21
141.71875
 31
0.0
  0
LINE
  5
312
  8
MyLines
 10
47.08943301424946
 20
141.71875
 30
0.0
 11
47.41688599795399
 21
141.71875
 31
0.0
  0
LINE
  5
313
  8
MyLines
 10
47.41688599795399
 20
141.71875
 30
0.0
 11
47.74433898165852
 21
141.71875
 31
0.0
  0
LINE
  5
314
  8
MyLines
 10
47.74433898165852
 20
141.71875
 30
0.0
 11
48.07179196536305
 21
141.71875
 31
0.0
  0
LINE
  5
315
  8
MyLines
 10
48.07179196536305
 20
141.71875
 30
0.0
 11
48.39924494906758
 21
141.71875
 31
0.0
  0
LINE
  5
316
  8
MyLines
 10
48.39924494906758
 20
141.71875
 30
0.0
 11
48.72669793277211
 21
141.71875
 31
0.0
  0
LINE
  5
317
  8
MyLines
 10
48.72669793277211
 20
141.71875
 30
0.0
 11
49.054150916476644
 21
141.71875
 31
0.0
  0
LINE
  5
318
  8
MyLines
 10
49.054150916476644
 20
141.71875
 30
0.0
 11
49.38160390018117
 21
141.71875
 31
0.0
  0
LINE
  5
319
  8
MyLines
 10
49.38160390018117
 20
141.71875
 30
0.0
 11
49.7090568838857
 21
141.71875
 31
0.0
  0
LINE
  5
31A
  8
MyLines
 10
49.7090568838857
 20
141.71875
 30
0.0
 11
50.03650986759023
 21
141.71875
 31
0.0
  0
LINE
  5
31B
  8
MyLines
 10
50.03650986759023
 20
141.71875
 30
0.0
 11
50.36396285129476
 21
141.71875
 31
0.0
  0
LINE
  5
31C
  8
MyLines
 10
50.36396285129476
 20
141.71875
 30
0.0
 11
50.69141583499929
 21
141.71875
 31
0.0
  0
LINE
  5
31D
  8
MyLines
 10
50.69141583499929
 20
141.71875
 30
0.0
 11
51.01886881870382
 21
141.71875
 31
0.0
  0
LINE
  5
31E
  8
MyLines
 10
51.01886881870382
 20
141.71875
 30
0.0
 11
51.346321802408355
 21
141.71875
 31
0.0
  0
LINE
  5
31F
  8
MyLines
 10
51.346321802408355
 20
141.71875
 30
0.0
 11
51.67377478611288
 21
141.71875
 31
0.0
  0
LINE
  5
320
  8
MyLines
 10
51.67377478611288
 20
141.71875
 30
0.0
 11
52.00122776981741
 21
141.71875
 31
0.0
  0
LINE
  5
321
  8
MyLines
 10
52.00122776981741
 20
141.71875
 30
0.0
 11
52.328680753521944
 21
141.71875
 31
0.0
  0
LINE
  5
322
  8
MyLines
 10
52.328680753521944
 20
141.71875
 30
0.0
 11
52.65613373722647
 21
141.71875
 31
0.0
  0
LINE
  5
323
  8
MyLines
 10
52.65613373722647
 20
141.71875
 30
0.0
 11
52.983586720931
 21
141.71875
 31
0.0
  0
LINE
  5
324
  8
MyLines
 10
52.983586720931
 20
141.71875
 30
0.0
 11
53.31103970463553
 21
141.71875
 31
0.0
  0
LINE
  5
325
  8
MyLines
 10
53.31103970463553
 20
141.71875
 30
0.0
 11
53.638492688340065
 21
141.71875
 31
0.0
  0
LINE
  5
326
  8
MyLines
 10
53.638492688340065
 20
141.71875
 30
0.0
 11
53.96594567204459
 21
141.71875
 31
0.0
  0
LINE
  5
327
  8
MyLines
 10
53.96594567204459
 20
141.71875
 30
0.0
 11
54.29339865574912
 21
141.71875
 31
0.0
  0
LINE
  5
328
  8
MyLines
 10
54.29339865574912
 20
141.71875
 30
0.0
 11
54.620851639453655
 21
141.71875
 31
0.0
  0
LINE
  5
329
  8
MyLines
 10
54.620851639453655
 20
141.71875
 30
0.0
 11
54.94830462315818
 21
141.71875
 31
0.0
  0
LINE
  5
32A
  8
MyLines
 10
54.94830462315818
 20
141.71875
 30
0.0
 11
55.27575760686271
 21
141.71875
 31
0.0
  0
LINE
  5
32B
  8
MyLines
 10
55.27575760686271
 20
141.71875
 30
0.0
 11
55.60321059056725
 21
141.71875
 31
0.0
  0
LINE
  5
32C
  8
MyLines
 10
55.60321059056725
 20
141.71875
 30
0.0
 11
55.93066357427178
 21
141.71875
 31
0.0
  0
LINE
  5
32D
  8
MyLines
 10
55.93066357427178
 20
141.71875
 30
0.0
 11
56.25811655797631
 21
141.71875
 31
0.0
  0
LINE
  5
32E
  8
MyLines
 10
56.25811655797631
 20
141.71875
 30
0.0
 11
56.58556954168084
 21
141.71875
 31
0.0
  0
LINE
  5
32F
  8
MyLines
 10
56.58556954168084
 20
141.71875
 30
0.0
 11
56.91302252538537
 21
141.71875
 31
0.0
  0
LINE
  5
330
  8
MyLines
 10
56.91302252538537
 20
141.71875
 30
0.0
 11
57.2404755090899
 21
141.71875
 31
0.0
  0
LINE
  5
331
  8
MyLines
 10
57.2404755090899
 20
141.71875
 30
0.0
 11
57.56792849279443
 21
141.71875
 31
0.0
  0
LINE
  5
332
  8
MyLines
 10
57.56792849279443
 20
141.71875
 30
0.0
 11
57.89538147649896
 21
141.71875
 31
0.0
  0
LINE
  5
333
  8
MyLines
 10
57.89538147649896
 20
141.71875
 30
0.0
 11
57.89538147649896
 21
-129.8125
 31
0.0
  0
LINE
  5
334
  8
MyLines
 10
57.89538147649896
 20
-129.8125
 30
0.0
 11
57.89538147649896
 21
-129.8125
 31
0.0
  0
LINE
  5
335
  8
MyLines
 10
57.89538147649896
 20
-129.8125
 30
0.0
 11
57.89538147649896
 21
-129.8125
 31
0.0
  0
LINE
  5
336
  8
MyLines
 10
57.89538147649896
 20
-129.8125
 30
0.0
 11
57.89538147649896
 21
-129.8125
 31
0.0
  0
LINE
  5
337
  8
MyLines
 10
57.89538147649896
 20
-129.8125
 30
0.0
 11
57.89538147649896
 21
-129.8125
 31
0.0
  0
LINE
  5
338
  8
MyLines
 10
57.89538147649896
 20
-129.8125
 30
0.0
 11
57.89538147649896
 21
-129.8125
 31
0.0
  0
LINE
  5
339
  8
MyLines
 10
57.89538147649896
 20
-129.8125
 30
0.0
 11
57.89538147649896
 21
-129.8125
 31
0.0
  0
LINE
  5
33A
  8
MyLines
 10
57.89538147649896
 20
-129.8125
 30
0.0
 11
57.89538147649896
 21
-129.8125
 31
0.0
  0
LINE
  5
33B
  8
MyLines
 10
57.89538147649896
 20
-129.8125
 30
0.0
 11
57.89538147649896
 21
-129.8125
 31
0.0
  0
LINE
  5
33C
  8
MyLines
 10
57.89538147649896
 20
-129.8125
 30
0.0
 11
57.89538147649896
 21
-129.8125
 31
0.0
  0
LINE
  5
33D
  8
MyLines
 10
57.89538147649896
 20
-129.8125
 30
0.0
 11
57.89538147649896
 21
-129.8125
 31
0.0
  0
LINE
  5
33E
  8
MyLines
 10
57.89538147649896
 20
-129.8125
 30
0.0
 11
57.89538147649896
 21
-129.8125
 31
0.0
  0
LINE
  5
33F
  8
MyLines
 10
57.89538147649896
 20
-129.8125
 30
0.0
 11
57.89538147649896
 21
-129.8125
 31
0.0
  0
LINE
  5
340
  8
MyLines
 10
57.89538147649896
 20
-129.8125
 30
0.0
 11
57.89538147649896
 21
-129.8125
 31
0.0
  0
LINE
  5
341
  8
MyLines
 10
57.89538147649896
 20
-129.8125
 30
0.0
 11
57.89538147649896
 21
-129.8125
 31
0.0
  0
LINE
  5
342
  8
MyLines
 10
57.89538147649896
 20
-129.8125
 30
0.0
 11
57.89538147649896
 21
-129.8125
 31
0.0
  0
LINE
  5
343
  8
MyLines
 10
57.89538147649896
 20
-129.8125
 30
0.0
 11
57.89538147649896
 21
-129.8125
 31
0.0
  0
LINE
  5
344
  8
MyLines
 10
57.89538147649896
 20
-129.8125
 30
0.0
 11
57.89538147649896
 21
-129.8125
 31
0.0
  0
LINE
  5
345
  8
MyLines
 10
57.89538147649896
 20
-129.8125
 30
0.0
 11
57.89538147649896
 21
-129.8125
 31
0.0
  0
LINE
  5
346
  8
MyLines
 10
57.89538147649896
 20
-129.8125
 30
0.0
 11
57.89538147649896
 21
-129.8125
 31
0.0
  0
LINE
  5
347
  8
MyLines
 10
57.89538147649896
 20
-129.8125
 30
0.0
 11
57.89538147649896
 21
-129.8125
 31
0.0
  0
LINE
  5
348
  8
MyLines
 10
57.89538147649896
 20
-129.8125
 30
0.0
 11
57.89538147649896
 21
-129.8125
 31
0.0
  0
LINE
  5
349
  8
MyLines
 10
57.89538147649896
 20
-129.8125
 30
0.0
 11
57.89538147649896
 21
-129.8125
 31
0.0
  0
LINE
  5
34A
  8
MyLines
 10
57.89538147649896
 20
-129.8125
 30
0.0
 11
57.89538147649896
 21
-129.8125
 31
0.0
  0
LINE
  5
34B
  8
MyLines
 10
57.89538147649896
 20
-129.8125
 30
0.0
 11
57.89538147649896
 21
-129.8125
 31
0.0
  0
LINE
  5
34C
  8
MyLines
 10
57.89538147649896
 20
-129.8125
 30
0.0
 11
57.89538147649896
 21
-129.8125
 31
0.0
  0
LINE
  5
34D
  8
MyLines
 10
57.89538147649896
 20
-129.8125
 30
0.0
 11
57.89538147649896
 21
-129.8125
 31
0.0
  0
LINE
  5
34E
  8
MyLines
 10
57.89538147649896
 20
-129.8125
 30
0.0
 11
57.89538147649896
 21
-129.8125
 31
0.0
  0
LINE
  5
34F
  8
MyLines
 10
57.89538147649896
 20
-129.8125
 30
0.0
 11
57.89538147649896
 21
-129.8125
 31
0.0
  0
LINE
  5
350
  8
MyLines
 10
57.89538147649896
 20
-129.8125
 30
0.0
 11
57.89538147649896
 21
-129.8125
 31
0.0
  0
LINE
  5
351
  8
MyLines
 10
57.89538147649896
 20
-129.8125
 30
0.0
 11
57.89538147649896
 21
-129.8125
 31
0.0
  0
LINE
  5
352
  8
MyLines
 10
57.89538147649896
 20
-129.8125
 30
0.0
 11
57.89538147649896
 21
-129.8125
 31
0.0
  0
LINE
  5
353
  8
MyLines
 10
57.89538147649896
 20
-129.8125
 30
0.0
 11
57.89538147649896
 21
-129.8125
 31
0.0
  0
LINE
  5
354
  8
MyLines
 10
57.89538147649896
 20
-129.8125
 30
0.0
 11
57.89538147649896
 21
-129.8125
 31
0.0
  0
LINE
  5
355
  8
MyLines
 10
57.89538147649896
 20
-129.8125
 30
0.0
 11
57.89538147649896
 21
-129.8125
 31
0.0
  0
LINE
  5
356
  8
MyLines
 10
57.89538147649896
 20
-129.8125
 30
0.0
 11
57.89538147649896
 21
-129.8125
 31
0.0
  0
LINE
  5
357
  8
MyLines
 10
57.89538147649896
 20
-129.8125
 30
0.0
 11
57.89538147649896
 21
-129.8125
 31
0.0
  0
LINE
  5
358
  8
MyLines
 10
57.89538147649896
 20
-129.8125
 30
0.0
 11
57.89538147649896
 21
-129.8125
 31
0.0
  0
LINE
  5
359
  8
MyLines
 10
57.89538147649896
 20
-129.8125
 30
0.0
 11
57.89538147649896
 21
-129.8125
 31
0.0
  0
LINE
  5
35A
  8
MyLines
 10
57.89538147649896
 20
-129.8125
 30
0.0
 11
57.89538147649896
 21
-129.8125
 31
0.0
  0
LINE
  5
35B
  8
MyLines
 10
57.89538147649896
 20
-129.8125
 30
0.0
 11
57.89538147649896
 21
-129.8125
 31
0.0
  0
LINE
  5
35C
  8
MyLines
 10
57.89538147649896
 20
-129.8125
 30
0.0
 11
57.89538147649896
 21
-129.8125
 31
0.0
  0
LINE
  5
35D
  8
MyLines
 10
57.89538147649896
 20
-129.8125
 30
0.0
 11
57.89538147649896
 21
-129.8125
 31
0.0
  0
LINE
  5
35E
  8
MyLines
 10
57.89538147649896
 20
-129.8125
 30
0.0
 11
57.89538147649896
 21
-129.8125
 31
0.0
  0
LINE
  5
35F
  8
MyLines
 10
57.89538147649896
 20
-129.8125
 30
0.0
 11
57.89538147649896
 21
-129.8125
 31
0.0
  0
LINE
  5
360
  8
MyLines
 10
57.89538147649896
 20
-129.8125
 30
0.0
 11
57.89538147649896
 21
-129.8125
 31
0.0
  0
LINE
  5
361
  8
MyLines
 10
57.89538147649896
 20
-129.8125
 30
0.0
 11
57.89538147649896
 21
-129.8125
 31
0.0
  0
LINE
  5
362
  8
MyLines
 10
57.89538147649896
 20
-129.8125
 30
0.0
 11
57.89538147649896
 21
-129.8125
 31
0.0
  0
LINE
  5
363
  8
MyLines
 10
57.89538147649896
 20
-129.8125
 30
0.0
 11
57.89538147649896
 21
-129.8125
 31
0.0
  0
LINE
  5
364
  8
MyLines
 10
57.89538147649896
 20
-129.8125
 30
0.0
 11
57.89538147649896
 21
-129.8125
 31
0.0
  0
LINE
  5
365
  8
MyLines
 10
57.89538147649896
 20
-129.8125
 30
0.0
 11
57.89538147649896
 21
-129.8125
 31
0.0
  0
ENDSEC
  0
EOF
