  0
SECTION
  2
HEADER
  9
$ACADVER
  1
AC1009
  9
$DWGCODEPAGE
  3
ANSI_1252
  9
$INSBASE
 10
0.0
 20
0.0
 30
0.0
  9
$EXTMIN
 10
1e+20
 20
1e+20
 30
1e+20
  9
$EXTMAX
 10
-1e+20
 20
-1e+20
 30
-1e+20
  9
$LIMMIN
 10
0.0
 20
0.0
  9
$LIMMAX
 10
420.0
 20
297.0
  9
$ORTHOMODE
 70
0
  9
$REGENMODE
 70
1
  9
$FILLMODE
 70
1
  9
$DRAGMODE
 70
2
  9
$QTEXTMODE
 70
0
  9
$MIRRTEXT
 70
1
  9
$OSMODE
 70
20583
  9
$LTSCALE
 40
1.0
  9
$ATTMODE
 70
1
  9
$TEXTSIZE
 40
2.5
  9
$TRACEWID
 40
1.0
  9
$TEXTSTYLE
  7
Standard
  9
$CLAYER
  8
0
  9
$CELTYPE
  6
ByLayer
  9
$CECOLOR
 62
256
  9
$DIMSCALE
 40
1.0
  9
$DIMASZ
 40
2.5
  9
$DIMEXO
 40
0.625
  9
$DIMDLI
 40
3.75
  9
$DIMRND
 40
0.0
  9
$DIMDLE
 40
0.0
  9
$DIMEXE
 40
1.25
  9
$DIMTP
 40
0.0
  9
$DIMTM
 40
0.0
  9
$DIMTXT
 40
2.5
  9
$DIMCEN
 40
2.5
  9
$DIMTSZ
 40
0.0
  9
$DIMTOL
 70
0
  9
$DIMLIM
 70
0
  9
$DIMTIH
 70
0
  9
$DIMTOH
 70
0
  9
$DIMSE1
 70
0
  9
$DIMSE2
 70
0
  9
$DIMTAD
 70
1
  9
$DIMZIN
 70
8
  9
$DIMBLK
  1

  9
$DIMASO
 70
1
  9
$DIMSHO
 70
1
  9
$DIMPOST
  1

  9
$DIMAPOST
  1

  9
$DIMALT
 70
0
  9
$DIMALTD
 70
3
  9
$DIMALTF
 40
0.03937007874
  9
$DIMLFAC
 40
1.0
  9
$DIMTOFL
 70
1
  9
$DIMTVP
 40
0.0
  9
$DIMTIX
 70
0
  9
$DIMSOXD
 70
0
  9
$DIMSAH
 70
0
  9
$DIMBLK1
  1

  9
$DIMBLK2
  1

  9
$DIMSTYLE
  2
ISO-25
  9
$DIMCLRD
 70
0
  9
$DIMCLRE
 70
0
  9
$DIMCLRT
 70
0
  9
$DIMTFAC
 40
1.0
  9
$DIMGAP
 40
0.625
  9
$COORDS
 70
1
  9
$ATTDIA
 70
0
  9
$ATTREQ
 70
1
  9
$HANDLING
 70
1
  9
$LUNITS
 70
2
  9
$LUPREC
 70
4
  9
$SKETCHINC
 40
1.0
  9
$FILLETRAD
 40
10.0
  9
$AUNITS
 70
0
  9
$AUPREC
 70
2
  9
$MENU
  1
.
  9
$ELEVATION
 40
0.0
  9
$PELEVATION
 40
0.0
  9
$THICKNESS
 40
0.0
  9
$LIMCHECK
 70
0
  9
$CHAMFERA
 40
0.0
  9
$CHAMFERB
 40
0.0
  9
$SKPOLY
 70
0
  9
$TDCREATE
 40
2459340.736284722
  9
$TDUPDATE
 40
2459340.736284722
  9
$TDINDWG
 40
0.0
  9
$TDUSRTIMER
 40
0.0
  9
$USRTIMER
 70
1
  9
$ANGBASE
 50
0.0
  9
$ANGDIR
 70
0
  9
$PDMODE
 70
0
  9
$PDSIZE
 40
0.0
  9
$PLINEWID
 40
0.0
  9
$SPLFRAME
 70
0
  9
$SPLINETYPE
 70
6
  9
$SPLINESEGS
 70
8
  9
$HANDSEED
  5
398
  9
$SURFTAB1
 70
6
  9
$SURFTAB2
 70
6
  9
$SURFTYPE
 70
6
  9
$SURFU
 70
6
  9
$SURFV
 70
6
  9
$UCSNAME
  2

  9
$UCSORG
 10
0.0
 20
0.0
 30
0.0
  9
$UCSXDIR
 10
1.0
 20
0.0
 30
0.0
  9
$UCSYDIR
 10
0.0
 20
1.0
 30
0.0
  9
$PUCSNAME
  2

  9
$PUCSORG
 10
0.0
 20
0.0
 30
0.0
  9
$PUCSXDIR
 10
1.0
 20
0.0
 30
0.0
  9
$PUCSYDIR
 10
0.0
 20
1.0
 30
0.0
  9
$USERI1
 70
0
  9
$USERI2
 70
0
  9
$USERI3
 70
0
  9
$USERI4
 70
0
  9
$USERI5
 70
0
  9
$USERR1
 40
0.0
  9
$USERR2
 40
0.0
  9
$USERR3
 40
0.0
  9
$USERR4
 40
0.0
  9
$USERR5
 40
0.0
  9
$WORLDVIEW
 70
1
  9
$SHADEDGE
 70
3
  9
$SHADEDIF
 70
70
  9
$TILEMODE
 70
1
  9
$MAXACTVP
 70
64
  9
$PLIMCHECK
 70
0
  9
$PEXTMIN
 10
1e+20
 20
1e+20
 30
1e+20
  9
$PEXTMAX
 10
-1e+20
 20
-1e+20
 30
-1e+20
  9
$PLIMMIN
 10
0.0
 20
0.0
  9
$PLIMMAX
 10
420.0
 20
297.0
  9
$UNITMODE
 70
0
  9
$VISRETAIN
 70
1
  9
$PLINEGEN
 70
0
  9
$PSLTSCALE
 70
1
  0
ENDSEC
  0
SECTION
  2
TABLES
  0
TABLE
  2
VPORT
 70
1
  0
VPORT
  5
23
  2
*Active
 70
0
 10
0.0
 20
0.0
 11
1.0
 21
1.0
 12
344.2
 22
148.5
 13
0.0
 23
0.0
 14
0.5
 24
0.5
 15
0.5
 25
0.5
 16
0.0
 26
0.0
 36
1.0
 17
0.0
 27
0.0
 37
0.0
 40
297.0
 41
1.34
 42
50.0
 43
0.0
 44
0.0
 50
0.0
 51
0.0
 71
0
 72
1000
 73
1
 74
3
 75
0
 76
0
 77
0
 78
0
  0
ENDTAB
  0
TABLE
  2
LTYPE
 70
3
  0
LTYPE
  5
24
  2
ByBlock
 70
0
  3

 72
65
 73
0
 40
0.0
  0
LTYPE
  5
25
  2
ByLayer
 70
0
  3

 72
65
 73
0
 40
0.0
  0
LTYPE
  5
26
  2
Continuous
 70
0
  3

 72
65
 73
0
 40
0.0
  0
ENDTAB
  0
TABLE
  2
LAYER
 70
3
  0
LAYER
  5
27
  2
0
 70
0
 62
7
  6
Continuous
  0
LAYER
  5
28
  2
Defpoints
 70
0
 62
7
  6
Continuous
  0
LAYER
  5
2D
  2
MyLines
 70
0
 62
7
  6
DASHED
  0
ENDTAB
  0
TABLE
  2
STYLE
 70
1
  0
STYLE
  5
29
  2
Standard
 70
0
 40
0.0
 41
1.0
 50
0.0
 71
0
 42
2.5
  3
txt
  4

  0
ENDTAB
  0
TABLE
  2
VIEW
 70
0
  0
ENDTAB
  0
TABLE
  2
UCS
 70
0
  0
ENDTAB
  0
TABLE
  2
APPID
 70
2
  0
APPID
  5
2A
  2
ACAD
 70
0
  0
APPID
  5
397
  2
HATCHBACKGROUNDCOLOR
 70
0
  0
ENDTAB
  0
TABLE
  2
DIMSTYLE
 70
1
  0
DIMSTYLE
105
2B
  2
Standard
 70
0
  3

  4

  5

  6

  7

 40
1.0
 41
2.5
 42
0.625
 43
3.75
 44
1.25
 45
0.0
 46
0.0
 47
0.0
 48
0.0
140
2.5
141
2.5
142
0.0
143
0.03937007874
144
1.0
145
0.0
146
1.0
147
0.625
 71
0
 72
0
 73
0
 74
0
 75
0
 76
0
 77
1
 78
8
170
0
171
3
172
1
173
0
174
0
175
0
176
0
177
0
178
0
  0
ENDTAB
  0
ENDSEC
  0
SECTION
  2
BLOCKS
  0
BLOCK
  5
18
  8
0
  2
$Model_Space
 70
0
 10
0.0
 20
0.0
 30
0.0
  3
$Model_Space
  1

  0
ENDBLK
  5
19
  8
0
  0
BLOCK
  5
1C
  8
0
  2
$Paper_Space
 70
0
 10
0.0
 20
0.0
 30
0.0
  3
$Paper_Space
  1

  0
ENDBLK
  5
1D
  8
0
  0
ENDSEC
  0
SECTION
  2
ENTITIES
  0
LINE
  5
2E
  8
MyLines
 10
57.89538147649896
 20
-161.5625
 30
0.0
 11
60.744487041941
 21
-161.5625
 31
0.0
  0
LINE
  5
2F
  8
MyLines
 10
60.744487041941
 20
-161.5625
 30
0.0
 11
63.59359260738304
 21
-161.5625
 31
0.0
  0
LINE
  5
30
  8
MyLines
 10
63.59359260738304
 20
-161.5625
 30
0.0
 11
66.44269817282508
 21
-161.5625
 31
0.0
  0
LINE
  5
31
  8
MyLines
 10
66.44269817282508
 20
-161.5625
 30
0.0
 11
69.2918037382671
 21
-161.5625
 31
0.0
  0
LINE
  5
32
  8
MyLines
 10
69.2918037382671
 20
-161.5625
 30
0.0
 11
72.14090930370915
 21
-161.5625
 31
0.0
  0
LINE
  5
33
  8
MyLines
 10
72.14090930370915
 20
-161.5625
 30
0.0
 11
74.99001486915118
 21
-161.5625
 31
0.0
  0
LINE
  5
34
  8
MyLines
 10
74.99001486915118
 20
-161.5625
 30
0.0
 11
77.83912043459321
 21
-161.5625
 31
0.0
  0
LINE
  5
35
  8
MyLines
 10
77.83912043459321
 20
-161.5625
 30
0.0
 11
80.68822600003527
 21
-161.5625
 31
0.0
  0
LINE
  5
36
  8
MyLines
 10
80.68822600003527
 20
-161.5625
 30
0.0
 11
83.5373315654773
 21
-161.5625
 31
0.0
  0
LINE
  5
37
  8
MyLines
 10
83.5373315654773
 20
-161.5625
 30
0.0
 11
86.38643713091935
 21
-161.5625
 31
0.0
  0
LINE
  5
38
  8
MyLines
 10
86.38643713091935
 20
-161.5625
 30
0.0
 11
89.23554269636138
 21
-161.5625
 31
0.0
  0
LINE
  5
39
  8
MyLines
 10
89.23554269636138
 20
-161.5625
 30
0.0
 11
92.08464826180342
 21
-161.5625
 31
0.0
  0
LINE
  5
3A
  8
MyLines
 10
92.08464826180342
 20
-161.5625
 30
0.0
 11
94.93375382724547
 21
-161.5625
 31
0.0
  0
LINE
  5
3B
  8
MyLines
 10
94.93375382724547
 20
-161.5625
 30
0.0
 11
97.7828593926875
 21
-161.5625
 31
0.0
  0
LINE
  5
3C
  8
MyLines
 10
97.7828593926875
 20
-161.5625
 30
0.0
 11
100.63196495812953
 21
-161.5625
 31
0.0
  0
LINE
  5
3D
  8
MyLines
 10
100.63196495812953
 20
-161.5625
 30
0.0
 11
103.48107052357157
 21
-161.5625
 31
0.0
  0
LINE
  5
3E
  8
MyLines
 10
103.48107052357157
 20
-161.5625
 30
0.0
 11
106.3301760890136
 21
-161.5625
 31
0.0
  0
LINE
  5
3F
  8
MyLines
 10
106.3301760890136
 20
-161.5625
 30
0.0
 11
109.17928165445564
 21
-161.5625
 31
0.0
  0
LINE
  5
40
  8
MyLines
 10
109.17928165445564
 20
-161.5625
 30
0.0
 11
112.02838721989768
 21
-161.5625
 31
0.0
  0
LINE
  5
41
  8
MyLines
 10
112.02838721989768
 20
-161.5625
 30
0.0
 11
114.87749278533971
 21
-161.5625
 31
0.0
  0
LINE
  5
42
  8
MyLines
 10
114.87749278533971
 20
-161.5625
 30
0.0
 11
117.72659835078176
 21
-161.5625
 31
0.0
  0
LINE
  5
43
  8
MyLines
 10
117.72659835078176
 20
-161.5625
 30
0.0
 11
120.5757039162238
 21
-161.5625
 31
0.0
  0
LINE
  5
44
  8
MyLines
 10
120.5757039162238
 20
-161.5625
 30
0.0
 11
123.42480948166585
 21
-161.5625
 31
0.0
  0
LINE
  5
45
  8
MyLines
 10
123.42480948166585
 20
-161.5625
 30
0.0
 11
126.27391504710789
 21
-161.5625
 31
0.0
  0
LINE
  5
46
  8
MyLines
 10
126.27391504710789
 20
-161.5625
 30
0.0
 11
129.1230206125499
 21
-161.5625
 31
0.0
  0
LINE
  5
47
  8
MyLines
 10
129.1230206125499
 20
-161.5625
 30
0.0
 11
131.97212617799195
 21
-161.5625
 31
0.0
  0
LINE
  5
48
  8
MyLines
 10
131.97212617799195
 20
-161.5625
 30
0.0
 11
134.821231743434
 21
-161.5625
 31
0.0
  0
LINE
  5
49
  8
MyLines
 10
134.821231743434
 20
-161.5625
 30
0.0
 11
137.67033730887601
 21
-161.5625
 31
0.0
  0
LINE
  5
4A
  8
MyLines
 10
137.67033730887601
 20
-161.5625
 30
0.0
 11
140.51944287431806
 21
-161.5625
 31
0.0
  0
LINE
  5
4B
  8
MyLines
 10
140.51944287431806
 20
-161.5625
 30
0.0
 11
143.3685484397601
 21
-161.5625
 31
0.0
  0
LINE
  5
4C
  8
MyLines
 10
143.3685484397601
 20
-161.5625
 30
0.0
 11
146.21765400520215
 21
-161.5625
 31
0.0
  0
LINE
  5
4D
  8
MyLines
 10
146.21765400520215
 20
-161.5625
 30
0.0
 11
149.06675957064417
 21
-161.5625
 31
0.0
  0
LINE
  5
4E
  8
MyLines
 10
149.06675957064417
 20
-161.5625
 30
0.0
 11
151.9158651360862
 21
-161.5625
 31
0.0
  0
LINE
  5
4F
  8
MyLines
 10
151.9158651360862
 20
-161.5625
 30
0.0
 11
154.76497070152826
 21
-161.5625
 31
0.0
  0
LINE
  5
50
  8
MyLines
 10
154.76497070152826
 20
-161.5625
 30
0.0
 11
157.61407626697027
 21
-161.5625
 31
0.0
  0
LINE
  5
51
  8
MyLines
 10
157.61407626697027
 20
-161.5625
 30
0.0
 11
160.46318183241235
 21
-161.5625
 31
0.0
  0
LINE
  5
52
  8
MyLines
 10
160.46318183241235
 20
-161.5625
 30
0.0
 11
163.3122873978544
 21
-161.5625
 31
0.0
  0
LINE
  5
53
  8
MyLines
 10
163.3122873978544
 20
-161.5625
 30
0.0
 11
166.1613929632964
 21
-161.5625
 31
0.0
  0
LINE
  5
54
  8
MyLines
 10
166.1613929632964
 20
-161.5625
 30
0.0
 11
169.01049852873845
 21
-161.5625
 31
0.0
  0
LINE
  5
55
  8
MyLines
 10
169.01049852873845
 20
-161.5625
 30
0.0
 11
171.8596040941805
 21
-161.5625
 31
0.0
  0
LINE
  5
56
  8
MyLines
 10
171.8596040941805
 20
-161.5625
 30
0.0
 11
174.7087096596225
 21
-161.5625
 31
0.0
  0
LINE
  5
57
  8
MyLines
 10
174.7087096596225
 20
-161.5625
 30
0.0
 11
177.55781522506456
 21
-161.5625
 31
0.0
  0
LINE
  5
58
  8
MyLines
 10
177.55781522506456
 20
-161.5625
 30
0.0
 11
180.4069207905066
 21
-161.5625
 31
0.0
  0
LINE
  5
59
  8
MyLines
 10
180.4069207905066
 20
-161.5625
 30
0.0
 11
183.25602635594862
 21
-161.5625
 31
0.0
  0
LINE
  5
5A
  8
MyLines
 10
183.25602635594862
 20
-161.5625
 30
0.0
 11
186.1051319213907
 21
-161.5625
 31
0.0
  0
LINE
  5
5B
  8
MyLines
 10
186.1051319213907
 20
-161.5625
 30
0.0
 11
188.95423748683274
 21
-161.5625
 31
0.0
  0
LINE
  5
5C
  8
MyLines
 10
188.95423748683274
 20
-161.5625
 30
0.0
 11
191.80334305227476
 21
-161.5625
 31
0.0
  0
LINE
  5
5D
  8
MyLines
 10
191.80334305227476
 20
-161.5625
 30
0.0
 11
194.6524486177168
 21
-161.5625
 31
0.0
  0
LINE
  5
5E
  8
MyLines
 10
194.6524486177168
 20
-161.5625
 30
0.0
 11
197.50155418315885
 21
-161.5625
 31
0.0
  0
LINE
  5
5F
  8
MyLines
 10
197.50155418315885
 20
-161.5625
 30
0.0
 11
197.50155418315885
 21
-161.5625
 31
0.0
  0
LINE
  5
60
  8
MyLines
 10
197.50155418315885
 20
-161.5625
 30
0.0
 11
197.50155418315885
 21
169.5
 31
0.0
  0
LINE
  5
61
  8
MyLines
 10
197.50155418315885
 20
169.5
 30
0.0
 11
197.50155418315885
 21
169.5
 31
0.0
  0
LINE
  5
62
  8
MyLines
 10
197.50155418315885
 20
169.5
 30
0.0
 11
195.54713769107943
 21
169.5
 31
0.0
  0
LINE
  5
63
  8
MyLines
 10
195.54713769107943
 20
169.5
 30
0.0
 11
193.59272119900007
 21
169.5
 31
0.0
  0
LINE
  5
64
  8
MyLines
 10
193.59272119900007
 20
169.5
 30
0.0
 11
191.63830470692068
 21
169.5
 31
0.0
  0
LINE
  5
65
  8
MyLines
 10
191.63830470692068
 20
169.5
 30
0.0
 11
189.68388821484132
 21
169.5
 31
0.0
  0
LINE
  5
66
  8
MyLines
 10
189.68388821484132
 20
169.5
 30
0.0
 11
187.7294717227619
 21
169.5
 31
0.0
  0
LINE
  5
67
  8
MyLines
 10
187.7294717227619
 20
169.5
 30
0.0
 11
185.7750552306825
 21
169.5
 31
0.0
  0
LINE
  5
68
  8
MyLines
 10
185.7750552306825
 20
169.5
 30
0.0
 11
183.82063873860315
 21
169.5
 31
0.0
  0
LINE
  5
69
  8
MyLines
 10
183.82063873860315
 20
169.5
 30
0.0
 11
181.86622224652376
 21
169.5
 31
0.0
  0
LINE
  5
6A
  8
MyLines
 10
181.86622224652376
 20
169.5
 30
0.0
 11
179.91180575444437
 21
169.5
 31
0.0
  0
LINE
  5
6B
  8
MyLines
 10
179.91180575444437
 20
169.5
 30
0.0
 11
177.95738926236498
 21
169.5
 31
0.0
  0
LINE
  5
6C
  8
MyLines
 10
177.95738926236498
 20
169.5
 30
0.0
 11
176.0029727702856
 21
169.5
 31
0.0
  0
LINE
  5
6D
  8
MyLines
 10
176.0029727702856
 20
169.5
 30
0.0
 11
174.04855627820623
 21
169.5
 31
0.0
  0
LINE
  5
6E
  8
MyLines
 10
174.04855627820623
 20
169.5
 30
0.0
 11
172.09413978612682
 21
169.5
 31
0.0
  0
LINE
  5
6F
  8
MyLines
 10
172.09413978612682
 20
169.5
 30
0.0
 11
170.13972329404746
 21
169.5
 31
0.0
  0
LINE
  5
70
  8
MyLines
 10
170.13972329404746
 20
169.5
 30
0.0
 11
168.18530680196807
 21
169.5
 31
0.0
  0
LINE
  5
71
  8
MyLines
 10
168.18530680196807
 20
169.5
 30
0.0
 11
166.23089030988868
 21
169.5
 31
0.0
  0
LINE
  5
72
  8
MyLines
 10
166.23089030988868
 20
169.5
 30
0.0
 11
164.2764738178093
 21
169.5
 31
0.0
  0
LINE
  5
73
  8
MyLines
 10
164.2764738178093
 20
169.5
 30
0.0
 11
162.3220573257299
 21
169.5
 31
0.0
  0
LINE
  5
74
  8
MyLines
 10
162.3220573257299
 20
169.5
 30
0.0
 11
160.3676408336505
 21
169.5
 31
0.0
  0
LINE
  5
75
  8
MyLines
 10
160.3676408336505
 20
169.5
 30
0.0
 11
158.41322434157115
 21
169.5
 31
0.0
  0
LINE
  5
76
  8
MyLines
 10
158.41322434157115
 20
169.5
 30
0.0
 11
156.45880784949173
 21
169.5
 31
0.0
  0
LINE
  5
77
  8
MyLines
 10
156.45880784949173
 20
169.5
 30
0.0
 11
154.50439135741237
 21
169.5
 31
0.0
  0
LINE
  5
78
  8
MyLines
 10
154.50439135741237
 20
169.5
 30
0.0
 11
152.54997486533298
 21
169.5
 31
0.0
  0
LINE
  5
79
  8
MyLines
 10
152.54997486533298
 20
169.5
 30
0.0
 11
150.5955583732536
 21
169.5
 31
0.0
  0
LINE
  5
7A
  8
MyLines
 10
150.5955583732536
 20
169.5
 30
0.0
 11
148.6411418811742
 21
169.5
 31
0.0
  0
LINE
  5
7B
  8
MyLines
 10
148.6411418811742
 20
169.5
 30
0.0
 11
146.68672538909482
 21
169.5
 31
0.0
  0
LINE
  5
7C
  8
MyLines
 10
146.68672538909482
 20
169.5
 30
0.0
 11
144.73230889701546
 21
169.5
 31
0.0
  0
LINE
  5
7D
  8
MyLines
 10
144.73230889701546
 20
169.5
 30
0.0
 11
142.77789240493604
 21
169.5
 31
0.0
  0
LINE
  5
7E
  8
MyLines
 10
142.77789240493604
 20
169.5
 30
0.0
 11
140.82347591285665
 21
169.5
 31
0.0
  0
LINE
  5
7F
  8
MyLines
 10
140.82347591285665
 20
169.5
 30
0.0
 11
138.8690594207773
 21
169.5
 31
0.0
  0
LINE
  5
80
  8
MyLines
 10
138.8690594207773
 20
169.5
 30
0.0
 11
136.9146429286979
 21
169.5
 31
0.0
  0
LINE
  5
81
  8
MyLines
 10
136.9146429286979
 20
169.5
 30
0.0
 11
134.9602264366185
 21
169.5
 31
0.0
  0
LINE
  5
82
  8
MyLines
 10
134.9602264366185
 20
169.5
 30
0.0
 11
133.00580994453912
 21
169.5
 31
0.0
  0
LINE
  5
83
  8
MyLines
 10
133.00580994453912
 20
169.5
 30
0.0
 11
131.05139345245976
 21
169.5
 31
0.0
  0
LINE
  5
84
  8
MyLines
 10
131.05139345245976
 20
169.5
 30
0.0
 11
129.09697696038037
 21
169.5
 31
0.0
  0
LINE
  5
85
  8
MyLines
 10
129.09697696038037
 20
169.5
 30
0.0
 11
127.14256046830097
 21
169.5
 31
0.0
  0
LINE
  5
86
  8
MyLines
 10
127.14256046830097
 20
169.5
 30
0.0
 11
125.18814397622158
 21
169.5
 31
0.0
  0
LINE
  5
87
  8
MyLines
 10
125.18814397622158
 20
169.5
 30
0.0
 11
123.23372748414221
 21
169.5
 31
0.0
  0
LINE
  5
88
  8
MyLines
 10
123.23372748414221
 20
169.5
 30
0.0
 11
121.27931099206282
 21
169.5
 31
0.0
  0
LINE
  5
89
  8
MyLines
 10
121.27931099206282
 20
169.5
 30
0.0
 11
119.32489449998344
 21
169.5
 31
0.0
  0
LINE
  5
8A
  8
MyLines
 10
119.32489449998344
 20
169.5
 30
0.0
 11
117.37047800790405
 21
169.5
 31
0.0
  0
LINE
  5
8B
  8
MyLines
 10
117.37047800790405
 20
169.5
 30
0.0
 11
115.41606151582467
 21
169.5
 31
0.0
  0
LINE
  5
8C
  8
MyLines
 10
115.41606151582467
 20
169.5
 30
0.0
 11
113.46164502374528
 21
169.5
 31
0.0
  0
LINE
  5
8D
  8
MyLines
 10
113.46164502374528
 20
169.5
 30
0.0
 11
111.5072285316659
 21
169.5
 31
0.0
  0
LINE
  5
8E
  8
MyLines
 10
111.5072285316659
 20
169.5
 30
0.0
 11
109.55281203958651
 21
169.5
 31
0.0
  0
LINE
  5
8F
  8
MyLines
 10
109.55281203958651
 20
169.5
 30
0.0
 11
107.59839554750712
 21
169.5
 31
0.0
  0
LINE
  5
90
  8
MyLines
 10
107.59839554750712
 20
169.5
 30
0.0
 11
105.64397905542774
 21
169.5
 31
0.0
  0
LINE
  5
91
  8
MyLines
 10
105.64397905542774
 20
169.5
 30
0.0
 11
103.68956256334835
 21
169.5
 31
0.0
  0
LINE
  5
92
  8
MyLines
 10
103.68956256334835
 20
169.5
 30
0.0
 11
101.73514607126897
 21
169.5
 31
0.0
  0
LINE
  5
93
  8
MyLines
 10
101.73514607126897
 20
169.5
 30
0.0
 11
101.73514607126897
 21
-157.59375
 31
0.0
  0
LINE
  5
94
  8
MyLines
 10
101.73514607126897
 20
-157.59375
 30
0.0
 11
101.73514607126897
 21
-157.59375
 31
0.0
  0
LINE
  5
95
  8
MyLines
 10
101.73514607126897
 20
-157.59375
 30
0.0
 11
103.60769931742223
 21
-157.59375
 31
0.0
  0
LINE
  5
96
  8
MyLines
 10
103.60769931742223
 20
-157.59375
 30
0.0
 11
105.48025256357548
 21
-157.59375
 31
0.0
  0
LINE
  5
97
  8
MyLines
 10
105.48025256357548
 20
-157.59375
 30
0.0
 11
107.35280580972872
 21
-157.59375
 31
0.0
  0
LINE
  5
98
  8
MyLines
 10
107.35280580972872
 20
-157.59375
 30
0.0
 11
109.22535905588198
 21
-157.59375
 31
0.0
  0
LINE
  5
99
  8
MyLines
 10
109.22535905588198
 20
-157.59375
 30
0.0
 11
111.09791230203523
 21
-157.59375
 31
0.0
  0
LINE
  5
9A
  8
MyLines
 10
111.09791230203523
 20
-157.59375
 30
0.0
 11
112.97046554818849
 21
-157.59375
 31
0.0
  0
LINE
  5
9B
  8
MyLines
 10
112.97046554818849
 20
-157.59375
 30
0.0
 11
114.84301879434175
 21
-157.59375
 31
0.0
  0
LINE
  5
9C
  8
MyLines
 10
114.84301879434175
 20
-157.59375
 30
0.0
 11
116.71557204049498
 21
-157.59375
 31
0.0
  0
LINE
  5
9D
  8
MyLines
 10
116.71557204049498
 20
-157.59375
 30
0.0
 11
118.58812528664824
 21
-157.59375
 31
0.0
  0
LINE
  5
9E
  8
MyLines
 10
118.58812528664824
 20
-157.59375
 30
0.0
 11
120.4606785328015
 21
-157.59375
 31
0.0
  0
LINE
  5
9F
  8
MyLines
 10
120.4606785328015
 20
-157.59375
 30
0.0
 11
122.33323177895474
 21
-157.59375
 31
0.0
  0
LINE
  5
A0
  8
MyLines
 10
122.33323177895474
 20
-157.59375
 30
0.0
 11
124.205785025108
 21
-157.59375
 31
0.0
  0
LINE
  5
A1
  8
MyLines
 10
124.205785025108
 20
-157.59375
 30
0.0
 11
126.07833827126125
 21
-157.59375
 31
0.0
  0
LINE
  5
A2
  8
MyLines
 10
126.07833827126125
 20
-157.59375
 30
0.0
 11
127.95089151741449
 21
-157.59375
 31
0.0
  0
LINE
  5
A3
  8
MyLines
 10
127.95089151741449
 20
-157.59375
 30
0.0
 11
129.82344476356778
 21
-157.59375
 31
0.0
  0
LINE
  5
A4
  8
MyLines
 10
129.82344476356778
 20
-157.59375
 30
0.0
 11
131.695998009721
 21
-157.59375
 31
0.0
  0
LINE
  5
A5
  8
MyLines
 10
131.695998009721
 20
-157.59375
 30
0.0
 11
133.56855125587424
 21
-157.59375
 31
0.0
  0
LINE
  5
A6
  8
MyLines
 10
133.56855125587424
 20
-157.59375
 30
0.0
 11
135.44110450202749
 21
-157.59375
 31
0.0
  0
LINE
  5
A7
  8
MyLines
 10
135.44110450202749
 20
-157.59375
 30
0.0
 11
137.31365774818076
 21
-157.59375
 31
0.0
  0
LINE
  5
A8
  8
MyLines
 10
137.31365774818076
 20
-157.59375
 30
0.0
 11
139.186210994334
 21
-157.59375
 31
0.0
  0
LINE
  5
A9
  8
MyLines
 10
139.186210994334
 20
-157.59375
 30
0.0
 11
141.05876424048728
 21
-157.59375
 31
0.0
  0
LINE
  5
AA
  8
MyLines
 10
141.05876424048728
 20
-157.59375
 30
0.0
 11
142.93131748664052
 21
-157.59375
 31
0.0
  0
LINE
  5
AB
  8
MyLines
 10
142.93131748664052
 20
-157.59375
 30
0.0
 11
144.80387073279377
 21
-157.59375
 31
0.0
  0
LINE
  5
AC
  8
MyLines
 10
144.80387073279377
 20
-157.59375
 30
0.0
 11
146.676423978947
 21
-157.59375
 31
0.0
  0
LINE
  5
AD
  8
MyLines
 10
146.676423978947
 20
-157.59375
 30
0.0
 11
148.5489772251003
 21
-157.59375
 31
0.0
  0
LINE
  5
AE
  8
MyLines
 10
148.5489772251003
 20
-157.59375
 30
0.0
 11
150.4215304712535
 21
-157.59375
 31
0.0
  0
LINE
  5
AF
  8
MyLines
 10
150.4215304712535
 20
-157.59375
 30
0.0
 11
152.29408371740678
 21
-157.59375
 31
0.0
  0
LINE
  5
B0
  8
MyLines
 10
152.29408371740678
 20
-157.59375
 30
0.0
 11
154.16663696356002
 21
-157.59375
 31
0.0
  0
LINE
  5
B1
  8
MyLines
 10
154.16663696356002
 20
-157.59375
 30
0.0
 11
156.03919020971327
 21
-157.59375
 31
0.0
  0
LINE
  5
B2
  8
MyLines
 10
156.03919020971327
 20
-157.59375
 30
0.0
 11
157.9117434558665
 21
-157.59375
 31
0.0
  0
LINE
  5
B3
  8
MyLines
 10
157.9117434558665
 20
-157.59375
 30
0.0
 11
159.7842967020198
 21
-157.59375
 31
0.0
  0
LINE
  5
B4
  8
MyLines
 10
159.7842967020198
 20
-157.59375
 30
0.0
 11
161.65684994817303
 21
-157.59375
 31
0.0
  0
LINE
  5
B5
  8
MyLines
 10
161.65684994817303
 20
-157.59375
 30
0.0
 11
163.5294031943263
 21
-157.59375
 31
0.0
  0
LINE
  5
B6
  8
MyLines
 10
163.5294031943263
 20
-157.59375
 30
0.0
 11
165.40195644047955
 21
-157.59375
 31
0.0
  0
LINE
  5
B7
  8
MyLines
 10
165.40195644047955
 20
-157.59375
 30
0.0
 11
167.2745096866328
 21
-157.59375
 31
0.0
  0
LINE
  5
B8
  8
MyLines
 10
167.2745096866328
 20
-157.59375
 30
0.0
 11
169.147062932786
 21
-157.59375
 31
0.0
  0
LINE
  5
B9
  8
MyLines
 10
169.147062932786
 20
-157.59375
 30
0.0
 11
171.0196161789393
 21
-157.59375
 31
0.0
  0
LINE
  5
BA
  8
MyLines
 10
171.0196161789393
 20
-157.59375
 30
0.0
 11
172.89216942509256
 21
-157.59375
 31
0.0
  0
LINE
  5
BB
  8
MyLines
 10
172.89216942509256
 20
-157.59375
 30
0.0
 11
174.7647226712458
 21
-157.59375
 31
0.0
  0
LINE
  5
BC
  8
MyLines
 10
174.7647226712458
 20
-157.59375
 30
0.0
 11
176.63727591739905
 21
-157.59375
 31
0.0
  0
LINE
  5
BD
  8
MyLines
 10
176.63727591739905
 20
-157.59375
 30
0.0
 11
178.5098291635523
 21
-157.59375
 31
0.0
  0
LINE
  5
BE
  8
MyLines
 10
178.5098291635523
 20
-157.59375
 30
0.0
 11
180.38238240970554
 21
-157.59375
 31
0.0
  0
LINE
  5
BF
  8
MyLines
 10
180.38238240970554
 20
-157.59375
 30
0.0
 11
182.25493565585882
 21
-157.59375
 31
0.0
  0
LINE
  5
C0
  8
MyLines
 10
182.25493565585882
 20
-157.59375
 30
0.0
 11
184.1274889020121
 21
-157.59375
 31
0.0
  0
LINE
  5
C1
  8
MyLines
 10
184.1274889020121
 20
-157.59375
 30
0.0
 11
186.00004214816533
 21
-157.59375
 31
0.0
  0
LINE
  5
C2
  8
MyLines
 10
186.00004214816533
 20
-157.59375
 30
0.0
 11
187.87259539431858
 21
-157.59375
 31
0.0
  0
LINE
  5
C3
  8
MyLines
 10
187.87259539431858
 20
-157.59375
 30
0.0
 11
189.7451486404718
 21
-157.59375
 31
0.0
  0
LINE
  5
C4
  8
MyLines
 10
189.7451486404718
 20
-157.59375
 30
0.0
 11
191.61770188662504
 21
-157.59375
 31
0.0
  0
LINE
  5
C5
  8
MyLines
 10
191.61770188662504
 20
-157.59375
 30
0.0
 11
193.49025513277832
 21
-157.59375
 31
0.0
  0
LINE
  5
C6
  8
MyLines
 10
193.49025513277832
 20
-157.59375
 30
0.0
 11
193.49025513277832
 21
-157.59375
 31
0.0
  0
LINE
  5
C7
  8
MyLines
 10
193.49025513277832
 20
-157.59375
 30
0.0
 11
193.49025513277832
 21
165.53125
 31
0.0
  0
LINE
  5
C8
  8
MyLines
 10
193.49025513277832
 20
165.53125
 30
0.0
 11
193.49025513277832
 21
165.53125
 31
0.0
  0
LINE
  5
C9
  8
MyLines
 10
193.49025513277832
 20
165.53125
 30
0.0
 11
191.69956513255121
 21
165.53125
 31
0.0
  0
LINE
  5
CA
  8
MyLines
 10
191.69956513255121
 20
165.53125
 30
0.0
 11
189.90887513232408
 21
165.53125
 31
0.0
  0
LINE
  5
CB
  8
MyLines
 10
189.90887513232408
 20
165.53125
 30
0.0
 11
188.11818513209698
 21
165.53125
 31
0.0
  0
LINE
  5
CC
  8
MyLines
 10
188.11818513209698
 20
165.53125
 30
0.0
 11
186.32749513186985
 21
165.53125
 31
0.0
  0
LINE
  5
CD
  8
MyLines
 10
186.32749513186985
 20
165.53125
 30
0.0
 11
184.53680513164275
 21
165.53125
 31
0.0
  0
LINE
  5
CE
  8
MyLines
 10
184.53680513164275
 20
165.53125
 30
0.0
 11
182.7461151314156
 21
165.53125
 31
0.0
  0
LINE
  5
CF
  8
MyLines
 10
182.7461151314156
 20
165.53125
 30
0.0
 11
180.95542513118846
 21
165.53125
 31
0.0
  0
LINE
  5
D0
  8
MyLines
 10
180.95542513118846
 20
165.53125
 30
0.0
 11
179.16473513096136
 21
165.53125
 31
0.0
  0
LINE
  5
D1
  8
MyLines
 10
179.16473513096136
 20
165.53125
 30
0.0
 11
177.37404513073423
 21
165.53125
 31
0.0
  0
LINE
  5
D2
  8
MyLines
 10
177.37404513073423
 20
165.53125
 30
0.0
 11
175.58335513050713
 21
165.53125
 31
0.0
  0
LINE
  5
D3
  8
MyLines
 10
175.58335513050713
 20
165.53125
 30
0.0
 11
173.79266513028
 21
165.53125
 31
0.0
  0
LINE
  5
D4
  8
MyLines
 10
173.79266513028
 20
165.53125
 30
0.0
 11
172.0019751300529
 21
165.53125
 31
0.0
  0
LINE
  5
D5
  8
MyLines
 10
172.0019751300529
 20
165.53125
 30
0.0
 11
170.21128512982577
 21
165.53125
 31
0.0
  0
LINE
  5
D6
  8
MyLines
 10
170.21128512982577
 20
165.53125
 30
0.0
 11
168.42059512959867
 21
165.53125
 31
0.0
  0
LINE
  5
D7
  8
MyLines
 10
168.42059512959867
 20
165.53125
 30
0.0
 11
166.62990512937154
 21
165.53125
 31
0.0
  0
LINE
  5
D8
  8
MyLines
 10
166.62990512937154
 20
165.53125
 30
0.0
 11
164.8392151291444
 21
165.53125
 31
0.0
  0
LINE
  5
D9
  8
MyLines
 10
164.8392151291444
 20
165.53125
 30
0.0
 11
163.0485251289173
 21
165.53125
 31
0.0
  0
LINE
  5
DA
  8
MyLines
 10
163.0485251289173
 20
165.53125
 30
0.0
 11
161.25783512869017
 21
165.53125
 31
0.0
  0
LINE
  5
DB
  8
MyLines
 10
161.25783512869017
 20
165.53125
 30
0.0
 11
159.46714512846307
 21
165.53125
 31
0.0
  0
LINE
  5
DC
  8
MyLines
 10
159.46714512846307
 20
165.53125
 30
0.0
 11
157.67645512823594
 21
165.53125
 31
0.0
  0
LINE
  5
DD
  8
MyLines
 10
157.67645512823594
 20
165.53125
 30
0.0
 11
155.8857651280088
 21
165.53125
 31
0.0
  0
LINE
  5
DE
  8
MyLines
 10
155.8857651280088
 20
165.53125
 30
0.0
 11
154.09507512778168
 21
165.53125
 31
0.0
  0
LINE
  5
DF
  8
MyLines
 10
154.09507512778168
 20
165.53125
 30
0.0
 11
152.30438512755458
 21
165.53125
 31
0.0
  0
LINE
  5
E0
  8
MyLines
 10
152.30438512755458
 20
165.53125
 30
0.0
 11
150.51369512732745
 21
165.53125
 31
0.0
  0
LINE
  5
E1
  8
MyLines
 10
150.51369512732745
 20
165.53125
 30
0.0
 11
148.72300512710035
 21
165.53125
 31
0.0
  0
LINE
  5
E2
  8
MyLines
 10
148.72300512710035
 20
165.53125
 30
0.0
 11
146.93231512687322
 21
165.53125
 31
0.0
  0
LINE
  5
E3
  8
MyLines
 10
146.93231512687322
 20
165.53125
 30
0.0
 11
145.1416251266461
 21
165.53125
 31
0.0
  0
LINE
  5
E4
  8
MyLines
 10
145.1416251266461
 20
165.53125
 30
0.0
 11
143.350935126419
 21
165.53125
 31
0.0
  0
LINE
  5
E5
  8
MyLines
 10
143.350935126419
 20
165.53125
 30
0.0
 11
141.56024512619186
 21
165.53125
 31
0.0
  0
LINE
  5
E6
  8
MyLines
 10
141.56024512619186
 20
165.53125
 30
0.0
 11
139.76955512596476
 21
165.53125
 31
0.0
  0
LINE
  5
E7
  8
MyLines
 10
139.76955512596476
 20
165.53125
 30
0.0
 11
137.9788651257376
 21
165.53125
 31
0.0
  0
LINE
  5
E8
  8
MyLines
 10
137.9788651257376
 20
165.53125
 30
0.0
 11
136.1881751255105
 21
165.53125
 31
0.0
  0
LINE
  5
E9
  8
MyLines
 10
136.1881751255105
 20
165.53125
 30
0.0
 11
134.39748512528337
 21
165.53125
 31
0.0
  0
LINE
  5
EA
  8
MyLines
 10
134.39748512528337
 20
165.53125
 30
0.0
 11
132.60679512505627
 21
165.53125
 31
0.0
  0
LINE
  5
EB
  8
MyLines
 10
132.60679512505627
 20
165.53125
 30
0.0
 11
130.81610512482914
 21
165.53125
 31
0.0
  0
LINE
  5
EC
  8
MyLines
 10
130.81610512482914
 20
165.53125
 30
0.0
 11
129.02541512460203
 21
165.53125
 31
0.0
  0
LINE
  5
ED
  8
MyLines
 10
129.02541512460203
 20
165.53125
 30
0.0
 11
127.2347251243749
 21
165.53125
 31
0.0
  0
LINE
  5
EE
  8
MyLines
 10
127.2347251243749
 20
165.53125
 30
0.0
 11
125.44403512414779
 21
165.53125
 31
0.0
  0
LINE
  5
EF
  8
MyLines
 10
125.44403512414779
 20
165.53125
 30
0.0
 11
123.65334512392067
 21
165.53125
 31
0.0
  0
LINE
  5
F0
  8
MyLines
 10
123.65334512392067
 20
165.53125
 30
0.0
 11
121.86265512369356
 21
165.53125
 31
0.0
  0
LINE
  5
F1
  8
MyLines
 10
121.86265512369356
 20
165.53125
 30
0.0
 11
120.07196512346644
 21
165.53125
 31
0.0
  0
LINE
  5
F2
  8
MyLines
 10
120.07196512346644
 20
165.53125
 30
0.0
 11
118.28127512323931
 21
165.53125
 31
0.0
  0
LINE
  5
F3
  8
MyLines
 10
118.28127512323931
 20
165.53125
 30
0.0
 11
116.4905851230122
 21
165.53125
 31
0.0
  0
LINE
  5
F4
  8
MyLines
 10
116.4905851230122
 20
165.53125
 30
0.0
 11
114.69989512278507
 21
165.53125
 31
0.0
  0
LINE
  5
F5
  8
MyLines
 10
114.69989512278507
 20
165.53125
 30
0.0
 11
112.90920512255795
 21
165.53125
 31
0.0
  0
LINE
  5
F6
  8
MyLines
 10
112.90920512255795
 20
165.53125
 30
0.0
 11
111.11851512233083
 21
165.53125
 31
0.0
  0
LINE
  5
F7
  8
MyLines
 10
111.11851512233083
 20
165.53125
 30
0.0
 11
109.32782512210372
 21
165.53125
 31
0.0
  0
LINE
  5
F8
  8
MyLines
 10
109.32782512210372
 20
165.53125
 30
0.0
 11
107.53713512187659
 21
165.53125
 31
0.0
  0
LINE
  5
F9
  8
MyLines
 10
107.53713512187659
 20
165.53125
 30
0.0
 11
105.74644512164947
 21
165.53125
 31
0.0
  0
LINE
  5
FA
  8
MyLines
 10
105.74644512164947
 20
165.53125
 30
0.0
 11
105.74644512164947
 21
-153.625
 31
0.0
  0
LINE
  5
FB
  8
MyLines
 10
105.74644512164947
 20
-153.625
 30
0.0
 11
105.74644512164947
 21
-153.625
 31
0.0
  0
LINE
  5
FC
  8
MyLines
 10
105.74644512164947
 20
-153.625
 30
0.0
 11
107.45320207135975
 21
-153.625
 31
0.0
  0
LINE
  5
FD
  8
MyLines
 10
107.45320207135975
 20
-153.625
 30
0.0
 11
109.15995902107002
 21
-153.625
 31
0.0
  0
LINE
  5
FE
  8
MyLines
 10
109.15995902107002
 20
-153.625
 30
0.0
 11
110.8667159707803
 21
-153.625
 31
0.0
  0
LINE
  5
FF
  8
MyLines
 10
110.8667159707803
 20
-153.625
 30
0.0
 11
112.57347292049059
 21
-153.625
 31
0.0
  0
LINE
  5
100
  8
MyLines
 10
112.57347292049059
 20
-153.625
 30
0.0
 11
114.28022987020087
 21
-153.625
 31
0.0
  0
LINE
  5
101
  8
MyLines
 10
114.28022987020087
 20
-153.625
 30
0.0
 11
115.98698681991114
 21
-153.625
 31
0.0
  0
LINE
  5
102
  8
MyLines
 10
115.98698681991114
 20
-153.625
 30
0.0
 11
117.69374376962142
 21
-153.625
 31
0.0
  0
LINE
  5
103
  8
MyLines
 10
117.69374376962142
 20
-153.625
 30
0.0
 11
119.4005007193317
 21
-153.625
 31
0.0
  0
LINE
  5
104
  8
MyLines
 10
119.4005007193317
 20
-153.625
 30
0.0
 11
121.10725766904199
 21
-153.625
 31
0.0
  0
LINE
  5
105
  8
MyLines
 10
121.10725766904199
 20
-153.625
 30
0.0
 11
122.81401461875225
 21
-153.625
 31
0.0
  0
LINE
  5
106
  8
MyLines
 10
122.81401461875225
 20
-153.625
 30
0.0
 11
124.52077156846254
 21
-153.625
 31
0.0
  0
LINE
  5
107
  8
MyLines
 10
124.52077156846254
 20
-153.625
 30
0.0
 11
126.22752851817282
 21
-153.625
 31
0.0
  0
LINE
  5
108
  8
MyLines
 10
126.22752851817282
 20
-153.625
 30
0.0
 11
127.93428546788309
 21
-153.625
 31
0.0
  0
LINE
  5
109
  8
MyLines
 10
127.93428546788309
 20
-153.625
 30
0.0
 11
129.64104241759338
 21
-153.625
 31
0.0
  0
LINE
  5
10A
  8
MyLines
 10
129.64104241759338
 20
-153.625
 30
0.0
 11
131.34779936730365
 21
-153.625
 31
0.0
  0
LINE
  5
10B
  8
MyLines
 10
131.34779936730365
 20
-153.625
 30
0.0
 11
133.05455631701392
 21
-153.625
 31
0.0
  0
LINE
  5
10C
  8
MyLines
 10
133.05455631701392
 20
-153.625
 30
0.0
 11
134.76131326672422
 21
-153.625
 31
0.0
  0
LINE
  5
10D
  8
MyLines
 10
134.76131326672422
 20
-153.625
 30
0.0
 11
136.46807021643448
 21
-153.625
 31
0.0
  0
LINE
  5
10E
  8
MyLines
 10
136.46807021643448
 20
-153.625
 30
0.0
 11
138.17482716614475
 21
-153.625
 31
0.0
  0
LINE
  5
10F
  8
MyLines
 10
138.17482716614475
 20
-153.625
 30
0.0
 11
139.88158411585502
 21
-153.625
 31
0.0
  0
LINE
  5
110
  8
MyLines
 10
139.88158411585502
 20
-153.625
 30
0.0
 11
141.58834106556532
 21
-153.625
 31
0.0
  0
LINE
  5
111
  8
MyLines
 10
141.58834106556532
 20
-153.625
 30
0.0
 11
143.29509801527558
 21
-153.625
 31
0.0
  0
LINE
  5
112
  8
MyLines
 10
143.29509801527558
 20
-153.625
 30
0.0
 11
145.00185496498588
 21
-153.625
 31
0.0
  0
LINE
  5
113
  8
MyLines
 10
145.00185496498588
 20
-153.625
 30
0.0
 11
146.70861191469612
 21
-153.625
 31
0.0
  0
LINE
  5
114
  8
MyLines
 10
146.70861191469612
 20
-153.625
 30
0.0
 11
148.41536886440645
 21
-153.625
 31
0.0
  0
LINE
  5
115
  8
MyLines
 10
148.41536886440645
 20
-153.625
 30
0.0
 11
150.12212581411669
 21
-153.625
 31
0.0
  0
LINE
  5
116
  8
MyLines
 10
150.12212581411669
 20
-153.625
 30
0.0
 11
151.82888276382695
 21
-153.625
 31
0.0
  0
LINE
  5
117
  8
MyLines
 10
151.82888276382695
 20
-153.625
 30
0.0
 11
153.53563971353725
 21
-153.625
 31
0.0
  0
LINE
  5
118
  8
MyLines
 10
153.53563971353725
 20
-153.625
 30
0.0
 11
155.24239666324752
 21
-153.625
 31
0.0
  0
LINE
  5
119
  8
MyLines
 10
155.24239666324752
 20
-153.625
 30
0.0
 11
156.9491536129578
 21
-153.625
 31
0.0
  0
LINE
  5
11A
  8
MyLines
 10
156.9491536129578
 20
-153.625
 30
0.0
 11
158.65591056266808
 21
-153.625
 31
0.0
  0
LINE
  5
11B
  8
MyLines
 10
158.65591056266808
 20
-153.625
 30
0.0
 11
160.36266751237835
 21
-153.625
 31
0.0
  0
LINE
  5
11C
  8
MyLines
 10
160.36266751237835
 20
-153.625
 30
0.0
 11
162.06942446208865
 21
-153.625
 31
0.0
  0
LINE
  5
11D
  8
MyLines
 10
162.06942446208865
 20
-153.625
 30
0.0
 11
163.77618141179892
 21
-153.625
 31
0.0
  0
LINE
  5
11E
  8
MyLines
 10
163.77618141179892
 20
-153.625
 30
0.0
 11
165.48293836150918
 21
-153.625
 31
0.0
  0
LINE
  5
11F
  8
MyLines
 10
165.48293836150918
 20
-153.625
 30
0.0
 11
167.18969531121948
 21
-153.625
 31
0.0
  0
LINE
  5
120
  8
MyLines
 10
167.18969531121948
 20
-153.625
 30
0.0
 11
168.89645226092975
 21
-153.625
 31
0.0
  0
LINE
  5
121
  8
MyLines
 10
168.89645226092975
 20
-153.625
 30
0.0
 11
170.60320921064002
 21
-153.625
 31
0.0
  0
LINE
  5
122
  8
MyLines
 10
170.60320921064002
 20
-153.625
 30
0.0
 11
172.3099661603503
 21
-153.625
 31
0.0
  0
LINE
  5
123
  8
MyLines
 10
172.3099661603503
 20
-153.625
 30
0.0
 11
174.01672311006058
 21
-153.625
 31
0.0
  0
LINE
  5
124
  8
MyLines
 10
174.01672311006058
 20
-153.625
 30
0.0
 11
175.72348005977088
 21
-153.625
 31
0.0
  0
LINE
  5
125
  8
MyLines
 10
175.72348005977088
 20
-153.625
 30
0.0
 11
177.43023700948115
 21
-153.625
 31
0.0
  0
LINE
  5
126
  8
MyLines
 10
177.43023700948115
 20
-153.625
 30
0.0
 11
179.13699395919141
 21
-153.625
 31
0.0
  0
LINE
  5
127
  8
MyLines
 10
179.13699395919141
 20
-153.625
 30
0.0
 11
180.8437509089017
 21
-153.625
 31
0.0
  0
LINE
  5
128
  8
MyLines
 10
180.8437509089017
 20
-153.625
 30
0.0
 11
182.55050785861198
 21
-153.625
 31
0.0
  0
LINE
  5
129
  8
MyLines
 10
182.55050785861198
 20
-153.625
 30
0.0
 11
184.25726480832225
 21
-153.625
 31
0.0
  0
LINE
  5
12A
  8
MyLines
 10
184.25726480832225
 20
-153.625
 30
0.0
 11
185.96402175803254
 21
-153.625
 31
0.0
  0
LINE
  5
12B
  8
MyLines
 10
185.96402175803254
 20
-153.625
 30
0.0
 11
187.6707787077428
 21
-153.625
 31
0.0
  0
LINE
  5
12C
  8
MyLines
 10
187.6707787077428
 20
-153.625
 30
0.0
 11
189.37753565745308
 21
-153.625
 31
0.0
  0
LINE
  5
12D
  8
MyLines
 10
189.37753565745308
 20
-153.625
 30
0.0
 11
189.37753565745308
 21
-153.625
 31
0.0
  0
LINE
  5
12E
  8
MyLines
 10
189.37753565745308
 20
-153.625
 30
0.0
 11
189.37753565745308
 21
161.5625
 31
0.0
  0
LINE
  5
12F
  8
MyLines
 10
189.37753565745308
 20
161.5625
 30
0.0
 11
189.37753565745308
 21
161.5625
 31
0.0
  0
LINE
  5
130
  8
MyLines
 10
189.37753565745308
 20
161.5625
 30
0.0
 11
187.75471175825965
 21
161.5625
 31
0.0
  0
LINE
  5
131
  8
MyLines
 10
187.75471175825965
 20
161.5625
 30
0.0
 11
186.1318878590662
 21
161.5625
 31
0.0
  0
LINE
  5
132
  8
MyLines
 10
186.1318878590662
 20
161.5625
 30
0.0
 11
184.50906395987278
 21
161.5625
 31
0.0
  0
LINE
  5
133
  8
MyLines
 10
184.50906395987278
 20
161.5625
 30
0.0
 11
182.88624006067937
 21
161.5625
 31
0.0
  0
LINE
  5
134
  8
MyLines
 10
182.88624006067937
 20
161.5625
 30
0.0
 11
181.26341616148594
 21
161.5625
 31
0.0
  0
LINE
  5
135
  8
MyLines
 10
181.26341616148594
 20
161.5625
 30
0.0
 11
179.64059226229247
 21
161.5625
 31
0.0
  0
LINE
  5
136
  8
MyLines
 10
179.64059226229247
 20
161.5625
 30
0.0
 11
178.01776836309904
 21
161.5625
 31
0.0
  0
LINE
  5
137
  8
MyLines
 10
178.01776836309904
 20
161.5625
 30
0.0
 11
176.3949444639056
 21
161.5625
 31
0.0
  0
LINE
  5
138
  8
MyLines
 10
176.3949444639056
 20
161.5625
 30
0.0
 11
174.77212056471217
 21
161.5625
 31
0.0
  0
LINE
  5
139
  8
MyLines
 10
174.77212056471217
 20
161.5625
 30
0.0
 11
173.14929666551873
 21
161.5625
 31
0.0
  0
LINE
  5
13A
  8
MyLines
 10
173.14929666551873
 20
161.5625
 30
0.0
 11
171.52647276632527
 21
161.5625
 31
0.0
  0
LINE
  5
13B
  8
MyLines
 10
171.52647276632527
 20
161.5625
 30
0.0
 11
169.90364886713184
 21
161.5625
 31
0.0
  0
LINE
  5
13C
  8
MyLines
 10
169.90364886713184
 20
161.5625
 30
0.0
 11
168.28082496793843
 21
161.5625
 31
0.0
  0
LINE
  5
13D
  8
MyLines
 10
168.28082496793843
 20
161.5625
 30
0.0
 11
166.658001068745
 21
161.5625
 31
0.0
  0
LINE
  5
13E
  8
MyLines
 10
166.658001068745
 20
161.5625
 30
0.0
 11
165.03517716955156
 21
161.5625
 31
0.0
  0
LINE
  5
13F
  8
MyLines
 10
165.03517716955156
 20
161.5625
 30
0.0
 11
163.4123532703581
 21
161.5625
 31
0.0
  0
LINE
  5
140
  8
MyLines
 10
163.4123532703581
 20
161.5625
 30
0.0
 11
161.78952937116466
 21
161.5625
 31
0.0
  0
LINE
  5
141
  8
MyLines
 10
161.78952937116466
 20
161.5625
 30
0.0
 11
160.16670547197123
 21
161.5625
 31
0.0
  0
LINE
  5
142
  8
MyLines
 10
160.16670547197123
 20
161.5625
 30
0.0
 11
158.5438815727778
 21
161.5625
 31
0.0
  0
LINE
  5
143
  8
MyLines
 10
158.5438815727778
 20
161.5625
 30
0.0
 11
156.9210576735844
 21
161.5625
 31
0.0
  0
LINE
  5
144
  8
MyLines
 10
156.9210576735844
 20
161.5625
 30
0.0
 11
155.29823377439095
 21
161.5625
 31
0.0
  0
LINE
  5
145
  8
MyLines
 10
155.29823377439095
 20
161.5625
 30
0.0
 11
153.6754098751975
 21
161.5625
 31
0.0
  0
LINE
  5
146
  8
MyLines
 10
153.6754098751975
 20
161.5625
 30
0.0
 11
152.05258597600405
 21
161.5625
 31
0.0
  0
LINE
  5
147
  8
MyLines
 10
152.05258597600405
 20
161.5625
 30
0.0
 11
150.42976207681062
 21
161.5625
 31
0.0
  0
LINE
  5
148
  8
MyLines
 10
150.42976207681062
 20
161.5625
 30
0.0
 11
148.80693817761718
 21
161.5625
 31
0.0
  0
LINE
  5
149
  8
MyLines
 10
148.80693817761718
 20
161.5625
 30
0.0
 11
147.18411427842375
 21
161.5625
 31
0.0
  0
LINE
  5
14A
  8
MyLines
 10
147.18411427842375
 20
161.5625
 30
0.0
 11
145.5612903792303
 21
161.5625
 31
0.0
  0
LINE
  5
14B
  8
MyLines
 10
145.5612903792303
 20
161.5625
 30
0.0
 11
143.93846648003685
 21
161.5625
 31
0.0
  0
LINE
  5
14C
  8
MyLines
 10
143.93846648003685
 20
161.5625
 30
0.0
 11
142.31564258084342
 21
161.5625
 31
0.0
  0
LINE
  5
14D
  8
MyLines
 10
142.31564258084342
 20
161.5625
 30
0.0
 11
140.69281868165
 21
161.5625
 31
0.0
  0
LINE
  5
14E
  8
MyLines
 10
140.69281868165
 20
161.5625
 30
0.0
 11
139.06999478245658
 21
161.5625
 31
0.0
  0
LINE
  5
14F
  8
MyLines
 10
139.06999478245658
 20
161.5625
 30
0.0
 11
137.4471708832631
 21
161.5625
 31
0.0
  0
LINE
  5
150
  8
MyLines
 10
137.4471708832631
 20
161.5625
 30
0.0
 11
135.82434698406968
 21
161.5625
 31
0.0
  0
LINE
  5
151
  8
MyLines
 10
135.82434698406968
 20
161.5625
 30
0.0
 11
134.20152308487624
 21
161.5625
 31
0.0
  0
LINE
  5
152
  8
MyLines
 10
134.20152308487624
 20
161.5625
 30
0.0
 11
132.57869918568284
 21
161.5625
 31
0.0
  0
LINE
  5
153
  8
MyLines
 10
132.57869918568284
 20
161.5625
 30
0.0
 11
130.9558752864894
 21
161.5625
 31
0.0
  0
LINE
  5
154
  8
MyLines
 10
130.9558752864894
 20
161.5625
 30
0.0
 11
129.33305138729594
 21
161.5625
 31
0.0
  0
LINE
  5
155
  8
MyLines
 10
129.33305138729594
 20
161.5625
 30
0.0
 11
127.71022748810252
 21
161.5625
 31
0.0
  0
LINE
  5
156
  8
MyLines
 10
127.71022748810252
 20
161.5625
 30
0.0
 11
126.08740358890907
 21
161.5625
 31
0.0
  0
LINE
  5
157
  8
MyLines
 10
126.08740358890907
 20
161.5625
 30
0.0
 11
124.46457968971563
 21
161.5625
 31
0.0
  0
LINE
  5
158
  8
MyLines
 10
124.46457968971563
 20
161.5625
 30
0.0
 11
122.8417557905222
 21
161.5625
 31
0.0
  0
LINE
  5
159
  8
MyLines
 10
122.8417557905222
 20
161.5625
 30
0.0
 11
121.21893189132875
 21
161.5625
 31
0.0
  0
LINE
  5
15A
  8
MyLines
 10
121.21893189132875
 20
161.5625
 30
0.0
 11
119.59610799213533
 21
161.5625
 31
0.0
  0
LINE
  5
15B
  8
MyLines
 10
119.59610799213533
 20
161.5625
 30
0.0
 11
117.97328409294188
 21
161.5625
 31
0.0
  0
LINE
  5
15C
  8
MyLines
 10
117.97328409294188
 20
161.5625
 30
0.0
 11
116.35046019374845
 21
161.5625
 31
0.0
  0
LINE
  5
15D
  8
MyLines
 10
116.35046019374845
 20
161.5625
 30
0.0
 11
114.72763629455503
 21
161.5625
 31
0.0
  0
LINE
  5
15E
  8
MyLines
 10
114.72763629455503
 20
161.5625
 30
0.0
 11
113.10481239536158
 21
161.5625
 31
0.0
  0
LINE
  5
15F
  8
MyLines
 10
113.10481239536158
 20
161.5625
 30
0.0
 11
111.48198849616814
 21
161.5625
 31
0.0
  0
LINE
  5
160
  8
MyLines
 10
111.48198849616814
 20
161.5625
 30
0.0
 11
109.8591645969747
 21
161.5625
 31
0.0
  0
LINE
  5
161
  8
MyLines
 10
109.8591645969747
 20
161.5625
 30
0.0
 11
109.8591645969747
 21
-149.65625
 31
0.0
  0
LINE
  5
162
  8
MyLines
 10
109.8591645969747
 20
-149.65625
 30
0.0
 11
109.8591645969747
 21
-149.65625
 31
0.0
  0
LINE
  5
163
  8
MyLines
 10
109.8591645969747
 20
-149.65625
 30
0.0
 11
111.39421642448973
 21
-149.65625
 31
0.0
  0
LINE
  5
164
  8
MyLines
 10
111.39421642448973
 20
-149.65625
 30
0.0
 11
112.92926825200475
 21
-149.65625
 31
0.0
  0
LINE
  5
165
  8
MyLines
 10
112.92926825200475
 20
-149.65625
 30
0.0
 11
114.46432007951977
 21
-149.65625
 31
0.0
  0
LINE
  5
166
  8
MyLines
 10
114.46432007951977
 20
-149.65625
 30
0.0
 11
115.99937190703479
 21
-149.65625
 31
0.0
  0
LINE
  5
167
  8
MyLines
 10
115.99937190703479
 20
-149.65625
 30
0.0
 11
117.53442373454979
 21
-149.65625
 31
0.0
  0
LINE
  5
168
  8
MyLines
 10
117.53442373454979
 20
-149.65625
 30
0.0
 11
119.06947556206481
 21
-149.65625
 31
0.0
  0
LINE
  5
169
  8
MyLines
 10
119.06947556206481
 20
-149.65625
 30
0.0
 11
120.60452738957983
 21
-149.65625
 31
0.0
  0
LINE
  5
16A
  8
MyLines
 10
120.60452738957983
 20
-149.65625
 30
0.0
 11
122.13957921709485
 21
-149.65625
 31
0.0
  0
LINE
  5
16B
  8
MyLines
 10
122.13957921709485
 20
-149.65625
 30
0.0
 11
123.67463104460987
 21
-149.65625
 31
0.0
  0
LINE
  5
16C
  8
MyLines
 10
123.67463104460987
 20
-149.65625
 30
0.0
 11
125.20968287212489
 21
-149.65625
 31
0.0
  0
LINE
  5
16D
  8
MyLines
 10
125.20968287212489
 20
-149.65625
 30
0.0
 11
126.74473469963989
 21
-149.65625
 31
0.0
  0
LINE
  5
16E
  8
MyLines
 10
126.74473469963989
 20
-149.65625
 30
0.0
 11
128.27978652715493
 21
-149.65625
 31
0.0
  0
LINE
  5
16F
  8
MyLines
 10
128.27978652715493
 20
-149.65625
 30
0.0
 11
129.81483835466994
 21
-149.65625
 31
0.0
  0
LINE
  5
170
  8
MyLines
 10
129.81483835466994
 20
-149.65625
 30
0.0
 11
131.34989018218496
 21
-149.65625
 31
0.0
  0
LINE
  5
171
  8
MyLines
 10
131.34989018218496
 20
-149.65625
 30
0.0
 11
132.88494200969998
 21
-149.65625
 31
0.0
  0
LINE
  5
172
  8
MyLines
 10
132.88494200969998
 20
-149.65625
 30
0.0
 11
134.419993837215
 21
-149.65625
 31
0.0
  0
LINE
  5
173
  8
MyLines
 10
134.419993837215
 20
-149.65625
 30
0.0
 11
135.95504566473002
 21
-149.65625
 31
0.0
  0
LINE
  5
174
  8
MyLines
 10
135.95504566473002
 20
-149.65625
 30
0.0
 11
137.49009749224504
 21
-149.65625
 31
0.0
  0
LINE
  5
175
  8
MyLines
 10
137.49009749224504
 20
-149.65625
 30
0.0
 11
139.02514931976006
 21
-149.65625
 31
0.0
  0
LINE
  5
176
  8
MyLines
 10
139.02514931976006
 20
-149.65625
 30
0.0
 11
140.56020114727508
 21
-149.65625
 31
0.0
  0
LINE
  5
177
  8
MyLines
 10
140.56020114727508
 20
-149.65625
 30
0.0
 11
142.0952529747901
 21
-149.65625
 31
0.0
  0
LINE
  5
178
  8
MyLines
 10
142.0952529747901
 20
-149.65625
 30
0.0
 11
143.63030480230512
 21
-149.65625
 31
0.0
  0
LINE
  5
179
  8
MyLines
 10
143.63030480230512
 20
-149.65625
 30
0.0
 11
145.1653566298201
 21
-149.65625
 31
0.0
  0
LINE
  5
17A
  8
MyLines
 10
145.1653566298201
 20
-149.65625
 30
0.0
 11
146.70040845733516
 21
-149.65625
 31
0.0
  0
LINE
  5
17B
  8
MyLines
 10
146.70040845733516
 20
-149.65625
 30
0.0
 11
148.23546028485015
 21
-149.65625
 31
0.0
  0
LINE
  5
17C
  8
MyLines
 10
148.23546028485015
 20
-149.65625
 30
0.0
 11
149.7705121123652
 21
-149.65625
 31
0.0
  0
LINE
  5
17D
  8
MyLines
 10
149.7705121123652
 20
-149.65625
 30
0.0
 11
151.3055639398802
 21
-149.65625
 31
0.0
  0
LINE
  5
17E
  8
MyLines
 10
151.3055639398802
 20
-149.65625
 30
0.0
 11
152.8406157673952
 21
-149.65625
 31
0.0
  0
LINE
  5
17F
  8
MyLines
 10
152.8406157673952
 20
-149.65625
 30
0.0
 11
154.37566759491023
 21
-149.65625
 31
0.0
  0
LINE
  5
180
  8
MyLines
 10
154.37566759491023
 20
-149.65625
 30
0.0
 11
155.91071942242525
 21
-149.65625
 31
0.0
  0
LINE
  5
181
  8
MyLines
 10
155.91071942242525
 20
-149.65625
 30
0.0
 11
157.44577124994026
 21
-149.65625
 31
0.0
  0
LINE
  5
182
  8
MyLines
 10
157.44577124994026
 20
-149.65625
 30
0.0
 11
158.98082307745528
 21
-149.65625
 31
0.0
  0
LINE
  5
183
  8
MyLines
 10
158.98082307745528
 20
-149.65625
 30
0.0
 11
160.5158749049703
 21
-149.65625
 31
0.0
  0
LINE
  5
184
  8
MyLines
 10
160.5158749049703
 20
-149.65625
 30
0.0
 11
162.05092673248532
 21
-149.65625
 31
0.0
  0
LINE
  5
185
  8
MyLines
 10
162.05092673248532
 20
-149.65625
 30
0.0
 11
163.58597856000034
 21
-149.65625
 31
0.0
  0
LINE
  5
186
  8
MyLines
 10
163.58597856000034
 20
-149.65625
 30
0.0
 11
165.12103038751536
 21
-149.65625
 31
0.0
  0
LINE
  5
187
  8
MyLines
 10
165.12103038751536
 20
-149.65625
 30
0.0
 11
166.65608221503038
 21
-149.65625
 31
0.0
  0
LINE
  5
188
  8
MyLines
 10
166.65608221503038
 20
-149.65625
 30
0.0
 11
168.19113404254537
 21
-149.65625
 31
0.0
  0
LINE
  5
189
  8
MyLines
 10
168.19113404254537
 20
-149.65625
 30
0.0
 11
169.72618587006042
 21
-149.65625
 31
0.0
  0
LINE
  5
18A
  8
MyLines
 10
169.72618587006042
 20
-149.65625
 30
0.0
 11
171.2612376975754
 21
-149.65625
 31
0.0
  0
LINE
  5
18B
  8
MyLines
 10
171.2612376975754
 20
-149.65625
 30
0.0
 11
172.79628952509046
 21
-149.65625
 31
0.0
  0
LINE
  5
18C
  8
MyLines
 10
172.79628952509046
 20
-149.65625
 30
0.0
 11
174.33134135260545
 21
-149.65625
 31
0.0
  0
LINE
  5
18D
  8
MyLines
 10
174.33134135260545
 20
-149.65625
 30
0.0
 11
175.8663931801205
 21
-149.65625
 31
0.0
  0
LINE
  5
18E
  8
MyLines
 10
175.8663931801205
 20
-149.65625
 30
0.0
 11
177.4014450076355
 21
-149.65625
 31
0.0
  0
LINE
  5
18F
  8
MyLines
 10
177.4014450076355
 20
-149.65625
 30
0.0
 11
178.9364968351505
 21
-149.65625
 31
0.0
  0
LINE
  5
190
  8
MyLines
 10
178.9364968351505
 20
-149.65625
 30
0.0
 11
180.47154866266553
 21
-149.65625
 31
0.0
  0
LINE
  5
191
  8
MyLines
 10
180.47154866266553
 20
-149.65625
 30
0.0
 11
182.00660049018055
 21
-149.65625
 31
0.0
  0
LINE
  5
192
  8
MyLines
 10
182.00660049018055
 20
-149.65625
 30
0.0
 11
183.54165231769556
 21
-149.65625
 31
0.0
  0
LINE
  5
193
  8
MyLines
 10
183.54165231769556
 20
-149.65625
 30
0.0
 11
185.07670414521058
 21
-149.65625
 31
0.0
  0
LINE
  5
194
  8
MyLines
 10
185.07670414521058
 20
-149.65625
 30
0.0
 11
185.07670414521058
 21
-149.65625
 31
0.0
  0
LINE
  5
195
  8
MyLines
 10
185.07670414521058
 20
-149.65625
 30
0.0
 11
185.07670414521058
 21
157.59375
 31
0.0
  0
LINE
  5
196
  8
MyLines
 10
185.07670414521058
 20
157.59375
 30
0.0
 11
185.07670414521058
 21
157.59375
 31
0.0
  0
LINE
  5
197
  8
MyLines
 10
185.07670414521058
 20
157.59375
 30
0.0
 11
183.629424389374
 21
157.59375
 31
0.0
  0
LINE
  5
198
  8
MyLines
 10
183.629424389374
 20
157.59375
 30
0.0
 11
182.1821446335374
 21
157.59375
 31
0.0
  0
LINE
  5
199
  8
MyLines
 10
182.1821446335374
 20
157.59375
 30
0.0
 11
180.7348648777008
 21
157.59375
 31
0.0
  0
LINE
  5
19A
  8
MyLines
 10
180.7348648777008
 20
157.59375
 30
0.0
 11
179.2875851218642
 21
157.59375
 31
0.0
  0
LINE
  5
19B
  8
MyLines
 10
179.2875851218642
 20
157.59375
 30
0.0
 11
177.8403053660276
 21
157.59375
 31
0.0
  0
LINE
  5
19C
  8
MyLines
 10
177.8403053660276
 20
157.59375
 30
0.0
 11
176.393025610191
 21
157.59375
 31
0.0
  0
LINE
  5
19D
  8
MyLines
 10
176.393025610191
 20
157.59375
 30
0.0
 11
174.94574585435439
 21
157.59375
 31
0.0
  0
LINE
  5
19E
  8
MyLines
 10
174.94574585435439
 20
157.59375
 30
0.0
 11
173.4984660985178
 21
157.59375
 31
0.0
  0
LINE
  5
19F
  8
MyLines
 10
173.4984660985178
 20
157.59375
 30
0.0
 11
172.0511863426812
 21
157.59375
 31
0.0
  0
LINE
  5
1A0
  8
MyLines
 10
172.0511863426812
 20
157.59375
 30
0.0
 11
170.6039065868446
 21
157.59375
 31
0.0
  0
LINE
  5
1A1
  8
MyLines
 10
170.6039065868446
 20
157.59375
 30
0.0
 11
169.156626831008
 21
157.59375
 31
0.0
  0
LINE
  5
1A2
  8
MyLines
 10
169.156626831008
 20
157.59375
 30
0.0
 11
167.7093470751714
 21
157.59375
 31
0.0
  0
LINE
  5
1A3
  8
MyLines
 10
167.7093470751714
 20
157.59375
 30
0.0
 11
166.2620673193348
 21
157.59375
 31
0.0
  0
LINE
  5
1A4
  8
MyLines
 10
166.2620673193348
 20
157.59375
 30
0.0
 11
164.8147875634982
 21
157.59375
 31
0.0
  0
LINE
  5
1A5
  8
MyLines
 10
164.8147875634982
 20
157.59375
 30
0.0
 11
163.3675078076616
 21
157.59375
 31
0.0
  0
LINE
  5
1A6
  8
MyLines
 10
163.3675078076616
 20
157.59375
 30
0.0
 11
161.920228051825
 21
157.59375
 31
0.0
  0
LINE
  5
1A7
  8
MyLines
 10
161.920228051825
 20
157.59375
 30
0.0
 11
160.4729482959884
 21
157.59375
 31
0.0
  0
LINE
  5
1A8
  8
MyLines
 10
160.4729482959884
 20
157.59375
 30
0.0
 11
159.0256685401518
 21
157.59375
 31
0.0
  0
LINE
  5
1A9
  8
MyLines
 10
159.0256685401518
 20
157.59375
 30
0.0
 11
157.5783887843152
 21
157.59375
 31
0.0
  0
LINE
  5
1AA
  8
MyLines
 10
157.5783887843152
 20
157.59375
 30
0.0
 11
156.1311090284786
 21
157.59375
 31
0.0
  0
LINE
  5
1AB
  8
MyLines
 10
156.1311090284786
 20
157.59375
 30
0.0
 11
154.683829272642
 21
157.59375
 31
0.0
  0
LINE
  5
1AC
  8
MyLines
 10
154.683829272642
 20
157.59375
 30
0.0
 11
153.2365495168054
 21
157.59375
 31
0.0
  0
LINE
  5
1AD
  8
MyLines
 10
153.2365495168054
 20
157.59375
 30
0.0
 11
151.7892697609688
 21
157.59375
 31
0.0
  0
LINE
  5
1AE
  8
MyLines
 10
151.7892697609688
 20
157.59375
 30
0.0
 11
150.3419900051322
 21
157.59375
 31
0.0
  0
LINE
  5
1AF
  8
MyLines
 10
150.3419900051322
 20
157.59375
 30
0.0
 11
148.8947102492956
 21
157.59375
 31
0.0
  0
LINE
  5
1B0
  8
MyLines
 10
148.8947102492956
 20
157.59375
 30
0.0
 11
147.447430493459
 21
157.59375
 31
0.0
  0
LINE
  5
1B1
  8
MyLines
 10
147.447430493459
 20
157.59375
 30
0.0
 11
146.0001507376224
 21
157.59375
 31
0.0
  0
LINE
  5
1B2
  8
MyLines
 10
146.0001507376224
 20
157.59375
 30
0.0
 11
144.5528709817858
 21
157.59375
 31
0.0
  0
LINE
  5
1B3
  8
MyLines
 10
144.5528709817858
 20
157.59375
 30
0.0
 11
143.10559122594918
 21
157.59375
 31
0.0
  0
LINE
  5
1B4
  8
MyLines
 10
143.10559122594918
 20
157.59375
 30
0.0
 11
141.6583114701126
 21
157.59375
 31
0.0
  0
LINE
  5
1B5
  8
MyLines
 10
141.6583114701126
 20
157.59375
 30
0.0
 11
140.211031714276
 21
157.59375
 31
0.0
  0
LINE
  5
1B6
  8
MyLines
 10
140.211031714276
 20
157.59375
 30
0.0
 11
138.7637519584394
 21
157.59375
 31
0.0
  0
LINE
  5
1B7
  8
MyLines
 10
138.7637519584394
 20
157.59375
 30
0.0
 11
137.3164722026028
 21
157.59375
 31
0.0
  0
LINE
  5
1B8
  8
MyLines
 10
137.3164722026028
 20
157.59375
 30
0.0
 11
135.8691924467662
 21
157.59375
 31
0.0
  0
LINE
  5
1B9
  8
MyLines
 10
135.8691924467662
 20
157.59375
 30
0.0
 11
134.4219126909296
 21
157.59375
 31
0.0
  0
LINE
  5
1BA
  8
MyLines
 10
134.4219126909296
 20
157.59375
 30
0.0
 11
132.97463293509298
 21
157.59375
 31
0.0
  0
LINE
  5
1BB
  8
MyLines
 10
132.97463293509298
 20
157.59375
 30
0.0
 11
131.5273531792564
 21
157.59375
 31
0.0
  0
LINE
  5
1BC
  8
MyLines
 10
131.5273531792564
 20
157.59375
 30
0.0
 11
130.0800734234198
 21
157.59375
 31
0.0
  0
LINE
  5
1BD
  8
MyLines
 10
130.0800734234198
 20
157.59375
 30
0.0
 11
128.6327936675832
 21
157.59375
 31
0.0
  0
LINE
  5
1BE
  8
MyLines
 10
128.6327936675832
 20
157.59375
 30
0.0
 11
127.1855139117466
 21
157.59375
 31
0.0
  0
LINE
  5
1BF
  8
MyLines
 10
127.1855139117466
 20
157.59375
 30
0.0
 11
125.73823415590999
 21
157.59375
 31
0.0
  0
LINE
  5
1C0
  8
MyLines
 10
125.73823415590999
 20
157.59375
 30
0.0
 11
124.2909544000734
 21
157.59375
 31
0.0
  0
LINE
  5
1C1
  8
MyLines
 10
124.2909544000734
 20
157.59375
 30
0.0
 11
122.8436746442368
 21
157.59375
 31
0.0
  0
LINE
  5
1C2
  8
MyLines
 10
122.8436746442368
 20
157.59375
 30
0.0
 11
121.3963948884002
 21
157.59375
 31
0.0
  0
LINE
  5
1C3
  8
MyLines
 10
121.3963948884002
 20
157.59375
 30
0.0
 11
119.94911513256359
 21
157.59375
 31
0.0
  0
LINE
  5
1C4
  8
MyLines
 10
119.94911513256359
 20
157.59375
 30
0.0
 11
118.501835376727
 21
157.59375
 31
0.0
  0
LINE
  5
1C5
  8
MyLines
 10
118.501835376727
 20
157.59375
 30
0.0
 11
117.0545556208904
 21
157.59375
 31
0.0
  0
LINE
  5
1C6
  8
MyLines
 10
117.0545556208904
 20
157.59375
 30
0.0
 11
115.6072758650538
 21
157.59375
 31
0.0
  0
LINE
  5
1C7
  8
MyLines
 10
115.6072758650538
 20
157.59375
 30
0.0
 11
114.1599961092172
 21
157.59375
 31
0.0
  0
LINE
  5
1C8
  8
MyLines
 10
114.1599961092172
 20
157.59375
 30
0.0
 11
114.1599961092172
 21
-145.6875
 31
0.0
  0
LINE
  5
1C9
  8
MyLines
 10
114.1599961092172
 20
-145.6875
 30
0.0
 11
114.1599961092172
 21
-145.6875
 31
0.0
  0
LINE
  5
1CA
  8
MyLines
 10
114.1599961092172
 20
-145.6875
 30
0.0
 11
115.5130837366812
 21
-145.6875
 31
0.0
  0
LINE
  5
1CB
  8
MyLines
 10
115.5130837366812
 20
-145.6875
 30
0.0
 11
116.86617136414522
 21
-145.6875
 31
0.0
  0
LINE
  5
1CC
  8
MyLines
 10
116.86617136414522
 20
-145.6875
 30
0.0
 11
118.21925899160922
 21
-145.6875
 31
0.0
  0
LINE
  5
1CD
  8
MyLines
 10
118.21925899160922
 20
-145.6875
 30
0.0
 11
119.57234661907322
 21
-145.6875
 31
0.0
  0
LINE
  5
1CE
  8
MyLines
 10
119.57234661907322
 20
-145.6875
 30
0.0
 11
120.92543424653724
 21
-145.6875
 31
0.0
  0
LINE
  5
1CF
  8
MyLines
 10
120.92543424653724
 20
-145.6875
 30
0.0
 11
122.27852187400123
 21
-145.6875
 31
0.0
  0
LINE
  5
1D0
  8
MyLines
 10
122.27852187400123
 20
-145.6875
 30
0.0
 11
123.63160950146523
 21
-145.6875
 31
0.0
  0
LINE
  5
1D1
  8
MyLines
 10
123.63160950146523
 20
-145.6875
 30
0.0
 11
124.98469712892926
 21
-145.6875
 31
0.0
  0
LINE
  5
1D2
  8
MyLines
 10
124.98469712892926
 20
-145.6875
 30
0.0
 11
126.33778475639325
 21
-145.6875
 31
0.0
  0
LINE
  5
1D3
  8
MyLines
 10
126.33778475639325
 20
-145.6875
 30
0.0
 11
127.69087238385727
 21
-145.6875
 31
0.0
  0
LINE
  5
1D4
  8
MyLines
 10
127.69087238385727
 20
-145.6875
 30
0.0
 11
129.04396001132125
 21
-145.6875
 31
0.0
  0
LINE
  5
1D5
  8
MyLines
 10
129.04396001132125
 20
-145.6875
 30
0.0
 11
130.39704763878527
 21
-145.6875
 31
0.0
  0
LINE
  5
1D6
  8
MyLines
 10
130.39704763878527
 20
-145.6875
 30
0.0
 11
131.7501352662493
 21
-145.6875
 31
0.0
  0
LINE
  5
1D7
  8
MyLines
 10
131.7501352662493
 20
-145.6875
 30
0.0
 11
133.10322289371328
 21
-145.6875
 31
0.0
  0
LINE
  5
1D8
  8
MyLines
 10
133.10322289371328
 20
-145.6875
 30
0.0
 11
134.4563105211773
 21
-145.6875
 31
0.0
  0
LINE
  5
1D9
  8
MyLines
 10
134.4563105211773
 20
-145.6875
 30
0.0
 11
135.8093981486413
 21
-145.6875
 31
0.0
  0
LINE
  5
1DA
  8
MyLines
 10
135.8093981486413
 20
-145.6875
 30
0.0
 11
137.16248577610529
 21
-145.6875
 31
0.0
  0
LINE
  5
1DB
  8
MyLines
 10
137.16248577610529
 20
-145.6875
 30
0.0
 11
138.5155734035693
 21
-145.6875
 31
0.0
  0
LINE
  5
1DC
  8
MyLines
 10
138.5155734035693
 20
-145.6875
 30
0.0
 11
139.86866103103333
 21
-145.6875
 31
0.0
  0
LINE
  5
1DD
  8
MyLines
 10
139.86866103103333
 20
-145.6875
 30
0.0
 11
141.22174865849732
 21
-145.6875
 31
0.0
  0
LINE
  5
1DE
  8
MyLines
 10
141.22174865849732
 20
-145.6875
 30
0.0
 11
142.5748362859613
 21
-145.6875
 31
0.0
  0
LINE
  5
1DF
  8
MyLines
 10
142.5748362859613
 20
-145.6875
 30
0.0
 11
143.92792391342533
 21
-145.6875
 31
0.0
  0
LINE
  5
1E0
  8
MyLines
 10
143.92792391342533
 20
-145.6875
 30
0.0
 11
145.28101154088935
 21
-145.6875
 31
0.0
  0
LINE
  5
1E1
  8
MyLines
 10
145.28101154088935
 20
-145.6875
 30
0.0
 11
146.63409916835334
 21
-145.6875
 31
0.0
  0
LINE
  5
1E2
  8
MyLines
 10
146.63409916835334
 20
-145.6875
 30
0.0
 11
147.98718679581737
 21
-145.6875
 31
0.0
  0
LINE
  5
1E3
  8
MyLines
 10
147.98718679581737
 20
-145.6875
 30
0.0
 11
149.34027442328136
 21
-145.6875
 31
0.0
  0
LINE
  5
1E4
  8
MyLines
 10
149.34027442328136
 20
-145.6875
 30
0.0
 11
150.69336205074535
 21
-145.6875
 31
0.0
  0
LINE
  5
1E5
  8
MyLines
 10
150.69336205074535
 20
-145.6875
 30
0.0
 11
152.04644967820937
 21
-145.6875
 31
0.0
  0
LINE
  5
1E6
  8
MyLines
 10
152.04644967820937
 20
-145.6875
 30
0.0
 11
153.3995373056734
 21
-145.6875
 31
0.0
  0
LINE
  5
1E7
  8
MyLines
 10
153.3995373056734
 20
-145.6875
 30
0.0
 11
154.75262493313738
 21
-145.6875
 31
0.0
  0
LINE
  5
1E8
  8
MyLines
 10
154.75262493313738
 20
-145.6875
 30
0.0
 11
156.1057125606014
 21
-145.6875
 31
0.0
  0
LINE
  5
1E9
  8
MyLines
 10
156.1057125606014
 20
-145.6875
 30
0.0
 11
157.45880018806537
 21
-145.6875
 31
0.0
  0
LINE
  5
1EA
  8
MyLines
 10
157.45880018806537
 20
-145.6875
 30
0.0
 11
158.8118878155294
 21
-145.6875
 31
0.0
  0
LINE
  5
1EB
  8
MyLines
 10
158.8118878155294
 20
-145.6875
 30
0.0
 11
160.1649754429934
 21
-145.6875
 31
0.0
  0
LINE
  5
1EC
  8
MyLines
 10
160.1649754429934
 20
-145.6875
 30
0.0
 11
161.51806307045743
 21
-145.6875
 31
0.0
  0
LINE
  5
1ED
  8
MyLines
 10
161.51806307045743
 20
-145.6875
 30
0.0
 11
162.87115069792142
 21
-145.6875
 31
0.0
  0
LINE
  5
1EE
  8
MyLines
 10
162.87115069792142
 20
-145.6875
 30
0.0
 11
164.22423832538541
 21
-145.6875
 31
0.0
  0
LINE
  5
1EF
  8
MyLines
 10
164.22423832538541
 20
-145.6875
 30
0.0
 11
165.5773259528494
 21
-145.6875
 31
0.0
  0
LINE
  5
1F0
  8
MyLines
 10
165.5773259528494
 20
-145.6875
 30
0.0
 11
166.93041358031343
 21
-145.6875
 31
0.0
  0
LINE
  5
1F1
  8
MyLines
 10
166.93041358031343
 20
-145.6875
 30
0.0
 11
168.28350120777745
 21
-145.6875
 31
0.0
  0
LINE
  5
1F2
  8
MyLines
 10
168.28350120777745
 20
-145.6875
 30
0.0
 11
169.63658883524147
 21
-145.6875
 31
0.0
  0
LINE
  5
1F3
  8
MyLines
 10
169.63658883524147
 20
-145.6875
 30
0.0
 11
170.98967646270546
 21
-145.6875
 31
0.0
  0
LINE
  5
1F4
  8
MyLines
 10
170.98967646270546
 20
-145.6875
 30
0.0
 11
172.34276409016945
 21
-145.6875
 31
0.0
  0
LINE
  5
1F5
  8
MyLines
 10
172.34276409016945
 20
-145.6875
 30
0.0
 11
173.69585171763345
 21
-145.6875
 31
0.0
  0
LINE
  5
1F6
  8
MyLines
 10
173.69585171763345
 20
-145.6875
 30
0.0
 11
175.04893934509747
 21
-145.6875
 31
0.0
  0
LINE
  5
1F7
  8
MyLines
 10
175.04893934509747
 20
-145.6875
 30
0.0
 11
176.4020269725615
 21
-145.6875
 31
0.0
  0
LINE
  5
1F8
  8
MyLines
 10
176.4020269725615
 20
-145.6875
 30
0.0
 11
177.7551146000255
 21
-145.6875
 31
0.0
  0
LINE
  5
1F9
  8
MyLines
 10
177.7551146000255
 20
-145.6875
 30
0.0
 11
179.10820222748947
 21
-145.6875
 31
0.0
  0
LINE
  5
1FA
  8
MyLines
 10
179.10820222748947
 20
-145.6875
 30
0.0
 11
180.4612898549535
 21
-145.6875
 31
0.0
  0
LINE
  5
1FB
  8
MyLines
 10
180.4612898549535
 20
-145.6875
 30
0.0
 11
180.4612898549535
 21
-145.6875
 31
0.0
  0
LINE
  5
1FC
  8
MyLines
 10
180.4612898549535
 20
-145.6875
 30
0.0
 11
180.4612898549535
 21
153.625
 31
0.0
  0
LINE
  5
1FD
  8
MyLines
 10
180.4612898549535
 20
153.625
 30
0.0
 11
180.4612898549535
 21
153.625
 31
0.0
  0
LINE
  5
1FE
  8
MyLines
 10
180.4612898549535
 20
153.625
 30
0.0
 11
179.20239435586208
 21
153.625
 31
0.0
  0
LINE
  5
1FF
  8
MyLines
 10
179.20239435586208
 20
153.625
 30
0.0
 11
177.94349885677067
 21
153.625
 31
0.0
  0
LINE
  5
200
  8
MyLines
 10
177.94349885677067
 20
153.625
 30
0.0
 11
176.68460335767926
 21
153.625
 31
0.0
  0
LINE
  5
201
  8
MyLines
 10
176.68460335767926
 20
153.625
 30
0.0
 11
175.42570785858786
 21
153.625
 31
0.0
  0
LINE
  5
202
  8
MyLines
 10
175.42570785858786
 20
153.625
 30
0.0
 11
174.16681235949642
 21
153.625
 31
0.0
  0
LINE
  5
203
  8
MyLines
 10
174.16681235949642
 20
153.625
 30
0.0
 11
172.90791686040504
 21
153.625
 31
0.0
  0
LINE
  5
204
  8
MyLines
 10
172.90791686040504
 20
153.625
 30
0.0
 11
171.64902136131363
 21
153.625
 31
0.0
  0
LINE
  5
205
  8
MyLines
 10
171.64902136131363
 20
153.625
 30
0.0
 11
170.3901258622222
 21
153.625
 31
0.0
  0
LINE
  5
206
  8
MyLines
 10
170.3901258622222
 20
153.625
 30
0.0
 11
169.13123036313078
 21
153.625
 31
0.0
  0
LINE
  5
207
  8
MyLines
 10
169.13123036313078
 20
153.625
 30
0.0
 11
167.8723348640394
 21
153.625
 31
0.0
  0
LINE
  5
208
  8
MyLines
 10
167.8723348640394
 20
153.625
 30
0.0
 11
166.61343936494796
 21
153.625
 31
0.0
  0
LINE
  5
209
  8
MyLines
 10
166.61343936494796
 20
153.625
 30
0.0
 11
165.35454386585656
 21
153.625
 31
0.0
  0
LINE
  5
20A
  8
MyLines
 10
165.35454386585656
 20
153.625
 30
0.0
 11
164.09564836676515
 21
153.625
 31
0.0
  0
LINE
  5
20B
  8
MyLines
 10
164.09564836676515
 20
153.625
 30
0.0
 11
162.8367528676737
 21
153.625
 31
0.0
  0
LINE
  5
20C
  8
MyLines
 10
162.8367528676737
 20
153.625
 30
0.0
 11
161.57785736858233
 21
153.625
 31
0.0
  0
LINE
  5
20D
  8
MyLines
 10
161.57785736858233
 20
153.625
 30
0.0
 11
160.31896186949092
 21
153.625
 31
0.0
  0
LINE
  5
20E
  8
MyLines
 10
160.31896186949092
 20
153.625
 30
0.0
 11
159.06006637039948
 21
153.625
 31
0.0
  0
LINE
  5
20F
  8
MyLines
 10
159.06006637039948
 20
153.625
 30
0.0
 11
157.80117087130807
 21
153.625
 31
0.0
  0
LINE
  5
210
  8
MyLines
 10
157.80117087130807
 20
153.625
 30
0.0
 11
156.5422753722167
 21
153.625
 31
0.0
  0
LINE
  5
211
  8
MyLines
 10
156.5422753722167
 20
153.625
 30
0.0
 11
155.28337987312526
 21
153.625
 31
0.0
  0
LINE
  5
212
  8
MyLines
 10
155.28337987312526
 20
153.625
 30
0.0
 11
154.02448437403385
 21
153.625
 31
0.0
  0
LINE
  5
213
  8
MyLines
 10
154.02448437403385
 20
153.625
 30
0.0
 11
152.76558887494244
 21
153.625
 31
0.0
  0
LINE
  5
214
  8
MyLines
 10
152.76558887494244
 20
153.625
 30
0.0
 11
151.50669337585103
 21
153.625
 31
0.0
  0
LINE
  5
215
  8
MyLines
 10
151.50669337585103
 20
153.625
 30
0.0
 11
150.24779787675962
 21
153.625
 31
0.0
  0
LINE
  5
216
  8
MyLines
 10
150.24779787675962
 20
153.625
 30
0.0
 11
148.98890237766818
 21
153.625
 31
0.0
  0
LINE
  5
217
  8
MyLines
 10
148.98890237766818
 20
153.625
 30
0.0
 11
147.73000687857677
 21
153.625
 31
0.0
  0
LINE
  5
218
  8
MyLines
 10
147.73000687857677
 20
153.625
 30
0.0
 11
146.47111137948536
 21
153.625
 31
0.0
  0
LINE
  5
219
  8
MyLines
 10
146.47111137948536
 20
153.625
 30
0.0
 11
145.21221588039398
 21
153.625
 31
0.0
  0
LINE
  5
21A
  8
MyLines
 10
145.21221588039398
 20
153.625
 30
0.0
 11
143.95332038130255
 21
153.625
 31
0.0
  0
LINE
  5
21B
  8
MyLines
 10
143.95332038130255
 20
153.625
 30
0.0
 11
142.69442488221114
 21
153.625
 31
0.0
  0
LINE
  5
21C
  8
MyLines
 10
142.69442488221114
 20
153.625
 30
0.0
 11
141.4355293831197
 21
153.625
 31
0.0
  0
LINE
  5
21D
  8
MyLines
 10
141.4355293831197
 20
153.625
 30
0.0
 11
140.17663388402832
 21
153.625
 31
0.0
  0
LINE
  5
21E
  8
MyLines
 10
140.17663388402832
 20
153.625
 30
0.0
 11
138.9177383849369
 21
153.625
 31
0.0
  0
LINE
  5
21F
  8
MyLines
 10
138.9177383849369
 20
153.625
 30
0.0
 11
137.65884288584547
 21
153.625
 31
0.0
  0
LINE
  5
220
  8
MyLines
 10
137.65884288584547
 20
153.625
 30
0.0
 11
136.39994738675406
 21
153.625
 31
0.0
  0
LINE
  5
221
  8
MyLines
 10
136.39994738675406
 20
153.625
 30
0.0
 11
135.14105188766263
 21
153.625
 31
0.0
  0
LINE
  5
222
  8
MyLines
 10
135.14105188766263
 20
153.625
 30
0.0
 11
133.88215638857125
 21
153.625
 31
0.0
  0
LINE
  5
223
  8
MyLines
 10
133.88215638857125
 20
153.625
 30
0.0
 11
132.62326088947984
 21
153.625
 31
0.0
  0
LINE
  5
224
  8
MyLines
 10
132.62326088947984
 20
153.625
 30
0.0
 11
131.3643653903884
 21
153.625
 31
0.0
  0
LINE
  5
225
  8
MyLines
 10
131.3643653903884
 20
153.625
 30
0.0
 11
130.105469891297
 21
153.625
 31
0.0
  0
LINE
  5
226
  8
MyLines
 10
130.105469891297
 20
153.625
 30
0.0
 11
128.8465743922056
 21
153.625
 31
0.0
  0
LINE
  5
227
  8
MyLines
 10
128.8465743922056
 20
153.625
 30
0.0
 11
127.58767889311417
 21
153.625
 31
0.0
  0
LINE
  5
228
  8
MyLines
 10
127.58767889311417
 20
153.625
 30
0.0
 11
126.32878339402276
 21
153.625
 31
0.0
  0
LINE
  5
229
  8
MyLines
 10
126.32878339402276
 20
153.625
 30
0.0
 11
125.06988789493137
 21
153.625
 31
0.0
  0
LINE
  5
22A
  8
MyLines
 10
125.06988789493137
 20
153.625
 30
0.0
 11
123.81099239583995
 21
153.625
 31
0.0
  0
LINE
  5
22B
  8
MyLines
 10
123.81099239583995
 20
153.625
 30
0.0
 11
122.55209689674854
 21
153.625
 31
0.0
  0
LINE
  5
22C
  8
MyLines
 10
122.55209689674854
 20
153.625
 30
0.0
 11
121.29320139765713
 21
153.625
 31
0.0
  0
LINE
  5
22D
  8
MyLines
 10
121.29320139765713
 20
153.625
 30
0.0
 11
120.0343058985657
 21
153.625
 31
0.0
  0
LINE
  5
22E
  8
MyLines
 10
120.0343058985657
 20
153.625
 30
0.0
 11
118.7754103994743
 21
153.625
 31
0.0
  0
LINE
  5
22F
  8
MyLines
 10
118.7754103994743
 20
153.625
 30
0.0
 11
118.7754103994743
 21
-141.71875
 31
0.0
  0
LINE
  5
230
  8
MyLines
 10
118.7754103994743
 20
-141.71875
 30
0.0
 11
118.7754103994743
 21
-141.71875
 31
0.0
  0
LINE
  5
231
  8
MyLines
 10
118.7754103994743
 20
-141.71875
 30
0.0
 11
119.92918640996963
 21
-141.71875
 31
0.0
  0
LINE
  5
232
  8
MyLines
 10
119.92918640996963
 20
-141.71875
 30
0.0
 11
121.08296242046495
 21
-141.71875
 31
0.0
  0
LINE
  5
233
  8
MyLines
 10
121.08296242046495
 20
-141.71875
 30
0.0
 11
122.23673843096029
 21
-141.71875
 31
0.0
  0
LINE
  5
234
  8
MyLines
 10
122.23673843096029
 20
-141.71875
 30
0.0
 11
123.39051444145561
 21
-141.71875
 31
0.0
  0
LINE
  5
235
  8
MyLines
 10
123.39051444145561
 20
-141.71875
 30
0.0
 11
124.54429045195094
 21
-141.71875
 31
0.0
  0
LINE
  5
236
  8
MyLines
 10
124.54429045195094
 20
-141.71875
 30
0.0
 11
125.69806646244628
 21
-141.71875
 31
0.0
  0
LINE
  5
237
  8
MyLines
 10
125.69806646244628
 20
-141.71875
 30
0.0
 11
126.8518424729416
 21
-141.71875
 31
0.0
  0
LINE
  5
238
  8
MyLines
 10
126.8518424729416
 20
-141.71875
 30
0.0
 11
128.00561848343696
 21
-141.71875
 31
0.0
  0
LINE
  5
239
  8
MyLines
 10
128.00561848343696
 20
-141.71875
 30
0.0
 11
129.15939449393227
 21
-141.71875
 31
0.0
  0
LINE
  5
23A
  8
MyLines
 10
129.15939449393227
 20
-141.71875
 30
0.0
 11
130.3131705044276
 21
-141.71875
 31
0.0
  0
LINE
  5
23B
  8
MyLines
 10
130.3131705044276
 20
-141.71875
 30
0.0
 11
131.46694651492294
 21
-141.71875
 31
0.0
  0
LINE
  5
23C
  8
MyLines
 10
131.46694651492294
 20
-141.71875
 30
0.0
 11
132.62072252541827
 21
-141.71875
 31
0.0
  0
LINE
  5
23D
  8
MyLines
 10
132.62072252541827
 20
-141.71875
 30
0.0
 11
133.7744985359136
 21
-141.71875
 31
0.0
  0
LINE
  5
23E
  8
MyLines
 10
133.7744985359136
 20
-141.71875
 30
0.0
 11
134.92827454640891
 21
-141.71875
 31
0.0
  0
LINE
  5
23F
  8
MyLines
 10
134.92827454640891
 20
-141.71875
 30
0.0
 11
136.08205055690425
 21
-141.71875
 31
0.0
  0
LINE
  5
240
  8
MyLines
 10
136.08205055690425
 20
-141.71875
 30
0.0
 11
137.23582656739958
 21
-141.71875
 31
0.0
  0
LINE
  5
241
  8
MyLines
 10
137.23582656739958
 20
-141.71875
 30
0.0
 11
138.38960257789492
 21
-141.71875
 31
0.0
  0
LINE
  5
242
  8
MyLines
 10
138.38960257789492
 20
-141.71875
 30
0.0
 11
139.54337858839025
 21
-141.71875
 31
0.0
  0
LINE
  5
243
  8
MyLines
 10
139.54337858839025
 20
-141.71875
 30
0.0
 11
140.69715459888556
 21
-141.71875
 31
0.0
  0
LINE
  5
244
  8
MyLines
 10
140.69715459888556
 20
-141.71875
 30
0.0
 11
141.8509306093809
 21
-141.71875
 31
0.0
  0
LINE
  5
245
  8
MyLines
 10
141.8509306093809
 20
-141.71875
 30
0.0
 11
143.00470661987623
 21
-141.71875
 31
0.0
  0
LINE
  5
246
  8
MyLines
 10
143.00470661987623
 20
-141.71875
 30
0.0
 11
144.15848263037157
 21
-141.71875
 31
0.0
  0
LINE
  5
247
  8
MyLines
 10
144.15848263037157
 20
-141.71875
 30
0.0
 11
145.3122586408669
 21
-141.71875
 31
0.0
  0
LINE
  5
248
  8
MyLines
 10
145.3122586408669
 20
-141.71875
 30
0.0
 11
146.4660346513622
 21
-141.71875
 31
0.0
  0
LINE
  5
249
  8
MyLines
 10
146.4660346513622
 20
-141.71875
 30
0.0
 11
147.61981066185754
 21
-141.71875
 31
0.0
  0
LINE
  5
24A
  8
MyLines
 10
147.61981066185754
 20
-141.71875
 30
0.0
 11
148.77358667235288
 21
-141.71875
 31
0.0
  0
LINE
  5
24B
  8
MyLines
 10
148.77358667235288
 20
-141.71875
 30
0.0
 11
149.9273626828482
 21
-141.71875
 31
0.0
  0
LINE
  5
24C
  8
MyLines
 10
149.9273626828482
 20
-141.71875
 30
0.0
 11
151.08113869334355
 21
-141.71875
 31
0.0
  0
LINE
  5
24D
  8
MyLines
 10
151.08113869334355
 20
-141.71875
 30
0.0
 11
152.23491470383885
 21
-141.71875
 31
0.0
  0
LINE
  5
24E
  8
MyLines
 10
152.23491470383885
 20
-141.71875
 30
0.0
 11
153.38869071433422
 21
-141.71875
 31
0.0
  0
LINE
  5
24F
  8
MyLines
 10
153.38869071433422
 20
-141.71875
 30
0.0
 11
154.54246672482952
 21
-141.71875
 31
0.0
  0
LINE
  5
250
  8
MyLines
 10
154.54246672482952
 20
-141.71875
 30
0.0
 11
155.69624273532486
 21
-141.71875
 31
0.0
  0
LINE
  5
251
  8
MyLines
 10
155.69624273532486
 20
-141.71875
 30
0.0
 11
156.8500187458202
 21
-141.71875
 31
0.0
  0
LINE
  5
252
  8
MyLines
 10
156.8500187458202
 20
-141.71875
 30
0.0
 11
158.0037947563155
 21
-141.71875
 31
0.0
  0
LINE
  5
253
  8
MyLines
 10
158.0037947563155
 20
-141.71875
 30
0.0
 11
159.15757076681086
 21
-141.71875
 31
0.0
  0
LINE
  5
254
  8
MyLines
 10
159.15757076681086
 20
-141.71875
 30
0.0
 11
160.31134677730617
 21
-141.71875
 31
0.0
  0
LINE
  5
255
  8
MyLines
 10
160.31134677730617
 20
-141.71875
 30
0.0
 11
161.4651227878015
 21
-141.71875
 31
0.0
  0
LINE
  5
256
  8
MyLines
 10
161.4651227878015
 20
-141.71875
 30
0.0
 11
162.61889879829684
 21
-141.71875
 31
0.0
  0
LINE
  5
257
  8
MyLines
 10
162.61889879829684
 20
-141.71875
 30
0.0
 11
163.77267480879217
 21
-141.71875
 31
0.0
  0
LINE
  5
258
  8
MyLines
 10
163.77267480879217
 20
-141.71875
 30
0.0
 11
164.9264508192875
 21
-141.71875
 31
0.0
  0
LINE
  5
259
  8
MyLines
 10
164.9264508192875
 20
-141.71875
 30
0.0
 11
166.08022682978282
 21
-141.71875
 31
0.0
  0
LINE
  5
25A
  8
MyLines
 10
166.08022682978282
 20
-141.71875
 30
0.0
 11
167.23400284027815
 21
-141.71875
 31
0.0
  0
LINE
  5
25B
  8
MyLines
 10
167.23400284027815
 20
-141.71875
 30
0.0
 11
168.3877788507735
 21
-141.71875
 31
0.0
  0
LINE
  5
25C
  8
MyLines
 10
168.3877788507735
 20
-141.71875
 30
0.0
 11
169.54155486126882
 21
-141.71875
 31
0.0
  0
LINE
  5
25D
  8
MyLines
 10
169.54155486126882
 20
-141.71875
 30
0.0
 11
170.69533087176416
 21
-141.71875
 31
0.0
  0
LINE
  5
25E
  8
MyLines
 10
170.69533087176416
 20
-141.71875
 30
0.0
 11
171.84910688225946
 21
-141.71875
 31
0.0
  0
LINE
  5
25F
  8
MyLines
 10
171.84910688225946
 20
-141.71875
 30
0.0
 11
173.0028828927548
 21
-141.71875
 31
0.0
  0
LINE
  5
260
  8
MyLines
 10
173.0028828927548
 20
-141.71875
 30
0.0
 11
174.15665890325013
 21
-141.71875
 31
0.0
  0
LINE
  5
261
  8
MyLines
 10
174.15665890325013
 20
-141.71875
 30
0.0
 11
175.31043491374547
 21
-141.71875
 31
0.0
  0
LINE
  5
262
  8
MyLines
 10
175.31043491374547
 20
-141.71875
 30
0.0
 11
175.31043491374547
 21
-141.71875
 31
0.0
  0
LINE
  5
263
  8
MyLines
 10
175.31043491374547
 20
-141.71875
 30
0.0
 11
175.31043491374547
 21
149.65625
 31
0.0
  0
LINE
  5
264
  8
MyLines
 10
175.31043491374547
 20
149.65625
 30
0.0
 11
175.31043491374547
 21
149.65625
 31
0.0
  0
LINE
  5
265
  8
MyLines
 10
175.31043491374547
 20
149.65625
 30
0.0
 11
174.26177839184624
 21
149.65625
 31
0.0
  0
LINE
  5
266
  8
MyLines
 10
174.26177839184624
 20
149.65625
 30
0.0
 11
173.21312186994695
 21
149.65625
 31
0.0
  0
LINE
  5
267
  8
MyLines
 10
173.21312186994695
 20
149.65625
 30
0.0
 11
172.1644653480477
 21
149.65625
 31
0.0
  0
LINE
  5
268
  8
MyLines
 10
172.1644653480477
 20
149.65625
 30
0.0
 11
171.11580882614848
 21
149.65625
 31
0.0
  0
LINE
  5
269
  8
MyLines
 10
171.11580882614848
 20
149.65625
 30
0.0
 11
170.06715230424925
 21
149.65625
 31
0.0
  0
LINE
  5
26A
  8
MyLines
 10
170.06715230424925
 20
149.65625
 30
0.0
 11
169.01849578234996
 21
149.65625
 31
0.0
  0
LINE
  5
26B
  8
MyLines
 10
169.01849578234996
 20
149.65625
 30
0.0
 11
167.96983926045073
 21
149.65625
 31
0.0
  0
LINE
  5
26C
  8
MyLines
 10
167.96983926045073
 20
149.65625
 30
0.0
 11
166.9211827385515
 21
149.65625
 31
0.0
  0
LINE
  5
26D
  8
MyLines
 10
166.9211827385515
 20
149.65625
 30
0.0
 11
165.87252621665223
 21
149.65625
 31
0.0
  0
LINE
  5
26E
  8
MyLines
 10
165.87252621665223
 20
149.65625
 30
0.0
 11
164.82386969475297
 21
149.65625
 31
0.0
  0
LINE
  5
26F
  8
MyLines
 10
164.82386969475297
 20
149.65625
 30
0.0
 11
163.77521317285374
 21
149.65625
 31
0.0
  0
LINE
  5
270
  8
MyLines
 10
163.77521317285374
 20
149.65625
 30
0.0
 11
162.7265566509545
 21
149.65625
 31
0.0
  0
LINE
  5
271
  8
MyLines
 10
162.7265566509545
 20
149.65625
 30
0.0
 11
161.67790012905525
 21
149.65625
 31
0.0
  0
LINE
  5
272
  8
MyLines
 10
161.67790012905525
 20
149.65625
 30
0.0
 11
160.62924360715598
 21
149.65625
 31
0.0
  0
LINE
  5
273
  8
MyLines
 10
160.62924360715598
 20
149.65625
 30
0.0
 11
159.58058708525675
 21
149.65625
 31
0.0
  0
LINE
  5
274
  8
MyLines
 10
159.58058708525675
 20
149.65625
 30
0.0
 11
158.5319305633575
 21
149.65625
 31
0.0
  0
LINE
  5
275
  8
MyLines
 10
158.5319305633575
 20
149.65625
 30
0.0
 11
157.48327404145826
 21
149.65625
 31
0.0
  0
LINE
  5
276
  8
MyLines
 10
157.48327404145826
 20
149.65625
 30
0.0
 11
156.434617519559
 21
149.65625
 31
0.0
  0
LINE
  5
277
  8
MyLines
 10
156.434617519559
 20
149.65625
 30
0.0
 11
155.38596099765977
 21
149.65625
 31
0.0
  0
LINE
  5
278
  8
MyLines
 10
155.38596099765977
 20
149.65625
 30
0.0
 11
154.3373044757605
 21
149.65625
 31
0.0
  0
LINE
  5
279
  8
MyLines
 10
154.3373044757605
 20
149.65625
 30
0.0
 11
153.28864795386127
 21
149.65625
 31
0.0
  0
LINE
  5
27A
  8
MyLines
 10
153.28864795386127
 20
149.65625
 30
0.0
 11
152.239991431962
 21
149.65625
 31
0.0
  0
LINE
  5
27B
  8
MyLines
 10
152.239991431962
 20
149.65625
 30
0.0
 11
151.19133491006275
 21
149.65625
 31
0.0
  0
LINE
  5
27C
  8
MyLines
 10
151.19133491006275
 20
149.65625
 30
0.0
 11
150.14267838816352
 21
149.65625
 31
0.0
  0
LINE
  5
27D
  8
MyLines
 10
150.14267838816352
 20
149.65625
 30
0.0
 11
149.09402186626428
 21
149.65625
 31
0.0
  0
LINE
  5
27E
  8
MyLines
 10
149.09402186626428
 20
149.65625
 30
0.0
 11
148.04536534436502
 21
149.65625
 31
0.0
  0
LINE
  5
27F
  8
MyLines
 10
148.04536534436502
 20
149.65625
 30
0.0
 11
146.99670882246576
 21
149.65625
 31
0.0
  0
LINE
  5
280
  8
MyLines
 10
146.99670882246576
 20
149.65625
 30
0.0
 11
145.94805230056653
 21
149.65625
 31
0.0
  0
LINE
  5
281
  8
MyLines
 10
145.94805230056653
 20
149.65625
 30
0.0
 11
144.8993957786673
 21
149.65625
 31
0.0
  0
LINE
  5
282
  8
MyLines
 10
144.8993957786673
 20
149.65625
 30
0.0
 11
143.850739256768
 21
149.65625
 31
0.0
  0
LINE
  5
283
  8
MyLines
 10
143.850739256768
 20
149.65625
 30
0.0
 11
142.80208273486878
 21
149.65625
 31
0.0
  0
LINE
  5
284
  8
MyLines
 10
142.80208273486878
 20
149.65625
 30
0.0
 11
141.75342621296954
 21
149.65625
 31
0.0
  0
LINE
  5
285
  8
MyLines
 10
141.75342621296954
 20
149.65625
 30
0.0
 11
140.7047696910703
 21
149.65625
 31
0.0
  0
LINE
  5
286
  8
MyLines
 10
140.7047696910703
 20
149.65625
 30
0.0
 11
139.65611316917105
 21
149.65625
 31
0.0
  0
LINE
  5
287
  8
MyLines
 10
139.65611316917105
 20
149.65625
 30
0.0
 11
138.6074566472718
 21
149.65625
 31
0.0
  0
LINE
  5
288
  8
MyLines
 10
138.6074566472718
 20
149.65625
 30
0.0
 11
137.55880012537253
 21
149.65625
 31
0.0
  0
LINE
  5
289
  8
MyLines
 10
137.55880012537253
 20
149.65625
 30
0.0
 11
136.5101436034733
 21
149.65625
 31
0.0
  0
LINE
  5
28A
  8
MyLines
 10
136.5101436034733
 20
149.65625
 30
0.0
 11
135.46148708157406
 21
149.65625
 31
0.0
  0
LINE
  5
28B
  8
MyLines
 10
135.46148708157406
 20
149.65625
 30
0.0
 11
134.4128305596748
 21
149.65625
 31
0.0
  0
LINE
  5
28C
  8
MyLines
 10
134.4128305596748
 20
149.65625
 30
0.0
 11
133.36417403777557
 21
149.65625
 31
0.0
  0
LINE
  5
28D
  8
MyLines
 10
133.36417403777557
 20
149.65625
 30
0.0
 11
132.3155175158763
 21
149.65625
 31
0.0
  0
LINE
  5
28E
  8
MyLines
 10
132.3155175158763
 20
149.65625
 30
0.0
 11
131.26686099397708
 21
149.65625
 31
0.0
  0
LINE
  5
28F
  8
MyLines
 10
131.26686099397708
 20
149.65625
 30
0.0
 11
130.2182044720778
 21
149.65625
 31
0.0
  0
LINE
  5
290
  8
MyLines
 10
130.2182044720778
 20
149.65625
 30
0.0
 11
129.16954795017855
 21
149.65625
 31
0.0
  0
LINE
  5
291
  8
MyLines
 10
129.16954795017855
 20
149.65625
 30
0.0
 11
128.12089142827932
 21
149.65625
 31
0.0
  0
LINE
  5
292
  8
MyLines
 10
128.12089142827932
 20
149.65625
 30
0.0
 11
127.07223490638007
 21
149.65625
 31
0.0
  0
LINE
  5
293
  8
MyLines
 10
127.07223490638007
 20
149.65625
 30
0.0
 11
126.02357838448083
 21
149.65625
 31
0.0
  0
LINE
  5
294
  8
MyLines
 10
126.02357838448083
 20
149.65625
 30
0.0
 11
124.97492186258157
 21
149.65625
 31
0.0
  0
LINE
  5
295
  8
MyLines
 10
124.97492186258157
 20
149.65625
 30
0.0
 11
123.92626534068233
 21
149.65625
 31
0.0
  0
LINE
  5
296
  8
MyLines
 10
123.92626534068233
 20
149.65625
 30
0.0
 11
123.92626534068233
 21
-137.75
 31
0.0
  0
LINE
  5
297
  8
MyLines
 10
123.92626534068233
 20
-137.75
 30
0.0
 11
123.92626534068233
 21
-137.75
 31
0.0
  0
LINE
  5
298
  8
MyLines
 10
123.92626534068233
 20
-137.75
 30
0.0
 11
124.84847124009724
 21
-137.75
 31
0.0
  0
LINE
  5
299
  8
MyLines
 10
124.84847124009724
 20
-137.75
 30
0.0
 11
125.77067713951215
 21
-137.75
 31
0.0
  0
LINE
  5
29A
  8
MyLines
 10
125.77067713951215
 20
-137.75
 30
0.0
 11
126.69288303892705
 21
-137.75
 31
0.0
  0
LINE
  5
29B
  8
MyLines
 10
126.69288303892705
 20
-137.75
 30
0.0
 11
127.61508893834197
 21
-137.75
 31
0.0
  0
LINE
  5
29C
  8
MyLines
 10
127.61508893834197
 20
-137.75
 30
0.0
 11
128.5372948377569
 21
-137.75
 31
0.0
  0
LINE
  5
29D
  8
MyLines
 10
128.5372948377569
 20
-137.75
 30
0.0
 11
129.4595007371718
 21
-137.75
 31
0.0
  0
LINE
  5
29E
  8
MyLines
 10
129.4595007371718
 20
-137.75
 30
0.0
 11
130.3817066365867
 21
-137.75
 31
0.0
  0
LINE
  5
29F
  8
MyLines
 10
130.3817066365867
 20
-137.75
 30
0.0
 11
131.3039125360016
 21
-137.75
 31
0.0
  0
LINE
  5
2A0
  8
MyLines
 10
131.3039125360016
 20
-137.75
 30
0.0
 11
132.2261184354165
 21
-137.75
 31
0.0
  0
LINE
  5
2A1
  8
MyLines
 10
132.2261184354165
 20
-137.75
 30
0.0
 11
133.14832433483141
 21
-137.75
 31
0.0
  0
LINE
  5
2A2
  8
MyLines
 10
133.14832433483141
 20
-137.75
 30
0.0
 11
134.07053023424635
 21
-137.75
 31
0.0
  0
LINE
  5
2A3
  8
MyLines
 10
134.07053023424635
 20
-137.75
 30
0.0
 11
134.99273613366123
 21
-137.75
 31
0.0
  0
LINE
  5
2A4
  8
MyLines
 10
134.99273613366123
 20
-137.75
 30
0.0
 11
135.91494203307616
 21
-137.75
 31
0.0
  0
LINE
  5
2A5
  8
MyLines
 10
135.91494203307616
 20
-137.75
 30
0.0
 11
136.83714793249104
 21
-137.75
 31
0.0
  0
LINE
  5
2A6
  8
MyLines
 10
136.83714793249104
 20
-137.75
 30
0.0
 11
137.75935383190597
 21
-137.75
 31
0.0
  0
LINE
  5
2A7
  8
MyLines
 10
137.75935383190597
 20
-137.75
 30
0.0
 11
138.68155973132087
 21
-137.75
 31
0.0
  0
LINE
  5
2A8
  8
MyLines
 10
138.68155973132087
 20
-137.75
 30
0.0
 11
139.60376563073578
 21
-137.75
 31
0.0
  0
LINE
  5
2A9
  8
MyLines
 10
139.60376563073578
 20
-137.75
 30
0.0
 11
140.52597153015068
 21
-137.75
 31
0.0
  0
LINE
  5
2AA
  8
MyLines
 10
140.52597153015068
 20
-137.75
 30
0.0
 11
141.44817742956562
 21
-137.75
 31
0.0
  0
LINE
  5
2AB
  8
MyLines
 10
141.44817742956562
 20
-137.75
 30
0.0
 11
142.3703833289805
 21
-137.75
 31
0.0
  0
LINE
  5
2AC
  8
MyLines
 10
142.3703833289805
 20
-137.75
 30
0.0
 11
143.29258922839543
 21
-137.75
 31
0.0
  0
LINE
  5
2AD
  8
MyLines
 10
143.29258922839543
 20
-137.75
 30
0.0
 11
144.2147951278103
 21
-137.75
 31
0.0
  0
LINE
  5
2AE
  8
MyLines
 10
144.2147951278103
 20
-137.75
 30
0.0
 11
145.13700102722524
 21
-137.75
 31
0.0
  0
LINE
  5
2AF
  8
MyLines
 10
145.13700102722524
 20
-137.75
 30
0.0
 11
146.05920692664014
 21
-137.75
 31
0.0
  0
LINE
  5
2B0
  8
MyLines
 10
146.05920692664014
 20
-137.75
 30
0.0
 11
146.98141282605505
 21
-137.75
 31
0.0
  0
LINE
  5
2B1
  8
MyLines
 10
146.98141282605505
 20
-137.75
 30
0.0
 11
147.90361872546995
 21
-137.75
 31
0.0
  0
LINE
  5
2B2
  8
MyLines
 10
147.90361872546995
 20
-137.75
 30
0.0
 11
148.8258246248849
 21
-137.75
 31
0.0
  0
LINE
  5
2B3
  8
MyLines
 10
148.8258246248849
 20
-137.75
 30
0.0
 11
149.74803052429976
 21
-137.75
 31
0.0
  0
LINE
  5
2B4
  8
MyLines
 10
149.74803052429976
 20
-137.75
 30
0.0
 11
150.6702364237147
 21
-137.75
 31
0.0
  0
LINE
  5
2B5
  8
MyLines
 10
150.6702364237147
 20
-137.75
 30
0.0
 11
151.59244232312957
 21
-137.75
 31
0.0
  0
LINE
  5
2B6
  8
MyLines
 10
151.59244232312957
 20
-137.75
 30
0.0
 11
152.5146482225445
 21
-137.75
 31
0.0
  0
LINE
  5
2B7
  8
MyLines
 10
152.5146482225445
 20
-137.75
 30
0.0
 11
153.4368541219594
 21
-137.75
 31
0.0
  0
LINE
  5
2B8
  8
MyLines
 10
153.4368541219594
 20
-137.75
 30
0.0
 11
154.35906002137432
 21
-137.75
 31
0.0
  0
LINE
  5
2B9
  8
MyLines
 10
154.35906002137432
 20
-137.75
 30
0.0
 11
155.28126592078922
 21
-137.75
 31
0.0
  0
LINE
  5
2BA
  8
MyLines
 10
155.28126592078922
 20
-137.75
 30
0.0
 11
156.20347182020416
 21
-137.75
 31
0.0
  0
LINE
  5
2BB
  8
MyLines
 10
156.20347182020416
 20
-137.75
 30
0.0
 11
157.12567771961906
 21
-137.75
 31
0.0
  0
LINE
  5
2BC
  8
MyLines
 10
157.12567771961906
 20
-137.75
 30
0.0
 11
158.04788361903397
 21
-137.75
 31
0.0
  0
LINE
  5
2BD
  8
MyLines
 10
158.04788361903397
 20
-137.75
 30
0.0
 11
158.97008951844884
 21
-137.75
 31
0.0
  0
LINE
  5
2BE
  8
MyLines
 10
158.97008951844884
 20
-137.75
 30
0.0
 11
159.89229541786378
 21
-137.75
 31
0.0
  0
LINE
  5
2BF
  8
MyLines
 10
159.89229541786378
 20
-137.75
 30
0.0
 11
160.8145013172787
 21
-137.75
 31
0.0
  0
LINE
  5
2C0
  8
MyLines
 10
160.8145013172787
 20
-137.75
 30
0.0
 11
161.7367072166936
 21
-137.75
 31
0.0
  0
LINE
  5
2C1
  8
MyLines
 10
161.7367072166936
 20
-137.75
 30
0.0
 11
162.6589131161085
 21
-137.75
 31
0.0
  0
LINE
  5
2C2
  8
MyLines
 10
162.6589131161085
 20
-137.75
 30
0.0
 11
163.5811190155234
 21
-137.75
 31
0.0
  0
LINE
  5
2C3
  8
MyLines
 10
163.5811190155234
 20
-137.75
 30
0.0
 11
164.50332491493833
 21
-137.75
 31
0.0
  0
LINE
  5
2C4
  8
MyLines
 10
164.50332491493833
 20
-137.75
 30
0.0
 11
165.42553081435324
 21
-137.75
 31
0.0
  0
LINE
  5
2C5
  8
MyLines
 10
165.42553081435324
 20
-137.75
 30
0.0
 11
166.34773671376811
 21
-137.75
 31
0.0
  0
LINE
  5
2C6
  8
MyLines
 10
166.34773671376811
 20
-137.75
 30
0.0
 11
167.26994261318305
 21
-137.75
 31
0.0
  0
LINE
  5
2C7
  8
MyLines
 10
167.26994261318305
 20
-137.75
 30
0.0
 11
168.19214851259798
 21
-137.75
 31
0.0
  0
LINE
  5
2C8
  8
MyLines
 10
168.19214851259798
 20
-137.75
 30
0.0
 11
169.11435441201286
 21
-137.75
 31
0.0
  0
LINE
  5
2C9
  8
MyLines
 10
169.11435441201286
 20
-137.75
 30
0.0
 11
169.11435441201286
 21
-137.75
 31
0.0
  0
LINE
  5
2CA
  8
MyLines
 10
169.11435441201286
 20
-137.75
 30
0.0
 11
169.11435441201286
 21
145.6875
 31
0.0
  0
LINE
  5
2CB
  8
MyLines
 10
169.11435441201286
 20
145.6875
 30
0.0
 11
169.11435441201286
 21
145.6875
 31
0.0
  0
LINE
  5
2CC
  8
MyLines
 10
169.11435441201286
 20
145.6875
 30
0.0
 11
168.31859913508228
 21
145.6875
 31
0.0
  0
LINE
  5
2CD
  8
MyLines
 10
168.31859913508228
 20
145.6875
 30
0.0
 11
167.52284385815173
 21
145.6875
 31
0.0
  0
LINE
  5
2CE
  8
MyLines
 10
167.52284385815173
 20
145.6875
 30
0.0
 11
166.72708858122115
 21
145.6875
 31
0.0
  0
LINE
  5
2CF
  8
MyLines
 10
166.72708858122115
 20
145.6875
 30
0.0
 11
165.93133330429058
 21
145.6875
 31
0.0
  0
LINE
  5
2D0
  8
MyLines
 10
165.93133330429058
 20
145.6875
 30
0.0
 11
165.13557802736
 21
145.6875
 31
0.0
  0
LINE
  5
2D1
  8
MyLines
 10
165.13557802736
 20
145.6875
 30
0.0
 11
164.33982275042945
 21
145.6875
 31
0.0
  0
LINE
  5
2D2
  8
MyLines
 10
164.33982275042945
 20
145.6875
 30
0.0
 11
163.54406747349887
 21
145.6875
 31
0.0
  0
LINE
  5
2D3
  8
MyLines
 10
163.54406747349887
 20
145.6875
 30
0.0
 11
162.7483121965683
 21
145.6875
 31
0.0
  0
LINE
  5
2D4
  8
MyLines
 10
162.7483121965683
 20
145.6875
 30
0.0
 11
161.95255691963771
 21
145.6875
 31
0.0
  0
LINE
  5
2D5
  8
MyLines
 10
161.95255691963771
 20
145.6875
 30
0.0
 11
161.15680164270717
 21
145.6875
 31
0.0
  0
LINE
  5
2D6
  8
MyLines
 10
161.15680164270717
 20
145.6875
 30
0.0
 11
160.3610463657766
 21
145.6875
 31
0.0
  0
LINE
  5
2D7
  8
MyLines
 10
160.3610463657766
 20
145.6875
 30
0.0
 11
159.565291088846
 21
145.6875
 31
0.0
  0
LINE
  5
2D8
  8
MyLines
 10
159.565291088846
 20
145.6875
 30
0.0
 11
158.76953581191543
 21
145.6875
 31
0.0
  0
LINE
  5
2D9
  8
MyLines
 10
158.76953581191543
 20
145.6875
 30
0.0
 11
157.97378053498488
 21
145.6875
 31
0.0
  0
LINE
  5
2DA
  8
MyLines
 10
157.97378053498488
 20
145.6875
 30
0.0
 11
157.1780252580543
 21
145.6875
 31
0.0
  0
LINE
  5
2DB
  8
MyLines
 10
157.1780252580543
 20
145.6875
 30
0.0
 11
156.38226998112373
 21
145.6875
 31
0.0
  0
LINE
  5
2DC
  8
MyLines
 10
156.38226998112373
 20
145.6875
 30
0.0
 11
155.58651470419318
 21
145.6875
 31
0.0
  0
LINE
  5
2DD
  8
MyLines
 10
155.58651470419318
 20
145.6875
 30
0.0
 11
154.7907594272626
 21
145.6875
 31
0.0
  0
LINE
  5
2DE
  8
MyLines
 10
154.7907594272626
 20
145.6875
 30
0.0
 11
153.99500415033202
 21
145.6875
 31
0.0
  0
LINE
  5
2DF
  8
MyLines
 10
153.99500415033202
 20
145.6875
 30
0.0
 11
153.19924887340144
 21
145.6875
 31
0.0
  0
LINE
  5
2E0
  8
MyLines
 10
153.19924887340144
 20
145.6875
 30
0.0
 11
152.4034935964709
 21
145.6875
 31
0.0
  0
LINE
  5
2E1
  8
MyLines
 10
152.4034935964709
 20
145.6875
 30
0.0
 11
151.60773831954032
 21
145.6875
 31
0.0
  0
LINE
  5
2E2
  8
MyLines
 10
151.60773831954032
 20
145.6875
 30
0.0
 11
150.81198304260974
 21
145.6875
 31
0.0
  0
LINE
  5
2E3
  8
MyLines
 10
150.81198304260974
 20
145.6875
 30
0.0
 11
150.01622776567916
 21
145.6875
 31
0.0
  0
LINE
  5
2E4
  8
MyLines
 10
150.01622776567916
 20
145.6875
 30
0.0
 11
149.2204724887486
 21
145.6875
 31
0.0
  0
LINE
  5
2E5
  8
MyLines
 10
149.2204724887486
 20
145.6875
 30
0.0
 11
148.42471721181803
 21
145.6875
 31
0.0
  0
LINE
  5
2E6
  8
MyLines
 10
148.42471721181803
 20
145.6875
 30
0.0
 11
147.62896193488746
 21
145.6875
 31
0.0
  0
LINE
  5
2E7
  8
MyLines
 10
147.62896193488746
 20
145.6875
 30
0.0
 11
146.8332066579569
 21
145.6875
 31
0.0
  0
LINE
  5
2E8
  8
MyLines
 10
146.8332066579569
 20
145.6875
 30
0.0
 11
146.03745138102633
 21
145.6875
 31
0.0
  0
LINE
  5
2E9
  8
MyLines
 10
146.03745138102633
 20
145.6875
 30
0.0
 11
145.24169610409575
 21
145.6875
 31
0.0
  0
LINE
  5
2EA
  8
MyLines
 10
145.24169610409575
 20
145.6875
 30
0.0
 11
144.44594082716517
 21
145.6875
 31
0.0
  0
LINE
  5
2EB
  8
MyLines
 10
144.44594082716517
 20
145.6875
 30
0.0
 11
143.6501855502346
 21
145.6875
 31
0.0
  0
LINE
  5
2EC
  8
MyLines
 10
143.6501855502346
 20
145.6875
 30
0.0
 11
142.85443027330405
 21
145.6875
 31
0.0
  0
LINE
  5
2ED
  8
MyLines
 10
142.85443027330405
 20
145.6875
 30
0.0
 11
142.05867499637347
 21
145.6875
 31
0.0
  0
LINE
  5
2EE
  8
MyLines
 10
142.05867499637347
 20
145.6875
 30
0.0
 11
141.2629197194429
 21
145.6875
 31
0.0
  0
LINE
  5
2EF
  8
MyLines
 10
141.2629197194429
 20
145.6875
 30
0.0
 11
140.46716444251234
 21
145.6875
 31
0.0
  0
LINE
  5
2F0
  8
MyLines
 10
140.46716444251234
 20
145.6875
 30
0.0
 11
139.67140916558176
 21
145.6875
 31
0.0
  0
LINE
  5
2F1
  8
MyLines
 10
139.67140916558176
 20
145.6875
 30
0.0
 11
138.8756538886512
 21
145.6875
 31
0.0
  0
LINE
  5
2F2
  8
MyLines
 10
138.8756538886512
 20
145.6875
 30
0.0
 11
138.0798986117206
 21
145.6875
 31
0.0
  0
LINE
  5
2F3
  8
MyLines
 10
138.0798986117206
 20
145.6875
 30
0.0
 11
137.28414333479003
 21
145.6875
 31
0.0
  0
LINE
  5
2F4
  8
MyLines
 10
137.28414333479003
 20
145.6875
 30
0.0
 11
136.48838805785948
 21
145.6875
 31
0.0
  0
LINE
  5
2F5
  8
MyLines
 10
136.48838805785948
 20
145.6875
 30
0.0
 11
135.6926327809289
 21
145.6875
 31
0.0
  0
LINE
  5
2F6
  8
MyLines
 10
135.6926327809289
 20
145.6875
 30
0.0
 11
134.89687750399833
 21
145.6875
 31
0.0
  0
LINE
  5
2F7
  8
MyLines
 10
134.89687750399833
 20
145.6875
 30
0.0
 11
134.10112222706778
 21
145.6875
 31
0.0
  0
LINE
  5
2F8
  8
MyLines
 10
134.10112222706778
 20
145.6875
 30
0.0
 11
133.3053669501372
 21
145.6875
 31
0.0
  0
LINE
  5
2F9
  8
MyLines
 10
133.3053669501372
 20
145.6875
 30
0.0
 11
132.50961167320662
 21
145.6875
 31
0.0
  0
LINE
  5
2FA
  8
MyLines
 10
132.50961167320662
 20
145.6875
 30
0.0
 11
131.71385639627607
 21
145.6875
 31
0.0
  0
LINE
  5
2FB
  8
MyLines
 10
131.71385639627607
 20
145.6875
 30
0.0
 11
130.9181011193455
 21
145.6875
 31
0.0
  0
LINE
  5
2FC
  8
MyLines
 10
130.9181011193455
 20
145.6875
 30
0.0
 11
130.12234584241492
 21
145.6875
 31
0.0
  0
LINE
  5
2FD
  8
MyLines
 10
130.12234584241492
 20
145.6875
 30
0.0
 11
130.12234584241492
 21
-133.78125
 31
0.0
  0
LINE
  5
2FE
  8
MyLines
 10
130.12234584241492
 20
-133.78125
 30
0.0
 11
130.12234584241492
 21
-133.78125
 31
0.0
  0
LINE
  5
2FF
  8
MyLines
 10
130.12234584241492
 20
-133.78125
 30
0.0
 11
130.68394997273248
 21
-133.78125
 31
0.0
  0
LINE
  5
300
  8
MyLines
 10
130.68394997273248
 20
-133.78125
 30
0.0
 11
131.24555410305004
 21
-133.78125
 31
0.0
  0
LINE
  5
301
  8
MyLines
 10
131.24555410305004
 20
-133.78125
 30
0.0
 11
131.8071582333676
 21
-133.78125
 31
0.0
  0
LINE
  5
302
  8
MyLines
 10
131.8071582333676
 20
-133.78125
 30
0.0
 11
132.36876236368514
 21
-133.78125
 31
0.0
  0
LINE
  5
303
  8
MyLines
 10
132.36876236368514
 20
-133.78125
 30
0.0
 11
132.93036649400267
 21
-133.78125
 31
0.0
  0
LINE
  5
304
  8
MyLines
 10
132.93036649400267
 20
-133.78125
 30
0.0
 11
133.49197062432023
 21
-133.78125
 31
0.0
  0
LINE
  5
305
  8
MyLines
 10
133.49197062432023
 20
-133.78125
 30
0.0
 11
134.05357475463776
 21
-133.78125
 31
0.0
  0
LINE
  5
306
  8
MyLines
 10
134.05357475463776
 20
-133.78125
 30
0.0
 11
134.61517888495533
 21
-133.78125
 31
0.0
  0
LINE
  5
307
  8
MyLines
 10
134.61517888495533
 20
-133.78125
 30
0.0
 11
135.1767830152729
 21
-133.78125
 31
0.0
  0
LINE
  5
308
  8
MyLines
 10
135.1767830152729
 20
-133.78125
 30
0.0
 11
135.73838714559045
 21
-133.78125
 31
0.0
  0
LINE
  5
309
  8
MyLines
 10
135.73838714559045
 20
-133.78125
 30
0.0
 11
136.29999127590798
 21
-133.78125
 31
0.0
  0
LINE
  5
30A
  8
MyLines
 10
136.29999127590798
 20
-133.78125
 30
0.0
 11
136.86159540622555
 21
-133.78125
 31
0.0
  0
LINE
  5
30B
  8
MyLines
 10
136.86159540622555
 20
-133.78125
 30
0.0
 11
137.42319953654308
 21
-133.78125
 31
0.0
  0
LINE
  5
30C
  8
MyLines
 10
137.42319953654308
 20
-133.78125
 30
0.0
 11
137.9848036668606
 21
-133.78125
 31
0.0
  0
LINE
  5
30D
  8
MyLines
 10
137.9848036668606
 20
-133.78125
 30
0.0
 11
138.54640779717818
 21
-133.78125
 31
0.0
  0
LINE
  5
30E
  8
MyLines
 10
138.54640779717818
 20
-133.78125
 30
0.0
 11
139.10801192749574
 21
-133.78125
 31
0.0
  0
LINE
  5
30F
  8
MyLines
 10
139.10801192749574
 20
-133.78125
 30
0.0
 11
139.6696160578133
 21
-133.78125
 31
0.0
  0
LINE
  5
310
  8
MyLines
 10
139.6696160578133
 20
-133.78125
 30
0.0
 11
140.23122018813083
 21
-133.78125
 31
0.0
  0
LINE
  5
311
  8
MyLines
 10
140.23122018813083
 20
-133.78125
 30
0.0
 11
140.7928243184484
 21
-133.78125
 31
0.0
  0
LINE
  5
312
  8
MyLines
 10
140.7928243184484
 20
-133.78125
 30
0.0
 11
141.35442844876596
 21
-133.78125
 31
0.0
  0
LINE
  5
313
  8
MyLines
 10
141.35442844876596
 20
-133.78125
 30
0.0
 11
141.91603257908346
 21
-133.78125
 31
0.0
  0
LINE
  5
314
  8
MyLines
 10
141.91603257908346
 20
-133.78125
 30
0.0
 11
142.47763670940103
 21
-133.78125
 31
0.0
  0
LINE
  5
315
  8
MyLines
 10
142.47763670940103
 20
-133.78125
 30
0.0
 11
143.0392408397186
 21
-133.78125
 31
0.0
  0
LINE
  5
316
  8
MyLines
 10
143.0392408397186
 20
-133.78125
 30
0.0
 11
143.60084497003615
 21
-133.78125
 31
0.0
  0
LINE
  5
317
  8
MyLines
 10
143.60084497003615
 20
-133.78125
 30
0.0
 11
144.16244910035368
 21
-133.78125
 31
0.0
  0
LINE
  5
318
  8
MyLines
 10
144.16244910035368
 20
-133.78125
 30
0.0
 11
144.72405323067125
 21
-133.78125
 31
0.0
  0
LINE
  5
319
  8
MyLines
 10
144.72405323067125
 20
-133.78125
 30
0.0
 11
145.2856573609888
 21
-133.78125
 31
0.0
  0
LINE
  5
31A
  8
MyLines
 10
145.2856573609888
 20
-133.78125
 30
0.0
 11
145.84726149130634
 21
-133.78125
 31
0.0
  0
LINE
  5
31B
  8
MyLines
 10
145.84726149130634
 20
-133.78125
 30
0.0
 11
146.4088656216239
 21
-133.78125
 31
0.0
  0
LINE
  5
31C
  8
MyLines
 10
146.4088656216239
 20
-133.78125
 30
0.0
 11
146.97046975194144
 21
-133.78125
 31
0.0
  0
LINE
  5
31D
  8
MyLines
 10
146.97046975194144
 20
-133.78125
 30
0.0
 11
147.532073882259
 21
-133.78125
 31
0.0
  0
LINE
  5
31E
  8
MyLines
 10
147.532073882259
 20
-133.78125
 30
0.0
 11
148.09367801257653
 21
-133.78125
 31
0.0
  0
LINE
  5
31F
  8
MyLines
 10
148.09367801257653
 20
-133.78125
 30
0.0
 11
148.6552821428941
 21
-133.78125
 31
0.0
  0
LINE
  5
320
  8
MyLines
 10
148.6552821428941
 20
-133.78125
 30
0.0
 11
149.21688627321166
 21
-133.78125
 31
0.0
  0
LINE
  5
321
  8
MyLines
 10
149.21688627321166
 20
-133.78125
 30
0.0
 11
149.7784904035292
 21
-133.78125
 31
0.0
  0
LINE
  5
322
  8
MyLines
 10
149.7784904035292
 20
-133.78125
 30
0.0
 11
150.34009453384675
 21
-133.78125
 31
0.0
  0
LINE
  5
323
  8
MyLines
 10
150.34009453384675
 20
-133.78125
 30
0.0
 11
150.9016986641643
 21
-133.78125
 31
0.0
  0
LINE
  5
324
  8
MyLines
 10
150.9016986641643
 20
-133.78125
 30
0.0
 11
151.46330279448185
 21
-133.78125
 31
0.0
  0
LINE
  5
325
  8
MyLines
 10
151.46330279448185
 20
-133.78125
 30
0.0
 11
152.02490692479938
 21
-133.78125
 31
0.0
  0
LINE
  5
326
  8
MyLines
 10
152.02490692479938
 20
-133.78125
 30
0.0
 11
152.58651105511694
 21
-133.78125
 31
0.0
  0
LINE
  5
327
  8
MyLines
 10
152.58651105511694
 20
-133.78125
 30
0.0
 11
153.1481151854345
 21
-133.78125
 31
0.0
  0
LINE
  5
328
  8
MyLines
 10
153.1481151854345
 20
-133.78125
 30
0.0
 11
153.70971931575204
 21
-133.78125
 31
0.0
  0
LINE
  5
329
  8
MyLines
 10
153.70971931575204
 20
-133.78125
 30
0.0
 11
154.2713234460696
 21
-133.78125
 31
0.0
  0
LINE
  5
32A
  8
MyLines
 10
154.2713234460696
 20
-133.78125
 30
0.0
 11
154.83292757638716
 21
-133.78125
 31
0.0
  0
LINE
  5
32B
  8
MyLines
 10
154.83292757638716
 20
-133.78125
 30
0.0
 11
155.39453170670473
 21
-133.78125
 31
0.0
  0
LINE
  5
32C
  8
MyLines
 10
155.39453170670473
 20
-133.78125
 30
0.0
 11
155.95613583702223
 21
-133.78125
 31
0.0
  0
LINE
  5
32D
  8
MyLines
 10
155.95613583702223
 20
-133.78125
 30
0.0
 11
156.5177399673398
 21
-133.78125
 31
0.0
  0
LINE
  5
32E
  8
MyLines
 10
156.5177399673398
 20
-133.78125
 30
0.0
 11
157.07934409765735
 21
-133.78125
 31
0.0
  0
LINE
  5
32F
  8
MyLines
 10
157.07934409765735
 20
-133.78125
 30
0.0
 11
157.6409482279749
 21
-133.78125
 31
0.0
  0
LINE
  5
330
  8
MyLines
 10
157.6409482279749
 20
-133.78125
 30
0.0
 11
157.6409482279749
 21
-133.78125
 31
0.0
  0
LINE
  5
331
  8
MyLines
 10
157.6409482279749
 20
-133.78125
 30
0.0
 11
157.6409482279749
 21
141.71875
 31
0.0
  0
LINE
  5
332
  8
MyLines
 10
157.6409482279749
 20
141.71875
 30
0.0
 11
157.6409482279749
 21
141.71875
 31
0.0
  0
LINE
  5
333
  8
MyLines
 10
157.6409482279749
 20
141.71875
 30
0.0
 11
157.31349524427037
 21
141.71875
 31
0.0
  0
LINE
  5
334
  8
MyLines
 10
157.31349524427037
 20
141.71875
 30
0.0
 11
156.98604226056585
 21
141.71875
 31
0.0
  0
LINE
  5
335
  8
MyLines
 10
156.98604226056585
 20
141.71875
 30
0.0
 11
156.6585892768613
 21
141.71875
 31
0.0
  0
LINE
  5
336
  8
MyLines
 10
156.6585892768613
 20
141.71875
 30
0.0
 11
156.3311362931568
 21
141.71875
 31
0.0
  0
LINE
  5
337
  8
MyLines
 10
156.3311362931568
 20
141.71875
 30
0.0
 11
156.00368330945224
 21
141.71875
 31
0.0
  0
LINE
  5
338
  8
MyLines
 10
156.00368330945224
 20
141.71875
 30
0.0
 11
155.67623032574772
 21
141.71875
 31
0.0
  0
LINE
  5
339
  8
MyLines
 10
155.67623032574772
 20
141.71875
 30
0.0
 11
155.34877734204318
 21
141.71875
 31
0.0
  0
LINE
  5
33A
  8
MyLines
 10
155.34877734204318
 20
141.71875
 30
0.0
 11
155.02132435833866
 21
141.71875
 31
0.0
  0
LINE
  5
33B
  8
MyLines
 10
155.02132435833866
 20
141.71875
 30
0.0
 11
154.69387137463414
 21
141.71875
 31
0.0
  0
LINE
  5
33C
  8
MyLines
 10
154.69387137463414
 20
141.71875
 30
0.0
 11
154.3664183909296
 21
141.71875
 31
0.0
  0
LINE
  5
33D
  8
MyLines
 10
154.3664183909296
 20
141.71875
 30
0.0
 11
154.03896540722508
 21
141.71875
 31
0.0
  0
LINE
  5
33E
  8
MyLines
 10
154.03896540722508
 20
141.71875
 30
0.0
 11
153.71151242352053
 21
141.71875
 31
0.0
  0
LINE
  5
33F
  8
MyLines
 10
153.71151242352053
 20
141.71875
 30
0.0
 11
153.384059439816
 21
141.71875
 31
0.0
  0
LINE
  5
340
  8
MyLines
 10
153.384059439816
 20
141.71875
 30
0.0
 11
153.05660645611147
 21
141.71875
 31
0.0
  0
LINE
  5
341
  8
MyLines
 10
153.05660645611147
 20
141.71875
 30
0.0
 11
152.72915347240695
 21
141.71875
 31
0.0
  0
LINE
  5
342
  8
MyLines
 10
152.72915347240695
 20
141.71875
 30
0.0
 11
152.40170048870243
 21
141.71875
 31
0.0
  0
LINE
  5
343
  8
MyLines
 10
152.40170048870243
 20
141.71875
 30
0.0
 11
152.07424750499789
 21
141.71875
 31
0.0
  0
LINE
  5
344
  8
MyLines
 10
152.07424750499789
 20
141.71875
 30
0.0
 11
151.74679452129337
 21
141.71875
 31
0.0
  0
LINE
  5
345
  8
MyLines
 10
151.74679452129337
 20
141.71875
 30
0.0
 11
151.41934153758882
 21
141.71875
 31
0.0
  0
LINE
  5
346
  8
MyLines
 10
151.41934153758882
 20
141.71875
 30
0.0
 11
151.0918885538843
 21
141.71875
 31
0.0
  0
LINE
  5
347
  8
MyLines
 10
151.0918885538843
 20
141.71875
 30
0.0
 11
150.76443557017976
 21
141.71875
 31
0.0
  0
LINE
  5
348
  8
MyLines
 10
150.76443557017976
 20
141.71875
 30
0.0
 11
150.43698258647524
 21
141.71875
 31
0.0
  0
LINE
  5
349
  8
MyLines
 10
150.43698258647524
 20
141.71875
 30
0.0
 11
150.1095296027707
 21
141.71875
 31
0.0
  0
LINE
  5
34A
  8
MyLines
 10
150.1095296027707
 20
141.71875
 30
0.0
 11
149.78207661906617
 21
141.71875
 31
0.0
  0
LINE
  5
34B
  8
MyLines
 10
149.78207661906617
 20
141.71875
 30
0.0
 11
149.45462363536166
 21
141.71875
 31
0.0
  0
LINE
  5
34C
  8
MyLines
 10
149.45462363536166
 20
141.71875
 30
0.0
 11
149.12717065165708
 21
141.71875
 31
0.0
  0
LINE
  5
34D
  8
MyLines
 10
149.12717065165708
 20
141.71875
 30
0.0
 11
148.7997176679526
 21
141.71875
 31
0.0
  0
LINE
  5
34E
  8
MyLines
 10
148.7997176679526
 20
141.71875
 30
0.0
 11
148.47226468424802
 21
141.71875
 31
0.0
  0
LINE
  5
34F
  8
MyLines
 10
148.47226468424802
 20
141.71875
 30
0.0
 11
148.1448117005435
 21
141.71875
 31
0.0
  0
LINE
  5
350
  8
MyLines
 10
148.1448117005435
 20
141.71875
 30
0.0
 11
147.81735871683895
 21
141.71875
 31
0.0
  0
LINE
  5
351
  8
MyLines
 10
147.81735871683895
 20
141.71875
 30
0.0
 11
147.48990573313444
 21
141.71875
 31
0.0
  0
LINE
  5
352
  8
MyLines
 10
147.48990573313444
 20
141.71875
 30
0.0
 11
147.16245274942992
 21
141.71875
 31
0.0
  0
LINE
  5
353
  8
MyLines
 10
147.16245274942992
 20
141.71875
 30
0.0
 11
146.83499976572537
 21
141.71875
 31
0.0
  0
LINE
  5
354
  8
MyLines
 10
146.83499976572537
 20
141.71875
 30
0.0
 11
146.50754678202085
 21
141.71875
 31
0.0
  0
LINE
  5
355
  8
MyLines
 10
146.50754678202085
 20
141.71875
 30
0.0
 11
146.1800937983163
 21
141.71875
 31
0.0
  0
LINE
  5
356
  8
MyLines
 10
146.1800937983163
 20
141.71875
 30
0.0
 11
145.8526408146118
 21
141.71875
 31
0.0
  0
LINE
  5
357
  8
MyLines
 10
145.8526408146118
 20
141.71875
 30
0.0
 11
145.52518783090724
 21
141.71875
 31
0.0
  0
LINE
  5
358
  8
MyLines
 10
145.52518783090724
 20
141.71875
 30
0.0
 11
145.19773484720272
 21
141.71875
 31
0.0
  0
LINE
  5
359
  8
MyLines
 10
145.19773484720272
 20
141.71875
 30
0.0
 11
144.8702818634982
 21
141.71875
 31
0.0
  0
LINE
  5
35A
  8
MyLines
 10
144.8702818634982
 20
141.71875
 30
0.0
 11
144.54282887979366
 21
141.71875
 31
0.0
  0
LINE
  5
35B
  8
MyLines
 10
144.54282887979366
 20
141.71875
 30
0.0
 11
144.21537589608914
 21
141.71875
 31
0.0
  0
LINE
  5
35C
  8
MyLines
 10
144.21537589608914
 20
141.71875
 30
0.0
 11
143.8879229123846
 21
141.71875
 31
0.0
  0
LINE
  5
35D
  8
MyLines
 10
143.8879229123846
 20
141.71875
 30
0.0
 11
143.56046992868008
 21
141.71875
 31
0.0
  0
LINE
  5
35E
  8
MyLines
 10
143.56046992868008
 20
141.71875
 30
0.0
 11
143.23301694497553
 21
141.71875
 31
0.0
  0
LINE
  5
35F
  8
MyLines
 10
143.23301694497553
 20
141.71875
 30
0.0
 11
142.905563961271
 21
141.71875
 31
0.0
  0
LINE
  5
360
  8
MyLines
 10
142.905563961271
 20
141.71875
 30
0.0
 11
142.5781109775665
 21
141.71875
 31
0.0
  0
LINE
  5
361
  8
MyLines
 10
142.5781109775665
 20
141.71875
 30
0.0
 11
142.25065799386195
 21
141.71875
 31
0.0
  0
LINE
  5
362
  8
MyLines
 10
142.25065799386195
 20
141.71875
 30
0.0
 11
141.92320501015743
 21
141.71875
 31
0.0
  0
LINE
  5
363
  8
MyLines
 10
141.92320501015743
 20
141.71875
 30
0.0
 11
141.59575202645289
 21
141.71875
 31
0.0
  0
LINE
  5
364
  8
MyLines
 10
141.59575202645289
 20
141.71875
 30
0.0
 11
141.59575202645289
 21
-129.8125
 31
0.0
  0
LINE
  5
365
  8
MyLines
 10
141.59575202645289
 20
-129.8125
 30
0.0
 11
141.59575202645289
 21
-129.8125
 31
0.0
  0
LINE
  5
366
  8
MyLines
 10
141.59575202645289
 20
-129.8125
 30
0.0
 11
141.59575202645289
 21
-129.8125
 31
0.0
  0
LINE
  5
367
  8
MyLines
 10
141.59575202645289
 20
-129.8125
 30
0.0
 11
141.59575202645289
 21
-129.8125
 31
0.0
  0
LINE
  5
368
  8
MyLines
 10
141.59575202645289
 20
-129.8125
 30
0.0
 11
141.59575202645289
 21
-129.8125
 31
0.0
  0
LINE
  5
369
  8
MyLines
 10
141.59575202645289
 20
-129.8125
 30
0.0
 11
141.59575202645289
 21
-129.8125
 31
0.0
  0
LINE
  5
36A
  8
MyLines
 10
141.59575202645289
 20
-129.8125
 30
0.0
 11
141.59575202645289
 21
-129.8125
 31
0.0
  0
LINE
  5
36B
  8
MyLines
 10
141.59575202645289
 20
-129.8125
 30
0.0
 11
141.59575202645289
 21
-129.8125
 31
0.0
  0
LINE
  5
36C
  8
MyLines
 10
141.59575202645289
 20
-129.8125
 30
0.0
 11
141.59575202645289
 21
-129.8125
 31
0.0
  0
LINE
  5
36D
  8
MyLines
 10
141.59575202645289
 20
-129.8125
 30
0.0
 11
141.59575202645289
 21
-129.8125
 31
0.0
  0
LINE
  5
36E
  8
MyLines
 10
141.59575202645289
 20
-129.8125
 30
0.0
 11
141.59575202645289
 21
-129.8125
 31
0.0
  0
LINE
  5
36F
  8
MyLines
 10
141.59575202645289
 20
-129.8125
 30
0.0
 11
141.59575202645289
 21
-129.8125
 31
0.0
  0
LINE
  5
370
  8
MyLines
 10
141.59575202645289
 20
-129.8125
 30
0.0
 11
141.59575202645289
 21
-129.8125
 31
0.0
  0
LINE
  5
371
  8
MyLines
 10
141.59575202645289
 20
-129.8125
 30
0.0
 11
141.59575202645289
 21
-129.8125
 31
0.0
  0
LINE
  5
372
  8
MyLines
 10
141.59575202645289
 20
-129.8125
 30
0.0
 11
141.59575202645289
 21
-129.8125
 31
0.0
  0
LINE
  5
373
  8
MyLines
 10
141.59575202645289
 20
-129.8125
 30
0.0
 11
141.59575202645289
 21
-129.8125
 31
0.0
  0
LINE
  5
374
  8
MyLines
 10
141.59575202645289
 20
-129.8125
 30
0.0
 11
141.59575202645289
 21
-129.8125
 31
0.0
  0
LINE
  5
375
  8
MyLines
 10
141.59575202645289
 20
-129.8125
 30
0.0
 11
141.59575202645289
 21
-129.8125
 31
0.0
  0
LINE
  5
376
  8
MyLines
 10
141.59575202645289
 20
-129.8125
 30
0.0
 11
141.59575202645289
 21
-129.8125
 31
0.0
  0
LINE
  5
377
  8
MyLines
 10
141.59575202645289
 20
-129.8125
 30
0.0
 11
141.59575202645289
 21
-129.8125
 31
0.0
  0
LINE
  5
378
  8
MyLines
 10
141.59575202645289
 20
-129.8125
 30
0.0
 11
141.59575202645289
 21
-129.8125
 31
0.0
  0
LINE
  5
379
  8
MyLines
 10
141.59575202645289
 20
-129.8125
 30
0.0
 11
141.59575202645289
 21
-129.8125
 31
0.0
  0
LINE
  5
37A
  8
MyLines
 10
141.59575202645289
 20
-129.8125
 30
0.0
 11
141.59575202645289
 21
-129.8125
 31
0.0
  0
LINE
  5
37B
  8
MyLines
 10
141.59575202645289
 20
-129.8125
 30
0.0
 11
141.59575202645289
 21
-129.8125
 31
0.0
  0
LINE
  5
37C
  8
MyLines
 10
141.59575202645289
 20
-129.8125
 30
0.0
 11
141.59575202645289
 21
-129.8125
 31
0.0
  0
LINE
  5
37D
  8
MyLines
 10
141.59575202645289
 20
-129.8125
 30
0.0
 11
141.59575202645289
 21
-129.8125
 31
0.0
  0
LINE
  5
37E
  8
MyLines
 10
141.59575202645289
 20
-129.8125
 30
0.0
 11
141.59575202645289
 21
-129.8125
 31
0.0
  0
LINE
  5
37F
  8
MyLines
 10
141.59575202645289
 20
-129.8125
 30
0.0
 11
141.59575202645289
 21
-129.8125
 31
0.0
  0
LINE
  5
380
  8
MyLines
 10
141.59575202645289
 20
-129.8125
 30
0.0
 11
141.59575202645289
 21
-129.8125
 31
0.0
  0
LINE
  5
381
  8
MyLines
 10
141.59575202645289
 20
-129.8125
 30
0.0
 11
141.59575202645289
 21
-129.8125
 31
0.0
  0
LINE
  5
382
  8
MyLines
 10
141.59575202645289
 20
-129.8125
 30
0.0
 11
141.59575202645289
 21
-129.8125
 31
0.0
  0
LINE
  5
383
  8
MyLines
 10
141.59575202645289
 20
-129.8125
 30
0.0
 11
141.59575202645289
 21
-129.8125
 31
0.0
  0
LINE
  5
384
  8
MyLines
 10
141.59575202645289
 20
-129.8125
 30
0.0
 11
141.59575202645289
 21
-129.8125
 31
0.0
  0
LINE
  5
385
  8
MyLines
 10
141.59575202645289
 20
-129.8125
 30
0.0
 11
141.59575202645289
 21
-129.8125
 31
0.0
  0
LINE
  5
386
  8
MyLines
 10
141.59575202645289
 20
-129.8125
 30
0.0
 11
141.59575202645289
 21
-129.8125
 31
0.0
  0
LINE
  5
387
  8
MyLines
 10
141.59575202645289
 20
-129.8125
 30
0.0
 11
141.59575202645289
 21
-129.8125
 31
0.0
  0
LINE
  5
388
  8
MyLines
 10
141.59575202645289
 20
-129.8125
 30
0.0
 11
141.59575202645289
 21
-129.8125
 31
0.0
  0
LINE
  5
389
  8
MyLines
 10
141.59575202645289
 20
-129.8125
 30
0.0
 11
141.59575202645289
 21
-129.8125
 31
0.0
  0
LINE
  5
38A
  8
MyLines
 10
141.59575202645289
 20
-129.8125
 30
0.0
 11
141.59575202645289
 21
-129.8125
 31
0.0
  0
LINE
  5
38B
  8
MyLines
 10
141.59575202645289
 20
-129.8125
 30
0.0
 11
141.59575202645289
 21
-129.8125
 31
0.0
  0
LINE
  5
38C
  8
MyLines
 10
141.59575202645289
 20
-129.8125
 30
0.0
 11
141.59575202645289
 21
-129.8125
 31
0.0
  0
LINE
  5
38D
  8
MyLines
 10
141.59575202645289
 20
-129.8125
 30
0.0
 11
141.59575202645289
 21
-129.8125
 31
0.0
  0
LINE
  5
38E
  8
MyLines
 10
141.59575202645289
 20
-129.8125
 30
0.0
 11
141.59575202645289
 21
-129.8125
 31
0.0
  0
LINE
  5
38F
  8
MyLines
 10
141.59575202645289
 20
-129.8125
 30
0.0
 11
141.59575202645289
 21
-129.8125
 31
0.0
  0
LINE
  5
390
  8
MyLines
 10
141.59575202645289
 20
-129.8125
 30
0.0
 11
141.59575202645289
 21
-129.8125
 31
0.0
  0
LINE
  5
391
  8
MyLines
 10
141.59575202645289
 20
-129.8125
 30
0.0
 11
141.59575202645289
 21
-129.8125
 31
0.0
  0
LINE
  5
392
  8
MyLines
 10
141.59575202645289
 20
-129.8125
 30
0.0
 11
141.59575202645289
 21
-129.8125
 31
0.0
  0
LINE
  5
393
  8
MyLines
 10
141.59575202645289
 20
-129.8125
 30
0.0
 11
141.59575202645289
 21
-129.8125
 31
0.0
  0
LINE
  5
394
  8
MyLines
 10
141.59575202645289
 20
-129.8125
 30
0.0
 11
141.59575202645289
 21
-129.8125
 31
0.0
  0
LINE
  5
395
  8
MyLines
 10
141.59575202645289
 20
-129.8125
 30
0.0
 11
141.59575202645289
 21
-129.8125
 31
0.0
  0
LINE
  5
396
  8
MyLines
 10
141.59575202645289
 20
-129.8125
 30
0.0
 11
141.59575202645289
 21
-129.8125
 31
0.0
  0
ENDSEC
  0
EOF
