  0
SECTION
  2
HEADER
  9
$ACADVER
  1
AC1009
  9
$DWGCODEPAGE
  3
ANSI_1252
  9
$INSBASE
 10
0.0
 20
0.0
 30
0.0
  9
$EXTMIN
 10
1e+20
 20
1e+20
 30
1e+20
  9
$EXTMAX
 10
-1e+20
 20
-1e+20
 30
-1e+20
  9
$LIMMIN
 10
0.0
 20
0.0
  9
$LIMMAX
 10
420.0
 20
297.0
  9
$ORTHOMODE
 70
0
  9
$REGENMODE
 70
1
  9
$FILLMODE
 70
1
  9
$DRAGMODE
 70
2
  9
$QTEXTMODE
 70
0
  9
$MIRRTEXT
 70
1
  9
$OSMODE
 70
20583
  9
$LTSCALE
 40
1.0
  9
$ATTMODE
 70
1
  9
$TEXTSIZE
 40
2.5
  9
$TRACEWID
 40
1.0
  9
$TEXTSTYLE
  7
Standard
  9
$CLAYER
  8
0
  9
$CELTYPE
  6
ByLayer
  9
$CECOLOR
 62
256
  9
$DIMSCALE
 40
1.0
  9
$DIMASZ
 40
2.5
  9
$DIMEXO
 40
0.625
  9
$DIMDLI
 40
3.75
  9
$DIMRND
 40
0.0
  9
$DIMDLE
 40
0.0
  9
$DIMEXE
 40
1.25
  9
$DIMTP
 40
0.0
  9
$DIMTM
 40
0.0
  9
$DIMTXT
 40
2.5
  9
$DIMCEN
 40
2.5
  9
$DIMTSZ
 40
0.0
  9
$DIMTOL
 70
0
  9
$DIMLIM
 70
0
  9
$DIMTIH
 70
0
  9
$DIMTOH
 70
0
  9
$DIMSE1
 70
0
  9
$DIMSE2
 70
0
  9
$DIMTAD
 70
1
  9
$DIMZIN
 70
8
  9
$DIMBLK
  1

  9
$DIMASO
 70
1
  9
$DIMSHO
 70
1
  9
$DIMPOST
  1

  9
$DIMAPOST
  1

  9
$DIMALT
 70
0
  9
$DIMALTD
 70
3
  9
$DIMALTF
 40
0.03937007874
  9
$DIMLFAC
 40
1.0
  9
$DIMTOFL
 70
1
  9
$DIMTVP
 40
0.0
  9
$DIMTIX
 70
0
  9
$DIMSOXD
 70
0
  9
$DIMSAH
 70
0
  9
$DIMBLK1
  1

  9
$DIMBLK2
  1

  9
$DIMSTYLE
  2
ISO-25
  9
$DIMCLRD
 70
0
  9
$DIMCLRE
 70
0
  9
$DIMCLRT
 70
0
  9
$DIMTFAC
 40
1.0
  9
$DIMGAP
 40
0.625
  9
$COORDS
 70
1
  9
$ATTDIA
 70
0
  9
$ATTREQ
 70
1
  9
$HANDLING
 70
1
  9
$LUNITS
 70
2
  9
$LUPREC
 70
4
  9
$SKETCHINC
 40
1.0
  9
$FILLETRAD
 40
10.0
  9
$AUNITS
 70
0
  9
$AUPREC
 70
2
  9
$MENU
  1
.
  9
$ELEVATION
 40
0.0
  9
$PELEVATION
 40
0.0
  9
$THICKNESS
 40
0.0
  9
$LIMCHECK
 70
0
  9
$CHAMFERA
 40
0.0
  9
$CHAMFERB
 40
0.0
  9
$SKPOLY
 70
0
  9
$TDCREATE
 40
2459340.736284722
  9
$TDUPDATE
 40
2459340.736284722
  9
$TDINDWG
 40
0.0
  9
$TDUSRTIMER
 40
0.0
  9
$USRTIMER
 70
1
  9
$ANGBASE
 50
0.0
  9
$ANGDIR
 70
0
  9
$PDMODE
 70
0
  9
$PDSIZE
 40
0.0
  9
$PLINEWID
 40
0.0
  9
$SPLFRAME
 70
0
  9
$SPLINETYPE
 70
6
  9
$SPLINESEGS
 70
8
  9
$HANDSEED
  5
398
  9
$SURFTAB1
 70
6
  9
$SURFTAB2
 70
6
  9
$SURFTYPE
 70
6
  9
$SURFU
 70
6
  9
$SURFV
 70
6
  9
$UCSNAME
  2

  9
$UCSORG
 10
0.0
 20
0.0
 30
0.0
  9
$UCSXDIR
 10
1.0
 20
0.0
 30
0.0
  9
$UCSYDIR
 10
0.0
 20
1.0
 30
0.0
  9
$PUCSNAME
  2

  9
$PUCSORG
 10
0.0
 20
0.0
 30
0.0
  9
$PUCSXDIR
 10
1.0
 20
0.0
 30
0.0
  9
$PUCSYDIR
 10
0.0
 20
1.0
 30
0.0
  9
$USERI1
 70
0
  9
$USERI2
 70
0
  9
$USERI3
 70
0
  9
$USERI4
 70
0
  9
$USERI5
 70
0
  9
$USERR1
 40
0.0
  9
$USERR2
 40
0.0
  9
$USERR3
 40
0.0
  9
$USERR4
 40
0.0
  9
$USERR5
 40
0.0
  9
$WORLDVIEW
 70
1
  9
$SHADEDGE
 70
3
  9
$SHADEDIF
 70
70
  9
$TILEMODE
 70
1
  9
$MAXACTVP
 70
64
  9
$PLIMCHECK
 70
0
  9
$PEXTMIN
 10
1e+20
 20
1e+20
 30
1e+20
  9
$PEXTMAX
 10
-1e+20
 20
-1e+20
 30
-1e+20
  9
$PLIMMIN
 10
0.0
 20
0.0
  9
$PLIMMAX
 10
420.0
 20
297.0
  9
$UNITMODE
 70
0
  9
$VISRETAIN
 70
1
  9
$PLINEGEN
 70
0
  9
$PSLTSCALE
 70
1
  0
ENDSEC
  0
SECTION
  2
TABLES
  0
TABLE
  2
VPORT
 70
1
  0
VPORT
  5
23
  2
*Active
 70
0
 10
0.0
 20
0.0
 11
1.0
 21
1.0
 12
344.2
 22
148.5
 13
0.0
 23
0.0
 14
0.5
 24
0.5
 15
0.5
 25
0.5
 16
0.0
 26
0.0
 36
1.0
 17
0.0
 27
0.0
 37
0.0
 40
297.0
 41
1.34
 42
50.0
 43
0.0
 44
0.0
 50
0.0
 51
0.0
 71
0
 72
1000
 73
1
 74
3
 75
0
 76
0
 77
0
 78
0
  0
ENDTAB
  0
TABLE
  2
LTYPE
 70
3
  0
LTYPE
  5
24
  2
ByBlock
 70
0
  3

 72
65
 73
0
 40
0.0
  0
LTYPE
  5
25
  2
ByLayer
 70
0
  3

 72
65
 73
0
 40
0.0
  0
LTYPE
  5
26
  2
Continuous
 70
0
  3

 72
65
 73
0
 40
0.0
  0
ENDTAB
  0
TABLE
  2
LAYER
 70
3
  0
LAYER
  5
27
  2
0
 70
0
 62
7
  6
Continuous
  0
LAYER
  5
28
  2
Defpoints
 70
0
 62
7
  6
Continuous
  0
LAYER
  5
2D
  2
MyLines
 70
0
 62
7
  6
DASHED
  0
ENDTAB
  0
TABLE
  2
STYLE
 70
1
  0
STYLE
  5
29
  2
Standard
 70
0
 40
0.0
 41
1.0
 50
0.0
 71
0
 42
2.5
  3
txt
  4

  0
ENDTAB
  0
TABLE
  2
VIEW
 70
0
  0
ENDTAB
  0
TABLE
  2
UCS
 70
0
  0
ENDTAB
  0
TABLE
  2
APPID
 70
2
  0
APPID
  5
2A
  2
ACAD
 70
0
  0
APPID
  5
397
  2
HATCHBACKGROUNDCOLOR
 70
0
  0
ENDTAB
  0
TABLE
  2
DIMSTYLE
 70
1
  0
DIMSTYLE
105
2B
  2
Standard
 70
0
  3

  4

  5

  6

  7

 40
1.0
 41
2.5
 42
0.625
 43
3.75
 44
1.25
 45
0.0
 46
0.0
 47
0.0
 48
0.0
140
2.5
141
2.5
142
0.0
143
0.03937007874
144
1.0
145
0.0
146
1.0
147
0.625
 71
0
 72
0
 73
0
 74
0
 75
0
 76
0
 77
1
 78
8
170
0
171
3
172
1
173
0
174
0
175
0
176
0
177
0
178
0
  0
ENDTAB
  0
ENDSEC
  0
SECTION
  2
BLOCKS
  0
BLOCK
  5
18
  8
0
  2
$Model_Space
 70
0
 10
0.0
 20
0.0
 30
0.0
  3
$Model_Space
  1

  0
ENDBLK
  5
19
  8
0
  0
BLOCK
  5
1C
  8
0
  2
$Paper_Space
 70
0
 10
0.0
 20
0.0
 30
0.0
  3
$Paper_Space
  1

  0
ENDBLK
  5
1D
  8
0
  0
ENDSEC
  0
SECTION
  2
ENTITIES
  0
LINE
  5
2E
  8
MyLines
 10
141.59575202645289
 20
-165.53125
 30
0.0
 11
142.81789408352006
 21
-165.53125
 31
0.0
  0
LINE
  5
2F
  8
MyLines
 10
142.81789408352006
 20
-165.53125
 30
0.0
 11
144.04003614058726
 21
-165.53125
 31
0.0
  0
LINE
  5
30
  8
MyLines
 10
144.04003614058726
 20
-165.53125
 30
0.0
 11
145.26217819765444
 21
-165.53125
 31
0.0
  0
LINE
  5
31
  8
MyLines
 10
145.26217819765444
 20
-165.53125
 30
0.0
 11
146.48432025472164
 21
-165.53125
 31
0.0
  0
LINE
  5
32
  8
MyLines
 10
146.48432025472164
 20
-165.53125
 30
0.0
 11
147.7064623117888
 21
-165.53125
 31
0.0
  0
LINE
  5
33
  8
MyLines
 10
147.7064623117888
 20
-165.53125
 30
0.0
 11
148.92860436885599
 21
-165.53125
 31
0.0
  0
LINE
  5
34
  8
MyLines
 10
148.92860436885599
 20
-165.53125
 30
0.0
 11
150.15074642592316
 21
-165.53125
 31
0.0
  0
LINE
  5
35
  8
MyLines
 10
150.15074642592316
 20
-165.53125
 30
0.0
 11
151.37288848299036
 21
-165.53125
 31
0.0
  0
LINE
  5
36
  8
MyLines
 10
151.37288848299036
 20
-165.53125
 30
0.0
 11
152.59503054005754
 21
-165.53125
 31
0.0
  0
LINE
  5
37
  8
MyLines
 10
152.59503054005754
 20
-165.53125
 30
0.0
 11
153.81717259712474
 21
-165.53125
 31
0.0
  0
LINE
  5
38
  8
MyLines
 10
153.81717259712474
 20
-165.53125
 30
0.0
 11
155.0393146541919
 21
-165.53125
 31
0.0
  0
LINE
  5
39
  8
MyLines
 10
155.0393146541919
 20
-165.53125
 30
0.0
 11
156.26145671125911
 21
-165.53125
 31
0.0
  0
LINE
  5
3A
  8
MyLines
 10
156.26145671125911
 20
-165.53125
 30
0.0
 11
157.48359876832626
 21
-165.53125
 31
0.0
  0
LINE
  5
3B
  8
MyLines
 10
157.48359876832626
 20
-165.53125
 30
0.0
 11
158.70574082539346
 21
-165.53125
 31
0.0
  0
LINE
  5
3C
  8
MyLines
 10
158.70574082539346
 20
-165.53125
 30
0.0
 11
159.92788288246064
 21
-165.53125
 31
0.0
  0
LINE
  5
3D
  8
MyLines
 10
159.92788288246064
 20
-165.53125
 30
0.0
 11
161.15002493952784
 21
-165.53125
 31
0.0
  0
LINE
  5
3E
  8
MyLines
 10
161.15002493952784
 20
-165.53125
 30
0.0
 11
162.372166996595
 21
-165.53125
 31
0.0
  0
LINE
  5
3F
  8
MyLines
 10
162.372166996595
 20
-165.53125
 30
0.0
 11
163.59430905366222
 21
-165.53125
 31
0.0
  0
LINE
  5
40
  8
MyLines
 10
163.59430905366222
 20
-165.53125
 30
0.0
 11
164.81645111072936
 21
-165.53125
 31
0.0
  0
LINE
  5
41
  8
MyLines
 10
164.81645111072936
 20
-165.53125
 30
0.0
 11
166.03859316779656
 21
-165.53125
 31
0.0
  0
LINE
  5
42
  8
MyLines
 10
166.03859316779656
 20
-165.53125
 30
0.0
 11
167.26073522486374
 21
-165.53125
 31
0.0
  0
LINE
  5
43
  8
MyLines
 10
167.26073522486374
 20
-165.53125
 30
0.0
 11
168.48287728193094
 21
-165.53125
 31
0.0
  0
LINE
  5
44
  8
MyLines
 10
168.48287728193094
 20
-165.53125
 30
0.0
 11
169.7050193389981
 21
-165.53125
 31
0.0
  0
LINE
  5
45
  8
MyLines
 10
169.7050193389981
 20
-165.53125
 30
0.0
 11
170.92716139606532
 21
-165.53125
 31
0.0
  0
LINE
  5
46
  8
MyLines
 10
170.92716139606532
 20
-165.53125
 30
0.0
 11
172.1493034531325
 21
-165.53125
 31
0.0
  0
LINE
  5
47
  8
MyLines
 10
172.1493034531325
 20
-165.53125
 30
0.0
 11
173.37144551019966
 21
-165.53125
 31
0.0
  0
LINE
  5
48
  8
MyLines
 10
173.37144551019966
 20
-165.53125
 30
0.0
 11
174.59358756726684
 21
-165.53125
 31
0.0
  0
LINE
  5
49
  8
MyLines
 10
174.59358756726684
 20
-165.53125
 30
0.0
 11
175.81572962433404
 21
-165.53125
 31
0.0
  0
LINE
  5
4A
  8
MyLines
 10
175.81572962433404
 20
-165.53125
 30
0.0
 11
177.0378716814012
 21
-165.53125
 31
0.0
  0
LINE
  5
4B
  8
MyLines
 10
177.0378716814012
 20
-165.53125
 30
0.0
 11
178.26001373846842
 21
-165.53125
 31
0.0
  0
LINE
  5
4C
  8
MyLines
 10
178.26001373846842
 20
-165.53125
 30
0.0
 11
179.4821557955356
 21
-165.53125
 31
0.0
  0
LINE
  5
4D
  8
MyLines
 10
179.4821557955356
 20
-165.53125
 30
0.0
 11
180.70429785260276
 21
-165.53125
 31
0.0
  0
LINE
  5
4E
  8
MyLines
 10
180.70429785260276
 20
-165.53125
 30
0.0
 11
181.92643990966994
 21
-165.53125
 31
0.0
  0
LINE
  5
4F
  8
MyLines
 10
181.92643990966994
 20
-165.53125
 30
0.0
 11
183.14858196673714
 21
-165.53125
 31
0.0
  0
LINE
  5
50
  8
MyLines
 10
183.14858196673714
 20
-165.53125
 30
0.0
 11
184.3707240238043
 21
-165.53125
 31
0.0
  0
LINE
  5
51
  8
MyLines
 10
184.3707240238043
 20
-165.53125
 30
0.0
 11
185.59286608087152
 21
-165.53125
 31
0.0
  0
LINE
  5
52
  8
MyLines
 10
185.59286608087152
 20
-165.53125
 30
0.0
 11
186.8150081379387
 21
-165.53125
 31
0.0
  0
LINE
  5
53
  8
MyLines
 10
186.8150081379387
 20
-165.53125
 30
0.0
 11
188.0371501950059
 21
-165.53125
 31
0.0
  0
LINE
  5
54
  8
MyLines
 10
188.0371501950059
 20
-165.53125
 30
0.0
 11
189.25929225207304
 21
-165.53125
 31
0.0
  0
LINE
  5
55
  8
MyLines
 10
189.25929225207304
 20
-165.53125
 30
0.0
 11
190.48143430914024
 21
-165.53125
 31
0.0
  0
LINE
  5
56
  8
MyLines
 10
190.48143430914024
 20
-165.53125
 30
0.0
 11
191.70357636620741
 21
-165.53125
 31
0.0
  0
LINE
  5
57
  8
MyLines
 10
191.70357636620741
 20
-165.53125
 30
0.0
 11
192.92571842327462
 21
-165.53125
 31
0.0
  0
LINE
  5
58
  8
MyLines
 10
192.92571842327462
 20
-165.53125
 30
0.0
 11
194.1478604803418
 21
-165.53125
 31
0.0
  0
LINE
  5
59
  8
MyLines
 10
194.1478604803418
 20
-165.53125
 30
0.0
 11
195.370002537409
 21
-165.53125
 31
0.0
  0
LINE
  5
5A
  8
MyLines
 10
195.370002537409
 20
-165.53125
 30
0.0
 11
196.59214459447614
 21
-165.53125
 31
0.0
  0
LINE
  5
5B
  8
MyLines
 10
196.59214459447614
 20
-165.53125
 30
0.0
 11
197.81428665154334
 21
-165.53125
 31
0.0
  0
LINE
  5
5C
  8
MyLines
 10
197.81428665154334
 20
-165.53125
 30
0.0
 11
199.03642870861052
 21
-165.53125
 31
0.0
  0
LINE
  5
5D
  8
MyLines
 10
199.03642870861052
 20
-165.53125
 30
0.0
 11
200.2585707656777
 21
-165.53125
 31
0.0
  0
LINE
  5
5E
  8
MyLines
 10
200.2585707656777
 20
-165.53125
 30
0.0
 11
201.4807128227449
 21
-165.53125
 31
0.0
  0
LINE
  5
5F
  8
MyLines
 10
201.4807128227449
 20
-165.53125
 30
0.0
 11
201.4807128227449
 21
-161.5625
 31
0.0
  0
LINE
  5
60
  8
MyLines
 10
201.4807128227449
 20
-161.5625
 30
0.0
 11
201.4807128227449
 21
169.5
 31
0.0
  0
LINE
  5
61
  8
MyLines
 10
201.4807128227449
 20
169.5
 30
0.0
 11
201.4807128227449
 21
169.5
 31
0.0
  0
LINE
  5
62
  8
MyLines
 10
201.4807128227449
 20
169.5
 30
0.0
 11
203.43512931482428
 21
169.5
 31
0.0
  0
LINE
  5
63
  8
MyLines
 10
203.43512931482428
 20
169.5
 30
0.0
 11
205.38954580690364
 21
169.5
 31
0.0
  0
LINE
  5
64
  8
MyLines
 10
205.38954580690364
 20
169.5
 30
0.0
 11
207.34396229898306
 21
169.5
 31
0.0
  0
LINE
  5
65
  8
MyLines
 10
207.34396229898306
 20
169.5
 30
0.0
 11
209.29837879106242
 21
169.5
 31
0.0
  0
LINE
  5
66
  8
MyLines
 10
209.29837879106242
 20
169.5
 30
0.0
 11
211.2527952831418
 21
169.5
 31
0.0
  0
LINE
  5
67
  8
MyLines
 10
211.2527952831418
 20
169.5
 30
0.0
 11
213.2072117752212
 21
169.5
 31
0.0
  0
LINE
  5
68
  8
MyLines
 10
213.2072117752212
 20
169.5
 30
0.0
 11
215.16162826730059
 21
169.5
 31
0.0
  0
LINE
  5
69
  8
MyLines
 10
215.16162826730059
 20
169.5
 30
0.0
 11
217.11604475937997
 21
169.5
 31
0.0
  0
LINE
  5
6A
  8
MyLines
 10
217.11604475937997
 20
169.5
 30
0.0
 11
219.07046125145936
 21
169.5
 31
0.0
  0
LINE
  5
6B
  8
MyLines
 10
219.07046125145936
 20
169.5
 30
0.0
 11
221.02487774353872
 21
169.5
 31
0.0
  0
LINE
  5
6C
  8
MyLines
 10
221.02487774353872
 20
169.5
 30
0.0
 11
222.97929423561814
 21
169.5
 31
0.0
  0
LINE
  5
6D
  8
MyLines
 10
222.97929423561814
 20
169.5
 30
0.0
 11
224.9337107276975
 21
169.5
 31
0.0
  0
LINE
  5
6E
  8
MyLines
 10
224.9337107276975
 20
169.5
 30
0.0
 11
226.8881272197769
 21
169.5
 31
0.0
  0
LINE
  5
6F
  8
MyLines
 10
226.8881272197769
 20
169.5
 30
0.0
 11
228.84254371185628
 21
169.5
 31
0.0
  0
LINE
  5
70
  8
MyLines
 10
228.84254371185628
 20
169.5
 30
0.0
 11
230.79696020393567
 21
169.5
 31
0.0
  0
LINE
  5
71
  8
MyLines
 10
230.79696020393567
 20
169.5
 30
0.0
 11
232.75137669601506
 21
169.5
 31
0.0
  0
LINE
  5
72
  8
MyLines
 10
232.75137669601506
 20
169.5
 30
0.0
 11
234.70579318809442
 21
169.5
 31
0.0
  0
LINE
  5
73
  8
MyLines
 10
234.70579318809442
 20
169.5
 30
0.0
 11
236.66020968017384
 21
169.5
 31
0.0
  0
LINE
  5
74
  8
MyLines
 10
236.66020968017384
 20
169.5
 30
0.0
 11
238.61462617225322
 21
169.5
 31
0.0
  0
LINE
  5
75
  8
MyLines
 10
238.61462617225322
 20
169.5
 30
0.0
 11
240.56904266433258
 21
169.5
 31
0.0
  0
LINE
  5
76
  8
MyLines
 10
240.56904266433258
 20
169.5
 30
0.0
 11
242.52345915641197
 21
169.5
 31
0.0
  0
LINE
  5
77
  8
MyLines
 10
242.52345915641197
 20
169.5
 30
0.0
 11
244.4778756484914
 21
169.5
 31
0.0
  0
LINE
  5
78
  8
MyLines
 10
244.4778756484914
 20
169.5
 30
0.0
 11
246.43229214057075
 21
169.5
 31
0.0
  0
LINE
  5
79
  8
MyLines
 10
246.43229214057075
 20
169.5
 30
0.0
 11
248.3867086326501
 21
169.5
 31
0.0
  0
LINE
  5
7A
  8
MyLines
 10
248.3867086326501
 20
169.5
 30
0.0
 11
250.3411251247295
 21
169.5
 31
0.0
  0
LINE
  5
7B
  8
MyLines
 10
250.3411251247295
 20
169.5
 30
0.0
 11
252.29554161680892
 21
169.5
 31
0.0
  0
LINE
  5
7C
  8
MyLines
 10
252.29554161680892
 20
169.5
 30
0.0
 11
254.24995810888828
 21
169.5
 31
0.0
  0
LINE
  5
7D
  8
MyLines
 10
254.24995810888828
 20
169.5
 30
0.0
 11
256.20437460096764
 21
169.5
 31
0.0
  0
LINE
  5
7E
  8
MyLines
 10
256.20437460096764
 20
169.5
 30
0.0
 11
258.15879109304706
 21
169.5
 31
0.0
  0
LINE
  5
7F
  8
MyLines
 10
258.15879109304706
 20
169.5
 30
0.0
 11
260.1132075851264
 21
169.5
 31
0.0
  0
LINE
  5
80
  8
MyLines
 10
260.1132075851264
 20
169.5
 30
0.0
 11
262.0676240772058
 21
169.5
 31
0.0
  0
LINE
  5
81
  8
MyLines
 10
262.0676240772058
 20
169.5
 30
0.0
 11
264.02204056928525
 21
169.5
 31
0.0
  0
LINE
  5
82
  8
MyLines
 10
264.02204056928525
 20
169.5
 30
0.0
 11
265.9764570613646
 21
169.5
 31
0.0
  0
LINE
  5
83
  8
MyLines
 10
265.9764570613646
 20
169.5
 30
0.0
 11
267.930873553444
 21
169.5
 31
0.0
  0
LINE
  5
84
  8
MyLines
 10
267.930873553444
 20
169.5
 30
0.0
 11
269.8852900455234
 21
169.5
 31
0.0
  0
LINE
  5
85
  8
MyLines
 10
269.8852900455234
 20
169.5
 30
0.0
 11
271.83970653760275
 21
169.5
 31
0.0
  0
LINE
  5
86
  8
MyLines
 10
271.83970653760275
 20
169.5
 30
0.0
 11
273.7941230296821
 21
169.5
 31
0.0
  0
LINE
  5
87
  8
MyLines
 10
273.7941230296821
 20
169.5
 30
0.0
 11
275.74853952176153
 21
169.5
 31
0.0
  0
LINE
  5
88
  8
MyLines
 10
275.74853952176153
 20
169.5
 30
0.0
 11
277.70295601384095
 21
169.5
 31
0.0
  0
LINE
  5
89
  8
MyLines
 10
277.70295601384095
 20
169.5
 30
0.0
 11
279.6573725059203
 21
169.5
 31
0.0
  0
LINE
  5
8A
  8
MyLines
 10
279.6573725059203
 20
169.5
 30
0.0
 11
281.6117889979997
 21
169.5
 31
0.0
  0
LINE
  5
8B
  8
MyLines
 10
281.6117889979997
 20
169.5
 30
0.0
 11
283.5662054900791
 21
169.5
 31
0.0
  0
LINE
  5
8C
  8
MyLines
 10
283.5662054900791
 20
169.5
 30
0.0
 11
285.52062198215845
 21
169.5
 31
0.0
  0
LINE
  5
8D
  8
MyLines
 10
285.52062198215845
 20
169.5
 30
0.0
 11
287.47503847423786
 21
169.5
 31
0.0
  0
LINE
  5
8E
  8
MyLines
 10
287.47503847423786
 20
169.5
 30
0.0
 11
289.4294549663172
 21
169.5
 31
0.0
  0
LINE
  5
8F
  8
MyLines
 10
289.4294549663172
 20
169.5
 30
0.0
 11
291.3838714583966
 21
169.5
 31
0.0
  0
LINE
  5
90
  8
MyLines
 10
291.3838714583966
 20
169.5
 30
0.0
 11
293.338287950476
 21
169.5
 31
0.0
  0
LINE
  5
91
  8
MyLines
 10
293.338287950476
 20
169.5
 30
0.0
 11
295.29270444255536
 21
169.5
 31
0.0
  0
LINE
  5
92
  8
MyLines
 10
295.29270444255536
 20
169.5
 30
0.0
 11
297.2471209346348
 21
169.5
 31
0.0
  0
LINE
  5
93
  8
MyLines
 10
297.2471209346348
 20
169.5
 30
0.0
 11
297.2471209346348
 21
-157.59375
 31
0.0
  0
LINE
  5
94
  8
MyLines
 10
297.2471209346348
 20
-157.59375
 30
0.0
 11
297.2471209346348
 21
-157.59375
 31
0.0
  0
LINE
  5
95
  8
MyLines
 10
297.2471209346348
 20
-157.59375
 30
0.0
 11
295.37456768848153
 21
-157.59375
 31
0.0
  0
LINE
  5
96
  8
MyLines
 10
295.37456768848153
 20
-157.59375
 30
0.0
 11
293.5020144423283
 21
-157.59375
 31
0.0
  0
LINE
  5
97
  8
MyLines
 10
293.5020144423283
 20
-157.59375
 30
0.0
 11
291.629461196175
 21
-157.59375
 31
0.0
  0
LINE
  5
98
  8
MyLines
 10
291.629461196175
 20
-157.59375
 30
0.0
 11
289.75690795002174
 21
-157.59375
 31
0.0
  0
LINE
  5
99
  8
MyLines
 10
289.75690795002174
 20
-157.59375
 30
0.0
 11
287.8843547038685
 21
-157.59375
 31
0.0
  0
LINE
  5
9A
  8
MyLines
 10
287.8843547038685
 20
-157.59375
 30
0.0
 11
286.01180145771525
 21
-157.59375
 31
0.0
  0
LINE
  5
9B
  8
MyLines
 10
286.01180145771525
 20
-157.59375
 30
0.0
 11
284.139248211562
 21
-157.59375
 31
0.0
  0
LINE
  5
9C
  8
MyLines
 10
284.139248211562
 20
-157.59375
 30
0.0
 11
282.26669496540876
 21
-157.59375
 31
0.0
  0
LINE
  5
9D
  8
MyLines
 10
282.26669496540876
 20
-157.59375
 30
0.0
 11
280.39414171925546
 21
-157.59375
 31
0.0
  0
LINE
  5
9E
  8
MyLines
 10
280.39414171925546
 20
-157.59375
 30
0.0
 11
278.5215884731022
 21
-157.59375
 31
0.0
  0
LINE
  5
9F
  8
MyLines
 10
278.5215884731022
 20
-157.59375
 30
0.0
 11
276.64903522694897
 21
-157.59375
 31
0.0
  0
LINE
  5
A0
  8
MyLines
 10
276.64903522694897
 20
-157.59375
 30
0.0
 11
274.7764819807957
 21
-157.59375
 31
0.0
  0
LINE
  5
A1
  8
MyLines
 10
274.7764819807957
 20
-157.59375
 30
0.0
 11
272.9039287346425
 21
-157.59375
 31
0.0
  0
LINE
  5
A2
  8
MyLines
 10
272.9039287346425
 20
-157.59375
 30
0.0
 11
271.0313754884893
 21
-157.59375
 31
0.0
  0
LINE
  5
A3
  8
MyLines
 10
271.0313754884893
 20
-157.59375
 30
0.0
 11
269.158822242336
 21
-157.59375
 31
0.0
  0
LINE
  5
A4
  8
MyLines
 10
269.158822242336
 20
-157.59375
 30
0.0
 11
267.28626899618274
 21
-157.59375
 31
0.0
  0
LINE
  5
A5
  8
MyLines
 10
267.28626899618274
 20
-157.59375
 30
0.0
 11
265.4137157500295
 21
-157.59375
 31
0.0
  0
LINE
  5
A6
  8
MyLines
 10
265.4137157500295
 20
-157.59375
 30
0.0
 11
263.54116250387625
 21
-157.59375
 31
0.0
  0
LINE
  5
A7
  8
MyLines
 10
263.54116250387625
 20
-157.59375
 30
0.0
 11
261.668609257723
 21
-157.59375
 31
0.0
  0
LINE
  5
A8
  8
MyLines
 10
261.668609257723
 20
-157.59375
 30
0.0
 11
259.7960560115697
 21
-157.59375
 31
0.0
  0
LINE
  5
A9
  8
MyLines
 10
259.7960560115697
 20
-157.59375
 30
0.0
 11
257.92350276541646
 21
-157.59375
 31
0.0
  0
LINE
  5
AA
  8
MyLines
 10
257.92350276541646
 20
-157.59375
 30
0.0
 11
256.0509495192632
 21
-157.59375
 31
0.0
  0
LINE
  5
AB
  8
MyLines
 10
256.0509495192632
 20
-157.59375
 30
0.0
 11
254.17839627310997
 21
-157.59375
 31
0.0
  0
LINE
  5
AC
  8
MyLines
 10
254.17839627310997
 20
-157.59375
 30
0.0
 11
252.30584302695672
 21
-157.59375
 31
0.0
  0
LINE
  5
AD
  8
MyLines
 10
252.30584302695672
 20
-157.59375
 30
0.0
 11
250.43328978080348
 21
-157.59375
 31
0.0
  0
LINE
  5
AE
  8
MyLines
 10
250.43328978080348
 20
-157.59375
 30
0.0
 11
248.5607365346502
 21
-157.59375
 31
0.0
  0
LINE
  5
AF
  8
MyLines
 10
248.5607365346502
 20
-157.59375
 30
0.0
 11
246.68818328849696
 21
-157.59375
 31
0.0
  0
LINE
  5
B0
  8
MyLines
 10
246.68818328849696
 20
-157.59375
 30
0.0
 11
244.81563004234368
 21
-157.59375
 31
0.0
  0
LINE
  5
B1
  8
MyLines
 10
244.81563004234368
 20
-157.59375
 30
0.0
 11
242.94307679619044
 21
-157.59375
 31
0.0
  0
LINE
  5
B2
  8
MyLines
 10
242.94307679619044
 20
-157.59375
 30
0.0
 11
241.07052355003722
 21
-157.59375
 31
0.0
  0
LINE
  5
B3
  8
MyLines
 10
241.07052355003722
 20
-157.59375
 30
0.0
 11
239.19797030388395
 21
-157.59375
 31
0.0
  0
LINE
  5
B4
  8
MyLines
 10
239.19797030388395
 20
-157.59375
 30
0.0
 11
237.3254170577307
 21
-157.59375
 31
0.0
  0
LINE
  5
B5
  8
MyLines
 10
237.3254170577307
 20
-157.59375
 30
0.0
 11
235.45286381157746
 21
-157.59375
 31
0.0
  0
LINE
  5
B6
  8
MyLines
 10
235.45286381157746
 20
-157.59375
 30
0.0
 11
233.58031056542418
 21
-157.59375
 31
0.0
  0
LINE
  5
B7
  8
MyLines
 10
233.58031056542418
 20
-157.59375
 30
0.0
 11
231.70775731927094
 21
-157.59375
 31
0.0
  0
LINE
  5
B8
  8
MyLines
 10
231.70775731927094
 20
-157.59375
 30
0.0
 11
229.8352040731177
 21
-157.59375
 31
0.0
  0
LINE
  5
B9
  8
MyLines
 10
229.8352040731177
 20
-157.59375
 30
0.0
 11
227.96265082696445
 21
-157.59375
 31
0.0
  0
LINE
  5
BA
  8
MyLines
 10
227.96265082696445
 20
-157.59375
 30
0.0
 11
226.09009758081118
 21
-157.59375
 31
0.0
  0
LINE
  5
BB
  8
MyLines
 10
226.09009758081118
 20
-157.59375
 30
0.0
 11
224.2175443346579
 21
-157.59375
 31
0.0
  0
LINE
  5
BC
  8
MyLines
 10
224.2175443346579
 20
-157.59375
 30
0.0
 11
222.34499108850468
 21
-157.59375
 31
0.0
  0
LINE
  5
BD
  8
MyLines
 10
222.34499108850468
 20
-157.59375
 30
0.0
 11
220.47243784235144
 21
-157.59375
 31
0.0
  0
LINE
  5
BE
  8
MyLines
 10
220.47243784235144
 20
-157.59375
 30
0.0
 11
218.5998845961982
 21
-157.59375
 31
0.0
  0
LINE
  5
BF
  8
MyLines
 10
218.5998845961982
 20
-157.59375
 30
0.0
 11
216.72733135004492
 21
-157.59375
 31
0.0
  0
LINE
  5
C0
  8
MyLines
 10
216.72733135004492
 20
-157.59375
 30
0.0
 11
214.85477810389168
 21
-157.59375
 31
0.0
  0
LINE
  5
C1
  8
MyLines
 10
214.85477810389168
 20
-157.59375
 30
0.0
 11
212.9822248577384
 21
-157.59375
 31
0.0
  0
LINE
  5
C2
  8
MyLines
 10
212.9822248577384
 20
-157.59375
 30
0.0
 11
211.10967161158516
 21
-157.59375
 31
0.0
  0
LINE
  5
C3
  8
MyLines
 10
211.10967161158516
 20
-157.59375
 30
0.0
 11
209.2371183654319
 21
-157.59375
 31
0.0
  0
LINE
  5
C4
  8
MyLines
 10
209.2371183654319
 20
-157.59375
 30
0.0
 11
207.36456511927867
 21
-157.59375
 31
0.0
  0
LINE
  5
C5
  8
MyLines
 10
207.36456511927867
 20
-157.59375
 30
0.0
 11
205.4920118731254
 21
-157.59375
 31
0.0
  0
LINE
  5
C6
  8
MyLines
 10
205.4920118731254
 20
-157.59375
 30
0.0
 11
205.4920118731254
 21
-157.59375
 31
0.0
  0
LINE
  5
C7
  8
MyLines
 10
205.4920118731254
 20
-157.59375
 30
0.0
 11
205.4920118731254
 21
165.53125
 31
0.0
  0
LINE
  5
C8
  8
MyLines
 10
205.4920118731254
 20
165.53125
 30
0.0
 11
205.4920118731254
 21
165.53125
 31
0.0
  0
LINE
  5
C9
  8
MyLines
 10
205.4920118731254
 20
165.53125
 30
0.0
 11
207.28270187335252
 21
165.53125
 31
0.0
  0
LINE
  5
CA
  8
MyLines
 10
207.28270187335252
 20
165.53125
 30
0.0
 11
209.07339187357962
 21
165.53125
 31
0.0
  0
LINE
  5
CB
  8
MyLines
 10
209.07339187357962
 20
165.53125
 30
0.0
 11
210.86408187380675
 21
165.53125
 31
0.0
  0
LINE
  5
CC
  8
MyLines
 10
210.86408187380675
 20
165.53125
 30
0.0
 11
212.65477187403388
 21
165.53125
 31
0.0
  0
LINE
  5
CD
  8
MyLines
 10
212.65477187403388
 20
165.53125
 30
0.0
 11
214.44546187426099
 21
165.53125
 31
0.0
  0
LINE
  5
CE
  8
MyLines
 10
214.44546187426099
 20
165.53125
 30
0.0
 11
216.23615187448812
 21
165.53125
 31
0.0
  0
LINE
  5
CF
  8
MyLines
 10
216.23615187448812
 20
165.53125
 30
0.0
 11
218.02684187471522
 21
165.53125
 31
0.0
  0
LINE
  5
D0
  8
MyLines
 10
218.02684187471522
 20
165.53125
 30
0.0
 11
219.81753187494238
 21
165.53125
 31
0.0
  0
LINE
  5
D1
  8
MyLines
 10
219.81753187494238
 20
165.53125
 30
0.0
 11
221.60822187516948
 21
165.53125
 31
0.0
  0
LINE
  5
D2
  8
MyLines
 10
221.60822187516948
 20
165.53125
 30
0.0
 11
223.3989118753966
 21
165.53125
 31
0.0
  0
LINE
  5
D3
  8
MyLines
 10
223.3989118753966
 20
165.53125
 30
0.0
 11
225.1896018756237
 21
165.53125
 31
0.0
  0
LINE
  5
D4
  8
MyLines
 10
225.1896018756237
 20
165.53125
 30
0.0
 11
226.98029187585084
 21
165.53125
 31
0.0
  0
LINE
  5
D5
  8
MyLines
 10
226.98029187585084
 20
165.53125
 30
0.0
 11
228.77098187607794
 21
165.53125
 31
0.0
  0
LINE
  5
D6
  8
MyLines
 10
228.77098187607794
 20
165.53125
 30
0.0
 11
230.56167187630507
 21
165.53125
 31
0.0
  0
LINE
  5
D7
  8
MyLines
 10
230.56167187630507
 20
165.53125
 30
0.0
 11
232.3523618765322
 21
165.53125
 31
0.0
  0
LINE
  5
D8
  8
MyLines
 10
232.3523618765322
 20
165.53125
 30
0.0
 11
234.1430518767593
 21
165.53125
 31
0.0
  0
LINE
  5
D9
  8
MyLines
 10
234.1430518767593
 20
165.53125
 30
0.0
 11
235.93374187698643
 21
165.53125
 31
0.0
  0
LINE
  5
DA
  8
MyLines
 10
235.93374187698643
 20
165.53125
 30
0.0
 11
237.72443187721353
 21
165.53125
 31
0.0
  0
LINE
  5
DB
  8
MyLines
 10
237.72443187721353
 20
165.53125
 30
0.0
 11
239.51512187744066
 21
165.53125
 31
0.0
  0
LINE
  5
DC
  8
MyLines
 10
239.51512187744066
 20
165.53125
 30
0.0
 11
241.30581187766776
 21
165.53125
 31
0.0
  0
LINE
  5
DD
  8
MyLines
 10
241.30581187766776
 20
165.53125
 30
0.0
 11
243.0965018778949
 21
165.53125
 31
0.0
  0
LINE
  5
DE
  8
MyLines
 10
243.0965018778949
 20
165.53125
 30
0.0
 11
244.887191878122
 21
165.53125
 31
0.0
  0
LINE
  5
DF
  8
MyLines
 10
244.887191878122
 20
165.53125
 30
0.0
 11
246.67788187834913
 21
165.53125
 31
0.0
  0
LINE
  5
E0
  8
MyLines
 10
246.67788187834913
 20
165.53125
 30
0.0
 11
248.46857187857626
 21
165.53125
 31
0.0
  0
LINE
  5
E1
  8
MyLines
 10
248.46857187857626
 20
165.53125
 30
0.0
 11
250.25926187880336
 21
165.53125
 31
0.0
  0
LINE
  5
E2
  8
MyLines
 10
250.25926187880336
 20
165.53125
 30
0.0
 11
252.0499518790305
 21
165.53125
 31
0.0
  0
LINE
  5
E3
  8
MyLines
 10
252.0499518790305
 20
165.53125
 30
0.0
 11
253.84064187925762
 21
165.53125
 31
0.0
  0
LINE
  5
E4
  8
MyLines
 10
253.84064187925762
 20
165.53125
 30
0.0
 11
255.63133187948472
 21
165.53125
 31
0.0
  0
LINE
  5
E5
  8
MyLines
 10
255.63133187948472
 20
165.53125
 30
0.0
 11
257.42202187971185
 21
165.53125
 31
0.0
  0
LINE
  5
E6
  8
MyLines
 10
257.42202187971185
 20
165.53125
 30
0.0
 11
259.2127118799389
 21
165.53125
 31
0.0
  0
LINE
  5
E7
  8
MyLines
 10
259.2127118799389
 20
165.53125
 30
0.0
 11
261.0034018801661
 21
165.53125
 31
0.0
  0
LINE
  5
E8
  8
MyLines
 10
261.0034018801661
 20
165.53125
 30
0.0
 11
262.7940918803932
 21
165.53125
 31
0.0
  0
LINE
  5
E9
  8
MyLines
 10
262.7940918803932
 20
165.53125
 30
0.0
 11
264.58478188062037
 21
165.53125
 31
0.0
  0
LINE
  5
EA
  8
MyLines
 10
264.58478188062037
 20
165.53125
 30
0.0
 11
266.3754718808474
 21
165.53125
 31
0.0
  0
LINE
  5
EB
  8
MyLines
 10
266.3754718808474
 20
165.53125
 30
0.0
 11
268.1661618810746
 21
165.53125
 31
0.0
  0
LINE
  5
EC
  8
MyLines
 10
268.1661618810746
 20
165.53125
 30
0.0
 11
269.95685188130165
 21
165.53125
 31
0.0
  0
LINE
  5
ED
  8
MyLines
 10
269.95685188130165
 20
165.53125
 30
0.0
 11
271.74754188152883
 21
165.53125
 31
0.0
  0
LINE
  5
EE
  8
MyLines
 10
271.74754188152883
 20
165.53125
 30
0.0
 11
273.53823188175596
 21
165.53125
 31
0.0
  0
LINE
  5
EF
  8
MyLines
 10
273.53823188175596
 20
165.53125
 30
0.0
 11
275.32892188198304
 21
165.53125
 31
0.0
  0
LINE
  5
F0
  8
MyLines
 10
275.32892188198304
 20
165.53125
 30
0.0
 11
277.11961188221017
 21
165.53125
 31
0.0
  0
LINE
  5
F1
  8
MyLines
 10
277.11961188221017
 20
165.53125
 30
0.0
 11
278.9103018824373
 21
165.53125
 31
0.0
  0
LINE
  5
F2
  8
MyLines
 10
278.9103018824373
 20
165.53125
 30
0.0
 11
280.7009918826644
 21
165.53125
 31
0.0
  0
LINE
  5
F3
  8
MyLines
 10
280.7009918826644
 20
165.53125
 30
0.0
 11
282.4916818828915
 21
165.53125
 31
0.0
  0
LINE
  5
F4
  8
MyLines
 10
282.4916818828915
 20
165.53125
 30
0.0
 11
284.2823718831186
 21
165.53125
 31
0.0
  0
LINE
  5
F5
  8
MyLines
 10
284.2823718831186
 20
165.53125
 30
0.0
 11
286.07306188334576
 21
165.53125
 31
0.0
  0
LINE
  5
F6
  8
MyLines
 10
286.07306188334576
 20
165.53125
 30
0.0
 11
287.8637518835729
 21
165.53125
 31
0.0
  0
LINE
  5
F7
  8
MyLines
 10
287.8637518835729
 20
165.53125
 30
0.0
 11
289.6544418838
 21
165.53125
 31
0.0
  0
LINE
  5
F8
  8
MyLines
 10
289.6544418838
 20
165.53125
 30
0.0
 11
291.4451318840271
 21
165.53125
 31
0.0
  0
LINE
  5
F9
  8
MyLines
 10
291.4451318840271
 20
165.53125
 30
0.0
 11
293.2358218842542
 21
165.53125
 31
0.0
  0
LINE
  5
FA
  8
MyLines
 10
293.2358218842542
 20
165.53125
 30
0.0
 11
293.2358218842542
 21
-153.625
 31
0.0
  0
LINE
  5
FB
  8
MyLines
 10
293.2358218842542
 20
-153.625
 30
0.0
 11
293.2358218842542
 21
-153.625
 31
0.0
  0
LINE
  5
FC
  8
MyLines
 10
293.2358218842542
 20
-153.625
 30
0.0
 11
291.52906493454395
 21
-153.625
 31
0.0
  0
LINE
  5
FD
  8
MyLines
 10
291.52906493454395
 20
-153.625
 30
0.0
 11
289.8223079848337
 21
-153.625
 31
0.0
  0
LINE
  5
FE
  8
MyLines
 10
289.8223079848337
 20
-153.625
 30
0.0
 11
288.1155510351234
 21
-153.625
 31
0.0
  0
LINE
  5
FF
  8
MyLines
 10
288.1155510351234
 20
-153.625
 30
0.0
 11
286.4087940854131
 21
-153.625
 31
0.0
  0
LINE
  5
100
  8
MyLines
 10
286.4087940854131
 20
-153.625
 30
0.0
 11
284.7020371357029
 21
-153.625
 31
0.0
  0
LINE
  5
101
  8
MyLines
 10
284.7020371357029
 20
-153.625
 30
0.0
 11
282.99528018599256
 21
-153.625
 31
0.0
  0
LINE
  5
102
  8
MyLines
 10
282.99528018599256
 20
-153.625
 30
0.0
 11
281.2885232362823
 21
-153.625
 31
0.0
  0
LINE
  5
103
  8
MyLines
 10
281.2885232362823
 20
-153.625
 30
0.0
 11
279.581766286572
 21
-153.625
 31
0.0
  0
LINE
  5
104
  8
MyLines
 10
279.581766286572
 20
-153.625
 30
0.0
 11
277.87500933686175
 21
-153.625
 31
0.0
  0
LINE
  5
105
  8
MyLines
 10
277.87500933686175
 20
-153.625
 30
0.0
 11
276.1682523871514
 21
-153.625
 31
0.0
  0
LINE
  5
106
  8
MyLines
 10
276.1682523871514
 20
-153.625
 30
0.0
 11
274.4614954374412
 21
-153.625
 31
0.0
  0
LINE
  5
107
  8
MyLines
 10
274.4614954374412
 20
-153.625
 30
0.0
 11
272.7547384877309
 21
-153.625
 31
0.0
  0
LINE
  5
108
  8
MyLines
 10
272.7547384877309
 20
-153.625
 30
0.0
 11
271.0479815380206
 21
-153.625
 31
0.0
  0
LINE
  5
109
  8
MyLines
 10
271.0479815380206
 20
-153.625
 30
0.0
 11
269.34122458831035
 21
-153.625
 31
0.0
  0
LINE
  5
10A
  8
MyLines
 10
269.34122458831035
 20
-153.625
 30
0.0
 11
267.6344676386001
 21
-153.625
 31
0.0
  0
LINE
  5
10B
  8
MyLines
 10
267.6344676386001
 20
-153.625
 30
0.0
 11
265.92771068888976
 21
-153.625
 31
0.0
  0
LINE
  5
10C
  8
MyLines
 10
265.92771068888976
 20
-153.625
 30
0.0
 11
264.2209537391795
 21
-153.625
 31
0.0
  0
LINE
  5
10D
  8
MyLines
 10
264.2209537391795
 20
-153.625
 30
0.0
 11
262.5141967894692
 21
-153.625
 31
0.0
  0
LINE
  5
10E
  8
MyLines
 10
262.5141967894692
 20
-153.625
 30
0.0
 11
260.80743983975896
 21
-153.625
 31
0.0
  0
LINE
  5
10F
  8
MyLines
 10
260.80743983975896
 20
-153.625
 30
0.0
 11
259.10068289004863
 21
-153.625
 31
0.0
  0
LINE
  5
110
  8
MyLines
 10
259.10068289004863
 20
-153.625
 30
0.0
 11
257.3939259403384
 21
-153.625
 31
0.0
  0
LINE
  5
111
  8
MyLines
 10
257.3939259403384
 20
-153.625
 30
0.0
 11
255.6871689906281
 21
-153.625
 31
0.0
  0
LINE
  5
112
  8
MyLines
 10
255.6871689906281
 20
-153.625
 30
0.0
 11
253.98041204091786
 21
-153.625
 31
0.0
  0
LINE
  5
113
  8
MyLines
 10
253.98041204091786
 20
-153.625
 30
0.0
 11
252.27365509120756
 21
-153.625
 31
0.0
  0
LINE
  5
114
  8
MyLines
 10
252.27365509120756
 20
-153.625
 30
0.0
 11
250.5668981414973
 21
-153.625
 31
0.0
  0
LINE
  5
115
  8
MyLines
 10
250.5668981414973
 20
-153.625
 30
0.0
 11
248.86014119178702
 21
-153.625
 31
0.0
  0
LINE
  5
116
  8
MyLines
 10
248.86014119178702
 20
-153.625
 30
0.0
 11
247.15338424207673
 21
-153.625
 31
0.0
  0
LINE
  5
117
  8
MyLines
 10
247.15338424207673
 20
-153.625
 30
0.0
 11
245.44662729236646
 21
-153.625
 31
0.0
  0
LINE
  5
118
  8
MyLines
 10
245.44662729236646
 20
-153.625
 30
0.0
 11
243.73987034265616
 21
-153.625
 31
0.0
  0
LINE
  5
119
  8
MyLines
 10
243.73987034265616
 20
-153.625
 30
0.0
 11
242.0331133929459
 21
-153.625
 31
0.0
  0
LINE
  5
11A
  8
MyLines
 10
242.0331133929459
 20
-153.625
 30
0.0
 11
240.32635644323562
 21
-153.625
 31
0.0
  0
LINE
  5
11B
  8
MyLines
 10
240.32635644323562
 20
-153.625
 30
0.0
 11
238.61959949352533
 21
-153.625
 31
0.0
  0
LINE
  5
11C
  8
MyLines
 10
238.61959949352533
 20
-153.625
 30
0.0
 11
236.91284254381506
 21
-153.625
 31
0.0
  0
LINE
  5
11D
  8
MyLines
 10
236.91284254381506
 20
-153.625
 30
0.0
 11
235.2060855941048
 21
-153.625
 31
0.0
  0
LINE
  5
11E
  8
MyLines
 10
235.2060855941048
 20
-153.625
 30
0.0
 11
233.4993286443945
 21
-153.625
 31
0.0
  0
LINE
  5
11F
  8
MyLines
 10
233.4993286443945
 20
-153.625
 30
0.0
 11
231.79257169468426
 21
-153.625
 31
0.0
  0
LINE
  5
120
  8
MyLines
 10
231.79257169468426
 20
-153.625
 30
0.0
 11
230.08581474497396
 21
-153.625
 31
0.0
  0
LINE
  5
121
  8
MyLines
 10
230.08581474497396
 20
-153.625
 30
0.0
 11
228.3790577952637
 21
-153.625
 31
0.0
  0
LINE
  5
122
  8
MyLines
 10
228.3790577952637
 20
-153.625
 30
0.0
 11
226.6723008455534
 21
-153.625
 31
0.0
  0
LINE
  5
123
  8
MyLines
 10
226.6723008455534
 20
-153.625
 30
0.0
 11
224.96554389584313
 21
-153.625
 31
0.0
  0
LINE
  5
124
  8
MyLines
 10
224.96554389584313
 20
-153.625
 30
0.0
 11
223.25878694613283
 21
-153.625
 31
0.0
  0
LINE
  5
125
  8
MyLines
 10
223.25878694613283
 20
-153.625
 30
0.0
 11
221.5520299964226
 21
-153.625
 31
0.0
  0
LINE
  5
126
  8
MyLines
 10
221.5520299964226
 20
-153.625
 30
0.0
 11
219.84527304671226
 21
-153.625
 31
0.0
  0
LINE
  5
127
  8
MyLines
 10
219.84527304671226
 20
-153.625
 30
0.0
 11
218.13851609700203
 21
-153.625
 31
0.0
  0
LINE
  5
128
  8
MyLines
 10
218.13851609700203
 20
-153.625
 30
0.0
 11
216.43175914729176
 21
-153.625
 31
0.0
  0
LINE
  5
129
  8
MyLines
 10
216.43175914729176
 20
-153.625
 30
0.0
 11
214.72500219758146
 21
-153.625
 31
0.0
  0
LINE
  5
12A
  8
MyLines
 10
214.72500219758146
 20
-153.625
 30
0.0
 11
213.0182452478712
 21
-153.625
 31
0.0
  0
LINE
  5
12B
  8
MyLines
 10
213.0182452478712
 20
-153.625
 30
0.0
 11
211.31148829816092
 21
-153.625
 31
0.0
  0
LINE
  5
12C
  8
MyLines
 10
211.31148829816092
 20
-153.625
 30
0.0
 11
209.60473134845063
 21
-153.625
 31
0.0
  0
LINE
  5
12D
  8
MyLines
 10
209.60473134845063
 20
-153.625
 30
0.0
 11
209.60473134845063
 21
-153.625
 31
0.0
  0
LINE
  5
12E
  8
MyLines
 10
209.60473134845063
 20
-153.625
 30
0.0
 11
209.60473134845063
 21
161.5625
 31
0.0
  0
LINE
  5
12F
  8
MyLines
 10
209.60473134845063
 20
161.5625
 30
0.0
 11
209.60473134845063
 21
161.5625
 31
0.0
  0
LINE
  5
130
  8
MyLines
 10
209.60473134845063
 20
161.5625
 30
0.0
 11
211.22755524764406
 21
161.5625
 31
0.0
  0
LINE
  5
131
  8
MyLines
 10
211.22755524764406
 20
161.5625
 30
0.0
 11
212.85037914683753
 21
161.5625
 31
0.0
  0
LINE
  5
132
  8
MyLines
 10
212.85037914683753
 20
161.5625
 30
0.0
 11
214.47320304603096
 21
161.5625
 31
0.0
  0
LINE
  5
133
  8
MyLines
 10
214.47320304603096
 20
161.5625
 30
0.0
 11
216.0960269452244
 21
161.5625
 31
0.0
  0
LINE
  5
134
  8
MyLines
 10
216.0960269452244
 20
161.5625
 30
0.0
 11
217.7188508444178
 21
161.5625
 31
0.0
  0
LINE
  5
135
  8
MyLines
 10
217.7188508444178
 20
161.5625
 30
0.0
 11
219.34167474361124
 21
161.5625
 31
0.0
  0
LINE
  5
136
  8
MyLines
 10
219.34167474361124
 20
161.5625
 30
0.0
 11
220.96449864280467
 21
161.5625
 31
0.0
  0
LINE
  5
137
  8
MyLines
 10
220.96449864280467
 20
161.5625
 30
0.0
 11
222.58732254199813
 21
161.5625
 31
0.0
  0
LINE
  5
138
  8
MyLines
 10
222.58732254199813
 20
161.5625
 30
0.0
 11
224.21014644119157
 21
161.5625
 31
0.0
  0
LINE
  5
139
  8
MyLines
 10
224.21014644119157
 20
161.5625
 30
0.0
 11
225.832970340385
 21
161.5625
 31
0.0
  0
LINE
  5
13A
  8
MyLines
 10
225.832970340385
 20
161.5625
 30
0.0
 11
227.45579423957844
 21
161.5625
 31
0.0
  0
LINE
  5
13B
  8
MyLines
 10
227.45579423957844
 20
161.5625
 30
0.0
 11
229.07861813877187
 21
161.5625
 31
0.0
  0
LINE
  5
13C
  8
MyLines
 10
229.07861813877187
 20
161.5625
 30
0.0
 11
230.70144203796534
 21
161.5625
 31
0.0
  0
LINE
  5
13D
  8
MyLines
 10
230.70144203796534
 20
161.5625
 30
0.0
 11
232.32426593715877
 21
161.5625
 31
0.0
  0
LINE
  5
13E
  8
MyLines
 10
232.32426593715877
 20
161.5625
 30
0.0
 11
233.9470898363522
 21
161.5625
 31
0.0
  0
LINE
  5
13F
  8
MyLines
 10
233.9470898363522
 20
161.5625
 30
0.0
 11
235.5699137355456
 21
161.5625
 31
0.0
  0
LINE
  5
140
  8
MyLines
 10
235.5699137355456
 20
161.5625
 30
0.0
 11
237.19273763473905
 21
161.5625
 31
0.0
  0
LINE
  5
141
  8
MyLines
 10
237.19273763473905
 20
161.5625
 30
0.0
 11
238.8155615339325
 21
161.5625
 31
0.0
  0
LINE
  5
142
  8
MyLines
 10
238.8155615339325
 20
161.5625
 30
0.0
 11
240.43838543312594
 21
161.5625
 31
0.0
  0
LINE
  5
143
  8
MyLines
 10
240.43838543312594
 20
161.5625
 30
0.0
 11
242.06120933231938
 21
161.5625
 31
0.0
  0
LINE
  5
144
  8
MyLines
 10
242.06120933231938
 20
161.5625
 30
0.0
 11
243.6840332315128
 21
161.5625
 31
0.0
  0
LINE
  5
145
  8
MyLines
 10
243.6840332315128
 20
161.5625
 30
0.0
 11
245.30685713070625
 21
161.5625
 31
0.0
  0
LINE
  5
146
  8
MyLines
 10
245.30685713070625
 20
161.5625
 30
0.0
 11
246.92968102989968
 21
161.5625
 31
0.0
  0
LINE
  5
147
  8
MyLines
 10
246.92968102989968
 20
161.5625
 30
0.0
 11
248.55250492909312
 21
161.5625
 31
0.0
  0
LINE
  5
148
  8
MyLines
 10
248.55250492909312
 20
161.5625
 30
0.0
 11
250.17532882828655
 21
161.5625
 31
0.0
  0
LINE
  5
149
  8
MyLines
 10
250.17532882828655
 20
161.5625
 30
0.0
 11
251.79815272748
 21
161.5625
 31
0.0
  0
LINE
  5
14A
  8
MyLines
 10
251.79815272748
 20
161.5625
 30
0.0
 11
253.42097662667342
 21
161.5625
 31
0.0
  0
LINE
  5
14B
  8
MyLines
 10
253.42097662667342
 20
161.5625
 30
0.0
 11
255.04380052586686
 21
161.5625
 31
0.0
  0
LINE
  5
14C
  8
MyLines
 10
255.04380052586686
 20
161.5625
 30
0.0
 11
256.6666244250603
 21
161.5625
 31
0.0
  0
LINE
  5
14D
  8
MyLines
 10
256.6666244250603
 20
161.5625
 30
0.0
 11
258.2894483242537
 21
161.5625
 31
0.0
  0
LINE
  5
14E
  8
MyLines
 10
258.2894483242537
 20
161.5625
 30
0.0
 11
259.9122722234472
 21
161.5625
 31
0.0
  0
LINE
  5
14F
  8
MyLines
 10
259.9122722234472
 20
161.5625
 30
0.0
 11
261.53509612264065
 21
161.5625
 31
0.0
  0
LINE
  5
150
  8
MyLines
 10
261.53509612264065
 20
161.5625
 30
0.0
 11
263.15792002183406
 21
161.5625
 31
0.0
  0
LINE
  5
151
  8
MyLines
 10
263.15792002183406
 20
161.5625
 30
0.0
 11
264.7807439210275
 21
161.5625
 31
0.0
  0
LINE
  5
152
  8
MyLines
 10
264.7807439210275
 20
161.5625
 30
0.0
 11
266.4035678202209
 21
161.5625
 31
0.0
  0
LINE
  5
153
  8
MyLines
 10
266.4035678202209
 20
161.5625
 30
0.0
 11
268.0263917194144
 21
161.5625
 31
0.0
  0
LINE
  5
154
  8
MyLines
 10
268.0263917194144
 20
161.5625
 30
0.0
 11
269.64921561860785
 21
161.5625
 31
0.0
  0
LINE
  5
155
  8
MyLines
 10
269.64921561860785
 20
161.5625
 30
0.0
 11
271.27203951780126
 21
161.5625
 31
0.0
  0
LINE
  5
156
  8
MyLines
 10
271.27203951780126
 20
161.5625
 30
0.0
 11
272.89486341699467
 21
161.5625
 31
0.0
  0
LINE
  5
157
  8
MyLines
 10
272.89486341699467
 20
161.5625
 30
0.0
 11
274.5176873161881
 21
161.5625
 31
0.0
  0
LINE
  5
158
  8
MyLines
 10
274.5176873161881
 20
161.5625
 30
0.0
 11
276.14051121538154
 21
161.5625
 31
0.0
  0
LINE
  5
159
  8
MyLines
 10
276.14051121538154
 20
161.5625
 30
0.0
 11
277.763335114575
 21
161.5625
 31
0.0
  0
LINE
  5
15A
  8
MyLines
 10
277.763335114575
 20
161.5625
 30
0.0
 11
279.3861590137684
 21
161.5625
 31
0.0
  0
LINE
  5
15B
  8
MyLines
 10
279.3861590137684
 20
161.5625
 30
0.0
 11
281.00898291296187
 21
161.5625
 31
0.0
  0
LINE
  5
15C
  8
MyLines
 10
281.00898291296187
 20
161.5625
 30
0.0
 11
282.6318068121553
 21
161.5625
 31
0.0
  0
LINE
  5
15D
  8
MyLines
 10
282.6318068121553
 20
161.5625
 30
0.0
 11
284.25463071134874
 21
161.5625
 31
0.0
  0
LINE
  5
15E
  8
MyLines
 10
284.25463071134874
 20
161.5625
 30
0.0
 11
285.87745461054215
 21
161.5625
 31
0.0
  0
LINE
  5
15F
  8
MyLines
 10
285.87745461054215
 20
161.5625
 30
0.0
 11
287.5002785097356
 21
161.5625
 31
0.0
  0
LINE
  5
160
  8
MyLines
 10
287.5002785097356
 20
161.5625
 30
0.0
 11
289.12310240892907
 21
161.5625
 31
0.0
  0
LINE
  5
161
  8
MyLines
 10
289.12310240892907
 20
161.5625
 30
0.0
 11
289.12310240892907
 21
-149.65625
 31
0.0
  0
LINE
  5
162
  8
MyLines
 10
289.12310240892907
 20
-149.65625
 30
0.0
 11
289.12310240892907
 21
-149.65625
 31
0.0
  0
LINE
  5
163
  8
MyLines
 10
289.12310240892907
 20
-149.65625
 30
0.0
 11
287.58805058141405
 21
-149.65625
 31
0.0
  0
LINE
  5
164
  8
MyLines
 10
287.58805058141405
 20
-149.65625
 30
0.0
 11
286.05299875389903
 21
-149.65625
 31
0.0
  0
LINE
  5
165
  8
MyLines
 10
286.05299875389903
 20
-149.65625
 30
0.0
 11
284.517946926384
 21
-149.65625
 31
0.0
  0
LINE
  5
166
  8
MyLines
 10
284.517946926384
 20
-149.65625
 30
0.0
 11
282.982895098869
 21
-149.65625
 31
0.0
  0
LINE
  5
167
  8
MyLines
 10
282.982895098869
 20
-149.65625
 30
0.0
 11
281.447843271354
 21
-149.65625
 31
0.0
  0
LINE
  5
168
  8
MyLines
 10
281.447843271354
 20
-149.65625
 30
0.0
 11
279.91279144383896
 21
-149.65625
 31
0.0
  0
LINE
  5
169
  8
MyLines
 10
279.91279144383896
 20
-149.65625
 30
0.0
 11
278.37773961632394
 21
-149.65625
 31
0.0
  0
LINE
  5
16A
  8
MyLines
 10
278.37773961632394
 20
-149.65625
 30
0.0
 11
276.8426877888089
 21
-149.65625
 31
0.0
  0
LINE
  5
16B
  8
MyLines
 10
276.8426877888089
 20
-149.65625
 30
0.0
 11
275.3076359612939
 21
-149.65625
 31
0.0
  0
LINE
  5
16C
  8
MyLines
 10
275.3076359612939
 20
-149.65625
 30
0.0
 11
273.7725841337789
 21
-149.65625
 31
0.0
  0
LINE
  5
16D
  8
MyLines
 10
273.7725841337789
 20
-149.65625
 30
0.0
 11
272.23753230626386
 21
-149.65625
 31
0.0
  0
LINE
  5
16E
  8
MyLines
 10
272.23753230626386
 20
-149.65625
 30
0.0
 11
270.70248047874884
 21
-149.65625
 31
0.0
  0
LINE
  5
16F
  8
MyLines
 10
270.70248047874884
 20
-149.65625
 30
0.0
 11
269.1674286512338
 21
-149.65625
 31
0.0
  0
LINE
  5
170
  8
MyLines
 10
269.1674286512338
 20
-149.65625
 30
0.0
 11
267.6323768237188
 21
-149.65625
 31
0.0
  0
LINE
  5
171
  8
MyLines
 10
267.6323768237188
 20
-149.65625
 30
0.0
 11
266.0973249962038
 21
-149.65625
 31
0.0
  0
LINE
  5
172
  8
MyLines
 10
266.0973249962038
 20
-149.65625
 30
0.0
 11
264.56227316868876
 21
-149.65625
 31
0.0
  0
LINE
  5
173
  8
MyLines
 10
264.56227316868876
 20
-149.65625
 30
0.0
 11
263.02722134117374
 21
-149.65625
 31
0.0
  0
LINE
  5
174
  8
MyLines
 10
263.02722134117374
 20
-149.65625
 30
0.0
 11
261.49216951365867
 21
-149.65625
 31
0.0
  0
LINE
  5
175
  8
MyLines
 10
261.49216951365867
 20
-149.65625
 30
0.0
 11
259.9571176861437
 21
-149.65625
 31
0.0
  0
LINE
  5
176
  8
MyLines
 10
259.9571176861437
 20
-149.65625
 30
0.0
 11
258.4220658586286
 21
-149.65625
 31
0.0
  0
LINE
  5
177
  8
MyLines
 10
258.4220658586286
 20
-149.65625
 30
0.0
 11
256.88701403111367
 21
-149.65625
 31
0.0
  0
LINE
  5
178
  8
MyLines
 10
256.88701403111367
 20
-149.65625
 30
0.0
 11
255.35196220359862
 21
-149.65625
 31
0.0
  0
LINE
  5
179
  8
MyLines
 10
255.35196220359862
 20
-149.65625
 30
0.0
 11
253.81691037608363
 21
-149.65625
 31
0.0
  0
LINE
  5
17A
  8
MyLines
 10
253.81691037608363
 20
-149.65625
 30
0.0
 11
252.2818585485686
 21
-149.65625
 31
0.0
  0
LINE
  5
17B
  8
MyLines
 10
252.2818585485686
 20
-149.65625
 30
0.0
 11
250.7468067210536
 21
-149.65625
 31
0.0
  0
LINE
  5
17C
  8
MyLines
 10
250.7468067210536
 20
-149.65625
 30
0.0
 11
249.21175489353857
 21
-149.65625
 31
0.0
  0
LINE
  5
17D
  8
MyLines
 10
249.21175489353857
 20
-149.65625
 30
0.0
 11
247.67670306602355
 21
-149.65625
 31
0.0
  0
LINE
  5
17E
  8
MyLines
 10
247.67670306602355
 20
-149.65625
 30
0.0
 11
246.14165123850853
 21
-149.65625
 31
0.0
  0
LINE
  5
17F
  8
MyLines
 10
246.14165123850853
 20
-149.65625
 30
0.0
 11
244.6065994109935
 21
-149.65625
 31
0.0
  0
LINE
  5
180
  8
MyLines
 10
244.6065994109935
 20
-149.65625
 30
0.0
 11
243.0715475834785
 21
-149.65625
 31
0.0
  0
LINE
  5
181
  8
MyLines
 10
243.0715475834785
 20
-149.65625
 30
0.0
 11
241.53649575596347
 21
-149.65625
 31
0.0
  0
LINE
  5
182
  8
MyLines
 10
241.53649575596347
 20
-149.65625
 30
0.0
 11
240.00144392844845
 21
-149.65625
 31
0.0
  0
LINE
  5
183
  8
MyLines
 10
240.00144392844845
 20
-149.65625
 30
0.0
 11
238.46639210093343
 21
-149.65625
 31
0.0
  0
LINE
  5
184
  8
MyLines
 10
238.46639210093343
 20
-149.65625
 30
0.0
 11
236.9313402734184
 21
-149.65625
 31
0.0
  0
LINE
  5
185
  8
MyLines
 10
236.9313402734184
 20
-149.65625
 30
0.0
 11
235.3962884459034
 21
-149.65625
 31
0.0
  0
LINE
  5
186
  8
MyLines
 10
235.3962884459034
 20
-149.65625
 30
0.0
 11
233.8612366183884
 21
-149.65625
 31
0.0
  0
LINE
  5
187
  8
MyLines
 10
233.8612366183884
 20
-149.65625
 30
0.0
 11
232.32618479087336
 21
-149.65625
 31
0.0
  0
LINE
  5
188
  8
MyLines
 10
232.32618479087336
 20
-149.65625
 30
0.0
 11
230.79113296335834
 21
-149.65625
 31
0.0
  0
LINE
  5
189
  8
MyLines
 10
230.79113296335834
 20
-149.65625
 30
0.0
 11
229.2560811358433
 21
-149.65625
 31
0.0
  0
LINE
  5
18A
  8
MyLines
 10
229.2560811358433
 20
-149.65625
 30
0.0
 11
227.7210293083283
 21
-149.65625
 31
0.0
  0
LINE
  5
18B
  8
MyLines
 10
227.7210293083283
 20
-149.65625
 30
0.0
 11
226.18597748081325
 21
-149.65625
 31
0.0
  0
LINE
  5
18C
  8
MyLines
 10
226.18597748081325
 20
-149.65625
 30
0.0
 11
224.65092565329826
 21
-149.65625
 31
0.0
  0
LINE
  5
18D
  8
MyLines
 10
224.65092565329826
 20
-149.65625
 30
0.0
 11
223.1158738257832
 21
-149.65625
 31
0.0
  0
LINE
  5
18E
  8
MyLines
 10
223.1158738257832
 20
-149.65625
 30
0.0
 11
221.58082199826822
 21
-149.65625
 31
0.0
  0
LINE
  5
18F
  8
MyLines
 10
221.58082199826822
 20
-149.65625
 30
0.0
 11
220.0457701707532
 21
-149.65625
 31
0.0
  0
LINE
  5
190
  8
MyLines
 10
220.0457701707532
 20
-149.65625
 30
0.0
 11
218.51071834323818
 21
-149.65625
 31
0.0
  0
LINE
  5
191
  8
MyLines
 10
218.51071834323818
 20
-149.65625
 30
0.0
 11
216.97566651572316
 21
-149.65625
 31
0.0
  0
LINE
  5
192
  8
MyLines
 10
216.97566651572316
 20
-149.65625
 30
0.0
 11
215.44061468820814
 21
-149.65625
 31
0.0
  0
LINE
  5
193
  8
MyLines
 10
215.44061468820814
 20
-149.65625
 30
0.0
 11
213.90556286069312
 21
-149.65625
 31
0.0
  0
LINE
  5
194
  8
MyLines
 10
213.90556286069312
 20
-149.65625
 30
0.0
 11
213.90556286069312
 21
-149.65625
 31
0.0
  0
LINE
  5
195
  8
MyLines
 10
213.90556286069312
 20
-149.65625
 30
0.0
 11
213.90556286069312
 21
157.59375
 31
0.0
  0
LINE
  5
196
  8
MyLines
 10
213.90556286069312
 20
157.59375
 30
0.0
 11
213.90556286069312
 21
157.59375
 31
0.0
  0
LINE
  5
197
  8
MyLines
 10
213.90556286069312
 20
157.59375
 30
0.0
 11
215.35284261652973
 21
157.59375
 31
0.0
  0
LINE
  5
198
  8
MyLines
 10
215.35284261652973
 20
157.59375
 30
0.0
 11
216.80012237236633
 21
157.59375
 31
0.0
  0
LINE
  5
199
  8
MyLines
 10
216.80012237236633
 20
157.59375
 30
0.0
 11
218.24740212820294
 21
157.59375
 31
0.0
  0
LINE
  5
19A
  8
MyLines
 10
218.24740212820294
 20
157.59375
 30
0.0
 11
219.69468188403954
 21
157.59375
 31
0.0
  0
LINE
  5
19B
  8
MyLines
 10
219.69468188403954
 20
157.59375
 30
0.0
 11
221.14196163987614
 21
157.59375
 31
0.0
  0
LINE
  5
19C
  8
MyLines
 10
221.14196163987614
 20
157.59375
 30
0.0
 11
222.58924139571272
 21
157.59375
 31
0.0
  0
LINE
  5
19D
  8
MyLines
 10
222.58924139571272
 20
157.59375
 30
0.0
 11
224.03652115154932
 21
157.59375
 31
0.0
  0
LINE
  5
19E
  8
MyLines
 10
224.03652115154932
 20
157.59375
 30
0.0
 11
225.48380090738593
 21
157.59375
 31
0.0
  0
LINE
  5
19F
  8
MyLines
 10
225.48380090738593
 20
157.59375
 30
0.0
 11
226.93108066322253
 21
157.59375
 31
0.0
  0
LINE
  5
1A0
  8
MyLines
 10
226.93108066322253
 20
157.59375
 30
0.0
 11
228.37836041905913
 21
157.59375
 31
0.0
  0
LINE
  5
1A1
  8
MyLines
 10
228.37836041905913
 20
157.59375
 30
0.0
 11
229.82564017489574
 21
157.59375
 31
0.0
  0
LINE
  5
1A2
  8
MyLines
 10
229.82564017489574
 20
157.59375
 30
0.0
 11
231.27291993073234
 21
157.59375
 31
0.0
  0
LINE
  5
1A3
  8
MyLines
 10
231.27291993073234
 20
157.59375
 30
0.0
 11
232.72019968656892
 21
157.59375
 31
0.0
  0
LINE
  5
1A4
  8
MyLines
 10
232.72019968656892
 20
157.59375
 30
0.0
 11
234.16747944240552
 21
157.59375
 31
0.0
  0
LINE
  5
1A5
  8
MyLines
 10
234.16747944240552
 20
157.59375
 30
0.0
 11
235.61475919824213
 21
157.59375
 31
0.0
  0
LINE
  5
1A6
  8
MyLines
 10
235.61475919824213
 20
157.59375
 30
0.0
 11
237.06203895407873
 21
157.59375
 31
0.0
  0
LINE
  5
1A7
  8
MyLines
 10
237.06203895407873
 20
157.59375
 30
0.0
 11
238.50931870991533
 21
157.59375
 31
0.0
  0
LINE
  5
1A8
  8
MyLines
 10
238.50931870991533
 20
157.59375
 30
0.0
 11
239.95659846575194
 21
157.59375
 31
0.0
  0
LINE
  5
1A9
  8
MyLines
 10
239.95659846575194
 20
157.59375
 30
0.0
 11
241.40387822158857
 21
157.59375
 31
0.0
  0
LINE
  5
1AA
  8
MyLines
 10
241.40387822158857
 20
157.59375
 30
0.0
 11
242.85115797742515
 21
157.59375
 31
0.0
  0
LINE
  5
1AB
  8
MyLines
 10
242.85115797742515
 20
157.59375
 30
0.0
 11
244.29843773326175
 21
157.59375
 31
0.0
  0
LINE
  5
1AC
  8
MyLines
 10
244.29843773326175
 20
157.59375
 30
0.0
 11
245.74571748909835
 21
157.59375
 31
0.0
  0
LINE
  5
1AD
  8
MyLines
 10
245.74571748909835
 20
157.59375
 30
0.0
 11
247.19299724493496
 21
157.59375
 31
0.0
  0
LINE
  5
1AE
  8
MyLines
 10
247.19299724493496
 20
157.59375
 30
0.0
 11
248.64027700077156
 21
157.59375
 31
0.0
  0
LINE
  5
1AF
  8
MyLines
 10
248.64027700077156
 20
157.59375
 30
0.0
 11
250.08755675660817
 21
157.59375
 31
0.0
  0
LINE
  5
1B0
  8
MyLines
 10
250.08755675660817
 20
157.59375
 30
0.0
 11
251.53483651244477
 21
157.59375
 31
0.0
  0
LINE
  5
1B1
  8
MyLines
 10
251.53483651244477
 20
157.59375
 30
0.0
 11
252.98211626828135
 21
157.59375
 31
0.0
  0
LINE
  5
1B2
  8
MyLines
 10
252.98211626828135
 20
157.59375
 30
0.0
 11
254.42939602411795
 21
157.59375
 31
0.0
  0
LINE
  5
1B3
  8
MyLines
 10
254.42939602411795
 20
157.59375
 30
0.0
 11
255.87667577995455
 21
157.59375
 31
0.0
  0
LINE
  5
1B4
  8
MyLines
 10
255.87667577995455
 20
157.59375
 30
0.0
 11
257.32395553579113
 21
157.59375
 31
0.0
  0
LINE
  5
1B5
  8
MyLines
 10
257.32395553579113
 20
157.59375
 30
0.0
 11
258.77123529162776
 21
157.59375
 31
0.0
  0
LINE
  5
1B6
  8
MyLines
 10
258.77123529162776
 20
157.59375
 30
0.0
 11
260.21851504746434
 21
157.59375
 31
0.0
  0
LINE
  5
1B7
  8
MyLines
 10
260.21851504746434
 20
157.59375
 30
0.0
 11
261.66579480330097
 21
157.59375
 31
0.0
  0
LINE
  5
1B8
  8
MyLines
 10
261.66579480330097
 20
157.59375
 30
0.0
 11
263.11307455913754
 21
157.59375
 31
0.0
  0
LINE
  5
1B9
  8
MyLines
 10
263.11307455913754
 20
157.59375
 30
0.0
 11
264.5603543149742
 21
157.59375
 31
0.0
  0
LINE
  5
1BA
  8
MyLines
 10
264.5603543149742
 20
157.59375
 30
0.0
 11
266.00763407081075
 21
157.59375
 31
0.0
  0
LINE
  5
1BB
  8
MyLines
 10
266.00763407081075
 20
157.59375
 30
0.0
 11
267.4549138266474
 21
157.59375
 31
0.0
  0
LINE
  5
1BC
  8
MyLines
 10
267.4549138266474
 20
157.59375
 30
0.0
 11
268.90219358248396
 21
157.59375
 31
0.0
  0
LINE
  5
1BD
  8
MyLines
 10
268.90219358248396
 20
157.59375
 30
0.0
 11
270.34947333832054
 21
157.59375
 31
0.0
  0
LINE
  5
1BE
  8
MyLines
 10
270.34947333832054
 20
157.59375
 30
0.0
 11
271.79675309415717
 21
157.59375
 31
0.0
  0
LINE
  5
1BF
  8
MyLines
 10
271.79675309415717
 20
157.59375
 30
0.0
 11
273.24403284999374
 21
157.59375
 31
0.0
  0
LINE
  5
1C0
  8
MyLines
 10
273.24403284999374
 20
157.59375
 30
0.0
 11
274.6913126058304
 21
157.59375
 31
0.0
  0
LINE
  5
1C1
  8
MyLines
 10
274.6913126058304
 20
157.59375
 30
0.0
 11
276.13859236166695
 21
157.59375
 31
0.0
  0
LINE
  5
1C2
  8
MyLines
 10
276.13859236166695
 20
157.59375
 30
0.0
 11
277.5858721175036
 21
157.59375
 31
0.0
  0
LINE
  5
1C3
  8
MyLines
 10
277.5858721175036
 20
157.59375
 30
0.0
 11
279.03315187334016
 21
157.59375
 31
0.0
  0
LINE
  5
1C4
  8
MyLines
 10
279.03315187334016
 20
157.59375
 30
0.0
 11
280.48043162917673
 21
157.59375
 31
0.0
  0
LINE
  5
1C5
  8
MyLines
 10
280.48043162917673
 20
157.59375
 30
0.0
 11
281.92771138501337
 21
157.59375
 31
0.0
  0
LINE
  5
1C6
  8
MyLines
 10
281.92771138501337
 20
157.59375
 30
0.0
 11
283.37499114084994
 21
157.59375
 31
0.0
  0
LINE
  5
1C7
  8
MyLines
 10
283.37499114084994
 20
157.59375
 30
0.0
 11
284.8222708966866
 21
157.59375
 31
0.0
  0
LINE
  5
1C8
  8
MyLines
 10
284.8222708966866
 20
157.59375
 30
0.0
 11
284.8222708966866
 21
-145.6875
 31
0.0
  0
LINE
  5
1C9
  8
MyLines
 10
284.8222708966866
 20
-145.6875
 30
0.0
 11
284.8222708966866
 21
-145.6875
 31
0.0
  0
LINE
  5
1CA
  8
MyLines
 10
284.8222708966866
 20
-145.6875
 30
0.0
 11
283.4691832692225
 21
-145.6875
 31
0.0
  0
LINE
  5
1CB
  8
MyLines
 10
283.4691832692225
 20
-145.6875
 30
0.0
 11
282.11609564175853
 21
-145.6875
 31
0.0
  0
LINE
  5
1CC
  8
MyLines
 10
282.11609564175853
 20
-145.6875
 30
0.0
 11
280.7630080142945
 21
-145.6875
 31
0.0
  0
LINE
  5
1CD
  8
MyLines
 10
280.7630080142945
 20
-145.6875
 30
0.0
 11
279.40992038683055
 21
-145.6875
 31
0.0
  0
LINE
  5
1CE
  8
MyLines
 10
279.40992038683055
 20
-145.6875
 30
0.0
 11
278.05683275936656
 21
-145.6875
 31
0.0
  0
LINE
  5
1CF
  8
MyLines
 10
278.05683275936656
 20
-145.6875
 30
0.0
 11
276.7037451319025
 21
-145.6875
 31
0.0
  0
LINE
  5
1D0
  8
MyLines
 10
276.7037451319025
 20
-145.6875
 30
0.0
 11
275.3506575044385
 21
-145.6875
 31
0.0
  0
LINE
  5
1D1
  8
MyLines
 10
275.3506575044385
 20
-145.6875
 30
0.0
 11
273.99756987697447
 21
-145.6875
 31
0.0
  0
LINE
  5
1D2
  8
MyLines
 10
273.99756987697447
 20
-145.6875
 30
0.0
 11
272.6444822495105
 21
-145.6875
 31
0.0
  0
LINE
  5
1D3
  8
MyLines
 10
272.6444822495105
 20
-145.6875
 30
0.0
 11
271.29139462204654
 21
-145.6875
 31
0.0
  0
LINE
  5
1D4
  8
MyLines
 10
271.29139462204654
 20
-145.6875
 30
0.0
 11
269.9383069945825
 21
-145.6875
 31
0.0
  0
LINE
  5
1D5
  8
MyLines
 10
269.9383069945825
 20
-145.6875
 30
0.0
 11
268.5852193671185
 21
-145.6875
 31
0.0
  0
LINE
  5
1D6
  8
MyLines
 10
268.5852193671185
 20
-145.6875
 30
0.0
 11
267.23213173965445
 21
-145.6875
 31
0.0
  0
LINE
  5
1D7
  8
MyLines
 10
267.23213173965445
 20
-145.6875
 30
0.0
 11
265.87904411219046
 21
-145.6875
 31
0.0
  0
LINE
  5
1D8
  8
MyLines
 10
265.87904411219046
 20
-145.6875
 30
0.0
 11
264.52595648472646
 21
-145.6875
 31
0.0
  0
LINE
  5
1D9
  8
MyLines
 10
264.52595648472646
 20
-145.6875
 30
0.0
 11
263.1728688572624
 21
-145.6875
 31
0.0
  0
LINE
  5
1DA
  8
MyLines
 10
263.1728688572624
 20
-145.6875
 30
0.0
 11
261.8197812297985
 21
-145.6875
 31
0.0
  0
LINE
  5
1DB
  8
MyLines
 10
261.8197812297985
 20
-145.6875
 30
0.0
 11
260.46669360233443
 21
-145.6875
 31
0.0
  0
LINE
  5
1DC
  8
MyLines
 10
260.46669360233443
 20
-145.6875
 30
0.0
 11
259.11360597487044
 21
-145.6875
 31
0.0
  0
LINE
  5
1DD
  8
MyLines
 10
259.11360597487044
 20
-145.6875
 30
0.0
 11
257.76051834740645
 21
-145.6875
 31
0.0
  0
LINE
  5
1DE
  8
MyLines
 10
257.76051834740645
 20
-145.6875
 30
0.0
 11
256.4074307199424
 21
-145.6875
 31
0.0
  0
LINE
  5
1DF
  8
MyLines
 10
256.4074307199424
 20
-145.6875
 30
0.0
 11
255.05434309247838
 21
-145.6875
 31
0.0
  0
LINE
  5
1E0
  8
MyLines
 10
255.05434309247838
 20
-145.6875
 30
0.0
 11
253.7012554650144
 21
-145.6875
 31
0.0
  0
LINE
  5
1E1
  8
MyLines
 10
253.7012554650144
 20
-145.6875
 30
0.0
 11
252.3481678375504
 21
-145.6875
 31
0.0
  0
LINE
  5
1E2
  8
MyLines
 10
252.3481678375504
 20
-145.6875
 30
0.0
 11
250.9950802100864
 21
-145.6875
 31
0.0
  0
LINE
  5
1E3
  8
MyLines
 10
250.9950802100864
 20
-145.6875
 30
0.0
 11
249.64199258262238
 21
-145.6875
 31
0.0
  0
LINE
  5
1E4
  8
MyLines
 10
249.64199258262238
 20
-145.6875
 30
0.0
 11
248.28890495515836
 21
-145.6875
 31
0.0
  0
LINE
  5
1E5
  8
MyLines
 10
248.28890495515836
 20
-145.6875
 30
0.0
 11
246.93581732769434
 21
-145.6875
 31
0.0
  0
LINE
  5
1E6
  8
MyLines
 10
246.93581732769434
 20
-145.6875
 30
0.0
 11
245.58272970023037
 21
-145.6875
 31
0.0
  0
LINE
  5
1E7
  8
MyLines
 10
245.58272970023037
 20
-145.6875
 30
0.0
 11
244.22964207276635
 21
-145.6875
 31
0.0
  0
LINE
  5
1E8
  8
MyLines
 10
244.22964207276635
 20
-145.6875
 30
0.0
 11
242.87655444530236
 21
-145.6875
 31
0.0
  0
LINE
  5
1E9
  8
MyLines
 10
242.87655444530236
 20
-145.6875
 30
0.0
 11
241.52346681783834
 21
-145.6875
 31
0.0
  0
LINE
  5
1EA
  8
MyLines
 10
241.52346681783834
 20
-145.6875
 30
0.0
 11
240.17037919037432
 21
-145.6875
 31
0.0
  0
LINE
  5
1EB
  8
MyLines
 10
240.17037919037432
 20
-145.6875
 30
0.0
 11
238.81729156291033
 21
-145.6875
 31
0.0
  0
LINE
  5
1EC
  8
MyLines
 10
238.81729156291033
 20
-145.6875
 30
0.0
 11
237.46420393544633
 21
-145.6875
 31
0.0
  0
LINE
  5
1ED
  8
MyLines
 10
237.46420393544633
 20
-145.6875
 30
0.0
 11
236.11111630798231
 21
-145.6875
 31
0.0
  0
LINE
  5
1EE
  8
MyLines
 10
236.11111630798231
 20
-145.6875
 30
0.0
 11
234.7580286805183
 21
-145.6875
 31
0.0
  0
LINE
  5
1EF
  8
MyLines
 10
234.7580286805183
 20
-145.6875
 30
0.0
 11
233.4049410530543
 21
-145.6875
 31
0.0
  0
LINE
  5
1F0
  8
MyLines
 10
233.4049410530543
 20
-145.6875
 30
0.0
 11
232.0518534255903
 21
-145.6875
 31
0.0
  0
LINE
  5
1F1
  8
MyLines
 10
232.0518534255903
 20
-145.6875
 30
0.0
 11
230.6987657981263
 21
-145.6875
 31
0.0
  0
LINE
  5
1F2
  8
MyLines
 10
230.6987657981263
 20
-145.6875
 30
0.0
 11
229.34567817066227
 21
-145.6875
 31
0.0
  0
LINE
  5
1F3
  8
MyLines
 10
229.34567817066227
 20
-145.6875
 30
0.0
 11
227.99259054319828
 21
-145.6875
 31
0.0
  0
LINE
  5
1F4
  8
MyLines
 10
227.99259054319828
 20
-145.6875
 30
0.0
 11
226.63950291573425
 21
-145.6875
 31
0.0
  0
LINE
  5
1F5
  8
MyLines
 10
226.63950291573425
 20
-145.6875
 30
0.0
 11
225.28641528827026
 21
-145.6875
 31
0.0
  0
LINE
  5
1F6
  8
MyLines
 10
225.28641528827026
 20
-145.6875
 30
0.0
 11
223.93332766080627
 21
-145.6875
 31
0.0
  0
LINE
  5
1F7
  8
MyLines
 10
223.93332766080627
 20
-145.6875
 30
0.0
 11
222.58024003334225
 21
-145.6875
 31
0.0
  0
LINE
  5
1F8
  8
MyLines
 10
222.58024003334225
 20
-145.6875
 30
0.0
 11
221.22715240587823
 21
-145.6875
 31
0.0
  0
LINE
  5
1F9
  8
MyLines
 10
221.22715240587823
 20
-145.6875
 30
0.0
 11
219.8740647784142
 21
-145.6875
 31
0.0
  0
LINE
  5
1FA
  8
MyLines
 10
219.8740647784142
 20
-145.6875
 30
0.0
 11
218.52097715095022
 21
-145.6875
 31
0.0
  0
LINE
  5
1FB
  8
MyLines
 10
218.52097715095022
 20
-145.6875
 30
0.0
 11
218.52097715095022
 21
-145.6875
 31
0.0
  0
LINE
  5
1FC
  8
MyLines
 10
218.52097715095022
 20
-145.6875
 30
0.0
 11
218.52097715095022
 21
153.625
 31
0.0
  0
LINE
  5
1FD
  8
MyLines
 10
218.52097715095022
 20
153.625
 30
0.0
 11
218.52097715095022
 21
153.625
 31
0.0
  0
LINE
  5
1FE
  8
MyLines
 10
218.52097715095022
 20
153.625
 30
0.0
 11
219.77987265004163
 21
153.625
 31
0.0
  0
LINE
  5
1FF
  8
MyLines
 10
219.77987265004163
 20
153.625
 30
0.0
 11
221.03876814913306
 21
153.625
 31
0.0
  0
LINE
  5
200
  8
MyLines
 10
221.03876814913306
 20
153.625
 30
0.0
 11
222.29766364822447
 21
153.625
 31
0.0
  0
LINE
  5
201
  8
MyLines
 10
222.29766364822447
 20
153.625
 30
0.0
 11
223.55655914731585
 21
153.625
 31
0.0
  0
LINE
  5
202
  8
MyLines
 10
223.55655914731585
 20
153.625
 30
0.0
 11
224.8154546464073
 21
153.625
 31
0.0
  0
LINE
  5
203
  8
MyLines
 10
224.8154546464073
 20
153.625
 30
0.0
 11
226.0743501454987
 21
153.625
 31
0.0
  0
LINE
  5
204
  8
MyLines
 10
226.0743501454987
 20
153.625
 30
0.0
 11
227.3332456445901
 21
153.625
 31
0.0
  0
LINE
  5
205
  8
MyLines
 10
227.3332456445901
 20
153.625
 30
0.0
 11
228.59214114368154
 21
153.625
 31
0.0
  0
LINE
  5
206
  8
MyLines
 10
228.59214114368154
 20
153.625
 30
0.0
 11
229.85103664277293
 21
153.625
 31
0.0
  0
LINE
  5
207
  8
MyLines
 10
229.85103664277293
 20
153.625
 30
0.0
 11
231.10993214186433
 21
153.625
 31
0.0
  0
LINE
  5
208
  8
MyLines
 10
231.10993214186433
 20
153.625
 30
0.0
 11
232.36882764095577
 21
153.625
 31
0.0
  0
LINE
  5
209
  8
MyLines
 10
232.36882764095577
 20
153.625
 30
0.0
 11
233.62772314004718
 21
153.625
 31
0.0
  0
LINE
  5
20A
  8
MyLines
 10
233.62772314004718
 20
153.625
 30
0.0
 11
234.88661863913856
 21
153.625
 31
0.0
  0
LINE
  5
20B
  8
MyLines
 10
234.88661863913856
 20
153.625
 30
0.0
 11
236.14551413823
 21
153.625
 31
0.0
  0
LINE
  5
20C
  8
MyLines
 10
236.14551413823
 20
153.625
 30
0.0
 11
237.4044096373214
 21
153.625
 31
0.0
  0
LINE
  5
20D
  8
MyLines
 10
237.4044096373214
 20
153.625
 30
0.0
 11
238.66330513641282
 21
153.625
 31
0.0
  0
LINE
  5
20E
  8
MyLines
 10
238.66330513641282
 20
153.625
 30
0.0
 11
239.92220063550423
 21
153.625
 31
0.0
  0
LINE
  5
20F
  8
MyLines
 10
239.92220063550423
 20
153.625
 30
0.0
 11
241.18109613459563
 21
153.625
 31
0.0
  0
LINE
  5
210
  8
MyLines
 10
241.18109613459563
 20
153.625
 30
0.0
 11
242.43999163368704
 21
153.625
 31
0.0
  0
LINE
  5
211
  8
MyLines
 10
242.43999163368704
 20
153.625
 30
0.0
 11
243.69888713277848
 21
153.625
 31
0.0
  0
LINE
  5
212
  8
MyLines
 10
243.69888713277848
 20
153.625
 30
0.0
 11
244.9577826318699
 21
153.625
 31
0.0
  0
LINE
  5
213
  8
MyLines
 10
244.9577826318699
 20
153.625
 30
0.0
 11
246.21667813096127
 21
153.625
 31
0.0
  0
LINE
  5
214
  8
MyLines
 10
246.21667813096127
 20
153.625
 30
0.0
 11
247.4755736300527
 21
153.625
 31
0.0
  0
LINE
  5
215
  8
MyLines
 10
247.4755736300527
 20
153.625
 30
0.0
 11
248.73446912914412
 21
153.625
 31
0.0
  0
LINE
  5
216
  8
MyLines
 10
248.73446912914412
 20
153.625
 30
0.0
 11
249.99336462823553
 21
153.625
 31
0.0
  0
LINE
  5
217
  8
MyLines
 10
249.99336462823553
 20
153.625
 30
0.0
 11
251.25226012732693
 21
153.625
 31
0.0
  0
LINE
  5
218
  8
MyLines
 10
251.25226012732693
 20
153.625
 30
0.0
 11
252.51115562641834
 21
153.625
 31
0.0
  0
LINE
  5
219
  8
MyLines
 10
252.51115562641834
 20
153.625
 30
0.0
 11
253.77005112550975
 21
153.625
 31
0.0
  0
LINE
  5
21A
  8
MyLines
 10
253.77005112550975
 20
153.625
 30
0.0
 11
255.0289466246012
 21
153.625
 31
0.0
  0
LINE
  5
21B
  8
MyLines
 10
255.0289466246012
 20
153.625
 30
0.0
 11
256.28784212369254
 21
153.625
 31
0.0
  0
LINE
  5
21C
  8
MyLines
 10
256.28784212369254
 20
153.625
 30
0.0
 11
257.546737622784
 21
153.625
 31
0.0
  0
LINE
  5
21D
  8
MyLines
 10
257.546737622784
 20
153.625
 30
0.0
 11
258.8056331218754
 21
153.625
 31
0.0
  0
LINE
  5
21E
  8
MyLines
 10
258.8056331218754
 20
153.625
 30
0.0
 11
260.06452862096677
 21
153.625
 31
0.0
  0
LINE
  5
21F
  8
MyLines
 10
260.06452862096677
 20
153.625
 30
0.0
 11
261.32342412005823
 21
153.625
 31
0.0
  0
LINE
  5
220
  8
MyLines
 10
261.32342412005823
 20
153.625
 30
0.0
 11
262.58231961914964
 21
153.625
 31
0.0
  0
LINE
  5
221
  8
MyLines
 10
262.58231961914964
 20
153.625
 30
0.0
 11
263.84121511824105
 21
153.625
 31
0.0
  0
LINE
  5
222
  8
MyLines
 10
263.84121511824105
 20
153.625
 30
0.0
 11
265.10011061733246
 21
153.625
 31
0.0
  0
LINE
  5
223
  8
MyLines
 10
265.10011061733246
 20
153.625
 30
0.0
 11
266.35900611642387
 21
153.625
 31
0.0
  0
LINE
  5
224
  8
MyLines
 10
266.35900611642387
 20
153.625
 30
0.0
 11
267.6179016155153
 21
153.625
 31
0.0
  0
LINE
  5
225
  8
MyLines
 10
267.6179016155153
 20
153.625
 30
0.0
 11
268.8767971146067
 21
153.625
 31
0.0
  0
LINE
  5
226
  8
MyLines
 10
268.8767971146067
 20
153.625
 30
0.0
 11
270.1356926136981
 21
153.625
 31
0.0
  0
LINE
  5
227
  8
MyLines
 10
270.1356926136981
 20
153.625
 30
0.0
 11
271.3945881127895
 21
153.625
 31
0.0
  0
LINE
  5
228
  8
MyLines
 10
271.3945881127895
 20
153.625
 30
0.0
 11
272.6534836118809
 21
153.625
 31
0.0
  0
LINE
  5
229
  8
MyLines
 10
272.6534836118809
 20
153.625
 30
0.0
 11
273.9123791109724
 21
153.625
 31
0.0
  0
LINE
  5
22A
  8
MyLines
 10
273.9123791109724
 20
153.625
 30
0.0
 11
275.17127461006373
 21
153.625
 31
0.0
  0
LINE
  5
22B
  8
MyLines
 10
275.17127461006373
 20
153.625
 30
0.0
 11
276.43017010915514
 21
153.625
 31
0.0
  0
LINE
  5
22C
  8
MyLines
 10
276.43017010915514
 20
153.625
 30
0.0
 11
277.6890656082466
 21
153.625
 31
0.0
  0
LINE
  5
22D
  8
MyLines
 10
277.6890656082466
 20
153.625
 30
0.0
 11
278.94796110733796
 21
153.625
 31
0.0
  0
LINE
  5
22E
  8
MyLines
 10
278.94796110733796
 20
153.625
 30
0.0
 11
280.2068566064294
 21
153.625
 31
0.0
  0
LINE
  5
22F
  8
MyLines
 10
280.2068566064294
 20
153.625
 30
0.0
 11
280.2068566064294
 21
-141.71875
 31
0.0
  0
LINE
  5
230
  8
MyLines
 10
280.2068566064294
 20
-141.71875
 30
0.0
 11
280.2068566064294
 21
-141.71875
 31
0.0
  0
LINE
  5
231
  8
MyLines
 10
280.2068566064294
 20
-141.71875
 30
0.0
 11
279.0530805959341
 21
-141.71875
 31
0.0
  0
LINE
  5
232
  8
MyLines
 10
279.0530805959341
 20
-141.71875
 30
0.0
 11
277.89930458543876
 21
-141.71875
 31
0.0
  0
LINE
  5
233
  8
MyLines
 10
277.89930458543876
 20
-141.71875
 30
0.0
 11
276.7455285749434
 21
-141.71875
 31
0.0
  0
LINE
  5
234
  8
MyLines
 10
276.7455285749434
 20
-141.71875
 30
0.0
 11
275.5917525644481
 21
-141.71875
 31
0.0
  0
LINE
  5
235
  8
MyLines
 10
275.5917525644481
 20
-141.71875
 30
0.0
 11
274.43797655395275
 21
-141.71875
 31
0.0
  0
LINE
  5
236
  8
MyLines
 10
274.43797655395275
 20
-141.71875
 30
0.0
 11
273.2842005434575
 21
-141.71875
 31
0.0
  0
LINE
  5
237
  8
MyLines
 10
273.2842005434575
 20
-141.71875
 30
0.0
 11
272.1304245329621
 21
-141.71875
 31
0.0
  0
LINE
  5
238
  8
MyLines
 10
272.1304245329621
 20
-141.71875
 30
0.0
 11
270.9766485224668
 21
-141.71875
 31
0.0
  0
LINE
  5
239
  8
MyLines
 10
270.9766485224668
 20
-141.71875
 30
0.0
 11
269.8228725119714
 21
-141.71875
 31
0.0
  0
LINE
  5
23A
  8
MyLines
 10
269.8228725119714
 20
-141.71875
 30
0.0
 11
268.66909650147613
 21
-141.71875
 31
0.0
  0
LINE
  5
23B
  8
MyLines
 10
268.66909650147613
 20
-141.71875
 30
0.0
 11
267.5153204909808
 21
-141.71875
 31
0.0
  0
LINE
  5
23C
  8
MyLines
 10
267.5153204909808
 20
-141.71875
 30
0.0
 11
266.36154448048546
 21
-141.71875
 31
0.0
  0
LINE
  5
23D
  8
MyLines
 10
266.36154448048546
 20
-141.71875
 30
0.0
 11
265.2077684699901
 21
-141.71875
 31
0.0
  0
LINE
  5
23E
  8
MyLines
 10
265.2077684699901
 20
-141.71875
 30
0.0
 11
264.0539924594948
 21
-141.71875
 31
0.0
  0
LINE
  5
23F
  8
MyLines
 10
264.0539924594948
 20
-141.71875
 30
0.0
 11
262.90021644899946
 21
-141.71875
 31
0.0
  0
LINE
  5
240
  8
MyLines
 10
262.90021644899946
 20
-141.71875
 30
0.0
 11
261.7464404385041
 21
-141.71875
 31
0.0
  0
LINE
  5
241
  8
MyLines
 10
261.7464404385041
 20
-141.71875
 30
0.0
 11
260.5926644280088
 21
-141.71875
 31
0.0
  0
LINE
  5
242
  8
MyLines
 10
260.5926644280088
 20
-141.71875
 30
0.0
 11
259.43888841751345
 21
-141.71875
 31
0.0
  0
LINE
  5
243
  8
MyLines
 10
259.43888841751345
 20
-141.71875
 30
0.0
 11
258.2851124070181
 21
-141.71875
 31
0.0
  0
LINE
  5
244
  8
MyLines
 10
258.2851124070181
 20
-141.71875
 30
0.0
 11
257.1313363965228
 21
-141.71875
 31
0.0
  0
LINE
  5
245
  8
MyLines
 10
257.1313363965228
 20
-141.71875
 30
0.0
 11
255.9775603860275
 21
-141.71875
 31
0.0
  0
LINE
  5
246
  8
MyLines
 10
255.9775603860275
 20
-141.71875
 30
0.0
 11
254.82378437553214
 21
-141.71875
 31
0.0
  0
LINE
  5
247
  8
MyLines
 10
254.82378437553214
 20
-141.71875
 30
0.0
 11
253.67000836503684
 21
-141.71875
 31
0.0
  0
LINE
  5
248
  8
MyLines
 10
253.67000836503684
 20
-141.71875
 30
0.0
 11
252.5162323545415
 21
-141.71875
 31
0.0
  0
LINE
  5
249
  8
MyLines
 10
252.5162323545415
 20
-141.71875
 30
0.0
 11
251.36245634404617
 21
-141.71875
 31
0.0
  0
LINE
  5
24A
  8
MyLines
 10
251.36245634404617
 20
-141.71875
 30
0.0
 11
250.20868033355083
 21
-141.71875
 31
0.0
  0
LINE
  5
24B
  8
MyLines
 10
250.20868033355083
 20
-141.71875
 30
0.0
 11
249.0549043230555
 21
-141.71875
 31
0.0
  0
LINE
  5
24C
  8
MyLines
 10
249.0549043230555
 20
-141.71875
 30
0.0
 11
247.9011283125602
 21
-141.71875
 31
0.0
  0
LINE
  5
24D
  8
MyLines
 10
247.9011283125602
 20
-141.71875
 30
0.0
 11
246.74735230206485
 21
-141.71875
 31
0.0
  0
LINE
  5
24E
  8
MyLines
 10
246.74735230206485
 20
-141.71875
 30
0.0
 11
245.59357629156952
 21
-141.71875
 31
0.0
  0
LINE
  5
24F
  8
MyLines
 10
245.59357629156952
 20
-141.71875
 30
0.0
 11
244.43980028107418
 21
-141.71875
 31
0.0
  0
LINE
  5
250
  8
MyLines
 10
244.43980028107418
 20
-141.71875
 30
0.0
 11
243.28602427057885
 21
-141.71875
 31
0.0
  0
LINE
  5
251
  8
MyLines
 10
243.28602427057885
 20
-141.71875
 30
0.0
 11
242.13224826008354
 21
-141.71875
 31
0.0
  0
LINE
  5
252
  8
MyLines
 10
242.13224826008354
 20
-141.71875
 30
0.0
 11
240.9784722495882
 21
-141.71875
 31
0.0
  0
LINE
  5
253
  8
MyLines
 10
240.9784722495882
 20
-141.71875
 30
0.0
 11
239.82469623909287
 21
-141.71875
 31
0.0
  0
LINE
  5
254
  8
MyLines
 10
239.82469623909287
 20
-141.71875
 30
0.0
 11
238.67092022859754
 21
-141.71875
 31
0.0
  0
LINE
  5
255
  8
MyLines
 10
238.67092022859754
 20
-141.71875
 30
0.0
 11
237.5171442181022
 21
-141.71875
 31
0.0
  0
LINE
  5
256
  8
MyLines
 10
237.5171442181022
 20
-141.71875
 30
0.0
 11
236.3633682076069
 21
-141.71875
 31
0.0
  0
LINE
  5
257
  8
MyLines
 10
236.3633682076069
 20
-141.71875
 30
0.0
 11
235.20959219711156
 21
-141.71875
 31
0.0
  0
LINE
  5
258
  8
MyLines
 10
235.20959219711156
 20
-141.71875
 30
0.0
 11
234.05581618661623
 21
-141.71875
 31
0.0
  0
LINE
  5
259
  8
MyLines
 10
234.05581618661623
 20
-141.71875
 30
0.0
 11
232.9020401761209
 21
-141.71875
 31
0.0
  0
LINE
  5
25A
  8
MyLines
 10
232.9020401761209
 20
-141.71875
 30
0.0
 11
231.74826416562556
 21
-141.71875
 31
0.0
  0
LINE
  5
25B
  8
MyLines
 10
231.74826416562556
 20
-141.71875
 30
0.0
 11
230.59448815513025
 21
-141.71875
 31
0.0
  0
LINE
  5
25C
  8
MyLines
 10
230.59448815513025
 20
-141.71875
 30
0.0
 11
229.44071214463492
 21
-141.71875
 31
0.0
  0
LINE
  5
25D
  8
MyLines
 10
229.44071214463492
 20
-141.71875
 30
0.0
 11
228.28693613413958
 21
-141.71875
 31
0.0
  0
LINE
  5
25E
  8
MyLines
 10
228.28693613413958
 20
-141.71875
 30
0.0
 11
227.13316012364425
 21
-141.71875
 31
0.0
  0
LINE
  5
25F
  8
MyLines
 10
227.13316012364425
 20
-141.71875
 30
0.0
 11
225.9793841131489
 21
-141.71875
 31
0.0
  0
LINE
  5
260
  8
MyLines
 10
225.9793841131489
 20
-141.71875
 30
0.0
 11
224.8256081026536
 21
-141.71875
 31
0.0
  0
LINE
  5
261
  8
MyLines
 10
224.8256081026536
 20
-141.71875
 30
0.0
 11
223.67183209215827
 21
-141.71875
 31
0.0
  0
LINE
  5
262
  8
MyLines
 10
223.67183209215827
 20
-141.71875
 30
0.0
 11
223.67183209215827
 21
-141.71875
 31
0.0
  0
LINE
  5
263
  8
MyLines
 10
223.67183209215827
 20
-141.71875
 30
0.0
 11
223.67183209215827
 21
149.65625
 31
0.0
  0
LINE
  5
264
  8
MyLines
 10
223.67183209215827
 20
149.65625
 30
0.0
 11
223.67183209215827
 21
149.65625
 31
0.0
  0
LINE
  5
265
  8
MyLines
 10
223.67183209215827
 20
149.65625
 30
0.0
 11
224.7204886140575
 21
149.65625
 31
0.0
  0
LINE
  5
266
  8
MyLines
 10
224.7204886140575
 20
149.65625
 30
0.0
 11
225.76914513595676
 21
149.65625
 31
0.0
  0
LINE
  5
267
  8
MyLines
 10
225.76914513595676
 20
149.65625
 30
0.0
 11
226.817801657856
 21
149.65625
 31
0.0
  0
LINE
  5
268
  8
MyLines
 10
226.817801657856
 20
149.65625
 30
0.0
 11
227.86645817975526
 21
149.65625
 31
0.0
  0
LINE
  5
269
  8
MyLines
 10
227.86645817975526
 20
149.65625
 30
0.0
 11
228.9151147016545
 21
149.65625
 31
0.0
  0
LINE
  5
26A
  8
MyLines
 10
228.9151147016545
 20
149.65625
 30
0.0
 11
229.96377122355375
 21
149.65625
 31
0.0
  0
LINE
  5
26B
  8
MyLines
 10
229.96377122355375
 20
149.65625
 30
0.0
 11
231.01242774545298
 21
149.65625
 31
0.0
  0
LINE
  5
26C
  8
MyLines
 10
231.01242774545298
 20
149.65625
 30
0.0
 11
232.06108426735224
 21
149.65625
 31
0.0
  0
LINE
  5
26D
  8
MyLines
 10
232.06108426735224
 20
149.65625
 30
0.0
 11
233.10974078925148
 21
149.65625
 31
0.0
  0
LINE
  5
26E
  8
MyLines
 10
233.10974078925148
 20
149.65625
 30
0.0
 11
234.15839731115074
 21
149.65625
 31
0.0
  0
LINE
  5
26F
  8
MyLines
 10
234.15839731115074
 20
149.65625
 30
0.0
 11
235.20705383304997
 21
149.65625
 31
0.0
  0
LINE
  5
270
  8
MyLines
 10
235.20705383304997
 20
149.65625
 30
0.0
 11
236.25571035494923
 21
149.65625
 31
0.0
  0
LINE
  5
271
  8
MyLines
 10
236.25571035494923
 20
149.65625
 30
0.0
 11
237.30436687684846
 21
149.65625
 31
0.0
  0
LINE
  5
272
  8
MyLines
 10
237.30436687684846
 20
149.65625
 30
0.0
 11
238.35302339874772
 21
149.65625
 31
0.0
  0
LINE
  5
273
  8
MyLines
 10
238.35302339874772
 20
149.65625
 30
0.0
 11
239.40167992064696
 21
149.65625
 31
0.0
  0
LINE
  5
274
  8
MyLines
 10
239.40167992064696
 20
149.65625
 30
0.0
 11
240.45033644254622
 21
149.65625
 31
0.0
  0
LINE
  5
275
  8
MyLines
 10
240.45033644254622
 20
149.65625
 30
0.0
 11
241.49899296444548
 21
149.65625
 31
0.0
  0
LINE
  5
276
  8
MyLines
 10
241.49899296444548
 20
149.65625
 30
0.0
 11
242.5476494863447
 21
149.65625
 31
0.0
  0
LINE
  5
277
  8
MyLines
 10
242.5476494863447
 20
149.65625
 30
0.0
 11
243.59630600824394
 21
149.65625
 31
0.0
  0
LINE
  5
278
  8
MyLines
 10
243.59630600824394
 20
149.65625
 30
0.0
 11
244.6449625301432
 21
149.65625
 31
0.0
  0
LINE
  5
279
  8
MyLines
 10
244.6449625301432
 20
149.65625
 30
0.0
 11
245.69361905204246
 21
149.65625
 31
0.0
  0
LINE
  5
27A
  8
MyLines
 10
245.69361905204246
 20
149.65625
 30
0.0
 11
246.7422755739417
 21
149.65625
 31
0.0
  0
LINE
  5
27B
  8
MyLines
 10
246.7422755739417
 20
149.65625
 30
0.0
 11
247.79093209584093
 21
149.65625
 31
0.0
  0
LINE
  5
27C
  8
MyLines
 10
247.79093209584093
 20
149.65625
 30
0.0
 11
248.8395886177402
 21
149.65625
 31
0.0
  0
LINE
  5
27D
  8
MyLines
 10
248.8395886177402
 20
149.65625
 30
0.0
 11
249.88824513963945
 21
149.65625
 31
0.0
  0
LINE
  5
27E
  8
MyLines
 10
249.88824513963945
 20
149.65625
 30
0.0
 11
250.93690166153868
 21
149.65625
 31
0.0
  0
LINE
  5
27F
  8
MyLines
 10
250.93690166153868
 20
149.65625
 30
0.0
 11
251.98555818343792
 21
149.65625
 31
0.0
  0
LINE
  5
280
  8
MyLines
 10
251.98555818343792
 20
149.65625
 30
0.0
 11
253.03421470533718
 21
149.65625
 31
0.0
  0
LINE
  5
281
  8
MyLines
 10
253.03421470533718
 20
149.65625
 30
0.0
 11
254.0828712272364
 21
149.65625
 31
0.0
  0
LINE
  5
282
  8
MyLines
 10
254.0828712272364
 20
149.65625
 30
0.0
 11
255.1315277491357
 21
149.65625
 31
0.0
  0
LINE
  5
283
  8
MyLines
 10
255.1315277491357
 20
149.65625
 30
0.0
 11
256.18018427103493
 21
149.65625
 31
0.0
  0
LINE
  5
284
  8
MyLines
 10
256.18018427103493
 20
149.65625
 30
0.0
 11
257.2288407929342
 21
149.65625
 31
0.0
  0
LINE
  5
285
  8
MyLines
 10
257.2288407929342
 20
149.65625
 30
0.0
 11
258.2774973148334
 21
149.65625
 31
0.0
  0
LINE
  5
286
  8
MyLines
 10
258.2774973148334
 20
149.65625
 30
0.0
 11
259.32615383673266
 21
149.65625
 31
0.0
  0
LINE
  5
287
  8
MyLines
 10
259.32615383673266
 20
149.65625
 30
0.0
 11
260.3748103586319
 21
149.65625
 31
0.0
  0
LINE
  5
288
  8
MyLines
 10
260.3748103586319
 20
149.65625
 30
0.0
 11
261.4234668805311
 21
149.65625
 31
0.0
  0
LINE
  5
289
  8
MyLines
 10
261.4234668805311
 20
149.65625
 30
0.0
 11
262.4721234024304
 21
149.65625
 31
0.0
  0
LINE
  5
28A
  8
MyLines
 10
262.4721234024304
 20
149.65625
 30
0.0
 11
263.52077992432964
 21
149.65625
 31
0.0
  0
LINE
  5
28B
  8
MyLines
 10
263.52077992432964
 20
149.65625
 30
0.0
 11
264.5694364462289
 21
149.65625
 31
0.0
  0
LINE
  5
28C
  8
MyLines
 10
264.5694364462289
 20
149.65625
 30
0.0
 11
265.61809296812817
 21
149.65625
 31
0.0
  0
LINE
  5
28D
  8
MyLines
 10
265.61809296812817
 20
149.65625
 30
0.0
 11
266.66674949002737
 21
149.65625
 31
0.0
  0
LINE
  5
28E
  8
MyLines
 10
266.66674949002737
 20
149.65625
 30
0.0
 11
267.71540601192663
 21
149.65625
 31
0.0
  0
LINE
  5
28F
  8
MyLines
 10
267.71540601192663
 20
149.65625
 30
0.0
 11
268.7640625338259
 21
149.65625
 31
0.0
  0
LINE
  5
290
  8
MyLines
 10
268.7640625338259
 20
149.65625
 30
0.0
 11
269.8127190557251
 21
149.65625
 31
0.0
  0
LINE
  5
291
  8
MyLines
 10
269.8127190557251
 20
149.65625
 30
0.0
 11
270.8613755776244
 21
149.65625
 31
0.0
  0
LINE
  5
292
  8
MyLines
 10
270.8613755776244
 20
149.65625
 30
0.0
 11
271.9100320995237
 21
149.65625
 31
0.0
  0
LINE
  5
293
  8
MyLines
 10
271.9100320995237
 20
149.65625
 30
0.0
 11
272.9586886214229
 21
149.65625
 31
0.0
  0
LINE
  5
294
  8
MyLines
 10
272.9586886214229
 20
149.65625
 30
0.0
 11
274.00734514332214
 21
149.65625
 31
0.0
  0
LINE
  5
295
  8
MyLines
 10
274.00734514332214
 20
149.65625
 30
0.0
 11
275.05600166522134
 21
149.65625
 31
0.0
  0
LINE
  5
296
  8
MyLines
 10
275.05600166522134
 20
149.65625
 30
0.0
 11
275.05600166522134
 21
-137.75
 31
0.0
  0
LINE
  5
297
  8
MyLines
 10
275.05600166522134
 20
-137.75
 30
0.0
 11
275.05600166522134
 21
-137.75
 31
0.0
  0
LINE
  5
298
  8
MyLines
 10
275.05600166522134
 20
-137.75
 30
0.0
 11
274.1337957658065
 21
-137.75
 31
0.0
  0
LINE
  5
299
  8
MyLines
 10
274.1337957658065
 20
-137.75
 30
0.0
 11
273.2115898663916
 21
-137.75
 31
0.0
  0
LINE
  5
29A
  8
MyLines
 10
273.2115898663916
 20
-137.75
 30
0.0
 11
272.28938396697663
 21
-137.75
 31
0.0
  0
LINE
  5
29B
  8
MyLines
 10
272.28938396697663
 20
-137.75
 30
0.0
 11
271.3671780675617
 21
-137.75
 31
0.0
  0
LINE
  5
29C
  8
MyLines
 10
271.3671780675617
 20
-137.75
 30
0.0
 11
270.4449721681468
 21
-137.75
 31
0.0
  0
LINE
  5
29D
  8
MyLines
 10
270.4449721681468
 20
-137.75
 30
0.0
 11
269.52276626873197
 21
-137.75
 31
0.0
  0
LINE
  5
29E
  8
MyLines
 10
269.52276626873197
 20
-137.75
 30
0.0
 11
268.600560369317
 21
-137.75
 31
0.0
  0
LINE
  5
29F
  8
MyLines
 10
268.600560369317
 20
-137.75
 30
0.0
 11
267.6783544699021
 21
-137.75
 31
0.0
  0
LINE
  5
2A0
  8
MyLines
 10
267.6783544699021
 20
-137.75
 30
0.0
 11
266.7561485704872
 21
-137.75
 31
0.0
  0
LINE
  5
2A1
  8
MyLines
 10
266.7561485704872
 20
-137.75
 30
0.0
 11
265.8339426710723
 21
-137.75
 31
0.0
  0
LINE
  5
2A2
  8
MyLines
 10
265.8339426710723
 20
-137.75
 30
0.0
 11
264.9117367716574
 21
-137.75
 31
0.0
  0
LINE
  5
2A3
  8
MyLines
 10
264.9117367716574
 20
-137.75
 30
0.0
 11
263.9895308722425
 21
-137.75
 31
0.0
  0
LINE
  5
2A4
  8
MyLines
 10
263.9895308722425
 20
-137.75
 30
0.0
 11
263.0673249728276
 21
-137.75
 31
0.0
  0
LINE
  5
2A5
  8
MyLines
 10
263.0673249728276
 20
-137.75
 30
0.0
 11
262.1451190734127
 21
-137.75
 31
0.0
  0
LINE
  5
2A6
  8
MyLines
 10
262.1451190734127
 20
-137.75
 30
0.0
 11
261.2229131739977
 21
-137.75
 31
0.0
  0
LINE
  5
2A7
  8
MyLines
 10
261.2229131739977
 20
-137.75
 30
0.0
 11
260.3007072745828
 21
-137.75
 31
0.0
  0
LINE
  5
2A8
  8
MyLines
 10
260.3007072745828
 20
-137.75
 30
0.0
 11
259.37850137516796
 21
-137.75
 31
0.0
  0
LINE
  5
2A9
  8
MyLines
 10
259.37850137516796
 20
-137.75
 30
0.0
 11
258.45629547575305
 21
-137.75
 31
0.0
  0
LINE
  5
2AA
  8
MyLines
 10
258.45629547575305
 20
-137.75
 30
0.0
 11
257.5340895763381
 21
-137.75
 31
0.0
  0
LINE
  5
2AB
  8
MyLines
 10
257.5340895763381
 20
-137.75
 30
0.0
 11
256.6118836769232
 21
-137.75
 31
0.0
  0
LINE
  5
2AC
  8
MyLines
 10
256.6118836769232
 20
-137.75
 30
0.0
 11
255.6896777775083
 21
-137.75
 31
0.0
  0
LINE
  5
2AD
  8
MyLines
 10
255.6896777775083
 20
-137.75
 30
0.0
 11
254.7674718780934
 21
-137.75
 31
0.0
  0
LINE
  5
2AE
  8
MyLines
 10
254.7674718780934
 20
-137.75
 30
0.0
 11
253.8452659786785
 21
-137.75
 31
0.0
  0
LINE
  5
2AF
  8
MyLines
 10
253.8452659786785
 20
-137.75
 30
0.0
 11
252.92306007926356
 21
-137.75
 31
0.0
  0
LINE
  5
2B0
  8
MyLines
 10
252.92306007926356
 20
-137.75
 30
0.0
 11
252.00085417984866
 21
-137.75
 31
0.0
  0
LINE
  5
2B1
  8
MyLines
 10
252.00085417984866
 20
-137.75
 30
0.0
 11
251.07864828043375
 21
-137.75
 31
0.0
  0
LINE
  5
2B2
  8
MyLines
 10
251.07864828043375
 20
-137.75
 30
0.0
 11
250.15644238101885
 21
-137.75
 31
0.0
  0
LINE
  5
2B3
  8
MyLines
 10
250.15644238101885
 20
-137.75
 30
0.0
 11
249.23423648160392
 21
-137.75
 31
0.0
  0
LINE
  5
2B4
  8
MyLines
 10
249.23423648160392
 20
-137.75
 30
0.0
 11
248.31203058218904
 21
-137.75
 31
0.0
  0
LINE
  5
2B5
  8
MyLines
 10
248.31203058218904
 20
-137.75
 30
0.0
 11
247.3898246827741
 21
-137.75
 31
0.0
  0
LINE
  5
2B6
  8
MyLines
 10
247.3898246827741
 20
-137.75
 30
0.0
 11
246.46761878335923
 21
-137.75
 31
0.0
  0
LINE
  5
2B7
  8
MyLines
 10
246.46761878335923
 20
-137.75
 30
0.0
 11
245.5454128839443
 21
-137.75
 31
0.0
  0
LINE
  5
2B8
  8
MyLines
 10
245.5454128839443
 20
-137.75
 30
0.0
 11
244.6232069845294
 21
-137.75
 31
0.0
  0
LINE
  5
2B9
  8
MyLines
 10
244.6232069845294
 20
-137.75
 30
0.0
 11
243.70100108511448
 21
-137.75
 31
0.0
  0
LINE
  5
2BA
  8
MyLines
 10
243.70100108511448
 20
-137.75
 30
0.0
 11
242.77879518569958
 21
-137.75
 31
0.0
  0
LINE
  5
2BB
  8
MyLines
 10
242.77879518569958
 20
-137.75
 30
0.0
 11
241.85658928628465
 21
-137.75
 31
0.0
  0
LINE
  5
2BC
  8
MyLines
 10
241.85658928628465
 20
-137.75
 30
0.0
 11
240.93438338686977
 21
-137.75
 31
0.0
  0
LINE
  5
2BD
  8
MyLines
 10
240.93438338686977
 20
-137.75
 30
0.0
 11
240.01217748745486
 21
-137.75
 31
0.0
  0
LINE
  5
2BE
  8
MyLines
 10
240.01217748745486
 20
-137.75
 30
0.0
 11
239.08997158803996
 21
-137.75
 31
0.0
  0
LINE
  5
2BF
  8
MyLines
 10
239.08997158803996
 20
-137.75
 30
0.0
 11
238.16776568862502
 21
-137.75
 31
0.0
  0
LINE
  5
2C0
  8
MyLines
 10
238.16776568862502
 20
-137.75
 30
0.0
 11
237.24555978921012
 21
-137.75
 31
0.0
  0
LINE
  5
2C1
  8
MyLines
 10
237.24555978921012
 20
-137.75
 30
0.0
 11
236.32335388979524
 21
-137.75
 31
0.0
  0
LINE
  5
2C2
  8
MyLines
 10
236.32335388979524
 20
-137.75
 30
0.0
 11
235.4011479903803
 21
-137.75
 31
0.0
  0
LINE
  5
2C3
  8
MyLines
 10
235.4011479903803
 20
-137.75
 30
0.0
 11
234.4789420909654
 21
-137.75
 31
0.0
  0
LINE
  5
2C4
  8
MyLines
 10
234.4789420909654
 20
-137.75
 30
0.0
 11
233.5567361915505
 21
-137.75
 31
0.0
  0
LINE
  5
2C5
  8
MyLines
 10
233.5567361915505
 20
-137.75
 30
0.0
 11
232.6345302921356
 21
-137.75
 31
0.0
  0
LINE
  5
2C6
  8
MyLines
 10
232.6345302921356
 20
-137.75
 30
0.0
 11
231.7123243927207
 21
-137.75
 31
0.0
  0
LINE
  5
2C7
  8
MyLines
 10
231.7123243927207
 20
-137.75
 30
0.0
 11
230.79011849330576
 21
-137.75
 31
0.0
  0
LINE
  5
2C8
  8
MyLines
 10
230.79011849330576
 20
-137.75
 30
0.0
 11
229.86791259389085
 21
-137.75
 31
0.0
  0
LINE
  5
2C9
  8
MyLines
 10
229.86791259389085
 20
-137.75
 30
0.0
 11
229.86791259389085
 21
-137.75
 31
0.0
  0
LINE
  5
2CA
  8
MyLines
 10
229.86791259389085
 20
-137.75
 30
0.0
 11
229.86791259389085
 21
145.6875
 31
0.0
  0
LINE
  5
2CB
  8
MyLines
 10
229.86791259389085
 20
145.6875
 30
0.0
 11
229.86791259389085
 21
145.6875
 31
0.0
  0
LINE
  5
2CC
  8
MyLines
 10
229.86791259389085
 20
145.6875
 30
0.0
 11
230.66366787082143
 21
145.6875
 31
0.0
  0
LINE
  5
2CD
  8
MyLines
 10
230.66366787082143
 20
145.6875
 30
0.0
 11
231.45942314775198
 21
145.6875
 31
0.0
  0
LINE
  5
2CE
  8
MyLines
 10
231.45942314775198
 20
145.6875
 30
0.0
 11
232.25517842468255
 21
145.6875
 31
0.0
  0
LINE
  5
2CF
  8
MyLines
 10
232.25517842468255
 20
145.6875
 30
0.0
 11
233.05093370161313
 21
145.6875
 31
0.0
  0
LINE
  5
2D0
  8
MyLines
 10
233.05093370161313
 20
145.6875
 30
0.0
 11
233.8466889785437
 21
145.6875
 31
0.0
  0
LINE
  5
2D1
  8
MyLines
 10
233.8466889785437
 20
145.6875
 30
0.0
 11
234.64244425547426
 21
145.6875
 31
0.0
  0
LINE
  5
2D2
  8
MyLines
 10
234.64244425547426
 20
145.6875
 30
0.0
 11
235.43819953240484
 21
145.6875
 31
0.0
  0
LINE
  5
2D3
  8
MyLines
 10
235.43819953240484
 20
145.6875
 30
0.0
 11
236.23395480933542
 21
145.6875
 31
0.0
  0
LINE
  5
2D4
  8
MyLines
 10
236.23395480933542
 20
145.6875
 30
0.0
 11
237.029710086266
 21
145.6875
 31
0.0
  0
LINE
  5
2D5
  8
MyLines
 10
237.029710086266
 20
145.6875
 30
0.0
 11
237.82546536319654
 21
145.6875
 31
0.0
  0
LINE
  5
2D6
  8
MyLines
 10
237.82546536319654
 20
145.6875
 30
0.0
 11
238.62122064012712
 21
145.6875
 31
0.0
  0
LINE
  5
2D7
  8
MyLines
 10
238.62122064012712
 20
145.6875
 30
0.0
 11
239.4169759170577
 21
145.6875
 31
0.0
  0
LINE
  5
2D8
  8
MyLines
 10
239.4169759170577
 20
145.6875
 30
0.0
 11
240.21273119398828
 21
145.6875
 31
0.0
  0
LINE
  5
2D9
  8
MyLines
 10
240.21273119398828
 20
145.6875
 30
0.0
 11
241.00848647091883
 21
145.6875
 31
0.0
  0
LINE
  5
2DA
  8
MyLines
 10
241.00848647091883
 20
145.6875
 30
0.0
 11
241.8042417478494
 21
145.6875
 31
0.0
  0
LINE
  5
2DB
  8
MyLines
 10
241.8042417478494
 20
145.6875
 30
0.0
 11
242.59999702477998
 21
145.6875
 31
0.0
  0
LINE
  5
2DC
  8
MyLines
 10
242.59999702477998
 20
145.6875
 30
0.0
 11
243.39575230171053
 21
145.6875
 31
0.0
  0
LINE
  5
2DD
  8
MyLines
 10
243.39575230171053
 20
145.6875
 30
0.0
 11
244.1915075786411
 21
145.6875
 31
0.0
  0
LINE
  5
2DE
  8
MyLines
 10
244.1915075786411
 20
145.6875
 30
0.0
 11
244.9872628555717
 21
145.6875
 31
0.0
  0
LINE
  5
2DF
  8
MyLines
 10
244.9872628555717
 20
145.6875
 30
0.0
 11
245.78301813250226
 21
145.6875
 31
0.0
  0
LINE
  5
2E0
  8
MyLines
 10
245.78301813250226
 20
145.6875
 30
0.0
 11
246.5787734094328
 21
145.6875
 31
0.0
  0
LINE
  5
2E1
  8
MyLines
 10
246.5787734094328
 20
145.6875
 30
0.0
 11
247.3745286863634
 21
145.6875
 31
0.0
  0
LINE
  5
2E2
  8
MyLines
 10
247.3745286863634
 20
145.6875
 30
0.0
 11
248.17028396329397
 21
145.6875
 31
0.0
  0
LINE
  5
2E3
  8
MyLines
 10
248.17028396329397
 20
145.6875
 30
0.0
 11
248.96603924022455
 21
145.6875
 31
0.0
  0
LINE
  5
2E4
  8
MyLines
 10
248.96603924022455
 20
145.6875
 30
0.0
 11
249.7617945171551
 21
145.6875
 31
0.0
  0
LINE
  5
2E5
  8
MyLines
 10
249.7617945171551
 20
145.6875
 30
0.0
 11
250.55754979408567
 21
145.6875
 31
0.0
  0
LINE
  5
2E6
  8
MyLines
 10
250.55754979408567
 20
145.6875
 30
0.0
 11
251.35330507101625
 21
145.6875
 31
0.0
  0
LINE
  5
2E7
  8
MyLines
 10
251.35330507101625
 20
145.6875
 30
0.0
 11
252.1490603479468
 21
145.6875
 31
0.0
  0
LINE
  5
2E8
  8
MyLines
 10
252.1490603479468
 20
145.6875
 30
0.0
 11
252.94481562487738
 21
145.6875
 31
0.0
  0
LINE
  5
2E9
  8
MyLines
 10
252.94481562487738
 20
145.6875
 30
0.0
 11
253.74057090180796
 21
145.6875
 31
0.0
  0
LINE
  5
2EA
  8
MyLines
 10
253.74057090180796
 20
145.6875
 30
0.0
 11
254.5363261787385
 21
145.6875
 31
0.0
  0
LINE
  5
2EB
  8
MyLines
 10
254.5363261787385
 20
145.6875
 30
0.0
 11
255.3320814556691
 21
145.6875
 31
0.0
  0
LINE
  5
2EC
  8
MyLines
 10
255.3320814556691
 20
145.6875
 30
0.0
 11
256.1278367325997
 21
145.6875
 31
0.0
  0
LINE
  5
2ED
  8
MyLines
 10
256.1278367325997
 20
145.6875
 30
0.0
 11
256.92359200953024
 21
145.6875
 31
0.0
  0
LINE
  5
2EE
  8
MyLines
 10
256.92359200953024
 20
145.6875
 30
0.0
 11
257.71934728646085
 21
145.6875
 31
0.0
  0
LINE
  5
2EF
  8
MyLines
 10
257.71934728646085
 20
145.6875
 30
0.0
 11
258.5151025633914
 21
145.6875
 31
0.0
  0
LINE
  5
2F0
  8
MyLines
 10
258.5151025633914
 20
145.6875
 30
0.0
 11
259.310857840322
 21
145.6875
 31
0.0
  0
LINE
  5
2F1
  8
MyLines
 10
259.310857840322
 20
145.6875
 30
0.0
 11
260.10661311725255
 21
145.6875
 31
0.0
  0
LINE
  5
2F2
  8
MyLines
 10
260.10661311725255
 20
145.6875
 30
0.0
 11
260.9023683941831
 21
145.6875
 31
0.0
  0
LINE
  5
2F3
  8
MyLines
 10
260.9023683941831
 20
145.6875
 30
0.0
 11
261.6981236711137
 21
145.6875
 31
0.0
  0
LINE
  5
2F4
  8
MyLines
 10
261.6981236711137
 20
145.6875
 30
0.0
 11
262.49387894804426
 21
145.6875
 31
0.0
  0
LINE
  5
2F5
  8
MyLines
 10
262.49387894804426
 20
145.6875
 30
0.0
 11
263.2896342249748
 21
145.6875
 31
0.0
  0
LINE
  5
2F6
  8
MyLines
 10
263.2896342249748
 20
145.6875
 30
0.0
 11
264.0853895019054
 21
145.6875
 31
0.0
  0
LINE
  5
2F7
  8
MyLines
 10
264.0853895019054
 20
145.6875
 30
0.0
 11
264.88114477883596
 21
145.6875
 31
0.0
  0
LINE
  5
2F8
  8
MyLines
 10
264.88114477883596
 20
145.6875
 30
0.0
 11
265.6769000557665
 21
145.6875
 31
0.0
  0
LINE
  5
2F9
  8
MyLines
 10
265.6769000557665
 20
145.6875
 30
0.0
 11
266.4726553326971
 21
145.6875
 31
0.0
  0
LINE
  5
2FA
  8
MyLines
 10
266.4726553326971
 20
145.6875
 30
0.0
 11
267.26841060962767
 21
145.6875
 31
0.0
  0
LINE
  5
2FB
  8
MyLines
 10
267.26841060962767
 20
145.6875
 30
0.0
 11
268.06416588655827
 21
145.6875
 31
0.0
  0
LINE
  5
2FC
  8
MyLines
 10
268.06416588655827
 20
145.6875
 30
0.0
 11
268.8599211634888
 21
145.6875
 31
0.0
  0
LINE
  5
2FD
  8
MyLines
 10
268.8599211634888
 20
145.6875
 30
0.0
 11
268.8599211634888
 21
-133.78125
 31
0.0
  0
LINE
  5
2FE
  8
MyLines
 10
268.8599211634888
 20
-133.78125
 30
0.0
 11
268.8599211634888
 21
-133.78125
 31
0.0
  0
LINE
  5
2FF
  8
MyLines
 10
268.8599211634888
 20
-133.78125
 30
0.0
 11
268.29831703317126
 21
-133.78125
 31
0.0
  0
LINE
  5
300
  8
MyLines
 10
268.29831703317126
 20
-133.78125
 30
0.0
 11
267.7367129028537
 21
-133.78125
 31
0.0
  0
LINE
  5
301
  8
MyLines
 10
267.7367129028537
 20
-133.78125
 30
0.0
 11
267.17510877253613
 21
-133.78125
 31
0.0
  0
LINE
  5
302
  8
MyLines
 10
267.17510877253613
 20
-133.78125
 30
0.0
 11
266.6135046422186
 21
-133.78125
 31
0.0
  0
LINE
  5
303
  8
MyLines
 10
266.6135046422186
 20
-133.78125
 30
0.0
 11
266.05190051190107
 21
-133.78125
 31
0.0
  0
LINE
  5
304
  8
MyLines
 10
266.05190051190107
 20
-133.78125
 30
0.0
 11
265.49029638158345
 21
-133.78125
 31
0.0
  0
LINE
  5
305
  8
MyLines
 10
265.49029638158345
 20
-133.78125
 30
0.0
 11
264.92869225126594
 21
-133.78125
 31
0.0
  0
LINE
  5
306
  8
MyLines
 10
264.92869225126594
 20
-133.78125
 30
0.0
 11
264.3670881209484
 21
-133.78125
 31
0.0
  0
LINE
  5
307
  8
MyLines
 10
264.3670881209484
 20
-133.78125
 30
0.0
 11
263.8054839906308
 21
-133.78125
 31
0.0
  0
LINE
  5
308
  8
MyLines
 10
263.8054839906308
 20
-133.78125
 30
0.0
 11
263.2438798603133
 21
-133.78125
 31
0.0
  0
LINE
  5
309
  8
MyLines
 10
263.2438798603133
 20
-133.78125
 30
0.0
 11
262.68227572999575
 21
-133.78125
 31
0.0
  0
LINE
  5
30A
  8
MyLines
 10
262.68227572999575
 20
-133.78125
 30
0.0
 11
262.1206715996782
 21
-133.78125
 31
0.0
  0
LINE
  5
30B
  8
MyLines
 10
262.1206715996782
 20
-133.78125
 30
0.0
 11
261.5590674693606
 21
-133.78125
 31
0.0
  0
LINE
  5
30C
  8
MyLines
 10
261.5590674693606
 20
-133.78125
 30
0.0
 11
260.9974633390431
 21
-133.78125
 31
0.0
  0
LINE
  5
30D
  8
MyLines
 10
260.9974633390431
 20
-133.78125
 30
0.0
 11
260.4358592087255
 21
-133.78125
 31
0.0
  0
LINE
  5
30E
  8
MyLines
 10
260.4358592087255
 20
-133.78125
 30
0.0
 11
259.874255078408
 21
-133.78125
 31
0.0
  0
LINE
  5
30F
  8
MyLines
 10
259.874255078408
 20
-133.78125
 30
0.0
 11
259.3126509480905
 21
-133.78125
 31
0.0
  0
LINE
  5
310
  8
MyLines
 10
259.3126509480905
 20
-133.78125
 30
0.0
 11
258.7510468177729
 21
-133.78125
 31
0.0
  0
LINE
  5
311
  8
MyLines
 10
258.7510468177729
 20
-133.78125
 30
0.0
 11
258.18944268745537
 21
-133.78125
 31
0.0
  0
LINE
  5
312
  8
MyLines
 10
258.18944268745537
 20
-133.78125
 30
0.0
 11
257.62783855713775
 21
-133.78125
 31
0.0
  0
LINE
  5
313
  8
MyLines
 10
257.62783855713775
 20
-133.78125
 30
0.0
 11
257.06623442682024
 21
-133.78125
 31
0.0
  0
LINE
  5
314
  8
MyLines
 10
257.06623442682024
 20
-133.78125
 30
0.0
 11
256.5046302965027
 21
-133.78125
 31
0.0
  0
LINE
  5
315
  8
MyLines
 10
256.5046302965027
 20
-133.78125
 30
0.0
 11
255.94302616618515
 21
-133.78125
 31
0.0
  0
LINE
  5
316
  8
MyLines
 10
255.94302616618515
 20
-133.78125
 30
0.0
 11
255.38142203586756
 21
-133.78125
 31
0.0
  0
LINE
  5
317
  8
MyLines
 10
255.38142203586756
 20
-133.78125
 30
0.0
 11
254.81981790555002
 21
-133.78125
 31
0.0
  0
LINE
  5
318
  8
MyLines
 10
254.81981790555002
 20
-133.78125
 30
0.0
 11
254.25821377523252
 21
-133.78125
 31
0.0
  0
LINE
  5
319
  8
MyLines
 10
254.25821377523252
 20
-133.78125
 30
0.0
 11
253.69660964491493
 21
-133.78125
 31
0.0
  0
LINE
  5
31A
  8
MyLines
 10
253.69660964491493
 20
-133.78125
 30
0.0
 11
253.13500551459737
 21
-133.78125
 31
0.0
  0
LINE
  5
31B
  8
MyLines
 10
253.13500551459737
 20
-133.78125
 30
0.0
 11
252.5734013842798
 21
-133.78125
 31
0.0
  0
LINE
  5
31C
  8
MyLines
 10
252.5734013842798
 20
-133.78125
 30
0.0
 11
252.0117972539623
 21
-133.78125
 31
0.0
  0
LINE
  5
31D
  8
MyLines
 10
252.0117972539623
 20
-133.78125
 30
0.0
 11
251.45019312364474
 21
-133.78125
 31
0.0
  0
LINE
  5
31E
  8
MyLines
 10
251.45019312364474
 20
-133.78125
 30
0.0
 11
250.88858899332718
 21
-133.78125
 31
0.0
  0
LINE
  5
31F
  8
MyLines
 10
250.88858899332718
 20
-133.78125
 30
0.0
 11
250.32698486300964
 21
-133.78125
 31
0.0
  0
LINE
  5
320
  8
MyLines
 10
250.32698486300964
 20
-133.78125
 30
0.0
 11
249.76538073269208
 21
-133.78125
 31
0.0
  0
LINE
  5
321
  8
MyLines
 10
249.76538073269208
 20
-133.78125
 30
0.0
 11
249.20377660237452
 21
-133.78125
 31
0.0
  0
LINE
  5
322
  8
MyLines
 10
249.20377660237452
 20
-133.78125
 30
0.0
 11
248.64217247205698
 21
-133.78125
 31
0.0
  0
LINE
  5
323
  8
MyLines
 10
248.64217247205698
 20
-133.78125
 30
0.0
 11
248.08056834173945
 21
-133.78125
 31
0.0
  0
LINE
  5
324
  8
MyLines
 10
248.08056834173945
 20
-133.78125
 30
0.0
 11
247.5189642114219
 21
-133.78125
 31
0.0
  0
LINE
  5
325
  8
MyLines
 10
247.5189642114219
 20
-133.78125
 30
0.0
 11
246.95736008110433
 21
-133.78125
 31
0.0
  0
LINE
  5
326
  8
MyLines
 10
246.95736008110433
 20
-133.78125
 30
0.0
 11
246.3957559507868
 21
-133.78125
 31
0.0
  0
LINE
  5
327
  8
MyLines
 10
246.3957559507868
 20
-133.78125
 30
0.0
 11
245.83415182046923
 21
-133.78125
 31
0.0
  0
LINE
  5
328
  8
MyLines
 10
245.83415182046923
 20
-133.78125
 30
0.0
 11
245.27254769015167
 21
-133.78125
 31
0.0
  0
LINE
  5
329
  8
MyLines
 10
245.27254769015167
 20
-133.78125
 30
0.0
 11
244.71094355983413
 21
-133.78125
 31
0.0
  0
LINE
  5
32A
  8
MyLines
 10
244.71094355983413
 20
-133.78125
 30
0.0
 11
244.14933942951657
 21
-133.78125
 31
0.0
  0
LINE
  5
32B
  8
MyLines
 10
244.14933942951657
 20
-133.78125
 30
0.0
 11
243.587735299199
 21
-133.78125
 31
0.0
  0
LINE
  5
32C
  8
MyLines
 10
243.587735299199
 20
-133.78125
 30
0.0
 11
243.02613116888148
 21
-133.78125
 31
0.0
  0
LINE
  5
32D
  8
MyLines
 10
243.02613116888148
 20
-133.78125
 30
0.0
 11
242.46452703856394
 21
-133.78125
 31
0.0
  0
LINE
  5
32E
  8
MyLines
 10
242.46452703856394
 20
-133.78125
 30
0.0
 11
241.90292290824638
 21
-133.78125
 31
0.0
  0
LINE
  5
32F
  8
MyLines
 10
241.90292290824638
 20
-133.78125
 30
0.0
 11
241.34131877792882
 21
-133.78125
 31
0.0
  0
LINE
  5
330
  8
MyLines
 10
241.34131877792882
 20
-133.78125
 30
0.0
 11
241.34131877792882
 21
-133.78125
 31
0.0
  0
LINE
  5
331
  8
MyLines
 10
241.34131877792882
 20
-133.78125
 30
0.0
 11
241.34131877792882
 21
141.71875
 31
0.0
  0
LINE
  5
332
  8
MyLines
 10
241.34131877792882
 20
141.71875
 30
0.0
 11
241.34131877792882
 21
141.71875
 31
0.0
  0
LINE
  5
333
  8
MyLines
 10
241.34131877792882
 20
141.71875
 30
0.0
 11
241.66877176163337
 21
141.71875
 31
0.0
  0
LINE
  5
334
  8
MyLines
 10
241.66877176163337
 20
141.71875
 30
0.0
 11
241.99622474533788
 21
141.71875
 31
0.0
  0
LINE
  5
335
  8
MyLines
 10
241.99622474533788
 20
141.71875
 30
0.0
 11
242.32367772904243
 21
141.71875
 31
0.0
  0
LINE
  5
336
  8
MyLines
 10
242.32367772904243
 20
141.71875
 30
0.0
 11
242.65113071274695
 21
141.71875
 31
0.0
  0
LINE
  5
337
  8
MyLines
 10
242.65113071274695
 20
141.71875
 30
0.0
 11
242.97858369645147
 21
141.71875
 31
0.0
  0
LINE
  5
338
  8
MyLines
 10
242.97858369645147
 20
141.71875
 30
0.0
 11
243.306036680156
 21
141.71875
 31
0.0
  0
LINE
  5
339
  8
MyLines
 10
243.306036680156
 20
141.71875
 30
0.0
 11
243.63348966386053
 21
141.71875
 31
0.0
  0
LINE
  5
33A
  8
MyLines
 10
243.63348966386053
 20
141.71875
 30
0.0
 11
243.96094264756508
 21
141.71875
 31
0.0
  0
LINE
  5
33B
  8
MyLines
 10
243.96094264756508
 20
141.71875
 30
0.0
 11
244.2883956312696
 21
141.71875
 31
0.0
  0
LINE
  5
33C
  8
MyLines
 10
244.2883956312696
 20
141.71875
 30
0.0
 11
244.61584861497414
 21
141.71875
 31
0.0
  0
LINE
  5
33D
  8
MyLines
 10
244.61584861497414
 20
141.71875
 30
0.0
 11
244.94330159867866
 21
141.71875
 31
0.0
  0
LINE
  5
33E
  8
MyLines
 10
244.94330159867866
 20
141.71875
 30
0.0
 11
245.27075458238318
 21
141.71875
 31
0.0
  0
LINE
  5
33F
  8
MyLines
 10
245.27075458238318
 20
141.71875
 30
0.0
 11
245.59820756608772
 21
141.71875
 31
0.0
  0
LINE
  5
340
  8
MyLines
 10
245.59820756608772
 20
141.71875
 30
0.0
 11
245.92566054979224
 21
141.71875
 31
0.0
  0
LINE
  5
341
  8
MyLines
 10
245.92566054979224
 20
141.71875
 30
0.0
 11
246.2531135334968
 21
141.71875
 31
0.0
  0
LINE
  5
342
  8
MyLines
 10
246.2531135334968
 20
141.71875
 30
0.0
 11
246.5805665172013
 21
141.71875
 31
0.0
  0
LINE
  5
343
  8
MyLines
 10
246.5805665172013
 20
141.71875
 30
0.0
 11
246.90801950090585
 21
141.71875
 31
0.0
  0
LINE
  5
344
  8
MyLines
 10
246.90801950090585
 20
141.71875
 30
0.0
 11
247.23547248461037
 21
141.71875
 31
0.0
  0
LINE
  5
345
  8
MyLines
 10
247.23547248461037
 20
141.71875
 30
0.0
 11
247.5629254683149
 21
141.71875
 31
0.0
  0
LINE
  5
346
  8
MyLines
 10
247.5629254683149
 20
141.71875
 30
0.0
 11
247.89037845201943
 21
141.71875
 31
0.0
  0
LINE
  5
347
  8
MyLines
 10
247.89037845201943
 20
141.71875
 30
0.0
 11
248.21783143572395
 21
141.71875
 31
0.0
  0
LINE
  5
348
  8
MyLines
 10
248.21783143572395
 20
141.71875
 30
0.0
 11
248.5452844194285
 21
141.71875
 31
0.0
  0
LINE
  5
349
  8
MyLines
 10
248.5452844194285
 20
141.71875
 30
0.0
 11
248.87273740313302
 21
141.71875
 31
0.0
  0
LINE
  5
34A
  8
MyLines
 10
248.87273740313302
 20
141.71875
 30
0.0
 11
249.20019038683756
 21
141.71875
 31
0.0
  0
LINE
  5
34B
  8
MyLines
 10
249.20019038683756
 20
141.71875
 30
0.0
 11
249.52764337054208
 21
141.71875
 31
0.0
  0
LINE
  5
34C
  8
MyLines
 10
249.52764337054208
 20
141.71875
 30
0.0
 11
249.8550963542466
 21
141.71875
 31
0.0
  0
LINE
  5
34D
  8
MyLines
 10
249.8550963542466
 20
141.71875
 30
0.0
 11
250.18254933795114
 21
141.71875
 31
0.0
  0
LINE
  5
34E
  8
MyLines
 10
250.18254933795114
 20
141.71875
 30
0.0
 11
250.51000232165566
 21
141.71875
 31
0.0
  0
LINE
  5
34F
  8
MyLines
 10
250.51000232165566
 20
141.71875
 30
0.0
 11
250.8374553053602
 21
141.71875
 31
0.0
  0
LINE
  5
350
  8
MyLines
 10
250.8374553053602
 20
141.71875
 30
0.0
 11
251.16490828906473
 21
141.71875
 31
0.0
  0
LINE
  5
351
  8
MyLines
 10
251.16490828906473
 20
141.71875
 30
0.0
 11
251.49236127276927
 21
141.71875
 31
0.0
  0
LINE
  5
352
  8
MyLines
 10
251.49236127276927
 20
141.71875
 30
0.0
 11
251.8198142564738
 21
141.71875
 31
0.0
  0
LINE
  5
353
  8
MyLines
 10
251.8198142564738
 20
141.71875
 30
0.0
 11
252.1472672401783
 21
141.71875
 31
0.0
  0
LINE
  5
354
  8
MyLines
 10
252.1472672401783
 20
141.71875
 30
0.0
 11
252.47472022388285
 21
141.71875
 31
0.0
  0
LINE
  5
355
  8
MyLines
 10
252.47472022388285
 20
141.71875
 30
0.0
 11
252.80217320758737
 21
141.71875
 31
0.0
  0
LINE
  5
356
  8
MyLines
 10
252.80217320758737
 20
141.71875
 30
0.0
 11
253.12962619129192
 21
141.71875
 31
0.0
  0
LINE
  5
357
  8
MyLines
 10
253.12962619129192
 20
141.71875
 30
0.0
 11
253.45707917499644
 21
141.71875
 31
0.0
  0
LINE
  5
358
  8
MyLines
 10
253.45707917499644
 20
141.71875
 30
0.0
 11
253.78453215870098
 21
141.71875
 31
0.0
  0
LINE
  5
359
  8
MyLines
 10
253.78453215870098
 20
141.71875
 30
0.0
 11
254.1119851424055
 21
141.71875
 31
0.0
  0
LINE
  5
35A
  8
MyLines
 10
254.1119851424055
 20
141.71875
 30
0.0
 11
254.43943812611
 21
141.71875
 31
0.0
  0
LINE
  5
35B
  8
MyLines
 10
254.43943812611
 20
141.71875
 30
0.0
 11
254.76689110981457
 21
141.71875
 31
0.0
  0
LINE
  5
35C
  8
MyLines
 10
254.76689110981457
 20
141.71875
 30
0.0
 11
255.0943440935191
 21
141.71875
 31
0.0
  0
LINE
  5
35D
  8
MyLines
 10
255.0943440935191
 20
141.71875
 30
0.0
 11
255.42179707722363
 21
141.71875
 31
0.0
  0
LINE
  5
35E
  8
MyLines
 10
255.42179707722363
 20
141.71875
 30
0.0
 11
255.74925006092812
 21
141.71875
 31
0.0
  0
LINE
  5
35F
  8
MyLines
 10
255.74925006092812
 20
141.71875
 30
0.0
 11
256.07670304463267
 21
141.71875
 31
0.0
  0
LINE
  5
360
  8
MyLines
 10
256.07670304463267
 20
141.71875
 30
0.0
 11
256.40415602833724
 21
141.71875
 31
0.0
  0
LINE
  5
361
  8
MyLines
 10
256.40415602833724
 20
141.71875
 30
0.0
 11
256.73160901204176
 21
141.71875
 31
0.0
  0
LINE
  5
362
  8
MyLines
 10
256.73160901204176
 20
141.71875
 30
0.0
 11
257.0590619957462
 21
141.71875
 31
0.0
  0
LINE
  5
363
  8
MyLines
 10
257.0590619957462
 20
141.71875
 30
0.0
 11
257.3865149794508
 21
141.71875
 31
0.0
  0
LINE
  5
364
  8
MyLines
 10
257.3865149794508
 20
141.71875
 30
0.0
 11
257.3865149794508
 21
-129.8125
 31
0.0
  0
LINE
  5
365
  8
MyLines
 10
257.3865149794508
 20
-129.8125
 30
0.0
 11
257.3865149794508
 21
-129.8125
 31
0.0
  0
LINE
  5
366
  8
MyLines
 10
257.3865149794508
 20
-129.8125
 30
0.0
 11
257.3865149794508
 21
-129.8125
 31
0.0
  0
LINE
  5
367
  8
MyLines
 10
257.3865149794508
 20
-129.8125
 30
0.0
 11
257.3865149794508
 21
-129.8125
 31
0.0
  0
LINE
  5
368
  8
MyLines
 10
257.3865149794508
 20
-129.8125
 30
0.0
 11
257.3865149794508
 21
-129.8125
 31
0.0
  0
LINE
  5
369
  8
MyLines
 10
257.3865149794508
 20
-129.8125
 30
0.0
 11
257.3865149794508
 21
-129.8125
 31
0.0
  0
LINE
  5
36A
  8
MyLines
 10
257.3865149794508
 20
-129.8125
 30
0.0
 11
257.3865149794508
 21
-129.8125
 31
0.0
  0
LINE
  5
36B
  8
MyLines
 10
257.3865149794508
 20
-129.8125
 30
0.0
 11
257.3865149794508
 21
-129.8125
 31
0.0
  0
LINE
  5
36C
  8
MyLines
 10
257.3865149794508
 20
-129.8125
 30
0.0
 11
257.3865149794508
 21
-129.8125
 31
0.0
  0
LINE
  5
36D
  8
MyLines
 10
257.3865149794508
 20
-129.8125
 30
0.0
 11
257.3865149794508
 21
-129.8125
 31
0.0
  0
LINE
  5
36E
  8
MyLines
 10
257.3865149794508
 20
-129.8125
 30
0.0
 11
257.3865149794508
 21
-129.8125
 31
0.0
  0
LINE
  5
36F
  8
MyLines
 10
257.3865149794508
 20
-129.8125
 30
0.0
 11
257.3865149794508
 21
-129.8125
 31
0.0
  0
LINE
  5
370
  8
MyLines
 10
257.3865149794508
 20
-129.8125
 30
0.0
 11
257.3865149794508
 21
-129.8125
 31
0.0
  0
LINE
  5
371
  8
MyLines
 10
257.3865149794508
 20
-129.8125
 30
0.0
 11
257.3865149794508
 21
-129.8125
 31
0.0
  0
LINE
  5
372
  8
MyLines
 10
257.3865149794508
 20
-129.8125
 30
0.0
 11
257.3865149794508
 21
-129.8125
 31
0.0
  0
LINE
  5
373
  8
MyLines
 10
257.3865149794508
 20
-129.8125
 30
0.0
 11
257.3865149794508
 21
-129.8125
 31
0.0
  0
LINE
  5
374
  8
MyLines
 10
257.3865149794508
 20
-129.8125
 30
0.0
 11
257.3865149794508
 21
-129.8125
 31
0.0
  0
LINE
  5
375
  8
MyLines
 10
257.3865149794508
 20
-129.8125
 30
0.0
 11
257.3865149794508
 21
-129.8125
 31
0.0
  0
LINE
  5
376
  8
MyLines
 10
257.3865149794508
 20
-129.8125
 30
0.0
 11
257.3865149794508
 21
-129.8125
 31
0.0
  0
LINE
  5
377
  8
MyLines
 10
257.3865149794508
 20
-129.8125
 30
0.0
 11
257.3865149794508
 21
-129.8125
 31
0.0
  0
LINE
  5
378
  8
MyLines
 10
257.3865149794508
 20
-129.8125
 30
0.0
 11
257.3865149794508
 21
-129.8125
 31
0.0
  0
LINE
  5
379
  8
MyLines
 10
257.3865149794508
 20
-129.8125
 30
0.0
 11
257.3865149794508
 21
-129.8125
 31
0.0
  0
LINE
  5
37A
  8
MyLines
 10
257.3865149794508
 20
-129.8125
 30
0.0
 11
257.3865149794508
 21
-129.8125
 31
0.0
  0
LINE
  5
37B
  8
MyLines
 10
257.3865149794508
 20
-129.8125
 30
0.0
 11
257.3865149794508
 21
-129.8125
 31
0.0
  0
LINE
  5
37C
  8
MyLines
 10
257.3865149794508
 20
-129.8125
 30
0.0
 11
257.3865149794508
 21
-129.8125
 31
0.0
  0
LINE
  5
37D
  8
MyLines
 10
257.3865149794508
 20
-129.8125
 30
0.0
 11
257.3865149794508
 21
-129.8125
 31
0.0
  0
LINE
  5
37E
  8
MyLines
 10
257.3865149794508
 20
-129.8125
 30
0.0
 11
257.3865149794508
 21
-129.8125
 31
0.0
  0
LINE
  5
37F
  8
MyLines
 10
257.3865149794508
 20
-129.8125
 30
0.0
 11
257.3865149794508
 21
-129.8125
 31
0.0
  0
LINE
  5
380
  8
MyLines
 10
257.3865149794508
 20
-129.8125
 30
0.0
 11
257.3865149794508
 21
-129.8125
 31
0.0
  0
LINE
  5
381
  8
MyLines
 10
257.3865149794508
 20
-129.8125
 30
0.0
 11
257.3865149794508
 21
-129.8125
 31
0.0
  0
LINE
  5
382
  8
MyLines
 10
257.3865149794508
 20
-129.8125
 30
0.0
 11
257.3865149794508
 21
-129.8125
 31
0.0
  0
LINE
  5
383
  8
MyLines
 10
257.3865149794508
 20
-129.8125
 30
0.0
 11
257.3865149794508
 21
-129.8125
 31
0.0
  0
LINE
  5
384
  8
MyLines
 10
257.3865149794508
 20
-129.8125
 30
0.0
 11
257.3865149794508
 21
-129.8125
 31
0.0
  0
LINE
  5
385
  8
MyLines
 10
257.3865149794508
 20
-129.8125
 30
0.0
 11
257.3865149794508
 21
-129.8125
 31
0.0
  0
LINE
  5
386
  8
MyLines
 10
257.3865149794508
 20
-129.8125
 30
0.0
 11
257.3865149794508
 21
-129.8125
 31
0.0
  0
LINE
  5
387
  8
MyLines
 10
257.3865149794508
 20
-129.8125
 30
0.0
 11
257.3865149794508
 21
-129.8125
 31
0.0
  0
LINE
  5
388
  8
MyLines
 10
257.3865149794508
 20
-129.8125
 30
0.0
 11
257.3865149794508
 21
-129.8125
 31
0.0
  0
LINE
  5
389
  8
MyLines
 10
257.3865149794508
 20
-129.8125
 30
0.0
 11
257.3865149794508
 21
-129.8125
 31
0.0
  0
LINE
  5
38A
  8
MyLines
 10
257.3865149794508
 20
-129.8125
 30
0.0
 11
257.3865149794508
 21
-129.8125
 31
0.0
  0
LINE
  5
38B
  8
MyLines
 10
257.3865149794508
 20
-129.8125
 30
0.0
 11
257.3865149794508
 21
-129.8125
 31
0.0
  0
LINE
  5
38C
  8
MyLines
 10
257.3865149794508
 20
-129.8125
 30
0.0
 11
257.3865149794508
 21
-129.8125
 31
0.0
  0
LINE
  5
38D
  8
MyLines
 10
257.3865149794508
 20
-129.8125
 30
0.0
 11
257.3865149794508
 21
-129.8125
 31
0.0
  0
LINE
  5
38E
  8
MyLines
 10
257.3865149794508
 20
-129.8125
 30
0.0
 11
257.3865149794508
 21
-129.8125
 31
0.0
  0
LINE
  5
38F
  8
MyLines
 10
257.3865149794508
 20
-129.8125
 30
0.0
 11
257.3865149794508
 21
-129.8125
 31
0.0
  0
LINE
  5
390
  8
MyLines
 10
257.3865149794508
 20
-129.8125
 30
0.0
 11
257.3865149794508
 21
-129.8125
 31
0.0
  0
LINE
  5
391
  8
MyLines
 10
257.3865149794508
 20
-129.8125
 30
0.0
 11
257.3865149794508
 21
-129.8125
 31
0.0
  0
LINE
  5
392
  8
MyLines
 10
257.3865149794508
 20
-129.8125
 30
0.0
 11
257.3865149794508
 21
-129.8125
 31
0.0
  0
LINE
  5
393
  8
MyLines
 10
257.3865149794508
 20
-129.8125
 30
0.0
 11
257.3865149794508
 21
-129.8125
 31
0.0
  0
LINE
  5
394
  8
MyLines
 10
257.3865149794508
 20
-129.8125
 30
0.0
 11
257.3865149794508
 21
-129.8125
 31
0.0
  0
LINE
  5
395
  8
MyLines
 10
257.3865149794508
 20
-129.8125
 30
0.0
 11
257.3865149794508
 21
-129.8125
 31
0.0
  0
LINE
  5
396
  8
MyLines
 10
257.3865149794508
 20
-129.8125
 30
0.0
 11
257.3865149794508
 21
-129.8125
 31
0.0
  0
ENDSEC
  0
EOF
