  0
SECTION
  2
HEADER
  9
$ACADVER
  1
AC1009
  9
$DWGCODEPAGE
  3
ANSI_1252
  9
$INSBASE
 10
0.0
 20
0.0
 30
0.0
  9
$EXTMIN
 10
1e+20
 20
1e+20
 30
1e+20
  9
$EXTMAX
 10
-1e+20
 20
-1e+20
 30
-1e+20
  9
$LIMMIN
 10
0.0
 20
0.0
  9
$LIMMAX
 10
420.0
 20
297.0
  9
$ORTHOMODE
 70
0
  9
$REGENMODE
 70
1
  9
$FILLMODE
 70
1
  9
$DRAGMODE
 70
2
  9
$QTEXTMODE
 70
0
  9
$MIRRTEXT
 70
1
  9
$OSMODE
 70
20583
  9
$LTSCALE
 40
1.0
  9
$ATTMODE
 70
1
  9
$TEXTSIZE
 40
2.5
  9
$TRACEWID
 40
1.0
  9
$TEXTSTYLE
  7
Standard
  9
$CLAYER
  8
0
  9
$CELTYPE
  6
ByLayer
  9
$CECOLOR
 62
256
  9
$DIMSCALE
 40
1.0
  9
$DIMASZ
 40
2.5
  9
$DIMEXO
 40
0.625
  9
$DIMDLI
 40
3.75
  9
$DIMRND
 40
0.0
  9
$DIMDLE
 40
0.0
  9
$DIMEXE
 40
1.25
  9
$DIMTP
 40
0.0
  9
$DIMTM
 40
0.0
  9
$DIMTXT
 40
2.5
  9
$DIMCEN
 40
2.5
  9
$DIMTSZ
 40
0.0
  9
$DIMTOL
 70
0
  9
$DIMLIM
 70
0
  9
$DIMTIH
 70
0
  9
$DIMTOH
 70
0
  9
$DIMSE1
 70
0
  9
$DIMSE2
 70
0
  9
$DIMTAD
 70
1
  9
$DIMZIN
 70
8
  9
$DIMBLK
  1

  9
$DIMASO
 70
1
  9
$DIMSHO
 70
1
  9
$DIMPOST
  1

  9
$DIMAPOST
  1

  9
$DIMALT
 70
0
  9
$DIMALTD
 70
3
  9
$DIMALTF
 40
0.03937007874
  9
$DIMLFAC
 40
1.0
  9
$DIMTOFL
 70
1
  9
$DIMTVP
 40
0.0
  9
$DIMTIX
 70
0
  9
$DIMSOXD
 70
0
  9
$DIMSAH
 70
0
  9
$DIMBLK1
  1

  9
$DIMBLK2
  1

  9
$DIMSTYLE
  2
ISO-25
  9
$DIMCLRD
 70
0
  9
$DIMCLRE
 70
0
  9
$DIMCLRT
 70
0
  9
$DIMTFAC
 40
1.0
  9
$DIMGAP
 40
0.625
  9
$COORDS
 70
1
  9
$ATTDIA
 70
0
  9
$ATTREQ
 70
1
  9
$HANDLING
 70
1
  9
$LUNITS
 70
2
  9
$LUPREC
 70
4
  9
$SKETCHINC
 40
1.0
  9
$FILLETRAD
 40
10.0
  9
$AUNITS
 70
0
  9
$AUPREC
 70
2
  9
$MENU
  1
.
  9
$ELEVATION
 40
0.0
  9
$PELEVATION
 40
0.0
  9
$THICKNESS
 40
0.0
  9
$LIMCHECK
 70
0
  9
$CHAMFERA
 40
0.0
  9
$CHAMFERB
 40
0.0
  9
$SKPOLY
 70
0
  9
$TDCREATE
 40
2459340.736284722
  9
$TDUPDATE
 40
2459340.736284722
  9
$TDINDWG
 40
0.0
  9
$TDUSRTIMER
 40
0.0
  9
$USRTIMER
 70
1
  9
$ANGBASE
 50
0.0
  9
$ANGDIR
 70
0
  9
$PDMODE
 70
0
  9
$PDSIZE
 40
0.0
  9
$PLINEWID
 40
0.0
  9
$SPLFRAME
 70
0
  9
$SPLINETYPE
 70
6
  9
$SPLINESEGS
 70
8
  9
$HANDSEED
  5
398
  9
$SURFTAB1
 70
6
  9
$SURFTAB2
 70
6
  9
$SURFTYPE
 70
6
  9
$SURFU
 70
6
  9
$SURFV
 70
6
  9
$UCSNAME
  2

  9
$UCSORG
 10
0.0
 20
0.0
 30
0.0
  9
$UCSXDIR
 10
1.0
 20
0.0
 30
0.0
  9
$UCSYDIR
 10
0.0
 20
1.0
 30
0.0
  9
$PUCSNAME
  2

  9
$PUCSORG
 10
0.0
 20
0.0
 30
0.0
  9
$PUCSXDIR
 10
1.0
 20
0.0
 30
0.0
  9
$PUCSYDIR
 10
0.0
 20
1.0
 30
0.0
  9
$USERI1
 70
0
  9
$USERI2
 70
0
  9
$USERI3
 70
0
  9
$USERI4
 70
0
  9
$USERI5
 70
0
  9
$USERR1
 40
0.0
  9
$USERR2
 40
0.0
  9
$USERR3
 40
0.0
  9
$USERR4
 40
0.0
  9
$USERR5
 40
0.0
  9
$WORLDVIEW
 70
1
  9
$SHADEDGE
 70
3
  9
$SHADEDIF
 70
70
  9
$TILEMODE
 70
1
  9
$MAXACTVP
 70
64
  9
$PLIMCHECK
 70
0
  9
$PEXTMIN
 10
1e+20
 20
1e+20
 30
1e+20
  9
$PEXTMAX
 10
-1e+20
 20
-1e+20
 30
-1e+20
  9
$PLIMMIN
 10
0.0
 20
0.0
  9
$PLIMMAX
 10
420.0
 20
297.0
  9
$UNITMODE
 70
0
  9
$VISRETAIN
 70
1
  9
$PLINEGEN
 70
0
  9
$PSLTSCALE
 70
1
  0
ENDSEC
  0
SECTION
  2
TABLES
  0
TABLE
  2
VPORT
 70
1
  0
VPORT
  5
23
  2
*Active
 70
0
 10
0.0
 20
0.0
 11
1.0
 21
1.0
 12
344.2
 22
148.5
 13
0.0
 23
0.0
 14
0.5
 24
0.5
 15
0.5
 25
0.5
 16
0.0
 26
0.0
 36
1.0
 17
0.0
 27
0.0
 37
0.0
 40
297.0
 41
1.34
 42
50.0
 43
0.0
 44
0.0
 50
0.0
 51
0.0
 71
0
 72
1000
 73
1
 74
3
 75
0
 76
0
 77
0
 78
0
  0
ENDTAB
  0
TABLE
  2
LTYPE
 70
3
  0
LTYPE
  5
24
  2
ByBlock
 70
0
  3

 72
65
 73
0
 40
0.0
  0
LTYPE
  5
25
  2
ByLayer
 70
0
  3

 72
65
 73
0
 40
0.0
  0
LTYPE
  5
26
  2
Continuous
 70
0
  3

 72
65
 73
0
 40
0.0
  0
ENDTAB
  0
TABLE
  2
LAYER
 70
3
  0
LAYER
  5
27
  2
0
 70
0
 62
7
  6
Continuous
  0
LAYER
  5
28
  2
Defpoints
 70
0
 62
7
  6
Continuous
  0
LAYER
  5
2D
  2
MyLines
 70
0
 62
7
  6
DASHED
  0
ENDTAB
  0
TABLE
  2
STYLE
 70
1
  0
STYLE
  5
29
  2
Standard
 70
0
 40
0.0
 41
1.0
 50
0.0
 71
0
 42
2.5
  3
txt
  4

  0
ENDTAB
  0
TABLE
  2
VIEW
 70
0
  0
ENDTAB
  0
TABLE
  2
UCS
 70
0
  0
ENDTAB
  0
TABLE
  2
APPID
 70
2
  0
APPID
  5
2A
  2
ACAD
 70
0
  0
APPID
  5
397
  2
HATCHBACKGROUNDCOLOR
 70
0
  0
ENDTAB
  0
TABLE
  2
DIMSTYLE
 70
1
  0
DIMSTYLE
105
2B
  2
Standard
 70
0
  3

  4

  5

  6

  7

 40
1.0
 41
2.5
 42
0.625
 43
3.75
 44
1.25
 45
0.0
 46
0.0
 47
0.0
 48
0.0
140
2.5
141
2.5
142
0.0
143
0.03937007874
144
1.0
145
0.0
146
1.0
147
0.625
 71
0
 72
0
 73
0
 74
0
 75
0
 76
0
 77
1
 78
8
170
0
171
3
172
1
173
0
174
0
175
0
176
0
177
0
178
0
  0
ENDTAB
  0
ENDSEC
  0
SECTION
  2
BLOCKS
  0
BLOCK
  5
18
  8
0
  2
$Model_Space
 70
0
 10
0.0
 20
0.0
 30
0.0
  3
$Model_Space
  1

  0
ENDBLK
  5
19
  8
0
  0
BLOCK
  5
1C
  8
0
  2
$Paper_Space
 70
0
 10
0.0
 20
0.0
 30
0.0
  3
$Paper_Space
  1

  0
ENDBLK
  5
1D
  8
0
  0
ENDSEC
  0
SECTION
  2
ENTITIES
  0
LINE
  5
2E
  8
MyLines
 10
257.3865149794508
 20
-165.53125
 30
0.0
 11
260.23562054489287
 21
-165.53125
 31
0.0
  0
LINE
  5
2F
  8
MyLines
 10
260.23562054489287
 20
-165.53125
 30
0.0
 11
263.0847261103349
 21
-165.53125
 31
0.0
  0
LINE
  5
30
  8
MyLines
 10
263.0847261103349
 20
-165.53125
 30
0.0
 11
265.93383167577696
 21
-165.53125
 31
0.0
  0
LINE
  5
31
  8
MyLines
 10
265.93383167577696
 20
-165.53125
 30
0.0
 11
268.782937241219
 21
-165.53125
 31
0.0
  0
LINE
  5
32
  8
MyLines
 10
268.782937241219
 20
-165.53125
 30
0.0
 11
271.632042806661
 21
-165.53125
 31
0.0
  0
LINE
  5
33
  8
MyLines
 10
271.632042806661
 20
-165.53125
 30
0.0
 11
274.481148372103
 21
-165.53125
 31
0.0
  0
LINE
  5
34
  8
MyLines
 10
274.481148372103
 20
-165.53125
 30
0.0
 11
277.3302539375451
 21
-165.53125
 31
0.0
  0
LINE
  5
35
  8
MyLines
 10
277.3302539375451
 20
-165.53125
 30
0.0
 11
280.1793595029871
 21
-165.53125
 31
0.0
  0
LINE
  5
36
  8
MyLines
 10
280.1793595029871
 20
-165.53125
 30
0.0
 11
283.02846506842917
 21
-165.53125
 31
0.0
  0
LINE
  5
37
  8
MyLines
 10
283.02846506842917
 20
-165.53125
 30
0.0
 11
285.87757063387124
 21
-165.53125
 31
0.0
  0
LINE
  5
38
  8
MyLines
 10
285.87757063387124
 20
-165.53125
 30
0.0
 11
288.7266761993132
 21
-165.53125
 31
0.0
  0
LINE
  5
39
  8
MyLines
 10
288.7266761993132
 20
-165.53125
 30
0.0
 11
291.5757817647553
 21
-165.53125
 31
0.0
  0
LINE
  5
3A
  8
MyLines
 10
291.5757817647553
 20
-165.53125
 30
0.0
 11
294.4248873301973
 21
-165.53125
 31
0.0
  0
LINE
  5
3B
  8
MyLines
 10
294.4248873301973
 20
-165.53125
 30
0.0
 11
297.27399289563937
 21
-165.53125
 31
0.0
  0
LINE
  5
3C
  8
MyLines
 10
297.27399289563937
 20
-165.53125
 30
0.0
 11
300.1230984610814
 21
-165.53125
 31
0.0
  0
LINE
  5
3D
  8
MyLines
 10
300.1230984610814
 20
-165.53125
 30
0.0
 11
302.97220402652346
 21
-165.53125
 31
0.0
  0
LINE
  5
3E
  8
MyLines
 10
302.97220402652346
 20
-165.53125
 30
0.0
 11
305.8213095919654
 21
-165.53125
 31
0.0
  0
LINE
  5
3F
  8
MyLines
 10
305.8213095919654
 20
-165.53125
 30
0.0
 11
308.6704151574075
 21
-165.53125
 31
0.0
  0
LINE
  5
40
  8
MyLines
 10
308.6704151574075
 20
-165.53125
 30
0.0
 11
311.51952072284956
 21
-165.53125
 31
0.0
  0
LINE
  5
41
  8
MyLines
 10
311.51952072284956
 20
-165.53125
 30
0.0
 11
314.3686262882916
 21
-165.53125
 31
0.0
  0
LINE
  5
42
  8
MyLines
 10
314.3686262882916
 20
-165.53125
 30
0.0
 11
317.21773185373365
 21
-165.53125
 31
0.0
  0
LINE
  5
43
  8
MyLines
 10
317.21773185373365
 20
-165.53125
 30
0.0
 11
320.06683741917567
 21
-165.53125
 31
0.0
  0
LINE
  5
44
  8
MyLines
 10
320.06683741917567
 20
-165.53125
 30
0.0
 11
322.9159429846177
 21
-165.53125
 31
0.0
  0
LINE
  5
45
  8
MyLines
 10
322.9159429846177
 20
-165.53125
 30
0.0
 11
325.7650485500597
 21
-165.53125
 31
0.0
  0
LINE
  5
46
  8
MyLines
 10
325.7650485500597
 20
-165.53125
 30
0.0
 11
328.6141541155018
 21
-165.53125
 31
0.0
  0
LINE
  5
47
  8
MyLines
 10
328.6141541155018
 20
-165.53125
 30
0.0
 11
331.46325968094385
 21
-165.53125
 31
0.0
  0
LINE
  5
48
  8
MyLines
 10
331.46325968094385
 20
-165.53125
 30
0.0
 11
334.31236524638587
 21
-165.53125
 31
0.0
  0
LINE
  5
49
  8
MyLines
 10
334.31236524638587
 20
-165.53125
 30
0.0
 11
337.1614708118279
 21
-165.53125
 31
0.0
  0
LINE
  5
4A
  8
MyLines
 10
337.1614708118279
 20
-165.53125
 30
0.0
 11
340.0105763772699
 21
-165.53125
 31
0.0
  0
LINE
  5
4B
  8
MyLines
 10
340.0105763772699
 20
-165.53125
 30
0.0
 11
342.859681942712
 21
-165.53125
 31
0.0
  0
LINE
  5
4C
  8
MyLines
 10
342.859681942712
 20
-165.53125
 30
0.0
 11
345.708787508154
 21
-165.53125
 31
0.0
  0
LINE
  5
4D
  8
MyLines
 10
345.708787508154
 20
-165.53125
 30
0.0
 11
348.55789307359606
 21
-165.53125
 31
0.0
  0
LINE
  5
4E
  8
MyLines
 10
348.55789307359606
 20
-165.53125
 30
0.0
 11
351.4069986390381
 21
-165.53125
 31
0.0
  0
LINE
  5
4F
  8
MyLines
 10
351.4069986390381
 20
-165.53125
 30
0.0
 11
354.25610420448015
 21
-165.53125
 31
0.0
  0
LINE
  5
50
  8
MyLines
 10
354.25610420448015
 20
-165.53125
 30
0.0
 11
357.10520976992217
 21
-165.53125
 31
0.0
  0
LINE
  5
51
  8
MyLines
 10
357.10520976992217
 20
-165.53125
 30
0.0
 11
359.9543153353642
 21
-165.53125
 31
0.0
  0
LINE
  5
52
  8
MyLines
 10
359.9543153353642
 20
-165.53125
 30
0.0
 11
362.80342090080626
 21
-165.53125
 31
0.0
  0
LINE
  5
53
  8
MyLines
 10
362.80342090080626
 20
-165.53125
 30
0.0
 11
365.6525264662483
 21
-165.53125
 31
0.0
  0
LINE
  5
54
  8
MyLines
 10
365.6525264662483
 20
-165.53125
 30
0.0
 11
368.50163203169035
 21
-165.53125
 31
0.0
  0
LINE
  5
55
  8
MyLines
 10
368.50163203169035
 20
-165.53125
 30
0.0
 11
371.35073759713237
 21
-165.53125
 31
0.0
  0
LINE
  5
56
  8
MyLines
 10
371.35073759713237
 20
-165.53125
 30
0.0
 11
374.19984316257444
 21
-165.53125
 31
0.0
  0
LINE
  5
57
  8
MyLines
 10
374.19984316257444
 20
-165.53125
 30
0.0
 11
377.0489487280164
 21
-165.53125
 31
0.0
  0
LINE
  5
58
  8
MyLines
 10
377.0489487280164
 20
-165.53125
 30
0.0
 11
379.8980542934585
 21
-165.53125
 31
0.0
  0
LINE
  5
59
  8
MyLines
 10
379.8980542934585
 20
-165.53125
 30
0.0
 11
382.74715985890055
 21
-165.53125
 31
0.0
  0
LINE
  5
5A
  8
MyLines
 10
382.74715985890055
 20
-165.53125
 30
0.0
 11
385.59626542434256
 21
-165.53125
 31
0.0
  0
LINE
  5
5B
  8
MyLines
 10
385.59626542434256
 20
-165.53125
 30
0.0
 11
388.4453709897846
 21
-165.53125
 31
0.0
  0
LINE
  5
5C
  8
MyLines
 10
388.4453709897846
 20
-165.53125
 30
0.0
 11
391.29447655522665
 21
-165.53125
 31
0.0
  0
LINE
  5
5D
  8
MyLines
 10
391.29447655522665
 20
-165.53125
 30
0.0
 11
394.14358212066867
 21
-165.53125
 31
0.0
  0
LINE
  5
5E
  8
MyLines
 10
394.14358212066867
 20
-165.53125
 30
0.0
 11
396.9926876861107
 21
-165.53125
 31
0.0
  0
LINE
  5
5F
  8
MyLines
 10
396.9926876861107
 20
-165.53125
 30
0.0
 11
396.9926876861107
 21
-161.5625
 31
0.0
  0
LINE
  5
60
  8
MyLines
 10
396.9926876861107
 20
-161.5625
 30
0.0
 11
396.9926876861107
 21
169.5
 31
0.0
  0
LINE
  5
61
  8
MyLines
 10
396.9926876861107
 20
169.5
 30
0.0
 11
396.9926876861107
 21
169.5
 31
0.0
  0
LINE
  5
62
  8
MyLines
 10
396.9926876861107
 20
169.5
 30
0.0
 11
395.0382711940313
 21
169.5
 31
0.0
  0
LINE
  5
63
  8
MyLines
 10
395.0382711940313
 20
169.5
 30
0.0
 11
393.0838547019519
 21
169.5
 31
0.0
  0
LINE
  5
64
  8
MyLines
 10
393.0838547019519
 20
169.5
 30
0.0
 11
391.12943820987255
 21
169.5
 31
0.0
  0
LINE
  5
65
  8
MyLines
 10
391.12943820987255
 20
169.5
 30
0.0
 11
389.1750217177932
 21
169.5
 31
0.0
  0
LINE
  5
66
  8
MyLines
 10
389.1750217177932
 20
169.5
 30
0.0
 11
387.22060522571377
 21
169.5
 31
0.0
  0
LINE
  5
67
  8
MyLines
 10
387.22060522571377
 20
169.5
 30
0.0
 11
385.2661887336344
 21
169.5
 31
0.0
  0
LINE
  5
68
  8
MyLines
 10
385.2661887336344
 20
169.5
 30
0.0
 11
383.311772241555
 21
169.5
 31
0.0
  0
LINE
  5
69
  8
MyLines
 10
383.311772241555
 20
169.5
 30
0.0
 11
381.35735574947563
 21
169.5
 31
0.0
  0
LINE
  5
6A
  8
MyLines
 10
381.35735574947563
 20
169.5
 30
0.0
 11
379.4029392573962
 21
169.5
 31
0.0
  0
LINE
  5
6B
  8
MyLines
 10
379.4029392573962
 20
169.5
 30
0.0
 11
377.44852276531685
 21
169.5
 31
0.0
  0
LINE
  5
6C
  8
MyLines
 10
377.44852276531685
 20
169.5
 30
0.0
 11
375.4941062732375
 21
169.5
 31
0.0
  0
LINE
  5
6D
  8
MyLines
 10
375.4941062732375
 20
169.5
 30
0.0
 11
373.5396897811581
 21
169.5
 31
0.0
  0
LINE
  5
6E
  8
MyLines
 10
373.5396897811581
 20
169.5
 30
0.0
 11
371.5852732890787
 21
169.5
 31
0.0
  0
LINE
  5
6F
  8
MyLines
 10
371.5852732890787
 20
169.5
 30
0.0
 11
369.6308567969993
 21
169.5
 31
0.0
  0
LINE
  5
70
  8
MyLines
 10
369.6308567969993
 20
169.5
 30
0.0
 11
367.6764403049199
 21
169.5
 31
0.0
  0
LINE
  5
71
  8
MyLines
 10
367.6764403049199
 20
169.5
 30
0.0
 11
365.7220238128405
 21
169.5
 31
0.0
  0
LINE
  5
72
  8
MyLines
 10
365.7220238128405
 20
169.5
 30
0.0
 11
363.76760732076116
 21
169.5
 31
0.0
  0
LINE
  5
73
  8
MyLines
 10
363.76760732076116
 20
169.5
 30
0.0
 11
361.81319082868174
 21
169.5
 31
0.0
  0
LINE
  5
74
  8
MyLines
 10
361.81319082868174
 20
169.5
 30
0.0
 11
359.8587743366024
 21
169.5
 31
0.0
  0
LINE
  5
75
  8
MyLines
 10
359.8587743366024
 20
169.5
 30
0.0
 11
357.904357844523
 21
169.5
 31
0.0
  0
LINE
  5
76
  8
MyLines
 10
357.904357844523
 20
169.5
 30
0.0
 11
355.94994135244366
 21
169.5
 31
0.0
  0
LINE
  5
77
  8
MyLines
 10
355.94994135244366
 20
169.5
 30
0.0
 11
353.9955248603642
 21
169.5
 31
0.0
  0
LINE
  5
78
  8
MyLines
 10
353.9955248603642
 20
169.5
 30
0.0
 11
352.0411083682848
 21
169.5
 31
0.0
  0
LINE
  5
79
  8
MyLines
 10
352.0411083682848
 20
169.5
 30
0.0
 11
350.08669187620546
 21
169.5
 31
0.0
  0
LINE
  5
7A
  8
MyLines
 10
350.08669187620546
 20
169.5
 30
0.0
 11
348.13227538412605
 21
169.5
 31
0.0
  0
LINE
  5
7B
  8
MyLines
 10
348.13227538412605
 20
169.5
 30
0.0
 11
346.1778588920467
 21
169.5
 31
0.0
  0
LINE
  5
7C
  8
MyLines
 10
346.1778588920467
 20
169.5
 30
0.0
 11
344.2234423999673
 21
169.5
 31
0.0
  0
LINE
  5
7D
  8
MyLines
 10
344.2234423999673
 20
169.5
 30
0.0
 11
342.26902590788796
 21
169.5
 31
0.0
  0
LINE
  5
7E
  8
MyLines
 10
342.26902590788796
 20
169.5
 30
0.0
 11
340.3146094158085
 21
169.5
 31
0.0
  0
LINE
  5
7F
  8
MyLines
 10
340.3146094158085
 20
169.5
 30
0.0
 11
338.36019292372913
 21
169.5
 31
0.0
  0
LINE
  5
80
  8
MyLines
 10
338.36019292372913
 20
169.5
 30
0.0
 11
336.40577643164977
 21
169.5
 31
0.0
  0
LINE
  5
81
  8
MyLines
 10
336.40577643164977
 20
169.5
 30
0.0
 11
334.45135993957035
 21
169.5
 31
0.0
  0
LINE
  5
82
  8
MyLines
 10
334.45135993957035
 20
169.5
 30
0.0
 11
332.496943447491
 21
169.5
 31
0.0
  0
LINE
  5
83
  8
MyLines
 10
332.496943447491
 20
169.5
 30
0.0
 11
330.54252695541163
 21
169.5
 31
0.0
  0
LINE
  5
84
  8
MyLines
 10
330.54252695541163
 20
169.5
 30
0.0
 11
328.5881104633322
 21
169.5
 31
0.0
  0
LINE
  5
85
  8
MyLines
 10
328.5881104633322
 20
169.5
 30
0.0
 11
326.63369397125285
 21
169.5
 31
0.0
  0
LINE
  5
86
  8
MyLines
 10
326.63369397125285
 20
169.5
 30
0.0
 11
324.67927747917344
 21
169.5
 31
0.0
  0
LINE
  5
87
  8
MyLines
 10
324.67927747917344
 20
169.5
 30
0.0
 11
322.724860987094
 21
169.5
 31
0.0
  0
LINE
  5
88
  8
MyLines
 10
322.724860987094
 20
169.5
 30
0.0
 11
320.77044449501466
 21
169.5
 31
0.0
  0
LINE
  5
89
  8
MyLines
 10
320.77044449501466
 20
169.5
 30
0.0
 11
318.8160280029353
 21
169.5
 31
0.0
  0
LINE
  5
8A
  8
MyLines
 10
318.8160280029353
 20
169.5
 30
0.0
 11
316.8616115108559
 21
169.5
 31
0.0
  0
LINE
  5
8B
  8
MyLines
 10
316.8616115108559
 20
169.5
 30
0.0
 11
314.9071950187765
 21
169.5
 31
0.0
  0
LINE
  5
8C
  8
MyLines
 10
314.9071950187765
 20
169.5
 30
0.0
 11
312.95277852669716
 21
169.5
 31
0.0
  0
LINE
  5
8D
  8
MyLines
 10
312.95277852669716
 20
169.5
 30
0.0
 11
310.99836203461774
 21
169.5
 31
0.0
  0
LINE
  5
8E
  8
MyLines
 10
310.99836203461774
 20
169.5
 30
0.0
 11
309.0439455425383
 21
169.5
 31
0.0
  0
LINE
  5
8F
  8
MyLines
 10
309.0439455425383
 20
169.5
 30
0.0
 11
307.08952905045896
 21
169.5
 31
0.0
  0
LINE
  5
90
  8
MyLines
 10
307.08952905045896
 20
169.5
 30
0.0
 11
305.1351125583796
 21
169.5
 31
0.0
  0
LINE
  5
91
  8
MyLines
 10
305.1351125583796
 20
169.5
 30
0.0
 11
303.18069606630024
 21
169.5
 31
0.0
  0
LINE
  5
92
  8
MyLines
 10
303.18069606630024
 20
169.5
 30
0.0
 11
301.2262795742208
 21
169.5
 31
0.0
  0
LINE
  5
93
  8
MyLines
 10
301.2262795742208
 20
169.5
 30
0.0
 11
301.2262795742208
 21
-157.59375
 31
0.0
  0
LINE
  5
94
  8
MyLines
 10
301.2262795742208
 20
-157.59375
 30
0.0
 11
301.2262795742208
 21
-157.59375
 31
0.0
  0
LINE
  5
95
  8
MyLines
 10
301.2262795742208
 20
-157.59375
 30
0.0
 11
303.09883282037407
 21
-157.59375
 31
0.0
  0
LINE
  5
96
  8
MyLines
 10
303.09883282037407
 20
-157.59375
 30
0.0
 11
304.9713860665273
 21
-157.59375
 31
0.0
  0
LINE
  5
97
  8
MyLines
 10
304.9713860665273
 20
-157.59375
 30
0.0
 11
306.84393931268056
 21
-157.59375
 31
0.0
  0
LINE
  5
98
  8
MyLines
 10
306.84393931268056
 20
-157.59375
 30
0.0
 11
308.71649255883386
 21
-157.59375
 31
0.0
  0
LINE
  5
99
  8
MyLines
 10
308.71649255883386
 20
-157.59375
 30
0.0
 11
310.5890458049871
 21
-157.59375
 31
0.0
  0
LINE
  5
9A
  8
MyLines
 10
310.5890458049871
 20
-157.59375
 30
0.0
 11
312.46159905114035
 21
-157.59375
 31
0.0
  0
LINE
  5
9B
  8
MyLines
 10
312.46159905114035
 20
-157.59375
 30
0.0
 11
314.3341522972936
 21
-157.59375
 31
0.0
  0
LINE
  5
9C
  8
MyLines
 10
314.3341522972936
 20
-157.59375
 30
0.0
 11
316.20670554344684
 21
-157.59375
 31
0.0
  0
LINE
  5
9D
  8
MyLines
 10
316.20670554344684
 20
-157.59375
 30
0.0
 11
318.0792587896001
 21
-157.59375
 31
0.0
  0
LINE
  5
9E
  8
MyLines
 10
318.0792587896001
 20
-157.59375
 30
0.0
 11
319.95181203575333
 21
-157.59375
 31
0.0
  0
LINE
  5
9F
  8
MyLines
 10
319.95181203575333
 20
-157.59375
 30
0.0
 11
321.8243652819066
 21
-157.59375
 31
0.0
  0
LINE
  5
A0
  8
MyLines
 10
321.8243652819066
 20
-157.59375
 30
0.0
 11
323.6969185280598
 21
-157.59375
 31
0.0
  0
LINE
  5
A1
  8
MyLines
 10
323.6969185280598
 20
-157.59375
 30
0.0
 11
325.56947177421307
 21
-157.59375
 31
0.0
  0
LINE
  5
A2
  8
MyLines
 10
325.56947177421307
 20
-157.59375
 30
0.0
 11
327.4420250203663
 21
-157.59375
 31
0.0
  0
LINE
  5
A3
  8
MyLines
 10
327.4420250203663
 20
-157.59375
 30
0.0
 11
329.31457826651956
 21
-157.59375
 31
0.0
  0
LINE
  5
A4
  8
MyLines
 10
329.31457826651956
 20
-157.59375
 30
0.0
 11
331.18713151267286
 21
-157.59375
 31
0.0
  0
LINE
  5
A5
  8
MyLines
 10
331.18713151267286
 20
-157.59375
 30
0.0
 11
333.0596847588261
 21
-157.59375
 31
0.0
  0
LINE
  5
A6
  8
MyLines
 10
333.0596847588261
 20
-157.59375
 30
0.0
 11
334.93223800497935
 21
-157.59375
 31
0.0
  0
LINE
  5
A7
  8
MyLines
 10
334.93223800497935
 20
-157.59375
 30
0.0
 11
336.8047912511326
 21
-157.59375
 31
0.0
  0
LINE
  5
A8
  8
MyLines
 10
336.8047912511326
 20
-157.59375
 30
0.0
 11
338.67734449728584
 21
-157.59375
 31
0.0
  0
LINE
  5
A9
  8
MyLines
 10
338.67734449728584
 20
-157.59375
 30
0.0
 11
340.54989774343915
 21
-157.59375
 31
0.0
  0
LINE
  5
AA
  8
MyLines
 10
340.54989774343915
 20
-157.59375
 30
0.0
 11
342.4224509895924
 21
-157.59375
 31
0.0
  0
LINE
  5
AB
  8
MyLines
 10
342.4224509895924
 20
-157.59375
 30
0.0
 11
344.29500423574564
 21
-157.59375
 31
0.0
  0
LINE
  5
AC
  8
MyLines
 10
344.29500423574564
 20
-157.59375
 30
0.0
 11
346.1675574818989
 21
-157.59375
 31
0.0
  0
LINE
  5
AD
  8
MyLines
 10
346.1675574818989
 20
-157.59375
 30
0.0
 11
348.0401107280521
 21
-157.59375
 31
0.0
  0
LINE
  5
AE
  8
MyLines
 10
348.0401107280521
 20
-157.59375
 30
0.0
 11
349.9126639742054
 21
-157.59375
 31
0.0
  0
LINE
  5
AF
  8
MyLines
 10
349.9126639742054
 20
-157.59375
 30
0.0
 11
351.7852172203586
 21
-157.59375
 31
0.0
  0
LINE
  5
B0
  8
MyLines
 10
351.7852172203586
 20
-157.59375
 30
0.0
 11
353.6577704665119
 21
-157.59375
 31
0.0
  0
LINE
  5
B1
  8
MyLines
 10
353.6577704665119
 20
-157.59375
 30
0.0
 11
355.5303237126651
 21
-157.59375
 31
0.0
  0
LINE
  5
B2
  8
MyLines
 10
355.5303237126651
 20
-157.59375
 30
0.0
 11
357.40287695881835
 21
-157.59375
 31
0.0
  0
LINE
  5
B3
  8
MyLines
 10
357.40287695881835
 20
-157.59375
 30
0.0
 11
359.2754302049716
 21
-157.59375
 31
0.0
  0
LINE
  5
B4
  8
MyLines
 10
359.2754302049716
 20
-157.59375
 30
0.0
 11
361.14798345112484
 21
-157.59375
 31
0.0
  0
LINE
  5
B5
  8
MyLines
 10
361.14798345112484
 20
-157.59375
 30
0.0
 11
363.0205366972781
 21
-157.59375
 31
0.0
  0
LINE
  5
B6
  8
MyLines
 10
363.0205366972781
 20
-157.59375
 30
0.0
 11
364.8930899434314
 21
-157.59375
 31
0.0
  0
LINE
  5
B7
  8
MyLines
 10
364.8930899434314
 20
-157.59375
 30
0.0
 11
366.76564318958464
 21
-157.59375
 31
0.0
  0
LINE
  5
B8
  8
MyLines
 10
366.76564318958464
 20
-157.59375
 30
0.0
 11
368.6381964357379
 21
-157.59375
 31
0.0
  0
LINE
  5
B9
  8
MyLines
 10
368.6381964357379
 20
-157.59375
 30
0.0
 11
370.5107496818911
 21
-157.59375
 31
0.0
  0
LINE
  5
BA
  8
MyLines
 10
370.5107496818911
 20
-157.59375
 30
0.0
 11
372.3833029280444
 21
-157.59375
 31
0.0
  0
LINE
  5
BB
  8
MyLines
 10
372.3833029280444
 20
-157.59375
 30
0.0
 11
374.2558561741976
 21
-157.59375
 31
0.0
  0
LINE
  5
BC
  8
MyLines
 10
374.2558561741976
 20
-157.59375
 30
0.0
 11
376.12840942035086
 21
-157.59375
 31
0.0
  0
LINE
  5
BD
  8
MyLines
 10
376.12840942035086
 20
-157.59375
 30
0.0
 11
378.00096266650417
 21
-157.59375
 31
0.0
  0
LINE
  5
BE
  8
MyLines
 10
378.00096266650417
 20
-157.59375
 30
0.0
 11
379.8735159126574
 21
-157.59375
 31
0.0
  0
LINE
  5
BF
  8
MyLines
 10
379.8735159126574
 20
-157.59375
 30
0.0
 11
381.74606915881066
 21
-157.59375
 31
0.0
  0
LINE
  5
C0
  8
MyLines
 10
381.74606915881066
 20
-157.59375
 30
0.0
 11
383.6186224049639
 21
-157.59375
 31
0.0
  0
LINE
  5
C1
  8
MyLines
 10
383.6186224049639
 20
-157.59375
 30
0.0
 11
385.4911756511172
 21
-157.59375
 31
0.0
  0
LINE
  5
C2
  8
MyLines
 10
385.4911756511172
 20
-157.59375
 30
0.0
 11
387.36372889727045
 21
-157.59375
 31
0.0
  0
LINE
  5
C3
  8
MyLines
 10
387.36372889727045
 20
-157.59375
 30
0.0
 11
389.2362821434237
 21
-157.59375
 31
0.0
  0
LINE
  5
C4
  8
MyLines
 10
389.2362821434237
 20
-157.59375
 30
0.0
 11
391.10883538957694
 21
-157.59375
 31
0.0
  0
LINE
  5
C5
  8
MyLines
 10
391.10883538957694
 20
-157.59375
 30
0.0
 11
392.9813886357302
 21
-157.59375
 31
0.0
  0
LINE
  5
C6
  8
MyLines
 10
392.9813886357302
 20
-157.59375
 30
0.0
 11
392.9813886357302
 21
-157.59375
 31
0.0
  0
LINE
  5
C7
  8
MyLines
 10
392.9813886357302
 20
-157.59375
 30
0.0
 11
392.9813886357302
 21
165.53125
 31
0.0
  0
LINE
  5
C8
  8
MyLines
 10
392.9813886357302
 20
165.53125
 30
0.0
 11
392.9813886357302
 21
165.53125
 31
0.0
  0
LINE
  5
C9
  8
MyLines
 10
392.9813886357302
 20
165.53125
 30
0.0
 11
391.19069863550305
 21
165.53125
 31
0.0
  0
LINE
  5
CA
  8
MyLines
 10
391.19069863550305
 20
165.53125
 30
0.0
 11
389.4000086352759
 21
165.53125
 31
0.0
  0
LINE
  5
CB
  8
MyLines
 10
389.4000086352759
 20
165.53125
 30
0.0
 11
387.6093186350488
 21
165.53125
 31
0.0
  0
LINE
  5
CC
  8
MyLines
 10
387.6093186350488
 20
165.53125
 30
0.0
 11
385.81862863482166
 21
165.53125
 31
0.0
  0
LINE
  5
CD
  8
MyLines
 10
385.81862863482166
 20
165.53125
 30
0.0
 11
384.0279386345946
 21
165.53125
 31
0.0
  0
LINE
  5
CE
  8
MyLines
 10
384.0279386345946
 20
165.53125
 30
0.0
 11
382.23724863436746
 21
165.53125
 31
0.0
  0
LINE
  5
CF
  8
MyLines
 10
382.23724863436746
 20
165.53125
 30
0.0
 11
380.44655863414033
 21
165.53125
 31
0.0
  0
LINE
  5
D0
  8
MyLines
 10
380.44655863414033
 20
165.53125
 30
0.0
 11
378.6558686339132
 21
165.53125
 31
0.0
  0
LINE
  5
D1
  8
MyLines
 10
378.6558686339132
 20
165.53125
 30
0.0
 11
376.8651786336861
 21
165.53125
 31
0.0
  0
LINE
  5
D2
  8
MyLines
 10
376.8651786336861
 20
165.53125
 30
0.0
 11
375.074488633459
 21
165.53125
 31
0.0
  0
LINE
  5
D3
  8
MyLines
 10
375.074488633459
 20
165.53125
 30
0.0
 11
373.28379863323187
 21
165.53125
 31
0.0
  0
LINE
  5
D4
  8
MyLines
 10
373.28379863323187
 20
165.53125
 30
0.0
 11
371.49310863300474
 21
165.53125
 31
0.0
  0
LINE
  5
D5
  8
MyLines
 10
371.49310863300474
 20
165.53125
 30
0.0
 11
369.70241863277755
 21
165.53125
 31
0.0
  0
LINE
  5
D6
  8
MyLines
 10
369.70241863277755
 20
165.53125
 30
0.0
 11
367.9117286325505
 21
165.53125
 31
0.0
  0
LINE
  5
D7
  8
MyLines
 10
367.9117286325505
 20
165.53125
 30
0.0
 11
366.12103863232335
 21
165.53125
 31
0.0
  0
LINE
  5
D8
  8
MyLines
 10
366.12103863232335
 20
165.53125
 30
0.0
 11
364.3303486320962
 21
165.53125
 31
0.0
  0
LINE
  5
D9
  8
MyLines
 10
364.3303486320962
 20
165.53125
 30
0.0
 11
362.5396586318691
 21
165.53125
 31
0.0
  0
LINE
  5
DA
  8
MyLines
 10
362.5396586318691
 20
165.53125
 30
0.0
 11
360.748968631642
 21
165.53125
 31
0.0
  0
LINE
  5
DB
  8
MyLines
 10
360.748968631642
 20
165.53125
 30
0.0
 11
358.9582786314149
 21
165.53125
 31
0.0
  0
LINE
  5
DC
  8
MyLines
 10
358.9582786314149
 20
165.53125
 30
0.0
 11
357.16758863118775
 21
165.53125
 31
0.0
  0
LINE
  5
DD
  8
MyLines
 10
357.16758863118775
 20
165.53125
 30
0.0
 11
355.3768986309606
 21
165.53125
 31
0.0
  0
LINE
  5
DE
  8
MyLines
 10
355.3768986309606
 20
165.53125
 30
0.0
 11
353.58620863073355
 21
165.53125
 31
0.0
  0
LINE
  5
DF
  8
MyLines
 10
353.58620863073355
 20
165.53125
 30
0.0
 11
351.7955186305064
 21
165.53125
 31
0.0
  0
LINE
  5
E0
  8
MyLines
 10
351.7955186305064
 20
165.53125
 30
0.0
 11
350.0048286302793
 21
165.53125
 31
0.0
  0
LINE
  5
E1
  8
MyLines
 10
350.0048286302793
 20
165.53125
 30
0.0
 11
348.21413863005216
 21
165.53125
 31
0.0
  0
LINE
  5
E2
  8
MyLines
 10
348.21413863005216
 20
165.53125
 30
0.0
 11
346.42344862982503
 21
165.53125
 31
0.0
  0
LINE
  5
E3
  8
MyLines
 10
346.42344862982503
 20
165.53125
 30
0.0
 11
344.63275862959796
 21
165.53125
 31
0.0
  0
LINE
  5
E4
  8
MyLines
 10
344.63275862959796
 20
165.53125
 30
0.0
 11
342.84206862937083
 21
165.53125
 31
0.0
  0
LINE
  5
E5
  8
MyLines
 10
342.84206862937083
 20
165.53125
 30
0.0
 11
341.0513786291437
 21
165.53125
 31
0.0
  0
LINE
  5
E6
  8
MyLines
 10
341.0513786291437
 20
165.53125
 30
0.0
 11
339.26068862891657
 21
165.53125
 31
0.0
  0
LINE
  5
E7
  8
MyLines
 10
339.26068862891657
 20
165.53125
 30
0.0
 11
337.4699986286895
 21
165.53125
 31
0.0
  0
LINE
  5
E8
  8
MyLines
 10
337.4699986286895
 20
165.53125
 30
0.0
 11
335.67930862846237
 21
165.53125
 31
0.0
  0
LINE
  5
E9
  8
MyLines
 10
335.67930862846237
 20
165.53125
 30
0.0
 11
333.88861862823524
 21
165.53125
 31
0.0
  0
LINE
  5
EA
  8
MyLines
 10
333.88861862823524
 20
165.53125
 30
0.0
 11
332.0979286280081
 21
165.53125
 31
0.0
  0
LINE
  5
EB
  8
MyLines
 10
332.0979286280081
 20
165.53125
 30
0.0
 11
330.307238627781
 21
165.53125
 31
0.0
  0
LINE
  5
EC
  8
MyLines
 10
330.307238627781
 20
165.53125
 30
0.0
 11
328.51654862755385
 21
165.53125
 31
0.0
  0
LINE
  5
ED
  8
MyLines
 10
328.51654862755385
 20
165.53125
 30
0.0
 11
326.7258586273268
 21
165.53125
 31
0.0
  0
LINE
  5
EE
  8
MyLines
 10
326.7258586273268
 20
165.53125
 30
0.0
 11
324.9351686270996
 21
165.53125
 31
0.0
  0
LINE
  5
EF
  8
MyLines
 10
324.9351686270996
 20
165.53125
 30
0.0
 11
323.1444786268725
 21
165.53125
 31
0.0
  0
LINE
  5
F0
  8
MyLines
 10
323.1444786268725
 20
165.53125
 30
0.0
 11
321.3537886266454
 21
165.53125
 31
0.0
  0
LINE
  5
F1
  8
MyLines
 10
321.3537886266454
 20
165.53125
 30
0.0
 11
319.5630986264183
 21
165.53125
 31
0.0
  0
LINE
  5
F2
  8
MyLines
 10
319.5630986264183
 20
165.53125
 30
0.0
 11
317.7724086261911
 21
165.53125
 31
0.0
  0
LINE
  5
F3
  8
MyLines
 10
317.7724086261911
 20
165.53125
 30
0.0
 11
315.981718625964
 21
165.53125
 31
0.0
  0
LINE
  5
F4
  8
MyLines
 10
315.981718625964
 20
165.53125
 30
0.0
 11
314.1910286257369
 21
165.53125
 31
0.0
  0
LINE
  5
F5
  8
MyLines
 10
314.1910286257369
 20
165.53125
 30
0.0
 11
312.4003386255098
 21
165.53125
 31
0.0
  0
LINE
  5
F6
  8
MyLines
 10
312.4003386255098
 20
165.53125
 30
0.0
 11
310.60964862528266
 21
165.53125
 31
0.0
  0
LINE
  5
F7
  8
MyLines
 10
310.60964862528266
 20
165.53125
 30
0.0
 11
308.81895862505553
 21
165.53125
 31
0.0
  0
LINE
  5
F8
  8
MyLines
 10
308.81895862505553
 20
165.53125
 30
0.0
 11
307.0282686248284
 21
165.53125
 31
0.0
  0
LINE
  5
F9
  8
MyLines
 10
307.0282686248284
 20
165.53125
 30
0.0
 11
305.2375786246013
 21
165.53125
 31
0.0
  0
LINE
  5
FA
  8
MyLines
 10
305.2375786246013
 20
165.53125
 30
0.0
 11
305.2375786246013
 21
-153.625
 31
0.0
  0
LINE
  5
FB
  8
MyLines
 10
305.2375786246013
 20
-153.625
 30
0.0
 11
305.2375786246013
 21
-153.625
 31
0.0
  0
LINE
  5
FC
  8
MyLines
 10
305.2375786246013
 20
-153.625
 30
0.0
 11
306.9443355743116
 21
-153.625
 31
0.0
  0
LINE
  5
FD
  8
MyLines
 10
306.9443355743116
 20
-153.625
 30
0.0
 11
308.65109252402186
 21
-153.625
 31
0.0
  0
LINE
  5
FE
  8
MyLines
 10
308.65109252402186
 20
-153.625
 30
0.0
 11
310.3578494737322
 21
-153.625
 31
0.0
  0
LINE
  5
FF
  8
MyLines
 10
310.3578494737322
 20
-153.625
 30
0.0
 11
312.0646064234424
 21
-153.625
 31
0.0
  0
LINE
  5
100
  8
MyLines
 10
312.0646064234424
 20
-153.625
 30
0.0
 11
313.7713633731527
 21
-153.625
 31
0.0
  0
LINE
  5
101
  8
MyLines
 10
313.7713633731527
 20
-153.625
 30
0.0
 11
315.478120322863
 21
-153.625
 31
0.0
  0
LINE
  5
102
  8
MyLines
 10
315.478120322863
 20
-153.625
 30
0.0
 11
317.18487727257326
 21
-153.625
 31
0.0
  0
LINE
  5
103
  8
MyLines
 10
317.18487727257326
 20
-153.625
 30
0.0
 11
318.8916342222835
 21
-153.625
 31
0.0
  0
LINE
  5
104
  8
MyLines
 10
318.8916342222835
 20
-153.625
 30
0.0
 11
320.59839117199385
 21
-153.625
 31
0.0
  0
LINE
  5
105
  8
MyLines
 10
320.59839117199385
 20
-153.625
 30
0.0
 11
322.30514812170406
 21
-153.625
 31
0.0
  0
LINE
  5
106
  8
MyLines
 10
322.30514812170406
 20
-153.625
 30
0.0
 11
324.0119050714144
 21
-153.625
 31
0.0
  0
LINE
  5
107
  8
MyLines
 10
324.0119050714144
 20
-153.625
 30
0.0
 11
325.71866202112466
 21
-153.625
 31
0.0
  0
LINE
  5
108
  8
MyLines
 10
325.71866202112466
 20
-153.625
 30
0.0
 11
327.425418970835
 21
-153.625
 31
0.0
  0
LINE
  5
109
  8
MyLines
 10
327.425418970835
 20
-153.625
 30
0.0
 11
329.1321759205452
 21
-153.625
 31
0.0
  0
LINE
  5
10A
  8
MyLines
 10
329.1321759205452
 20
-153.625
 30
0.0
 11
330.8389328702555
 21
-153.625
 31
0.0
  0
LINE
  5
10B
  8
MyLines
 10
330.8389328702555
 20
-153.625
 30
0.0
 11
332.5456898199658
 21
-153.625
 31
0.0
  0
LINE
  5
10C
  8
MyLines
 10
332.5456898199658
 20
-153.625
 30
0.0
 11
334.25244676967606
 21
-153.625
 31
0.0
  0
LINE
  5
10D
  8
MyLines
 10
334.25244676967606
 20
-153.625
 30
0.0
 11
335.9592037193863
 21
-153.625
 31
0.0
  0
LINE
  5
10E
  8
MyLines
 10
335.9592037193863
 20
-153.625
 30
0.0
 11
337.66596066909665
 21
-153.625
 31
0.0
  0
LINE
  5
10F
  8
MyLines
 10
337.66596066909665
 20
-153.625
 30
0.0
 11
339.37271761880686
 21
-153.625
 31
0.0
  0
LINE
  5
110
  8
MyLines
 10
339.37271761880686
 20
-153.625
 30
0.0
 11
341.0794745685172
 21
-153.625
 31
0.0
  0
LINE
  5
111
  8
MyLines
 10
341.0794745685172
 20
-153.625
 30
0.0
 11
342.78623151822745
 21
-153.625
 31
0.0
  0
LINE
  5
112
  8
MyLines
 10
342.78623151822745
 20
-153.625
 30
0.0
 11
344.4929884679377
 21
-153.625
 31
0.0
  0
LINE
  5
113
  8
MyLines
 10
344.4929884679377
 20
-153.625
 30
0.0
 11
346.199745417648
 21
-153.625
 31
0.0
  0
LINE
  5
114
  8
MyLines
 10
346.199745417648
 20
-153.625
 30
0.0
 11
347.9065023673583
 21
-153.625
 31
0.0
  0
LINE
  5
115
  8
MyLines
 10
347.9065023673583
 20
-153.625
 30
0.0
 11
349.6132593170685
 21
-153.625
 31
0.0
  0
LINE
  5
116
  8
MyLines
 10
349.6132593170685
 20
-153.625
 30
0.0
 11
351.32001626677885
 21
-153.625
 31
0.0
  0
LINE
  5
117
  8
MyLines
 10
351.32001626677885
 20
-153.625
 30
0.0
 11
353.0267732164891
 21
-153.625
 31
0.0
  0
LINE
  5
118
  8
MyLines
 10
353.0267732164891
 20
-153.625
 30
0.0
 11
354.7335301661994
 21
-153.625
 31
0.0
  0
LINE
  5
119
  8
MyLines
 10
354.7335301661994
 20
-153.625
 30
0.0
 11
356.44028711590965
 21
-153.625
 31
0.0
  0
LINE
  5
11A
  8
MyLines
 10
356.44028711590965
 20
-153.625
 30
0.0
 11
358.14704406562
 21
-153.625
 31
0.0
  0
LINE
  5
11B
  8
MyLines
 10
358.14704406562
 20
-153.625
 30
0.0
 11
359.85380101533025
 21
-153.625
 31
0.0
  0
LINE
  5
11C
  8
MyLines
 10
359.85380101533025
 20
-153.625
 30
0.0
 11
361.5605579650405
 21
-153.625
 31
0.0
  0
LINE
  5
11D
  8
MyLines
 10
361.5605579650405
 20
-153.625
 30
0.0
 11
363.2673149147508
 21
-153.625
 31
0.0
  0
LINE
  5
11E
  8
MyLines
 10
363.2673149147508
 20
-153.625
 30
0.0
 11
364.9740718644611
 21
-153.625
 31
0.0
  0
LINE
  5
11F
  8
MyLines
 10
364.9740718644611
 20
-153.625
 30
0.0
 11
366.6808288141713
 21
-153.625
 31
0.0
  0
LINE
  5
120
  8
MyLines
 10
366.6808288141713
 20
-153.625
 30
0.0
 11
368.38758576388165
 21
-153.625
 31
0.0
  0
LINE
  5
121
  8
MyLines
 10
368.38758576388165
 20
-153.625
 30
0.0
 11
370.0943427135919
 21
-153.625
 31
0.0
  0
LINE
  5
122
  8
MyLines
 10
370.0943427135919
 20
-153.625
 30
0.0
 11
371.8010996633022
 21
-153.625
 31
0.0
  0
LINE
  5
123
  8
MyLines
 10
371.8010996633022
 20
-153.625
 30
0.0
 11
373.5078566130125
 21
-153.625
 31
0.0
  0
LINE
  5
124
  8
MyLines
 10
373.5078566130125
 20
-153.625
 30
0.0
 11
375.2146135627228
 21
-153.625
 31
0.0
  0
LINE
  5
125
  8
MyLines
 10
375.2146135627228
 20
-153.625
 30
0.0
 11
376.921370512433
 21
-153.625
 31
0.0
  0
LINE
  5
126
  8
MyLines
 10
376.921370512433
 20
-153.625
 30
0.0
 11
378.6281274621433
 21
-153.625
 31
0.0
  0
LINE
  5
127
  8
MyLines
 10
378.6281274621433
 20
-153.625
 30
0.0
 11
380.33488441185364
 21
-153.625
 31
0.0
  0
LINE
  5
128
  8
MyLines
 10
380.33488441185364
 20
-153.625
 30
0.0
 11
382.04164136156385
 21
-153.625
 31
0.0
  0
LINE
  5
129
  8
MyLines
 10
382.04164136156385
 20
-153.625
 30
0.0
 11
383.7483983112741
 21
-153.625
 31
0.0
  0
LINE
  5
12A
  8
MyLines
 10
383.7483983112741
 20
-153.625
 30
0.0
 11
385.45515526098444
 21
-153.625
 31
0.0
  0
LINE
  5
12B
  8
MyLines
 10
385.45515526098444
 20
-153.625
 30
0.0
 11
387.1619122106947
 21
-153.625
 31
0.0
  0
LINE
  5
12C
  8
MyLines
 10
387.1619122106947
 20
-153.625
 30
0.0
 11
388.868669160405
 21
-153.625
 31
0.0
  0
LINE
  5
12D
  8
MyLines
 10
388.868669160405
 20
-153.625
 30
0.0
 11
388.868669160405
 21
-153.625
 31
0.0
  0
LINE
  5
12E
  8
MyLines
 10
388.868669160405
 20
-153.625
 30
0.0
 11
388.868669160405
 21
161.5625
 31
0.0
  0
LINE
  5
12F
  8
MyLines
 10
388.868669160405
 20
161.5625
 30
0.0
 11
388.868669160405
 21
161.5625
 31
0.0
  0
LINE
  5
130
  8
MyLines
 10
388.868669160405
 20
161.5625
 30
0.0
 11
387.24584526121157
 21
161.5625
 31
0.0
  0
LINE
  5
131
  8
MyLines
 10
387.24584526121157
 20
161.5625
 30
0.0
 11
385.6230213620181
 21
161.5625
 31
0.0
  0
LINE
  5
132
  8
MyLines
 10
385.6230213620181
 20
161.5625
 30
0.0
 11
384.00019746282464
 21
161.5625
 31
0.0
  0
LINE
  5
133
  8
MyLines
 10
384.00019746282464
 20
161.5625
 30
0.0
 11
382.37737356363124
 21
161.5625
 31
0.0
  0
LINE
  5
134
  8
MyLines
 10
382.37737356363124
 20
161.5625
 30
0.0
 11
380.7545496644378
 21
161.5625
 31
0.0
  0
LINE
  5
135
  8
MyLines
 10
380.7545496644378
 20
161.5625
 30
0.0
 11
379.13172576524437
 21
161.5625
 31
0.0
  0
LINE
  5
136
  8
MyLines
 10
379.13172576524437
 20
161.5625
 30
0.0
 11
377.5089018660509
 21
161.5625
 31
0.0
  0
LINE
  5
137
  8
MyLines
 10
377.5089018660509
 20
161.5625
 30
0.0
 11
375.88607796685744
 21
161.5625
 31
0.0
  0
LINE
  5
138
  8
MyLines
 10
375.88607796685744
 20
161.5625
 30
0.0
 11
374.26325406766404
 21
161.5625
 31
0.0
  0
LINE
  5
139
  8
MyLines
 10
374.26325406766404
 20
161.5625
 30
0.0
 11
372.6404301684706
 21
161.5625
 31
0.0
  0
LINE
  5
13A
  8
MyLines
 10
372.6404301684706
 20
161.5625
 30
0.0
 11
371.01760626927717
 21
161.5625
 31
0.0
  0
LINE
  5
13B
  8
MyLines
 10
371.01760626927717
 20
161.5625
 30
0.0
 11
369.3947823700837
 21
161.5625
 31
0.0
  0
LINE
  5
13C
  8
MyLines
 10
369.3947823700837
 20
161.5625
 30
0.0
 11
367.77195847089024
 21
161.5625
 31
0.0
  0
LINE
  5
13D
  8
MyLines
 10
367.77195847089024
 20
161.5625
 30
0.0
 11
366.1491345716969
 21
161.5625
 31
0.0
  0
LINE
  5
13E
  8
MyLines
 10
366.1491345716969
 20
161.5625
 30
0.0
 11
364.5263106725034
 21
161.5625
 31
0.0
  0
LINE
  5
13F
  8
MyLines
 10
364.5263106725034
 20
161.5625
 30
0.0
 11
362.90348677331
 21
161.5625
 31
0.0
  0
LINE
  5
140
  8
MyLines
 10
362.90348677331
 20
161.5625
 30
0.0
 11
361.28066287411656
 21
161.5625
 31
0.0
  0
LINE
  5
141
  8
MyLines
 10
361.28066287411656
 20
161.5625
 30
0.0
 11
359.6578389749231
 21
161.5625
 31
0.0
  0
LINE
  5
142
  8
MyLines
 10
359.6578389749231
 20
161.5625
 30
0.0
 11
358.0350150757297
 21
161.5625
 31
0.0
  0
LINE
  5
143
  8
MyLines
 10
358.0350150757297
 20
161.5625
 30
0.0
 11
356.4121911765362
 21
161.5625
 31
0.0
  0
LINE
  5
144
  8
MyLines
 10
356.4121911765362
 20
161.5625
 30
0.0
 11
354.7893672773428
 21
161.5625
 31
0.0
  0
LINE
  5
145
  8
MyLines
 10
354.7893672773428
 20
161.5625
 30
0.0
 11
353.16654337814936
 21
161.5625
 31
0.0
  0
LINE
  5
146
  8
MyLines
 10
353.16654337814936
 20
161.5625
 30
0.0
 11
351.5437194789559
 21
161.5625
 31
0.0
  0
LINE
  5
147
  8
MyLines
 10
351.5437194789559
 20
161.5625
 30
0.0
 11
349.9208955797625
 21
161.5625
 31
0.0
  0
LINE
  5
148
  8
MyLines
 10
349.9208955797625
 20
161.5625
 30
0.0
 11
348.298071680569
 21
161.5625
 31
0.0
  0
LINE
  5
149
  8
MyLines
 10
348.298071680569
 20
161.5625
 30
0.0
 11
346.6752477813756
 21
161.5625
 31
0.0
  0
LINE
  5
14A
  8
MyLines
 10
346.6752477813756
 20
161.5625
 30
0.0
 11
345.05242388218215
 21
161.5625
 31
0.0
  0
LINE
  5
14B
  8
MyLines
 10
345.05242388218215
 20
161.5625
 30
0.0
 11
343.42959998298875
 21
161.5625
 31
0.0
  0
LINE
  5
14C
  8
MyLines
 10
343.42959998298875
 20
161.5625
 30
0.0
 11
341.8067760837953
 21
161.5625
 31
0.0
  0
LINE
  5
14D
  8
MyLines
 10
341.8067760837953
 20
161.5625
 30
0.0
 11
340.1839521846018
 21
161.5625
 31
0.0
  0
LINE
  5
14E
  8
MyLines
 10
340.1839521846018
 20
161.5625
 30
0.0
 11
338.5611282854084
 21
161.5625
 31
0.0
  0
LINE
  5
14F
  8
MyLines
 10
338.5611282854084
 20
161.5625
 30
0.0
 11
336.93830438621495
 21
161.5625
 31
0.0
  0
LINE
  5
150
  8
MyLines
 10
336.93830438621495
 20
161.5625
 30
0.0
 11
335.31548048702155
 21
161.5625
 31
0.0
  0
LINE
  5
151
  8
MyLines
 10
335.31548048702155
 20
161.5625
 30
0.0
 11
333.6926565878281
 21
161.5625
 31
0.0
  0
LINE
  5
152
  8
MyLines
 10
333.6926565878281
 20
161.5625
 30
0.0
 11
332.0698326886346
 21
161.5625
 31
0.0
  0
LINE
  5
153
  8
MyLines
 10
332.0698326886346
 20
161.5625
 30
0.0
 11
330.4470087894412
 21
161.5625
 31
0.0
  0
LINE
  5
154
  8
MyLines
 10
330.4470087894412
 20
161.5625
 30
0.0
 11
328.8241848902478
 21
161.5625
 31
0.0
  0
LINE
  5
155
  8
MyLines
 10
328.8241848902478
 20
161.5625
 30
0.0
 11
327.2013609910544
 21
161.5625
 31
0.0
  0
LINE
  5
156
  8
MyLines
 10
327.2013609910544
 20
161.5625
 30
0.0
 11
325.57853709186094
 21
161.5625
 31
0.0
  0
LINE
  5
157
  8
MyLines
 10
325.57853709186094
 20
161.5625
 30
0.0
 11
323.9557131926675
 21
161.5625
 31
0.0
  0
LINE
  5
158
  8
MyLines
 10
323.9557131926675
 20
161.5625
 30
0.0
 11
322.33288929347407
 21
161.5625
 31
0.0
  0
LINE
  5
159
  8
MyLines
 10
322.33288929347407
 20
161.5625
 30
0.0
 11
320.7100653942806
 21
161.5625
 31
0.0
  0
LINE
  5
15A
  8
MyLines
 10
320.7100653942806
 20
161.5625
 30
0.0
 11
319.0872414950872
 21
161.5625
 31
0.0
  0
LINE
  5
15B
  8
MyLines
 10
319.0872414950872
 20
161.5625
 30
0.0
 11
317.46441759589374
 21
161.5625
 31
0.0
  0
LINE
  5
15C
  8
MyLines
 10
317.46441759589374
 20
161.5625
 30
0.0
 11
315.8415936967003
 21
161.5625
 31
0.0
  0
LINE
  5
15D
  8
MyLines
 10
315.8415936967003
 20
161.5625
 30
0.0
 11
314.21876979750687
 21
161.5625
 31
0.0
  0
LINE
  5
15E
  8
MyLines
 10
314.21876979750687
 20
161.5625
 30
0.0
 11
312.5959458983134
 21
161.5625
 31
0.0
  0
LINE
  5
15F
  8
MyLines
 10
312.5959458983134
 20
161.5625
 30
0.0
 11
310.97312199912
 21
161.5625
 31
0.0
  0
LINE
  5
160
  8
MyLines
 10
310.97312199912
 20
161.5625
 30
0.0
 11
309.35029809992653
 21
161.5625
 31
0.0
  0
LINE
  5
161
  8
MyLines
 10
309.35029809992653
 20
161.5625
 30
0.0
 11
309.35029809992653
 21
-149.65625
 31
0.0
  0
LINE
  5
162
  8
MyLines
 10
309.35029809992653
 20
-149.65625
 30
0.0
 11
309.35029809992653
 21
-149.65625
 31
0.0
  0
LINE
  5
163
  8
MyLines
 10
309.35029809992653
 20
-149.65625
 30
0.0
 11
310.88534992744155
 21
-149.65625
 31
0.0
  0
LINE
  5
164
  8
MyLines
 10
310.88534992744155
 20
-149.65625
 30
0.0
 11
312.4204017549566
 21
-149.65625
 31
0.0
  0
LINE
  5
165
  8
MyLines
 10
312.4204017549566
 20
-149.65625
 30
0.0
 11
313.9554535824716
 21
-149.65625
 31
0.0
  0
LINE
  5
166
  8
MyLines
 10
313.9554535824716
 20
-149.65625
 30
0.0
 11
315.4905054099866
 21
-149.65625
 31
0.0
  0
LINE
  5
167
  8
MyLines
 10
315.4905054099866
 20
-149.65625
 30
0.0
 11
317.02555723750163
 21
-149.65625
 31
0.0
  0
LINE
  5
168
  8
MyLines
 10
317.02555723750163
 20
-149.65625
 30
0.0
 11
318.56060906501665
 21
-149.65625
 31
0.0
  0
LINE
  5
169
  8
MyLines
 10
318.56060906501665
 20
-149.65625
 30
0.0
 11
320.09566089253167
 21
-149.65625
 31
0.0
  0
LINE
  5
16A
  8
MyLines
 10
320.09566089253167
 20
-149.65625
 30
0.0
 11
321.6307127200467
 21
-149.65625
 31
0.0
  0
LINE
  5
16B
  8
MyLines
 10
321.6307127200467
 20
-149.65625
 30
0.0
 11
323.1657645475617
 21
-149.65625
 31
0.0
  0
LINE
  5
16C
  8
MyLines
 10
323.1657645475617
 20
-149.65625
 30
0.0
 11
324.7008163750767
 21
-149.65625
 31
0.0
  0
LINE
  5
16D
  8
MyLines
 10
324.7008163750767
 20
-149.65625
 30
0.0
 11
326.23586820259175
 21
-149.65625
 31
0.0
  0
LINE
  5
16E
  8
MyLines
 10
326.23586820259175
 20
-149.65625
 30
0.0
 11
327.77092003010677
 21
-149.65625
 31
0.0
  0
LINE
  5
16F
  8
MyLines
 10
327.77092003010677
 20
-149.65625
 30
0.0
 11
329.3059718576218
 21
-149.65625
 31
0.0
  0
LINE
  5
170
  8
MyLines
 10
329.3059718576218
 20
-149.65625
 30
0.0
 11
330.8410236851368
 21
-149.65625
 31
0.0
  0
LINE
  5
171
  8
MyLines
 10
330.8410236851368
 20
-149.65625
 30
0.0
 11
332.3760755126518
 21
-149.65625
 31
0.0
  0
LINE
  5
172
  8
MyLines
 10
332.3760755126518
 20
-149.65625
 30
0.0
 11
333.91112734016684
 21
-149.65625
 31
0.0
  0
LINE
  5
173
  8
MyLines
 10
333.91112734016684
 20
-149.65625
 30
0.0
 11
335.44617916768186
 21
-149.65625
 31
0.0
  0
LINE
  5
174
  8
MyLines
 10
335.44617916768186
 20
-149.65625
 30
0.0
 11
336.9812309951969
 21
-149.65625
 31
0.0
  0
LINE
  5
175
  8
MyLines
 10
336.9812309951969
 20
-149.65625
 30
0.0
 11
338.5162828227119
 21
-149.65625
 31
0.0
  0
LINE
  5
176
  8
MyLines
 10
338.5162828227119
 20
-149.65625
 30
0.0
 11
340.0513346502269
 21
-149.65625
 31
0.0
  0
LINE
  5
177
  8
MyLines
 10
340.0513346502269
 20
-149.65625
 30
0.0
 11
341.58638647774194
 21
-149.65625
 31
0.0
  0
LINE
  5
178
  8
MyLines
 10
341.58638647774194
 20
-149.65625
 30
0.0
 11
343.12143830525696
 21
-149.65625
 31
0.0
  0
LINE
  5
179
  8
MyLines
 10
343.12143830525696
 20
-149.65625
 30
0.0
 11
344.656490132772
 21
-149.65625
 31
0.0
  0
LINE
  5
17A
  8
MyLines
 10
344.656490132772
 20
-149.65625
 30
0.0
 11
346.191541960287
 21
-149.65625
 31
0.0
  0
LINE
  5
17B
  8
MyLines
 10
346.191541960287
 20
-149.65625
 30
0.0
 11
347.726593787802
 21
-149.65625
 31
0.0
  0
LINE
  5
17C
  8
MyLines
 10
347.726593787802
 20
-149.65625
 30
0.0
 11
349.26164561531704
 21
-149.65625
 31
0.0
  0
LINE
  5
17D
  8
MyLines
 10
349.26164561531704
 20
-149.65625
 30
0.0
 11
350.79669744283206
 21
-149.65625
 31
0.0
  0
LINE
  5
17E
  8
MyLines
 10
350.79669744283206
 20
-149.65625
 30
0.0
 11
352.3317492703471
 21
-149.65625
 31
0.0
  0
LINE
  5
17F
  8
MyLines
 10
352.3317492703471
 20
-149.65625
 30
0.0
 11
353.8668010978621
 21
-149.65625
 31
0.0
  0
LINE
  5
180
  8
MyLines
 10
353.8668010978621
 20
-149.65625
 30
0.0
 11
355.4018529253771
 21
-149.65625
 31
0.0
  0
LINE
  5
181
  8
MyLines
 10
355.4018529253771
 20
-149.65625
 30
0.0
 11
356.93690475289213
 21
-149.65625
 31
0.0
  0
LINE
  5
182
  8
MyLines
 10
356.93690475289213
 20
-149.65625
 30
0.0
 11
358.47195658040715
 21
-149.65625
 31
0.0
  0
LINE
  5
183
  8
MyLines
 10
358.47195658040715
 20
-149.65625
 30
0.0
 11
360.00700840792217
 21
-149.65625
 31
0.0
  0
LINE
  5
184
  8
MyLines
 10
360.00700840792217
 20
-149.65625
 30
0.0
 11
361.5420602354372
 21
-149.65625
 31
0.0
  0
LINE
  5
185
  8
MyLines
 10
361.5420602354372
 20
-149.65625
 30
0.0
 11
363.0771120629522
 21
-149.65625
 31
0.0
  0
LINE
  5
186
  8
MyLines
 10
363.0771120629522
 20
-149.65625
 30
0.0
 11
364.61216389046723
 21
-149.65625
 31
0.0
  0
LINE
  5
187
  8
MyLines
 10
364.61216389046723
 20
-149.65625
 30
0.0
 11
366.14721571798225
 21
-149.65625
 31
0.0
  0
LINE
  5
188
  8
MyLines
 10
366.14721571798225
 20
-149.65625
 30
0.0
 11
367.6822675454972
 21
-149.65625
 31
0.0
  0
LINE
  5
189
  8
MyLines
 10
367.6822675454972
 20
-149.65625
 30
0.0
 11
369.2173193730123
 21
-149.65625
 31
0.0
  0
LINE
  5
18A
  8
MyLines
 10
369.2173193730123
 20
-149.65625
 30
0.0
 11
370.75237120052736
 21
-149.65625
 31
0.0
  0
LINE
  5
18B
  8
MyLines
 10
370.75237120052736
 20
-149.65625
 30
0.0
 11
372.2874230280423
 21
-149.65625
 31
0.0
  0
LINE
  5
18C
  8
MyLines
 10
372.2874230280423
 20
-149.65625
 30
0.0
 11
373.82247485555735
 21
-149.65625
 31
0.0
  0
LINE
  5
18D
  8
MyLines
 10
373.82247485555735
 20
-149.65625
 30
0.0
 11
375.35752668307236
 21
-149.65625
 31
0.0
  0
LINE
  5
18E
  8
MyLines
 10
375.35752668307236
 20
-149.65625
 30
0.0
 11
376.89257851058744
 21
-149.65625
 31
0.0
  0
LINE
  5
18F
  8
MyLines
 10
376.89257851058744
 20
-149.65625
 30
0.0
 11
378.4276303381024
 21
-149.65625
 31
0.0
  0
LINE
  5
190
  8
MyLines
 10
378.4276303381024
 20
-149.65625
 30
0.0
 11
379.9626821656174
 21
-149.65625
 31
0.0
  0
LINE
  5
191
  8
MyLines
 10
379.9626821656174
 20
-149.65625
 30
0.0
 11
381.49773399313244
 21
-149.65625
 31
0.0
  0
LINE
  5
192
  8
MyLines
 10
381.49773399313244
 20
-149.65625
 30
0.0
 11
383.0327858206475
 21
-149.65625
 31
0.0
  0
LINE
  5
193
  8
MyLines
 10
383.0327858206475
 20
-149.65625
 30
0.0
 11
384.5678376481625
 21
-149.65625
 31
0.0
  0
LINE
  5
194
  8
MyLines
 10
384.5678376481625
 20
-149.65625
 30
0.0
 11
384.5678376481625
 21
-149.65625
 31
0.0
  0
LINE
  5
195
  8
MyLines
 10
384.5678376481625
 20
-149.65625
 30
0.0
 11
384.5678376481625
 21
157.59375
 31
0.0
  0
LINE
  5
196
  8
MyLines
 10
384.5678376481625
 20
157.59375
 30
0.0
 11
384.5678376481625
 21
157.59375
 31
0.0
  0
LINE
  5
197
  8
MyLines
 10
384.5678376481625
 20
157.59375
 30
0.0
 11
383.1205578923259
 21
157.59375
 31
0.0
  0
LINE
  5
198
  8
MyLines
 10
383.1205578923259
 20
157.59375
 30
0.0
 11
381.6732781364893
 21
157.59375
 31
0.0
  0
LINE
  5
199
  8
MyLines
 10
381.6732781364893
 20
157.59375
 30
0.0
 11
380.2259983806527
 21
157.59375
 31
0.0
  0
LINE
  5
19A
  8
MyLines
 10
380.2259983806527
 20
157.59375
 30
0.0
 11
378.77871862481607
 21
157.59375
 31
0.0
  0
LINE
  5
19B
  8
MyLines
 10
378.77871862481607
 20
157.59375
 30
0.0
 11
377.3314388689795
 21
157.59375
 31
0.0
  0
LINE
  5
19C
  8
MyLines
 10
377.3314388689795
 20
157.59375
 30
0.0
 11
375.8841591131429
 21
157.59375
 31
0.0
  0
LINE
  5
19D
  8
MyLines
 10
375.8841591131429
 20
157.59375
 30
0.0
 11
374.4368793573063
 21
157.59375
 31
0.0
  0
LINE
  5
19E
  8
MyLines
 10
374.4368793573063
 20
157.59375
 30
0.0
 11
372.9895996014697
 21
157.59375
 31
0.0
  0
LINE
  5
19F
  8
MyLines
 10
372.9895996014697
 20
157.59375
 30
0.0
 11
371.5423198456331
 21
157.59375
 31
0.0
  0
LINE
  5
1A0
  8
MyLines
 10
371.5423198456331
 20
157.59375
 30
0.0
 11
370.0950400897965
 21
157.59375
 31
0.0
  0
LINE
  5
1A1
  8
MyLines
 10
370.0950400897965
 20
157.59375
 30
0.0
 11
368.64776033395987
 21
157.59375
 31
0.0
  0
LINE
  5
1A2
  8
MyLines
 10
368.64776033395987
 20
157.59375
 30
0.0
 11
367.2004805781233
 21
157.59375
 31
0.0
  0
LINE
  5
1A3
  8
MyLines
 10
367.2004805781233
 20
157.59375
 30
0.0
 11
365.7532008222867
 21
157.59375
 31
0.0
  0
LINE
  5
1A4
  8
MyLines
 10
365.7532008222867
 20
157.59375
 30
0.0
 11
364.3059210664501
 21
157.59375
 31
0.0
  0
LINE
  5
1A5
  8
MyLines
 10
364.3059210664501
 20
157.59375
 30
0.0
 11
362.8586413106135
 21
157.59375
 31
0.0
  0
LINE
  5
1A6
  8
MyLines
 10
362.8586413106135
 20
157.59375
 30
0.0
 11
361.4113615547769
 21
157.59375
 31
0.0
  0
LINE
  5
1A7
  8
MyLines
 10
361.4113615547769
 20
157.59375
 30
0.0
 11
359.9640817989403
 21
157.59375
 31
0.0
  0
LINE
  5
1A8
  8
MyLines
 10
359.9640817989403
 20
157.59375
 30
0.0
 11
358.51680204310367
 21
157.59375
 31
0.0
  0
LINE
  5
1A9
  8
MyLines
 10
358.51680204310367
 20
157.59375
 30
0.0
 11
357.0695222872671
 21
157.59375
 31
0.0
  0
LINE
  5
1AA
  8
MyLines
 10
357.0695222872671
 20
157.59375
 30
0.0
 11
355.6222425314305
 21
157.59375
 31
0.0
  0
LINE
  5
1AB
  8
MyLines
 10
355.6222425314305
 20
157.59375
 30
0.0
 11
354.1749627755939
 21
157.59375
 31
0.0
  0
LINE
  5
1AC
  8
MyLines
 10
354.1749627755939
 20
157.59375
 30
0.0
 11
352.7276830197573
 21
157.59375
 31
0.0
  0
LINE
  5
1AD
  8
MyLines
 10
352.7276830197573
 20
157.59375
 30
0.0
 11
351.2804032639206
 21
157.59375
 31
0.0
  0
LINE
  5
1AE
  8
MyLines
 10
351.2804032639206
 20
157.59375
 30
0.0
 11
349.8331235080841
 21
157.59375
 31
0.0
  0
LINE
  5
1AF
  8
MyLines
 10
349.8331235080841
 20
157.59375
 30
0.0
 11
348.3858437522474
 21
157.59375
 31
0.0
  0
LINE
  5
1B0
  8
MyLines
 10
348.3858437522474
 20
157.59375
 30
0.0
 11
346.9385639964109
 21
157.59375
 31
0.0
  0
LINE
  5
1B1
  8
MyLines
 10
346.9385639964109
 20
157.59375
 30
0.0
 11
345.49128424057426
 21
157.59375
 31
0.0
  0
LINE
  5
1B2
  8
MyLines
 10
345.49128424057426
 20
157.59375
 30
0.0
 11
344.0440044847377
 21
157.59375
 31
0.0
  0
LINE
  5
1B3
  8
MyLines
 10
344.0440044847377
 20
157.59375
 30
0.0
 11
342.59672472890105
 21
157.59375
 31
0.0
  0
LINE
  5
1B4
  8
MyLines
 10
342.59672472890105
 20
157.59375
 30
0.0
 11
341.1494449730644
 21
157.59375
 31
0.0
  0
LINE
  5
1B5
  8
MyLines
 10
341.1494449730644
 20
157.59375
 30
0.0
 11
339.70216521722784
 21
157.59375
 31
0.0
  0
LINE
  5
1B6
  8
MyLines
 10
339.70216521722784
 20
157.59375
 30
0.0
 11
338.2548854613912
 21
157.59375
 31
0.0
  0
LINE
  5
1B7
  8
MyLines
 10
338.2548854613912
 20
157.59375
 30
0.0
 11
336.80760570555464
 21
157.59375
 31
0.0
  0
LINE
  5
1B8
  8
MyLines
 10
336.80760570555464
 20
157.59375
 30
0.0
 11
335.36032594971806
 21
157.59375
 31
0.0
  0
LINE
  5
1B9
  8
MyLines
 10
335.36032594971806
 20
157.59375
 30
0.0
 11
333.9130461938814
 21
157.59375
 31
0.0
  0
LINE
  5
1BA
  8
MyLines
 10
333.9130461938814
 20
157.59375
 30
0.0
 11
332.46576643804485
 21
157.59375
 31
0.0
  0
LINE
  5
1BB
  8
MyLines
 10
332.46576643804485
 20
157.59375
 30
0.0
 11
331.0184866822082
 21
157.59375
 31
0.0
  0
LINE
  5
1BC
  8
MyLines
 10
331.0184866822082
 20
157.59375
 30
0.0
 11
329.57120692637164
 21
157.59375
 31
0.0
  0
LINE
  5
1BD
  8
MyLines
 10
329.57120692637164
 20
157.59375
 30
0.0
 11
328.123927170535
 21
157.59375
 31
0.0
  0
LINE
  5
1BE
  8
MyLines
 10
328.123927170535
 20
157.59375
 30
0.0
 11
326.67664741469844
 21
157.59375
 31
0.0
  0
LINE
  5
1BF
  8
MyLines
 10
326.67664741469844
 20
157.59375
 30
0.0
 11
325.22936765886186
 21
157.59375
 31
0.0
  0
LINE
  5
1C0
  8
MyLines
 10
325.22936765886186
 20
157.59375
 30
0.0
 11
323.78208790302523
 21
157.59375
 31
0.0
  0
LINE
  5
1C1
  8
MyLines
 10
323.78208790302523
 20
157.59375
 30
0.0
 11
322.33480814718865
 21
157.59375
 31
0.0
  0
LINE
  5
1C2
  8
MyLines
 10
322.33480814718865
 20
157.59375
 30
0.0
 11
320.887528391352
 21
157.59375
 31
0.0
  0
LINE
  5
1C3
  8
MyLines
 10
320.887528391352
 20
157.59375
 30
0.0
 11
319.44024863551545
 21
157.59375
 31
0.0
  0
LINE
  5
1C4
  8
MyLines
 10
319.44024863551545
 20
157.59375
 30
0.0
 11
317.9929688796788
 21
157.59375
 31
0.0
  0
LINE
  5
1C5
  8
MyLines
 10
317.9929688796788
 20
157.59375
 30
0.0
 11
316.54568912384224
 21
157.59375
 31
0.0
  0
LINE
  5
1C6
  8
MyLines
 10
316.54568912384224
 20
157.59375
 30
0.0
 11
315.0984093680056
 21
157.59375
 31
0.0
  0
LINE
  5
1C7
  8
MyLines
 10
315.0984093680056
 20
157.59375
 30
0.0
 11
313.65112961216903
 21
157.59375
 31
0.0
  0
LINE
  5
1C8
  8
MyLines
 10
313.65112961216903
 20
157.59375
 30
0.0
 11
313.65112961216903
 21
-145.6875
 31
0.0
  0
LINE
  5
1C9
  8
MyLines
 10
313.65112961216903
 20
-145.6875
 30
0.0
 11
313.65112961216903
 21
-145.6875
 31
0.0
  0
LINE
  5
1CA
  8
MyLines
 10
313.65112961216903
 20
-145.6875
 30
0.0
 11
315.004217239633
 21
-145.6875
 31
0.0
  0
LINE
  5
1CB
  8
MyLines
 10
315.004217239633
 20
-145.6875
 30
0.0
 11
316.35730486709707
 21
-145.6875
 31
0.0
  0
LINE
  5
1CC
  8
MyLines
 10
316.35730486709707
 20
-145.6875
 30
0.0
 11
317.71039249456106
 21
-145.6875
 31
0.0
  0
LINE
  5
1CD
  8
MyLines
 10
317.71039249456106
 20
-145.6875
 30
0.0
 11
319.06348012202506
 21
-145.6875
 31
0.0
  0
LINE
  5
1CE
  8
MyLines
 10
319.06348012202506
 20
-145.6875
 30
0.0
 11
320.41656774948905
 21
-145.6875
 31
0.0
  0
LINE
  5
1CF
  8
MyLines
 10
320.41656774948905
 20
-145.6875
 30
0.0
 11
321.7696553769531
 21
-145.6875
 31
0.0
  0
LINE
  5
1D0
  8
MyLines
 10
321.7696553769531
 20
-145.6875
 30
0.0
 11
323.1227430044171
 21
-145.6875
 31
0.0
  0
LINE
  5
1D1
  8
MyLines
 10
323.1227430044171
 20
-145.6875
 30
0.0
 11
324.4758306318811
 21
-145.6875
 31
0.0
  0
LINE
  5
1D2
  8
MyLines
 10
324.4758306318811
 20
-145.6875
 30
0.0
 11
325.82891825934513
 21
-145.6875
 31
0.0
  0
LINE
  5
1D3
  8
MyLines
 10
325.82891825934513
 20
-145.6875
 30
0.0
 11
327.18200588680907
 21
-145.6875
 31
0.0
  0
LINE
  5
1D4
  8
MyLines
 10
327.18200588680907
 20
-145.6875
 30
0.0
 11
328.5350935142731
 21
-145.6875
 31
0.0
  0
LINE
  5
1D5
  8
MyLines
 10
328.5350935142731
 20
-145.6875
 30
0.0
 11
329.8881811417371
 21
-145.6875
 31
0.0
  0
LINE
  5
1D6
  8
MyLines
 10
329.8881811417371
 20
-145.6875
 30
0.0
 11
331.2412687692011
 21
-145.6875
 31
0.0
  0
LINE
  5
1D7
  8
MyLines
 10
331.2412687692011
 20
-145.6875
 30
0.0
 11
332.59435639666515
 21
-145.6875
 31
0.0
  0
LINE
  5
1D8
  8
MyLines
 10
332.59435639666515
 20
-145.6875
 30
0.0
 11
333.94744402412914
 21
-145.6875
 31
0.0
  0
LINE
  5
1D9
  8
MyLines
 10
333.94744402412914
 20
-145.6875
 30
0.0
 11
335.30053165159313
 21
-145.6875
 31
0.0
  0
LINE
  5
1DA
  8
MyLines
 10
335.30053165159313
 20
-145.6875
 30
0.0
 11
336.6536192790571
 21
-145.6875
 31
0.0
  0
LINE
  5
1DB
  8
MyLines
 10
336.6536192790571
 20
-145.6875
 30
0.0
 11
338.0067069065211
 21
-145.6875
 31
0.0
  0
LINE
  5
1DC
  8
MyLines
 10
338.0067069065211
 20
-145.6875
 30
0.0
 11
339.35979453398517
 21
-145.6875
 31
0.0
  0
LINE
  5
1DD
  8
MyLines
 10
339.35979453398517
 20
-145.6875
 30
0.0
 11
340.71288216144916
 21
-145.6875
 31
0.0
  0
LINE
  5
1DE
  8
MyLines
 10
340.71288216144916
 20
-145.6875
 30
0.0
 11
342.0659697889132
 21
-145.6875
 31
0.0
  0
LINE
  5
1DF
  8
MyLines
 10
342.0659697889132
 20
-145.6875
 30
0.0
 11
343.41905741637714
 21
-145.6875
 31
0.0
  0
LINE
  5
1E0
  8
MyLines
 10
343.41905741637714
 20
-145.6875
 30
0.0
 11
344.77214504384114
 21
-145.6875
 31
0.0
  0
LINE
  5
1E1
  8
MyLines
 10
344.77214504384114
 20
-145.6875
 30
0.0
 11
346.1252326713052
 21
-145.6875
 31
0.0
  0
LINE
  5
1E2
  8
MyLines
 10
346.1252326713052
 20
-145.6875
 30
0.0
 11
347.4783202987692
 21
-145.6875
 31
0.0
  0
LINE
  5
1E3
  8
MyLines
 10
347.4783202987692
 20
-145.6875
 30
0.0
 11
348.8314079262332
 21
-145.6875
 31
0.0
  0
LINE
  5
1E4
  8
MyLines
 10
348.8314079262332
 20
-145.6875
 30
0.0
 11
350.1844955536972
 21
-145.6875
 31
0.0
  0
LINE
  5
1E5
  8
MyLines
 10
350.1844955536972
 20
-145.6875
 30
0.0
 11
351.53758318116115
 21
-145.6875
 31
0.0
  0
LINE
  5
1E6
  8
MyLines
 10
351.53758318116115
 20
-145.6875
 30
0.0
 11
352.8906708086252
 21
-145.6875
 31
0.0
  0
LINE
  5
1E7
  8
MyLines
 10
352.8906708086252
 20
-145.6875
 30
0.0
 11
354.2437584360892
 21
-145.6875
 31
0.0
  0
LINE
  5
1E8
  8
MyLines
 10
354.2437584360892
 20
-145.6875
 30
0.0
 11
355.59684606355324
 21
-145.6875
 31
0.0
  0
LINE
  5
1E9
  8
MyLines
 10
355.59684606355324
 20
-145.6875
 30
0.0
 11
356.94993369101724
 21
-145.6875
 31
0.0
  0
LINE
  5
1EA
  8
MyLines
 10
356.94993369101724
 20
-145.6875
 30
0.0
 11
358.3030213184813
 21
-145.6875
 31
0.0
  0
LINE
  5
1EB
  8
MyLines
 10
358.3030213184813
 20
-145.6875
 30
0.0
 11
359.6561089459452
 21
-145.6875
 31
0.0
  0
LINE
  5
1EC
  8
MyLines
 10
359.6561089459452
 20
-145.6875
 30
0.0
 11
361.0091965734092
 21
-145.6875
 31
0.0
  0
LINE
  5
1ED
  8
MyLines
 10
361.0091965734092
 20
-145.6875
 30
0.0
 11
362.36228420087326
 21
-145.6875
 31
0.0
  0
LINE
  5
1EE
  8
MyLines
 10
362.36228420087326
 20
-145.6875
 30
0.0
 11
363.71537182833725
 21
-145.6875
 31
0.0
  0
LINE
  5
1EF
  8
MyLines
 10
363.71537182833725
 20
-145.6875
 30
0.0
 11
365.0684594558013
 21
-145.6875
 31
0.0
  0
LINE
  5
1F0
  8
MyLines
 10
365.0684594558013
 20
-145.6875
 30
0.0
 11
366.4215470832653
 21
-145.6875
 31
0.0
  0
LINE
  5
1F1
  8
MyLines
 10
366.4215470832653
 20
-145.6875
 30
0.0
 11
367.7746347107293
 21
-145.6875
 31
0.0
  0
LINE
  5
1F2
  8
MyLines
 10
367.7746347107293
 20
-145.6875
 30
0.0
 11
369.1277223381933
 21
-145.6875
 31
0.0
  0
LINE
  5
1F3
  8
MyLines
 10
369.1277223381933
 20
-145.6875
 30
0.0
 11
370.4808099656573
 21
-145.6875
 31
0.0
  0
LINE
  5
1F4
  8
MyLines
 10
370.4808099656573
 20
-145.6875
 30
0.0
 11
371.8338975931213
 21
-145.6875
 31
0.0
  0
LINE
  5
1F5
  8
MyLines
 10
371.8338975931213
 20
-145.6875
 30
0.0
 11
373.1869852205853
 21
-145.6875
 31
0.0
  0
LINE
  5
1F6
  8
MyLines
 10
373.1869852205853
 20
-145.6875
 30
0.0
 11
374.5400728480493
 21
-145.6875
 31
0.0
  0
LINE
  5
1F7
  8
MyLines
 10
374.5400728480493
 20
-145.6875
 30
0.0
 11
375.8931604755133
 21
-145.6875
 31
0.0
  0
LINE
  5
1F8
  8
MyLines
 10
375.8931604755133
 20
-145.6875
 30
0.0
 11
377.2462481029773
 21
-145.6875
 31
0.0
  0
LINE
  5
1F9
  8
MyLines
 10
377.2462481029773
 20
-145.6875
 30
0.0
 11
378.59933573044134
 21
-145.6875
 31
0.0
  0
LINE
  5
1FA
  8
MyLines
 10
378.59933573044134
 20
-145.6875
 30
0.0
 11
379.95242335790533
 21
-145.6875
 31
0.0
  0
LINE
  5
1FB
  8
MyLines
 10
379.95242335790533
 20
-145.6875
 30
0.0
 11
379.95242335790533
 21
-145.6875
 31
0.0
  0
LINE
  5
1FC
  8
MyLines
 10
379.95242335790533
 20
-145.6875
 30
0.0
 11
379.95242335790533
 21
153.625
 31
0.0
  0
LINE
  5
1FD
  8
MyLines
 10
379.95242335790533
 20
153.625
 30
0.0
 11
379.95242335790533
 21
153.625
 31
0.0
  0
LINE
  5
1FE
  8
MyLines
 10
379.95242335790533
 20
153.625
 30
0.0
 11
378.6935278588139
 21
153.625
 31
0.0
  0
LINE
  5
1FF
  8
MyLines
 10
378.6935278588139
 20
153.625
 30
0.0
 11
377.4346323597225
 21
153.625
 31
0.0
  0
LINE
  5
200
  8
MyLines
 10
377.4346323597225
 20
153.625
 30
0.0
 11
376.1757368606311
 21
153.625
 31
0.0
  0
LINE
  5
201
  8
MyLines
 10
376.1757368606311
 20
153.625
 30
0.0
 11
374.91684136153964
 21
153.625
 31
0.0
  0
LINE
  5
202
  8
MyLines
 10
374.91684136153964
 20
153.625
 30
0.0
 11
373.6579458624483
 21
153.625
 31
0.0
  0
LINE
  5
203
  8
MyLines
 10
373.6579458624483
 20
153.625
 30
0.0
 11
372.3990503633569
 21
153.625
 31
0.0
  0
LINE
  5
204
  8
MyLines
 10
372.3990503633569
 20
153.625
 30
0.0
 11
371.1401548642654
 21
153.625
 31
0.0
  0
LINE
  5
205
  8
MyLines
 10
371.1401548642654
 20
153.625
 30
0.0
 11
369.88125936517406
 21
153.625
 31
0.0
  0
LINE
  5
206
  8
MyLines
 10
369.88125936517406
 20
153.625
 30
0.0
 11
368.62236386608265
 21
153.625
 31
0.0
  0
LINE
  5
207
  8
MyLines
 10
368.62236386608265
 20
153.625
 30
0.0
 11
367.3634683669912
 21
153.625
 31
0.0
  0
LINE
  5
208
  8
MyLines
 10
367.3634683669912
 20
153.625
 30
0.0
 11
366.10457286789983
 21
153.625
 31
0.0
  0
LINE
  5
209
  8
MyLines
 10
366.10457286789983
 20
153.625
 30
0.0
 11
364.84567736880837
 21
153.625
 31
0.0
  0
LINE
  5
20A
  8
MyLines
 10
364.84567736880837
 20
153.625
 30
0.0
 11
363.586781869717
 21
153.625
 31
0.0
  0
LINE
  5
20B
  8
MyLines
 10
363.586781869717
 20
153.625
 30
0.0
 11
362.3278863706256
 21
153.625
 31
0.0
  0
LINE
  5
20C
  8
MyLines
 10
362.3278863706256
 20
153.625
 30
0.0
 11
361.06899087153414
 21
153.625
 31
0.0
  0
LINE
  5
20D
  8
MyLines
 10
361.06899087153414
 20
153.625
 30
0.0
 11
359.8100953724428
 21
153.625
 31
0.0
  0
LINE
  5
20E
  8
MyLines
 10
359.8100953724428
 20
153.625
 30
0.0
 11
358.5511998733513
 21
153.625
 31
0.0
  0
LINE
  5
20F
  8
MyLines
 10
358.5511998733513
 20
153.625
 30
0.0
 11
357.2923043742599
 21
153.625
 31
0.0
  0
LINE
  5
210
  8
MyLines
 10
357.2923043742599
 20
153.625
 30
0.0
 11
356.03340887516856
 21
153.625
 31
0.0
  0
LINE
  5
211
  8
MyLines
 10
356.03340887516856
 20
153.625
 30
0.0
 11
354.7745133760771
 21
153.625
 31
0.0
  0
LINE
  5
212
  8
MyLines
 10
354.7745133760771
 20
153.625
 30
0.0
 11
353.5156178769857
 21
153.625
 31
0.0
  0
LINE
  5
213
  8
MyLines
 10
353.5156178769857
 20
153.625
 30
0.0
 11
352.25672237789433
 21
153.625
 31
0.0
  0
LINE
  5
214
  8
MyLines
 10
352.25672237789433
 20
153.625
 30
0.0
 11
350.99782687880287
 21
153.625
 31
0.0
  0
LINE
  5
215
  8
MyLines
 10
350.99782687880287
 20
153.625
 30
0.0
 11
349.73893137971146
 21
153.625
 31
0.0
  0
LINE
  5
216
  8
MyLines
 10
349.73893137971146
 20
153.625
 30
0.0
 11
348.48003588062005
 21
153.625
 31
0.0
  0
LINE
  5
217
  8
MyLines
 10
348.48003588062005
 20
153.625
 30
0.0
 11
347.22114038152864
 21
153.625
 31
0.0
  0
LINE
  5
218
  8
MyLines
 10
347.22114038152864
 20
153.625
 30
0.0
 11
345.96224488243723
 21
153.625
 31
0.0
  0
LINE
  5
219
  8
MyLines
 10
345.96224488243723
 20
153.625
 30
0.0
 11
344.7033493833458
 21
153.625
 31
0.0
  0
LINE
  5
21A
  8
MyLines
 10
344.7033493833458
 20
153.625
 30
0.0
 11
343.4444538842544
 21
153.625
 31
0.0
  0
LINE
  5
21B
  8
MyLines
 10
343.4444538842544
 20
153.625
 30
0.0
 11
342.18555838516295
 21
153.625
 31
0.0
  0
LINE
  5
21C
  8
MyLines
 10
342.18555838516295
 20
153.625
 30
0.0
 11
340.9266628860716
 21
153.625
 31
0.0
  0
LINE
  5
21D
  8
MyLines
 10
340.9266628860716
 20
153.625
 30
0.0
 11
339.6677673869802
 21
153.625
 31
0.0
  0
LINE
  5
21E
  8
MyLines
 10
339.6677673869802
 20
153.625
 30
0.0
 11
338.4088718878887
 21
153.625
 31
0.0
  0
LINE
  5
21F
  8
MyLines
 10
338.4088718878887
 20
153.625
 30
0.0
 11
337.14997638879737
 21
153.625
 31
0.0
  0
LINE
  5
220
  8
MyLines
 10
337.14997638879737
 20
153.625
 30
0.0
 11
335.89108088970596
 21
153.625
 31
0.0
  0
LINE
  5
221
  8
MyLines
 10
335.89108088970596
 20
153.625
 30
0.0
 11
334.6321853906145
 21
153.625
 31
0.0
  0
LINE
  5
222
  8
MyLines
 10
334.6321853906145
 20
153.625
 30
0.0
 11
333.37328989152314
 21
153.625
 31
0.0
  0
LINE
  5
223
  8
MyLines
 10
333.37328989152314
 20
153.625
 30
0.0
 11
332.1143943924317
 21
153.625
 31
0.0
  0
LINE
  5
224
  8
MyLines
 10
332.1143943924317
 20
153.625
 30
0.0
 11
330.85549889334027
 21
153.625
 31
0.0
  0
LINE
  5
225
  8
MyLines
 10
330.85549889334027
 20
153.625
 30
0.0
 11
329.5966033942489
 21
153.625
 31
0.0
  0
LINE
  5
226
  8
MyLines
 10
329.5966033942489
 20
153.625
 30
0.0
 11
328.33770789515745
 21
153.625
 31
0.0
  0
LINE
  5
227
  8
MyLines
 10
328.33770789515745
 20
153.625
 30
0.0
 11
327.0788123960661
 21
153.625
 31
0.0
  0
LINE
  5
228
  8
MyLines
 10
327.0788123960661
 20
153.625
 30
0.0
 11
325.81991689697463
 21
153.625
 31
0.0
  0
LINE
  5
229
  8
MyLines
 10
325.81991689697463
 20
153.625
 30
0.0
 11
324.5610213978832
 21
153.625
 31
0.0
  0
LINE
  5
22A
  8
MyLines
 10
324.5610213978832
 20
153.625
 30
0.0
 11
323.30212589879187
 21
153.625
 31
0.0
  0
LINE
  5
22B
  8
MyLines
 10
323.30212589879187
 20
153.625
 30
0.0
 11
322.0432303997004
 21
153.625
 31
0.0
  0
LINE
  5
22C
  8
MyLines
 10
322.0432303997004
 20
153.625
 30
0.0
 11
320.784334900609
 21
153.625
 31
0.0
  0
LINE
  5
22D
  8
MyLines
 10
320.784334900609
 20
153.625
 30
0.0
 11
319.52543940151764
 21
153.625
 31
0.0
  0
LINE
  5
22E
  8
MyLines
 10
319.52543940151764
 20
153.625
 30
0.0
 11
318.2665439024262
 21
153.625
 31
0.0
  0
LINE
  5
22F
  8
MyLines
 10
318.2665439024262
 20
153.625
 30
0.0
 11
318.2665439024262
 21
-141.71875
 31
0.0
  0
LINE
  5
230
  8
MyLines
 10
318.2665439024262
 20
-141.71875
 30
0.0
 11
318.2665439024262
 21
-141.71875
 31
0.0
  0
LINE
  5
231
  8
MyLines
 10
318.2665439024262
 20
-141.71875
 30
0.0
 11
319.4203199129215
 21
-141.71875
 31
0.0
  0
LINE
  5
232
  8
MyLines
 10
319.4203199129215
 20
-141.71875
 30
0.0
 11
320.57409592341685
 21
-141.71875
 31
0.0
  0
LINE
  5
233
  8
MyLines
 10
320.57409592341685
 20
-141.71875
 30
0.0
 11
321.7278719339122
 21
-141.71875
 31
0.0
  0
LINE
  5
234
  8
MyLines
 10
321.7278719339122
 20
-141.71875
 30
0.0
 11
322.8816479444075
 21
-141.71875
 31
0.0
  0
LINE
  5
235
  8
MyLines
 10
322.8816479444075
 20
-141.71875
 30
0.0
 11
324.03542395490285
 21
-141.71875
 31
0.0
  0
LINE
  5
236
  8
MyLines
 10
324.03542395490285
 20
-141.71875
 30
0.0
 11
325.18919996539813
 21
-141.71875
 31
0.0
  0
LINE
  5
237
  8
MyLines
 10
325.18919996539813
 20
-141.71875
 30
0.0
 11
326.3429759758935
 21
-141.71875
 31
0.0
  0
LINE
  5
238
  8
MyLines
 10
326.3429759758935
 20
-141.71875
 30
0.0
 11
327.4967519863888
 21
-141.71875
 31
0.0
  0
LINE
  5
239
  8
MyLines
 10
327.4967519863888
 20
-141.71875
 30
0.0
 11
328.65052799688414
 21
-141.71875
 31
0.0
  0
LINE
  5
23A
  8
MyLines
 10
328.65052799688414
 20
-141.71875
 30
0.0
 11
329.80430400737947
 21
-141.71875
 31
0.0
  0
LINE
  5
23B
  8
MyLines
 10
329.80430400737947
 20
-141.71875
 30
0.0
 11
330.9580800178748
 21
-141.71875
 31
0.0
  0
LINE
  5
23C
  8
MyLines
 10
330.9580800178748
 20
-141.71875
 30
0.0
 11
332.11185602837014
 21
-141.71875
 31
0.0
  0
LINE
  5
23D
  8
MyLines
 10
332.11185602837014
 20
-141.71875
 30
0.0
 11
333.2656320388655
 21
-141.71875
 31
0.0
  0
LINE
  5
23E
  8
MyLines
 10
333.2656320388655
 20
-141.71875
 30
0.0
 11
334.41940804936075
 21
-141.71875
 31
0.0
  0
LINE
  5
23F
  8
MyLines
 10
334.41940804936075
 20
-141.71875
 30
0.0
 11
335.57318405985615
 21
-141.71875
 31
0.0
  0
LINE
  5
240
  8
MyLines
 10
335.57318405985615
 20
-141.71875
 30
0.0
 11
336.7269600703514
 21
-141.71875
 31
0.0
  0
LINE
  5
241
  8
MyLines
 10
336.7269600703514
 20
-141.71875
 30
0.0
 11
337.8807360808468
 21
-141.71875
 31
0.0
  0
LINE
  5
242
  8
MyLines
 10
337.8807360808468
 20
-141.71875
 30
0.0
 11
339.0345120913421
 21
-141.71875
 31
0.0
  0
LINE
  5
243
  8
MyLines
 10
339.0345120913421
 20
-141.71875
 30
0.0
 11
340.18828810183743
 21
-141.71875
 31
0.0
  0
LINE
  5
244
  8
MyLines
 10
340.18828810183743
 20
-141.71875
 30
0.0
 11
341.34206411233276
 21
-141.71875
 31
0.0
  0
LINE
  5
245
  8
MyLines
 10
341.34206411233276
 20
-141.71875
 30
0.0
 11
342.4958401228281
 21
-141.71875
 31
0.0
  0
LINE
  5
246
  8
MyLines
 10
342.4958401228281
 20
-141.71875
 30
0.0
 11
343.6496161333234
 21
-141.71875
 31
0.0
  0
LINE
  5
247
  8
MyLines
 10
343.6496161333234
 20
-141.71875
 30
0.0
 11
344.80339214381877
 21
-141.71875
 31
0.0
  0
LINE
  5
248
  8
MyLines
 10
344.80339214381877
 20
-141.71875
 30
0.0
 11
345.95716815431405
 21
-141.71875
 31
0.0
  0
LINE
  5
249
  8
MyLines
 10
345.95716815431405
 20
-141.71875
 30
0.0
 11
347.11094416480944
 21
-141.71875
 31
0.0
  0
LINE
  5
24A
  8
MyLines
 10
347.11094416480944
 20
-141.71875
 30
0.0
 11
348.2647201753047
 21
-141.71875
 31
0.0
  0
LINE
  5
24B
  8
MyLines
 10
348.2647201753047
 20
-141.71875
 30
0.0
 11
349.41849618580005
 21
-141.71875
 31
0.0
  0
LINE
  5
24C
  8
MyLines
 10
349.41849618580005
 20
-141.71875
 30
0.0
 11
350.5722721962954
 21
-141.71875
 31
0.0
  0
LINE
  5
24D
  8
MyLines
 10
350.5722721962954
 20
-141.71875
 30
0.0
 11
351.7260482067907
 21
-141.71875
 31
0.0
  0
LINE
  5
24E
  8
MyLines
 10
351.7260482067907
 20
-141.71875
 30
0.0
 11
352.87982421728606
 21
-141.71875
 31
0.0
  0
LINE
  5
24F
  8
MyLines
 10
352.87982421728606
 20
-141.71875
 30
0.0
 11
354.0336002277814
 21
-141.71875
 31
0.0
  0
LINE
  5
250
  8
MyLines
 10
354.0336002277814
 20
-141.71875
 30
0.0
 11
355.18737623827667
 21
-141.71875
 31
0.0
  0
LINE
  5
251
  8
MyLines
 10
355.18737623827667
 20
-141.71875
 30
0.0
 11
356.34115224877206
 21
-141.71875
 31
0.0
  0
LINE
  5
252
  8
MyLines
 10
356.34115224877206
 20
-141.71875
 30
0.0
 11
357.49492825926734
 21
-141.71875
 31
0.0
  0
LINE
  5
253
  8
MyLines
 10
357.49492825926734
 20
-141.71875
 30
0.0
 11
358.6487042697627
 21
-141.71875
 31
0.0
  0
LINE
  5
254
  8
MyLines
 10
358.6487042697627
 20
-141.71875
 30
0.0
 11
359.802480280258
 21
-141.71875
 31
0.0
  0
LINE
  5
255
  8
MyLines
 10
359.802480280258
 20
-141.71875
 30
0.0
 11
360.95625629075334
 21
-141.71875
 31
0.0
  0
LINE
  5
256
  8
MyLines
 10
360.95625629075334
 20
-141.71875
 30
0.0
 11
362.1100323012487
 21
-141.71875
 31
0.0
  0
LINE
  5
257
  8
MyLines
 10
362.1100323012487
 20
-141.71875
 30
0.0
 11
363.263808311744
 21
-141.71875
 31
0.0
  0
LINE
  5
258
  8
MyLines
 10
363.263808311744
 20
-141.71875
 30
0.0
 11
364.41758432223935
 21
-141.71875
 31
0.0
  0
LINE
  5
259
  8
MyLines
 10
364.41758432223935
 20
-141.71875
 30
0.0
 11
365.5713603327347
 21
-141.71875
 31
0.0
  0
LINE
  5
25A
  8
MyLines
 10
365.5713603327347
 20
-141.71875
 30
0.0
 11
366.72513634322996
 21
-141.71875
 31
0.0
  0
LINE
  5
25B
  8
MyLines
 10
366.72513634322996
 20
-141.71875
 30
0.0
 11
367.87891235372535
 21
-141.71875
 31
0.0
  0
LINE
  5
25C
  8
MyLines
 10
367.87891235372535
 20
-141.71875
 30
0.0
 11
369.03268836422063
 21
-141.71875
 31
0.0
  0
LINE
  5
25D
  8
MyLines
 10
369.03268836422063
 20
-141.71875
 30
0.0
 11
370.18646437471597
 21
-141.71875
 31
0.0
  0
LINE
  5
25E
  8
MyLines
 10
370.18646437471597
 20
-141.71875
 30
0.0
 11
371.3402403852113
 21
-141.71875
 31
0.0
  0
LINE
  5
25F
  8
MyLines
 10
371.3402403852113
 20
-141.71875
 30
0.0
 11
372.49401639570664
 21
-141.71875
 31
0.0
  0
LINE
  5
260
  8
MyLines
 10
372.49401639570664
 20
-141.71875
 30
0.0
 11
373.6477924062019
 21
-141.71875
 31
0.0
  0
LINE
  5
261
  8
MyLines
 10
373.6477924062019
 20
-141.71875
 30
0.0
 11
374.8015684166973
 21
-141.71875
 31
0.0
  0
LINE
  5
262
  8
MyLines
 10
374.8015684166973
 20
-141.71875
 30
0.0
 11
374.8015684166973
 21
-141.71875
 31
0.0
  0
LINE
  5
263
  8
MyLines
 10
374.8015684166973
 20
-141.71875
 30
0.0
 11
374.8015684166973
 21
149.65625
 31
0.0
  0
LINE
  5
264
  8
MyLines
 10
374.8015684166973
 20
149.65625
 30
0.0
 11
374.8015684166973
 21
149.65625
 31
0.0
  0
LINE
  5
265
  8
MyLines
 10
374.8015684166973
 20
149.65625
 30
0.0
 11
373.75291189479805
 21
149.65625
 31
0.0
  0
LINE
  5
266
  8
MyLines
 10
373.75291189479805
 20
149.65625
 30
0.0
 11
372.70425537289884
 21
149.65625
 31
0.0
  0
LINE
  5
267
  8
MyLines
 10
372.70425537289884
 20
149.65625
 30
0.0
 11
371.6555988509996
 21
149.65625
 31
0.0
  0
LINE
  5
268
  8
MyLines
 10
371.6555988509996
 20
149.65625
 30
0.0
 11
370.60694232910026
 21
149.65625
 31
0.0
  0
LINE
  5
269
  8
MyLines
 10
370.60694232910026
 20
149.65625
 30
0.0
 11
369.55828580720106
 21
149.65625
 31
0.0
  0
LINE
  5
26A
  8
MyLines
 10
369.55828580720106
 20
149.65625
 30
0.0
 11
368.5096292853018
 21
149.65625
 31
0.0
  0
LINE
  5
26B
  8
MyLines
 10
368.5096292853018
 20
149.65625
 30
0.0
 11
367.4609727634026
 21
149.65625
 31
0.0
  0
LINE
  5
26C
  8
MyLines
 10
367.4609727634026
 20
149.65625
 30
0.0
 11
366.41231624150333
 21
149.65625
 31
0.0
  0
LINE
  5
26D
  8
MyLines
 10
366.41231624150333
 20
149.65625
 30
0.0
 11
365.3636597196041
 21
149.65625
 31
0.0
  0
LINE
  5
26E
  8
MyLines
 10
365.3636597196041
 20
149.65625
 30
0.0
 11
364.31500319770487
 21
149.65625
 31
0.0
  0
LINE
  5
26F
  8
MyLines
 10
364.31500319770487
 20
149.65625
 30
0.0
 11
363.26634667580555
 21
149.65625
 31
0.0
  0
LINE
  5
270
  8
MyLines
 10
363.26634667580555
 20
149.65625
 30
0.0
 11
362.2176901539063
 21
149.65625
 31
0.0
  0
LINE
  5
271
  8
MyLines
 10
362.2176901539063
 20
149.65625
 30
0.0
 11
361.1690336320071
 21
149.65625
 31
0.0
  0
LINE
  5
272
  8
MyLines
 10
361.1690336320071
 20
149.65625
 30
0.0
 11
360.1203771101078
 21
149.65625
 31
0.0
  0
LINE
  5
273
  8
MyLines
 10
360.1203771101078
 20
149.65625
 30
0.0
 11
359.0717205882086
 21
149.65625
 31
0.0
  0
LINE
  5
274
  8
MyLines
 10
359.0717205882086
 20
149.65625
 30
0.0
 11
358.02306406630936
 21
149.65625
 31
0.0
  0
LINE
  5
275
  8
MyLines
 10
358.02306406630936
 20
149.65625
 30
0.0
 11
356.9744075444101
 21
149.65625
 31
0.0
  0
LINE
  5
276
  8
MyLines
 10
356.9744075444101
 20
149.65625
 30
0.0
 11
355.92575102251084
 21
149.65625
 31
0.0
  0
LINE
  5
277
  8
MyLines
 10
355.92575102251084
 20
149.65625
 30
0.0
 11
354.8770945006116
 21
149.65625
 31
0.0
  0
LINE
  5
278
  8
MyLines
 10
354.8770945006116
 20
149.65625
 30
0.0
 11
353.8284379787123
 21
149.65625
 31
0.0
  0
LINE
  5
279
  8
MyLines
 10
353.8284379787123
 20
149.65625
 30
0.0
 11
352.7797814568131
 21
149.65625
 31
0.0
  0
LINE
  5
27A
  8
MyLines
 10
352.7797814568131
 20
149.65625
 30
0.0
 11
351.73112493491385
 21
149.65625
 31
0.0
  0
LINE
  5
27B
  8
MyLines
 10
351.73112493491385
 20
149.65625
 30
0.0
 11
350.68246841301465
 21
149.65625
 31
0.0
  0
LINE
  5
27C
  8
MyLines
 10
350.68246841301465
 20
149.65625
 30
0.0
 11
349.63381189111533
 21
149.65625
 31
0.0
  0
LINE
  5
27D
  8
MyLines
 10
349.63381189111533
 20
149.65625
 30
0.0
 11
348.58515536921607
 21
149.65625
 31
0.0
  0
LINE
  5
27E
  8
MyLines
 10
348.58515536921607
 20
149.65625
 30
0.0
 11
347.53649884731686
 21
149.65625
 31
0.0
  0
LINE
  5
27F
  8
MyLines
 10
347.53649884731686
 20
149.65625
 30
0.0
 11
346.4878423254176
 21
149.65625
 31
0.0
  0
LINE
  5
280
  8
MyLines
 10
346.4878423254176
 20
149.65625
 30
0.0
 11
345.43918580351834
 21
149.65625
 31
0.0
  0
LINE
  5
281
  8
MyLines
 10
345.43918580351834
 20
149.65625
 30
0.0
 11
344.39052928161914
 21
149.65625
 31
0.0
  0
LINE
  5
282
  8
MyLines
 10
344.39052928161914
 20
149.65625
 30
0.0
 11
343.3418727597199
 21
149.65625
 31
0.0
  0
LINE
  5
283
  8
MyLines
 10
343.3418727597199
 20
149.65625
 30
0.0
 11
342.2932162378207
 21
149.65625
 31
0.0
  0
LINE
  5
284
  8
MyLines
 10
342.2932162378207
 20
149.65625
 30
0.0
 11
341.24455971592135
 21
149.65625
 31
0.0
  0
LINE
  5
285
  8
MyLines
 10
341.24455971592135
 20
149.65625
 30
0.0
 11
340.1959031940221
 21
149.65625
 31
0.0
  0
LINE
  5
286
  8
MyLines
 10
340.1959031940221
 20
149.65625
 30
0.0
 11
339.1472466721229
 21
149.65625
 31
0.0
  0
LINE
  5
287
  8
MyLines
 10
339.1472466721229
 20
149.65625
 30
0.0
 11
338.09859015022363
 21
149.65625
 31
0.0
  0
LINE
  5
288
  8
MyLines
 10
338.09859015022363
 20
149.65625
 30
0.0
 11
337.04993362832437
 21
149.65625
 31
0.0
  0
LINE
  5
289
  8
MyLines
 10
337.04993362832437
 20
149.65625
 30
0.0
 11
336.00127710642516
 21
149.65625
 31
0.0
  0
LINE
  5
28A
  8
MyLines
 10
336.00127710642516
 20
149.65625
 30
0.0
 11
334.95262058452585
 21
149.65625
 31
0.0
  0
LINE
  5
28B
  8
MyLines
 10
334.95262058452585
 20
149.65625
 30
0.0
 11
333.90396406262664
 21
149.65625
 31
0.0
  0
LINE
  5
28C
  8
MyLines
 10
333.90396406262664
 20
149.65625
 30
0.0
 11
332.8553075407274
 21
149.65625
 31
0.0
  0
LINE
  5
28D
  8
MyLines
 10
332.8553075407274
 20
149.65625
 30
0.0
 11
331.8066510188281
 21
149.65625
 31
0.0
  0
LINE
  5
28E
  8
MyLines
 10
331.8066510188281
 20
149.65625
 30
0.0
 11
330.7579944969289
 21
149.65625
 31
0.0
  0
LINE
  5
28F
  8
MyLines
 10
330.7579944969289
 20
149.65625
 30
0.0
 11
329.70933797502965
 21
149.65625
 31
0.0
  0
LINE
  5
290
  8
MyLines
 10
329.70933797502965
 20
149.65625
 30
0.0
 11
328.6606814531304
 21
149.65625
 31
0.0
  0
LINE
  5
291
  8
MyLines
 10
328.6606814531304
 20
149.65625
 30
0.0
 11
327.6120249312312
 21
149.65625
 31
0.0
  0
LINE
  5
292
  8
MyLines
 10
327.6120249312312
 20
149.65625
 30
0.0
 11
326.5633684093319
 21
149.65625
 31
0.0
  0
LINE
  5
293
  8
MyLines
 10
326.5633684093319
 20
149.65625
 30
0.0
 11
325.51471188743267
 21
149.65625
 31
0.0
  0
LINE
  5
294
  8
MyLines
 10
325.51471188743267
 20
149.65625
 30
0.0
 11
324.4660553655334
 21
149.65625
 31
0.0
  0
LINE
  5
295
  8
MyLines
 10
324.4660553655334
 20
149.65625
 30
0.0
 11
323.41739884363415
 21
149.65625
 31
0.0
  0
LINE
  5
296
  8
MyLines
 10
323.41739884363415
 20
149.65625
 30
0.0
 11
323.41739884363415
 21
-137.75
 31
0.0
  0
LINE
  5
297
  8
MyLines
 10
323.41739884363415
 20
-137.75
 30
0.0
 11
323.41739884363415
 21
-137.75
 31
0.0
  0
LINE
  5
298
  8
MyLines
 10
323.41739884363415
 20
-137.75
 30
0.0
 11
324.33960474304905
 21
-137.75
 31
0.0
  0
LINE
  5
299
  8
MyLines
 10
324.33960474304905
 20
-137.75
 30
0.0
 11
325.261810642464
 21
-137.75
 31
0.0
  0
LINE
  5
29A
  8
MyLines
 10
325.261810642464
 20
-137.75
 30
0.0
 11
326.1840165418789
 21
-137.75
 31
0.0
  0
LINE
  5
29B
  8
MyLines
 10
326.1840165418789
 20
-137.75
 30
0.0
 11
327.1062224412938
 21
-137.75
 31
0.0
  0
LINE
  5
29C
  8
MyLines
 10
327.1062224412938
 20
-137.75
 30
0.0
 11
328.0284283407087
 21
-137.75
 31
0.0
  0
LINE
  5
29D
  8
MyLines
 10
328.0284283407087
 20
-137.75
 30
0.0
 11
328.95063424012363
 21
-137.75
 31
0.0
  0
LINE
  5
29E
  8
MyLines
 10
328.95063424012363
 20
-137.75
 30
0.0
 11
329.87284013953854
 21
-137.75
 31
0.0
  0
LINE
  5
29F
  8
MyLines
 10
329.87284013953854
 20
-137.75
 30
0.0
 11
330.79504603895344
 21
-137.75
 31
0.0
  0
LINE
  5
2A0
  8
MyLines
 10
330.79504603895344
 20
-137.75
 30
0.0
 11
331.71725193836835
 21
-137.75
 31
0.0
  0
LINE
  5
2A1
  8
MyLines
 10
331.71725193836835
 20
-137.75
 30
0.0
 11
332.63945783778325
 21
-137.75
 31
0.0
  0
LINE
  5
2A2
  8
MyLines
 10
332.63945783778325
 20
-137.75
 30
0.0
 11
333.56166373719816
 21
-137.75
 31
0.0
  0
LINE
  5
2A3
  8
MyLines
 10
333.56166373719816
 20
-137.75
 30
0.0
 11
334.48386963661306
 21
-137.75
 31
0.0
  0
LINE
  5
2A4
  8
MyLines
 10
334.48386963661306
 20
-137.75
 30
0.0
 11
335.40607553602797
 21
-137.75
 31
0.0
  0
LINE
  5
2A5
  8
MyLines
 10
335.40607553602797
 20
-137.75
 30
0.0
 11
336.32828143544293
 21
-137.75
 31
0.0
  0
LINE
  5
2A6
  8
MyLines
 10
336.32828143544293
 20
-137.75
 30
0.0
 11
337.2504873348578
 21
-137.75
 31
0.0
  0
LINE
  5
2A7
  8
MyLines
 10
337.2504873348578
 20
-137.75
 30
0.0
 11
338.1726932342727
 21
-137.75
 31
0.0
  0
LINE
  5
2A8
  8
MyLines
 10
338.1726932342727
 20
-137.75
 30
0.0
 11
339.09489913368765
 21
-137.75
 31
0.0
  0
LINE
  5
2A9
  8
MyLines
 10
339.09489913368765
 20
-137.75
 30
0.0
 11
340.01710503310255
 21
-137.75
 31
0.0
  0
LINE
  5
2AA
  8
MyLines
 10
340.01710503310255
 20
-137.75
 30
0.0
 11
340.93931093251746
 21
-137.75
 31
0.0
  0
LINE
  5
2AB
  8
MyLines
 10
340.93931093251746
 20
-137.75
 30
0.0
 11
341.86151683193236
 21
-137.75
 31
0.0
  0
LINE
  5
2AC
  8
MyLines
 10
341.86151683193236
 20
-137.75
 30
0.0
 11
342.78372273134727
 21
-137.75
 31
0.0
  0
LINE
  5
2AD
  8
MyLines
 10
342.78372273134727
 20
-137.75
 30
0.0
 11
343.7059286307622
 21
-137.75
 31
0.0
  0
LINE
  5
2AE
  8
MyLines
 10
343.7059286307622
 20
-137.75
 30
0.0
 11
344.6281345301771
 21
-137.75
 31
0.0
  0
LINE
  5
2AF
  8
MyLines
 10
344.6281345301771
 20
-137.75
 30
0.0
 11
345.550340429592
 21
-137.75
 31
0.0
  0
LINE
  5
2B0
  8
MyLines
 10
345.550340429592
 20
-137.75
 30
0.0
 11
346.47254632900695
 21
-137.75
 31
0.0
  0
LINE
  5
2B1
  8
MyLines
 10
346.47254632900695
 20
-137.75
 30
0.0
 11
347.3947522284218
 21
-137.75
 31
0.0
  0
LINE
  5
2B2
  8
MyLines
 10
347.3947522284218
 20
-137.75
 30
0.0
 11
348.3169581278367
 21
-137.75
 31
0.0
  0
LINE
  5
2B3
  8
MyLines
 10
348.3169581278367
 20
-137.75
 30
0.0
 11
349.2391640272516
 21
-137.75
 31
0.0
  0
LINE
  5
2B4
  8
MyLines
 10
349.2391640272516
 20
-137.75
 30
0.0
 11
350.16136992666657
 21
-137.75
 31
0.0
  0
LINE
  5
2B5
  8
MyLines
 10
350.16136992666657
 20
-137.75
 30
0.0
 11
351.08357582608147
 21
-137.75
 31
0.0
  0
LINE
  5
2B6
  8
MyLines
 10
351.08357582608147
 20
-137.75
 30
0.0
 11
352.0057817254963
 21
-137.75
 31
0.0
  0
LINE
  5
2B7
  8
MyLines
 10
352.0057817254963
 20
-137.75
 30
0.0
 11
352.9279876249113
 21
-137.75
 31
0.0
  0
LINE
  5
2B8
  8
MyLines
 10
352.9279876249113
 20
-137.75
 30
0.0
 11
353.8501935243262
 21
-137.75
 31
0.0
  0
LINE
  5
2B9
  8
MyLines
 10
353.8501935243262
 20
-137.75
 30
0.0
 11
354.7723994237411
 21
-137.75
 31
0.0
  0
LINE
  5
2BA
  8
MyLines
 10
354.7723994237411
 20
-137.75
 30
0.0
 11
355.694605323156
 21
-137.75
 31
0.0
  0
LINE
  5
2BB
  8
MyLines
 10
355.694605323156
 20
-137.75
 30
0.0
 11
356.61681122257085
 21
-137.75
 31
0.0
  0
LINE
  5
2BC
  8
MyLines
 10
356.61681122257085
 20
-137.75
 30
0.0
 11
357.5390171219858
 21
-137.75
 31
0.0
  0
LINE
  5
2BD
  8
MyLines
 10
357.5390171219858
 20
-137.75
 30
0.0
 11
358.4612230214007
 21
-137.75
 31
0.0
  0
LINE
  5
2BE
  8
MyLines
 10
358.4612230214007
 20
-137.75
 30
0.0
 11
359.3834289208156
 21
-137.75
 31
0.0
  0
LINE
  5
2BF
  8
MyLines
 10
359.3834289208156
 20
-137.75
 30
0.0
 11
360.3056348202306
 21
-137.75
 31
0.0
  0
LINE
  5
2C0
  8
MyLines
 10
360.3056348202306
 20
-137.75
 30
0.0
 11
361.2278407196455
 21
-137.75
 31
0.0
  0
LINE
  5
2C1
  8
MyLines
 10
361.2278407196455
 20
-137.75
 30
0.0
 11
362.15004661906033
 21
-137.75
 31
0.0
  0
LINE
  5
2C2
  8
MyLines
 10
362.15004661906033
 20
-137.75
 30
0.0
 11
363.07225251847524
 21
-137.75
 31
0.0
  0
LINE
  5
2C3
  8
MyLines
 10
363.07225251847524
 20
-137.75
 30
0.0
 11
363.9944584178902
 21
-137.75
 31
0.0
  0
LINE
  5
2C4
  8
MyLines
 10
363.9944584178902
 20
-137.75
 30
0.0
 11
364.9166643173051
 21
-137.75
 31
0.0
  0
LINE
  5
2C5
  8
MyLines
 10
364.9166643173051
 20
-137.75
 30
0.0
 11
365.83887021672
 21
-137.75
 31
0.0
  0
LINE
  5
2C6
  8
MyLines
 10
365.83887021672
 20
-137.75
 30
0.0
 11
366.7610761161349
 21
-137.75
 31
0.0
  0
LINE
  5
2C7
  8
MyLines
 10
366.7610761161349
 20
-137.75
 30
0.0
 11
367.6832820155498
 21
-137.75
 31
0.0
  0
LINE
  5
2C8
  8
MyLines
 10
367.6832820155498
 20
-137.75
 30
0.0
 11
368.6054879149647
 21
-137.75
 31
0.0
  0
LINE
  5
2C9
  8
MyLines
 10
368.6054879149647
 20
-137.75
 30
0.0
 11
368.6054879149647
 21
-137.75
 31
0.0
  0
LINE
  5
2CA
  8
MyLines
 10
368.6054879149647
 20
-137.75
 30
0.0
 11
368.6054879149647
 21
145.6875
 31
0.0
  0
LINE
  5
2CB
  8
MyLines
 10
368.6054879149647
 20
145.6875
 30
0.0
 11
368.6054879149647
 21
145.6875
 31
0.0
  0
LINE
  5
2CC
  8
MyLines
 10
368.6054879149647
 20
145.6875
 30
0.0
 11
367.8097326380342
 21
145.6875
 31
0.0
  0
LINE
  5
2CD
  8
MyLines
 10
367.8097326380342
 20
145.6875
 30
0.0
 11
367.01397736110357
 21
145.6875
 31
0.0
  0
LINE
  5
2CE
  8
MyLines
 10
367.01397736110357
 20
145.6875
 30
0.0
 11
366.218222084173
 21
145.6875
 31
0.0
  0
LINE
  5
2CF
  8
MyLines
 10
366.218222084173
 20
145.6875
 30
0.0
 11
365.4224668072425
 21
145.6875
 31
0.0
  0
LINE
  5
2D0
  8
MyLines
 10
365.4224668072425
 20
145.6875
 30
0.0
 11
364.62671153031187
 21
145.6875
 31
0.0
  0
LINE
  5
2D1
  8
MyLines
 10
364.62671153031187
 20
145.6875
 30
0.0
 11
363.8309562533813
 21
145.6875
 31
0.0
  0
LINE
  5
2D2
  8
MyLines
 10
363.8309562533813
 20
145.6875
 30
0.0
 11
363.0352009764507
 21
145.6875
 31
0.0
  0
LINE
  5
2D3
  8
MyLines
 10
363.0352009764507
 20
145.6875
 30
0.0
 11
362.23944569952016
 21
145.6875
 31
0.0
  0
LINE
  5
2D4
  8
MyLines
 10
362.23944569952016
 20
145.6875
 30
0.0
 11
361.4436904225896
 21
145.6875
 31
0.0
  0
LINE
  5
2D5
  8
MyLines
 10
361.4436904225896
 20
145.6875
 30
0.0
 11
360.647935145659
 21
145.6875
 31
0.0
  0
LINE
  5
2D6
  8
MyLines
 10
360.647935145659
 20
145.6875
 30
0.0
 11
359.85217986872846
 21
145.6875
 31
0.0
  0
LINE
  5
2D7
  8
MyLines
 10
359.85217986872846
 20
145.6875
 30
0.0
 11
359.0564245917979
 21
145.6875
 31
0.0
  0
LINE
  5
2D8
  8
MyLines
 10
359.0564245917979
 20
145.6875
 30
0.0
 11
358.2606693148673
 21
145.6875
 31
0.0
  0
LINE
  5
2D9
  8
MyLines
 10
358.2606693148673
 20
145.6875
 30
0.0
 11
357.46491403793675
 21
145.6875
 31
0.0
  0
LINE
  5
2DA
  8
MyLines
 10
357.46491403793675
 20
145.6875
 30
0.0
 11
356.66915876100614
 21
145.6875
 31
0.0
  0
LINE
  5
2DB
  8
MyLines
 10
356.66915876100614
 20
145.6875
 30
0.0
 11
355.8734034840756
 21
145.6875
 31
0.0
  0
LINE
  5
2DC
  8
MyLines
 10
355.8734034840756
 20
145.6875
 30
0.0
 11
355.07764820714505
 21
145.6875
 31
0.0
  0
LINE
  5
2DD
  8
MyLines
 10
355.07764820714505
 20
145.6875
 30
0.0
 11
354.28189293021444
 21
145.6875
 31
0.0
  0
LINE
  5
2DE
  8
MyLines
 10
354.28189293021444
 20
145.6875
 30
0.0
 11
353.4861376532839
 21
145.6875
 31
0.0
  0
LINE
  5
2DF
  8
MyLines
 10
353.4861376532839
 20
145.6875
 30
0.0
 11
352.69038237635334
 21
145.6875
 31
0.0
  0
LINE
  5
2E0
  8
MyLines
 10
352.69038237635334
 20
145.6875
 30
0.0
 11
351.89462709942273
 21
145.6875
 31
0.0
  0
LINE
  5
2E1
  8
MyLines
 10
351.89462709942273
 20
145.6875
 30
0.0
 11
351.0988718224922
 21
145.6875
 31
0.0
  0
LINE
  5
2E2
  8
MyLines
 10
351.0988718224922
 20
145.6875
 30
0.0
 11
350.30311654556164
 21
145.6875
 31
0.0
  0
LINE
  5
2E3
  8
MyLines
 10
350.30311654556164
 20
145.6875
 30
0.0
 11
349.50736126863103
 21
145.6875
 31
0.0
  0
LINE
  5
2E4
  8
MyLines
 10
349.50736126863103
 20
145.6875
 30
0.0
 11
348.7116059917005
 21
145.6875
 31
0.0
  0
LINE
  5
2E5
  8
MyLines
 10
348.7116059917005
 20
145.6875
 30
0.0
 11
347.9158507147699
 21
145.6875
 31
0.0
  0
LINE
  5
2E6
  8
MyLines
 10
347.9158507147699
 20
145.6875
 30
0.0
 11
347.1200954378393
 21
145.6875
 31
0.0
  0
LINE
  5
2E7
  8
MyLines
 10
347.1200954378393
 20
145.6875
 30
0.0
 11
346.3243401609088
 21
145.6875
 31
0.0
  0
LINE
  5
2E8
  8
MyLines
 10
346.3243401609088
 20
145.6875
 30
0.0
 11
345.52858488397817
 21
145.6875
 31
0.0
  0
LINE
  5
2E9
  8
MyLines
 10
345.52858488397817
 20
145.6875
 30
0.0
 11
344.7328296070476
 21
145.6875
 31
0.0
  0
LINE
  5
2EA
  8
MyLines
 10
344.7328296070476
 20
145.6875
 30
0.0
 11
343.93707433011707
 21
145.6875
 31
0.0
  0
LINE
  5
2EB
  8
MyLines
 10
343.93707433011707
 20
145.6875
 30
0.0
 11
343.14131905318646
 21
145.6875
 31
0.0
  0
LINE
  5
2EC
  8
MyLines
 10
343.14131905318646
 20
145.6875
 30
0.0
 11
342.3455637762559
 21
145.6875
 31
0.0
  0
LINE
  5
2ED
  8
MyLines
 10
342.3455637762559
 20
145.6875
 30
0.0
 11
341.54980849932537
 21
145.6875
 31
0.0
  0
LINE
  5
2EE
  8
MyLines
 10
341.54980849932537
 20
145.6875
 30
0.0
 11
340.75405322239476
 21
145.6875
 31
0.0
  0
LINE
  5
2EF
  8
MyLines
 10
340.75405322239476
 20
145.6875
 30
0.0
 11
339.9582979454642
 21
145.6875
 31
0.0
  0
LINE
  5
2F0
  8
MyLines
 10
339.9582979454642
 20
145.6875
 30
0.0
 11
339.1625426685336
 21
145.6875
 31
0.0
  0
LINE
  5
2F1
  8
MyLines
 10
339.1625426685336
 20
145.6875
 30
0.0
 11
338.36678739160305
 21
145.6875
 31
0.0
  0
LINE
  5
2F2
  8
MyLines
 10
338.36678739160305
 20
145.6875
 30
0.0
 11
337.5710321146725
 21
145.6875
 31
0.0
  0
LINE
  5
2F3
  8
MyLines
 10
337.5710321146725
 20
145.6875
 30
0.0
 11
336.7752768377419
 21
145.6875
 31
0.0
  0
LINE
  5
2F4
  8
MyLines
 10
336.7752768377419
 20
145.6875
 30
0.0
 11
335.97952156081135
 21
145.6875
 31
0.0
  0
LINE
  5
2F5
  8
MyLines
 10
335.97952156081135
 20
145.6875
 30
0.0
 11
335.1837662838808
 21
145.6875
 31
0.0
  0
LINE
  5
2F6
  8
MyLines
 10
335.1837662838808
 20
145.6875
 30
0.0
 11
334.3880110069502
 21
145.6875
 31
0.0
  0
LINE
  5
2F7
  8
MyLines
 10
334.3880110069502
 20
145.6875
 30
0.0
 11
333.59225573001964
 21
145.6875
 31
0.0
  0
LINE
  5
2F8
  8
MyLines
 10
333.59225573001964
 20
145.6875
 30
0.0
 11
332.7965004530891
 21
145.6875
 31
0.0
  0
LINE
  5
2F9
  8
MyLines
 10
332.7965004530891
 20
145.6875
 30
0.0
 11
332.0007451761585
 21
145.6875
 31
0.0
  0
LINE
  5
2FA
  8
MyLines
 10
332.0007451761585
 20
145.6875
 30
0.0
 11
331.20498989922794
 21
145.6875
 31
0.0
  0
LINE
  5
2FB
  8
MyLines
 10
331.20498989922794
 20
145.6875
 30
0.0
 11
330.40923462229733
 21
145.6875
 31
0.0
  0
LINE
  5
2FC
  8
MyLines
 10
330.40923462229733
 20
145.6875
 30
0.0
 11
329.6134793453668
 21
145.6875
 31
0.0
  0
LINE
  5
2FD
  8
MyLines
 10
329.6134793453668
 20
145.6875
 30
0.0
 11
329.6134793453668
 21
-133.78125
 31
0.0
  0
LINE
  5
2FE
  8
MyLines
 10
329.6134793453668
 20
-133.78125
 30
0.0
 11
329.6134793453668
 21
-133.78125
 31
0.0
  0
LINE
  5
2FF
  8
MyLines
 10
329.6134793453668
 20
-133.78125
 30
0.0
 11
330.17508347568435
 21
-133.78125
 31
0.0
  0
LINE
  5
300
  8
MyLines
 10
330.17508347568435
 20
-133.78125
 30
0.0
 11
330.7366876060019
 21
-133.78125
 31
0.0
  0
LINE
  5
301
  8
MyLines
 10
330.7366876060019
 20
-133.78125
 30
0.0
 11
331.2982917363194
 21
-133.78125
 31
0.0
  0
LINE
  5
302
  8
MyLines
 10
331.2982917363194
 20
-133.78125
 30
0.0
 11
331.85989586663703
 21
-133.78125
 31
0.0
  0
LINE
  5
303
  8
MyLines
 10
331.85989586663703
 20
-133.78125
 30
0.0
 11
332.42149999695454
 21
-133.78125
 31
0.0
  0
LINE
  5
304
  8
MyLines
 10
332.42149999695454
 20
-133.78125
 30
0.0
 11
332.9831041272721
 21
-133.78125
 31
0.0
  0
LINE
  5
305
  8
MyLines
 10
332.9831041272721
 20
-133.78125
 30
0.0
 11
333.54470825758966
 21
-133.78125
 31
0.0
  0
LINE
  5
306
  8
MyLines
 10
333.54470825758966
 20
-133.78125
 30
0.0
 11
334.10631238790717
 21
-133.78125
 31
0.0
  0
LINE
  5
307
  8
MyLines
 10
334.10631238790717
 20
-133.78125
 30
0.0
 11
334.66791651822473
 21
-133.78125
 31
0.0
  0
LINE
  5
308
  8
MyLines
 10
334.66791651822473
 20
-133.78125
 30
0.0
 11
335.2295206485423
 21
-133.78125
 31
0.0
  0
LINE
  5
309
  8
MyLines
 10
335.2295206485423
 20
-133.78125
 30
0.0
 11
335.79112477885985
 21
-133.78125
 31
0.0
  0
LINE
  5
30A
  8
MyLines
 10
335.79112477885985
 20
-133.78125
 30
0.0
 11
336.35272890917736
 21
-133.78125
 31
0.0
  0
LINE
  5
30B
  8
MyLines
 10
336.35272890917736
 20
-133.78125
 30
0.0
 11
336.914333039495
 21
-133.78125
 31
0.0
  0
LINE
  5
30C
  8
MyLines
 10
336.914333039495
 20
-133.78125
 30
0.0
 11
337.4759371698125
 21
-133.78125
 31
0.0
  0
LINE
  5
30D
  8
MyLines
 10
337.4759371698125
 20
-133.78125
 30
0.0
 11
338.03754130013
 21
-133.78125
 31
0.0
  0
LINE
  5
30E
  8
MyLines
 10
338.03754130013
 20
-133.78125
 30
0.0
 11
338.5991454304476
 21
-133.78125
 31
0.0
  0
LINE
  5
30F
  8
MyLines
 10
338.5991454304476
 20
-133.78125
 30
0.0
 11
339.1607495607651
 21
-133.78125
 31
0.0
  0
LINE
  5
310
  8
MyLines
 10
339.1607495607651
 20
-133.78125
 30
0.0
 11
339.72235369108273
 21
-133.78125
 31
0.0
  0
LINE
  5
311
  8
MyLines
 10
339.72235369108273
 20
-133.78125
 30
0.0
 11
340.28395782140024
 21
-133.78125
 31
0.0
  0
LINE
  5
312
  8
MyLines
 10
340.28395782140024
 20
-133.78125
 30
0.0
 11
340.8455619517178
 21
-133.78125
 31
0.0
  0
LINE
  5
313
  8
MyLines
 10
340.8455619517178
 20
-133.78125
 30
0.0
 11
341.40716608203536
 21
-133.78125
 31
0.0
  0
LINE
  5
314
  8
MyLines
 10
341.40716608203536
 20
-133.78125
 30
0.0
 11
341.96877021235287
 21
-133.78125
 31
0.0
  0
LINE
  5
315
  8
MyLines
 10
341.96877021235287
 20
-133.78125
 30
0.0
 11
342.5303743426704
 21
-133.78125
 31
0.0
  0
LINE
  5
316
  8
MyLines
 10
342.5303743426704
 20
-133.78125
 30
0.0
 11
343.091978472988
 21
-133.78125
 31
0.0
  0
LINE
  5
317
  8
MyLines
 10
343.091978472988
 20
-133.78125
 30
0.0
 11
343.65358260330555
 21
-133.78125
 31
0.0
  0
LINE
  5
318
  8
MyLines
 10
343.65358260330555
 20
-133.78125
 30
0.0
 11
344.21518673362306
 21
-133.78125
 31
0.0
  0
LINE
  5
319
  8
MyLines
 10
344.21518673362306
 20
-133.78125
 30
0.0
 11
344.7767908639407
 21
-133.78125
 31
0.0
  0
LINE
  5
31A
  8
MyLines
 10
344.7767908639407
 20
-133.78125
 30
0.0
 11
345.3383949942582
 21
-133.78125
 31
0.0
  0
LINE
  5
31B
  8
MyLines
 10
345.3383949942582
 20
-133.78125
 30
0.0
 11
345.8999991245757
 21
-133.78125
 31
0.0
  0
LINE
  5
31C
  8
MyLines
 10
345.8999991245757
 20
-133.78125
 30
0.0
 11
346.4616032548933
 21
-133.78125
 31
0.0
  0
LINE
  5
31D
  8
MyLines
 10
346.4616032548933
 20
-133.78125
 30
0.0
 11
347.0232073852108
 21
-133.78125
 31
0.0
  0
LINE
  5
31E
  8
MyLines
 10
347.0232073852108
 20
-133.78125
 30
0.0
 11
347.58481151552843
 21
-133.78125
 31
0.0
  0
LINE
  5
31F
  8
MyLines
 10
347.58481151552843
 20
-133.78125
 30
0.0
 11
348.14641564584593
 21
-133.78125
 31
0.0
  0
LINE
  5
320
  8
MyLines
 10
348.14641564584593
 20
-133.78125
 30
0.0
 11
348.7080197761635
 21
-133.78125
 31
0.0
  0
LINE
  5
321
  8
MyLines
 10
348.7080197761635
 20
-133.78125
 30
0.0
 11
349.26962390648106
 21
-133.78125
 31
0.0
  0
LINE
  5
322
  8
MyLines
 10
349.26962390648106
 20
-133.78125
 30
0.0
 11
349.83122803679856
 21
-133.78125
 31
0.0
  0
LINE
  5
323
  8
MyLines
 10
349.83122803679856
 20
-133.78125
 30
0.0
 11
350.3928321671161
 21
-133.78125
 31
0.0
  0
LINE
  5
324
  8
MyLines
 10
350.3928321671161
 20
-133.78125
 30
0.0
 11
350.9544362974337
 21
-133.78125
 31
0.0
  0
LINE
  5
325
  8
MyLines
 10
350.9544362974337
 20
-133.78125
 30
0.0
 11
351.51604042775125
 21
-133.78125
 31
0.0
  0
LINE
  5
326
  8
MyLines
 10
351.51604042775125
 20
-133.78125
 30
0.0
 11
352.07764455806876
 21
-133.78125
 31
0.0
  0
LINE
  5
327
  8
MyLines
 10
352.07764455806876
 20
-133.78125
 30
0.0
 11
352.6392486883864
 21
-133.78125
 31
0.0
  0
LINE
  5
328
  8
MyLines
 10
352.6392486883864
 20
-133.78125
 30
0.0
 11
353.2008528187039
 21
-133.78125
 31
0.0
  0
LINE
  5
329
  8
MyLines
 10
353.2008528187039
 20
-133.78125
 30
0.0
 11
353.7624569490214
 21
-133.78125
 31
0.0
  0
LINE
  5
32A
  8
MyLines
 10
353.7624569490214
 20
-133.78125
 30
0.0
 11
354.324061079339
 21
-133.78125
 31
0.0
  0
LINE
  5
32B
  8
MyLines
 10
354.324061079339
 20
-133.78125
 30
0.0
 11
354.8856652096565
 21
-133.78125
 31
0.0
  0
LINE
  5
32C
  8
MyLines
 10
354.8856652096565
 20
-133.78125
 30
0.0
 11
355.4472693399741
 21
-133.78125
 31
0.0
  0
LINE
  5
32D
  8
MyLines
 10
355.4472693399741
 20
-133.78125
 30
0.0
 11
356.00887347029163
 21
-133.78125
 31
0.0
  0
LINE
  5
32E
  8
MyLines
 10
356.00887347029163
 20
-133.78125
 30
0.0
 11
356.57047760060914
 21
-133.78125
 31
0.0
  0
LINE
  5
32F
  8
MyLines
 10
356.57047760060914
 20
-133.78125
 30
0.0
 11
357.13208173092676
 21
-133.78125
 31
0.0
  0
LINE
  5
330
  8
MyLines
 10
357.13208173092676
 20
-133.78125
 30
0.0
 11
357.13208173092676
 21
-133.78125
 31
0.0
  0
LINE
  5
331
  8
MyLines
 10
357.13208173092676
 20
-133.78125
 30
0.0
 11
357.13208173092676
 21
141.71875
 31
0.0
  0
LINE
  5
332
  8
MyLines
 10
357.13208173092676
 20
141.71875
 30
0.0
 11
357.13208173092676
 21
141.71875
 31
0.0
  0
LINE
  5
333
  8
MyLines
 10
357.13208173092676
 20
141.71875
 30
0.0
 11
356.80462874722224
 21
141.71875
 31
0.0
  0
LINE
  5
334
  8
MyLines
 10
356.80462874722224
 20
141.71875
 30
0.0
 11
356.47717576351766
 21
141.71875
 31
0.0
  0
LINE
  5
335
  8
MyLines
 10
356.47717576351766
 20
141.71875
 30
0.0
 11
356.14972277981315
 21
141.71875
 31
0.0
  0
LINE
  5
336
  8
MyLines
 10
356.14972277981315
 20
141.71875
 30
0.0
 11
355.8222697961086
 21
141.71875
 31
0.0
  0
LINE
  5
337
  8
MyLines
 10
355.8222697961086
 20
141.71875
 30
0.0
 11
355.4948168124041
 21
141.71875
 31
0.0
  0
LINE
  5
338
  8
MyLines
 10
355.4948168124041
 20
141.71875
 30
0.0
 11
355.16736382869954
 21
141.71875
 31
0.0
  0
LINE
  5
339
  8
MyLines
 10
355.16736382869954
 20
141.71875
 30
0.0
 11
354.8399108449951
 21
141.71875
 31
0.0
  0
LINE
  5
33A
  8
MyLines
 10
354.8399108449951
 20
141.71875
 30
0.0
 11
354.5124578612905
 21
141.71875
 31
0.0
  0
LINE
  5
33B
  8
MyLines
 10
354.5124578612905
 20
141.71875
 30
0.0
 11
354.185004877586
 21
141.71875
 31
0.0
  0
LINE
  5
33C
  8
MyLines
 10
354.185004877586
 20
141.71875
 30
0.0
 11
353.8575518938814
 21
141.71875
 31
0.0
  0
LINE
  5
33D
  8
MyLines
 10
353.8575518938814
 20
141.71875
 30
0.0
 11
353.53009891017695
 21
141.71875
 31
0.0
  0
LINE
  5
33E
  8
MyLines
 10
353.53009891017695
 20
141.71875
 30
0.0
 11
353.20264592647237
 21
141.71875
 31
0.0
  0
LINE
  5
33F
  8
MyLines
 10
353.20264592647237
 20
141.71875
 30
0.0
 11
352.87519294276785
 21
141.71875
 31
0.0
  0
LINE
  5
340
  8
MyLines
 10
352.87519294276785
 20
141.71875
 30
0.0
 11
352.54773995906334
 21
141.71875
 31
0.0
  0
LINE
  5
341
  8
MyLines
 10
352.54773995906334
 20
141.71875
 30
0.0
 11
352.2202869753588
 21
141.71875
 31
0.0
  0
LINE
  5
342
  8
MyLines
 10
352.2202869753588
 20
141.71875
 30
0.0
 11
351.89283399165424
 21
141.71875
 31
0.0
  0
LINE
  5
343
  8
MyLines
 10
351.89283399165424
 20
141.71875
 30
0.0
 11
351.5653810079497
 21
141.71875
 31
0.0
  0
LINE
  5
344
  8
MyLines
 10
351.5653810079497
 20
141.71875
 30
0.0
 11
351.2379280242452
 21
141.71875
 31
0.0
  0
LINE
  5
345
  8
MyLines
 10
351.2379280242452
 20
141.71875
 30
0.0
 11
350.9104750405407
 21
141.71875
 31
0.0
  0
LINE
  5
346
  8
MyLines
 10
350.9104750405407
 20
141.71875
 30
0.0
 11
350.5830220568361
 21
141.71875
 31
0.0
  0
LINE
  5
347
  8
MyLines
 10
350.5830220568361
 20
141.71875
 30
0.0
 11
350.25556907313165
 21
141.71875
 31
0.0
  0
LINE
  5
348
  8
MyLines
 10
350.25556907313165
 20
141.71875
 30
0.0
 11
349.9281160894271
 21
141.71875
 31
0.0
  0
LINE
  5
349
  8
MyLines
 10
349.9281160894271
 20
141.71875
 30
0.0
 11
349.60066310572256
 21
141.71875
 31
0.0
  0
LINE
  5
34A
  8
MyLines
 10
349.60066310572256
 20
141.71875
 30
0.0
 11
349.273210122018
 21
141.71875
 31
0.0
  0
LINE
  5
34B
  8
MyLines
 10
349.273210122018
 20
141.71875
 30
0.0
 11
348.9457571383135
 21
141.71875
 31
0.0
  0
LINE
  5
34C
  8
MyLines
 10
348.9457571383135
 20
141.71875
 30
0.0
 11
348.61830415460895
 21
141.71875
 31
0.0
  0
LINE
  5
34D
  8
MyLines
 10
348.61830415460895
 20
141.71875
 30
0.0
 11
348.29085117090443
 21
141.71875
 31
0.0
  0
LINE
  5
34E
  8
MyLines
 10
348.29085117090443
 20
141.71875
 30
0.0
 11
347.9633981871999
 21
141.71875
 31
0.0
  0
LINE
  5
34F
  8
MyLines
 10
347.9633981871999
 20
141.71875
 30
0.0
 11
347.6359452034954
 21
141.71875
 31
0.0
  0
LINE
  5
350
  8
MyLines
 10
347.6359452034954
 20
141.71875
 30
0.0
 11
347.3084922197908
 21
141.71875
 31
0.0
  0
LINE
  5
351
  8
MyLines
 10
347.3084922197908
 20
141.71875
 30
0.0
 11
346.9810392360863
 21
141.71875
 31
0.0
  0
LINE
  5
352
  8
MyLines
 10
346.9810392360863
 20
141.71875
 30
0.0
 11
346.6535862523818
 21
141.71875
 31
0.0
  0
LINE
  5
353
  8
MyLines
 10
346.6535862523818
 20
141.71875
 30
0.0
 11
346.32613326867727
 21
141.71875
 31
0.0
  0
LINE
  5
354
  8
MyLines
 10
346.32613326867727
 20
141.71875
 30
0.0
 11
345.9986802849727
 21
141.71875
 31
0.0
  0
LINE
  5
355
  8
MyLines
 10
345.9986802849727
 20
141.71875
 30
0.0
 11
345.67122730126823
 21
141.71875
 31
0.0
  0
LINE
  5
356
  8
MyLines
 10
345.67122730126823
 20
141.71875
 30
0.0
 11
345.34377431756366
 21
141.71875
 31
0.0
  0
LINE
  5
357
  8
MyLines
 10
345.34377431756366
 20
141.71875
 30
0.0
 11
345.01632133385914
 21
141.71875
 31
0.0
  0
LINE
  5
358
  8
MyLines
 10
345.01632133385914
 20
141.71875
 30
0.0
 11
344.68886835015456
 21
141.71875
 31
0.0
  0
LINE
  5
359
  8
MyLines
 10
344.68886835015456
 20
141.71875
 30
0.0
 11
344.3614153664501
 21
141.71875
 31
0.0
  0
LINE
  5
35A
  8
MyLines
 10
344.3614153664501
 20
141.71875
 30
0.0
 11
344.03396238274553
 21
141.71875
 31
0.0
  0
LINE
  5
35B
  8
MyLines
 10
344.03396238274553
 20
141.71875
 30
0.0
 11
343.706509399041
 21
141.71875
 31
0.0
  0
LINE
  5
35C
  8
MyLines
 10
343.706509399041
 20
141.71875
 30
0.0
 11
343.3790564153365
 21
141.71875
 31
0.0
  0
LINE
  5
35D
  8
MyLines
 10
343.3790564153365
 20
141.71875
 30
0.0
 11
343.051603431632
 21
141.71875
 31
0.0
  0
LINE
  5
35E
  8
MyLines
 10
343.051603431632
 20
141.71875
 30
0.0
 11
342.7241504479274
 21
141.71875
 31
0.0
  0
LINE
  5
35F
  8
MyLines
 10
342.7241504479274
 20
141.71875
 30
0.0
 11
342.3966974642229
 21
141.71875
 31
0.0
  0
LINE
  5
360
  8
MyLines
 10
342.3966974642229
 20
141.71875
 30
0.0
 11
342.06924448051836
 21
141.71875
 31
0.0
  0
LINE
  5
361
  8
MyLines
 10
342.06924448051836
 20
141.71875
 30
0.0
 11
341.74179149681385
 21
141.71875
 31
0.0
  0
LINE
  5
362
  8
MyLines
 10
341.74179149681385
 20
141.71875
 30
0.0
 11
341.41433851310927
 21
141.71875
 31
0.0
  0
LINE
  5
363
  8
MyLines
 10
341.41433851310927
 20
141.71875
 30
0.0
 11
341.0868855294048
 21
141.71875
 31
0.0
  0
LINE
  5
364
  8
MyLines
 10
341.0868855294048
 20
141.71875
 30
0.0
 11
341.0868855294048
 21
-129.8125
 31
0.0
  0
LINE
  5
365
  8
MyLines
 10
341.0868855294048
 20
-129.8125
 30
0.0
 11
341.0868855294048
 21
-129.8125
 31
0.0
  0
LINE
  5
366
  8
MyLines
 10
341.0868855294048
 20
-129.8125
 30
0.0
 11
341.0868855294048
 21
-129.8125
 31
0.0
  0
LINE
  5
367
  8
MyLines
 10
341.0868855294048
 20
-129.8125
 30
0.0
 11
341.0868855294048
 21
-129.8125
 31
0.0
  0
LINE
  5
368
  8
MyLines
 10
341.0868855294048
 20
-129.8125
 30
0.0
 11
341.0868855294048
 21
-129.8125
 31
0.0
  0
LINE
  5
369
  8
MyLines
 10
341.0868855294048
 20
-129.8125
 30
0.0
 11
341.0868855294048
 21
-129.8125
 31
0.0
  0
LINE
  5
36A
  8
MyLines
 10
341.0868855294048
 20
-129.8125
 30
0.0
 11
341.0868855294048
 21
-129.8125
 31
0.0
  0
LINE
  5
36B
  8
MyLines
 10
341.0868855294048
 20
-129.8125
 30
0.0
 11
341.0868855294048
 21
-129.8125
 31
0.0
  0
LINE
  5
36C
  8
MyLines
 10
341.0868855294048
 20
-129.8125
 30
0.0
 11
341.0868855294048
 21
-129.8125
 31
0.0
  0
LINE
  5
36D
  8
MyLines
 10
341.0868855294048
 20
-129.8125
 30
0.0
 11
341.0868855294048
 21
-129.8125
 31
0.0
  0
LINE
  5
36E
  8
MyLines
 10
341.0868855294048
 20
-129.8125
 30
0.0
 11
341.0868855294048
 21
-129.8125
 31
0.0
  0
LINE
  5
36F
  8
MyLines
 10
341.0868855294048
 20
-129.8125
 30
0.0
 11
341.0868855294048
 21
-129.8125
 31
0.0
  0
LINE
  5
370
  8
MyLines
 10
341.0868855294048
 20
-129.8125
 30
0.0
 11
341.0868855294048
 21
-129.8125
 31
0.0
  0
LINE
  5
371
  8
MyLines
 10
341.0868855294048
 20
-129.8125
 30
0.0
 11
341.0868855294048
 21
-129.8125
 31
0.0
  0
LINE
  5
372
  8
MyLines
 10
341.0868855294048
 20
-129.8125
 30
0.0
 11
341.0868855294048
 21
-129.8125
 31
0.0
  0
LINE
  5
373
  8
MyLines
 10
341.0868855294048
 20
-129.8125
 30
0.0
 11
341.0868855294048
 21
-129.8125
 31
0.0
  0
LINE
  5
374
  8
MyLines
 10
341.0868855294048
 20
-129.8125
 30
0.0
 11
341.0868855294048
 21
-129.8125
 31
0.0
  0
LINE
  5
375
  8
MyLines
 10
341.0868855294048
 20
-129.8125
 30
0.0
 11
341.0868855294048
 21
-129.8125
 31
0.0
  0
LINE
  5
376
  8
MyLines
 10
341.0868855294048
 20
-129.8125
 30
0.0
 11
341.0868855294048
 21
-129.8125
 31
0.0
  0
LINE
  5
377
  8
MyLines
 10
341.0868855294048
 20
-129.8125
 30
0.0
 11
341.0868855294048
 21
-129.8125
 31
0.0
  0
LINE
  5
378
  8
MyLines
 10
341.0868855294048
 20
-129.8125
 30
0.0
 11
341.0868855294048
 21
-129.8125
 31
0.0
  0
LINE
  5
379
  8
MyLines
 10
341.0868855294048
 20
-129.8125
 30
0.0
 11
341.0868855294048
 21
-129.8125
 31
0.0
  0
LINE
  5
37A
  8
MyLines
 10
341.0868855294048
 20
-129.8125
 30
0.0
 11
341.0868855294048
 21
-129.8125
 31
0.0
  0
LINE
  5
37B
  8
MyLines
 10
341.0868855294048
 20
-129.8125
 30
0.0
 11
341.0868855294048
 21
-129.8125
 31
0.0
  0
LINE
  5
37C
  8
MyLines
 10
341.0868855294048
 20
-129.8125
 30
0.0
 11
341.0868855294048
 21
-129.8125
 31
0.0
  0
LINE
  5
37D
  8
MyLines
 10
341.0868855294048
 20
-129.8125
 30
0.0
 11
341.0868855294048
 21
-129.8125
 31
0.0
  0
LINE
  5
37E
  8
MyLines
 10
341.0868855294048
 20
-129.8125
 30
0.0
 11
341.0868855294048
 21
-129.8125
 31
0.0
  0
LINE
  5
37F
  8
MyLines
 10
341.0868855294048
 20
-129.8125
 30
0.0
 11
341.0868855294048
 21
-129.8125
 31
0.0
  0
LINE
  5
380
  8
MyLines
 10
341.0868855294048
 20
-129.8125
 30
0.0
 11
341.0868855294048
 21
-129.8125
 31
0.0
  0
LINE
  5
381
  8
MyLines
 10
341.0868855294048
 20
-129.8125
 30
0.0
 11
341.0868855294048
 21
-129.8125
 31
0.0
  0
LINE
  5
382
  8
MyLines
 10
341.0868855294048
 20
-129.8125
 30
0.0
 11
341.0868855294048
 21
-129.8125
 31
0.0
  0
LINE
  5
383
  8
MyLines
 10
341.0868855294048
 20
-129.8125
 30
0.0
 11
341.0868855294048
 21
-129.8125
 31
0.0
  0
LINE
  5
384
  8
MyLines
 10
341.0868855294048
 20
-129.8125
 30
0.0
 11
341.0868855294048
 21
-129.8125
 31
0.0
  0
LINE
  5
385
  8
MyLines
 10
341.0868855294048
 20
-129.8125
 30
0.0
 11
341.0868855294048
 21
-129.8125
 31
0.0
  0
LINE
  5
386
  8
MyLines
 10
341.0868855294048
 20
-129.8125
 30
0.0
 11
341.0868855294048
 21
-129.8125
 31
0.0
  0
LINE
  5
387
  8
MyLines
 10
341.0868855294048
 20
-129.8125
 30
0.0
 11
341.0868855294048
 21
-129.8125
 31
0.0
  0
LINE
  5
388
  8
MyLines
 10
341.0868855294048
 20
-129.8125
 30
0.0
 11
341.0868855294048
 21
-129.8125
 31
0.0
  0
LINE
  5
389
  8
MyLines
 10
341.0868855294048
 20
-129.8125
 30
0.0
 11
341.0868855294048
 21
-129.8125
 31
0.0
  0
LINE
  5
38A
  8
MyLines
 10
341.0868855294048
 20
-129.8125
 30
0.0
 11
341.0868855294048
 21
-129.8125
 31
0.0
  0
LINE
  5
38B
  8
MyLines
 10
341.0868855294048
 20
-129.8125
 30
0.0
 11
341.0868855294048
 21
-129.8125
 31
0.0
  0
LINE
  5
38C
  8
MyLines
 10
341.0868855294048
 20
-129.8125
 30
0.0
 11
341.0868855294048
 21
-129.8125
 31
0.0
  0
LINE
  5
38D
  8
MyLines
 10
341.0868855294048
 20
-129.8125
 30
0.0
 11
341.0868855294048
 21
-129.8125
 31
0.0
  0
LINE
  5
38E
  8
MyLines
 10
341.0868855294048
 20
-129.8125
 30
0.0
 11
341.0868855294048
 21
-129.8125
 31
0.0
  0
LINE
  5
38F
  8
MyLines
 10
341.0868855294048
 20
-129.8125
 30
0.0
 11
341.0868855294048
 21
-129.8125
 31
0.0
  0
LINE
  5
390
  8
MyLines
 10
341.0868855294048
 20
-129.8125
 30
0.0
 11
341.0868855294048
 21
-129.8125
 31
0.0
  0
LINE
  5
391
  8
MyLines
 10
341.0868855294048
 20
-129.8125
 30
0.0
 11
341.0868855294048
 21
-129.8125
 31
0.0
  0
LINE
  5
392
  8
MyLines
 10
341.0868855294048
 20
-129.8125
 30
0.0
 11
341.0868855294048
 21
-129.8125
 31
0.0
  0
LINE
  5
393
  8
MyLines
 10
341.0868855294048
 20
-129.8125
 30
0.0
 11
341.0868855294048
 21
-129.8125
 31
0.0
  0
LINE
  5
394
  8
MyLines
 10
341.0868855294048
 20
-129.8125
 30
0.0
 11
341.0868855294048
 21
-129.8125
 31
0.0
  0
LINE
  5
395
  8
MyLines
 10
341.0868855294048
 20
-129.8125
 30
0.0
 11
341.0868855294048
 21
-129.8125
 31
0.0
  0
LINE
  5
396
  8
MyLines
 10
341.0868855294048
 20
-129.8125
 30
0.0
 11
341.0868855294048
 21
-129.8125
 31
0.0
  0
ENDSEC
  0
EOF
