  0
SECTION
  2
HEADER
  9
$ACADVER
  1
AC1009
  9
$DWGCODEPAGE
  3
ANSI_1252
  9
$INSBASE
 10
0.0
 20
0.0
 30
0.0
  9
$EXTMIN
 10
1e+20
 20
1e+20
 30
1e+20
  9
$EXTMAX
 10
-1e+20
 20
-1e+20
 30
-1e+20
  9
$LIMMIN
 10
0.0
 20
0.0
  9
$LIMMAX
 10
420.0
 20
297.0
  9
$ORTHOMODE
 70
0
  9
$REGENMODE
 70
1
  9
$FILLMODE
 70
1
  9
$DRAGMODE
 70
2
  9
$QTEXTMODE
 70
0
  9
$MIRRTEXT
 70
1
  9
$OSMODE
 70
20583
  9
$LTSCALE
 40
1.0
  9
$ATTMODE
 70
1
  9
$TEXTSIZE
 40
2.5
  9
$TRACEWID
 40
1.0
  9
$TEXTSTYLE
  7
Standard
  9
$CLAYER
  8
0
  9
$CELTYPE
  6
ByLayer
  9
$CECOLOR
 62
256
  9
$DIMSCALE
 40
1.0
  9
$DIMASZ
 40
2.5
  9
$DIMEXO
 40
0.625
  9
$DIMDLI
 40
3.75
  9
$DIMRND
 40
0.0
  9
$DIMDLE
 40
0.0
  9
$DIMEXE
 40
1.25
  9
$DIMTP
 40
0.0
  9
$DIMTM
 40
0.0
  9
$DIMTXT
 40
2.5
  9
$DIMCEN
 40
2.5
  9
$DIMTSZ
 40
0.0
  9
$DIMTOL
 70
0
  9
$DIMLIM
 70
0
  9
$DIMTIH
 70
0
  9
$DIMTOH
 70
0
  9
$DIMSE1
 70
0
  9
$DIMSE2
 70
0
  9
$DIMTAD
 70
1
  9
$DIMZIN
 70
8
  9
$DIMBLK
  1

  9
$DIMASO
 70
1
  9
$DIMSHO
 70
1
  9
$DIMPOST
  1

  9
$DIMAPOST
  1

  9
$DIMALT
 70
0
  9
$DIMALTD
 70
3
  9
$DIMALTF
 40
0.03937007874
  9
$DIMLFAC
 40
1.0
  9
$DIMTOFL
 70
1
  9
$DIMTVP
 40
0.0
  9
$DIMTIX
 70
0
  9
$DIMSOXD
 70
0
  9
$DIMSAH
 70
0
  9
$DIMBLK1
  1

  9
$DIMBLK2
  1

  9
$DIMSTYLE
  2
ISO-25
  9
$DIMCLRD
 70
0
  9
$DIMCLRE
 70
0
  9
$DIMCLRT
 70
0
  9
$DIMTFAC
 40
1.0
  9
$DIMGAP
 40
0.625
  9
$COORDS
 70
1
  9
$ATTDIA
 70
0
  9
$ATTREQ
 70
1
  9
$HANDLING
 70
1
  9
$LUNITS
 70
2
  9
$LUPREC
 70
4
  9
$SKETCHINC
 40
1.0
  9
$FILLETRAD
 40
10.0
  9
$AUNITS
 70
0
  9
$AUPREC
 70
2
  9
$MENU
  1
.
  9
$ELEVATION
 40
0.0
  9
$PELEVATION
 40
0.0
  9
$THICKNESS
 40
0.0
  9
$LIMCHECK
 70
0
  9
$CHAMFERA
 40
0.0
  9
$CHAMFERB
 40
0.0
  9
$SKPOLY
 70
0
  9
$TDCREATE
 40
2459340.736284722
  9
$TDUPDATE
 40
2459340.736284722
  9
$TDINDWG
 40
0.0
  9
$TDUSRTIMER
 40
0.0
  9
$USRTIMER
 70
1
  9
$ANGBASE
 50
0.0
  9
$ANGDIR
 70
0
  9
$PDMODE
 70
0
  9
$PDSIZE
 40
0.0
  9
$PLINEWID
 40
0.0
  9
$SPLFRAME
 70
0
  9
$SPLINETYPE
 70
6
  9
$SPLINESEGS
 70
8
  9
$HANDSEED
  5
60
  9
$SURFTAB1
 70
6
  9
$SURFTAB2
 70
6
  9
$SURFTYPE
 70
6
  9
$SURFU
 70
6
  9
$SURFV
 70
6
  9
$UCSNAME
  2

  9
$UCSORG
 10
0.0
 20
0.0
 30
0.0
  9
$UCSXDIR
 10
1.0
 20
0.0
 30
0.0
  9
$UCSYDIR
 10
0.0
 20
1.0
 30
0.0
  9
$PUCSNAME
  2

  9
$PUCSORG
 10
0.0
 20
0.0
 30
0.0
  9
$PUCSXDIR
 10
1.0
 20
0.0
 30
0.0
  9
$PUCSYDIR
 10
0.0
 20
1.0
 30
0.0
  9
$USERI1
 70
0
  9
$USERI2
 70
0
  9
$USERI3
 70
0
  9
$USERI4
 70
0
  9
$USERI5
 70
0
  9
$USERR1
 40
0.0
  9
$USERR2
 40
0.0
  9
$USERR3
 40
0.0
  9
$USERR4
 40
0.0
  9
$USERR5
 40
0.0
  9
$WORLDVIEW
 70
1
  9
$SHADEDGE
 70
3
  9
$SHADEDIF
 70
70
  9
$TILEMODE
 70
1
  9
$MAXACTVP
 70
64
  9
$PLIMCHECK
 70
0
  9
$PEXTMIN
 10
1e+20
 20
1e+20
 30
1e+20
  9
$PEXTMAX
 10
-1e+20
 20
-1e+20
 30
-1e+20
  9
$PLIMMIN
 10
0.0
 20
0.0
  9
$PLIMMAX
 10
420.0
 20
297.0
  9
$UNITMODE
 70
0
  9
$VISRETAIN
 70
1
  9
$PLINEGEN
 70
0
  9
$PSLTSCALE
 70
1
  0
ENDSEC
  0
SECTION
  2
TABLES
  0
TABLE
  2
VPORT
 70
1
  0
VPORT
  5
23
  2
*Active
 70
0
 10
0.0
 20
0.0
 11
1.0
 21
1.0
 12
344.2
 22
148.5
 13
0.0
 23
0.0
 14
0.5
 24
0.5
 15
0.5
 25
0.5
 16
0.0
 26
0.0
 36
1.0
 17
0.0
 27
0.0
 37
0.0
 40
297.0
 41
1.34
 42
50.0
 43
0.0
 44
0.0
 50
0.0
 51
0.0
 71
0
 72
1000
 73
1
 74
3
 75
0
 76
0
 77
0
 78
0
  0
ENDTAB
  0
TABLE
  2
LTYPE
 70
3
  0
LTYPE
  5
24
  2
ByBlock
 70
0
  3

 72
65
 73
0
 40
0.0
  0
LTYPE
  5
25
  2
ByLayer
 70
0
  3

 72
65
 73
0
 40
0.0
  0
LTYPE
  5
26
  2
Continuous
 70
0
  3

 72
65
 73
0
 40
0.0
  0
ENDTAB
  0
TABLE
  2
LAYER
 70
3
  0
LAYER
  5
27
  2
0
 70
0
 62
7
  6
Continuous
  0
LAYER
  5
28
  2
Defpoints
 70
0
 62
7
  6
Continuous
  0
LAYER
  5
2D
  2
MyLines
 70
0
 62
7
  6
DASHED
  0
ENDTAB
  0
TABLE
  2
STYLE
 70
1
  0
STYLE
  5
29
  2
Standard
 70
0
 40
0.0
 41
1.0
 50
0.0
 71
0
 42
2.5
  3
txt
  4

  0
ENDTAB
  0
TABLE
  2
VIEW
 70
0
  0
ENDTAB
  0
TABLE
  2
UCS
 70
0
  0
ENDTAB
  0
TABLE
  2
APPID
 70
2
  0
APPID
  5
2A
  2
ACAD
 70
0
  0
APPID
  5
5F
  2
HATCHBACKGROUNDCOLOR
 70
0
  0
ENDTAB
  0
TABLE
  2
DIMSTYLE
 70
1
  0
DIMSTYLE
105
2B
  2
Standard
 70
0
  3

  4

  5

  6

  7

 40
1.0
 41
2.5
 42
0.625
 43
3.75
 44
1.25
 45
0.0
 46
0.0
 47
0.0
 48
0.0
140
2.5
141
2.5
142
0.0
143
0.03937007874
144
1.0
145
0.0
146
1.0
147
0.625
 71
0
 72
0
 73
0
 74
0
 75
0
 76
0
 77
1
 78
8
170
0
171
3
172
1
173
0
174
0
175
0
176
0
177
0
178
0
  0
ENDTAB
  0
ENDSEC
  0
SECTION
  2
BLOCKS
  0
BLOCK
  5
18
  8
0
  2
$Model_Space
 70
0
 10
0.0
 20
0.0
 30
0.0
  3
$Model_Space
  1

  0
ENDBLK
  5
19
  8
0
  0
BLOCK
  5
1C
  8
0
  2
$Paper_Space
 70
0
 10
0.0
 20
0.0
 30
0.0
  3
$Paper_Space
  1

  0
ENDBLK
  5
1D
  8
0
  0
ENDSEC
  0
SECTION
  2
ENTITIES
  0
LINE
  5
2E
  8
MyLines
 10
341.0868855294048
 20
-169.5
 30
0.0
 11
334.24839558737966
 21
-169.5
 31
0.0
  0
LINE
  5
2F
  8
MyLines
 10
334.24839558737966
 20
-169.5
 30
0.0
 11
327.40990564535457
 21
-169.5
 31
0.0
  0
LINE
  5
30
  8
MyLines
 10
327.40990564535457
 20
-169.5
 30
0.0
 11
320.5714157033294
 21
-169.5
 31
0.0
  0
LINE
  5
31
  8
MyLines
 10
320.5714157033294
 20
-169.5
 30
0.0
 11
313.7329257613043
 21
-169.5
 31
0.0
  0
LINE
  5
32
  8
MyLines
 10
313.7329257613043
 20
-169.5
 30
0.0
 11
306.8944358192791
 21
-169.5
 31
0.0
  0
LINE
  5
33
  8
MyLines
 10
306.8944358192791
 20
-169.5
 30
0.0
 11
300.05594587725403
 21
-169.5
 31
0.0
  0
LINE
  5
34
  8
MyLines
 10
300.05594587725403
 20
-169.5
 30
0.0
 11
293.2174559352289
 21
-169.5
 31
0.0
  0
LINE
  5
35
  8
MyLines
 10
293.2174559352289
 20
-169.5
 30
0.0
 11
286.37896599320374
 21
-169.5
 31
0.0
  0
LINE
  5
36
  8
MyLines
 10
286.37896599320374
 20
-169.5
 30
0.0
 11
279.54047605117864
 21
-169.5
 31
0.0
  0
LINE
  5
37
  8
MyLines
 10
279.54047605117864
 20
-169.5
 30
0.0
 11
272.7019861091535
 21
-169.5
 31
0.0
  0
LINE
  5
38
  8
MyLines
 10
272.7019861091535
 20
-169.5
 30
0.0
 11
265.86349616712835
 21
-169.5
 31
0.0
  0
LINE
  5
39
  8
MyLines
 10
265.86349616712835
 20
-169.5
 30
0.0
 11
259.0250062251032
 21
-169.5
 31
0.0
  0
LINE
  5
3A
  8
MyLines
 10
259.0250062251032
 20
-169.5
 30
0.0
 11
252.18651628307813
 21
-169.5
 31
0.0
  0
LINE
  5
3B
  8
MyLines
 10
252.18651628307813
 20
-169.5
 30
0.0
 11
245.348026341053
 21
-169.5
 31
0.0
  0
LINE
  5
3C
  8
MyLines
 10
245.348026341053
 20
-169.5
 30
0.0
 11
238.50953639902784
 21
-169.5
 31
0.0
  0
LINE
  5
3D
  8
MyLines
 10
238.50953639902784
 20
-169.5
 30
0.0
 11
231.67104645700275
 21
-169.5
 31
0.0
  0
LINE
  5
3E
  8
MyLines
 10
231.67104645700275
 20
-169.5
 30
0.0
 11
224.83255651497763
 21
-169.5
 31
0.0
  0
LINE
  5
3F
  8
MyLines
 10
224.83255651497763
 20
-169.5
 30
0.0
 11
217.99406657295248
 21
-169.5
 31
0.0
  0
LINE
  5
40
  8
MyLines
 10
217.99406657295248
 20
-169.5
 30
0.0
 11
211.15557663092736
 21
-169.5
 31
0.0
  0
LINE
  5
41
  8
MyLines
 10
211.15557663092736
 20
-169.5
 30
0.0
 11
204.3170866889022
 21
-169.5
 31
0.0
  0
LINE
  5
42
  8
MyLines
 10
204.3170866889022
 20
-169.5
 30
0.0
 11
197.4785967468771
 21
-169.5
 31
0.0
  0
LINE
  5
43
  8
MyLines
 10
197.4785967468771
 20
-169.5
 30
0.0
 11
190.64010680485194
 21
-169.5
 31
0.0
  0
LINE
  5
44
  8
MyLines
 10
190.64010680485194
 20
-169.5
 30
0.0
 11
183.80161686282685
 21
-169.5
 31
0.0
  0
LINE
  5
45
  8
MyLines
 10
183.80161686282685
 20
-169.5
 30
0.0
 11
176.96312692080173
 21
-169.5
 31
0.0
  0
LINE
  5
46
  8
MyLines
 10
176.96312692080173
 20
-169.5
 30
0.0
 11
170.12463697877658
 21
-169.5
 31
0.0
  0
LINE
  5
47
  8
MyLines
 10
170.12463697877658
 20
-169.5
 30
0.0
 11
163.28614703675146
 21
-169.5
 31
0.0
  0
LINE
  5
48
  8
MyLines
 10
163.28614703675146
 20
-169.5
 30
0.0
 11
156.4476570947263
 21
-169.5
 31
0.0
  0
LINE
  5
49
  8
MyLines
 10
156.4476570947263
 20
-169.5
 30
0.0
 11
149.6091671527012
 21
-169.5
 31
0.0
  0
LINE
  5
4A
  8
MyLines
 10
149.6091671527012
 20
-169.5
 30
0.0
 11
142.77067721067607
 21
-169.5
 31
0.0
  0
LINE
  5
4B
  8
MyLines
 10
142.77067721067607
 20
-169.5
 30
0.0
 11
135.93218726865095
 21
-169.5
 31
0.0
  0
LINE
  5
4C
  8
MyLines
 10
135.93218726865095
 20
-169.5
 30
0.0
 11
129.0936973266258
 21
-169.5
 31
0.0
  0
LINE
  5
4D
  8
MyLines
 10
129.0936973266258
 20
-169.5
 30
0.0
 11
122.25520738460068
 21
-169.5
 31
0.0
  0
LINE
  5
4E
  8
MyLines
 10
122.25520738460068
 20
-169.5
 30
0.0
 11
115.41671744257556
 21
-169.5
 31
0.0
  0
LINE
  5
4F
  8
MyLines
 10
115.41671744257556
 20
-169.5
 30
0.0
 11
108.57822750055043
 21
-169.5
 31
0.0
  0
LINE
  5
50
  8
MyLines
 10
108.57822750055043
 20
-169.5
 30
0.0
 11
101.7397375585253
 21
-169.5
 31
0.0
  0
LINE
  5
51
  8
MyLines
 10
101.7397375585253
 20
-169.5
 30
0.0
 11
94.90124761650016
 21
-169.5
 31
0.0
  0
LINE
  5
52
  8
MyLines
 10
94.90124761650016
 20
-169.5
 30
0.0
 11
88.06275767447505
 21
-169.5
 31
0.0
  0
LINE
  5
53
  8
MyLines
 10
88.06275767447505
 20
-169.5
 30
0.0
 11
81.22426773244993
 21
-169.5
 31
0.0
  0
LINE
  5
54
  8
MyLines
 10
81.22426773244993
 20
-169.5
 30
0.0
 11
74.38577779042478
 21
-169.5
 31
0.0
  0
LINE
  5
55
  8
MyLines
 10
74.38577779042478
 20
-169.5
 30
0.0
 11
67.54728784839963
 21
-169.5
 31
0.0
  0
LINE
  5
56
  8
MyLines
 10
67.54728784839963
 20
-169.5
 30
0.0
 11
60.70879790637455
 21
-169.5
 31
0.0
  0
LINE
  5
57
  8
MyLines
 10
60.70879790637455
 20
-169.5
 30
0.0
 11
53.87030796434941
 21
-169.5
 31
0.0
  0
LINE
  5
58
  8
MyLines
 10
53.87030796434941
 20
-169.5
 30
0.0
 11
47.031818022324266
 21
-169.5
 31
0.0
  0
LINE
  5
59
  8
MyLines
 10
47.031818022324266
 20
-169.5
 30
0.0
 11
40.19332808029912
 21
-169.5
 31
0.0
  0
LINE
  5
5A
  8
MyLines
 10
40.19332808029912
 20
-169.5
 30
0.0
 11
33.35483813827403
 21
-169.5
 31
0.0
  0
LINE
  5
5B
  8
MyLines
 10
33.35483813827403
 20
-169.5
 30
0.0
 11
26.516348196248888
 21
-169.5
 31
0.0
  0
LINE
  5
5C
  8
MyLines
 10
26.516348196248888
 20
-169.5
 30
0.0
 11
19.677858254223743
 21
-169.5
 31
0.0
  0
LINE
  5
5D
  8
MyLines
 10
19.677858254223743
 20
-169.5
 30
0.0
 11
12.839368312198657
 21
-169.5
 31
0.0
  0
LINE
  5
5E
  8
MyLines
 10
12.839368312198657
 20
-169.5
 30
0.0
 11
6.000878370173536
 21
-169.5
 31
0.0
  0
ENDSEC
  0
EOF
